<svg width="171" height="185" viewBox="0 0 171 185" fill="none" xmlns="http://www.w3.org/2000/svg">
<path d="M135.682 102.12L129.782 159.72C129.182 165.12 137.582 166.02 138.182 160.62L144.082 103.02C144.582 97.6198 136.282 96.7198 135.682 102.12Z" fill="black"/>
<path d="M127.082 157.72C127.082 158.22 125.882 158.62 125.382 158.72C122.182 159.82 120.082 163.32 119.382 165.52C119.082 166.42 118.482 168.32 119.382 169.72C121.382 172.82 125.082 168.42 126.482 166.82C126.582 170.32 126.682 173.72 126.282 177.22C126.082 178.72 125.282 180.52 125.982 181.92C126.682 183.22 128.182 182.92 129.282 182.42C129.282 182.42 131.482 185.82 133.782 182.12C134.482 182.92 135.082 183.12 135.182 183.12C136.782 183.32 137.882 181.42 138.582 180.22C142.682 173.42 142.482 166.42 140.682 159.02L141.282 158.62C141.682 158.32 142.082 157.82 142.382 157.32C142.982 156.22 142.882 154.72 141.982 153.72C140.482 152.32 138.382 152.32 136.482 152.32C134.182 152.32 131.982 152.12 129.682 151.92C122.882 151.52 125.582 156.02 126.182 156.62C127.082 157.72 127.082 157.42 127.082 157.72Z" fill="white" stroke="black" stroke-width="0.7892" stroke-miterlimit="10"/>
<path d="M131.482 170.12C131.482 170.12 131.782 177.82 129.282 182.52" stroke="black" stroke-width="0.7892" stroke-miterlimit="10"/>
<path d="M133.782 182.22C133.782 182.22 136.782 176.52 136.482 171.22" stroke="black" stroke-width="0.7892" stroke-miterlimit="10"/>
<path d="M129.682 169.52C129.882 169.32 129.882 169.12 129.782 168.92C129.582 168.72 129.382 168.72 129.182 168.92C128.982 169.12 128.982 169.32 129.082 169.52C129.182 169.62 129.482 169.72 129.682 169.52Z" fill="black" stroke="black" stroke-width="0.7892" stroke-miterlimit="10"/>
<path d="M134.582 169.92C134.782 169.72 134.782 169.52 134.682 169.32C134.482 169.12 134.282 169.12 134.082 169.32C133.882 169.52 133.882 169.72 133.982 169.92C134.182 170.12 134.482 170.12 134.582 169.92Z" fill="black" stroke="black" stroke-width="0.7892" stroke-miterlimit="10"/>
<path d="M139.282 170.72C139.482 170.52 139.482 170.32 139.382 170.12C139.182 169.92 138.982 169.92 138.782 170.12C138.582 170.32 138.582 170.52 138.682 170.72C138.782 170.92 139.082 170.92 139.282 170.72Z" fill="black" stroke="black" stroke-width="0.7892" stroke-miterlimit="10"/>
<path d="M127.082 157.92L129.682 158.12" stroke="black" stroke-width="0.7892" stroke-miterlimit="10"/>
<path d="M138.382 159.02H140.682" stroke="black" stroke-width="0.7892" stroke-miterlimit="10"/>
<path d="M29.1825 89.4198L23.2825 147.02C22.6825 152.42 14.3825 151.52 14.8825 146.12L20.7825 88.5198C21.3825 83.2198 29.6825 84.0198 29.1825 89.4198Z" fill="black"/>
<path d="M26.2824 145.62C26.1824 146.12 27.2824 146.72 27.6824 146.92C30.5824 148.62 31.8824 152.52 32.1824 154.82C32.2824 155.72 32.4824 157.72 31.2824 158.92C28.6824 161.62 25.9824 156.42 24.9824 154.72C24.1824 158.12 23.3824 161.42 23.0824 164.92C22.9824 166.42 23.3824 168.32 22.3824 169.62C21.4824 170.72 20.0824 170.12 19.0824 169.42C19.0824 169.42 16.2824 172.32 14.7824 168.22C13.8824 168.92 13.3824 168.92 13.1824 168.92C11.5824 168.82 10.8824 166.72 10.4824 165.42C7.88242 158.02 9.48242 151.12 12.7824 144.22L12.2824 143.72C11.8824 143.32 11.5824 142.82 11.4824 142.22C11.0824 141.02 11.4824 139.52 12.5824 138.82C14.2824 137.72 16.3824 138.22 18.2824 138.62C20.4824 139.02 22.7824 139.32 24.9824 139.62C31.6824 140.62 28.1824 144.52 27.4824 144.92C26.3824 145.52 26.2824 145.32 26.2824 145.62Z" fill="white" stroke="black" stroke-width="0.7892" stroke-miterlimit="10"/>
<path d="M19.3825 156.82C19.3825 156.82 17.4825 164.32 18.9825 169.42" stroke="black" stroke-width="0.7892" stroke-miterlimit="10"/>
<path d="M14.6824 168.22C14.6824 168.22 12.8824 162.02 14.2824 156.92" stroke="black" stroke-width="0.7892" stroke-miterlimit="10"/>
<path d="M21.3825 156.62C21.1825 156.42 21.2825 156.12 21.4825 156.02C21.6825 155.92 21.9825 155.92 22.0825 156.12C22.2825 156.32 22.1825 156.62 21.9825 156.72C21.7825 156.82 21.4825 156.82 21.3825 156.62Z" fill="black" stroke="black" stroke-width="0.7892" stroke-miterlimit="10"/>
<path d="M16.3825 156.02C16.1825 155.82 16.2825 155.52 16.4825 155.42C16.6825 155.32 16.9825 155.32 17.0825 155.52C17.1825 155.72 17.1825 156.02 16.9825 156.12C16.8825 156.22 16.5825 156.22 16.3825 156.02Z" fill="black" stroke="black" stroke-width="0.7892" stroke-miterlimit="10"/>
<path d="M11.6825 155.82C11.4825 155.62 11.5825 155.32 11.7825 155.22C11.9825 155.12 12.2825 155.12 12.3825 155.32C12.5825 155.52 12.4825 155.82 12.2825 155.92C12.0825 156.12 11.7825 156.02 11.6825 155.82Z" fill="black" stroke="black" stroke-width="0.7892" stroke-miterlimit="10"/>
<path d="M26.2824 145.82L23.6824 145.42" stroke="black" stroke-width="0.7892" stroke-miterlimit="10"/>
<path d="M14.9824 144.62L12.6824 144.12" stroke="black" stroke-width="0.7892" stroke-miterlimit="10"/>
<path d="M169.983 44.9198C169.683 32.8198 163.483 21.7198 153.083 15.7198C138.883 7.51978 114.683 5.71978 86.5825 42.0198C86.5825 42.0198 62.4825 -11.1802 23.9825 3.81979C12.8825 8.11979 4.68253 17.6198 2.28253 29.4198C-10.3175 89.9198 73.8825 157.22 75.1825 158.22C76.0825 157.72 171.583 106.92 169.983 44.9198Z" fill="#F96F6F" stroke="black" stroke-width="0.8705" stroke-miterlimit="10"/>
<path d="M41.8826 8.51978C37.0826 9.11978 32.5826 10.6198 28.5826 12.8198C26.5826 14.0198 24.7826 15.2198 23.1826 16.8198C21.5826 18.3198 20.0826 20.0198 18.7826 21.9198C18.0826 22.8198 17.5826 23.8198 16.9826 24.8198C16.4826 25.8198 15.8826 26.8198 15.4826 27.9198C14.4826 30.0198 13.7826 32.2198 13.0826 34.4198C11.6826 38.9198 10.7826 43.6198 9.88261 48.4198H9.68262C9.78262 43.6198 10.1826 38.7198 11.2826 34.0198C12.3826 29.3198 14.1826 24.7198 16.8826 20.7198C19.6826 16.7198 23.3826 13.3198 27.7826 11.3198C32.1826 9.21979 37.0826 8.11978 41.8826 8.41978V8.51978Z" fill="white"/>
<path d="M142.183 19.0198C144.683 20.0198 146.983 21.5198 149.083 23.1198C151.183 24.8198 153.183 26.7198 154.783 28.9198C156.483 31.1198 157.883 33.5198 158.983 36.0198C160.083 38.6198 160.883 41.3198 161.383 44.0198C161.783 46.8198 161.883 49.5198 161.683 52.3198C161.583 53.0198 161.483 53.7198 161.483 54.4198C161.383 55.1198 161.283 55.8198 161.183 56.4198L160.783 58.4198L160.283 60.4198C158.783 65.6198 156.383 70.5198 153.183 74.8198L152.983 74.7198C155.383 70.0198 157.283 65.1198 158.483 60.0198C159.083 57.4198 159.383 54.8198 159.583 52.2198C159.683 49.6198 159.583 47.0198 159.083 44.4198C158.283 39.2198 156.283 34.3198 153.283 29.9198C150.283 25.6198 146.483 21.8198 141.983 19.1198L142.183 19.0198Z" fill="white"/>
<path d="M150.083 81.8198C146.683 81.0198 147.883 75.6198 151.383 76.4198C154.783 77.2198 153.483 82.6198 150.083 81.8198Z" fill="white"/>
<path d="M80.0825 82.5198C79.6825 84.2198 80.7825 85.9198 82.4825 86.3198C84.1825 86.7198 85.8825 85.6198 86.2825 83.9198C86.6825 82.2198 85.5825 80.5198 83.8825 80.1198C82.1825 79.7198 80.4825 80.8198 80.0825 82.5198Z" fill="#F96F6F" stroke="black" stroke-width="0.7892" stroke-miterlimit="10"/>
<path d="M57.7826 28.6198C57.4826 31.8198 55.9826 34.8198 53.8826 37.3198C51.7826 39.8198 48.8826 41.8198 45.6826 42.9198C42.4826 44.0198 38.9826 44.2198 35.7826 43.4198C32.5826 42.7198 29.5826 41.2198 27.3826 38.8198L27.4826 38.5198C30.1826 39.6198 33.0826 40.3198 35.8826 40.5198C38.7826 40.7198 41.6826 40.3198 44.3826 39.4198C47.0826 38.5198 49.6826 37.0198 51.8826 35.1198C52.9826 34.2198 53.9826 33.1198 54.8826 32.0198C55.7826 30.9198 56.6826 29.7198 57.3826 28.4198L57.7826 28.6198Z" fill="black"/>
<path d="M143.582 44.8198C141.282 47.0198 138.182 48.4198 134.982 48.9198C131.782 49.4198 128.282 49.1198 125.082 47.8198C121.982 46.5198 119.182 44.4198 117.182 41.8198C115.182 39.2198 113.882 36.1198 113.782 32.9198L114.082 32.7198C115.382 35.3198 117.182 37.7198 119.182 39.7198C121.282 41.7198 123.682 43.4198 126.382 44.4198C129.082 45.5198 131.982 46.0198 134.882 46.0198C136.282 46.0198 137.782 45.8198 139.182 45.6198C140.582 45.4198 141.982 45.0198 143.382 44.5198L143.582 44.8198Z" fill="black"/>
<path d="M46.1827 90.5198C45.4827 91.6198 44.3827 93.0198 42.3827 92.9198C40.6827 92.8198 38.9827 91.7198 38.4827 90.1198C38.3827 89.7198 38.5827 88.0198 38.3827 87.7198C36.8827 86.0198 32.9827 89.2198 33.0827 85.1198C33.1827 83.1198 35.6827 80.7198 37.7827 81.0198L46.1827 90.5198Z" fill="#ACBFFF" stroke="black" stroke-width="0.8145" stroke-miterlimit="10"/>
<path d="M43.4826 91.1198C43.3826 90.8198 43.0827 90.7198 42.7827 90.8198H42.6827H42.5827C42.4827 90.8198 42.4826 90.8198 42.3826 90.8198H42.2827C42.1827 90.8198 42.1827 90.8198 42.0827 90.8198H41.9826H41.8826C41.7826 90.8198 41.6827 90.7198 41.5827 90.7198H41.4826L41.3826 90.6198C41.2826 90.6198 41.2827 90.5198 41.2827 90.5198C41.2827 90.5198 41.2827 90.5198 41.1827 90.4198L41.0827 90.3198V90.2198C41.0827 90.2198 41.0827 90.2198 41.0827 90.1198C41.0827 90.0198 41.0827 90.0198 41.0827 89.9198C41.0827 89.6198 40.6826 89.4198 40.4826 89.5198C40.1826 89.6198 39.9827 89.8198 40.0827 90.1198C40.1827 91.5198 42.0827 92.3198 43.2827 91.7198C43.4827 91.7198 43.5826 91.3198 43.4826 91.1198Z" fill="white"/>
<path d="M67.4828 80.9198C64.3828 87.0198 59.6828 91.1198 53.5828 91.3198C49.3828 91.4198 45.4828 89.7198 42.0828 86.6198C36.8828 81.8198 33.2828 73.4198 32.5828 62.9198C37.7828 62.7198 43.5828 62.2198 49.8828 61.1198C58.4828 59.6198 65.8828 57.3198 71.9828 55.1198C72.5828 64.3198 71.0828 73.9198 67.4828 80.9198Z" fill="white" stroke="black" stroke-width="0.8286" stroke-miterlimit="10"/>
<path d="M67.5826 80.6198C64.4826 86.7198 59.7826 90.8198 53.6826 91.0198C49.4826 91.1198 45.5826 89.4198 42.1826 86.3198C41.0826 83.9198 40.5826 81.0198 40.8826 78.1198C41.6826 70.0198 48.3826 64.0198 55.7826 64.7198C62.9826 65.5198 68.2826 72.6198 67.5826 80.6198Z" fill="black" stroke="black" stroke-width="1.1245" stroke-miterlimit="10"/>
<path d="M50.0826 73.8198C49.7826 76.6198 47.2826 78.7198 44.4826 78.4198C41.6826 78.1198 39.5826 75.6198 39.8826 72.8198C40.1826 70.0198 42.6826 67.9198 45.4826 68.2198C48.2826 68.5198 50.3826 71.0198 50.0826 73.8198Z" fill="white" stroke="white" stroke-width="1.1047" stroke-miterlimit="10"/>
<path d="M28.4827 62.2198C32.4827 61.8198 36.3827 61.5198 40.2827 61.0198C41.2827 60.8198 42.1827 60.7198 43.1827 60.6198L46.0827 60.1198C47.0827 59.9198 47.9827 59.8198 48.9827 59.6198L51.8827 59.0198L54.7827 58.4198C55.6827 58.2198 56.6827 57.9198 57.5827 57.7198L60.3827 57.0198C61.2827 56.7198 62.2827 56.5198 63.1827 56.3198L74.6827 53.1198L74.7827 53.3198C67.6827 56.8198 60.0827 59.5198 52.2827 61.1198C44.4827 62.7198 36.3827 63.2198 28.4827 62.3198V62.2198Z" fill="black"/>
<path d="M129.483 89.0198C130.483 89.9198 131.583 91.2198 131.183 93.2198C130.783 94.9198 129.383 96.3198 127.683 96.5198C127.183 96.5198 125.683 96.0198 125.383 96.2198C123.483 97.4198 125.783 101.82 121.783 100.92C119.783 100.52 117.983 97.5198 118.583 95.5198L129.483 89.0198Z" fill="#ACBFFF" stroke="black" stroke-width="0.8145" stroke-miterlimit="10"/>
<path d="M129.583 91.8198C129.283 91.9198 129.083 92.2198 129.183 92.5198V92.6198V92.7198C129.183 92.8198 129.183 92.8198 129.183 92.9198V93.0198C129.183 93.1198 129.183 93.1198 129.083 93.2198V93.3198V93.4198C129.083 93.5198 128.983 93.6198 128.983 93.6198C128.983 93.6198 128.983 93.6198 128.883 93.7198L128.783 93.8198L128.683 93.9198C128.683 93.9198 128.683 93.9198 128.583 93.9198C128.583 93.9198 128.483 93.9198 128.483 94.0198H128.383C128.383 94.0198 128.383 94.0198 128.283 94.0198C128.183 94.0198 128.183 94.0198 128.083 94.0198C127.783 94.0198 127.483 94.3198 127.483 94.5198C127.483 94.8198 127.683 95.0198 127.983 95.1198C129.383 95.2198 130.483 93.5198 130.183 92.3198C130.183 91.9198 129.883 91.7198 129.583 91.8198Z" fill="white"/>
<path d="M99.4827 83.4198C101.283 90.0198 104.983 95.0198 110.983 96.4198C115.083 97.4198 119.283 96.5198 123.183 94.2198C129.183 90.5198 134.483 83.1198 137.283 72.9198C132.283 71.7198 126.683 69.9198 120.683 67.5198C112.583 64.3198 105.783 60.5198 100.383 57.1198C97.9827 66.1198 97.4827 75.8198 99.4827 83.4198Z" fill="white" stroke="black" stroke-width="0.8286" stroke-miterlimit="10"/>
<path d="M100.083 83.2198C101.983 89.8198 105.883 94.7198 111.883 95.9198C115.983 96.8198 120.183 95.9198 123.983 93.4198C125.483 91.2198 126.483 88.5198 126.783 85.6198C127.483 77.5198 121.983 70.4198 114.583 69.8198C107.283 69.2198 100.883 75.2198 100.083 83.2198Z" fill="black" stroke="black" stroke-width="1.1245" stroke-miterlimit="10"/>
<path d="M100.183 73.3198C100.083 76.1198 102.383 78.5198 105.183 78.6198C107.983 78.7198 110.383 76.4198 110.483 73.6198C110.583 70.8198 108.283 68.4198 105.483 68.3198C102.583 68.2198 100.283 70.4198 100.183 73.3198Z" fill="white" stroke="white" stroke-width="1.1047" stroke-miterlimit="10"/>
<path d="M141.483 73.3198C137.483 73.7198 133.383 73.3198 129.383 72.5198C128.383 72.3198 127.383 72.1198 126.383 71.8198L123.483 71.0198C122.483 70.7198 121.583 70.3198 120.583 70.0198L117.783 68.9198L114.983 67.6198C114.083 67.1198 113.183 66.7198 112.283 66.2198L109.683 64.7198C108.783 64.2198 107.983 63.6198 107.183 63.0198C103.883 60.7198 100.783 58.1198 98.0828 55.0198L98.1828 54.8198C104.483 59.6198 111.383 63.7198 118.683 66.8198C125.983 70.0198 133.683 72.2198 141.583 73.1198L141.483 73.3198Z" fill="black"/>
<path d="M113.383 100.52C114.483 103.62 115.283 106.92 115.783 110.22C116.083 112.72 116.783 116.42 114.183 118.02C112.783 118.92 110.783 118.62 109.683 117.22C108.483 115.62 108.883 113.32 109.283 111.52C109.983 107.82 111.483 104.32 113.083 101.02C113.283 100.82 113.383 100.62 113.383 100.52Z" fill="#ACBFFF" stroke="black" stroke-width="0.5871" stroke-miterlimit="10"/>
<path d="M112.783 116.32C113.783 115.32 114.083 113.82 113.683 112.52C113.583 112.22 113.683 111.92 113.983 111.72C114.283 111.62 114.683 111.72 114.783 112.02C115.083 112.92 115.183 113.92 114.983 114.82C114.783 115.72 114.283 116.52 113.683 117.22C113.483 117.42 113.083 117.42 112.883 117.12C112.483 116.92 112.583 116.52 112.783 116.32Z" fill="white"/>
<path d="M53.6825 96.2198C51.2825 99.8198 49.1825 103.72 47.6825 107.82C46.5825 110.82 44.5825 115.32 47.6825 118.02C49.4825 119.52 52.2825 119.72 54.1825 118.32C56.3825 116.62 56.3825 113.62 56.3825 111.22C56.3825 106.42 55.2825 101.52 53.9825 96.8198C53.7825 96.6198 53.7825 96.4198 53.6825 96.2198Z" fill="#ACBFFF" stroke="black" stroke-width="0.7985" stroke-miterlimit="10"/>
<path d="M50.1826 116.32C49.0826 114.72 48.9826 112.82 49.9826 111.32C50.1826 111.02 50.1826 110.52 49.7826 110.22C49.4826 110.02 48.8826 110.02 48.5826 110.32C47.8826 111.42 47.4826 112.52 47.5826 113.82C47.5826 115.02 48.0826 116.12 48.7826 117.22C48.9826 117.52 49.5826 117.62 49.9826 117.42C50.4826 117.12 50.4826 116.72 50.1826 116.32Z" fill="white"/>
<path d="M66.5826 93.6198C70.0826 90.8198 75.1826 88.9198 82.3826 89.2198C89.6826 89.6198 94.9826 92.6198 98.2826 96.5198C103.783 103.02 103.583 111.72 97.3826 113.82C87.4826 117.12 81.7826 107.02 81.7826 107.02C81.7826 107.02 69.4826 117.42 62.2826 108.92C59.7826 105.82 60.6826 98.4198 66.5826 93.6198Z" fill="#FFDADA" stroke="black" stroke-width="0.7892" stroke-miterlimit="10"/>
<path d="M93.4825 105.52C91.9825 103.32 87.8825 98.0198 81.5825 97.6198C75.1825 97.2198 70.2825 102.12 68.5825 104.12" stroke="black" stroke-width="0.7892" stroke-miterlimit="10"/>
</svg>
