<svg width="608" height="351" viewBox="0 0 608 351" fill="none" xmlns="http://www.w3.org/2000/svg">
<mask id="mask0_3_71734" style="mask-type:alpha" maskUnits="userSpaceOnUse" x="0" y="0" width="608" height="351">
<rect x="0.295546" y="1.09248" width="607.028" height="349.552" fill="#D9D9D9" stroke="#F96F6F" stroke-width="0.591092"/>
</mask>
<g mask="url(#mask0_3_71734)">
<rect x="-1.70069e-08" y="0.285329" width="0.570658" height="662.533" transform="matrix(0.866025 0.5 -0.866025 0.5 311.751 40.0837)" stroke="#F96F6F" stroke-width="0.570658"/>
<rect x="-1.70069e-08" y="0.285329" width="0.570658" height="662.533" transform="matrix(0.866025 0.5 -0.866025 0.5 356.23 65.7651)" stroke="#F96F6F" stroke-width="0.570658"/>
<rect x="-1.70069e-08" y="0.285329" width="0.570658" height="662.533" transform="matrix(0.866025 0.5 -0.866025 0.5 400.708 91.4442)" stroke="#F96F6F" stroke-width="0.570658"/>
<rect x="-1.70069e-08" y="0.285329" width="0.570658" height="662.533" transform="matrix(0.866025 0.5 -0.866025 0.5 445.186 117.124)" stroke="#F96F6F" stroke-width="0.570658"/>
<mask id="path-6-inside-1_3_71734" fill="white">
<path d="M489.417 142.66L490.406 143.231L-104.771 486.856L-105.759 486.285L489.417 142.66Z"/>
</mask>
<path d="M489.417 142.66L491.15 141.66L489.417 140.66L487.685 141.66L489.417 142.66ZM490.406 143.231L492.138 144.231L493.87 143.231L492.138 142.231L490.406 143.231ZM-104.771 486.856L-106.503 487.856L-104.771 488.856L-103.039 487.856L-104.771 486.856ZM-105.759 486.285L-107.491 485.285L-109.223 486.285L-107.491 487.285L-105.759 486.285ZM487.685 143.66L488.674 144.231L492.138 142.231L491.15 141.66L487.685 143.66ZM488.674 142.231L-106.503 485.856L-103.039 487.856L492.138 144.231L488.674 142.231ZM-103.039 485.856L-104.027 485.285L-107.491 487.285L-106.503 487.856L-103.039 485.856ZM-104.027 487.285L491.15 143.66L487.685 141.66L-107.491 485.285L-104.027 487.285Z" fill="#F96F6F" mask="url(#path-6-inside-1_3_71734)"/>
<mask id="path-8-inside-2_3_71734" fill="white">
<path d="M533.896 168.34L534.884 168.91L-82.3403 525.265L-83.3287 524.694L533.896 168.34Z"/>
</mask>
<path d="M533.896 168.34L535.628 167.34L533.896 166.34L532.164 167.34L533.896 168.34ZM534.884 168.91L536.616 169.91L538.349 168.91L536.616 167.91L534.884 168.91ZM-82.3403 525.265L-84.0724 526.265L-82.3403 527.265L-80.6083 526.265L-82.3403 525.265ZM-83.3287 524.694L-85.0608 523.694L-86.7928 524.694L-85.0608 525.694L-83.3287 524.694ZM532.164 169.34L533.152 169.91L536.616 167.91L535.628 167.34L532.164 169.34ZM533.152 167.91L-84.0724 524.265L-80.6083 526.265L536.616 169.91L533.152 167.91ZM-80.6083 524.265L-81.5967 523.694L-85.0608 525.694L-84.0724 526.265L-80.6083 524.265ZM-81.5967 525.694L535.628 169.34L532.164 167.34L-85.0608 523.694L-81.5967 525.694Z" fill="#F96F6F" mask="url(#path-8-inside-2_3_71734)"/>
<mask id="path-10-inside-3_3_71734" fill="white">
<path d="M578.374 194.019L579.362 194.589L-57.3609 562.202L-58.3493 561.631L578.374 194.019Z"/>
</mask>
<path d="M578.374 194.019L580.106 193.019L578.374 192.019L576.642 193.019L578.374 194.019ZM579.362 194.589L581.095 195.589L582.827 194.589L581.095 193.589L579.362 194.589ZM-57.3609 562.202L-59.0929 563.202L-57.3609 564.202L-55.6288 563.202L-57.3609 562.202ZM-58.3493 561.631L-60.0813 560.631L-61.8134 561.631L-60.0813 562.631L-58.3493 561.631ZM576.642 195.019L577.63 195.589L581.095 193.589L580.106 193.019L576.642 195.019ZM577.63 193.589L-59.0929 561.202L-55.6288 563.202L581.095 195.589L577.63 193.589ZM-55.6288 561.202L-56.6172 560.631L-60.0813 562.631L-59.0929 563.202L-55.6288 561.202ZM-56.6172 562.631L580.106 195.019L576.642 193.019L-60.0813 560.631L-56.6172 562.631Z" fill="#F96F6F" mask="url(#path-10-inside-3_3_71734)"/>
<mask id="path-12-inside-4_3_71734" fill="white">
<path d="M622.853 219.698L623.841 220.269L-37.3679 602.018L-38.3563 601.447L622.853 219.698Z"/>
</mask>
<path d="M622.853 219.698L624.585 218.698L622.853 217.698L621.121 218.698L622.853 219.698ZM623.841 220.269L625.573 221.269L627.305 220.269L625.573 219.269L623.841 220.269ZM-37.3679 602.018L-39.1 603.018L-37.3679 604.018L-35.6359 603.018L-37.3679 602.018ZM-38.3563 601.447L-40.0884 600.447L-41.8204 601.447L-40.0884 602.447L-38.3563 601.447ZM621.121 220.698L622.109 221.269L625.573 219.269L624.585 218.698L621.121 220.698ZM622.109 219.269L-39.1 601.018L-35.6359 603.018L625.573 221.269L622.109 219.269ZM-35.6358 601.018L-36.6243 600.447L-40.0884 602.447L-39.1 603.018L-35.6358 601.018ZM-36.6243 602.447L624.585 220.698L621.121 218.698L-40.0884 600.447L-36.6243 602.447Z" fill="#F96F6F" mask="url(#path-12-inside-4_3_71734)"/>
<mask id="path-14-inside-5_3_71734" fill="white">
<path d="M667.331 245.379L668.32 245.95L-15.1285 640.538L-16.1169 639.968L667.331 245.379Z"/>
</mask>
<path d="M667.331 245.379L669.063 244.379L667.331 243.379L665.599 244.379L667.331 245.379ZM668.32 245.95L670.052 246.95L671.784 245.95L670.052 244.95L668.32 245.95ZM-15.1285 640.538L-16.8606 641.538L-15.1285 642.538L-13.3965 641.538L-15.1285 640.538ZM-16.1169 639.968L-17.849 638.968L-19.581 639.968L-17.849 640.968L-16.1169 639.968ZM665.599 246.379L666.587 246.95L670.052 244.95L669.063 244.379L665.599 246.379ZM666.587 244.95L-16.8606 639.538L-13.3965 641.538L670.052 246.95L666.587 244.95ZM-13.3965 639.538L-14.3849 638.968L-17.849 640.968L-16.8606 641.538L-13.3965 639.538ZM-14.3849 640.968L669.063 246.379L665.599 244.379L-17.849 638.968L-14.3849 640.968Z" fill="#F96F6F" mask="url(#path-14-inside-5_3_71734)"/>
<mask id="path-16-inside-6_3_71734" fill="white">
<path d="M711.809 271.057L712.798 271.627L7.7955 678.661L6.80709 678.09L711.809 271.057Z"/>
</mask>
<path d="M711.809 271.057L713.541 270.057L711.809 269.057L710.077 270.057L711.809 271.057ZM712.798 271.627L714.53 272.627L716.262 271.627L714.53 270.627L712.798 271.627ZM7.7955 678.661L6.06345 679.661L7.7955 680.661L9.52755 679.661L7.7955 678.661ZM6.80709 678.09L5.07504 677.09L3.34299 678.09L5.07504 679.09L6.80709 678.09ZM710.077 272.057L711.065 272.627L714.53 270.627L713.541 270.057L710.077 272.057ZM711.065 270.627L6.06345 677.661L9.52755 679.661L714.53 272.627L711.065 270.627ZM9.52755 677.661L8.53914 677.09L5.07504 679.09L6.06345 679.661L9.52755 677.661ZM8.53914 679.09L713.541 272.057L710.077 270.057L5.07504 677.09L8.53914 679.09Z" fill="#F96F6F" mask="url(#path-16-inside-6_3_71734)"/>
<mask id="path-18-inside-7_3_71734" fill="white">
<path d="M756.288 296.737L757.276 297.308L22.4975 721.533L21.5091 720.962L756.288 296.737Z"/>
</mask>
<path d="M756.288 296.737L758.02 295.737L756.288 294.737L754.556 295.737L756.288 296.737ZM757.276 297.308L759.008 298.308L760.74 297.308L759.008 296.308L757.276 297.308ZM22.4975 721.533L20.7655 722.533L22.4975 723.533L24.2296 722.533L22.4975 721.533ZM21.5091 720.962L19.7771 719.962L18.045 720.962L19.7771 721.962L21.5091 720.962ZM754.556 297.737L755.544 298.308L759.008 296.308L758.02 295.737L754.556 297.737ZM755.544 296.308L20.7655 720.533L24.2296 722.533L759.008 298.308L755.544 296.308ZM24.2296 720.533L23.2412 719.962L19.7771 721.962L20.7655 722.533L24.2296 720.533ZM23.2412 721.962L758.02 297.737L754.556 295.737L19.7771 719.962L23.2412 721.962Z" fill="#F96F6F" mask="url(#path-18-inside-7_3_71734)"/>
<mask id="path-20-inside-8_3_71734" fill="white">
<path d="M795.699 325.442L796.688 326.012L55.0572 754.193L54.0688 753.622L795.699 325.442Z"/>
</mask>
<path d="M795.699 325.442L797.431 324.442L795.699 323.442L793.967 324.442L795.699 325.442ZM796.688 326.012L798.42 327.012L800.152 326.012L798.42 325.012L796.688 326.012ZM55.0572 754.193L53.3251 755.193L55.0572 756.193L56.7892 755.193L55.0572 754.193ZM54.0688 753.622L52.3367 752.622L50.6047 753.622L52.3367 754.622L54.0688 753.622ZM793.967 326.442L794.956 327.012L798.42 325.012L797.431 324.442L793.967 326.442ZM794.956 325.012L53.3251 753.193L56.7892 755.193L798.42 327.012L794.956 325.012ZM56.7892 753.193L55.8008 752.622L52.3367 754.622L53.3251 755.193L56.7892 753.193ZM55.8008 754.622L797.431 326.442L793.967 324.442L52.3367 752.622L55.8008 754.622Z" fill="#F96F6F" mask="url(#path-20-inside-8_3_71734)"/>
<rect x="0.494204" y="-2.55104e-08" width="0.570658" height="662.533" transform="matrix(0.866025 -0.5 0.866025 0.5 -133.369 297.556)" stroke="#F96F6F" stroke-width="0.570658"/>
<rect x="0.494204" y="-2.55104e-08" width="0.570658" height="662.533" transform="matrix(0.866025 -0.5 0.866025 0.5 -88.8908 271.875)" stroke="#F96F6F" stroke-width="0.570658"/>
<rect x="0.494204" y="-2.55104e-08" width="0.570658" height="662.533" transform="matrix(0.866025 -0.5 0.866025 0.5 -44.4123 246.197)" stroke="#F96F6F" stroke-width="0.570658"/>
<rect x="0.494204" y="-2.55104e-08" width="0.570658" height="662.533" transform="matrix(0.866025 -0.5 0.866025 0.5 0.0657225 220.518)" stroke="#F96F6F" stroke-width="0.570658"/>
<rect x="0.494204" y="-2.55104e-08" width="0.570658" height="662.533" transform="matrix(0.866025 -0.5 0.866025 0.5 44.5442 194.837)" stroke="#F96F6F" stroke-width="0.570658"/>
<rect x="0.494204" y="-2.55104e-08" width="0.570658" height="662.533" transform="matrix(0.866025 -0.5 0.866025 0.5 89.0228 169.158)" stroke="#F96F6F" stroke-width="0.570658"/>
<rect x="0.494204" y="-2.55104e-08" width="0.570658" height="662.533" transform="matrix(0.866025 -0.5 0.866025 0.5 133.501 143.479)" stroke="#F96F6F" stroke-width="0.570658"/>
<rect x="0.494204" y="-2.55104e-08" width="0.570658" height="662.533" transform="matrix(0.866025 -0.5 0.866025 0.5 177.979 117.799)" stroke="#F96F6F" stroke-width="0.570658"/>
<rect x="0.494204" y="-2.55104e-08" width="0.570658" height="662.533" transform="matrix(0.866025 -0.5 0.866025 0.5 222.457 92.1198)" stroke="#F96F6F" stroke-width="0.570658"/>
<rect x="0.494204" y="-2.55104e-08" width="0.570658" height="662.533" transform="matrix(0.866025 -0.5 0.866025 0.5 266.936 66.4407)" stroke="#F96F6F" stroke-width="0.570658"/>
<rect x="0.494204" y="-2.55104e-08" width="0.570658" height="662.533" transform="matrix(0.866025 -0.5 0.866025 0.5 311.414 40.7598)" stroke="#F96F6F" stroke-width="0.570658"/>
</g>
</svg>
