<svg width="128" height="155" viewBox="0 0 128 155" fill="none" xmlns="http://www.w3.org/2000/svg">
<path d="M31.425 62.7069L29.6163 64.4554C24.9137 65.6612 19.6684 66.2641 15.0261 64.5156C10.3235 62.7672 7.12809 59.0292 5.862 54.206C4.6562 49.5637 5.07822 44.6802 5.68112 39.9775C5.98257 37.6865 6.28403 35.4558 6.76635 33.1647C7.00751 32.0795 7.24866 30.9943 7.48982 29.9091C7.79127 28.643 8.15302 27.3769 8.45447 26.1711C8.45447 26.1711 8.45447 26.1108 8.45447 26.0505C8.69563 25.0256 8.9368 24.0006 9.17796 23.036C9.41912 21.7096 10.9867 20.9861 12.1925 21.3479C13.5189 21.7096 14.182 23.0963 13.8806 24.3624C13.6997 25.1462 13.5791 25.8696 13.338 26.6534C13.0365 27.9798 12.6748 29.3665 12.313 30.6928C11.9513 32.0795 11.5896 33.5265 11.3484 34.9735C10.9867 37.0233 10.6249 39.3143 10.3838 41.2436C9.90144 45.2831 9.5397 49.624 10.6852 53.5428C11.7101 57.0999 14.3026 59.5115 18.1009 60.4159C20.8742 61.0791 23.7682 60.8379 26.6018 60.1747L31.425 62.7069Z" fill="black"/>
<path d="M3.95195 24.4818C3.95195 24.4818 -0.919109 1.93352 5.75895 1.46213C5.75895 1.46213 8.11593 1.46213 8.82302 3.58339C8.82302 3.58339 11.3371 -0.894829 14.244 2.87631C16.051 5.23327 13.3798 10.1829 13.3798 10.1829C13.7726 9.79005 14.6368 9.71149 15.1868 9.63292C16.601 9.39723 18.0152 9.39723 19.4293 9.71149C21.472 10.1829 23.7504 11.7542 23.4362 14.1111C23.4362 14.1897 23.4362 14.2683 23.3576 14.3469C22.8862 16.3896 20.0579 17.1752 18.6437 15.6039C17.6223 14.504 16.2082 13.4826 14.6368 13.7183C12.437 14.1111 11.7299 16.5467 12.8298 18.3537C14.1654 20.5535 18.0151 21.182 20.6864 17.6466C21.0792 17.0966 21.3149 16.4681 21.8648 16.0753C22.5719 15.6039 23.5933 15.9182 23.9076 16.7038C25.0075 19.375 23.4362 26.9959 14.9511 25.4246" fill="white"/>
<path d="M3.95195 24.4818C3.95195 24.4818 -0.919109 1.93352 5.75895 1.46213C5.75895 1.46213 8.11593 1.46213 8.82302 3.58339C8.82302 3.58339 11.3371 -0.894829 14.244 2.87631C16.051 5.23327 13.3798 10.1829 13.3798 10.1829C13.7726 9.79005 14.6368 9.71149 15.1868 9.63292C16.601 9.39723 18.0152 9.39723 19.4293 9.71149C21.472 10.1829 23.7504 11.7542 23.4362 14.1111C23.4362 14.1897 23.4362 14.2683 23.3576 14.3469C22.8862 16.3896 20.0579 17.1752 18.6437 15.6039C17.6223 14.504 16.2082 13.4826 14.6368 13.7183C12.437 14.1111 11.7299 16.5467 12.8298 18.3537C14.1654 20.5535 18.0151 21.182 20.6864 17.6466C21.0792 17.0966 21.3149 16.4681 21.8648 16.0753C22.5719 15.6039 23.5933 15.9182 23.9076 16.7038C25.0075 19.375 23.4362 26.9959 14.9511 25.4246" stroke="black" stroke-width="0.8" stroke-miterlimit="10"/>
<path d="M8.82283 3.50482L8.11572 9.71149" stroke="black" stroke-width="0.8" stroke-miterlimit="10"/>
<path d="M12.044 25.346L14.951 25.5031C18.7221 25.8174 22.4147 32.024 9.76565 30.4527C-2.88337 28.8029 4.10896 24.4032 4.10896 24.4032C4.58035 24.4818 5.20886 24.6389 5.83738 24.6389C6.38734 24.7175 6.9373 24.7175 7.40869 24.6389" fill="white"/>
<path d="M12.044 25.346L14.951 25.5031C18.7221 25.8174 22.4147 32.024 9.76565 30.4527C-2.88337 28.8029 4.10896 24.4032 4.10896 24.4032C4.58035 24.4818 5.20886 24.6389 5.83738 24.6389C6.38734 24.7175 6.9373 24.7175 7.40869 24.6389" stroke="black" stroke-width="0.8" stroke-miterlimit="10"/>
<path d="M88.9702 136.519C89.1765 139.33 85.7378 140.289 84.1561 138.781C83.7434 138.37 83.4683 137.822 83.4683 137.136C83.1932 132.955 79.045 118.643 77.6007 114.736C77.4632 114.462 77.3944 114.119 77.2569 113.845C79.2513 113.434 81.0394 113.022 82.6899 112.474C84.478 116.724 88.6263 131.515 88.9702 135.971C88.9702 136.108 88.9702 136.314 88.9702 136.519Z" fill="black" stroke="black" stroke-width="0.8" stroke-miterlimit="10"/>
<path d="M59.0542 115.352C58.1602 119.327 58.4848 132.471 53.8275 135.286C51.0766 137.685 47.7067 138.165 44.4744 137.342C40.0041 136.177 37.1157 133.366 35.9465 131.996L35.8778 131.858C35.1213 130.83 35.0525 129.528 35.6027 128.5C36.0153 127.746 36.703 127.197 37.5283 126.992C38.0097 126.854 38.4911 126.923 38.9038 127.129C39.1101 127.197 39.2476 127.334 39.3852 127.471C41.1733 129.322 46.8126 134.258 51.2829 129.802C52.3832 128.774 53.2773 117.065 53.8275 115.146C55.5468 115.283 57.2661 115.352 59.0542 115.352Z" fill="black" stroke="black" stroke-width="0.8" stroke-miterlimit="10"/>
<path d="M36.289 110.797L49.3842 95.8597L50.0729 96.2245L45.0909 115.357L58.1121 118.694L64.3858 93.9805L64.7167 92.677L65.1525 93.9505L73.4095 118.079L86.0551 113.78L77.7666 89.5593L77.3341 88.2956L78.3905 89.115L98.724 104.887L106.897 94.3454L91.3124 82.203L91.6361 81.4959L111.069 85.3743L113.687 72.2567L91.0718 67.8148L89.6015 67.526L91.0189 67.0441L112.917 59.5995L108.604 46.9973L86.7988 54.4105L85.3915 54.889L86.3672 53.7694L101.515 36.3876L91.4311 27.687L78.3945 42.5041L77.7059 42.1404L82.5972 23.0388L69.6967 19.7597L63.21 44.7556L62.8755 46.0447L62.4439 44.7835L54.0923 20.3786L41.4467 24.6776L49.7668 48.9904L50.2017 50.2614L49.1419 49.434L28.8992 33.6305L20.699 44.0822L36.2818 56.2232L35.9607 56.9308L16.4662 53.1731L13.9059 66.1707L36.5554 70.7038L38.0142 70.9958L36.6069 71.4742L14.8937 78.856L19.2063 91.4581L41.0119 84.0449L42.4293 83.563L41.4425 84.6872L26.2627 101.98L36.289 110.797Z" fill="#F96F6F" stroke="black" stroke-width="0.8"/>
<path d="M64.0118 59.6603C63.8508 60.8288 64.6808 61.8831 65.8524 62.0429C67.024 62.2027 68.0818 61.3744 68.2427 60.2059C68.4036 59.0375 67.5737 57.9832 66.4021 57.8234C65.2304 57.6636 64.1727 58.4919 64.0118 59.6603Z" fill="#E30611" stroke="black" stroke-width="0.8" stroke-miterlimit="10"/>
<path d="M61.0085 61.8511C59.2163 61.1714 56.9258 60.8575 54.4851 61.0443C54.1225 61.0624 53.7599 61.0804 53.3925 61.1495C51.5652 61.3928 49.872 61.8544 48.5223 62.5019C47.9281 60.5946 47.6183 58.4048 47.5832 56.0344C47.5673 55.1066 47.5976 54.2346 47.7302 53.372C47.9459 51.0762 48.4491 49.0127 49.2302 47.2835C50.4842 44.3629 52.4185 42.4313 54.5845 42.425C54.6356 42.4297 54.6867 42.4344 54.7378 42.4391C57.4101 42.5309 59.7677 45.424 60.9177 49.6467C61.3729 51.3869 61.6556 53.3169 61.7194 55.3812C61.7098 55.4832 61.7513 55.59 61.7418 55.692C61.7353 57.9557 61.4366 60.038 61.0085 61.8511Z" fill="white" stroke="black" stroke-width="0.8" stroke-miterlimit="10"/>
<path d="M61.5717 54.75C61.7085 50.556 60.4507 47.2992 58.0693 46.4579C56.3428 47.3083 54.8073 49.0786 54.0014 51.3649C53.6208 52.5174 53.4566 53.6557 53.483 54.7165L56.8709 54.6678L53.8416 56.8613C54.3882 58.5602 55.4993 59.9185 57.0759 60.4223C58.276 60.8207 59.6637 61.7299 60.8892 61.1942C61.3282 59.2789 61.4878 56.4468 61.5717 54.75Z" fill="black" stroke="black" stroke-width="0.8" stroke-miterlimit="10"/>
<path d="M83.8629 61.9131L83.8581 61.9641L83.8533 62.0151C83.8485 62.0662 83.8437 62.1172 83.783 62.2145C83.537 62.0889 83.2399 61.9586 82.9891 61.8841C82.8406 61.8189 82.692 61.7538 82.5435 61.6886C81.1458 61.1996 79.5756 60.9006 77.8841 60.7962C77.2196 60.735 76.5455 60.7758 75.8762 60.7657C75.774 60.7562 75.7229 60.7515 75.6158 60.7931C74.0073 60.9022 72.5889 61.1833 71.3046 61.6825C70.859 59.8403 70.6418 57.7619 70.6898 55.6049C70.8736 48.1601 74.1674 42.1854 78.0809 42.2371C80.2421 42.2818 82.1285 44.1538 83.3472 47.0964C83.5133 47.5234 83.6747 48.0014 83.8312 48.5304C83.8264 48.5815 83.8727 48.6372 83.8679 48.6882C83.9143 48.7439 83.9047 48.846 83.951 48.9017C83.9925 49.0085 83.9877 49.0595 84.0293 49.1662C84.066 49.324 84.1075 49.4307 84.1442 49.5885C84.1762 49.7973 84.264 49.9598 84.296 50.1685C84.3279 50.3773 84.3599 50.5861 84.4429 50.7996C84.5436 51.3749 84.6442 51.9503 84.6937 52.5209C84.7256 52.7297 84.7576 52.9385 84.7432 53.0915C84.7432 53.0915 84.7432 53.0915 84.7384 53.1425C84.7655 53.4023 84.7879 53.7132 84.815 53.973C84.847 54.1818 84.8278 54.3858 84.8086 54.5899C84.7943 54.743 84.831 54.9007 84.8166 55.0538C84.8118 55.1048 84.8118 55.1048 84.807 55.1558C84.7879 55.3599 84.8198 55.5687 84.7958 55.8238C84.7479 57.9807 84.4491 60.0631 83.8629 61.9131Z" fill="white" stroke="black" stroke-width="0.8" stroke-miterlimit="10"/>
<path d="M84.5852 54.4728C84.7647 50.0694 83.4246 46.5448 80.8915 45.6885C79.0285 46.5946 77.4002 48.4242 76.5324 50.8369C76.0985 52.0433 75.9412 53.2507 75.9368 54.3541L79.3504 54.4052L76.2522 56.5812C76.7886 58.4 77.9844 59.8219 79.6415 60.3799C80.8984 60.8318 82.4918 62.1548 83.7814 61.57C84.3897 59.6604 84.5209 56.2703 84.5852 54.4728Z" fill="black" stroke="black" stroke-width="0.8" stroke-miterlimit="10"/>
<path d="M86.7821 76.4062L80.6654 79.2919L70.297 84.385L75.187 94.7729L98.1996 78.9556L86.7821 76.4062Z" fill="white"/>
<path d="M43.3604 79.2417L59.9446 85.3793L58.5421 96.3716L34.2224 82.7356L43.3604 79.2417Z" fill="white"/>
<path d="M86.7821 76.4062L80.6654 79.2919L70.297 84.385L75.187 94.7729L98.1996 78.9556L86.7821 76.4062Z" stroke="black" stroke-width="0.8"/>
<path d="M43.3604 79.2417L59.9446 85.3793L58.5421 96.3716L34.2224 82.7356L43.3604 79.2417Z" stroke="black" stroke-width="0.8"/>
<path d="M70.8133 85.1129L60.5701 85.2843L65.5589 93.7007L61.0218 99.4058L62.7061 126.505L67.005 132.458L71.2153 125.54L70.2073 98.3679L65.5589 93.7007L70.8133 85.1129Z" fill="#5663F1"/>
<path d="M65.5589 93.7007L60.5701 85.2843L70.8133 85.1129L65.5589 93.7007ZM65.5589 93.7007L70.2073 98.3679L71.2153 125.54L67.005 132.458L62.7061 126.505L61.0218 99.4058L65.5589 93.7007Z" stroke="black" stroke-width="0.8"/>
<path d="M87.3383 148.628L87.5449 146.924L88.991 148.628L107.756 148.647L107.997 144.726L78.5241 144.442L78.3864 148.553L87.3383 148.628Z" fill="black" stroke="black" stroke-width="0.8" stroke-miterlimit="10"/>
<path d="M92.5717 132.465C97.0133 133.22 106.206 135.897 107.997 144.991L78.4897 144.51L78.4553 135.897C83.31 137.372 89.3697 136.377 92.5717 132.465Z" fill="#ACBFFF" stroke="black" stroke-width="0.8" stroke-miterlimit="10"/>
<path d="M98.3218 133.838L93.0195 138.025" stroke="black" stroke-width="0.8" stroke-miterlimit="10"/>
<path d="M101.042 135.21L95.7048 139.431" stroke="black" stroke-width="0.8" stroke-miterlimit="10"/>
<path d="M27.4005 131.325L29.0322 131.865L27.0685 132.94L23.2797 151.279L27.0795 152.292L33.28 123.54L29.2735 122.59L27.4005 131.325Z" fill="black" stroke="black" stroke-width="0.8" stroke-miterlimit="10"/>
<path d="M42.2196 139.65C40.5858 143.843 36.1106 152.299 26.8245 152.244L33.2271 123.492L41.6887 125.168C39.2645 129.621 39.0233 135.743 42.2196 139.65Z" fill="#ACBFFF" stroke="black" stroke-width="0.8" stroke-miterlimit="10"/>
<path d="M39.7192 145L36.6751 138.984" stroke="black" stroke-width="0.8" stroke-miterlimit="10"/>
<path d="M37.8242 147.385L34.7533 141.329" stroke="black" stroke-width="0.8" stroke-miterlimit="10"/>
<path d="M65.0194 82.7085C68.8673 81.28 70.2532 80.9912 73.2002 81.4858C74.9615 81.8418 76.514 82.6992 78.3186 82.6847C79.8181 82.7096 81.4351 82.3727 82.6025 81.3823C82.6852 81.3168 82.768 81.2514 82.8508 81.1859C85.4772 78.6381 85.4904 73.3812 84.5942 70.1214C84.0214 67.9511 82.7075 65.6942 80.6189 64.9244C79.616 64.5067 78.3042 64.8042 77.1579 64.9708C76.3909 65.1065 75.6719 65.4732 74.9703 65.6917C71.4709 66.7102 68.4074 67.8547 65.2765 66.3621L65.1771 62.0686" fill="#F96F6F"/>
<path d="M65.0194 82.7085C68.8673 81.28 70.2532 80.9912 73.2002 81.4858C74.9615 81.8418 76.514 82.6992 78.3186 82.6847C79.8181 82.7096 81.4351 82.3727 82.6025 81.3823C82.6852 81.3168 82.768 81.2514 82.8508 81.1859C85.4772 78.6381 85.4904 73.3812 84.5942 70.1214C84.0214 67.9511 82.7075 65.6942 80.6189 64.9244C79.616 64.5067 78.3042 64.8042 77.1579 64.9708C76.3909 65.1065 75.6719 65.4732 74.9703 65.6917C71.4709 66.7102 68.4074 67.8547 65.2765 66.3621L65.1771 62.0686" stroke="black" stroke-width="0.8" stroke-miterlimit="10"/>
<path d="M78.1499 73.1997C78.3186 76.9004 79.5545 79.8242 80.9144 79.7578C82.2744 79.6913 83.2396 76.5738 83.0623 72.9473C82.8937 69.2466 81.6577 66.3228 80.2978 66.3893C78.9378 66.4557 77.9726 69.5732 78.1499 73.1997Z" fill="black" stroke="black" stroke-width="0.8" stroke-miterlimit="10"/>
<path d="M77.4987 65.912C77.6642 65.7811 77.8952 65.733 78.0261 65.8985C78.1656 65.9899 78.2051 66.295 78.0396 66.4259C76.5325 67.7523 76.3641 69.836 76.4441 71.7234C76.4663 72.1767 75.7079 72.2383 75.6857 71.785C75.6404 69.6012 75.826 67.3693 77.4987 65.912Z" fill="white"/>
<path d="M75.7041 72.9139C75.7128 72.8398 75.7128 72.8398 75.7956 72.7744C75.8042 72.7003 75.8783 72.7089 75.8783 72.7089C75.9524 72.7176 75.9611 72.6435 76.0352 72.6521L76.1093 72.6608C76.1834 72.6695 76.2575 72.6781 76.2489 72.7522L76.3143 72.835C76.3798 72.9178 76.3798 72.9178 76.3711 72.9919L76.3538 73.1401C76.3452 73.2142 76.3452 73.2142 76.3365 73.2883C76.3278 73.3624 76.3278 73.3624 76.2451 73.4279C76.2364 73.502 76.1623 73.4933 76.1623 73.4933C76.0882 73.4847 76.0795 73.5588 76.0054 73.5501L75.9313 73.5415C75.8572 73.5328 75.7831 73.5241 75.7917 73.45L75.7263 73.3673C75.6608 73.2845 75.6608 73.2845 75.6695 73.2104L75.6868 73.0622C75.6868 73.0622 75.6955 72.9881 75.7041 72.9139Z" fill="white"/>
</svg>
