<svg width="30" height="26" viewBox="0 0 30 26" fill="none" xmlns="http://www.w3.org/2000/svg">
<path d="M16.222 2.01096V5.9268H14.2493V2.01096H2.53711V13.7585H6.43239V15.7164H8.39031L8.39936 19.652H12.3062V21.5902H14.2641V23.5481H16.222V21.5902H18.17V19.652H22.1361V15.7164H24.0537V13.7585H27.9342V2.01096H16.222Z" fill="#E30611"/>
<path d="M12.3063 0.0532227H4.47461V2.01115H12.3063V0.0532227Z" fill="#E30611"/>
<path d="M26.0119 0.0532227H18.1802V2.01115H26.0119V0.0532227Z" fill="#E30611"/>
<path d="M14.2641 2.01096H12.3062V3.96888H14.2641V2.01096Z" fill="#E30611"/>
<path d="M4.47452 2.01096H2.5166V3.96888H4.47452V2.01096Z" fill="#E30611"/>
<path d="M4.47452 11.8008H2.5166V13.7587H4.47452V11.8008Z" fill="#E30611"/>
<path d="M6.43253 13.7585H4.47461V15.7164H6.43253V13.7585Z" fill="#E30611"/>
<path d="M8.39054 15.7162H6.43262V17.6741H8.39054V15.7162Z" fill="#E30611"/>
<path d="M10.3481 17.6752H8.39014V19.6331H10.3481V17.6752Z" fill="#E30611"/>
<path d="M12.3061 19.6329H10.3481V21.5908H12.3061V19.6329Z" fill="#E30611"/>
<path d="M14.2641 21.5905H12.3062V23.5485H14.2641V21.5905Z" fill="#E30611"/>
<path d="M27.9696 11.8008H26.0117V13.7587H27.9696V11.8008Z" fill="#E30611"/>
<path d="M26.0116 13.7585H24.0537V15.7164H26.0116V13.7585Z" fill="#E30611"/>
<path d="M24.0536 15.7162H22.0957V17.6741H24.0536V15.7162Z" fill="#E30611"/>
<path d="M22.0956 17.6752H20.1377V19.6331H22.0956V17.6752Z" fill="#E30611"/>
<path d="M20.1785 19.329H18.1133V21.7385H20.1785V19.329Z" fill="#E30611"/>
<path d="M18.1801 21.5905H16.2222V23.5485H18.1801V21.5905Z" fill="#E30611"/>
<path d="M16.2221 23.5483H14.2642V25.5062H16.2221V23.5483Z" fill="#E30611"/>
<path d="M2.86075 4.18378H0.902832V12.0155H2.86075V4.18378Z" fill="#E30611"/>
<path d="M29.7094 3.83954H27.7515V11.6712H29.7094V3.83954Z" fill="#E30611"/>
<path d="M18.1801 2.01096H16.2222V3.96888H18.1801V2.01096Z" fill="#E30611"/>
<path d="M27.9696 2.01096H26.0117V3.96888H27.9696V2.01096Z" fill="#E30611"/>
<path d="M16.3924 4.18378H13.9829V6.24904H16.3924V4.18378Z" fill="#E30611"/>
<path d="M8.39045 3.96997H6.43253V5.92789H4.47461V7.88582V9.84374H6.43253V7.88582H8.39045V5.92789H10.3484V3.96997H8.39045Z" fill="white"/>
</svg>
