<svg width="158" height="155" viewBox="0 0 158 155" fill="none" xmlns="http://www.w3.org/2000/svg">
<path d="M157.416 71.1065C157.852 76.6618 103.462 77.7336 102.265 82.8623C100.985 88.199 148.9 114.119 146.108 118.667C143.321 123.265 98.6315 91.9578 94.5577 95.448C90.5335 98.9343 114.198 148.247 109.215 150.348C104.374 152.337 86.5208 100.657 81.0071 101.088C75.4935 101.518 65.931 155.387 60.8341 154.123C55.5345 152.825 71.2606 100.438 66.7411 97.6185C62.172 94.8027 22.9648 132.657 19.4438 128.551C15.9763 124.491 59.2563 91.4048 57.1626 86.3817C55.18 81.501 1.28474 88.8787 0.848405 83.3235C0.412073 77.7683 54.8026 76.6965 55.999 71.5677C57.2791 66.231 9.36453 40.3113 12.1558 35.7631C14.9432 31.1648 59.6326 62.4723 63.7065 58.9821C67.7307 55.4958 44.013 6.13653 49.0453 4.03183C53.8867 2.04272 71.7395 53.7227 77.2531 53.2925C82.7667 52.8622 92.3331 -0.957255 97.4261 0.256661C102.676 1.55904 86.9996 53.9419 91.5191 56.7615C96.0882 59.5773 135.295 21.7234 138.816 25.8294C142.284 29.8893 99.0039 62.9752 101.098 67.9983C103.08 72.879 156.975 65.5013 157.412 71.0565L157.416 71.1065Z" fill="white"/>
</svg>
