<svg width="608" height="351" viewBox="0 0 608 351" fill="none" xmlns="http://www.w3.org/2000/svg">
<mask id="mask0_3_71149" style="mask-type:alpha" maskUnits="userSpaceOnUse" x="0" y="0" width="608" height="351">
<rect x="0.295546" y="0.753798" width="607.028" height="349.552" fill="#D9D9D9" stroke="#F96F6F" stroke-width="0.591092"/>
</mask>
<g mask="url(#mask0_3_71149)">
<rect x="-1.70069e-08" y="0.285329" width="0.570658" height="662.533" transform="matrix(0.866025 0.5 -0.866025 0.5 311.751 39.7451)" stroke="#F96F6F" stroke-width="0.570658"/>
<rect x="-1.70069e-08" y="0.285329" width="0.570658" height="662.533" transform="matrix(0.866025 0.5 -0.866025 0.5 356.23 65.4264)" stroke="#F96F6F" stroke-width="0.570658"/>
<rect x="-1.70069e-08" y="0.285329" width="0.570658" height="662.533" transform="matrix(0.866025 0.5 -0.866025 0.5 400.708 91.1055)" stroke="#F96F6F" stroke-width="0.570658"/>
<rect x="-1.70069e-08" y="0.285329" width="0.570658" height="662.533" transform="matrix(0.866025 0.5 -0.866025 0.5 445.186 116.785)" stroke="#F96F6F" stroke-width="0.570658"/>
<mask id="path-6-inside-1_3_71149" fill="white">
<path d="M489.417 142.321L490.406 142.892L-104.771 486.517L-105.759 485.947L489.417 142.321Z"/>
</mask>
<path d="M489.417 142.321L491.15 141.321L489.417 140.321L487.685 141.321L489.417 142.321ZM490.406 142.892L492.138 143.892L493.87 142.892L492.138 141.892L490.406 142.892ZM-104.771 486.517L-106.503 487.517L-104.771 488.517L-103.039 487.517L-104.771 486.517ZM-105.759 485.947L-107.491 484.947L-109.223 485.947L-107.491 486.947L-105.759 485.947ZM487.685 143.321L488.674 143.892L492.138 141.892L491.15 141.321L487.685 143.321ZM488.674 141.892L-106.503 485.517L-103.039 487.517L492.138 143.892L488.674 141.892ZM-103.039 485.517L-104.027 484.947L-107.491 486.947L-106.503 487.517L-103.039 485.517ZM-104.027 486.947L491.15 143.321L487.685 141.321L-107.491 484.947L-104.027 486.947Z" fill="#F96F6F" mask="url(#path-6-inside-1_3_71149)"/>
<mask id="path-8-inside-2_3_71149" fill="white">
<path d="M533.896 168.001L534.884 168.572L-82.3405 524.926L-83.329 524.356L533.896 168.001Z"/>
</mask>
<path d="M533.896 168.001L535.628 167.001L533.896 166.001L532.164 167.001L533.896 168.001ZM534.884 168.572L536.616 169.572L538.348 168.572L536.616 167.572L534.884 168.572ZM-82.3405 524.926L-84.0726 525.926L-82.3405 526.926L-80.6085 525.926L-82.3405 524.926ZM-83.329 524.356L-85.061 523.356L-86.7931 524.356L-85.061 525.356L-83.329 524.356ZM532.164 169.001L533.152 169.572L536.616 167.572L535.628 167.001L532.164 169.001ZM533.152 167.572L-84.0726 523.926L-80.6085 525.926L536.616 169.572L533.152 167.572ZM-80.6085 523.926L-81.5969 523.356L-85.061 525.356L-84.0726 525.926L-80.6085 523.926ZM-81.5969 525.356L535.628 169.001L532.164 167.001L-85.061 523.356L-81.5969 525.356Z" fill="#F96F6F" mask="url(#path-8-inside-2_3_71149)"/>
<mask id="path-10-inside-3_3_71149" fill="white">
<path d="M578.374 193.68L579.363 194.251L-57.3606 561.863L-58.349 561.292L578.374 193.68Z"/>
</mask>
<path d="M578.374 193.68L580.106 192.68L578.374 191.68L576.642 192.68L578.374 193.68ZM579.363 194.251L581.095 195.251L582.827 194.251L581.095 193.251L579.363 194.251ZM-57.3606 561.863L-59.0927 562.863L-57.3606 563.863L-55.6286 562.863L-57.3606 561.863ZM-58.349 561.292L-60.0811 560.292L-61.8131 561.292L-60.0811 562.292L-58.349 561.292ZM576.642 194.68L577.631 195.251L581.095 193.251L580.106 192.68L576.642 194.68ZM577.631 193.251L-59.0927 560.863L-55.6286 562.863L581.095 195.251L577.631 193.251ZM-55.6286 560.863L-56.617 560.292L-60.0811 562.292L-59.0927 562.863L-55.6286 560.863ZM-56.617 562.292L580.106 194.68L576.642 192.68L-60.0811 560.292L-56.617 562.292Z" fill="#F96F6F" mask="url(#path-10-inside-3_3_71149)"/>
<mask id="path-12-inside-4_3_71149" fill="white">
<path d="M622.853 219.359L623.841 219.93L-37.3679 601.679L-38.3563 601.109L622.853 219.359Z"/>
</mask>
<path d="M622.853 219.359L624.585 218.359L622.853 217.359L621.121 218.359L622.853 219.359ZM623.841 219.93L625.573 220.93L627.305 219.93L625.573 218.93L623.841 219.93ZM-37.3679 601.679L-39.1 602.679L-37.3679 603.679L-35.6359 602.679L-37.3679 601.679ZM-38.3563 601.109L-40.0884 600.109L-41.8204 601.109L-40.0884 602.109L-38.3563 601.109ZM621.121 220.359L622.109 220.93L625.573 218.93L624.585 218.359L621.121 220.359ZM622.109 218.93L-39.1 600.679L-35.6359 602.679L625.573 220.93L622.109 218.93ZM-35.6358 600.679L-36.6243 600.109L-40.0884 602.109L-39.1 602.679L-35.6358 600.679ZM-36.6243 602.109L624.585 220.359L621.121 218.359L-40.0884 600.109L-36.6243 602.109Z" fill="#F96F6F" mask="url(#path-12-inside-4_3_71149)"/>
<mask id="path-14-inside-5_3_71149" fill="white">
<path d="M667.331 245.04L668.32 245.611L-15.1285 640.2L-16.1169 639.629L667.331 245.04Z"/>
</mask>
<path d="M667.331 245.04L669.063 244.04L667.331 243.04L665.599 244.04L667.331 245.04ZM668.32 245.611L670.052 246.611L671.784 245.611L670.052 244.611L668.32 245.611ZM-15.1285 640.2L-16.8606 641.2L-15.1285 642.2L-13.3965 641.2L-15.1285 640.2ZM-16.1169 639.629L-17.849 638.629L-19.581 639.629L-17.849 640.629L-16.1169 639.629ZM665.599 246.04L666.587 246.611L670.052 244.611L669.063 244.04L665.599 246.04ZM666.587 244.611L-16.8606 639.2L-13.3965 641.2L670.052 246.611L666.587 244.611ZM-13.3965 639.2L-14.3849 638.629L-17.849 640.629L-16.8606 641.2L-13.3965 639.2ZM-14.3849 640.629L669.063 246.04L665.599 244.04L-17.849 638.629L-14.3849 640.629Z" fill="#F96F6F" mask="url(#path-14-inside-5_3_71149)"/>
<mask id="path-16-inside-6_3_71149" fill="white">
<path d="M711.809 270.718L712.798 271.289L7.7955 678.322L6.80709 677.751L711.809 270.718Z"/>
</mask>
<path d="M711.809 270.718L713.541 269.718L711.809 268.718L710.077 269.718L711.809 270.718ZM712.798 271.289L714.53 272.289L716.262 271.289L714.53 270.289L712.798 271.289ZM7.7955 678.322L6.06345 679.322L7.7955 680.322L9.52755 679.322L7.7955 678.322ZM6.80709 677.751L5.07504 676.751L3.34299 677.751L5.07504 678.751L6.80709 677.751ZM710.077 271.718L711.065 272.289L714.53 270.289L713.541 269.718L710.077 271.718ZM711.065 270.289L6.06345 677.322L9.52755 679.322L714.53 272.289L711.065 270.289ZM9.52755 677.322L8.53914 676.751L5.07504 678.751L6.06345 679.322L9.52755 677.322ZM8.53914 678.751L713.541 271.718L710.077 269.718L5.07504 676.751L8.53914 678.751Z" fill="#F96F6F" mask="url(#path-16-inside-6_3_71149)"/>
<mask id="path-18-inside-7_3_71149" fill="white">
<path d="M756.288 296.399L757.276 296.969L22.4975 721.194L21.5091 720.623L756.288 296.399Z"/>
</mask>
<path d="M756.288 296.399L758.02 295.399L756.288 294.399L754.556 295.399L756.288 296.399ZM757.276 296.969L759.008 297.969L760.74 296.969L759.008 295.969L757.276 296.969ZM22.4975 721.194L20.7655 722.194L22.4975 723.194L24.2296 722.194L22.4975 721.194ZM21.5091 720.623L19.7771 719.623L18.045 720.623L19.7771 721.623L21.5091 720.623ZM754.556 297.399L755.544 297.969L759.008 295.969L758.02 295.399L754.556 297.399ZM755.544 295.969L20.7655 720.194L24.2296 722.194L759.008 297.969L755.544 295.969ZM24.2296 720.194L23.2412 719.623L19.7771 721.623L20.7655 722.194L24.2296 720.194ZM23.2412 721.623L758.02 297.399L754.556 295.399L19.7771 719.623L23.2412 721.623Z" fill="#F96F6F" mask="url(#path-18-inside-7_3_71149)"/>
<mask id="path-20-inside-8_3_71149" fill="white">
<path d="M795.699 325.103L796.688 325.674L55.0569 753.854L54.0685 753.284L795.699 325.103Z"/>
</mask>
<path d="M795.699 325.103L797.431 324.103L795.699 323.103L793.967 324.103L795.699 325.103ZM796.688 325.674L798.42 326.674L800.152 325.674L798.42 324.674L796.688 325.674ZM55.0569 753.854L53.3249 754.854L55.0569 755.854L56.789 754.854L55.0569 753.854ZM54.0685 753.284L52.3365 752.284L50.6044 753.284L52.3365 754.284L54.0685 753.284ZM793.967 326.103L794.955 326.674L798.42 324.674L797.431 324.103L793.967 326.103ZM794.955 324.674L53.3249 752.854L56.789 754.854L798.42 326.674L794.955 324.674ZM56.789 752.854L55.8006 752.284L52.3365 754.284L53.3249 754.854L56.789 752.854ZM55.8006 754.284L797.431 326.103L793.967 324.103L52.3365 752.284L55.8006 754.284Z" fill="#F96F6F" mask="url(#path-20-inside-8_3_71149)"/>
<rect x="0.494204" y="-2.55104e-08" width="0.570658" height="662.533" transform="matrix(0.866025 -0.5 0.866025 0.5 -133.369 297.217)" stroke="#F96F6F" stroke-width="0.570658"/>
<rect x="0.494204" y="-2.55104e-08" width="0.570658" height="662.533" transform="matrix(0.866025 -0.5 0.866025 0.5 -88.8908 271.536)" stroke="#F96F6F" stroke-width="0.570658"/>
<rect x="0.494204" y="-2.55104e-08" width="0.570658" height="662.533" transform="matrix(0.866025 -0.5 0.866025 0.5 -44.4125 245.859)" stroke="#F96F6F" stroke-width="0.570658"/>
<rect x="0.494204" y="-2.55104e-08" width="0.570658" height="662.533" transform="matrix(0.866025 -0.5 0.866025 0.5 0.0657225 220.18)" stroke="#F96F6F" stroke-width="0.570658"/>
<rect x="0.494204" y="-2.55104e-08" width="0.570658" height="662.533" transform="matrix(0.866025 -0.5 0.866025 0.5 44.5442 194.498)" stroke="#F96F6F" stroke-width="0.570658"/>
<rect x="0.494204" y="-2.55104e-08" width="0.570658" height="662.533" transform="matrix(0.866025 -0.5 0.866025 0.5 89.0225 168.819)" stroke="#F96F6F" stroke-width="0.570658"/>
<rect x="0.494204" y="-2.55104e-08" width="0.570658" height="662.533" transform="matrix(0.866025 -0.5 0.866025 0.5 133.501 143.14)" stroke="#F96F6F" stroke-width="0.570658"/>
<rect x="0.494204" y="-2.55104e-08" width="0.570658" height="662.533" transform="matrix(0.866025 -0.5 0.866025 0.5 177.979 117.461)" stroke="#F96F6F" stroke-width="0.570658"/>
<rect x="0.494204" y="-2.55104e-08" width="0.570658" height="662.533" transform="matrix(0.866025 -0.5 0.866025 0.5 222.458 91.7811)" stroke="#F96F6F" stroke-width="0.570658"/>
<rect x="0.494204" y="-2.55104e-08" width="0.570658" height="662.533" transform="matrix(0.866025 -0.5 0.866025 0.5 266.936 66.102)" stroke="#F96F6F" stroke-width="0.570658"/>
<rect x="0.494204" y="-2.55104e-08" width="0.570658" height="662.533" transform="matrix(0.866025 -0.5 0.866025 0.5 311.414 40.4211)" stroke="#F96F6F" stroke-width="0.570658"/>
</g>
</svg>
