<svg width="122" height="121" viewBox="0 0 122 121" fill="none" xmlns="http://www.w3.org/2000/svg">
<path d="M81.7892 58.1473C91.5954 72.2977 92.749 93.4589 89.3405 110.89C88.5014 115.07 83.2051 113.527 84.0441 109.346C86.9283 94.488 86.5612 75.2564 78.066 63.0356C75.8112 59.8196 79.4819 54.867 81.7892 58.1473Z" fill="black"/>
<path d="M91.6719 108.503L82.1212 108.246L81.7986 120.403L105.03 120.595L105.159 117.83C105.159 117.83 103.675 112.556 91.6073 113.971L91.6719 108.503Z" fill="#F96F6F" stroke="black" stroke-width="0.8" stroke-miterlimit="10"/>
<path d="M98.4477 113.906C104.255 114.742 105.159 117.83 105.159 117.83L105.03 120.596L96.7053 120.531C96.9634 118.216 97.4797 116.029 98.4477 113.906Z" fill="white" stroke="black" stroke-width="0.8" stroke-miterlimit="10"/>
<path d="M81.9276 117.444L105.159 117.83L105.03 120.596L81.7986 120.403L81.9276 117.444Z" fill="white" stroke="black" stroke-width="0.8" stroke-miterlimit="10"/>
<path d="M91.4781 110.691V110.369L87.3481 110.24V110.562L91.4781 110.691Z" fill="white"/>
<path d="M87.3514 112.383L91.4156 112.488L91.409 112.745L87.3447 112.641L87.3514 112.383Z" fill="white"/>
<path d="M87.1545 110.627C87.0119 110.627 86.8963 110.511 86.8963 110.369C86.8963 110.227 87.0119 110.111 87.1545 110.111C87.297 110.111 87.4126 110.227 87.4126 110.369C87.4126 110.511 87.297 110.627 87.1545 110.627Z" fill="white" stroke="white" stroke-width="0.8" stroke-miterlimit="10"/>
<path d="M87.0903 112.749C86.9477 112.749 86.8321 112.634 86.8321 112.492C86.8321 112.349 86.9477 112.234 87.0903 112.234C87.2328 112.234 87.3484 112.349 87.3484 112.492C87.3484 112.634 87.2328 112.749 87.0903 112.749Z" fill="white" stroke="white" stroke-width="0.8" stroke-miterlimit="10"/>
<path d="M70.2293 61.2864C60.2648 74.9581 59.0925 95.4035 62.5561 112.245C63.4087 116.284 68.7906 114.792 67.938 110.753C65.0073 96.3978 65.3803 77.8167 74.0127 66.0093C76.304 62.9021 72.5207 58.117 70.2293 61.2864Z" fill="black"/>
<path d="M59.6704 108.912L68.898 108.664L69.2097 120.409L46.7642 120.595L46.6395 117.923C46.6395 117.923 48.0736 112.827 59.7327 114.194L59.6704 108.912Z" fill="#F96F6F" stroke="black" stroke-width="0.8" stroke-miterlimit="10"/>
<path d="M53.1236 114.133C47.5122 114.941 46.6393 117.924 46.6393 117.924L46.764 120.596L54.807 120.534C54.5576 118.296 54.0588 116.184 53.1236 114.133Z" fill="white" stroke="black" stroke-width="0.8" stroke-miterlimit="10"/>
<path d="M69.0848 117.55L46.6393 117.923L46.764 120.595L69.2095 120.409L69.0848 117.55Z" fill="white" stroke="black" stroke-width="0.8" stroke-miterlimit="10"/>
<path d="M59.8575 111.026V110.715L63.8478 110.59V110.902L59.8575 111.026Z" fill="white"/>
<path d="M63.7955 112.666L63.8019 112.915L59.8751 113.016L59.8687 112.767L63.7955 112.666Z" fill="white"/>
<path d="M64.0347 110.964C63.8969 110.964 63.7853 110.852 63.7853 110.715C63.7853 110.577 63.8969 110.466 64.0347 110.466C64.1724 110.466 64.2841 110.577 64.2841 110.715C64.2841 110.852 64.1724 110.964 64.0347 110.964Z" fill="white" stroke="white" stroke-width="0.8" stroke-miterlimit="10"/>
<path d="M64.0345 113.015C63.8968 113.015 63.7851 112.903 63.7851 112.766C63.7851 112.628 63.8968 112.517 64.0345 112.517C64.1723 112.517 64.2839 112.628 64.2839 112.766C64.2839 112.903 64.1723 113.015 64.0345 113.015Z" fill="white" stroke="white" stroke-width="0.8" stroke-miterlimit="10"/>
<path d="M42.3667 59.7679L42.3667 59.7678C42.0096 58.6599 41.0549 57.6882 39.9185 56.803C38.9628 56.0585 37.8257 55.3367 36.7022 54.6235C36.48 54.4824 36.2583 54.3417 36.0386 54.2012C34.6942 53.3413 33.4238 52.4886 32.4893 51.5889C31.6048 50.7375 31.0766 49.8965 31.019 49.0225L31.0226 49.0189V48.8541C31.0226 47.9226 31.5601 47.0313 32.4982 46.1282C33.4327 45.2285 34.7031 44.3758 36.0475 43.5159C36.2672 43.3754 36.4889 43.2346 36.7112 43.0936C37.8347 42.3804 38.9717 41.6586 39.9274 40.9142C41.0638 40.0289 42.0185 39.0572 42.3756 37.9493L42.3756 37.9492C42.7425 36.8095 42.5511 35.4352 42.1567 34.0259C41.8113 32.792 41.291 31.4697 40.781 30.1734C40.7047 29.9796 40.6287 29.7864 40.5535 29.5941C39.9696 28.1008 39.4369 26.6659 39.197 25.3992C38.9556 24.1248 39.0294 23.114 39.5453 22.3978C40.0676 21.6752 41.003 21.2891 42.2817 21.1249C43.5541 20.9615 45.0746 21.0288 46.6645 21.1287C46.8824 21.1424 47.1016 21.1568 47.3215 21.1711C48.6891 21.2605 50.0815 21.3514 51.3364 21.3055C52.7832 21.2525 54.1353 21.0171 55.0888 20.3168C56.0335 19.6231 56.6638 18.4018 57.154 17.0334C57.5733 15.8629 57.9104 14.5218 58.2425 13.2007C58.3015 12.9659 58.3604 12.7317 58.4195 12.4993C58.8154 10.9427 59.2239 9.461 59.7764 8.28848C60.332 7.10958 60.9943 6.32767 61.8495 6.04777L61.8497 6.04772C62.6643 5.78077 63.6239 6.02319 64.7433 6.65341C65.8551 7.27933 67.0381 8.23788 68.265 9.26368C68.4039 9.37984 68.5434 9.49684 68.6833 9.61422C69.7665 10.5228 70.8758 11.4534 71.9589 12.1811C73.1742 12.9978 74.4242 13.6075 75.6315 13.6075C76.8384 13.6075 78.0888 12.9992 79.305 12.1842C80.3883 11.4583 81.498 10.5303 82.5816 9.62413C82.7222 9.50657 82.8623 9.38937 83.0019 9.27304C84.2299 8.24951 85.414 7.29313 86.5266 6.66882C87.6468 6.04024 88.6072 5.79859 89.4221 6.06565L89.4223 6.0657C90.2774 6.34557 90.9392 7.12737 91.494 8.30625C92.0459 9.47876 92.4535 10.9604 92.849 12.5171C92.9074 12.747 92.9655 12.9785 93.0238 13.2107C93.3561 14.5345 93.6936 15.8785 94.1141 17.0514C94.6047 18.4199 95.2362 19.6412 96.1832 20.3348C97.1368 21.0351 98.4887 21.2705 99.9354 21.3234C101.19 21.3694 102.583 21.2784 103.95 21.1891C104.17 21.1747 104.389 21.1604 104.607 21.1467C106.197 21.0467 107.718 20.9794 108.99 21.1428C110.269 21.307 111.205 21.6932 111.727 22.4161C112.242 23.1323 112.316 24.143 112.075 25.4171C111.835 26.6839 111.302 28.1188 110.718 29.612C110.643 29.8043 110.567 29.9975 110.491 30.1913C109.981 31.4876 109.46 32.8099 109.115 34.0438C108.721 35.4531 108.529 36.8274 108.896 37.9671L108.896 37.9672C109.253 39.0751 110.208 40.0468 111.344 40.9321C112.3 41.6766 113.437 42.3983 114.561 43.1115C114.783 43.2526 115.005 43.3933 115.224 43.5338C116.569 44.3938 117.839 45.2464 118.774 46.1461C119.712 47.0492 120.249 47.9406 120.249 48.872C120.249 49.8034 119.712 50.6948 118.774 51.5979C117.839 52.4976 116.569 53.3502 115.224 54.2102C115.005 54.3507 114.783 54.4914 114.561 54.6325C113.437 55.3457 112.3 56.0674 111.344 56.8119C110.208 57.6972 109.253 58.6689 108.896 59.7768L108.896 59.7769C108.529 60.9166 108.721 62.2909 109.115 63.7002C109.46 64.9341 109.981 66.2564 110.491 67.5526C110.567 67.7465 110.643 67.9397 110.718 68.132C111.302 69.6252 111.835 71.0601 112.075 72.3269C112.316 73.6012 112.242 74.612 111.727 75.3283C111.204 76.0509 110.269 76.437 108.99 76.6012C107.718 76.7646 106.197 76.6973 104.607 76.5973C104.389 76.5836 104.17 76.5693 103.951 76.555C102.583 76.4656 101.19 76.3746 99.9354 76.4206C98.4886 76.4735 97.1366 76.7089 96.1831 77.4093C95.2383 78.103 94.608 79.3243 94.1178 80.6927C93.6985 81.8632 93.3614 83.2042 93.0293 84.5254C92.9703 84.7602 92.9115 84.9943 92.8523 85.2268C92.4564 86.7834 92.0479 88.2651 91.4954 89.4376C90.94 90.6162 90.2779 91.398 89.4229 91.6781C88.6077 91.9434 87.6471 91.7005 86.5267 91.0714C85.414 90.4467 84.2298 89.4905 83.0018 88.4675C82.8633 88.3521 82.7242 88.2359 82.5847 88.1193C81.5001 87.2128 80.3893 86.2844 79.3049 85.5584C78.0886 84.7442 76.8383 84.1365 75.6315 84.1365C74.4245 84.1365 73.1741 84.7448 71.9579 85.5598C70.8746 86.2857 69.7648 87.2138 68.6812 88.12C68.5406 88.2375 68.4006 88.3547 68.261 88.471C67.033 89.4945 65.8489 90.4509 64.7363 91.0752C63.6161 91.7038 62.6558 91.9454 61.8408 91.6783L61.8407 91.6783C60.9855 91.3984 60.3237 90.6166 59.7689 89.4378C59.217 88.2652 58.8094 86.7836 58.414 85.2269C58.3556 84.997 58.2974 84.7654 58.2391 84.5332C57.9068 83.2095 57.5693 81.8655 57.1488 80.6926C56.6581 79.324 56.0266 78.1027 55.0795 77.409M42.3667 59.7679L39.5364 75.3193C40.0587 76.0419 40.9941 76.428 42.2729 76.5924C43.5452 76.7559 45.0658 76.6889 46.6557 76.5895C46.8714 76.576 47.0883 76.5619 47.3059 76.5478C48.6758 76.4588 50.0707 76.3683 51.3279 76.4154C52.7743 76.4696 54.126 76.7067 55.0795 77.409M42.3667 59.7679C42.7336 60.9076 42.5422 62.2819 42.1478 63.6912C41.8024 64.9251 41.2822 66.2474 40.7721 67.5437C40.6959 67.7375 40.6198 67.9307 40.5446 68.123C39.9607 69.6163 39.428 71.0512 39.1881 72.3179C38.9468 73.592 39.0204 74.6026 39.5361 75.3189L42.3667 59.7679ZM55.0795 77.409L54.8431 77.7317L55.0805 77.4097C55.0801 77.4095 55.0798 77.4092 55.0795 77.409Z" fill="#ACBFFF" stroke="black" stroke-width="0.8"/>
<path d="M69.6079 37.3957C69.2829 32.3973 67.7214 28.1878 65.6403 26.3035C64.816 25.581 63.9707 25.165 63.0938 25.2086C59.8932 25.4037 57.6989 31.1562 58.0953 38.109C58.4952 45.0107 61.4599 50.4945 64.6094 50.296C65.4351 50.249 66.2377 49.7899 66.9044 49.0652C68.7985 46.9352 69.9259 42.4963 69.6079 37.3957Z" fill="white" stroke="black" stroke-width="0.8" stroke-miterlimit="10"/>
<path d="M66.9091 49.0143C63.8905 48.8112 61.1876 44.012 60.8305 37.9856C60.8445 37.7813 60.8074 37.5736 60.8179 37.4204L65.6391 36.8214L60.9155 34.5027C61.3776 30.0192 63.202 26.6534 65.6417 26.3045C67.7224 28.1888 69.2802 32.4491 69.6086 37.3963C69.9266 42.4967 68.7994 46.9355 66.9091 49.0143Z" fill="black" stroke="black" stroke-width="0.8" stroke-miterlimit="10"/>
<path d="M90.589 36.0988C90.264 31.1004 88.7024 26.891 86.6214 25.0066C85.7971 24.2842 84.9518 23.8682 84.0748 23.9118C80.8743 24.1069 78.6799 29.8593 79.0763 36.8121C79.4762 43.7138 82.441 49.1977 85.5904 48.9991C86.4162 48.9521 87.2188 48.493 87.8855 47.7683C89.7796 45.6383 90.9069 41.1994 90.589 36.0988Z" fill="white" stroke="black" stroke-width="0.8" stroke-miterlimit="10"/>
<path d="M87.8867 47.7687C84.8682 47.5656 82.1653 42.7665 81.8082 36.74C81.8222 36.5357 81.785 36.328 81.7956 36.1748L86.6167 35.5758L81.8931 33.2571C82.3552 28.7736 84.1797 25.4078 86.6194 25.0589C88.7001 26.9432 90.2579 31.2035 90.5863 36.1507C90.9077 41.2 89.7805 45.6388 87.8867 47.7687Z" fill="black" stroke="black" stroke-width="0.8" stroke-miterlimit="10"/>
<path d="M73.5358 40.2805L73.689 42.5482C73.689 42.5482 73.8937 42.562 73.9484 42.5144C75.2388 42.4474 76.7711 42.602 76.9697 44.2058C77.1508 46.065 75.0506 46.693 73.6522 46.0857" fill="#ACBFFF"/>
<path d="M73.5358 40.2805L73.689 42.5482C73.689 42.5482 73.8937 42.562 73.9484 42.5144C75.2388 42.4474 76.7711 42.602 76.9697 44.2058C77.1508 46.065 75.0506 46.693 73.6522 46.0857" stroke="black" stroke-width="0.8" stroke-miterlimit="10"/>
<path d="M71.8462 58.2231C72.7757 59.6711 73.9926 60.6767 75.6928 60.6374C77.3417 60.5946 78.4392 59.591 79.2064 58.1548C81.1622 54.3871 80.6446 47.6821 80.6446 47.6821L77.036 47.7981L72.4988 47.9541L69.3546 48.05C69.351 48.1011 69.5243 54.5777 71.8462 58.2231Z" fill="black" stroke="black" stroke-width="0.8" stroke-miterlimit="10"/>
<path d="M71.8141 57.9636C72.7367 59.5139 73.998 60.6251 75.6983 60.5858C77.3474 60.543 78.4486 59.4883 79.2228 57.9498C79.0184 55.6782 77.2324 53.9671 75.2144 54.139C73.3534 54.2701 71.903 55.917 71.8141 57.9636Z" fill="#E30611" stroke="black" stroke-width="0.8" stroke-miterlimit="10"/>
<path d="M80.8401 45.5964C80.4296 46.3381 79.4818 48.1721 79.5661 50.6913C79.6911 53.3672 80.9021 55.1929 81.4228 55.8436" fill="#ACBFFF"/>
<path d="M80.8401 45.5964C80.4296 46.3381 79.4818 48.1721 79.5661 50.6913C79.6911 53.3672 80.9021 55.1929 81.4228 55.8436" stroke="black" stroke-width="0.8" stroke-miterlimit="10"/>
<path d="M68.9389 45.8161C69.3501 46.5619 70.2502 48.418 70.13 50.9233C69.9993 53.5818 68.7452 55.3951 68.2361 56.0788" fill="#ACBFFF"/>
<path d="M68.9389 45.8161C69.3501 46.5619 70.2502 48.418 70.13 50.9233C69.9993 53.5818 68.7452 55.3951 68.2361 56.0788" stroke="black" stroke-width="0.8" stroke-miterlimit="10"/>
<path d="M41.382 58.1487C41.8868 58.5517 42.5063 60.5431 42.5063 60.5431C42.5063 60.5431 41.4128 60.9934 39.9284 61.4443C35.9298 62.528 31.9848 61.5568 28.8121 58.9339C25.767 56.4032 23.6985 52.9306 21.8385 49.4923C20.9375 47.8136 20.0655 46.1752 19.286 44.4097C18.9252 43.5674 18.5645 42.725 18.2037 41.8827C17.7963 40.8903 17.4294 39.869 17.0511 38.917C17.0511 38.917 17.022 38.8766 16.993 38.8362C16.6613 38.0342 16.3296 37.2322 16.0269 36.4706C15.55 35.4668 16.2538 34.2308 17.2374 33.8949C18.3019 33.5012 19.4149 34.1119 19.8223 35.1042C20.0783 35.7158 20.3458 36.2581 20.5614 36.8986C20.9978 37.9314 21.4228 39.0334 21.8187 40.0951C22.2437 41.1971 22.6977 42.3395 23.2327 43.4241C23.9771 44.9703 24.8376 46.6779 25.6048 48.0855C27.2264 51.0219 29.0741 54.1022 31.7303 56.1773C34.1313 58.068 35.4421 59.0442 38.4272 57.8287C40.6082 56.9432 39.9474 57.2027 39.9474 57.2027C39.9474 57.2027 40.5055 57.449 41.382 58.1487Z" fill="black"/>
<path d="M13.2178 39.9491C13.2178 39.9491 -0.918772 27.1779 3.33904 23.6588C3.33904 23.6588 4.92198 22.5282 6.41902 23.6103C6.41902 23.6103 5.94957 19.4039 9.71902 20.5363C12.0683 21.2487 12.6594 25.8464 12.6594 25.8464C12.7339 25.3947 13.2765 24.9276 13.608 24.6111C14.4441 23.7749 15.3939 23.0965 16.4951 22.6288C18.0941 21.9648 20.3814 21.9247 21.3061 23.6547C21.344 23.7073 21.3818 23.7599 21.3669 23.8503C22.0346 25.445 20.5137 27.3281 18.8068 26.9536C17.5908 26.7066 16.1489 26.7006 15.2072 27.6122C13.9191 28.9306 14.6178 30.9016 16.2272 31.5847C18.1843 32.418 21.0726 30.9926 21.163 27.3425C21.1618 26.7855 21.0172 26.2514 21.1973 25.7244C21.445 25.0694 22.2824 24.79 22.872 25.1657C24.8979 26.4279 27.5148 32.2876 21.0591 35.3049" fill="white"/>
<path d="M13.2178 39.9491C13.2178 39.9491 -0.918772 27.1779 3.33904 23.6588C3.33904 23.6588 4.92198 22.5282 6.41902 23.6103C6.41902 23.6103 5.94957 19.4039 9.71902 20.5363C12.0683 21.2487 12.6594 25.8464 12.6594 25.8464C12.7339 25.3947 13.2765 24.9276 13.608 24.6111C14.4441 23.7749 15.3939 23.0965 16.4951 22.6288C18.0941 21.9648 20.3814 21.9247 21.3061 23.6547C21.344 23.7073 21.3818 23.7599 21.3669 23.8503C22.0346 25.445 20.5137 27.3281 18.8068 26.9536C17.5908 26.7066 16.1489 26.7006 15.2072 27.6122C13.9191 28.9306 14.6178 30.9016 16.2272 31.5847C18.1843 32.418 21.0726 30.9926 21.163 27.3425C21.1618 26.7855 21.0172 26.2514 21.1973 25.7244C21.445 25.0694 22.2824 24.79 22.872 25.1657C24.8979 26.4279 27.5148 32.2876 21.0591 35.3049" stroke="black" stroke-width="0.8" stroke-miterlimit="10"/>
<path d="M6.3819 23.5626L8.89662 28.0587" stroke="black" stroke-width="0.8" stroke-miterlimit="10"/>
<path d="M19.0636 36.6435L21.0921 35.3541C23.7769 33.7553 29.249 36.1433 19.9944 41.1593C10.7021 46.1226 13.2787 39.8189 13.2787 39.8189C13.6332 39.6454 14.1311 39.4492 14.5534 39.1476C14.9607 38.9364 15.3301 38.6725 15.6089 38.3937" fill="white"/>
<path d="M19.0636 36.6435L21.0921 35.3541C23.7769 33.7553 29.249 36.1433 19.9944 41.1593C10.7021 46.1226 13.2787 39.8189 13.2787 39.8189C13.6332 39.6454 14.1311 39.4492 14.5534 39.1476C14.9607 38.9364 15.3301 38.6725 15.6089 38.3937" stroke="black" stroke-width="0.8" stroke-miterlimit="10"/>
<path d="M43.9828 14.9621L46.8071 16.6391C46.9273 16.5193 49.5714 13.8839 49.5714 13.8839C55.2802 8.73293 68.2 -0.550864 83.6438 4.83973C90.9751 7.35533 96.9843 12.8657 101.131 17.7172C101.912 18.6157 102.633 19.5141 103.294 20.3526C104.496 21.85 105.457 23.2276 106.178 24.3057L108.943 22.8084C105.337 17.5376 96.9843 6.81627 84.425 2.44391C65.0151 -4.26438 49.8118 9.0923 45.1245 13.824C44.6438 14.3032 44.2833 14.7225 43.9828 14.9621Z" fill="#E30611" stroke="black" stroke-width="0.8" stroke-miterlimit="10"/>
<path d="M46.3864 40.6571C47.8888 40.5373 49.331 40.0582 50.5929 39.2795C50.653 39.2795 50.653 39.2196 50.7131 39.2196V15.2016V14.4229C50.653 14.4229 50.653 14.363 50.5929 14.363C49.8117 14.0036 49.0305 13.7641 48.1892 13.6443C47.5883 13.5844 46.9874 13.5245 46.3263 13.5844C40.3171 14.0036 35.4496 20.4125 35.5097 27.8395C35.5097 35.3863 40.3772 41.0764 46.3864 40.6571Z" fill="#E30611" stroke="black" stroke-width="0.8" stroke-miterlimit="10"/>
<path d="M105.157 44.3706C104.496 44.4305 103.895 44.4305 103.294 44.3107C102.693 44.2508 102.092 44.0711 101.491 43.8914C101.371 32.9306 101.191 22.6885 101.131 18.4958C102.333 17.8369 103.655 17.4177 104.977 17.3578C111.046 16.8786 116.034 22.5687 116.094 29.9957C116.094 37.4227 111.226 43.8914 105.157 44.3706Z" fill="#E30611" stroke="black" stroke-width="0.8" stroke-miterlimit="10"/>
<path d="M101.083 62.228L94.3518 58.2211L90.6804 63.707L89.1882 65.999L88.1177 67.6181L79.7043 80.2089L79.3754 84.8203L79.1463 88.0318C80.1345 87.5656 81.1287 87.017 82.1169 86.5508L86.2528 84.4509L94.8048 71.6632L95.8753 70.0441L97.3674 67.7521L101.083 62.228Z" fill="#5663F1" stroke="black" stroke-width="0.8" stroke-miterlimit="10"/>
<path d="M79.6968 80.2113L81.9707 79.1767L81.9096 81.7789L84.4223 80.3064L84.1401 83.0994L86.2871 82.097L86.2437 84.4522L79.1832 87.9939L79.6968 80.2113Z" fill="white" stroke="black" stroke-width="0.8" stroke-miterlimit="10"/>
<path d="M79.41 84.7841C79.5368 84.7519 80.398 84.318 81.2388 84.7515C82.1563 85.2733 82.1567 86.4318 82.1508 86.5141C81.1628 86.9802 80.169 87.5286 79.181 87.9947L79.41 84.7841Z" fill="black" stroke="black" stroke-width="0.8" stroke-miterlimit="10"/>
<path d="M81.9369 79.2152L95.5485 58.9695" stroke="black" stroke-width="0.8" stroke-miterlimit="10"/>
<path d="M84.3818 80.4249L97.6569 60.2378" stroke="black" stroke-width="0.8" stroke-miterlimit="10"/>
<path d="M86.2891 82.1752L99.8531 61.4297" stroke="black" stroke-width="0.8" stroke-miterlimit="10"/>
<path d="M95.057 57.2334C95.057 57.2334 97.3324 53.2621 100.881 55.2986C104.468 57.3794 101.785 61.2384 101.785 61.2384L95.057 57.2334Z" fill="#FF1F33" stroke="black" stroke-width="0.8" stroke-miterlimit="10"/>
<path d="M98.9575 56.1121C98.1106 55.7608 96.963 56.1327 96.3143 57.0788C96.1757 57.2756 95.9396 57.093 96.0782 56.8961C96.8213 55.7913 98.2226 55.3551 99.1462 55.7947C99.3115 55.8067 99.1611 56.1682 98.9575 56.1121Z" fill="white"/>
<path d="M99.3964 56.3497C99.2369 56.2552 99.4701 55.8992 99.6238 56.0761C99.8277 56.1324 99.5944 56.4884 99.3964 56.3497Z" fill="white"/>
<path d="M94.364 58.219L101.129 62.2673L101.783 61.2396L95.0566 57.2354L94.364 58.219Z" fill="black" stroke="black" stroke-width="0.8" stroke-miterlimit="10"/>
<path d="M93.6786 73.6514C93.9316 73.7917 94.1846 73.932 94.4376 74.0724C96.2436 74.9915 98.0497 75.9107 99.9258 76.7038C101.451 77.3845 102.961 78.0162 104.458 78.5988C104.76 78.7252 105.112 78.8375 105.414 78.9638C108.822 80.2765 113.213 81.6809 116.759 80.1417C122.237 77.735 119.161 70.5434 117.121 66.7722C114.856 62.5873 112.958 61.7295 109.556 58.3987L108.846 60.2774L108.848 62.4048C110.514 64.3189 112.19 66.6357 113.407 68.8368C113.991 69.9443 114.539 71.1149 114.976 72.2644C115.293 73.1826 115.715 74.283 115.625 75.2639C115.639 75.313 115.526 75.6633 115.541 75.7123C115.505 75.7754 115.47 75.8384 115.47 75.8384C115.435 75.9015 115.316 76.0415 115.267 76.0555L115.218 76.0695C114.951 76.2515 114.249 76.3982 113.94 76.433C112.886 76.4673 111.79 76.3545 110.701 76.0804C108.375 75.5743 106.007 74.5497 103.78 73.6442C102.873 73.2652 102.03 72.9213 101.173 72.5283C100.189 72.0652 99.2053 71.602 98.2215 71.1389C97.4766 70.767 96.7317 70.3951 96.0359 70.0092C95.5377 70.6816 95.0887 71.34 94.7029 72.0334C94.3381 72.6148 94.0083 73.1331 93.6786 73.6514Z" fill="black"/>
<path d="M101.632 70.4743C101.254 70.3729 101.226 69.5464 101.179 69.1423C100.983 66.7638 98.947 64.7688 97.5015 63.858C96.9215 63.536 95.089 62.2482 93.9487 62.6417C91.475 63.4836 94.203 67.1598 95.0233 68.3178C94.3515 68.1609 94.2043 68.1332 94.0571 68.1054C93.7626 68.05 93.4496 67.9303 93.0908 67.8931C92.5477 67.6996 91.9588 67.5887 91.4158 67.3953C90.0996 66.9346 88.8936 66.373 87.5775 65.9123C86.7215 65.5991 85.3409 65.1567 84.5505 65.7985C83.9807 66.2386 84.0738 67.0468 84.1942 67.7081C84.1942 67.7081 84.1942 67.7081 84.2127 67.7724C84.2127 67.7724 81.509 68.5405 83.4721 71.2517C83.1687 71.4074 82.8468 71.4988 82.7276 71.8109C82.1954 72.8663 83.4855 74.4472 84.112 75.1733C85.6876 77.0209 87.9439 78.8142 90.1257 79.8636C91.976 80.7289 94.0003 80.9884 96.0144 80.4858C96.4007 80.376 96.7869 80.2663 97.1732 80.1566C97.4951 80.0651 98.0649 79.625 98.3594 79.6805C98.3594 79.6805 98.4888 80.1306 98.5072 80.1949C98.6825 80.5624 98.9222 80.9116 99.2077 81.1782C99.8802 81.8218 100.911 82.0159 101.738 81.5026C102.979 80.7328 103.318 79.2456 103.647 77.9696C104.031 76.3999 104.581 74.9221 105.049 73.3984C106.515 68.8089 102.928 69.8974 102.45 70.1723C101.678 70.3917 101.843 70.4838 101.632 70.4743Z" fill="white" stroke="black" stroke-width="0.8" stroke-miterlimit="10"/>
<path d="M92.3602 71.6582C92.3602 71.6582 86.9946 70.1918 84.1761 67.6541" stroke="black" stroke-width="0.8" stroke-miterlimit="10"/>
<path d="M83.3665 71.1508C83.3665 71.1508 87.3262 74.268 90.4643 75.2542" stroke="black" stroke-width="0.8" stroke-miterlimit="10"/>
<path d="M101.537 70.3572L100.932 72.1281" stroke="black" stroke-width="0.8" stroke-miterlimit="10"/>
<path d="M98.8127 77.8721L98.3828 79.5237" stroke="black" stroke-width="0.8" stroke-miterlimit="10"/>
</svg>
