<svg width="133" height="121" viewBox="0 0 133 121" fill="none" xmlns="http://www.w3.org/2000/svg">
<g clip-path="url(#clip0_3_36016)">
<path d="M104.838 63.2263C104.777 62.862 104.172 59.2192 103.693 56.6903C106.396 58.3208 108.597 60.3332 110.766 62.8092C115.047 67.7821 119.296 73.2186 121.117 79.6948C121.294 80.4023 121.451 81.0526 121.629 81.7602C122.205 84.5751 117.917 85.5382 117.415 82.7594C117.316 82.2808 117.217 81.8021 117.061 81.3444C115.491 75.4192 111.473 70.4766 107.591 65.9344C106.678 64.9223 105.673 64.0095 104.838 63.2263Z" fill="black"/>
<path d="M115.392 83.1074C115.507 83.4483 114.8 83.9723 114.558 84.1919C112.735 85.7147 112.212 88.4746 112.186 90.0857C112.209 90.7174 112.131 92.9245 113.072 93.6572C115.047 95.2149 116.57 90.9236 117.085 89.6399C117.295 90.2648 117.333 90.3785 117.39 90.5489C117.486 90.833 117.6 91.1738 117.696 91.4579C117.868 91.9692 118.003 92.5585 118.175 93.0698C118.484 94.3621 118.68 95.6967 118.988 96.989C119.219 97.8624 119.547 99.2114 120.521 99.4828C121.159 99.6897 121.791 99.1301 122.218 98.7121C122.218 98.7121 122.218 98.7121 122.274 98.6909C122.274 98.6909 124.307 100.419 125.483 97.348C125.727 97.5116 126.047 97.7109 126.346 97.6617C127.486 97.4863 128.108 95.5852 128.364 94.6559C129.04 92.3504 129.281 89.5048 128.984 87.1196C128.689 85.1176 127.854 83.3844 126.385 82.0192C126.102 81.7419 125.839 81.5214 125.5 81.2653C125.237 81.0449 124.599 80.8379 124.448 80.5751C124.448 80.5751 124.707 80.2206 124.744 80.1426C124.948 79.8094 125.132 79.4194 125.204 79.0717C125.348 78.1848 124.967 77.2402 124.141 76.8484C122.884 76.2997 121.484 76.8296 120.253 77.2959C118.797 77.847 117.285 78.2277 115.81 78.7219C111.349 80.0911 114.077 82.3883 114.603 82.6376C115.373 83.0506 115.316 82.8801 115.392 83.1074Z" fill="white" stroke="black" stroke-width="0.8" stroke-miterlimit="10"/>
<path d="M121.333 89.9291C121.333 89.9291 122.983 95.1775 122.42 98.807" stroke="black" stroke-width="0.8" stroke-miterlimit="10"/>
<path d="M125.601 97.5619C125.601 97.5619 126.02 92.572 125.146 89.4219" stroke="black" stroke-width="0.8" stroke-miterlimit="10"/>
<path d="M119.665 90.4617C119.738 90.306 119.736 90.1145 119.586 90.0431C119.437 89.9717 119.269 90.0349 119.196 90.1906C119.123 90.3463 119.124 90.5377 119.274 90.6091C119.368 90.7016 119.536 90.6384 119.665 90.4617Z" fill="black" stroke="black" stroke-width="0.8" stroke-miterlimit="10"/>
<path d="M123.443 89.3191C123.517 89.1634 123.515 88.972 123.365 88.9005C123.215 88.8291 123.048 88.8923 122.975 89.048C122.901 89.2037 122.903 89.3951 123.053 89.4666C123.147 89.5591 123.37 89.4748 123.443 89.3191Z" fill="black" stroke="black" stroke-width="0.8" stroke-miterlimit="10"/>
<path d="M127.009 88.6438C127.083 88.4881 127.081 88.2967 126.931 88.2252C126.781 88.1538 126.614 88.217 126.541 88.3727C126.467 88.5284 126.469 88.7198 126.619 88.7913C126.769 88.8627 126.936 88.7995 127.009 88.6438Z" fill="black" stroke="black" stroke-width="0.8" stroke-miterlimit="10"/>
<path d="M115.398 83.1235L117.096 82.6151" stroke="black" stroke-width="0.8" stroke-miterlimit="10"/>
<path d="M122.833 81.2035L124.307 80.593" stroke="black" stroke-width="0.8" stroke-miterlimit="10"/>
<path d="M52.4301 109.061C52.2484 111.64 55.2755 112.52 56.6679 111.137C57.0312 110.759 57.2733 110.256 57.2733 109.627C57.5155 105.789 61.1672 92.6553 62.4386 89.0696C62.5597 88.818 62.6202 88.5035 62.7413 88.2518C60.9856 87.8744 59.4116 87.4969 57.9586 86.9937C56.3845 90.8939 52.7328 104.468 52.4301 108.557C52.4301 108.683 52.4301 108.872 52.4301 109.061Z" fill="black" stroke="black" stroke-width="0.8" stroke-miterlimit="10"/>
<path d="M78.7653 89.6345C79.5524 93.2831 79.2666 105.345 83.3664 107.928C85.7881 110.13 88.7546 110.571 91.6 109.816C95.5352 108.746 98.0779 106.167 99.1071 104.909L99.1676 104.783C99.8336 103.839 99.8941 102.644 99.4098 101.701C99.0465 101.009 98.4411 100.505 97.7146 100.317C97.2908 100.191 96.8671 100.254 96.5038 100.443C96.3222 100.505 96.2011 100.631 96.08 100.757C94.506 102.456 89.5416 106.985 85.6065 102.896C84.6378 101.952 83.8508 91.2071 83.3664 89.4457C81.8529 89.5716 80.3394 89.6345 78.7653 89.6345Z" fill="black" stroke="black" stroke-width="0.8" stroke-miterlimit="10"/>
<path d="M51.012 64.1846C45.9221 67.4167 41.2281 71.589 35.516 73.587C33.0276 74.4685 30.4827 74.8211 28.3902 73.587C25.6755 72.0004 23.8658 69.1209 22.5085 66.2414C20.8684 62.7743 19.8504 59.0133 18.6628 55.3699C17.7579 52.4904 13.3466 53.7244 14.2515 56.6039C16.5702 63.8908 18.6628 72.1179 24.9403 76.8779C30.9351 81.4028 38.5135 77.8769 44.1689 74.4097C47.2794 72.4705 50.2202 70.1787 53.3308 68.2394C55.8192 66.7115 53.5004 62.598 51.012 64.1846Z" fill="black"/>
<path d="M21.9329 59.6016L21.411 59.834C26.6302 57.7422 24.5425 48.1354 22.0821 46.4309C18.7268 44.4941 18.7268 51.0794 18.7268 51.0794C18.7268 51.0794 16.5646 47.2057 12.1655 44.1067C6.94631 40.3104 7.9156 44.9589 7.9156 44.9589C7.9156 44.9589 5.90247 42.9446 3.74022 44.1842C2.0999 45.4238 4.03846 47.2832 4.03846 47.2832C2.99462 46.8183 0.906937 46.121 0.459575 47.6705C0.0867737 49.1425 1.50341 50.4596 2.24902 51.3118C3.36742 52.5514 4.56038 53.6361 5.75335 54.7207C6.12615 55.0306 6.7972 55.4954 6.94632 55.9603C9.03401 63.2429 14.4023 62.8555 14.4023 62.8555C14.2532 63.5528 14.2532 64.7924 14.626 65.1798C15.148 65.7221 15.9681 65.877 16.7137 65.6446C18.2795 65.1023 21.7092 63.7078 23.0513 62.6231C24.8408 61.306 21.9329 59.6016 21.9329 59.6016Z" fill="white" stroke="black" stroke-width="0.8" stroke-miterlimit="10"/>
<path d="M7.91553 44.959L13.7312 50.5372" stroke="black" stroke-width="0.8" stroke-miterlimit="10"/>
<path d="M4.03857 47.2832L10.1525 53.0938" stroke="black" stroke-width="0.8" stroke-miterlimit="10"/>
<path d="M8.73584 54.1009L14.3279 50.0723" stroke="black" stroke-width="0.8" stroke-miterlimit="10"/>
<path d="M18.7269 51.0791L18.876 52.2412C18.876 52.2412 14.1787 51.9313 14.7006 56.2699" stroke="black" stroke-width="0.8" stroke-miterlimit="10"/>
<path d="M16.0428 62.0806L14.3279 63.0103" stroke="black" stroke-width="0.8" stroke-miterlimit="10"/>
<path d="M98.8045 85.3955L87.3126 71.7302L86.6276 72.0805L91.0069 89.6131L79.6264 92.6539L74.1156 70.0227L73.7848 68.664L73.3532 69.9789L66.0953 92.0893L55.0506 88.1749L62.3363 65.9799L62.7645 64.6753L61.7082 65.5294L43.8473 79.9727L36.7042 70.3677L50.4034 59.2405L50.065 58.5295L33.0117 62.0777L30.7209 50.1141L50.598 46.0441L52.0089 45.7552L50.6373 45.2691L31.4041 38.4525L35.179 26.9527L54.3308 33.7405L55.6926 34.2231L54.7564 33.1032L41.4426 17.1765L50.2644 9.2414L61.7051 22.7973L62.39 22.4481L58.0904 4.94383L69.3649 1.95628L75.0629 24.8464L75.3975 26.1903L75.8249 24.8883L83.166 2.52417L94.2107 6.4386L86.8973 28.7181L86.4665 30.0303L87.5263 29.1678L105.307 14.696L112.474 24.2184L98.7765 35.3441L99.1123 36.0556L116.22 32.6178L118.46 44.4717L98.5527 48.6254L97.153 48.9175L98.5149 49.4001L117.585 56.159L113.81 67.6588L94.6586 60.871L93.2871 60.3849L94.2339 61.5094L107.576 77.3542L98.8045 85.3955Z" fill="#F96F6F" stroke="black" stroke-width="0.8"/>
<path d="M71.6536 45.2822C68.9397 45.4702 67.0399 44.2012 64.5069 44.3422C63.1047 44.4362 61.7478 44.7652 61.7478 46.3162C61.7025 49.1832 63.8737 51.0632 66.4972 52.1912C69.8896 53.6483 73.8248 53.5073 77.172 51.9562C80.0216 50.6402 82.9617 48.4782 82.2832 45.0942C81.9666 43.5432 80.6549 43.3552 79.2979 43.4492C76.8101 43.6372 74.1414 45.1412 71.6536 45.2822Z" fill="white" stroke="black" stroke-width="0.8" stroke-miterlimit="10"/>
<path d="M76.4031 44.1074C76.7649 45.0004 77.172 46.2224 77.353 47.7264C77.5791 49.4655 77.3982 50.9225 77.2173 51.9565" stroke="black" stroke-width="0.8" stroke-miterlimit="10"/>
<path d="M71.6537 45.2822C71.9703 46.2222 72.2417 47.4912 72.3322 48.9952C72.4226 50.7343 72.2417 52.1443 71.9703 53.2253" stroke="black" stroke-width="0.8" stroke-miterlimit="10"/>
<path d="M66.4972 44.4834C66.7686 45.4704 67.04 46.8334 67.04 48.5254C67.04 50.0294 66.7686 51.2984 66.4972 52.1914" stroke="black" stroke-width="0.8" stroke-miterlimit="10"/>
<path d="M74.4076 38.5193C74.5458 39.5877 73.8095 40.555 72.7744 40.7053C71.7394 40.8556 70.8081 40.1016 70.6698 39.0333C70.5315 37.965 71.2678 36.9976 72.3029 36.8473C73.338 36.697 74.2693 37.451 74.4076 38.5193Z" fill="#E30611" stroke="black" stroke-width="0.8" stroke-miterlimit="10"/>
<path d="M76.9168 40.5445C78.5166 39.9083 80.5569 39.6015 82.7268 39.7505C83.0492 39.7638 83.3716 39.777 83.6979 39.8368C85.3217 40.0428 86.8244 40.4491 88.0201 41.0282C88.5637 39.2821 88.8566 37.2806 88.9066 35.1168C88.9281 34.2699 88.9079 33.4742 88.7968 32.6881C88.623 30.5946 88.1916 28.7156 87.5103 27.1443C86.4178 24.4897 84.7121 22.7437 82.7852 22.7571C82.7397 22.7618 82.6942 22.7666 82.6487 22.7713C80.2705 22.8787 78.1503 25.5402 77.0939 29.4045C76.6752 30.9968 76.4085 32.7609 76.3354 34.6456C76.3431 34.7386 76.3053 34.8364 76.313 34.9295C76.3009 36.9955 76.5503 38.8934 76.9168 40.5445Z" fill="white" stroke="black" stroke-width="0.8" stroke-miterlimit="10"/>
<path d="M77.0965 29.4183C78.1941 25.5037 80.268 22.8476 82.6451 22.7403C83.9437 24.0121 84.8037 26.0804 84.8602 28.4203C84.8657 29.5925 84.6815 30.6908 84.3493 31.6638L81.3297 30.6653L83.4042 33.5452C82.4204 34.9614 81.0303 35.9041 79.472 35.926C78.2815 35.9564 77.1888 35.5075 76.2473 34.6675C76.4113 32.7738 76.678 31.0101 77.0965 29.4183Z" fill="black" stroke="black" stroke-width="0.8" stroke-miterlimit="10"/>
<path d="M56.7966 40.5951L56.8005 40.6416L56.8043 40.6882C56.8082 40.7347 56.812 40.7812 56.8653 40.8695C57.0851 40.7527 57.3504 40.6312 57.574 40.5609C57.7067 40.5001 57.8393 40.4394 57.9719 40.3786C59.219 39.92 60.618 39.6332 62.1234 39.523C62.715 39.4613 63.3142 39.4926 63.9096 39.4773C64.0006 39.4678 64.0461 39.4631 64.141 39.5001C65.5709 39.5855 66.8303 39.8294 67.9687 40.2736C68.3796 38.5885 68.5892 36.6898 68.5636 34.7218C68.4588 27.9292 65.5762 22.5058 62.0948 22.5876C60.1721 22.6475 58.4794 24.3726 57.3722 27.0688C57.2211 27.4599 57.0738 27.8976 56.9304 28.3818C56.9343 28.4283 56.8926 28.4796 56.8965 28.5261C56.8548 28.5773 56.8626 28.6704 56.8209 28.7217C56.7831 28.8194 56.787 28.866 56.7492 28.9637C56.7153 29.108 56.6775 29.2058 56.6436 29.3501C56.6135 29.5409 56.5341 29.69 56.5041 29.8808C56.474 30.0716 56.4439 30.2625 56.3684 30.458C56.2743 30.984 56.1803 31.5099 56.1317 32.0311C56.1017 32.2219 56.0716 32.4128 56.0832 32.5523C56.0832 32.5523 56.0832 32.5523 56.0871 32.5988C56.0609 32.8362 56.0385 33.12 56.0123 33.3574C55.9823 33.5482 55.9977 33.7342 56.0132 33.9203C56.0247 34.0599 55.9908 34.2042 56.0024 34.3437C56.0063 34.3902 56.0063 34.3902 56.0101 34.4368C56.0256 34.6228 55.9955 34.8137 56.0148 35.0462C56.0405 37.0142 56.2897 38.912 56.7966 40.5951Z" fill="white" stroke="black" stroke-width="0.8" stroke-miterlimit="10"/>
<path d="M56.6918 29.3613C57.6986 25.4557 59.7652 22.7063 62.1429 22.5988C63.4873 23.8661 64.3891 25.8834 64.4911 28.2188C64.5421 29.3865 64.3579 30.4849 64.0711 31.4533L61.1573 30.6313L63.2168 33.3254C62.2822 34.7837 60.8917 35.7264 59.3369 35.7949C58.15 35.8719 57.0116 35.4276 56.0699 34.5875C56.0558 32.7591 56.2731 30.9534 56.6918 29.3613Z" fill="black" stroke="black" stroke-width="0.8" stroke-miterlimit="10"/>
<path d="M54.7537 54.2031L60.18 56.7632L69.3781 61.2814L65.04 70.4968L44.6249 56.4649L54.7537 54.2031Z" fill="white"/>
<path d="M93.2742 56.7186L78.562 62.1635L79.8062 71.915L101.381 59.8182L93.2742 56.7186Z" fill="white"/>
<path d="M54.7537 54.2031L60.18 56.7632L69.3781 61.2814L65.04 70.4968L44.6249 56.4649L54.7537 54.2031Z" stroke="black" stroke-width="0.8"/>
<path d="M93.2742 56.7186L78.562 62.1635L79.8062 71.915L101.381 59.8182L93.2742 56.7186Z" stroke="black" stroke-width="0.8"/>
<path d="M68.9199 61.927L78.0069 62.079L73.5812 69.5455L77.6062 74.6066L76.1121 98.6471L72.2983 103.928L68.5633 97.7908L69.4575 73.6859L73.5812 69.5455L68.9199 61.927Z" fill="#5663F1"/>
<path d="M73.5812 69.5455L78.0069 62.079L68.9199 61.927L73.5812 69.5455ZM73.5812 69.5455L69.4575 73.6859L68.5633 97.7908L72.2983 103.928L76.1121 98.6471L77.6062 74.6066L73.5812 69.5455Z" stroke="black" stroke-width="0.8"/>
<path d="M53.8667 120.173L53.6848 118.609L52.4118 120.173L35.8933 120.191L35.6812 116.592L61.6258 116.331L61.747 120.104L53.8667 120.173Z" fill="black" stroke="black" stroke-width="0.8" stroke-miterlimit="10"/>
<path d="M49.2597 105.34C45.3498 106.033 37.2572 108.489 35.6812 116.835L61.6561 116.394L61.6864 108.489C57.4128 109.843 52.0784 108.93 49.2597 105.34Z" fill="#ACBFFF" stroke="black" stroke-width="0.8" stroke-miterlimit="10"/>
<path d="M44.198 106.6L48.8656 110.442" stroke="black" stroke-width="0.8" stroke-miterlimit="10"/>
<path d="M41.8035 107.859L46.5014 111.733" stroke="black" stroke-width="0.8" stroke-miterlimit="10"/>
<path d="M105.329 98.8989L104.179 99.9539L106.153 100.142L115.526 114.242L112.763 116.493L97.8551 94.4799L100.809 92.2073L105.329 98.8989Z" fill="black" stroke="black" stroke-width="0.8" stroke-miterlimit="10"/>
<path d="M96.1324 111.309C98.8944 114.244 105.428 119.732 112.988 116.283L97.9657 94.3936L91.631 98.9069C95.1269 101.772 97.4098 106.844 96.1324 111.309Z" fill="#ACBFFF" stroke="black" stroke-width="0.8" stroke-miterlimit="10"/>
<path d="M100.023 114.885L100.457 108.711" stroke="black" stroke-width="0.8" stroke-miterlimit="10"/>
<path d="M102.381 116.217L102.822 109.999" stroke="black" stroke-width="0.8" stroke-miterlimit="10"/>
</g>
<defs>
<clipPath id="clip0_3_36016">
<rect width="131.977" height="120" fill="white" transform="translate(0.28418 0.241699)"/>
</clipPath>
</defs>
</svg>
