<svg width="117" height="121" viewBox="0 0 117 121" fill="none" xmlns="http://www.w3.org/2000/svg">
    <g clip-path="url(#clip0_755_8106)">
        <path d="M83.2285 108.737C83.4101 111.628 80.3831 112.615 78.9906 111.064C78.6274 110.641 78.3852 110.077 78.3852 109.372C78.1431 105.07 74.4913 90.3467 73.22 86.3272C73.0989 86.0451 73.0384 85.6925 72.9173 85.4104C74.673 84.9873 76.247 84.5642 77.7 84C79.2741 88.3722 82.9258 103.589 83.2285 108.173C83.2285 108.314 83.2285 108.525 83.2285 108.737Z" fill="black" stroke="black" stroke-width="0.8" stroke-miterlimit="10"/>
        <path d="M56.8932 86.9603C56.1062 91.0504 56.3919 104.572 52.2921 107.468C49.8705 109.936 46.904 110.43 44.0586 109.583C40.1234 108.385 37.5807 105.493 36.5515 104.083L36.491 103.942C35.825 102.884 35.7645 101.544 36.2488 100.486C36.612 99.7107 37.2174 99.1466 37.9439 98.935C38.3677 98.794 38.7915 98.8645 39.1548 99.076C39.3364 99.1466 39.4575 99.2876 39.5785 99.4286C41.1526 101.333 46.117 106.41 50.0521 101.826C51.0208 100.768 51.8078 88.7232 52.2921 86.7487C53.8056 86.8898 55.3192 86.9603 56.8932 86.9603Z" fill="black" stroke="black" stroke-width="0.8" stroke-miterlimit="10"/>
        <path d="M81.7919 120.179L81.9738 118.615L83.2467 120.179L99.7653 120.197L99.9774 116.598L74.0328 116.337L73.9115 120.11L81.7919 120.179Z" fill="black" stroke="black" stroke-width="0.8" stroke-miterlimit="10"/>
        <path d="M86.3989 105.346C90.3088 106.039 98.4013 108.495 99.9774 116.841L74.0024 116.4L73.9721 108.495C78.2457 109.849 83.5802 108.936 86.3989 105.346Z" fill="#ACBFFF" stroke="black" stroke-width="0.8" stroke-miterlimit="10"/>
        <path d="M91.4606 106.606L86.793 110.448" stroke="black" stroke-width="0.8" stroke-miterlimit="10"/>
        <path d="M93.855 107.865L89.1571 111.739" stroke="black" stroke-width="0.8" stroke-miterlimit="10"/>
        <path d="M30.3295 98.9048L31.4799 99.9598L29.5052 100.148L20.1325 114.248L22.8953 116.498L37.8035 94.4858L34.8499 92.2131L30.3295 98.9048Z" fill="black" stroke="black" stroke-width="0.8" stroke-miterlimit="10"/>
        <path d="M39.5261 111.315C36.7642 114.25 30.2305 119.738 22.6704 116.29L37.6929 94.3997L44.0275 98.913C40.5316 101.779 38.2488 106.85 39.5261 111.315Z" fill="#ACBFFF" stroke="black" stroke-width="0.8" stroke-miterlimit="10"/>
        <path d="M35.6354 114.891L35.2018 108.717" stroke="black" stroke-width="0.8" stroke-miterlimit="10"/>
        <path d="M33.2778 116.223L32.8362 110.005" stroke="black" stroke-width="0.8" stroke-miterlimit="10"/>
        <path d="M94.2118 58.6684C94.1572 58.3398 93.6115 55.0537 93.179 52.7725C95.6178 54.2433 97.6032 56.0586 99.5596 58.2921C103.422 62.778 107.255 67.6821 108.897 73.5241C109.056 74.1624 109.199 74.749 109.358 75.3872C109.879 77.9265 106.01 78.7953 105.558 76.2887C105.468 75.8569 105.379 75.4251 105.238 75.0122C103.822 69.6673 100.198 65.2087 96.6956 61.1113C95.8722 60.1983 94.9651 59.3749 94.2118 58.6684Z" fill="black"/>
        <path d="M103.733 76.602C103.836 76.9095 103.198 77.3822 102.98 77.5803C101.336 78.9539 100.864 81.4436 100.841 82.8969C100.861 83.4668 100.791 85.4578 101.64 86.1187C103.422 87.5239 104.795 83.6528 105.259 82.4948C105.449 83.0585 105.483 83.161 105.535 83.3148C105.621 83.571 105.725 83.8785 105.811 84.1347C105.966 84.596 106.088 85.1276 106.243 85.5888C106.521 86.7545 106.699 87.9585 106.977 89.1242C107.185 89.912 107.48 91.129 108.36 91.3738C108.935 91.5605 109.505 91.0556 109.891 90.6786C109.891 90.6786 109.891 90.6786 109.941 90.6595C109.941 90.6595 111.775 92.2184 112.835 89.448C113.056 89.5956 113.344 89.7754 113.614 89.7311C114.642 89.5728 115.204 87.8579 115.434 87.0196C116.044 84.9399 116.262 82.3729 115.994 80.2213C115.728 78.4154 114.974 76.8519 113.649 75.6204C113.394 75.3702 113.156 75.1713 112.851 74.9403C112.613 74.7414 112.038 74.5548 111.902 74.3176C111.902 74.3176 112.136 73.9979 112.169 73.9276C112.352 73.627 112.519 73.2751 112.584 72.9615C112.713 72.1615 112.37 71.3094 111.625 70.9559C110.491 70.461 109.228 70.939 108.117 71.3596C106.804 71.8568 105.44 72.2001 104.11 72.646C100.085 73.8811 102.547 75.9533 103.021 76.1782C103.715 76.5508 103.664 76.397 103.733 76.602Z" fill="white" stroke="black" stroke-width="0.8" stroke-miterlimit="10"/>
        <path d="M109.092 82.7557C109.092 82.7557 110.58 87.4902 110.073 90.7643" stroke="black" stroke-width="0.8" stroke-miterlimit="10"/>
        <path d="M112.942 89.641C112.942 89.641 113.32 85.1397 112.531 82.2981" stroke="black" stroke-width="0.8" stroke-miterlimit="10"/>
        <path d="M107.587 83.236C107.653 83.0956 107.651 82.9229 107.516 82.8584C107.381 82.794 107.23 82.851 107.164 82.9915C107.098 83.1319 107.099 83.3046 107.235 83.369C107.319 83.4525 107.47 83.3955 107.587 83.236Z" fill="black" stroke="black" stroke-width="0.8" stroke-miterlimit="10"/>
        <path d="M110.996 82.2055C111.062 82.065 111.06 81.8924 110.925 81.8279C110.79 81.7635 110.639 81.8205 110.573 81.9609C110.507 82.1014 110.508 82.2741 110.643 82.3385C110.728 82.422 110.929 82.346 110.996 82.2055Z" fill="black" stroke="black" stroke-width="0.8" stroke-miterlimit="10"/>
        <path d="M114.212 81.5964C114.279 81.4559 114.277 81.2832 114.142 81.2188C114.007 81.1543 113.856 81.2114 113.79 81.3518C113.724 81.4923 113.725 81.6649 113.86 81.7294C113.995 81.7938 114.146 81.7368 114.212 81.5964Z" fill="black" stroke="black" stroke-width="0.8" stroke-miterlimit="10"/>
        <path d="M103.739 76.6169L105.269 76.1583" stroke="black" stroke-width="0.8" stroke-miterlimit="10"/>
        <path d="M110.445 74.8844L111.775 74.3337" stroke="black" stroke-width="0.8" stroke-miterlimit="10"/>
        <path d="M46.6574 56.5323C42.0659 59.4478 37.8316 63.2116 32.6789 65.0139C30.4342 65.8091 28.1385 66.1271 26.2509 65.0139C23.8021 63.5826 22.1696 60.9851 20.9452 58.3876C19.4657 55.26 18.5474 51.8673 17.4761 48.5807C16.6598 45.9832 12.6805 47.0964 13.4968 49.6939C15.5885 56.2672 17.4761 63.6886 23.1389 67.9825C28.5466 72.0643 35.3828 68.8837 40.4845 65.7561C43.2903 64.0067 45.9432 61.9393 48.7491 60.19C50.9938 58.8117 48.9021 55.101 46.6574 56.5323Z" fill="black"/>
        <path d="M20.4259 52.3976L19.9551 52.6073C24.6632 50.7203 22.7799 42.0543 20.5604 40.5167C17.5338 38.7696 17.5338 44.71 17.5338 44.71C17.5338 44.71 15.5832 41.2156 11.615 38.4201C6.90687 34.9956 7.78125 39.1889 7.78125 39.1889C7.78125 39.1889 5.96526 37.3718 4.01475 38.49C2.53506 39.6082 4.28378 41.2855 4.28378 41.2855C3.34216 40.8662 1.45892 40.2372 1.05537 41.6349C0.719077 42.9628 1.99699 44.1509 2.66958 44.9197C3.67846 46.0379 4.7546 47.0163 5.83074 47.9947C6.16703 48.2743 6.77236 48.6936 6.90688 49.1129C8.79012 55.6823 13.6327 55.3329 13.6327 55.3329C13.4982 55.9619 13.4982 57.0801 13.8345 57.4295C14.3053 57.9188 15.0452 58.0585 15.7178 57.8489C17.1302 57.3597 20.2241 56.1017 21.4348 55.1233C23.049 53.9352 20.4259 52.3976 20.4259 52.3976Z" fill="white" stroke="black" stroke-width="0.8" stroke-miterlimit="10"/>
        <path d="M7.78113 39.1887L13.0273 44.2206" stroke="black" stroke-width="0.8" stroke-miterlimit="10"/>
        <path d="M4.28381 41.2856L9.79904 46.5272" stroke="black" stroke-width="0.8" stroke-miterlimit="10"/>
        <path d="M8.52112 47.4357L13.5655 43.8015" stroke="black" stroke-width="0.8" stroke-miterlimit="10"/>
        <path d="M17.5338 44.7102L17.6683 45.7585C17.6683 45.7585 13.4311 45.479 13.9019 49.3927" stroke="black" stroke-width="0.8" stroke-miterlimit="10"/>
        <path d="M15.1125 54.634L13.5656 55.4727" stroke="black" stroke-width="0.8" stroke-miterlimit="10"/>
        <path d="M90.3354 81.8345L79.2377 68.638L78.5527 68.9882L82.782 85.9204L71.8087 88.8523L66.4859 66.9934L66.1551 65.6347L65.7235 66.9495L58.713 88.3061L48.0639 84.5318L55.1011 63.0935L55.5294 61.7889L54.4731 62.6431L37.2215 76.5936L30.334 67.3323L43.5641 56.5862L43.2257 55.8752L26.7573 59.3017L24.5484 47.7657L43.7466 43.8347L45.1574 43.5458L43.7859 43.0597L25.21 36.4761L28.8499 25.3873L47.3472 31.943L48.709 32.4257L47.7728 31.3058L34.9137 15.9231L43.4201 8.27163L54.4684 21.3626L55.1533 21.0133L51.001 4.10865L61.872 1.22803L67.3757 23.3374L67.7102 24.6813L68.1376 23.3793L75.2285 1.77755L85.8777 5.55181L78.8136 27.0718L78.3829 28.384L79.4426 27.5215L96.6172 13.5434L103.527 22.7249L90.2988 33.4696L90.6346 34.1811L107.156 30.8611L109.316 42.2912L90.0881 46.3031L88.6884 46.5951L90.0502 47.0778L108.469 53.6056L104.829 64.6945L86.3316 58.1387L84.96 57.6526L85.9069 58.7771L98.7932 74.0807L90.3354 81.8345Z" fill="#F96F6F" stroke="black" stroke-width="0.8"/>
        <path d="M47.7601 51.7074L53.0045 54.1816L61.8943 58.5484L57.7016 67.4549L37.9708 53.8933L47.7601 51.7074Z" fill="white"/>
        <path d="M84.9894 54.1385L70.7703 59.4009L71.9728 68.8256L92.8243 57.1342L84.9894 54.1385Z" fill="white"/>
        <path d="M47.7601 51.7074L53.0045 54.1816L61.8943 58.5484L57.7016 67.4549L37.9708 53.8933L47.7601 51.7074Z" stroke="black" stroke-width="0.8"/>
        <path d="M84.9894 54.1385L70.7703 59.4009L71.9728 68.8256L92.8243 57.1342L84.9894 54.1385Z" stroke="black" stroke-width="0.8"/>
        <path d="M61.4516 59.1717L70.2341 59.3187L65.9567 66.5348L69.8468 71.4264L68.4027 94.6611L64.7168 99.765L61.107 93.8334L61.9712 70.5365L65.9567 66.5348L61.4516 59.1717Z" fill="#5663F1"/>
        <path d="M65.9567 66.5348L70.2341 59.3187L61.4516 59.1717L65.9567 66.5348ZM65.9567 66.5348L61.9712 70.5365L61.107 93.8334L64.7168 99.765L68.4027 94.6611L69.8468 71.4264L65.9567 66.5348Z" stroke="black" stroke-width="0.8"/>
        <path d="M67.2246 43.0851C69.8475 43.2668 71.6836 42.0403 74.1317 42.1766C75.4869 42.2674 76.7984 42.5854 76.7984 44.0844C76.8421 46.8553 74.7437 48.6723 72.2082 49.7625C68.9295 51.1707 65.1262 51.0344 61.8912 49.5354C59.1371 48.2635 56.2955 46.174 56.9513 42.9034C57.2573 41.4044 58.5251 41.2227 59.8365 41.3135C62.2409 41.4952 64.8202 42.9488 67.2246 43.0851Z" fill="white" stroke="black" stroke-width="0.8" stroke-miterlimit="10"/>
        <path d="M62.6344 41.9497C62.2847 42.8128 61.8912 43.9938 61.7164 45.4474C61.4978 47.1281 61.6726 48.5363 61.8475 49.5357" stroke="black" stroke-width="0.8" stroke-miterlimit="10"/>
        <path d="M67.2245 43.0857C66.9185 43.9942 66.6562 45.2207 66.5687 46.6743C66.4813 48.355 66.6562 49.7177 66.9185 50.7625" stroke="black" stroke-width="0.8" stroke-miterlimit="10"/>
        <path d="M72.2081 42.313C71.9458 43.2669 71.6835 44.5842 71.6835 46.2195C71.6835 47.6731 71.9458 48.8996 72.2081 49.7627" stroke="black" stroke-width="0.8" stroke-miterlimit="10"/>
        <path d="M64.5629 36.5484C64.4292 37.5809 65.1409 38.5158 66.1412 38.6611C67.1416 38.8064 68.0417 38.0776 68.1753 37.0451C68.309 36.0126 67.5973 35.0776 66.597 34.9324C65.5966 34.7871 64.6965 35.5158 64.5629 36.5484Z" fill="#E30611" stroke="black" stroke-width="0.8" stroke-miterlimit="10"/>
        <path d="M62.1375 38.5061C60.5914 37.8912 58.6195 37.5947 56.5223 37.7387C56.2107 37.7515 55.8991 37.7644 55.5837 37.8222C54.0144 38.0212 52.5621 38.4139 51.4065 38.9736C50.881 37.286 50.5979 35.3516 50.5497 33.2604C50.5289 32.4418 50.5484 31.6728 50.6558 30.9131C50.8237 28.8897 51.2407 27.0737 51.8991 25.5551C52.955 22.9894 54.6035 21.302 56.4658 21.3149C56.5098 21.3195 56.5538 21.3241 56.5978 21.3287C58.8962 21.4325 60.9454 24.0047 61.9664 27.7395C62.3711 29.2784 62.6288 30.9834 62.6995 32.8049C62.692 32.8948 62.7285 32.9894 62.7211 33.0793C62.7328 35.0761 62.4918 36.9104 62.1375 38.5061Z" fill="white" stroke="black" stroke-width="0.8" stroke-miterlimit="10"/>
        <path d="M61.9641 27.7521C60.9033 23.9687 58.899 21.4017 56.6015 21.2979C55.3464 22.5272 54.5153 24.5261 54.4607 26.7875C54.4553 27.9205 54.6334 28.982 54.9544 29.9223L57.8728 28.9573L55.8679 31.7406C56.8186 33.1094 58.1622 34.0205 59.6683 34.0417C60.8189 34.0711 61.8749 33.6372 62.7849 32.8254C62.6263 30.9951 62.3686 29.2906 61.9641 27.7521Z" fill="black" stroke="black" stroke-width="0.8" stroke-miterlimit="10"/>
        <path d="M81.5836 38.5552L81.5799 38.6001L81.5761 38.6451C81.5724 38.6901 81.5687 38.735 81.5172 38.8203C81.3048 38.7075 81.0484 38.59 80.8322 38.5221C80.704 38.4634 80.5758 38.4046 80.4476 38.3459C79.2424 37.9027 77.8903 37.6255 76.4353 37.519C75.8636 37.4593 75.2845 37.4896 74.709 37.4749C74.6211 37.4657 74.5771 37.4611 74.4854 37.4969C73.1034 37.5794 71.8862 37.8151 70.786 38.2444C70.3889 36.6158 70.1863 34.7807 70.2111 32.8787C70.3123 26.3138 73.0983 21.0722 76.463 21.1513C78.3212 21.2092 79.9572 22.8764 81.0273 25.4823C81.1734 25.8603 81.3157 26.2833 81.4543 26.7512C81.4506 26.7962 81.4908 26.8457 81.4871 26.8907C81.5273 26.9402 81.5198 27.0301 81.5601 27.0797C81.5966 27.1742 81.5929 27.2192 81.6294 27.3137C81.6622 27.4531 81.6987 27.5476 81.7315 27.6871C81.7605 27.8715 81.8373 28.0156 81.8663 28.2C81.8954 28.3844 81.9244 28.5689 81.9975 28.7579C82.0884 29.2662 82.1792 29.7745 82.2262 30.2782C82.2552 30.4627 82.2843 30.6471 82.2731 30.782C82.2731 30.782 82.2731 30.782 82.2693 30.8269C82.2947 31.0563 82.3163 31.3306 82.3416 31.56C82.3706 31.7444 82.3557 31.9243 82.3408 32.1041C82.3296 32.239 82.3624 32.3784 82.3512 32.5133C82.3474 32.5583 82.3474 32.5583 82.3437 32.6032C82.3288 32.7831 82.3578 32.9675 82.3392 33.1923C82.3144 35.0943 82.0735 36.9284 81.5836 38.5552Z" fill="white" stroke="black" stroke-width="0.8" stroke-miterlimit="10"/>
        <path d="M81.6849 27.6978C80.7118 23.9231 78.7144 21.2658 76.4164 21.162C75.1171 22.3868 74.2456 24.3365 74.147 26.5936C74.0977 27.7221 74.2757 28.7837 74.5529 29.7196L77.369 28.9252L75.3786 31.529C76.2819 32.9384 77.6257 33.8496 79.1284 33.9157C80.2755 33.9901 81.3757 33.5608 82.2859 32.7488C82.2995 30.9817 82.0895 29.2365 81.6849 27.6978Z" fill="black" stroke="black" stroke-width="0.8" stroke-miterlimit="10"/>
    </g>
    <defs>
        <clipPath id="clip0_755_8106">
            <rect width="117" height="121" fill="white"/>
        </clipPath>
    </defs>
</svg>
