<svg width="133" height="121" viewBox="0 0 133 121" fill="none" xmlns="http://www.w3.org/2000/svg">
<g clip-path="url(#clip0_3_36142)">
<path d="M104.899 63.2263C104.839 62.862 104.234 59.2192 103.754 56.6903C106.458 58.3208 108.659 60.3332 110.827 62.8092C115.109 67.7821 119.358 73.2186 121.178 79.6948C121.355 80.4023 121.513 81.0526 121.69 81.7602C122.267 84.5751 117.978 85.5382 117.477 82.7594C117.378 82.2808 117.278 81.8021 117.123 81.3444C115.553 75.4192 111.535 70.4766 107.653 65.9344C106.74 64.9223 105.734 64.0095 104.899 63.2263Z" fill="black"/>
<path d="M115.454 83.1074C115.568 83.4483 114.861 83.9723 114.619 84.1919C112.797 85.7147 112.274 88.4746 112.248 90.0857C112.271 90.7174 112.193 92.9245 113.133 93.6572C115.109 95.2149 116.631 90.9236 117.146 89.6399C117.356 90.2648 117.394 90.3785 117.452 90.5489C117.547 90.833 117.662 91.1738 117.758 91.4579C117.93 91.9692 118.065 92.5585 118.237 93.0698C118.545 94.3621 118.742 95.6967 119.05 96.989C119.281 97.8624 119.608 99.2114 120.583 99.4828C121.22 99.6897 121.853 99.1301 122.28 98.7121C122.28 98.7121 122.28 98.7121 122.336 98.6909C122.336 98.6909 124.369 100.419 125.544 97.348C125.789 97.5116 126.108 97.7109 126.407 97.6617C127.547 97.4863 128.17 95.5852 128.425 94.6559C129.101 92.3504 129.343 89.5048 129.046 87.1196C128.751 85.1176 127.915 83.3844 126.447 82.0192C126.164 81.7419 125.9 81.5214 125.562 81.2653C125.298 81.0449 124.661 80.8379 124.509 80.5751C124.509 80.5751 124.769 80.2206 124.806 80.1426C125.009 79.8094 125.193 79.4194 125.266 79.0717C125.409 78.1848 125.028 77.2402 124.203 76.8484C122.945 76.2997 121.546 76.8296 120.314 77.2959C118.859 77.847 117.346 78.2277 115.872 78.7219C111.41 80.0911 114.139 82.3883 114.665 82.6376C115.435 83.0506 115.377 82.8801 115.454 83.1074Z" fill="white" stroke="black" stroke-width="0.8" stroke-miterlimit="10"/>
<path d="M121.394 89.9291C121.394 89.9291 123.044 95.1775 122.482 98.807" stroke="black" stroke-width="0.8" stroke-miterlimit="10"/>
<path d="M125.662 97.5619C125.662 97.5619 126.081 92.572 125.207 89.4219" stroke="black" stroke-width="0.8" stroke-miterlimit="10"/>
<path d="M119.726 90.4617C119.799 90.306 119.798 90.1145 119.648 90.0431C119.498 89.9717 119.331 90.0349 119.257 90.1906C119.184 90.3463 119.186 90.5377 119.336 90.6091C119.43 90.7016 119.597 90.6384 119.726 90.4617Z" fill="black" stroke="black" stroke-width="0.8" stroke-miterlimit="10"/>
<path d="M123.505 89.3191C123.578 89.1634 123.576 88.972 123.427 88.9005C123.277 88.8291 123.109 88.8923 123.036 89.048C122.963 89.2037 122.965 89.3951 123.114 89.4666C123.209 89.5591 123.432 89.4748 123.505 89.3191Z" fill="black" stroke="black" stroke-width="0.8" stroke-miterlimit="10"/>
<path d="M127.071 88.6438C127.144 88.4881 127.143 88.2967 126.993 88.2252C126.843 88.1538 126.675 88.217 126.602 88.3727C126.529 88.5284 126.531 88.7198 126.68 88.7913C126.83 88.8627 126.998 88.7995 127.071 88.6438Z" fill="black" stroke="black" stroke-width="0.8" stroke-miterlimit="10"/>
<path d="M115.46 83.1235L117.157 82.6151" stroke="black" stroke-width="0.8" stroke-miterlimit="10"/>
<path d="M122.895 81.2035L124.369 80.593" stroke="black" stroke-width="0.8" stroke-miterlimit="10"/>
<path d="M89.772 108.788C89.9536 111.367 86.9265 112.248 85.5341 110.864C85.1708 110.486 84.9287 109.983 84.9287 109.354C84.6865 105.516 81.0348 92.3824 79.7634 88.7967C79.6424 88.545 79.5818 88.2305 79.4607 87.9789C81.2164 87.6014 82.7905 87.224 84.2435 86.7207C85.8175 90.621 89.4693 104.195 89.772 108.284C89.772 108.41 89.772 108.599 89.772 108.788Z" fill="black" stroke="black" stroke-width="0.8" stroke-miterlimit="10"/>
<path d="M88.3352 119.9L88.5171 118.335L89.7901 119.9L106.309 119.917L106.521 116.318L80.5761 116.058L80.4549 119.83L88.3352 119.9Z" fill="black" stroke="black" stroke-width="0.8" stroke-miterlimit="10"/>
<path d="M92.9422 105.066C96.8521 105.759 104.945 108.216 106.521 116.562L80.5458 116.121L80.5155 108.216C84.7891 109.57 90.1235 108.657 92.9422 105.066Z" fill="#ACBFFF" stroke="black" stroke-width="0.8" stroke-miterlimit="10"/>
<path d="M98.0039 106.326L93.3363 110.168" stroke="black" stroke-width="0.8" stroke-miterlimit="10"/>
<path d="M100.398 107.586L95.7004 111.46" stroke="black" stroke-width="0.8" stroke-miterlimit="10"/>
<path d="M63.1147 109.975C62.7463 112.534 59.6015 112.754 58.5335 111.107C58.2583 110.661 58.1282 110.118 58.2613 109.503C58.8368 105.702 58.0475 92.0922 57.5638 88.3186C57.4987 88.047 57.5061 87.7268 57.441 87.4553C59.2368 87.458 60.8551 87.4222 62.3817 87.2379C63.0946 91.3829 63.7907 105.423 63.2212 109.483C63.1946 109.606 63.1546 109.79 63.1147 109.975Z" fill="black" stroke="black" stroke-width="0.8" stroke-miterlimit="10"/>
<path d="M61.3829 119.896L61.6255 118.354L62.8742 119.896L79.8056 119.904L80.1521 116.358L53.5673 116.114L53.3078 119.832L61.3829 119.896Z" fill="black" stroke="black" stroke-width="0.8" stroke-miterlimit="10"/>
<path d="M66.6344 105.37C70.6075 106.047 78.7937 108.455 80.1024 116.661L53.5566 116.254L53.8126 108.48C58.1336 109.808 63.6216 108.904 66.6344 105.37Z" fill="#ACBFFF" stroke="black" stroke-width="0.8" stroke-miterlimit="10"/>
<path d="M71.7655 106.633L66.8618 110.41" stroke="black" stroke-width="0.8" stroke-miterlimit="10"/>
<path d="M74.1796 107.86L69.2438 111.668" stroke="black" stroke-width="0.8" stroke-miterlimit="10"/>
<path d="M51.0738 64.1846C45.9839 67.4167 41.2898 71.589 35.5778 73.587C33.0894 74.4685 30.5445 74.8211 28.4519 73.587C25.7373 72.0004 23.9276 69.1209 22.5703 66.2414C20.9302 62.7743 19.9122 59.0133 18.7245 55.3699C17.8197 52.4904 13.4084 53.7244 14.3133 56.6039C16.632 63.8908 18.7246 72.1179 25.0021 76.8779C30.9969 81.4028 38.5752 77.8769 44.2307 74.4097C47.3412 72.4705 50.282 70.1787 53.3925 68.2394C55.8809 66.7115 53.5622 62.598 51.0738 64.1846Z" fill="black"/>
<path d="M21.9946 59.6016L21.4727 59.834C26.6919 57.7422 24.6042 48.1354 22.1437 46.4309C18.7885 44.4941 18.7885 51.0794 18.7885 51.0794C18.7885 51.0794 16.6262 47.2057 12.2272 44.1067C7.00795 40.3104 7.97725 44.9589 7.97725 44.9589C7.97725 44.9589 5.96412 42.9446 3.80187 44.1842C2.16154 45.4238 4.10011 47.2832 4.10011 47.2832C3.05626 46.8183 0.968582 46.121 0.521221 47.6705C0.148419 49.1425 1.56506 50.4596 2.31066 51.3118C3.42907 52.5514 4.62203 53.6361 5.81499 54.7207C6.1878 55.0306 6.85884 55.4954 7.00796 55.9603C9.09565 63.2429 14.464 62.8555 14.464 62.8555C14.3149 63.5528 14.3149 64.7924 14.6877 65.1798C15.2096 65.7221 16.0298 65.877 16.7754 65.6446C18.3411 65.1023 21.7709 63.7078 23.113 62.6231C24.9024 61.306 21.9946 59.6016 21.9946 59.6016Z" fill="white" stroke="black" stroke-width="0.8" stroke-miterlimit="10"/>
<path d="M7.97717 44.959L13.7929 50.5372" stroke="black" stroke-width="0.8" stroke-miterlimit="10"/>
<path d="M4.10022 47.2832L10.2142 53.0938" stroke="black" stroke-width="0.8" stroke-miterlimit="10"/>
<path d="M8.79736 54.1009L14.3894 50.0723" stroke="black" stroke-width="0.8" stroke-miterlimit="10"/>
<path d="M18.7885 51.0791L18.9376 52.2412C18.9376 52.2412 14.2404 51.9313 14.7623 56.2699" stroke="black" stroke-width="0.8" stroke-miterlimit="10"/>
<path d="M16.1044 62.0806L14.3895 63.0103" stroke="black" stroke-width="0.8" stroke-miterlimit="10"/>
<path d="M98.866 85.3955L87.3741 71.7302L86.6891 72.0805L91.0684 89.6131L79.6879 92.6539L74.1772 70.0227L73.8463 68.664L73.4147 69.9789L66.1568 92.0893L55.1121 88.1749L62.3978 65.9799L62.8261 64.6753L61.7697 65.5294L43.9088 79.9727L36.7657 70.3677L50.465 59.2405L50.1266 58.5295L33.0732 62.0777L30.7825 50.1141L50.6596 46.0441L52.0704 45.7552L50.6988 45.2691L31.4656 38.4525L35.2405 26.9527L54.3923 33.7405L55.7542 34.2231L54.818 33.1032L41.5041 17.1765L50.3259 9.2414L61.7666 22.7973L62.4515 22.4481L58.1519 4.94383L69.4264 1.95628L75.1244 24.8464L75.459 26.1903L75.8864 24.8883L83.2276 2.52417L94.2722 6.4386L86.9588 28.7181L86.5281 30.0303L87.5878 29.1678L105.369 14.696L112.536 24.2184L98.838 35.3441L99.1738 36.0556L116.282 32.6178L118.522 44.4717L98.6142 48.6254L97.2146 48.9175L98.5764 49.4001L117.647 56.159L113.872 67.6588L94.7202 60.871L93.3486 60.3849L94.2955 61.5094L107.637 77.3542L98.866 85.3955Z" fill="#F96F6F" stroke="black" stroke-width="0.8"/>
<path d="M72.8846 45.2822C75.5985 45.4702 77.4983 44.2012 80.0313 44.3422C81.4335 44.4362 82.7904 44.7652 82.7904 46.3162C82.8357 49.1832 80.6645 51.0632 78.0411 52.1912C74.6486 53.6483 70.7134 53.5073 67.3662 51.9562C64.5166 50.6402 61.5765 48.4782 62.255 45.0942C62.5716 43.5432 63.8833 43.3552 65.2403 43.4492C67.7281 43.6372 70.3968 45.1412 72.8846 45.2822Z" fill="white" stroke="black" stroke-width="0.8" stroke-miterlimit="10"/>
<path d="M68.1351 44.1074C67.7733 45.0004 67.3662 46.2224 67.1853 47.7264C66.9591 49.4655 67.14 50.9225 67.3209 51.9565" stroke="black" stroke-width="0.8" stroke-miterlimit="10"/>
<path d="M72.8845 45.2822C72.5679 46.2222 72.2965 47.4912 72.206 48.9952C72.1156 50.7343 72.2965 52.1443 72.5679 53.2253" stroke="black" stroke-width="0.8" stroke-miterlimit="10"/>
<path d="M78.041 44.4834C77.7696 45.4704 77.4982 46.8334 77.4982 48.5254C77.4982 50.0294 77.7696 51.2984 78.041 52.1914" stroke="black" stroke-width="0.8" stroke-miterlimit="10"/>
<path d="M70.131 38.5193C69.9927 39.5877 70.729 40.555 71.7641 40.7053C72.7992 40.8556 73.7305 40.1016 73.8688 39.0333C74.0071 37.965 73.2707 36.9976 72.2357 36.8473C71.2006 36.697 70.2693 37.451 70.131 38.5193Z" fill="#E30611" stroke="black" stroke-width="0.8" stroke-miterlimit="10"/>
<path d="M67.6217 40.5445C66.022 39.9083 63.9817 39.6015 61.8118 39.7505C61.4894 39.7638 61.1669 39.777 60.8406 39.8368C59.2169 40.0428 57.7142 40.4491 56.5185 41.0282C55.9749 39.2821 55.6819 37.2806 55.632 35.1168C55.6105 34.2699 55.6306 33.4742 55.7418 32.6881C55.9156 30.5946 56.3469 28.7156 57.0282 27.1443C58.1208 24.4897 59.8264 22.7437 61.7533 22.7571C61.7989 22.7618 61.8444 22.7666 61.8899 22.7713C64.268 22.8787 66.3883 25.5402 67.4447 29.4045C67.8634 30.9968 68.1301 32.7609 68.2032 34.6456C68.1955 34.7386 68.2333 34.8364 68.2255 34.9295C68.2377 36.9955 67.9883 38.8934 67.6217 40.5445Z" fill="white" stroke="black" stroke-width="0.8" stroke-miterlimit="10"/>
<path d="M67.4421 29.4183C66.3445 25.5037 64.2706 22.8476 61.8934 22.7403C60.5949 24.0121 59.7349 26.0804 59.6784 28.4203C59.6729 29.5925 59.857 30.6908 60.1893 31.6638L63.2088 30.6653L61.1344 33.5452C62.1181 34.9614 63.5083 35.9041 65.0666 35.926C66.2571 35.9564 67.3497 35.5075 68.2913 34.6675C68.1272 32.7738 67.8606 31.0101 67.4421 29.4183Z" fill="black" stroke="black" stroke-width="0.8" stroke-miterlimit="10"/>
<path d="M87.742 40.5951L87.7381 40.6416L87.7343 40.6882C87.7304 40.7347 87.7265 40.7812 87.6733 40.8695C87.4535 40.7527 87.1882 40.6312 86.9646 40.5609C86.8319 40.5001 86.6993 40.4394 86.5666 40.3786C85.3196 39.92 83.9206 39.6332 82.4151 39.523C81.8236 39.4613 81.2244 39.4926 80.629 39.4773C80.538 39.4678 80.4925 39.4631 80.3976 39.5001C78.9677 39.5855 77.7083 39.8294 76.5699 40.2736C76.159 38.5885 75.9494 36.6898 75.975 34.7218C76.0798 27.9292 78.9624 22.5058 82.4438 22.5876C84.3664 22.6475 86.0591 24.3726 87.1664 27.0688C87.3175 27.4599 87.4648 27.8976 87.6082 28.3818C87.6043 28.4283 87.646 28.4796 87.6421 28.5261C87.6837 28.5773 87.676 28.6704 87.7177 28.7217C87.7554 28.8194 87.7516 28.866 87.7894 28.9637C87.8233 29.108 87.8611 29.2058 87.895 29.3501C87.925 29.5409 88.0045 29.69 88.0345 29.8808C88.0646 30.0716 88.0946 30.2625 88.1702 30.458C88.2643 30.984 88.3583 31.5099 88.4068 32.0311C88.4369 32.2219 88.467 32.4128 88.4554 32.5523C88.4554 32.5523 88.4554 32.5523 88.4515 32.5988C88.4777 32.8362 88.5 33.12 88.5262 33.3574C88.5563 33.5482 88.5409 33.7342 88.5254 33.9203C88.5138 34.0599 88.5478 34.2042 88.5362 34.3437C88.5323 34.3902 88.5323 34.3902 88.5285 34.4368C88.513 34.6228 88.5431 34.8137 88.5238 35.0462C88.4981 37.0142 88.2488 38.912 87.742 40.5951Z" fill="white" stroke="black" stroke-width="0.8" stroke-miterlimit="10"/>
<path d="M87.8468 29.3613C86.84 25.4557 84.7733 22.7063 82.3956 22.5988C81.0513 23.8661 80.1495 25.8834 80.0475 28.2188C79.9964 29.3865 80.1807 30.4849 80.4675 31.4533L83.3813 30.6313L81.3218 33.3254C82.2564 34.7837 83.6469 35.7264 85.2017 35.7949C86.3886 35.8719 87.527 35.4276 88.4687 34.5875C88.4828 32.7591 88.2654 30.9534 87.8468 29.3613Z" fill="black" stroke="black" stroke-width="0.8" stroke-miterlimit="10"/>
<path d="M54.8151 54.2031L60.2414 56.7632L69.4395 61.2814L65.1014 70.4968L44.6863 56.4649L54.8151 54.2031Z" fill="white"/>
<path d="M93.3356 56.7186L78.6234 62.1635L79.8676 71.915L101.442 59.8182L93.3356 56.7186Z" fill="white"/>
<path d="M54.8151 54.2031L60.2414 56.7632L69.4395 61.2814L65.1014 70.4968L44.6863 56.4649L54.8151 54.2031Z" stroke="black" stroke-width="0.8"/>
<path d="M93.3356 56.7186L78.6234 62.1635L79.8676 71.915L101.442 59.8182L93.3356 56.7186Z" stroke="black" stroke-width="0.8"/>
<path d="M68.9814 61.927L78.0684 62.079L73.6428 69.5455L77.6677 74.6066L76.1736 98.6471L72.3598 103.928L68.6248 97.7908L69.5191 73.6859L73.6428 69.5455L68.9814 61.927Z" fill="#5663F1"/>
<path d="M73.6428 69.5455L78.0684 62.079L68.9814 61.927L73.6428 69.5455ZM73.6428 69.5455L69.5191 73.6859L68.6248 97.7908L72.3598 103.928L76.1736 98.6471L77.6677 74.6066L73.6428 69.5455Z" stroke="black" stroke-width="0.8"/>
</g>
<defs>
<clipPath id="clip0_3_36142">
<rect width="131.977" height="120" fill="white" transform="translate(0.345703 0.241699)"/>
</clipPath>
</defs>
</svg>
