<svg width="117" height="121" viewBox="0 0 117 121" fill="none" xmlns="http://www.w3.org/2000/svg">
    <g clip-path="url(#clip0_755_7931)">
        <path d="M79.3485 81.8603C78.9467 82.3921 78.6213 82.981 78.229 83.5793C77.2816 85.0705 70.3586 94.5159 69.4303 96.1402C66.9801 100.491 64.5201 105.25 62.9112 109.278C62.8059 109.497 62.691 109.649 62.5857 109.867C61.0549 112.052 57.005 110.449 58.1159 107.713C58.2117 107.428 58.317 107.209 58.4128 106.924C60.0407 103.029 61.8504 98.9722 63.8987 95.1535C64.7027 93.6146 65.5737 92.0663 66.4541 90.5846C67.2198 89.2547 74.0375 80.0279 74.9464 78.7458C75.0038 78.6698 75.0612 78.5938 75.1186 78.5179L75.0897 78.7935C75.2519 78.9743 78.5177 81.2983 79.3485 81.8603Z" fill="black" stroke="black" stroke-width="0.8" stroke-miterlimit="10"/>
        <path d="M59.1855 120.262L59.0037 118.707L57.7307 120.262L41.2122 120.279L41 116.704L66.9447 116.445L67.0659 120.193L59.1855 120.262Z" fill="black" stroke="black" stroke-width="0.8" stroke-miterlimit="10"/>
        <path d="M54.5785 105.528C50.6686 106.216 42.5761 108.656 41 116.946L66.975 116.508L67.0053 108.656C62.7317 110.001 57.3973 109.094 54.5785 105.528Z" fill="#ACBFFF" stroke="black" stroke-width="0.8" stroke-miterlimit="10"/>
        <path d="M49.5169 106.779L54.1845 110.596" stroke="black" stroke-width="0.8" stroke-miterlimit="10"/>
        <path d="M47.1224 108.03L51.8203 111.878" stroke="black" stroke-width="0.8" stroke-miterlimit="10"/>
        <path d="M79.2911 103.898C79.1559 103.898 79.0884 103.898 78.9532 103.898C74.8994 103.764 70.8456 102.957 66.8594 101.814C66.454 101.68 66.0486 101.545 65.6433 101.411C64.3596 101.008 63.1434 100.604 61.9273 100.201C61.5219 100.066 61.1165 99.9321 60.7112 99.7976C60.576 99.7304 60.4409 99.7304 60.3058 99.6632C55.5763 97.8482 51.5901 94.5544 51.1847 89.1767C50.982 85.8157 52.1982 82.9925 54.2251 80.5725C55.4412 81.8497 56.6574 82.9925 57.7384 84.068C56.9952 85.0763 56.4547 86.219 56.252 87.429C55.3736 92.0672 59.6977 94.2183 63.4137 95.4955C63.8191 95.6299 64.2245 95.7644 64.5623 95.8988C64.6298 95.8988 64.765 95.966 64.8325 95.966C66.1838 96.3694 67.5351 96.8399 68.9539 97.176C69.2917 97.2432 69.6295 97.3777 69.9673 97.4449C72.8726 98.2515 75.9129 98.7893 78.8857 98.9237C79.3586 98.9237 79.764 99.0582 80.1018 99.2598C82.2638 100.403 81.9936 103.965 79.2911 103.898Z" fill="black" stroke="black" stroke-width="0.8" stroke-miterlimit="10"/>
        <path d="M87.8505 101.488L86.3479 101.958L88.1241 102.908L91.247 119.019L87.7524 119.899L82.618 94.6363L86.3005 93.8134L87.8505 101.488Z" fill="black" stroke="black" stroke-width="0.8" stroke-miterlimit="10"/>
        <path d="M74.1478 108.753C75.5634 112.438 79.4978 119.874 87.9911 119.853L82.6741 94.5949L74.9044 96.0417C77.038 99.958 77.144 105.333 74.1478 108.753Z" fill="#ACBFFF" stroke="black" stroke-width="0.8" stroke-miterlimit="10"/>
        <path d="M76.337 113.456L79.2331 108.185" stroke="black" stroke-width="0.8" stroke-miterlimit="10"/>
        <path d="M78.0243 115.556L80.9456 110.25" stroke="black" stroke-width="0.8" stroke-miterlimit="10"/>
        <path d="M94.2117 61.6684C94.1571 61.3398 93.6114 58.0537 93.1788 55.7725C95.6176 57.2433 97.6031 59.0586 99.5595 61.2921C103.422 65.778 107.255 70.6821 108.897 76.5241C109.056 77.1624 109.199 77.749 109.358 78.3872C109.879 80.9265 106.01 81.7953 105.558 79.2887C105.468 78.8569 105.379 78.4251 105.238 78.0122C103.822 72.6673 100.198 68.2087 96.6955 64.1113C95.8721 63.1983 94.965 62.3749 94.2117 61.6684Z" fill="black"/>
        <path d="M103.732 79.602C103.836 79.9095 103.198 80.3822 102.98 80.5803C101.336 81.9539 100.864 84.4436 100.84 85.8969C100.861 86.4668 100.791 88.4578 101.639 89.1187C103.421 90.5239 104.795 86.6528 105.259 85.4948C105.449 86.0585 105.483 86.161 105.535 86.3148C105.621 86.571 105.725 86.8785 105.811 87.1347C105.966 87.596 106.088 88.1276 106.243 88.5888C106.521 89.7545 106.698 90.9585 106.977 92.1242C107.185 92.912 107.48 94.129 108.359 94.3738C108.935 94.5605 109.505 94.0556 109.89 93.6786C109.89 93.6786 109.89 93.6786 109.941 93.6595C109.941 93.6595 111.774 95.2184 112.835 92.448C113.055 92.5956 113.344 92.7754 113.613 92.7311C114.642 92.5728 115.203 90.8579 115.434 90.0196C116.043 87.9399 116.262 85.3729 115.993 83.2213C115.727 81.4154 114.974 79.8519 113.649 78.6204C113.394 78.3702 113.156 78.1713 112.851 77.9403C112.613 77.7414 112.038 77.5548 111.901 77.3176C111.901 77.3176 112.135 76.9979 112.169 76.9276C112.352 76.627 112.518 76.2751 112.584 75.9615C112.713 75.1615 112.37 74.3094 111.625 73.9559C110.49 73.461 109.228 73.939 108.117 74.3596C106.804 74.8568 105.44 75.2001 104.11 75.646C100.085 76.8811 102.547 78.9533 103.021 79.1782C103.715 79.5508 103.663 79.397 103.732 79.602Z" fill="white" stroke="black" stroke-width="0.8" stroke-miterlimit="10"/>
        <path d="M109.091 85.7557C109.091 85.7557 110.58 90.4902 110.073 93.7643" stroke="black" stroke-width="0.8" stroke-miterlimit="10"/>
        <path d="M112.942 92.641C112.942 92.641 113.319 88.1397 112.531 85.2981" stroke="black" stroke-width="0.8" stroke-miterlimit="10"/>
        <path d="M107.587 86.236C107.653 86.0956 107.651 85.9229 107.516 85.8584C107.381 85.794 107.23 85.851 107.164 85.9915C107.098 86.1319 107.099 86.3046 107.234 86.369C107.319 86.4525 107.47 86.3955 107.587 86.236Z" fill="black" stroke="black" stroke-width="0.8" stroke-miterlimit="10"/>
        <path d="M110.995 85.2055C111.061 85.065 111.06 84.8924 110.925 84.8279C110.79 84.7635 110.639 84.8205 110.573 84.9609C110.506 85.1014 110.508 85.2741 110.643 85.3385C110.728 85.422 110.929 85.346 110.995 85.2055Z" fill="black" stroke="black" stroke-width="0.8" stroke-miterlimit="10"/>
        <path d="M114.212 84.5964C114.278 84.4559 114.277 84.2832 114.142 84.2188C114.006 84.1543 113.856 84.2114 113.789 84.3518C113.723 84.4923 113.725 84.6649 113.86 84.7294C113.995 84.7938 114.146 84.7368 114.212 84.5964Z" fill="black" stroke="black" stroke-width="0.8" stroke-miterlimit="10"/>
        <path d="M103.738 79.6169L105.269 79.1583" stroke="black" stroke-width="0.8" stroke-miterlimit="10"/>
        <path d="M110.445 77.8844L111.775 77.3337" stroke="black" stroke-width="0.8" stroke-miterlimit="10"/>
        <path d="M46.6574 59.5323C42.0659 62.4478 37.8315 66.2116 32.6789 68.0139C30.4342 68.8091 28.1384 69.1271 26.2508 68.0139C23.802 66.5826 22.1695 63.9851 20.9451 61.3876C19.4657 58.26 18.5474 54.8673 17.476 51.5807C16.6598 48.9832 12.6805 50.0964 13.4967 52.6939C15.5884 59.2672 17.476 66.6886 23.1388 70.9825C28.5466 75.0643 35.3828 71.8837 40.4844 68.7561C43.2903 67.0067 45.9431 64.9393 48.749 63.19C50.9937 61.8117 48.9021 58.101 46.6574 59.5323Z" fill="black"/>
        <path d="M20.4259 55.3976L19.9551 55.6073C24.6632 53.7203 22.7799 45.0543 20.5604 43.5167C17.5338 41.7696 17.5338 47.71 17.5338 47.71C17.5338 47.71 15.5832 44.2156 11.615 41.4201C6.90687 37.9956 7.78125 42.1889 7.78125 42.1889C7.78125 42.1889 5.96526 40.3718 4.01475 41.49C2.53506 42.6082 4.28378 44.2855 4.28378 44.2855C3.34216 43.8662 1.45892 43.2372 1.05537 44.6349C0.719077 45.9628 1.99699 47.1509 2.66958 47.9197C3.67846 49.0379 4.7546 50.0163 5.83074 50.9947C6.16703 51.2743 6.77236 51.6936 6.90688 52.1129C8.79012 58.6823 13.6327 58.3329 13.6327 58.3329C13.4982 58.9619 13.4982 60.0801 13.8345 60.4295C14.3053 60.9188 15.0452 61.0585 15.7178 60.8489C17.1302 60.3597 20.2241 59.1017 21.4348 58.1233C23.049 56.9352 20.4259 55.3976 20.4259 55.3976Z" fill="white" stroke="black" stroke-width="0.8" stroke-miterlimit="10"/>
        <path d="M7.78116 42.1887L13.0273 47.2206" stroke="black" stroke-width="0.8" stroke-miterlimit="10"/>
        <path d="M4.28381 44.2856L9.79904 49.5272" stroke="black" stroke-width="0.8" stroke-miterlimit="10"/>
        <path d="M8.52112 50.4357L13.5655 46.8015" stroke="black" stroke-width="0.8" stroke-miterlimit="10"/>
        <path d="M17.5338 47.7102L17.6683 48.7585C17.6683 48.7585 13.431 48.479 13.9018 52.3927" stroke="black" stroke-width="0.8" stroke-miterlimit="10"/>
        <path d="M15.1125 57.634L13.5656 58.4727" stroke="black" stroke-width="0.8" stroke-miterlimit="10"/>
        <path d="M90.3354 84.8345L79.2376 71.638L78.5527 71.9882L82.7819 88.9204L71.8087 91.8523L66.4859 69.9934L66.1551 68.6347L65.7234 69.9495L58.713 91.3061L48.0639 87.5318L55.1011 66.0935L55.5294 64.7889L54.473 65.6431L37.2215 79.5936L30.3339 70.3323L43.564 59.5862L43.2257 58.8752L26.7573 62.3017L24.5484 50.7657L43.7466 46.8347L45.1574 46.5458L43.7858 46.0597L25.2099 39.4761L28.8499 28.3873L47.3472 34.943L48.709 35.4257L47.7728 34.3058L34.9137 18.9231L43.4201 11.2716L54.4684 24.3626L55.1533 24.0133L51.001 7.10865L61.8719 4.22803L67.3756 26.3374L67.7102 27.6813L68.1376 26.3793L75.2285 4.77755L85.8776 8.55181L78.8136 30.0718L78.3828 31.384L79.4426 30.5215L96.6172 16.5434L103.527 25.7249L90.2988 36.4696L90.6346 37.1811L107.156 33.8611L109.316 45.2912L90.0881 49.3031L88.6884 49.5951L90.0502 50.0778L108.469 56.6056L104.829 67.6945L86.3316 61.1387L84.96 60.6526L85.9069 61.7771L98.7932 77.0807L90.3354 84.8345Z" fill="#F96F6F" stroke="black" stroke-width="0.8"/>
        <path d="M64.0935 46.0851C61.4706 46.2668 59.6345 45.0403 57.1864 45.1766C55.8312 45.2674 54.5197 45.5854 54.5197 47.0844C54.476 49.8553 56.5744 51.6723 59.1099 52.7625C62.3886 54.1707 66.1919 54.0344 69.4269 52.5354C72.181 51.2635 75.0226 49.174 74.3668 45.9034C74.0608 44.4044 72.7931 44.2227 71.4816 44.3135C69.0772 44.4952 66.4979 45.9488 64.0935 46.0851Z" fill="white" stroke="black" stroke-width="0.8" stroke-miterlimit="10"/>
        <path d="M68.6837 44.9497C69.0334 45.8128 69.4269 46.9938 69.6018 48.4474C69.8203 50.1281 69.6455 51.5363 69.4706 52.5357" stroke="black" stroke-width="0.8" stroke-miterlimit="10"/>
        <path d="M64.0936 46.0857C64.3996 46.9942 64.6619 48.2207 64.7493 49.6743C64.8368 51.355 64.6619 52.7177 64.3996 53.7625" stroke="black" stroke-width="0.8" stroke-miterlimit="10"/>
        <path d="M59.1099 45.313C59.3722 46.2669 59.6345 47.5842 59.6345 49.2195C59.6345 50.6731 59.3722 51.8996 59.1099 52.7627" stroke="black" stroke-width="0.8" stroke-miterlimit="10"/>
        <path d="M66.7553 39.5484C66.8889 40.5809 66.1773 41.5158 65.1769 41.6611C64.1765 41.8064 63.2764 41.0776 63.1428 40.0451C63.0091 39.0126 63.7208 38.0776 64.7212 37.9324C65.7215 37.7871 66.6216 38.5158 66.7553 39.5484Z" fill="#E30611" stroke="black" stroke-width="0.8" stroke-miterlimit="10"/>
        <path d="M69.1807 41.5061C70.7269 40.8912 72.6988 40.5947 74.7959 40.7387C75.1075 40.7515 75.4192 40.7644 75.7345 40.8222C77.3039 41.0212 78.7562 41.4139 79.9118 41.9736C80.4372 40.286 80.7203 38.3516 80.7686 36.2604C80.7894 35.4418 80.7699 34.6728 80.6625 33.9131C80.4945 31.8897 80.0776 30.0737 79.4192 28.5551C78.3633 25.9894 76.7147 24.302 74.8524 24.3149C74.8084 24.3195 74.7645 24.3241 74.7205 24.3287C72.422 24.4325 70.3729 27.0047 69.3519 30.7395C68.9472 32.2784 68.6894 33.9834 68.6188 35.8049C68.6263 35.8948 68.5897 35.9894 68.5972 36.0793C68.5855 38.0761 68.8265 39.9104 69.1807 41.5061Z" fill="white" stroke="black" stroke-width="0.8" stroke-miterlimit="10"/>
        <path d="M69.3541 30.7521C70.4149 26.9687 72.4192 24.4017 74.7167 24.2979C75.9718 25.5272 76.8029 27.5261 76.8575 29.7875C76.8629 30.9205 76.6849 31.982 76.3638 32.9223L73.4454 31.9573L75.4503 34.7406C74.4996 36.1094 73.156 37.0205 71.65 37.0417C70.4993 37.0711 69.4433 36.6372 68.5333 35.8254C68.6919 33.9951 68.9496 32.2906 69.3541 30.7521Z" fill="black" stroke="black" stroke-width="0.8" stroke-miterlimit="10"/>
        <path d="M49.7346 41.5552L49.7383 41.6001L49.742 41.6451C49.7458 41.6901 49.7495 41.735 49.8009 41.8203C50.0134 41.7075 50.2698 41.59 50.4859 41.5221C50.6141 41.4634 50.7423 41.4046 50.8705 41.3459C52.0758 40.9027 53.4279 40.6255 54.8829 40.519C55.4546 40.4593 56.0337 40.4896 56.6092 40.4749C56.6971 40.4657 56.7411 40.4611 56.8328 40.4969C58.2147 40.5794 59.432 40.8151 60.5322 41.2444C60.9293 39.6158 61.1319 37.7807 61.1071 35.8787C61.0059 29.3138 58.2199 24.0722 54.8552 24.1513C52.997 24.2092 51.361 25.8764 50.2909 28.4823C50.1448 28.8603 50.0025 29.2833 49.8639 29.7512C49.8676 29.7962 49.8274 29.8457 49.8311 29.8907C49.7909 29.9402 49.7983 30.0301 49.7581 30.0797C49.7216 30.1742 49.7253 30.2192 49.6888 30.3137C49.656 30.4531 49.6195 30.5476 49.5867 30.6871C49.5577 30.8715 49.4809 31.0156 49.4518 31.2C49.4228 31.3844 49.3937 31.5689 49.3207 31.7579C49.2298 32.2662 49.1389 32.7745 49.092 33.2782C49.063 33.4627 49.0339 33.6471 49.0451 33.782C49.0451 33.782 49.0451 33.782 49.0488 33.8269C49.0235 34.0563 49.0019 34.3306 48.9766 34.56C48.9476 34.7444 48.9625 34.9243 48.9774 35.1041C48.9886 35.239 48.9558 35.3784 48.967 35.5133C48.9707 35.5583 48.9707 35.5583 48.9745 35.6032C48.9894 35.7831 48.9603 35.9675 48.979 36.1923C49.0038 38.0943 49.2447 39.9284 49.7346 41.5552Z" fill="white" stroke="black" stroke-width="0.8" stroke-miterlimit="10"/>
        <path d="M49.6333 30.6978C50.6064 26.9231 52.6038 24.2658 54.9018 24.162C56.2011 25.3868 57.0726 27.3365 57.1713 29.5936C57.2206 30.7221 57.0425 31.7837 56.7653 32.7196L53.9492 31.9252L55.9396 34.529C55.0363 35.9384 53.6925 36.8496 52.1898 36.9157C51.0427 36.9901 49.9425 36.5608 49.0323 35.7488C49.0187 33.9817 49.2287 32.2365 49.6333 30.6978Z" fill="black" stroke="black" stroke-width="0.8" stroke-miterlimit="10"/>
        <path d="M47.7601 54.7074L53.0045 57.1816L61.8943 61.5484L57.7016 70.4549L37.9708 56.8933L47.7601 54.7074Z" fill="white"/>
        <path d="M84.9894 57.1385L70.7703 62.4009L71.9728 71.8256L92.8243 60.1342L84.9894 57.1385Z" fill="white"/>
        <path d="M47.7601 54.7074L53.0045 57.1816L61.8943 61.5484L57.7016 70.4549L37.9708 56.8933L47.7601 54.7074Z" stroke="black" stroke-width="0.8"/>
        <path d="M84.9894 57.1385L70.7703 62.4009L71.9728 71.8256L92.8243 60.1342L84.9894 57.1385Z" stroke="black" stroke-width="0.8"/>
        <path d="M61.4515 62.1717L70.234 62.3187L65.9567 69.5348L69.8467 74.4264L68.4027 97.6611L64.7167 102.765L61.1069 96.8334L61.9712 73.5365L65.9567 69.5348L61.4515 62.1717Z" fill="#5663F1"/>
        <path d="M65.9567 69.5348L70.234 62.3187L61.4515 62.1717L65.9567 69.5348ZM65.9567 69.5348L61.9712 73.5365L61.1069 96.8334L64.7167 102.765L68.4027 97.6611L69.8467 74.4264L65.9567 69.5348Z" stroke="black" stroke-width="0.8"/>
    </g>
    <defs>
        <clipPath id="clip0_755_7931">
            <rect width="117" height="121" fill="white"/>
        </clipPath>
    </defs>
</svg>
