<svg width="150" height="181" viewBox="0 0 150 181" fill="none" xmlns="http://www.w3.org/2000/svg">
<path d="M82.0524 159.559C82.0524 159.559 77.9212 155.506 86.8851 156.052C96.5505 156.597 90.0809 160.105 90.0809 160.105L91.4839 161.04C91.4839 161.04 102.63 153.791 105.748 162.209C108.944 170.706 97.5638 171.095 90.7045 170.628C83.8451 170.16 76.3623 171.095 82.0524 159.559Z" fill="#E30611" stroke="black" stroke-width="0.8" stroke-miterlimit="10"/>
<path d="M82.0527 159.559C82.0527 159.559 83.5337 160.494 85.9501 160.494Z" fill="white"/>
<path d="M82.0527 159.559C82.0527 159.559 83.5337 160.494 85.9501 160.494" stroke="black" stroke-width="0.8" stroke-miterlimit="10"/>
<path d="M88.522 160.417C88.522 160.417 89.0676 160.494 90.1589 160.105Z" fill="white"/>
<path d="M88.522 160.417C88.522 160.417 89.0676 160.494 90.1589 160.105" stroke="black" stroke-width="0.8" stroke-miterlimit="10"/>
<path d="M91.484 161.04C91.2502 161.352 91.0164 161.663 90.7825 161.897C90.5487 162.131 90.2369 162.365 90.003 162.599C89.6913 162.833 89.4574 162.989 89.1456 163.222C88.8338 163.378 88.5221 163.534 88.1323 163.69C89.2236 162.755 90.3148 161.897 91.484 161.04Z" fill="black"/>
<path d="M91.4839 161.04C91.5619 161.352 91.5619 161.664 91.5619 161.975C91.5619 162.287 91.4839 162.599 91.4839 162.833C91.406 163.144 91.328 163.378 91.2501 163.69C91.1721 164.002 91.0162 164.236 90.8604 164.548C91.0162 163.378 91.2501 162.209 91.4839 161.04Z" fill="black"/>
<path d="M100.916 159.637C101.617 159.793 102.241 160.105 102.864 160.572C103.41 161.04 103.878 161.664 104.189 162.365C104.423 163.067 104.657 163.846 104.579 164.548C104.579 164.937 104.501 165.249 104.423 165.639C104.345 165.951 104.189 166.34 104.033 166.652C104.111 166.34 104.189 165.951 104.267 165.639C104.267 165.327 104.345 164.937 104.345 164.626C104.345 163.924 104.189 163.223 103.878 162.599C103.332 161.196 102.163 160.261 100.916 159.637Z" fill="white"/>
<path d="M91.4058 149.036C91.172 151.063 90.8602 153.09 90.2366 155.038C90.0807 155.428 89.9248 155.896 89.613 156.363C89.0674 157.299 88.288 158.234 87.3526 158.702C86.6511 159.091 85.8716 159.169 85.0142 158.702C84.0009 158.156 84.0788 157.065 84.3127 155.974C84.3906 155.584 84.5465 155.194 84.7024 154.804C85.1701 153.635 85.5598 152.388 85.7937 151.141C86.4952 147.399 82.5233 124.073 81.8218 120.331C83.5366 119.786 85.0955 119.162 86.7324 118.46C87.5898 122.046 91.7956 145.295 91.4058 149.036Z" fill="black" stroke="black" stroke-width="0.8" stroke-miterlimit="10"/>
<path d="M52.3111 161.768C52.3111 161.768 56.8882 158.403 47.5082 157.567C37.4455 156.632 43.899 161.08 43.899 161.08L42.413 161.75C42.413 161.75 31.3414 152.774 27.5249 160.67C23.6461 168.512 35.4251 170.72 42.5471 171.373C49.7185 171.971 57.4039 174.076 52.3111 161.768Z" fill="#E30611" stroke="black" stroke-width="0.8" stroke-miterlimit="10"/>
<path d="M52.2923 161.297C52.2923 161.297 50.6872 161.973 48.1685 161.575Z" fill="white"/>
<path d="M52.2923 161.297C52.2923 161.297 50.6872 161.973 48.1685 161.575" stroke="black" stroke-width="0.8" stroke-miterlimit="10"/>
<path d="M45.6539 161.433C45.6539 161.433 45.1075 161.44 43.9995 160.87Z" fill="white"/>
<path d="M45.6539 161.433C45.6539 161.433 45.1075 161.44 43.9995 160.87" stroke="black" stroke-width="0.8" stroke-miterlimit="10"/>
<path d="M42.4914 161.655C42.8818 161.808 43.1784 162.066 43.4625 162.219C43.7591 162.477 43.9964 162.684 44.2929 162.942C44.5426 163.253 44.7799 163.46 45.0295 163.771C45.2792 164.082 45.4695 164.341 45.6722 164.705C44.5452 163.725 43.5245 162.742 42.4914 161.655Z" fill="black"/>
<path d="M42.4179 161.692C42.5687 162.015 42.657 162.285 42.7453 162.555C42.8336 162.825 42.8723 163.15 42.9111 163.475C42.8874 163.746 42.9261 164.071 42.9024 164.343C42.8786 164.614 42.8054 164.941 42.7321 165.267C42.59 164.076 42.4479 162.885 42.4179 161.692Z" fill="black"/>
<path d="M33.0192 159.265C32.6882 159.381 32.3706 159.609 32.1037 159.78C31.8368 159.952 31.5192 160.18 31.2523 160.351C30.7318 160.805 30.326 161.258 29.9975 161.878C29.6558 162.385 29.4553 163.115 29.3564 163.731C29.2067 164.405 29.2864 165.075 29.2647 165.858C29.2249 165.523 29.121 165.133 29.0811 164.798C29.0919 164.406 29.052 164.071 29.0629 163.679C29.0338 162.953 29.2983 162.278 29.6267 161.659C30.3344 160.363 31.6182 159.563 33.0192 159.265Z" fill="white"/>
<path d="M54.7361 124.864C53.6934 126.64 50.0102 139.214 49.4562 140.816C48.3975 144.458 48.0521 148.415 48.5458 152.3C48.7439 153.558 49.0546 154.814 49.3654 156.069C49.4525 156.342 49.5397 156.615 49.5767 156.943C49.8126 158.036 49.9102 159.405 48.7074 159.758C47.8928 160.049 47.0792 159.845 46.2912 159.367C45.3781 158.782 44.6411 157.754 44.1296 156.722C43.9051 156.232 43.7308 155.687 43.5688 155.252C43.1216 153.285 42.8875 151.205 42.7784 149.233C42.673 145.285 46.2349 130.628 47.519 126.982C49.7741 126.443 52.0671 125.74 54.2853 124.873C54.523 124.978 54.5732 124.922 54.7361 124.864Z" fill="black" stroke="black" stroke-width="0.8" stroke-miterlimit="10"/>
<path d="M81.9552 56.2018L108.732 102.581C115.432 114.185 107.058 128.69 93.6588 128.69H40.1042C26.7054 128.69 18.3311 114.185 25.0305 102.581L51.8078 56.2018C58.5072 44.5981 75.2558 44.5981 81.9552 56.2018Z" fill="#D9D9D9" stroke="black" stroke-width="0.8"/>
<path d="M80.7746 43.3609C80.7746 43.3609 93.4566 47.1534 90.6257 57.9413L66.426 57.9976L42.5963 55.9477C41.3956 47.7736 51.8285 43.5695 51.8285 43.5695C51.9813 43.501 52.2161 39.1126 52.3164 38.7381C52.6235 36.4771 53.357 34.464 54.749 32.5584C57.6226 28.5237 62.5133 25.2682 67.5546 25.13C74.4554 24.8532 79.9036 30.4996 81.0055 36.9242C81.21 38.2235 81.2671 39.5158 81.1767 40.8011C81.0923 40.9487 80.6324 43.2783 80.7746 43.3609Z" fill="#5663F1" stroke="black" stroke-width="0.8" stroke-miterlimit="10"/>
<path d="M41.3752 65.0845C47.62 64.0712 66.8144 61.9057 93.2171 67.3699C94.6839 67.6735 96.0987 66.5805 96.1261 65.1104C96.1376 63.8719 96.3714 62.6441 96.2346 61.3984C96.051 58.6789 95.2063 54.7657 92.0609 53.9934C87.0834 52.8223 80.506 52.1931 74.3789 51.5083C64.4919 50.3312 52.0994 49.8842 41.6217 52.9378C41.0125 53.1405 40.4614 53.5784 40.1962 54.1851C39.5916 55.3948 38.9603 56.9905 38.673 58.9901C38.4124 60.6037 38.4591 62.0775 38.6701 63.3268C38.8918 64.4218 40.0246 65.2512 41.3752 65.0845Z" fill="#5663F1" stroke="black" stroke-width="0.8" stroke-miterlimit="10"/>
<path d="M51.1846 51.1584L50.8642 63.5491" stroke="black" stroke-width="0.8" stroke-miterlimit="10"/>
<path d="M62.6064 50.8558L61.9258 63.6628" stroke="black" stroke-width="0.8" stroke-miterlimit="10"/>
<path d="M74.0787 51.818L73.126 64.3888" stroke="black" stroke-width="0.8" stroke-miterlimit="10"/>
<path d="M85.5735 53.1498L84.2661 65.4156" stroke="black" stroke-width="0.8" stroke-miterlimit="10"/>
<path d="M71.2737 106.028C67.8341 108.525 63.3406 109.079 59.2908 107.97C57.8485 107.581 56.2951 106.916 54.9082 105.973C52.7447 104.53 51.1359 102.478 51.1913 99.8148C51.3023 97.3738 53.133 96.7081 55.2966 96.7081C57.1827 96.7081 59.3463 97.2629 60.6777 97.5957C61.8427 97.8731 62.9523 98.095 64.1727 98.0396C66.0589 97.9286 67.8341 97.0965 69.6648 96.8746C70.0532 96.8191 70.4415 96.8191 70.8853 96.8746C72.1613 96.93 73.6036 97.2629 74.4358 98.095C76.8767 100.48 73.1598 104.586 71.2737 106.028Z" fill="black" stroke="black" stroke-width="0.8" stroke-miterlimit="10"/>
<path d="M71.2736 106.028C67.8341 108.524 63.3406 109.079 59.2908 107.97C57.8484 107.581 56.2951 106.916 54.9082 105.973C56.5725 103.698 59.6237 102.2 63.0632 102.2C66.6136 102.145 69.6093 103.698 71.2736 106.028Z" fill="#E30611" stroke="black" stroke-width="0.8" stroke-miterlimit="10"/>
<path d="M54.0716 83.6452C53.641 87.6337 50.285 90.6031 46.3446 90.6488C45.9779 90.6699 45.6714 90.6527 45.3158 90.6246C40.9826 90.1166 37.8777 86.213 38.3364 81.8688C38.8443 77.5356 42.748 74.4307 47.0922 74.8894C47.4478 74.9175 47.7924 74.995 48.137 75.0724C51.9055 76.0223 54.5132 79.6074 54.0716 83.6452Z" fill="white" stroke="black" stroke-width="0.8" stroke-miterlimit="10"/>
<path d="M48.137 75.0724C47.0668 76.3833 46.1704 78.3022 45.6346 80.4571L50.6466 83.2378L45.1156 84.8395C45.1323 87.0669 45.5982 89.1366 46.3445 90.6488C50.2357 90.5921 53.5917 87.6226 54.0715 83.6451C54.5131 79.6074 51.9054 76.0223 48.137 75.0724Z" fill="black" stroke="black" stroke-width="0.8" stroke-miterlimit="10"/>
<path d="M87.8023 81.063C88.2564 85.0489 85.6328 88.6817 81.7982 89.5899C81.445 89.6908 81.1423 89.7412 80.7891 89.7917C76.45 90.2458 72.5649 87.1176 72.0604 82.7784C71.6063 78.4393 74.7345 74.5543 79.0736 74.0497C79.4268 73.9993 79.78 73.9993 80.1332 73.9993C84.0182 74.1002 87.3483 77.0266 87.8023 81.063Z" fill="white" stroke="black" stroke-width="0.8" stroke-miterlimit="10"/>
<path d="M80.1334 73.9991C79.3766 75.5128 78.9225 77.5814 78.8721 79.8015L84.3717 81.416L79.3262 84.191C79.8307 86.3606 80.7389 88.2779 81.7985 89.5897C85.5826 88.6815 88.2062 85.0488 87.8026 81.0628C87.3485 77.0264 84.0185 74.1001 80.1334 73.9991Z" fill="black" stroke="black" stroke-width="0.8" stroke-miterlimit="10"/>
<circle cx="43.5474" cy="82.7544" r="10.1792" stroke="black" stroke-width="0.8"/>
<circle cx="77.2745" cy="81.9174" r="10.1792" stroke="black" stroke-width="0.8"/>
<rect x="54.2559" y="81.9174" width="12.4295" height="0.83708" fill="black"/>
<path d="M62.583 84.5835L62.1344 88.0976C62.1344 88.0976 56.5268 87.0509 56.1529 89.9668C55.7791 92.8828 62.3587 92.4342 62.3587 92.4342" fill="#D9D9D9"/>
<path d="M62.583 84.5835L62.1344 88.0976C62.1344 88.0976 56.5268 87.0509 56.1529 89.9668C55.7791 92.8828 62.3587 92.4342 62.3587 92.4342" stroke="black" stroke-width="0.8" stroke-miterlimit="10"/>
<path d="M26.4754 114.037C22.5972 114.447 18.5707 114.249 14.8687 113.47C11.2811 112.713 6.84359 111.277 5.54215 107.355C3.99332 102.742 7.65335 97.9108 11.5023 95.6919C14.657 93.8541 27.9426 90.0047 31.6034 89.7457C31.5389 91.2399 29.4424 93.3847 29.028 94.9257C25.8174 94.8209 17.2624 97.8343 14.3139 99.3256C12.1321 100.385 8.21003 103.62 10.2483 106.268C11.9779 108.469 15.8289 108.891 18.3911 109.192C20.9533 109.494 23.6186 109.622 26.2612 109.359C29.1785 108.957 29.3203 113.685 26.4754 114.037Z" fill="black"/>
<path d="M39.2069 109.161C42.6416 110.508 39.6434 113.956 39.6434 113.956C39.6434 113.956 39.8868 114.598 39.9094 114.735C39.9944 115.082 40.0227 115.42 39.9775 115.81C39.8871 116.591 39.5307 117.258 39.0612 117.904C38.2297 119.017 37.1773 119.626 35.9892 120.077C33.6864 120.925 31.3552 120.772 29.0919 120.366C26.0929 119.827 24.6612 118.308 23.6934 117.27C23.0315 117.749 21.7245 117.98 21.2492 117.761C20.5645 117.439 20.2022 116.577 20.3096 115.732C20.462 113.833 20.9253 109.664 21.6606 107.803C22.622 105.318 24.9989 107.738 24.9989 107.738C25.3944 104.488 27.346 101.848 29.6714 101.137C31.5895 100.617 33.157 101.63 33.4229 101.744C34.9339 102.746 35.4321 104.43 35.4886 104.44C35.4886 104.44 46.5556 101.644 46.5279 105.293C46.4832 108.342 39.1503 109.151 39.1503 109.151L36.061 109.393" fill="white"/>
<path d="M39.2069 109.161C42.6416 110.508 39.6434 113.956 39.6434 113.956C39.6434 113.956 39.8868 114.598 39.9094 114.735C39.9944 115.082 40.0227 115.42 39.9775 115.81C39.8871 116.591 39.5307 117.258 39.0612 117.904C38.2297 119.017 37.1773 119.626 35.9892 120.077C33.6864 120.925 31.3552 120.772 29.0919 120.366C26.0929 119.827 24.6612 118.308 23.6934 117.27C23.0315 117.749 21.7245 117.98 21.2492 117.761C20.5645 117.439 20.2022 116.577 20.3096 115.732C20.462 113.833 20.9253 109.664 21.6606 107.803C22.622 105.318 24.9989 107.738 24.9989 107.738C25.3944 104.488 27.346 101.848 29.6714 101.137C31.5895 100.617 33.157 101.63 33.4229 101.744C34.9339 102.746 35.4321 104.43 35.4886 104.44C35.4886 104.44 46.5556 101.644 46.5279 105.293C46.4832 108.342 39.1503 109.151 39.1503 109.151L36.061 109.393" stroke="black" stroke-width="0.8" stroke-miterlimit="10"/>
<path d="M40.0983 114.11L36.8122 114.558" stroke="black" stroke-width="0.8" stroke-miterlimit="10"/>
<path d="M35.221 104.798L31.2085 105.188" stroke="black" stroke-width="0.8" stroke-miterlimit="10"/>
<path d="M24.5381 107.374L24.1201 110.365" stroke="black" stroke-width="0.8" stroke-miterlimit="10"/>
<path d="M24.0674 114.253L23.7428 116.445" stroke="black" stroke-width="0.8" stroke-miterlimit="10"/>
<path d="M35.604 107.845C35.6125 108.641 34.4606 108.84 34.4521 108.044C34.4436 107.248 35.5955 107.049 35.604 107.845Z" fill="black"/>
<path d="M35.3457 112.149C35.3542 112.945 34.2023 113.144 34.1938 112.348C34.1853 111.552 35.3372 111.353 35.3457 112.149Z" fill="black"/>
<path d="M36.043 116.914C36.0516 117.708 34.9022 117.907 34.8936 117.113C34.9027 116.255 36.0521 116.056 36.043 116.914Z" fill="black"/>
<path d="M139.097 72.8164H90.7119V124.207H139.097V72.8164Z" fill="white" stroke="black" stroke-width="0.8" stroke-miterlimit="10"/>
<path d="M97.6841 118.617H133.928" stroke="black" stroke-width="0.8" stroke-miterlimit="10"/>
<path d="M101.591 118.497L107.541 108.58L109.585 118.497L119.322 103.11L123.049 114.23L133.147 85.1382L136.212 86.1601L133.928 77.9856L127.857 83.2749L131.043 84.417L123.049 107.919L120.344 97.2196L110.667 112.607L108.563 102.689L98.6455 118.557L101.591 118.497Z" fill="#E30611" stroke="black" stroke-width="0.8" stroke-miterlimit="10"/>
<path d="M139.075 90.2015C139.075 90.1326 141.763 90.6151 141.969 90.684C144.037 91.2354 146.036 92.2693 147.345 93.9924C148.173 95.0952 148.793 96.3359 149.069 97.6454C150.102 102.263 147.621 107.019 143.072 108.467C139.695 109.5 136.111 108.467 133.147 106.812C132.871 106.675 132.596 106.537 132.389 106.399C132.389 106.399 129.356 103.986 133.078 102.539C133.078 102.539 128.598 99.7821 133.078 97.7833C133.078 97.7833 128.667 92.9585 139.075 93.6478C139.006 93.6478 139.075 90.2015 139.075 90.2015Z" fill="white" stroke="black" stroke-width="0.8" stroke-miterlimit="10"/>
<path d="M141.831 96.267C141.762 97.0941 140.521 96.9562 140.59 96.198C140.659 95.3709 141.9 95.5088 141.831 96.267Z" fill="black"/>
<path d="M141.831 101.367C141.762 102.195 140.521 102.057 140.59 101.298C140.659 100.471 141.9 100.54 141.831 101.367Z" fill="black"/>
<path d="M142.107 106.261C142.038 107.088 140.797 106.95 140.866 106.192C140.935 105.434 142.176 105.503 142.107 106.261Z" fill="black"/>
<path d="M139.281 98.2657L133.009 97.8522" stroke="black" stroke-width="0.8" stroke-miterlimit="10"/>
<path d="M139.281 103.228L132.802 102.539" stroke="black" stroke-width="0.8" stroke-miterlimit="10"/>
<path d="M143.003 93.8545L138.868 93.6477" stroke="black" stroke-width="0.8" stroke-miterlimit="10"/>
<path d="M47.8754 3.74682L44.7114 5.27271L52.6014 21.6329L55.7654 20.107L47.8754 3.74682Z" fill="#E30611"/>
<path d="M11.4344 36.5598L9.91309 39.7261L24.9721 46.9617L26.4934 43.7954L11.4344 36.5598Z" fill="#E30611"/>
<path d="M27.0374 16.0588L24.3447 18.315L36.8361 33.2234L39.5288 30.9672L27.0374 16.0588Z" fill="#E30611"/>
</svg>
