<svg width="158" height="210" viewBox="0 0 158 210" fill="none" xmlns="http://www.w3.org/2000/svg">
<path d="M50.8303 8.82816L46.9587 10.1775L53.9356 30.1964L57.8072 28.8471L50.8303 8.82816Z" fill="#E30611"/>
<path d="M4.21654 42.0394L2.03198 45.509L18.5337 55.8989L20.7182 52.4293L4.21654 42.0394Z" fill="#E30611"/>
<path d="M25.0316 20.3382L21.6096 22.5969L34.1151 41.5433L37.5371 39.2846L25.0316 20.3382Z" fill="#E30611"/>
<path d="M92.9315 120.23C110.038 140.356 112.051 170.453 106.105 195.244C104.641 201.191 95.4015 198.995 96.8652 193.049C101.897 171.917 101.256 144.564 86.4364 127.183C82.5027 122.609 88.9064 115.565 92.9315 120.23Z" fill="black" stroke="black" stroke-miterlimit="10"/>
<path d="M109.005 190.67L95.4659 190.305L95.0085 207.594L127.942 207.869L128.125 203.935C128.125 203.935 126.02 196.434 108.914 198.446L109.005 190.67Z" fill="#F96F6F" stroke="black" stroke-miterlimit="10"/>
<path d="M118.611 198.355C126.844 199.544 128.125 203.935 128.125 203.935L127.942 207.869L116.141 207.778C116.506 204.484 117.238 201.374 118.611 198.355Z" fill="white" stroke="black" stroke-miterlimit="10"/>
<path d="M95.1914 203.387L128.125 203.936L127.942 207.869L95.0085 207.595L95.1914 203.387Z" fill="white" stroke="black" stroke-miterlimit="10"/>
<path d="M108.731 193.781V193.323L102.876 193.14V193.598L108.731 193.781Z" fill="white"/>
<path d="M102.88 196.189L108.642 196.337L108.632 196.703L102.871 196.555L102.88 196.189Z" fill="white"/>
<path d="M102.601 193.69C102.399 193.69 102.235 193.526 102.235 193.324C102.235 193.121 102.399 192.958 102.601 192.958C102.803 192.958 102.967 193.121 102.967 193.324C102.967 193.526 102.803 193.69 102.601 193.69Z" fill="white" stroke="white" stroke-miterlimit="10"/>
<path d="M102.51 196.708C102.308 196.708 102.144 196.544 102.144 196.342C102.144 196.14 102.308 195.976 102.51 195.976C102.712 195.976 102.876 196.14 102.876 196.342C102.876 196.544 102.712 196.708 102.51 196.708Z" fill="white" stroke="white" stroke-miterlimit="10"/>
<path d="M79.9388 124.341C63.4106 143.786 61.4661 172.866 67.2112 196.818C68.6254 202.563 77.5524 200.442 76.1382 194.697C71.277 174.28 71.8957 147.852 86.2142 131.059C90.0149 126.64 83.7394 119.834 79.9388 124.341Z" fill="black" stroke="black" stroke-miterlimit="10"/>
<path d="M64.1178 192.399L77.1989 192.045L77.6409 208.75L45.8218 209.016L45.645 205.215C45.645 205.215 47.6779 197.967 64.2062 199.912L64.1178 192.399Z" fill="#F96F6F" stroke="black" stroke-miterlimit="10"/>
<path d="M54.8372 199.824C46.8824 200.973 45.645 205.215 45.645 205.215L45.8218 209.016L57.2236 208.928C56.8701 205.746 56.163 202.741 54.8372 199.824Z" fill="white" stroke="black" stroke-miterlimit="10"/>
<path d="M77.4641 204.685L45.645 205.215L45.8218 209.016L77.6409 208.751L77.4641 204.685Z" fill="white" stroke="black" stroke-miterlimit="10"/>
<path d="M64.3831 195.404V194.962L70.0398 194.785V195.227L64.3831 195.404Z" fill="white"/>
<path d="M69.9662 197.738L69.9753 198.091L64.4087 198.235L64.3996 197.881L69.9662 197.738Z" fill="white"/>
<path d="M70.3049 195.316C70.1096 195.316 69.9514 195.157 69.9514 194.962C69.9514 194.767 70.1096 194.609 70.3049 194.609C70.5002 194.609 70.6584 194.767 70.6584 194.962C70.6584 195.157 70.5002 195.316 70.3049 195.316Z" fill="white" stroke="white" stroke-miterlimit="10"/>
<path d="M70.3049 198.233C70.1096 198.233 69.9514 198.074 69.9514 197.879C69.9514 197.684 70.1096 197.525 70.3049 197.525C70.5002 197.525 70.6584 197.684 70.6584 197.879C70.6584 198.074 70.5002 198.233 70.3049 198.233Z" fill="white" stroke="white" stroke-miterlimit="10"/>
<path d="M39.5246 112.606L39.5247 112.607C40.0381 114.207 39.7719 116.144 39.2135 118.146C38.725 119.897 37.9889 121.774 37.2657 123.618C37.1576 123.894 37.0498 124.169 36.9431 124.443C36.1156 126.566 35.3579 128.612 35.0164 130.422C34.6731 132.24 34.7737 133.702 35.5221 134.744C36.2791 135.795 37.6284 136.348 39.4469 136.583C41.2578 136.816 43.4193 136.72 45.6726 136.579C45.9785 136.56 46.2862 136.54 46.5947 136.519C48.537 136.393 50.5108 136.264 52.2894 136.331C54.3381 136.408 56.2377 136.745 57.5723 137.733C58.897 138.707 59.7862 140.426 60.4807 142.37C61.0756 144.034 61.5529 145.942 62.0241 147.825C62.1068 148.155 62.1893 148.485 62.2722 148.812C62.8326 151.026 63.4119 153.139 64.1975 154.814C64.9869 156.497 65.9359 157.629 67.1745 158.036L67.1747 158.036C68.3567 158.425 69.7389 158.07 71.332 157.173C72.9154 156.282 74.5986 154.917 76.3388 153.462C76.5368 153.297 76.7354 153.13 76.9346 152.963C78.4712 151.674 80.0414 150.356 81.574 149.326C83.2955 148.169 85.0543 147.313 86.7449 147.313C88.4354 147.313 90.1941 148.168 91.9157 149.324C93.4498 150.354 95.0216 151.672 96.5597 152.962C96.7574 153.128 96.9545 153.293 97.1509 153.457C98.8912 154.912 100.574 156.276 102.158 157.168C103.751 158.065 105.133 158.422 106.315 158.036C107.554 157.629 108.504 156.496 109.294 154.814C110.081 153.139 110.661 151.025 111.222 148.812C111.306 148.481 111.39 148.148 111.474 147.814C111.944 145.934 112.421 144.031 113.014 142.37C113.708 140.426 114.596 138.706 115.918 137.732C117.253 136.748 119.152 136.414 121.201 136.339C122.976 136.273 124.946 136.403 126.885 136.53C127.197 136.55 127.508 136.57 127.817 136.59C130.071 136.732 132.232 136.828 134.043 136.595C135.862 136.361 137.211 135.808 137.968 134.757C138.716 133.714 138.817 132.253 138.473 130.434C138.132 128.625 137.374 126.579 136.547 124.455C136.44 124.182 136.332 123.907 136.224 123.631C135.501 121.787 134.765 119.91 134.276 118.159C133.718 116.157 133.452 114.22 133.965 112.619L133.965 112.619C134.465 111.065 135.803 109.693 137.413 108.436C138.765 107.379 140.373 106.355 141.966 105.34C142.281 105.139 142.596 104.939 142.908 104.739C144.813 103.516 146.62 102.3 147.95 101.015C149.284 99.7263 150.063 98.4414 150.063 97.088C150.063 95.7347 149.284 94.4498 147.95 93.1608C146.62 91.876 144.813 90.66 142.908 89.4372C142.596 89.2371 142.281 89.0367 141.966 88.8359C140.373 87.8215 138.765 86.7971 137.413 85.7404C135.803 84.4826 134.465 83.1113 133.965 81.5568L133.965 81.5566C133.452 79.9564 133.718 78.0189 134.276 76.0172C134.765 74.266 135.501 72.3891 136.224 70.545C136.332 70.2693 136.44 69.9943 136.547 69.7206C137.374 67.5975 138.132 65.5508 138.473 63.7418C138.817 61.9235 138.716 60.4617 137.968 59.4195C137.211 58.3682 135.862 57.8153 134.043 57.581C132.232 57.3477 130.071 57.4439 127.817 57.5861C127.508 57.6056 127.197 57.626 126.885 57.6464C124.946 57.7735 122.976 57.9026 121.201 57.8374C119.153 57.7622 117.253 57.4277 115.919 56.4444C114.593 55.4706 113.704 53.7506 113.009 51.8065C112.414 50.1419 111.937 48.2342 111.466 46.3513C111.383 46.0209 111.301 45.6913 111.218 45.3638C110.657 43.1505 110.078 41.0368 109.292 39.3623C108.503 37.6795 107.554 36.5466 106.315 36.1399L106.315 36.1398C105.133 35.7512 103.751 36.1061 102.158 37.0029C100.574 37.8943 98.8913 39.2586 97.151 40.7138C96.9531 40.8794 96.7544 41.0461 96.5551 41.2132C95.0186 42.5024 93.4484 43.8198 91.9159 44.8501C90.1943 46.0075 88.4355 46.8632 86.7449 46.8632C85.054 46.8632 83.2958 46.0056 81.5754 44.8458C80.0432 43.8128 78.4736 42.4919 76.9377 41.1993C76.7394 41.0323 76.5416 40.8659 76.3445 40.7006C74.6058 39.2421 72.9243 37.8748 71.342 36.981C69.7501 36.0819 68.3689 35.7259 67.1873 36.1143L67.1871 36.1144C65.9483 36.5211 64.9986 37.6542 64.2082 39.337C63.4217 41.0116 62.8412 43.1252 62.2801 45.3385C62.1961 45.6696 62.1126 46.0029 62.0289 46.337C61.5581 48.2163 61.0812 50.1197 60.488 51.7809C59.794 53.7247 58.9062 55.4446 57.5843 56.4185C56.2495 57.4021 54.3501 57.7367 52.3015 57.8119C50.5261 57.8771 48.5561 57.748 46.617 57.6209C46.3052 57.6005 45.9942 57.5801 45.685 57.5606C43.4317 57.4184 41.2703 57.3222 39.4595 57.5555C37.6406 57.7898 36.2912 58.3427 35.5343 59.394C34.7863 60.4362 34.6857 61.898 35.029 63.7163C35.3705 65.5253 36.1282 67.572 36.9557 69.6951C37.0623 69.9688 37.1702 70.2438 37.2783 70.5194C38.0015 72.3635 38.7376 74.2405 39.2261 75.9917C39.7845 77.9934 40.0507 79.9309 39.5373 81.5311L39.5372 81.5313C39.0378 83.0858 37.6991 84.4571 36.0897 85.7149C34.7376 86.7716 33.1291 87.796 31.5363 88.8104C31.2211 89.0112 30.9065 89.2116 30.5946 89.4117C28.6892 90.6345 26.8829 91.8505 25.5526 93.1353C24.218 94.4243 23.4397 95.7092 23.4397 97.0625V97.268L23.4328 97.275C23.5052 98.5554 24.2712 99.7771 25.54 101.002C26.8703 102.287 28.6766 103.503 30.582 104.726C30.8938 104.926 31.2084 105.127 31.5236 105.327C33.1164 106.342 34.725 107.366 36.0771 108.423C37.6865 109.681 39.0252 111.052 39.5246 112.606Z" fill="#ACBFFF" stroke="black"/>
<path d="M78.2131 80.7705C77.7479 73.6627 75.5286 67.6758 72.574 64.9946C71.4037 63.9667 70.2038 63.3745 68.9595 63.4358C64.4179 63.7107 61.3087 71.8886 61.8768 81.7756C62.4498 91.5899 66.6613 99.3901 71.1303 99.1103C72.302 99.0441 73.4406 98.392 74.386 97.362C77.0721 94.3347 78.6684 88.0236 78.2131 80.7705Z" fill="white" stroke="black" stroke-miterlimit="10"/>
<path d="M74.3909 97.2892C70.1066 96.998 66.2666 90.1714 65.7549 81.6013C65.7746 81.3109 65.7218 81.0155 65.7366 80.7976L72.5787 79.9496L65.8727 76.6487C66.525 70.2734 69.1117 65.4886 72.5739 64.9944C75.5286 67.6756 77.7429 73.7351 78.213 80.7704C78.6683 88.0234 77.0721 94.3346 74.3909 97.2892Z" fill="black" stroke="black" stroke-miterlimit="10"/>
<path d="M107.957 78.9259C107.492 71.8181 105.272 65.8312 102.318 63.15C101.147 62.1221 99.9475 61.5299 98.7031 61.5912C94.1615 61.866 91.0523 70.044 91.6204 79.931C92.1934 89.7453 96.405 97.5455 100.874 97.2657C102.046 97.1995 103.184 96.5474 104.13 95.5174C106.816 92.4901 108.412 86.179 107.957 78.9259Z" fill="white" stroke="black" stroke-miterlimit="10"/>
<path d="M104.13 95.5171C99.8454 95.2259 96.0054 88.3993 95.4937 79.8293C95.5134 79.5389 95.4605 79.2435 95.4754 79.0256L102.317 78.1776L95.6115 74.8767C96.2637 68.5013 98.8504 63.7165 102.313 63.2224C105.267 65.9036 107.482 71.9631 107.952 78.9983C108.412 86.1788 106.816 92.4899 104.13 95.5171Z" fill="black" stroke="black" stroke-miterlimit="10"/>
<path d="M83.7708 84.8685L83.9893 88.0932C83.9893 88.0932 84.2798 88.1129 84.3573 88.0452C86.1875 87.9508 88.361 88.1715 88.6437 90.4522C88.9017 93.0959 85.923 93.9877 83.9392 93.1233" fill="#ACBFFF"/>
<path d="M83.7708 84.8685L83.9893 88.0932C83.9893 88.0932 84.2798 88.1129 84.3573 88.0452C86.1875 87.9508 88.361 88.1715 88.6437 90.4522C88.9017 93.0959 85.923 93.9877 83.9392 93.1233" stroke="black" stroke-miterlimit="10"/>
<path d="M81.3794 110.385C82.6984 112.444 84.425 113.875 86.8361 113.82C89.1746 113.76 90.7305 112.333 91.8177 110.292C94.5891 104.936 93.8511 95.4022 93.8511 95.4022L88.7335 95.565L82.299 95.7841L77.8398 95.9187C77.8349 95.9913 78.0843 105.2 81.3794 110.385Z" fill="black" stroke="black" stroke-miterlimit="10"/>
<path d="M81.3317 110.017C82.6408 112.221 84.4301 113.802 86.8412 113.747C89.1797 113.687 90.7406 112.188 91.8376 110.001C91.5465 106.772 89.0128 104.338 86.1512 104.581C83.5123 104.767 81.4565 107.107 81.3317 110.017Z" fill="#E30611" stroke="black" stroke-miterlimit="10"/>
<path d="M94.1263 92.43C93.5439 93.4847 92.1995 96.0925 92.3207 99.6753C92.4997 103.481 94.2198 106.078 94.9593 107.004" fill="#ACBFFF"/>
<path d="M94.1263 92.43C93.5439 93.4847 92.1995 96.0925 92.3207 99.6753C92.4997 103.481 94.2198 106.078 94.9593 107.004" stroke="black" stroke-miterlimit="10"/>
<path d="M77.2535 92.742C77.8379 93.803 79.1174 96.4433 78.9482 100.006C78.7641 103.787 76.9839 106.365 76.2613 107.338" fill="#ACBFFF"/>
<path d="M77.2535 92.742C77.8379 93.803 79.1174 96.4433 78.9482 100.006C78.7641 103.787 76.9839 106.365 76.2613 107.338" stroke="black" stroke-miterlimit="10"/>
<path d="M119.439 157.737L52.89 155.849L47.5802 170.638L129.881 172.211L119.439 157.737Z" fill="#5663F1" stroke="black" stroke-miterlimit="10"/>
<path d="M116.961 159.252L55.1907 157.816L51.7296 167.924L124.296 169.812L116.961 159.252Z" fill="white" stroke="black" stroke-miterlimit="10"/>
<path d="M112.182 159.153L114.503 163.007L116.823 166.822L118.554 169.654" stroke="black" stroke-miterlimit="10"/>
<path d="M107.246 159.035L109.468 162.85L111.691 166.665L113.362 169.517" stroke="black" stroke-miterlimit="10"/>
<path d="M102.271 158.917L104.355 162.712H104.375L106.459 166.528L108.033 169.379" stroke="black" stroke-miterlimit="10"/>
<path d="M97.4721 158.799L99.478 162.575L101.504 166.39L103.018 169.261" stroke="black" stroke-miterlimit="10"/>
<path d="M92.3001 158.681L94.1487 162.437L96.0169 166.233L97.4329 169.104" stroke="black" stroke-miterlimit="10"/>
<path d="M91.2185 166.115H91.1988L89.4289 162.3L87.659 158.583" stroke="black" stroke-miterlimit="10"/>
<path d="M85.7319 165.938L83.1951 158.543" stroke="black" stroke-miterlimit="10"/>
<path d="M81.0122 165.8L79.7536 162.044H79.7339L78.495 158.366" stroke="black" stroke-miterlimit="10"/>
<path d="M75.2695 165.721L75.2499 165.662L74.5812 161.887L73.9323 158.248" stroke="black" stroke-miterlimit="10"/>
<path d="M69.5862 158.15L69.8222 161.769L70.0582 165.525L70.2549 168.416" stroke="black" stroke-miterlimit="10"/>
<path d="M65.0039 158.032L64.8859 161.631L64.7876 165.367L64.7089 168.258" stroke="black" stroke-miterlimit="10"/>
<path d="M59.7336 157.914L59.124 161.454H59.1043L58.4554 165.19L57.9441 168.101" stroke="black" stroke-miterlimit="10"/>
<path d="M119.655 163.145L114.503 163.007L109.468 162.85L104.375 162.712H104.355L99.478 162.575L94.1486 162.437L89.4288 162.299L84.355 162.162L79.7533 162.044H79.7336L74.5812 161.886L69.8221 161.769L64.886 161.631L59.1239 161.454H59.1042L53.9911 161.316" stroke="black" stroke-miterlimit="10"/>
<path d="M122.33 166.96L116.823 166.823L111.691 166.665L106.46 166.528L101.504 166.39L96.0171 166.233L91.199 166.115L86.0859 165.957L75.2501 165.662L70.0583 165.525L64.7879 165.367L58.4555 165.19L52.7131 165.033" stroke="black" stroke-miterlimit="10"/>
<path d="M129.999 174.65L47.541 173.253L47.6196 170.48L130.019 172.329L129.999 174.65Z" fill="#5663F1" stroke="black" stroke-miterlimit="10"/>
<path d="M119.439 157.737L119.99 111.385L52.9687 109.359L52.89 155.849L119.439 157.737Z" fill="#5663F1" stroke="black" stroke-miterlimit="10"/>
<path d="M116.213 153.627L116.666 114.256L57.2949 112.486L57.2556 151.975L116.213 153.627Z" fill="#E6EBFE" stroke="black" stroke-miterlimit="10"/>
<path d="M64.454 146.609L66.3921 118.138L109.366 120.287L107.108 148.812L64.454 146.609Z" fill="white" stroke="black" stroke-miterlimit="10"/>
<path d="M109.101 123.363L66.1157 121.351L66.392 118.138L109.35 120.246L109.101 123.363Z" fill="#F96F6F" stroke="black" stroke-miterlimit="10"/>
<path d="M66.1839 146.688L74.9613 135.098L80.3318 140.972L89.4396 131.914L95.7547 140.783L101.951 128.908L100.296 127.888L105.23 125.146L105.445 130.608L103.529 129.646L96.0376 145.146L89.1312 135.283L80.2312 144.456L74.9132 138.665L68.8154 146.839L66.1839 146.688Z" fill="#E30611" stroke="black" stroke-miterlimit="10"/>
<path d="M125.231 147.659C126.52 147.527 127.844 147.429 129.137 147.335C132.566 147.075 135.975 146.893 139.359 146.296C144.043 145.415 149.295 144.003 152.542 139.587C156.253 134.539 154.619 127.42 151.743 121.947C148.133 115.049 143.765 112.046 137.984 108.512C137.984 108.512 136.742 109.437 136.242 109.894L135.108 111.344L134.367 112.829C134.236 113.329 133.825 113.579 135.108 114.405C138.393 116.519 141.633 118.981 144.259 122.322C145.281 123.632 146.468 125.262 147.305 127.013C148.148 128.803 148.642 130.714 148.315 132.618C147.294 138.718 138.99 138.631 135.168 139.134C132.839 139.44 130.515 139.555 128.166 139.712C126.872 139.806 125.578 139.9 124.289 140.031C120.358 140.395 121.275 148.065 125.231 147.659Z" fill="black"/>
<path d="M128.77 139.843C128.77 139.843 130.994 136.684 132.362 138.915C133.398 140.603 134.462 144.731 134.934 146.591C135.144 147.442 134.877 148.39 134.2 148.935C133.757 149.286 132.312 149.443 131.529 149.188C130.564 150.52 129.469 152.846 126.297 154.241C123.928 155.301 121.231 155.851 118.63 155.639C117.315 155.551 116.031 155.198 115.004 154.324C114.42 153.846 113.911 153.197 113.718 152.473C113.604 152.097 113.59 151.74 113.667 151.339C113.687 151.239 113.846 150.469 113.846 150.469C113.846 150.469 110.694 148.049 113.678 145.474C113.678 145.474 109.029 141.329 117.129 140.004C117.61 139.941 117.383 137.723 118.88 136.223C119.111 135.998 120.672 134.489 122.819 134.468C125.4 134.52 127.893 136.635 128.77 139.843Z" fill="white" stroke="black" stroke-miterlimit="10"/>
<path d="M113.751 145.53L116.915 145.31" stroke="black" stroke-miterlimit="10"/>
<path d="M113.854 150.533L117.108 150.007" stroke="black" stroke-miterlimit="10"/>
<path d="M117.138 140.068L121.657 139.507" stroke="black" stroke-miterlimit="10"/>
<path d="M128.77 139.843L129.727 142.91" stroke="black" stroke-miterlimit="10"/>
<path d="M130.782 146.973L131.529 149.188" stroke="black" stroke-miterlimit="10"/>
<path d="M39.0831 112.536C39.5254 113.339 39.2538 116.292 39.2538 116.292C39.2538 116.292 37.5752 116.292 35.3842 116.081C29.5529 115.341 24.9104 111.929 22.1792 106.765C19.5651 101.79 18.7437 96.1066 18.1768 90.5809C17.9095 87.8869 17.6582 85.2617 17.5972 82.5194C17.5828 81.217 17.5684 79.9147 17.554 78.6123C17.5601 77.0875 17.635 75.5467 17.6572 74.0907C17.6572 74.0907 17.6411 74.0219 17.625 73.9531C17.6267 72.7195 17.6284 71.4859 17.6461 70.3211C17.5674 68.7437 19.1626 67.5001 20.6347 67.5911C22.2443 67.6499 23.3708 69.0549 23.3647 70.5796C23.3675 71.522 23.423 72.3795 23.357 73.338C23.3669 74.9316 23.3242 76.61 23.2654 78.2196C23.2227 79.8981 23.1961 81.6453 23.307 83.3603C23.4412 85.7953 23.6398 88.5054 23.8794 90.7707C24.4068 95.5075 25.1523 100.556 27.5046 104.721C29.6229 108.506 30.8098 110.498 35.3842 110.516C38.7249 110.533 37.7175 110.516 37.7175 110.516C37.7175 110.516 38.3149 111.142 39.0831 112.536Z" fill="black"/>
<path d="M14.9105 74.4426C14.9105 74.4426 6.02976 55.7003 11.7795 53.9204C11.7795 53.9204 13.8428 53.4379 14.8961 55.1501C14.8961 55.1501 16.1802 50.715 19.4971 53.4213C21.5616 55.1147 20.2365 59.9946 20.2365 59.9946C20.4999 59.5703 21.2404 59.3246 21.7058 59.1432C22.8955 58.6473 24.1336 58.3578 25.4359 58.3434C27.3207 58.3379 29.637 59.247 29.8444 61.3747C29.8605 61.4435 29.8766 61.5122 29.8239 61.5971C29.8294 63.4819 27.5142 64.7487 25.9545 63.6627C24.8352 62.9089 23.3881 62.3043 22.0607 62.8323C20.2154 63.6266 20.095 65.9035 21.4278 67.2602C23.0475 68.9126 26.5463 68.6747 28.161 65.0327C28.3923 64.4708 28.4699 63.8723 28.8709 63.4159C29.3934 62.8584 30.3519 62.9244 30.7879 63.5479C32.2977 65.6612 32.4824 72.6544 24.7325 73.016" fill="white"/>
<path d="M14.9105 74.4426C14.9105 74.4426 6.02976 55.7003 11.7795 53.9204C11.7795 53.9204 13.8428 53.4379 14.8961 55.1501C14.8961 55.1501 16.1802 50.715 19.4971 53.4213C21.5616 55.1147 20.2365 59.9946 20.2365 59.9946C20.4999 59.5703 21.2404 59.3246 21.7058 59.1432C22.8955 58.6473 24.1336 58.3578 25.4359 58.3434C27.3207 58.3379 29.637 59.247 29.8444 61.3747C29.8605 61.4435 29.8766 61.5122 29.8239 61.5971C29.8294 63.4819 27.5142 64.7487 25.9545 63.6627C24.8352 62.9089 23.3881 62.3043 22.0607 62.8323C20.2154 63.6266 20.095 65.9035 21.4278 67.2602C23.0475 68.9126 26.5463 68.6747 28.161 65.0327C28.3923 64.4708 28.4699 63.8723 28.8709 63.4159C29.3934 62.8584 30.3519 62.9244 30.7879 63.5479C32.2977 65.6612 32.4824 72.6544 24.7325 73.016" stroke="black" stroke-miterlimit="10"/>
<path d="M14.8803 55.0814L15.5319 60.6597" stroke="black" stroke-miterlimit="10"/>
<path d="M22.1716 73.5428L24.7486 73.0852C28.1143 72.5882 32.6176 77.2658 21.2225 78.4799C9.81134 79.6252 15.0319 74.342 15.0319 74.342C15.4607 74.3143 16.0431 74.3232 16.5933 74.1945C17.0908 74.1507 17.5723 74.0381 17.9689 73.8728" fill="white"/>
<path d="M22.1716 73.5428L24.7486 73.0852C28.1143 72.5882 32.6176 77.2658 21.2225 78.4799C9.81134 79.6252 15.0319 74.342 15.0319 74.342C15.4607 74.3143 16.0431 74.3232 16.5933 74.1945C17.0908 74.1507 17.5723 74.0381 17.9689 73.8728" stroke="black" stroke-miterlimit="10"/>
</svg>
