<svg width="118" height="121" viewBox="0 0 118 121" fill="none" xmlns="http://www.w3.org/2000/svg">
<path d="M6.99202 29.224C7.91019 29.0401 9.10381 29.6379 9.24153 30.6495C10.1138 37.2252 11.2156 43.709 13.3274 50.0088C14.1537 52.446 15.3015 55.0671 17.4133 56.6765C19.571 58.378 22.1877 58.7458 24.8504 58.6998C28.1558 58.6079 31.3694 57.9641 34.6749 57.8721C35.6848 57.8261 36.5112 58.8838 36.4653 59.8495C36.4194 60.8611 35.5012 61.5509 34.4912 61.5509C28.4313 61.7808 21.9123 63.8501 16.3114 60.4472C13.6028 58.7918 11.7665 56.1247 10.5729 53.2737C9.33335 50.2847 8.46109 47.1118 7.68064 43.9849C6.67066 39.8463 6.07385 35.6158 5.52294 31.4312C5.43113 30.4196 5.93612 29.4539 6.99202 29.224Z" fill="black"/>
<path d="M7.22156 29.0863C7.22156 29.0863 8.32336 19.4756 11.6747 20.0734C14.2915 20.5792 11.4911 29.7761 11.4911 29.7761L7.22156 29.0863Z" fill="white" stroke="black" stroke-width="0.8" stroke-miterlimit="10"/>
<path d="M3.87007 29.2242C3.87007 29.2242 -0.307607 20.6711 3.04371 20.0733C6.39504 19.4755 7.49684 28.7643 7.49684 28.7643L3.87007 29.2242Z" fill="white" stroke="black" stroke-width="0.8" stroke-miterlimit="10"/>
<path d="M12.5468 30.3276C12.5468 30.3276 15.6227 34.3742 11.9041 36.9494C11.9041 36.9494 13.8322 38.4208 11.5368 39.5245C9.24139 40.6281 4.14554 40.996 5.06371 38.2369C5.06371 38.2369 -0.123948 36.1676 2.07966 30.6955L12.5468 30.3276Z" fill="white" stroke="black" stroke-width="0.8" stroke-miterlimit="10"/>
<path d="M11.9501 36.9036C11.9501 36.9036 10.7565 37.6393 9.70056 37.8232" stroke="black" stroke-width="0.8" stroke-miterlimit="10"/>
<path d="M7.31323 38.145C7.31323 38.145 6.39506 38.3746 5.10962 38.2368" stroke="black" stroke-width="0.8" stroke-miterlimit="10"/>
<path d="M1.48292 28.3045C2.03382 28.0286 2.81427 28.1205 3.36517 28.4424C4.19152 28.9023 4.65061 29.8679 4.92606 30.7416C5.1556 31.4774 5.24742 32.4431 4.51288 32.9949C3.45699 33.7306 2.40109 32.9489 1.71246 32.1212C1.06974 31.3394 0.51884 30.2358 0.748383 29.2242C0.886108 28.7643 1.16156 28.4424 1.48292 28.3045Z" fill="white" stroke="black" stroke-width="0.8" stroke-miterlimit="10"/>
<path d="M12.5928 30.3738C10.8023 28.4885 6.57874 28.6724 5.06376 28.7644C4.19149 28.8104 3.27332 29.0403 2.99787 29.868C1.98788 32.627 8.18554 33.4548 8.18554 33.4548C8.18554 33.4548 7.63463 35.4321 9.37916 35.9379" fill="white"/>
<path d="M12.5928 30.3738C10.8023 28.4885 6.57874 28.6724 5.06376 28.7644C4.19149 28.8104 3.27332 29.0403 2.99787 29.868C1.98788 32.627 8.18554 33.4548 8.18554 33.4548C8.18554 33.4548 7.63463 35.4321 9.37916 35.9379" stroke="black" stroke-width="0.8" stroke-miterlimit="10"/>
<path d="M40.7821 100.555C40.7821 100.555 42.5944 96.7991 44.2818 103.059C46.0942 109.757 42.2195 106.189 42.2195 106.189L41.907 107.316C41.907 107.316 49.3439 113.2 44.3443 117.269C39.3447 121.338 36.4699 113.763 35.22 109.006C33.9701 104.248 31.6577 99.303 40.7821 100.555Z" fill="#E30611" stroke="black" stroke-width="0.8" stroke-miterlimit="10"/>
<path d="M40.7822 100.555C40.7822 100.555 40.4698 101.745 41.0322 103.372Z" fill="black"/>
<path d="M40.7822 100.555C40.7822 100.555 40.4698 101.745 41.0322 103.372" stroke="black" stroke-width="0.8" stroke-miterlimit="10"/>
<path d="M41.6572 105.125C41.6572 105.125 41.7196 105.5 42.2821 106.126Z" fill="black"/>
<path d="M41.6572 105.125C41.6572 105.125 41.7196 105.5 42.2821 106.126" stroke="black" stroke-width="0.8" stroke-miterlimit="10"/>
<path d="M41.9072 107.315L39.3449 105.625" stroke="black" stroke-width="0.8" stroke-miterlimit="10"/>
<path d="M41.9072 107.315L39.4074 107.754" stroke="black" stroke-width="0.8" stroke-miterlimit="10"/>
<path d="M44.9695 113.45C44.907 113.701 44.8445 113.951 44.7195 114.139C44.657 114.389 44.532 114.577 44.407 114.765C44.157 115.203 43.9071 115.579 43.5321 115.829C43.2196 116.142 42.7821 116.392 42.3447 116.58C41.9072 116.768 41.4072 116.893 40.9698 117.018V117.081C41.2198 117.081 41.4697 117.018 41.7197 117.018C41.9697 116.956 42.2197 116.956 42.4697 116.831C42.9696 116.705 43.4071 116.392 43.7821 116.079C44.532 115.391 44.907 114.452 44.9695 113.45Z" fill="white"/>
<path d="M44.3443 105.062C44.4693 105.062 44.5318 105.062 44.6568 105.062C48.4065 104.937 52.1562 104.186 55.8434 103.121C56.2184 102.996 56.5934 102.871 56.9684 102.746C58.1558 102.37 59.2807 101.995 60.4056 101.619C60.7806 101.494 61.1555 101.369 61.5305 101.243C61.6555 101.181 61.7805 101.181 61.9055 101.118C66.2802 99.4281 69.9674 96.3608 70.3424 91.3529C70.5299 88.223 69.4049 85.5939 67.5301 83.3403C66.4052 84.5297 65.2802 85.5939 64.2803 86.5954C64.9678 87.5344 65.4677 88.5986 65.6552 89.7254C66.4677 94.0446 62.468 96.0478 59.0307 97.2372C58.6557 97.3624 58.2808 97.4876 57.9683 97.6127C57.9058 97.6127 57.7808 97.6753 57.7183 97.6753C56.4684 98.0509 55.2185 98.4891 53.9061 98.8021C53.5936 98.8647 53.2811 98.9899 52.9686 99.0525C50.2813 99.8037 47.4691 100.304 44.7193 100.43C44.2818 100.43 43.9068 100.555 43.5943 100.743C41.5945 101.807 41.8445 105.125 44.3443 105.062Z" fill="black" stroke="black" stroke-width="0.8" stroke-miterlimit="10"/>
<path d="M40.7758 86.6109C41.2133 87.0491 41.5882 87.5499 42.0257 88.0507C43.0881 89.3027 50.6626 97.1131 51.725 98.4903C54.5373 102.184 57.4121 106.253 59.4119 109.758C59.5369 109.946 59.6619 110.071 59.7869 110.259C61.4743 112.074 64.974 110.071 63.5991 107.692C63.4741 107.442 63.3491 107.254 63.2241 107.004C61.2243 103.623 59.0369 100.118 56.6621 96.8627C55.7247 95.5482 54.7247 94.2336 53.7248 92.9817C52.8499 91.8549 45.4005 84.2322 44.4005 83.168C44.338 83.1054 44.2755 83.0428 44.2131 82.9802L44.2756 83.2306C44.1506 83.4184 41.4633 85.9849 40.7758 86.6109Z" fill="black" stroke="black" stroke-width="0.8" stroke-miterlimit="10"/>
<path d="M61.4269 114.192C62.4893 116.759 63.4892 118.261 64.4891 119.075C67.2389 121.266 69.8637 117.76 72.801 114.943C75.8008 112.064 79.8005 107.369 78.7381 104.051C78.4256 102.925 77.4882 101.986 75.8008 101.36C68.9888 98.7305 66.5515 110.436 66.5515 110.436L66.1765 109.873C66.3015 109.748 66.614 109.184 66.6765 108.621C66.739 107.995 66.3015 107.306 65.8015 107.119C64.6766 106.618 62.8643 108.433 61.9268 109.435C61.0519 110.311 58.9895 112.44 59.6145 113.566C59.677 113.691 60.052 114.13 61.4269 114.192Z" fill="#E30611" stroke="black" stroke-width="0.8" stroke-miterlimit="10"/>
<path d="M61.4269 114.192C61.4269 114.192 62.3644 113.754 63.9268 112.189" stroke="black" stroke-width="0.8" stroke-miterlimit="10"/>
<path d="M65.3641 110.624C65.3641 110.624 65.8015 110.374 66.239 109.685" stroke="black" stroke-width="0.8" stroke-miterlimit="10"/>
<path d="M71.1763 102.862C71.4263 102.737 71.6138 102.611 71.8637 102.549C72.1137 102.424 72.3012 102.361 72.5512 102.298C72.9887 102.173 73.4886 102.048 73.9261 102.111C74.3636 102.111 74.8635 102.173 75.301 102.361C75.7385 102.486 76.1759 102.799 76.6134 102.987C76.4259 102.862 76.2384 102.674 75.9884 102.486C75.7385 102.361 75.551 102.173 75.301 102.111C74.8635 101.86 74.3636 101.798 73.8011 101.735C72.9262 101.735 71.9262 102.173 71.1763 102.862Z" fill="white"/>
<path d="M64.4893 119.012C64.5518 119.075 64.6143 119.2 64.6768 119.263C65.2392 119.826 66.3642 119.763 67.1141 119.576C69.3639 118.887 71.1138 116.508 72.7387 114.881C75.7385 112.001 79.6132 107.118 78.6757 103.989C77.8008 101.172 72.8637 106.555 71.8638 107.682C69.4889 110.311 67.1141 113.128 65.2392 116.133C64.8018 116.946 63.9268 118.073 64.4893 119.012Z" fill="white" stroke="black" stroke-width="0.8" stroke-miterlimit="10"/>
<path d="M77.9257 108.183L73.8635 105.616" stroke="black" stroke-width="0.8" stroke-miterlimit="10"/>
<path d="M75.9884 111.375L71.2387 108.558" stroke="black" stroke-width="0.8" stroke-miterlimit="10"/>
<path d="M73.2383 114.631L68.7386 111.563" stroke="black" stroke-width="0.8" stroke-miterlimit="10"/>
<path d="M70.0514 117.572L66.1142 115.006" stroke="black" stroke-width="0.8" stroke-miterlimit="10"/>
<path d="M66.3579 22.4302L93.254 69.0156C97.7188 76.7489 92.1378 86.4156 83.2081 86.4156H29.416C20.4863 86.4156 14.9052 76.7489 19.3701 69.0156L46.2661 22.4302C50.731 14.6969 61.8931 14.6969 66.3579 22.4302Z" fill="#D9D9D9" stroke="black" stroke-width="0.8"/>
<path d="M66.7804 15.4468C66.7804 15.4468 77.5888 17.9875 75.9091 26.8912L55.744 27.9799L35.7547 27.3382C34.2391 20.736 42.6692 16.8641 42.6692 16.8641C42.7923 16.8017 42.7115 13.2193 42.7715 12.9101C42.885 11.0563 43.3695 9.38606 44.4096 7.77478C46.5504 4.3666 50.4213 1.50577 54.6141 1.17603C60.348 0.653304 65.2443 5.01482 66.5674 10.1972C66.8197 11.2461 66.9487 12.2956 66.9543 13.3457C66.8932 13.4695 66.6567 15.3857 66.7804 15.4468Z" fill="#5663F1" stroke="black" stroke-width="0.8" stroke-miterlimit="10"/>
<path d="M35.2398 34.94C40.3537 33.8645 56.1309 31.3153 78.3538 34.5397C79.5884 34.7189 80.6937 33.7869 80.6258 32.6138C80.5588 31.6259 80.6769 30.6371 80.4866 29.6498C80.1667 27.4897 79.225 24.4063 76.5701 23.9254C72.3719 23.2052 66.881 22.9856 61.7598 22.7023C53.4916 22.1876 43.1915 22.3625 34.6947 25.246C34.2022 25.4337 33.7724 25.8064 33.59 26.3014C33.1635 27.2918 32.7387 28.5909 32.6239 30.1973C32.5074 31.4949 32.637 32.6677 32.889 33.6547C33.1403 34.5181 34.1305 35.1308 35.2398 34.94Z" fill="#5663F1" stroke="black" stroke-width="0.8" stroke-miterlimit="10"/>
<path d="M42.5182 23.3538L43.1289 33.6063" stroke="black" stroke-width="0.8" stroke-miterlimit="10"/>
<path d="M52.0129 22.5024L52.1927 33.1279" stroke="black" stroke-width="0.8" stroke-miterlimit="10"/>
<path d="M61.5749 22.701L61.4447 33.1427" stroke="black" stroke-width="0.8" stroke-miterlimit="10"/>
<path d="M71.138 23.2087L70.6981 33.4048" stroke="black" stroke-width="0.8" stroke-miterlimit="10"/>
<path d="M63.9467 67.9407C61.1004 70.01 57.3818 70.4698 54.0305 69.5501C52.8368 69.2282 51.5514 68.6764 50.4037 67.8947C48.6133 66.6991 47.2819 64.9977 47.3278 62.7904C47.4196 60.7671 48.9346 60.2153 50.725 60.2153C52.2859 60.2153 54.0764 60.6752 55.1782 60.9511C56.1422 61.181 57.0604 61.3649 58.0704 61.3189C59.6313 61.227 61.1004 60.5372 62.6153 60.3533C62.9367 60.3073 63.2581 60.3073 63.6253 60.3533C64.6812 60.3993 65.8749 60.6752 66.5635 61.3649C68.5835 63.3423 65.5076 66.7451 63.9467 67.9407Z" fill="black" stroke="black" stroke-width="0.8" stroke-miterlimit="10"/>
<path d="M63.9467 67.9405C61.1004 70.0098 57.3818 70.4696 54.0305 69.5499C52.8368 69.228 51.5514 68.6762 50.4037 67.8945C51.7809 66.0091 54.3059 64.7676 57.1522 64.7676C60.0904 64.7216 62.5694 66.0091 63.9467 67.9405Z" fill="#E30611" stroke="black" stroke-width="0.8" stroke-miterlimit="10"/>
<path d="M87.1775 79.7297C86.7347 77.0876 84.3189 75.6327 81.7546 76.5316C79.184 77.3927 77.4515 80.247 77.8566 82.8954C78.2993 85.5375 80.7151 86.9924 83.2794 86.0936C85.85 85.2324 87.6202 82.3718 87.1775 79.7297ZM82.6675 84.0622C81.1277 84.594 79.6618 83.716 79.3962 82.1308C79.1305 80.5455 80.1663 78.8569 81.7061 78.3251C83.246 77.7934 84.7118 78.6713 84.9774 80.2566C85.2431 81.8418 84.2137 83.5682 82.6675 84.0622Z" fill="#F96F6F" stroke="black" stroke-width="0.8" stroke-miterlimit="10"/>
<path d="M79.9901 74.3024C79.9901 74.3024 82.074 89.9776 69.7536 91.2048C58.0807 92.3615 57.2099 76.5202 57.2099 76.5202L79.9901 74.3024Z" fill="#F96F6F" stroke="black" stroke-width="0.8" stroke-miterlimit="10"/>
<path d="M79.9721 74.2915C79.7964 72.4628 74.5593 71.4755 68.2749 72.0863C61.9904 72.6972 57.0384 74.6749 57.2141 76.5037C57.3899 78.3324 62.6269 79.3197 68.9114 78.7089C75.1958 78.098 80.1479 76.1203 79.9721 74.2915Z" fill="#F96F6F" stroke="black" stroke-width="0.8" stroke-miterlimit="10"/>
<path d="M57.9644 77.5514C57.5305 77.2756 57.285 76.968 57.1841 76.5972C58.7346 74.7455 61.1222 73.9546 63.8631 74.5778C65.9629 75.0766 67.491 75.8657 69.5577 74.78C71.6558 73.6502 73.3077 72.6345 75.8475 73.2141C77.1363 73.5007 78.7203 73.6987 79.9906 74.3375C80.0616 76.1482 75.1549 78.1011 68.9332 78.686C64.2009 79.1358 60.0586 78.7104 58.216 77.6641" fill="black"/>
<path d="M57.9644 77.5514C57.5305 77.2756 57.285 76.968 57.1841 76.5972C58.7346 74.7455 61.1222 73.9546 63.8631 74.5778C65.9629 75.0766 67.491 75.8657 69.5577 74.78C71.6558 73.6502 73.3077 72.6345 75.8475 73.2141C77.1363 73.5007 78.7203 73.6987 79.9906 74.3375C80.0616 76.1482 75.1549 78.1011 68.9332 78.686C64.2009 79.1358 60.0586 78.7104 58.216 77.6641" stroke="black" stroke-width="0.8" stroke-miterlimit="10"/>
<path d="M73.3455 74.0258C74.1811 73.6907 75.105 73.6512 75.9852 73.813C76.8653 73.9748 77.7017 74.338 78.4753 74.7893C78.6074 74.8834 78.4882 75.0975 78.3561 75.0034C77.5888 74.5898 76.7965 74.258 75.954 74.0898C75.1116 73.9216 74.2317 73.9926 73.3898 74.2899C73.2453 74.3531 73.201 74.089 73.3455 74.0258Z" fill="white"/>
<path d="M57.9647 77.5481C58.2595 76.994 58.6801 76.4962 59.2014 76.1367C59.8546 75.6385 60.6211 75.3539 61.4506 75.2139C61.9408 75.1311 62.4059 75.1302 62.915 75.1607C63.0722 75.1729 63.0724 75.4057 62.9153 75.3934C61.3438 75.2707 59.7164 75.7394 58.6806 76.9617C58.486 77.1885 58.3291 77.409 58.2163 77.6608L57.9647 77.5481Z" fill="white"/>
<path d="M72.3654 74.1896C72.4722 74.1327 72.5854 74.1135 72.6923 74.0566C72.7677 74.0439 72.8118 74.0753 72.8622 74.1446C72.8749 74.2202 72.8435 74.2644 72.7744 74.3149C72.6989 74.3276 72.5921 74.3846 72.5166 74.3973L72.4789 74.4037C72.4411 74.41 72.4034 74.4164 72.4034 74.4164C72.3657 74.4228 72.3593 74.385 72.3152 74.3535C72.3089 74.3157 72.3026 74.2779 72.3026 74.2779C72.334 74.2338 72.3654 74.1896 72.3654 74.1896Z" fill="white"/>
<path d="M63.6249 75.2357C63.7758 75.2102 63.9017 75.2667 64.0339 75.3611C64.078 75.3925 64.1284 75.4618 64.0656 75.5502C64.0342 75.5944 63.9651 75.6449 63.8769 75.582C63.8392 75.5884 63.8329 75.5506 63.7951 75.557C63.7511 75.5255 63.7133 75.5319 63.6756 75.5383C63.6378 75.5446 63.6378 75.5446 63.6001 75.551C63.5246 75.5638 63.4742 75.4945 63.4615 75.4188C63.518 75.2926 63.5494 75.2485 63.6249 75.2357Z" fill="white"/>
<path d="M77.5407 75.4541C78.095 76.2145 78.5864 77.0632 78.9646 77.9311C79.2294 78.5851 79.7021 79.5535 79.1491 80.1904C78.8223 80.5562 78.2499 80.6141 77.8534 80.3317C77.4064 79.9802 77.3366 79.332 77.2858 78.7971C77.1842 77.7272 77.3153 76.6568 77.5219 75.5737C77.5219 75.5737 77.5156 75.5359 77.5407 75.4541Z" fill="black" stroke="black" stroke-width="0.8" stroke-miterlimit="10"/>
<path d="M77.5191 78.3301C77.5442 78.2482 77.607 78.16 77.6888 78.185C77.7706 78.21 77.8588 78.2728 77.8337 78.3547C77.8025 78.6317 77.8027 78.8646 77.8848 79.1225C77.9605 79.3426 78.0802 79.5942 78.2943 79.7133C78.3761 79.7383 78.395 79.8516 78.3322 79.9398C78.2694 80.0281 78.1939 80.0408 78.1058 79.9781C77.8477 79.8276 77.6775 79.5069 77.5892 79.2112C77.5071 78.9533 77.4502 78.6135 77.5191 78.3301Z" fill="white"/>
<path d="M77.5666 47.441C76.9755 44.1701 74.0294 41.9173 70.7735 42.1162C70.4694 42.1208 70.2175 42.1533 69.9255 42.198C66.378 42.878 64.0451 46.291 64.6804 49.8542C65.3557 53.4052 68.762 55.7372 72.3215 55.0972C72.6135 55.0525 72.8934 54.9679 73.1733 54.8832C76.2285 53.8717 78.1696 50.7519 77.5666 47.441Z" fill="white" stroke="black" stroke-width="0.8" stroke-miterlimit="10"/>
<path d="M73.1733 54.8831C72.2124 53.8638 71.3589 52.3316 70.7893 50.5826L74.763 47.9833L70.1019 46.9915C69.9842 45.1495 70.2466 43.4108 70.7735 42.1161C73.9894 41.9293 76.9355 44.1822 77.5666 47.441C78.1696 50.7519 76.2285 53.8717 73.1733 54.8831Z" fill="black" stroke="black" stroke-width="0.8" stroke-miterlimit="10"/>
<path d="M50.8241 47.5766C50.5848 44.2609 47.8956 41.7063 44.6374 41.5565C44.3347 41.5287 44.0807 41.5342 43.7857 41.5474C40.1864 41.8451 37.5037 44.99 37.7559 48.6011C38.0492 52.2043 41.1873 54.8868 44.7943 54.6302C45.0893 54.617 45.3766 54.5627 45.664 54.5084C48.809 53.8286 51.0711 50.9334 50.8241 47.5766Z" fill="white" stroke="black" stroke-width="0.8" stroke-miterlimit="10"/>
<path d="M45.664 54.5086C44.8171 53.3924 44.1318 51.7777 43.7517 49.9777L47.9791 47.817L43.4507 46.3333C43.5298 44.489 43.9758 42.788 44.6374 41.5568C47.8545 41.7143 50.5437 44.2689 50.8241 47.5769C51.0711 50.9336 48.8091 53.8289 45.664 54.5086Z" fill="black" stroke="black" stroke-width="0.8" stroke-miterlimit="10"/>
<circle cx="8.75465" cy="8.75465" r="8.35465" transform="matrix(-1 0 0 1 82.084 39.7166)" stroke="black" stroke-width="0.8"/>
<circle cx="8.75465" cy="8.75465" r="8.35465" transform="matrix(-1 0 0 1 54.1738 39.0239)" stroke="black" stroke-width="0.8"/>
<rect width="10.2859" height="0.692716" transform="matrix(-1 0 0 1 64.4678 47.7788)" fill="black"/>
<path d="M115.623 75.9447C113.279 79.4814 108.307 80.4816 104.406 81.1348C102.909 81.3892 101.403 81.5522 99.8915 81.6694C99.2067 81.7435 98.4714 81.7768 97.7867 81.8508C97.7411 81.8558 97.7411 81.8558 97.6954 81.8607C96.9145 81.8989 96.0879 81.9421 95.3118 82.0261C94.8554 82.0755 94.4396 82.0742 93.9831 82.1236C93.6179 82.1631 93.2478 82.1569 92.8826 82.1964C90.5398 82.3111 88.2019 82.4715 85.8787 82.769C84.8745 82.8777 83.8618 82.4786 83.6069 81.3964C83.5921 81.2593 83.5774 81.1221 83.5626 80.985C83.5654 80.1524 84.1111 79.2148 84.9784 79.121C85.298 79.0864 85.6175 79.0518 85.937 79.0173C86.074 79.0025 86.2109 78.9876 86.3479 78.9728C89.2238 78.6617 92.1193 78.5335 94.9642 78.3645C95.6539 78.3361 96.293 78.267 96.9826 78.2386C97.2565 78.209 97.4847 78.1843 97.7636 78.2004C98.5445 78.1621 99.3662 78.0732 100.142 77.9893C102.521 77.7782 104.88 77.3843 107.173 76.8125C108.747 76.4112 110.132 75.9838 111.413 75.0129C111.886 74.6844 112.257 74.2742 112.487 73.8332C112.41 73.9802 112.611 73.265 112.585 73.4528C112.601 73.1736 112.586 73.0365 112.531 72.95C112.008 71.5268 110.424 70.5421 109.195 69.8428C105.997 68.0155 102.258 67.1714 98.6605 66.3583C94.3491 65.345 95.3983 65.4552 91.1262 64.7855C91.1262 64.7855 90.3347 63.3583 89.962 62.7405C89.3625 61.7466 88.7785 60.6533 88.7785 60.6533C90.983 60.9697 96.8598 62.0678 99.0383 62.572C103.066 63.5235 107.23 64.4602 110.869 66.5174C114.281 68.1829 118.202 72.0128 115.623 75.9447Z" fill="black"/>
<path d="M94.6572 75.4837C94.6572 75.4837 96.5806 73.6109 97.2238 75.2982C97.7314 76.5841 97.9136 79.5698 97.9647 80.9051C97.9829 81.5042 97.6815 82.1379 97.1582 82.4258C96.8077 82.6024 95.7836 82.5284 95.2927 82.2579C94.4532 83.0424 93.4086 84.4964 91.064 85.0277C89.308 85.449 87.3708 85.4739 85.6128 85.0169C84.711 84.7909 83.8808 84.3722 83.2951 83.6496C82.9721 83.2223 82.6898 82.7442 82.6309 82.1958C82.6014 81.9216 82.6225 81.6881 82.73 81.399C82.7708 81.3484 82.9907 80.816 82.9907 80.816C82.9907 80.816 81.1521 78.7495 83.5404 77.3349C83.5404 77.3349 80.9055 73.8751 86.6046 74.0439C86.9291 74.055 87.0867 72.5121 88.2914 71.6881C88.4642 71.5769 89.7602 70.743 91.2197 71.0011C93.0184 71.4074 94.503 73.1886 94.6572 75.4837Z" fill="white" stroke="black" stroke-width="0.8" stroke-miterlimit="10"/>
<path d="M83.6479 77.4607L85.8429 77.6858" stroke="black" stroke-width="0.8" stroke-miterlimit="10"/>
<path d="M83.0488 80.9016L85.3196 80.9791" stroke="black" stroke-width="0.8" stroke-miterlimit="10"/>
<path d="M86.6599 74.1292L89.8234 74.3418" stroke="black" stroke-width="0.8" stroke-miterlimit="10"/>
<path d="M94.6556 75.4846L94.8969 77.7249" stroke="black" stroke-width="0.8" stroke-miterlimit="10"/>
<path d="M95.1206 80.6609L95.3435 82.3018" stroke="black" stroke-width="0.8" stroke-miterlimit="10"/>
<path d="M57.5767 50.1655L57.9479 53.0784C57.9479 53.0784 62.5884 52.2107 62.8978 54.6278C63.2072 57.0448 57.7623 56.673 57.7623 56.673" fill="#D9D9D9"/>
<path d="M57.5767 50.1655L57.9479 53.0784C57.9479 53.0784 62.5884 52.2107 62.8978 54.6278C63.2072 57.0448 57.7623 56.673 57.7623 56.673" stroke="black" stroke-width="0.8" stroke-miterlimit="10"/>
</svg>
