<svg width="117" height="121" viewBox="0 0 117 121" fill="none" xmlns="http://www.w3.org/2000/svg">
    <g clip-path="url(#clip0_755_6465)">
        <path d="M64.4544 108.536C64.0966 111.022 61.0415 111.236 60.004 109.636C59.7367 109.202 59.6103 108.675 59.7396 108.078C60.2987 104.384 59.5319 91.1637 59.062 87.4979C58.9988 87.2341 59.006 86.923 58.9428 86.6592C60.6873 86.6618 62.2594 86.627 63.7424 86.448C64.435 90.4746 65.1112 104.114 64.5579 108.058C64.532 108.177 64.4932 108.357 64.4544 108.536Z" fill="black" stroke="black" stroke-width="0.8" stroke-miterlimit="10"/>
        <path d="M66.0913 107.707L56.8133 107.458L56.4998 119.267L79.0679 119.454L79.1932 116.768C79.1932 116.768 77.7514 111.644 66.0286 113.019L66.0913 107.707Z" fill="#F96F6F" stroke="black" stroke-width="0.8" stroke-miterlimit="10"/>
        <path d="M72.6736 112.956C78.3156 113.769 79.1932 116.768 79.1932 116.768L79.0679 119.455L70.981 119.392C71.2317 117.143 71.7333 115.018 72.6736 112.956Z" fill="white" stroke="black" stroke-width="0.8" stroke-miterlimit="10"/>
        <path d="M56.6252 116.393L79.1932 116.768L79.0679 119.455L56.4998 119.267L56.6252 116.393Z" fill="white" stroke="black" stroke-width="0.8" stroke-miterlimit="10"/>
        <path d="M65.9032 109.833L65.9032 109.52L61.8911 109.395L61.8911 109.708L65.9032 109.833Z" fill="white"/>
        <path d="M61.8944 111.477L65.8427 111.578L65.8362 111.829L61.888 111.727L61.8944 111.477Z" fill="white"/>
        <path d="M61.7029 109.77C61.5644 109.77 61.4521 109.658 61.4521 109.52C61.4521 109.382 61.5644 109.27 61.7029 109.27C61.8413 109.27 61.9536 109.382 61.9536 109.52C61.9536 109.658 61.8413 109.77 61.7029 109.77Z" fill="white" stroke="white" stroke-width="0.8" stroke-miterlimit="10"/>
        <path d="M61.6407 111.832C61.5022 111.832 61.39 111.72 61.39 111.582C61.39 111.444 61.5022 111.332 61.6407 111.332C61.7792 111.332 61.8915 111.444 61.8915 111.582C61.8915 111.72 61.7792 111.832 61.6407 111.832Z" fill="white" stroke="white" stroke-width="0.8" stroke-miterlimit="10"/>
        <path d="M90.5712 107.081C90.7476 109.586 87.807 110.442 86.4543 109.098C86.1014 108.731 85.8662 108.242 85.8662 107.631C85.6309 103.903 82.0835 91.1441 80.8484 87.6607C80.7308 87.4163 80.672 87.1107 80.5544 86.8663C82.2599 86.4996 83.789 86.133 85.2005 85.6441C86.7296 89.433 90.2771 102.62 90.5712 106.592C90.5712 106.714 90.5712 106.898 90.5712 107.081Z" fill="black" stroke="black" stroke-width="0.8" stroke-miterlimit="10"/>
        <path d="M93.1663 108.043L83.8884 107.793L83.5749 119.603L106.143 119.79L106.268 117.103C106.268 117.103 104.826 111.98 93.1036 113.354L93.1663 108.043Z" fill="#F96F6F" stroke="black" stroke-width="0.8" stroke-miterlimit="10"/>
        <path d="M99.7485 113.292C105.391 114.105 106.268 117.104 106.268 117.104L106.143 119.791L98.0559 119.728C98.3067 117.479 98.8082 115.354 99.7485 113.292Z" fill="white" stroke="black" stroke-width="0.8" stroke-miterlimit="10"/>
        <path d="M83.7002 116.729L106.268 117.104L106.143 119.79L83.5748 119.603L83.7002 116.729Z" fill="white" stroke="black" stroke-width="0.8" stroke-miterlimit="10"/>
        <path d="M92.978 110.169V109.856L88.9659 109.73V110.043L92.978 110.169Z" fill="white"/>
        <path d="M88.9691 111.813L92.9174 111.914L92.9109 112.165L88.9627 112.063L88.9691 111.813Z" fill="white"/>
        <path d="M88.7777 110.106C88.6392 110.106 88.5269 109.994 88.5269 109.856C88.5269 109.718 88.6392 109.605 88.7777 109.605C88.9162 109.605 89.0284 109.718 89.0284 109.856C89.0284 109.994 88.9162 110.106 88.7777 110.106Z" fill="white" stroke="white" stroke-width="0.8" stroke-miterlimit="10"/>
        <path d="M88.7156 112.168C88.5771 112.168 88.4648 112.056 88.4648 111.918C88.4648 111.779 88.5771 111.667 88.7156 111.667C88.854 111.667 88.9663 111.779 88.9663 111.918C88.9663 112.056 88.854 112.168 88.7156 112.168Z" fill="white" stroke="white" stroke-width="0.8" stroke-miterlimit="10"/>
        <path d="M40.3071 61.4793L40.307 61.4792C39.959 60.3995 39.0292 59.4537 37.9249 58.5935C36.996 57.8699 35.8909 57.1684 34.7995 56.4756C34.5836 56.3385 34.3682 56.2018 34.1549 56.0654C32.8488 55.23 31.6156 54.4022 30.7087 53.5291C29.852 52.7044 29.3416 51.8916 29.2842 51.0486L29.2874 51.0454V50.8806C29.2874 49.9803 29.8068 49.1172 30.7173 48.2407C31.6243 47.3676 32.8575 46.5398 34.1635 45.7044C34.3769 45.568 34.5923 45.4312 34.8082 45.2942C35.8996 44.6014 37.0046 43.8999 37.9335 43.1763C39.0378 42.3161 39.9677 41.3704 40.3157 40.2906L40.3157 40.2905C40.6732 39.18 40.4864 37.8421 40.1031 36.4726C39.7675 35.2733 39.2618 33.9882 38.7663 32.7289C38.6923 32.5407 38.6184 32.353 38.5454 32.1663C37.9781 30.7156 37.461 29.3226 37.2281 28.0932C36.9939 26.8562 37.0662 25.8783 37.5646 25.1863C38.0692 24.4882 38.9739 24.1138 40.2151 23.9544C41.4499 23.7959 42.9259 23.8611 44.4705 23.9582C44.6822 23.9715 44.8951 23.9855 45.1087 23.9994C46.4372 24.0862 47.7905 24.1746 49.0102 24.13C50.4161 24.0785 51.7326 23.8498 52.6618 23.1672C53.5825 22.4912 54.1957 21.3019 54.672 19.9723C55.0796 18.8346 55.4072 17.5312 55.7298 16.2477C55.7871 16.0197 55.8443 15.7923 55.9017 15.5666C56.2864 14.0544 56.6829 12.616 57.2192 11.4781C57.7584 10.3338 58.4 9.57775 59.2263 9.30732L59.2264 9.30727C60.0132 9.04947 60.9417 9.28301 62.0283 9.89477C63.1073 10.5022 64.2557 11.4327 65.4477 12.4293C65.5827 12.5421 65.7181 12.6558 65.8541 12.7698C66.9062 13.6524 67.9843 14.5568 69.0371 15.2642C70.2181 16.0578 71.4348 16.6518 72.6111 16.6518C73.7872 16.6518 75.0043 16.0591 76.1862 15.2672C77.2391 14.5617 78.3176 13.6597 79.3702 12.7795C79.5067 12.6653 79.6429 12.5514 79.7784 12.4384C80.9715 11.444 82.121 10.5156 83.2008 9.90974C84.2882 9.29958 85.2175 9.06678 86.0045 9.32469L86.0046 9.32474C86.8309 9.59513 87.4719 10.351 88.0105 11.4953C88.5461 12.6332 88.9418 14.0716 89.326 15.5839C89.3827 15.8071 89.4392 16.0321 89.4958 16.2576C89.8186 17.5435 90.1466 18.8498 90.5553 19.9898C91.0321 21.3195 91.6465 22.5088 92.5694 23.1848C93.4986 23.8672 94.8149 24.0959 96.2207 24.1474C97.4405 24.192 98.7937 24.1036 100.122 24.0168C100.336 24.0029 100.549 23.989 100.76 23.9757C102.305 23.8785 103.781 23.8133 105.016 23.9718C106.257 24.1312 107.162 24.5058 107.667 25.2041C108.165 25.896 108.237 26.8739 108.003 28.1107C107.77 29.34 107.253 30.733 106.686 32.1838C106.612 32.3705 106.539 32.5582 106.465 32.7464C105.969 34.0057 105.463 35.2908 105.128 36.4901C104.744 37.8596 104.558 39.1974 104.915 40.3079L104.915 40.3081C105.263 41.3878 106.193 42.3335 107.297 43.1938C108.226 43.9174 109.331 44.6189 110.423 45.3117C110.639 45.4487 110.854 45.5854 111.067 45.7219C112.373 46.5573 113.607 47.385 114.514 48.2581C115.424 49.1347 115.944 49.9978 115.944 50.898C115.944 51.7982 115.424 52.6613 114.514 53.5378C113.607 54.4109 112.373 55.2387 111.067 56.0741C110.854 56.2105 110.639 56.3472 110.423 56.4842C109.331 57.1771 108.226 57.8786 107.297 58.6022C106.193 59.4624 105.263 60.4082 104.915 61.4879L104.915 61.488C104.558 62.5985 104.744 63.9364 105.128 65.3059C105.463 66.5051 105.969 67.7903 106.465 69.0495C106.539 69.2377 106.612 69.4254 106.686 69.6122C107.253 71.0629 107.77 72.4559 108.003 73.6853C108.237 74.9223 108.165 75.9003 107.666 76.5922C107.162 77.2903 106.257 77.6647 105.016 77.8241C103.781 77.9827 102.305 77.9174 100.76 77.8203C100.549 77.807 100.336 77.7931 100.122 77.7791C98.7938 77.6923 97.4405 77.6039 96.2207 77.6486C94.8148 77.7 93.4984 77.9287 92.5692 78.6113C91.6485 79.2873 91.0352 80.4766 90.5589 81.8063C90.1514 82.9439 89.8238 84.2473 89.5012 85.5307C89.4439 85.7588 89.3867 85.9862 89.3293 86.212C88.9446 87.7242 88.548 89.1625 88.0118 90.3005C87.4727 91.4445 86.8313 92.2004 86.0053 92.471C85.218 92.7272 84.2885 92.4932 83.2009 91.8826C82.121 91.2762 80.9714 90.348 79.7784 89.3542C79.6438 89.2421 79.5087 89.1292 79.3732 89.0159C78.3196 88.1354 77.24 87.233 76.186 86.5274C75.0041 85.7361 73.7871 85.1441 72.6111 85.1441C71.4351 85.1441 70.218 85.7368 69.0361 86.5287C67.9832 87.2343 66.9047 88.1362 65.8522 89.0164C65.7156 89.1307 65.5794 89.2445 65.4439 89.3575C64.2508 90.3519 63.1013 91.2803 62.0215 91.8862C60.9341 92.4964 60.0048 92.7292 59.2178 92.4713L59.2177 92.4712C58.3914 92.2008 57.7504 91.4449 57.2118 90.3006C56.6762 89.1627 56.2805 87.7243 55.8963 86.2121C55.8396 85.9888 55.7831 85.7638 55.7265 85.5383C55.4036 84.2524 55.0757 82.9461 54.667 81.8062C54.1902 80.4763 53.5757 79.287 52.6527 78.611C51.7236 77.9266 50.4075 77.6962 49.0019 77.6435C47.7799 77.5977 46.424 77.6858 45.0932 77.7722C44.882 77.7859 44.6714 77.7996 44.462 77.8127C42.9174 77.9092 41.4413 77.9742 40.2065 77.8155C38.9653 77.656 38.0606 77.2816 37.5559 76.5835L40.3071 61.4793ZM40.3071 61.4793C40.6646 62.5898 40.4778 63.9277 40.0945 65.2972M40.3071 61.4793L40.0945 65.2972M40.0945 65.2972C39.7588 66.4965 39.2532 67.7817 38.7577 69.0409M40.0945 65.2972L38.7577 69.0409M38.7577 69.0409C38.6836 69.2291 38.6098 69.4168 38.5368 69.6035M38.7577 69.0409L38.5368 69.6035M38.5368 69.6035C37.9695 71.0542 37.4523 72.4472 37.2195 73.6766M38.5368 69.6035L37.2195 73.6766M37.2195 73.6766C36.9853 74.9133 37.0575 75.8911 37.5556 76.583L37.2195 73.6766Z" fill="#ACBFFF" stroke="black" stroke-width="0.8"/>
        <path d="M66.7595 39.7492C66.4438 34.8935 64.9268 30.8043 62.9052 28.9737C62.1045 28.2719 61.2833 27.8678 60.4314 27.9102C57.3222 28.0997 55.1905 33.6878 55.5756 40.4421C55.9641 47.1468 58.8442 52.4741 61.9037 52.2812C62.7059 52.2355 63.4856 51.7896 64.1332 51.0855C65.9732 49.0164 67.0684 44.7042 66.7595 39.7492Z" fill="white" stroke="black" stroke-width="0.8" stroke-miterlimit="10"/>
        <path d="M64.1379 51.0362C61.2055 50.8389 58.5798 46.1768 58.2329 40.3224C58.2465 40.124 58.2104 39.9222 58.2206 39.7734L62.9041 39.1915L58.3154 36.939C58.7643 32.5835 60.5367 29.3138 62.9067 28.9749C64.928 30.8054 66.4413 34.9441 66.7604 39.75C67.0692 44.7047 65.9742 49.0168 64.1379 51.0362Z" fill="black" stroke="black" stroke-width="0.8" stroke-miterlimit="10"/>
        <path d="M87.1415 38.4895C86.8258 33.6338 85.3088 29.5445 83.2872 27.714C82.4864 27.0122 81.6652 26.608 80.8133 26.6504C77.7041 26.8399 75.5725 32.4281 75.9575 39.1824C76.346 45.8871 79.2262 51.2143 82.2857 51.0215C83.0878 50.9758 83.8675 50.5298 84.5151 49.8258C86.3552 47.7566 87.4504 43.4444 87.1415 38.4895Z" fill="white" stroke="black" stroke-width="0.8" stroke-miterlimit="10"/>
        <path d="M84.5164 49.826C81.5841 49.6287 78.9583 44.9666 78.6114 39.1123C78.625 38.9138 78.5889 38.712 78.5992 38.5632L83.2827 37.9813L78.6939 35.7288C79.1428 31.3733 80.9152 28.1036 83.2852 27.7647C85.3065 29.5952 86.8198 33.7339 87.1389 38.5398C87.4512 43.4449 86.3561 47.757 84.5164 49.826Z" fill="black" stroke="black" stroke-width="0.8" stroke-miterlimit="10"/>
        <path d="M70.5753 42.5518L70.7241 44.7547C70.7241 44.7547 70.923 44.7681 70.9761 44.7219C72.2296 44.6569 73.7182 44.807 73.9111 46.365C74.0871 48.1711 72.0468 48.7812 70.6883 48.1912" fill="#ACBFFF"/>
        <path d="M70.5753 42.5518L70.7241 44.7547C70.7241 44.7547 70.923 44.7681 70.9761 44.7219C72.2296 44.6569 73.7182 44.807 73.9111 46.365C74.0871 48.1711 72.0468 48.7812 70.6883 48.1912" stroke="black" stroke-width="0.8" stroke-miterlimit="10"/>
        <path d="M68.9337 59.982C69.8367 61.3887 71.0189 62.3655 72.6705 62.3273C74.2723 62.2857 75.3385 61.3109 76.0838 59.9156C77.9837 56.2556 77.4809 49.742 77.4809 49.742L73.9753 49.8546L69.5677 50.0062L66.5132 50.0994C66.5098 50.149 66.6781 56.4406 68.9337 59.982Z" fill="black" stroke="black" stroke-width="0.8" stroke-miterlimit="10"/>
        <path d="M68.9024 59.7299C69.7986 61.2359 71.0239 62.3155 72.6757 62.2772C74.2777 62.2357 75.3474 61.2111 76.0995 59.7165C75.901 57.5097 74.1659 55.8475 72.2055 56.0145C70.3977 56.1419 68.9887 57.7418 68.9024 59.7299Z" fill="#E30611" stroke="black" stroke-width="0.8" stroke-miterlimit="10"/>
        <path d="M77.6711 47.7158C77.2723 48.4363 76.3515 50.218 76.4334 52.6653C76.5549 55.2647 77.7313 57.0383 78.2371 57.6704" fill="#ACBFFF"/>
        <path d="M77.6711 47.7158C77.2723 48.4363 76.3515 50.218 76.4334 52.6653C76.5549 55.2647 77.7313 57.0383 78.2371 57.6704" stroke="black" stroke-width="0.8" stroke-miterlimit="10"/>
        <path d="M66.1096 47.9291C66.509 48.6537 67.3835 50.4568 67.2667 52.8905C67.1397 55.4731 65.9214 57.2346 65.4268 57.8989" fill="#ACBFFF"/>
        <path d="M66.1096 47.9291C66.509 48.6537 67.3835 50.4568 67.2667 52.8905C67.1397 55.4731 65.9214 57.2346 65.4268 57.8989" stroke="black" stroke-width="0.8" stroke-miterlimit="10"/>
        <path d="M39.3394 59.9098C39.8297 60.3013 40.4317 62.2358 40.4317 62.2358C40.4317 62.2358 39.3693 62.6733 37.9273 63.1113C34.0429 64.1641 30.2105 63.2206 27.1284 60.6726C24.1703 58.2141 22.1608 54.8406 20.3539 51.5006C19.4786 49.8698 18.6316 48.2782 17.8743 46.5631C17.5238 45.7448 17.1734 44.9265 16.8229 44.1082C16.4272 43.1441 16.0707 42.152 15.7032 41.2272C15.7032 41.2272 15.675 41.188 15.6468 41.1487C15.3245 40.3696 15.0023 39.5906 14.7082 38.8507C14.245 37.8755 14.9286 36.6748 15.8842 36.3485C16.9183 35.9661 17.9995 36.5593 18.3952 37.5233C18.644 38.1174 18.9038 38.6443 19.1132 39.2665C19.5372 40.2697 19.9501 41.3403 20.3347 42.3717C20.7475 43.4422 21.1886 44.552 21.7083 45.6057C22.4314 47.1077 23.2674 48.7666 24.0127 50.134C25.588 52.9864 27.3829 55.9789 29.9633 57.9947C32.2958 59.8314 33.5691 60.7797 36.469 59.599C38.5877 58.7387 37.9457 58.9908 37.9457 58.9908C37.9457 58.9908 38.4879 59.2301 39.3394 59.9098Z" fill="black"/>
        <path d="M11.9795 42.2298C11.9795 42.2298 -1.75345 29.8232 2.38279 26.4046C2.38279 26.4046 3.92053 25.3063 5.37483 26.3576C5.37483 26.3576 4.91879 22.2713 8.58062 23.3713C10.8629 24.0634 11.437 28.5298 11.437 28.5298C11.5094 28.091 12.0365 27.6372 12.3585 27.3298C13.1708 26.5174 14.0935 25.8584 15.1632 25.404C16.7166 24.759 18.9386 24.7201 19.8369 26.4006C19.8736 26.4518 19.9104 26.5029 19.8959 26.5907C20.5446 28.1399 19.0671 29.9692 17.4089 29.6054C16.2277 29.3654 14.8269 29.3596 13.9121 30.2452C12.6608 31.5259 13.3395 33.4407 14.903 34.1043C16.8042 34.9138 19.61 33.529 19.6978 29.9831C19.6966 29.4421 19.5562 28.9232 19.7311 28.4112C19.9718 27.7749 20.7852 27.5036 21.358 27.8685C23.3261 29.0946 25.8683 34.7871 19.5969 37.7182" fill="white"/>
        <path d="M11.9795 42.2298C11.9795 42.2298 -1.75345 29.8232 2.38279 26.4046C2.38279 26.4046 3.92053 25.3063 5.37483 26.3576C5.37483 26.3576 4.91879 22.2713 8.58062 23.3713C10.8629 24.0634 11.437 28.5298 11.437 28.5298C11.5094 28.091 12.0365 27.6372 12.3585 27.3298C13.1708 26.5174 14.0935 25.8584 15.1632 25.404C16.7166 24.759 18.9386 24.7201 19.8369 26.4006C19.8736 26.4518 19.9104 26.5029 19.8959 26.5907C20.5446 28.1399 19.0671 29.9692 17.4089 29.6054C16.2277 29.3654 14.8269 29.3596 13.9121 30.2452C12.6608 31.5259 13.3395 33.4407 14.903 34.1043C16.8042 34.9138 19.61 33.529 19.6978 29.9831C19.6966 29.4421 19.5562 28.9232 19.7311 28.4112C19.9718 27.7749 20.7852 27.5036 21.358 27.8685C23.3261 29.0946 25.8683 34.7871 19.5969 37.7182" stroke="black" stroke-width="0.8" stroke-miterlimit="10"/>
        <path d="M5.33874 26.311L7.78166 30.6788" stroke="black" stroke-width="0.8" stroke-miterlimit="10"/>
        <path d="M17.6584 39.0187L19.629 37.766C22.2371 36.2129 27.553 38.5328 18.5627 43.4055C9.53558 48.227 12.0386 42.1034 12.0386 42.1034C12.383 41.9348 12.8668 41.7442 13.2769 41.4512C13.6726 41.246 14.0315 40.9897 14.3023 40.7188" fill="white"/>
        <path d="M17.6584 39.0187L19.629 37.766C22.2371 36.2129 27.5529 38.5328 18.5627 43.4055C9.53558 48.227 12.0386 42.1034 12.0386 42.1034C12.383 41.9348 12.8668 41.7442 13.2769 41.4512C13.6726 41.246 14.0315 40.9897 14.3023 40.7188" stroke="black" stroke-width="0.8" stroke-miterlimit="10"/>
        <path d="M41.8662 17.9562L44.6099 19.5853C44.7267 19.469 47.2952 16.9088 47.2952 16.9088C52.841 11.9049 65.392 2.88617 80.3948 8.12285C87.5168 10.5666 93.3544 15.9197 97.3824 20.6327C98.1413 21.5055 98.8418 22.3782 99.484 23.1928C100.652 24.6475 101.586 25.9857 102.286 27.0331L104.971 25.5784C101.469 20.4581 93.3544 10.043 81.1537 5.79543C62.298 -0.721318 47.5287 12.254 42.9754 16.8506C42.5084 17.3161 42.1581 17.7234 41.8662 17.9562Z" fill="#E30611" stroke="black" stroke-width="0.8" stroke-miterlimit="10"/>
        <path d="M44.201 42.9176C45.6604 42.8012 47.0615 42.3357 48.2874 41.5793C48.3457 41.5793 48.3457 41.5211 48.4041 41.5211V18.1889V17.4324C48.3457 17.4324 48.3457 17.3743 48.2874 17.3743C47.5285 17.0251 46.7696 16.7924 45.9523 16.676C45.3685 16.6179 44.7848 16.5597 44.1426 16.6179C38.3049 17.0251 33.5764 23.251 33.6348 30.4659C33.6348 37.7973 38.3633 43.3249 44.201 42.9176Z" fill="#E30611" stroke="black" stroke-width="0.8" stroke-miterlimit="10"/>
        <path d="M101.293 46.525C100.651 46.5832 100.068 46.5832 99.4838 46.4669C98.9 46.4087 98.3162 46.2341 97.7325 46.0596C97.6157 35.4116 97.4406 25.462 97.3822 21.389C98.5497 20.749 99.834 20.3417 101.118 20.2835C107.014 19.818 111.86 25.3456 111.918 32.5606C111.918 39.7755 107.189 46.0596 101.293 46.525Z" fill="#E30611" stroke="black" stroke-width="0.8" stroke-miterlimit="10"/>
        <path d="M97.336 63.8725L90.7969 59.98L87.2302 65.3093L85.7806 67.5358L84.7407 69.1087L76.5675 81.34L76.248 85.8197L76.0255 88.9395C76.9855 88.4866 77.9512 87.9537 78.9113 87.5008L82.929 85.4609L91.2369 73.0383L92.2768 71.4654L93.7264 69.2389L97.336 63.8725Z" fill="#5663F1" stroke="black" stroke-width="0.8" stroke-miterlimit="10"/>
        <path d="M76.5602 81.3425L78.7692 80.3374L78.7099 82.8653L81.1508 81.4349L80.8766 84.1482L82.9624 83.1743L82.9202 85.4623L76.0613 88.9029L76.5602 81.3425Z" fill="white" stroke="black" stroke-width="0.8" stroke-miterlimit="10"/>
        <path d="M76.2818 85.7845C76.405 85.7533 77.2415 85.3318 78.0584 85.7529C78.9497 86.2597 78.9501 87.3852 78.9444 87.4652C77.9846 87.9179 77.0191 88.4507 76.0593 88.9035L76.2818 85.7845Z" fill="black" stroke="black" stroke-width="0.8" stroke-miterlimit="10"/>
        <path d="M78.7364 80.3747L91.9594 60.707" stroke="black" stroke-width="0.8" stroke-miterlimit="10"/>
        <path d="M81.1114 81.5499L94.0074 61.9392" stroke="black" stroke-width="0.8" stroke-miterlimit="10"/>
        <path d="M82.9643 83.2501L96.1411 63.0969" stroke="black" stroke-width="0.8" stroke-miterlimit="10"/>
        <path d="M91.482 59.0205C91.482 59.0205 93.6923 55.1626 97.1395 57.141C100.624 59.1624 98.018 62.9112 98.018 62.9112L91.482 59.0205Z" fill="#FF1F33" stroke="black" stroke-width="0.8" stroke-miterlimit="10"/>
        <path d="M95.2711 57.9313C94.4484 57.5901 93.3336 57.9514 92.7033 58.8704C92.5687 59.0617 92.3393 58.8842 92.474 58.693C93.1959 57.6197 94.5572 57.196 95.4544 57.623C95.615 57.6347 95.4689 57.9859 95.2711 57.9313Z" fill="white"/>
        <path d="M95.6974 58.1621C95.5424 58.0703 95.769 57.7245 95.9183 57.8964C96.1164 57.951 95.8898 58.2969 95.6974 58.1621Z" fill="white"/>
        <path d="M90.8088 59.978L97.3807 63.9107L98.0162 62.9123L91.4816 59.0224L90.8088 59.978Z" fill="black" stroke="black" stroke-width="0.8" stroke-miterlimit="10"/>
        <path d="M90.1429 74.9699C90.3887 75.1062 90.6345 75.2425 90.8803 75.3788C92.6347 76.2717 94.3892 77.1647 96.2118 77.9351C97.6931 78.5964 99.1608 79.21 100.615 79.776C100.908 79.8988 101.25 80.0079 101.543 80.1306C104.854 81.4058 109.12 82.7701 112.565 81.2749C117.886 78.9368 114.898 71.9506 112.916 68.287C110.715 64.2217 108.872 63.3883 105.567 60.1527L104.877 61.9777L104.879 64.0444C106.498 65.9039 108.125 68.1545 109.308 70.2927C109.875 71.3686 110.408 72.5058 110.832 73.6225C111.14 74.5144 111.55 75.5834 111.462 76.5364C111.476 76.584 111.367 76.9243 111.381 76.972C111.347 77.0332 111.313 77.0944 111.313 77.0944C111.278 77.1557 111.163 77.2917 111.115 77.3053L111.067 77.3189C110.808 77.4957 110.126 77.6382 109.825 77.672C108.802 77.7054 107.737 77.5958 106.679 77.3296C104.42 76.8379 102.12 75.8425 99.9558 74.9629C99.0752 74.5947 98.2561 74.2606 97.4232 73.8789C96.4675 73.4289 95.5118 72.979 94.5561 72.5291C93.8325 72.1678 93.1088 71.8065 92.433 71.4317C91.949 72.0849 91.5128 72.7244 91.138 73.3981C90.7836 73.9629 90.4633 74.4664 90.1429 74.9699Z" fill="black"/>
        <path d="M97.8686 71.8836C97.5021 71.785 97.4742 70.9822 97.429 70.5896C97.2383 68.279 95.2607 66.341 93.8564 65.4562C93.2929 65.1433 91.5128 63.8924 90.405 64.2746C88.002 65.0924 90.6521 68.6637 91.449 69.7886C90.7964 69.6362 90.6533 69.6093 90.5103 69.5823C90.2242 69.5285 89.9202 69.4121 89.5716 69.376C89.0441 69.1881 88.472 69.0804 87.9444 68.8924C86.6658 68.4449 85.4943 67.8994 84.2157 67.4518C83.3841 67.1475 82.043 66.7178 81.2752 67.3413C80.7217 67.7688 80.8121 68.5539 80.9291 69.1963C80.9291 69.1963 80.9291 69.1963 80.947 69.2588C80.947 69.2588 78.3205 70.005 80.2275 72.6387C79.9328 72.79 79.6201 72.8788 79.5043 73.182C78.9873 74.2072 80.2405 75.743 80.8492 76.4484C82.3798 78.2432 84.5717 79.9853 86.6912 81.0047C88.4887 81.8454 90.4552 82.0975 92.4118 81.6092C92.787 81.5026 93.1622 81.396 93.5375 81.2894C93.8502 81.2005 94.4037 80.773 94.6898 80.8269C94.6898 80.8269 94.8155 81.2641 94.8334 81.3266C95.0037 81.6836 95.2365 82.0228 95.5139 82.2819C96.1671 82.9071 97.1683 83.0956 97.972 82.597C99.1776 81.8491 99.5064 80.4044 99.8265 79.1649C100.2 77.6399 100.734 76.2044 101.188 74.7242C102.612 70.2657 99.1281 71.3231 98.6637 71.5901C97.9132 71.8033 98.0742 71.8927 97.8686 71.8836Z" fill="white" stroke="black" stroke-width="0.8" stroke-miterlimit="10"/>
        <path d="M88.8621 73.0336C88.8621 73.0336 83.6497 71.6091 80.9117 69.1438" stroke="black" stroke-width="0.8" stroke-miterlimit="10"/>
        <path d="M80.1251 72.5405C80.1251 72.5405 83.9716 75.5687 87.0202 76.5267" stroke="black" stroke-width="0.8" stroke-miterlimit="10"/>
        <path d="M97.7766 71.7695L97.1892 73.4899" stroke="black" stroke-width="0.8" stroke-miterlimit="10"/>
        <path d="M95.1302 79.0701L94.7125 80.6745" stroke="black" stroke-width="0.8" stroke-miterlimit="10"/>
    </g>
    <defs>
        <clipPath id="clip0_755_6465">
            <rect width="117" height="121" fill="white"/>
        </clipPath>
    </defs>
</svg>
