<svg width="118" height="124" viewBox="0 0 118 124" fill="none" xmlns="http://www.w3.org/2000/svg">
<path d="M68.1877 57.609C58.3816 71.7593 57.2279 92.9206 60.6365 110.351C61.4755 114.532 66.7718 112.988 65.9328 108.808C63.0487 93.9497 63.4157 74.718 71.9109 62.4973C74.1658 59.2813 70.495 54.3286 68.1877 57.609Z" fill="black"/>
<path d="M66.8422 112.438C66.8422 112.438 70.001 109.715 63.5178 109.705C56.5789 109.688 61.0283 112.507 61.0283 112.507L60.0208 113.101C60.0208 113.101 52.4122 107.44 49.776 113.323C47.1397 119.205 55.2001 120.022 60.1189 119.998C65.0378 119.973 70.4131 120.927 66.8422 112.438Z" fill="#E30611" stroke="black" stroke-width="0.8" stroke-miterlimit="10"/>
<path d="M66.842 112.438C66.842 112.438 65.7741 113.047 64.0564 112.925Z" fill="black"/>
<path d="M66.842 112.438C66.842 112.438 65.7741 113.047 64.0564 112.925" stroke="black" stroke-width="0.8" stroke-miterlimit="10"/>
<path d="M62.2018 112.775C62.2018 112.775 61.8228 112.812 61.0726 112.431Z" fill="black"/>
<path d="M62.2018 112.775C62.2018 112.775 61.8228 112.812 61.0726 112.431" stroke="black" stroke-width="0.8" stroke-miterlimit="10"/>
<path d="M60.0208 113.101L62.3165 115.138" stroke="black" stroke-width="0.8" stroke-miterlimit="10"/>
<path d="M60.021 113.101L60.2447 115.629" stroke="black" stroke-width="0.8" stroke-miterlimit="10"/>
<path d="M51.5488 60.748C41.5843 74.4197 40.412 94.8652 43.8756 111.706C44.7282 115.746 50.1101 114.254 49.2575 110.215C46.3267 95.8595 46.6997 77.2784 55.3321 65.471C57.6234 62.3638 53.8401 57.5787 51.5488 60.748Z" fill="black"/>
<path d="M50.0107 112.437C50.0107 112.437 53.1695 109.715 46.6862 109.705C39.7474 109.688 44.1967 112.507 44.1967 112.507L43.1892 113.101C43.1892 113.101 35.5807 107.44 32.9444 113.322C30.3082 119.205 38.3685 120.021 43.2874 119.997C48.2063 119.973 53.5815 120.927 50.0107 112.437Z" fill="#E30611" stroke="black" stroke-width="0.8" stroke-miterlimit="10"/>
<path d="M50.0103 112.438C50.0103 112.438 48.9423 113.047 47.2246 112.925Z" fill="black"/>
<path d="M50.0103 112.438C50.0103 112.438 48.9423 113.047 47.2246 112.925" stroke="black" stroke-width="0.8" stroke-miterlimit="10"/>
<path d="M45.37 112.775C45.37 112.775 44.991 112.812 44.2408 112.431Z" fill="black"/>
<path d="M45.37 112.775C45.37 112.775 44.991 112.812 44.2408 112.431" stroke="black" stroke-width="0.8" stroke-miterlimit="10"/>
<path d="M43.189 113.101L45.4847 115.138" stroke="black" stroke-width="0.8" stroke-miterlimit="10"/>
<path d="M43.1892 113.1L43.4129 115.628" stroke="black" stroke-width="0.8" stroke-miterlimit="10"/>
<path d="M36.4709 111.73C36.2453 111.855 36.0196 111.981 35.8705 112.15C35.6448 112.275 35.4958 112.444 35.3467 112.614C34.9882 112.969 34.6901 113.307 34.5453 113.734C34.3238 114.117 34.1952 114.605 34.127 115.076C34.0589 115.547 34.0673 116.062 34.0596 116.517L33.9992 116.533C33.9345 116.292 33.9302 116.034 33.8655 115.793C33.8613 115.535 33.7966 115.294 33.8528 115.02C33.8443 114.504 34.0335 114.001 34.2387 113.558C34.7097 112.655 35.5197 112.05 36.4709 111.73Z" fill="white"/>
<path d="M6.93208 29.632C7.85025 29.448 9.04387 30.0458 9.1816 31.0575C10.0539 37.6332 11.1557 44.117 13.2675 50.4168C14.0938 52.854 15.2415 55.4751 17.3533 57.0845C19.511 58.7859 22.1278 59.1538 24.7905 59.1078C28.0959 59.0158 31.3095 58.3721 34.6149 58.2801C35.6249 58.2341 36.4513 59.2917 36.4054 60.2574C36.3594 61.2691 35.4413 61.9588 34.4313 61.9588C28.3714 62.1887 21.8524 64.258 16.2515 60.8552C13.5429 59.1998 11.7066 56.5327 10.5129 53.6817C9.27342 50.6927 8.40115 47.5198 7.62071 44.3929C6.61072 40.2543 6.01391 36.0238 5.46301 31.8392C5.37119 30.8275 5.87618 29.8619 6.93208 29.632Z" fill="black"/>
<path d="M7.16187 29.4943C7.16187 29.4943 8.26367 19.8836 11.615 20.4814C14.2318 20.9872 11.4314 30.184 11.4314 30.184L7.16187 29.4943Z" fill="white" stroke="black" stroke-width="0.8" stroke-miterlimit="10"/>
<path d="M3.8105 29.6321C3.8105 29.6321 -0.367177 21.0791 2.98414 20.4813C6.33547 19.8835 7.43727 29.1723 7.43727 29.1723L3.8105 29.6321Z" fill="white" stroke="black" stroke-width="0.8" stroke-miterlimit="10"/>
<path d="M12.4872 30.7356C12.4872 30.7356 15.5631 34.7822 11.8445 37.3573C11.8445 37.3573 13.7727 38.8288 11.4772 39.9324C9.18182 41.036 4.08597 41.4039 5.00414 38.6449C5.00414 38.6449 -0.183518 36.5756 2.02009 31.1035L12.4872 30.7356Z" fill="white" stroke="black" stroke-width="0.8" stroke-miterlimit="10"/>
<path d="M11.8904 37.3115C11.8904 37.3115 10.6968 38.0473 9.64087 38.2312" stroke="black" stroke-width="0.8" stroke-miterlimit="10"/>
<path d="M7.25317 38.553C7.25317 38.553 6.335 38.7825 5.04956 38.6448" stroke="black" stroke-width="0.8" stroke-miterlimit="10"/>
<path d="M1.42335 28.7124C1.97425 28.4365 2.7547 28.5285 3.3056 28.8504C4.13195 29.3102 4.59104 30.2759 4.86649 31.1496C5.09603 31.8853 5.18785 32.851 4.45331 33.4028C3.39742 34.1386 2.34152 33.3568 1.65289 32.5291C1.01017 31.7474 0.45927 30.6438 0.688812 29.6321C0.826538 29.1723 1.10199 28.8504 1.42335 28.7124Z" fill="white" stroke="black" stroke-width="0.8" stroke-miterlimit="10"/>
<path d="M12.5331 30.7818C10.7426 28.8964 6.51904 29.0804 5.00406 29.1723C4.1318 29.2183 3.21363 29.4482 2.93818 30.276C1.92819 33.035 8.12584 33.8627 8.12584 33.8627C8.12584 33.8627 7.57494 35.84 9.31946 36.3459" fill="white"/>
<path d="M12.5331 30.7818C10.7426 28.8964 6.51904 29.0804 5.00406 29.1723C4.1318 29.2183 3.21363 29.4482 2.93818 30.276C1.92819 33.035 8.12584 33.8627 8.12584 33.8627C8.12584 33.8627 7.57494 35.84 9.31946 36.3459" stroke="black" stroke-width="0.8" stroke-miterlimit="10"/>
<path d="M66.2983 22.8384L93.1944 69.4238C97.6592 77.1571 92.0782 86.8238 83.1485 86.8238H29.3564C20.4267 86.8238 14.8457 77.1571 19.3105 69.4238L46.2066 22.8384C50.6714 15.1051 61.8335 15.1051 66.2983 22.8384Z" fill="#D9D9D9" stroke="black" stroke-width="0.8"/>
<path d="M67.8608 16.5063C67.8608 16.5063 78.4875 19.7235 76.2497 28.5036L56.0561 28.3185L36.147 26.4175C35.0507 19.7329 43.7082 16.4003 43.7082 16.4003C43.835 16.3458 43.9802 12.7654 44.0597 12.4607C44.2898 10.6178 44.8787 8.98135 46.0183 7.43886C48.3698 4.17246 52.4133 1.56142 56.6186 1.49673C62.374 1.33662 66.9856 5.99822 67.9792 11.2537C68.1649 12.3164 68.2275 13.3719 68.1668 14.4203C68.0981 14.5401 67.7412 16.4375 67.8608 16.5063Z" fill="#5663F1" stroke="black" stroke-width="0.8" stroke-miterlimit="10"/>
<path d="M35.1538 33.9717C40.3254 33.2209 56.2319 31.6717 78.2073 36.291C79.4281 36.5476 80.59 35.6872 80.5962 34.5121C80.5917 33.522 80.7719 32.5426 80.6442 31.5453C80.4611 29.3693 79.7158 26.2327 77.0965 25.5853C72.952 24.6018 67.4859 24.0363 62.3927 23.4307C54.1734 22.3957 43.8829 21.9207 35.2211 24.2626C34.7178 24.4189 34.2654 24.7638 34.0521 25.2463C33.564 26.2078 33.0581 27.4775 32.8422 29.0735C32.6441 30.3612 32.6995 31.5399 32.8888 32.5407C33.0852 33.4183 34.0347 34.0922 35.1538 33.9717Z" fill="#5663F1" stroke="black" stroke-width="0.8" stroke-miterlimit="10"/>
<path d="M43.1479 22.8677L43.1109 33.1383" stroke="black" stroke-width="0.8" stroke-miterlimit="10"/>
<path d="M52.6775 22.6167L52.1869 33.2324" stroke="black" stroke-width="0.8" stroke-miterlimit="10"/>
<path d="M62.2079 23.418L61.4195 33.8307" stroke="black" stroke-width="0.8" stroke-miterlimit="10"/>
<path d="M71.7197 24.5277L70.6378 34.6757" stroke="black" stroke-width="0.8" stroke-miterlimit="10"/>
<path d="M59.8869 68.3489C57.0406 70.4182 53.322 70.878 49.9706 69.9583C48.777 69.6364 47.4916 69.0846 46.3439 68.3029C44.5534 67.1073 43.2221 65.4059 43.268 63.1987C43.3598 61.1753 44.8748 60.6235 46.6652 60.6235C48.2261 60.6235 50.0165 61.0834 51.1184 61.3593C52.0824 61.5892 53.0006 61.7731 54.0106 61.7272C55.5715 61.6352 57.0406 60.9454 58.5555 60.7615C58.8769 60.7155 59.1983 60.7155 59.5655 60.7615C60.6214 60.8075 61.815 61.0834 62.5037 61.7731C64.5236 63.7505 61.4478 67.1533 59.8869 68.3489Z" fill="black" stroke="black" stroke-width="0.8" stroke-miterlimit="10"/>
<path d="M59.8868 68.3487C57.0404 70.418 53.3218 70.8778 49.9705 69.9581C48.7769 69.6362 47.4915 69.0844 46.3438 68.3027C47.721 66.4173 50.246 65.1758 53.0923 65.1758C56.0304 65.1298 58.5095 66.4173 59.8868 68.3487Z" fill="#E30611" stroke="black" stroke-width="0.8" stroke-miterlimit="10"/>
<path d="M87.1185 80.1379C86.6758 77.4958 84.26 76.0409 81.6957 76.9398C79.125 77.8009 77.3926 80.6552 77.7976 83.3036C78.2404 85.9457 80.6561 87.4007 83.2204 86.5018C85.7911 85.6406 87.5613 82.78 87.1185 80.1379ZM82.6086 84.4704C81.0687 85.0022 79.6029 84.1243 79.3372 82.539C79.0716 80.9537 80.1073 79.2651 81.6472 78.7333C83.187 78.2016 84.6528 79.0795 84.9185 80.6648C85.1841 82.25 84.1547 83.9764 82.6086 84.4704Z" fill="#F96F6F" stroke="black" stroke-width="0.8" stroke-miterlimit="10"/>
<path d="M79.9313 74.7109C79.9313 74.7109 82.0152 90.386 69.6948 91.6133C58.0218 92.7699 57.151 76.9287 57.151 76.9287L79.9313 74.7109Z" fill="#F96F6F" stroke="black" stroke-width="0.8" stroke-miterlimit="10"/>
<path d="M79.9132 74.7C79.7374 72.8712 74.5004 71.8839 68.2159 72.4948C61.9315 73.1056 56.9794 75.0834 57.1552 76.9121C57.3309 78.7409 62.5679 79.7282 68.8524 79.1173C75.1369 78.5065 80.0889 76.5288 79.9132 74.7Z" fill="#F96F6F" stroke="black" stroke-width="0.8" stroke-miterlimit="10"/>
<path d="M57.9054 77.9598C57.4714 77.6841 57.226 77.3765 57.125 77.0057C58.6756 75.1539 61.0631 74.3631 63.8041 74.9863C65.9038 75.485 67.4319 76.2742 69.4986 75.1884C71.5967 74.0586 73.2486 73.043 75.7884 73.6225C77.0772 73.9092 78.6612 74.1071 79.9315 74.7459C80.0025 76.5566 75.0958 78.5096 68.8741 79.0944C64.1418 79.5442 59.9995 79.1188 58.1569 78.0725" fill="black"/>
<path d="M57.9054 77.9598C57.4714 77.6841 57.226 77.3765 57.125 77.0057C58.6756 75.1539 61.0631 74.3631 63.8041 74.9863C65.9038 75.485 67.4319 76.2742 69.4986 75.1884C71.5967 74.0586 73.2486 73.043 75.7884 73.6225C77.0772 73.9092 78.6612 74.1071 79.9315 74.7459C80.0025 76.5566 75.0958 78.5096 68.8741 79.0944C64.1418 79.5442 59.9995 79.1188 58.1569 78.0725" stroke="black" stroke-width="0.8" stroke-miterlimit="10"/>
<path d="M73.287 74.4342C74.1226 74.0992 75.0466 74.0596 75.9267 74.2214C76.8068 74.3832 77.6432 74.7464 78.4168 75.1978C78.5489 75.2919 78.4297 75.506 78.2976 75.4119C77.5303 74.9982 76.738 74.6664 75.8956 74.4982C75.0531 74.3301 74.1732 74.401 73.3313 74.6983C73.1868 74.7615 73.1425 74.4974 73.287 74.4342Z" fill="white"/>
<path d="M57.906 77.9563C58.2008 77.4022 58.6214 76.9044 59.1427 76.5449C59.7959 76.0467 60.5624 75.7621 61.3919 75.6221C61.882 75.5393 62.3472 75.5384 62.8563 75.5689C63.0135 75.5811 63.0137 75.8139 62.8566 75.8016C61.2851 75.6789 59.6577 76.1476 58.6219 77.3699C58.4273 77.5967 58.2704 77.8172 58.1576 78.069L57.906 77.9563Z" fill="white"/>
<path d="M72.3066 74.5978C72.4135 74.5409 72.5267 74.5218 72.6336 74.4648C72.709 74.4521 72.7531 74.4835 72.8035 74.5528C72.8162 74.6284 72.7848 74.6726 72.7157 74.7231C72.6402 74.7358 72.5333 74.7928 72.4579 74.8055L72.4201 74.8119C72.3824 74.8182 72.3447 74.8246 72.3447 74.8246C72.3069 74.831 72.3006 74.7932 72.2565 74.7617C72.2502 74.7239 72.2439 74.6861 72.2439 74.6861C72.2753 74.642 72.3066 74.5978 72.3066 74.5978Z" fill="white"/>
<path d="M63.5664 75.6442C63.7173 75.6187 63.8432 75.6752 63.9755 75.7695C64.0196 75.801 64.07 75.8702 64.0072 75.9586C63.9758 76.0028 63.9066 76.0534 63.8185 75.9905C63.7807 75.9969 63.7744 75.959 63.7367 75.9654C63.6926 75.934 63.6548 75.9403 63.6171 75.9467C63.5794 75.9531 63.5794 75.9531 63.5416 75.9595C63.4661 75.9722 63.4157 75.9029 63.403 75.8273C63.4595 75.7011 63.4909 75.6569 63.5664 75.6442Z" fill="white"/>
<path d="M77.4813 75.8623C78.0355 76.6227 78.527 77.4714 78.9052 78.3393C79.17 78.9933 79.6426 79.9617 79.0896 80.5986C78.7629 80.9644 78.1905 81.0223 77.7939 80.7399C77.347 80.3884 77.2772 79.7402 77.2264 79.2053C77.1248 78.1354 77.2559 77.065 77.4625 75.9819C77.4625 75.9819 77.4562 75.9441 77.4813 75.8623Z" fill="black" stroke="black" stroke-width="0.8" stroke-miterlimit="10"/>
<path d="M77.46 78.7383C77.4851 78.6565 77.5479 78.5682 77.6297 78.5932C77.7116 78.6182 77.7997 78.681 77.7746 78.7629C77.7434 79.0399 77.7436 79.2728 77.8257 79.5307C77.9014 79.7508 78.0212 80.0024 78.2352 80.1215C78.317 80.1465 78.336 80.2598 78.2731 80.348C78.2103 80.4363 78.1348 80.449 78.0467 80.3863C77.7886 80.2358 77.6184 79.9151 77.5301 79.6194C77.448 79.3615 77.3911 79.0217 77.46 78.7383Z" fill="white"/>
<path d="M32.6855 47.9578C33.2213 44.6774 36.129 42.3752 39.3878 42.5191C39.6919 42.5186 39.9444 42.5469 40.237 42.5866C43.7955 43.2067 46.1856 46.5798 45.6105 50.1532C44.9952 53.7151 41.6288 56.1042 38.059 55.5244C37.7663 55.4847 37.485 55.4047 37.2037 55.3248C34.1319 54.365 32.1384 51.2784 32.6855 47.9578Z" fill="white" stroke="black" stroke-width="0.8" stroke-miterlimit="10"/>
<path d="M37.2033 55.3249C38.1469 54.2895 38.9744 52.7431 39.5144 50.9847L35.4975 48.4528L40.1411 47.3826C40.2277 45.5388 39.936 43.8048 39.3874 42.5192C36.1688 42.3867 33.2611 44.6889 32.6851 47.9578C32.138 51.2784 34.1315 54.3651 37.2033 55.3249Z" fill="black" stroke="black" stroke-width="0.8" stroke-miterlimit="10"/>
<path d="M60.5034 47.5035C60.9871 44.2146 63.8577 41.8657 67.118 41.9571C67.422 41.9517 67.6749 41.976 67.9681 42.011C71.5355 42.5739 73.9785 45.9085 73.4601 49.491C72.9013 53.0628 69.5735 55.506 65.9953 54.9835C65.7021 54.9485 65.4196 54.8731 65.1371 54.7977C62.0508 53.8873 60.0089 50.8328 60.5034 47.5035Z" fill="white" stroke="black" stroke-width="0.8" stroke-miterlimit="10"/>
<path d="M65.137 54.798C66.064 53.7475 66.8668 52.1879 67.3789 50.4209L63.3228 47.9536L67.9484 46.8087C68.0059 44.9636 67.6868 43.2343 67.118 41.9575C63.898 41.8768 61.0274 44.2257 60.5033 47.5039C60.0088 50.8332 62.0507 53.8877 65.137 54.798Z" fill="black" stroke="black" stroke-width="0.8" stroke-miterlimit="10"/>
<circle cx="36.9426" cy="48.8792" r="8.35465" stroke="black" stroke-width="0.8"/>
<circle cx="64.8526" cy="48.1865" r="8.35465" stroke="black" stroke-width="0.8"/>
<rect x="45.804" y="48.1868" width="10.2859" height="0.692716" fill="black"/>
<path d="M115.564 76.3527C113.219 79.8893 108.247 80.8896 104.346 81.5428C102.849 81.7972 101.343 81.9601 99.8316 82.0774C99.1469 82.1514 98.4116 82.1847 97.7269 82.2588C97.6812 82.2637 97.6812 82.2637 97.6356 82.2687C96.8546 82.3069 96.0281 82.3501 95.252 82.434C94.7955 82.4834 94.3798 82.4821 93.9233 82.5315C93.5581 82.571 93.188 82.5648 92.8228 82.6043C90.48 82.719 88.1421 82.8795 85.8189 83.177C84.8146 83.2856 83.802 82.8865 83.547 81.8044C83.5323 81.6672 83.5175 81.5301 83.5028 81.393C83.5056 80.5604 84.0513 79.6228 84.9186 79.5289C85.2382 79.4944 85.5577 79.4598 85.8772 79.4252C86.0142 79.4104 86.1511 79.3956 86.2881 79.3808C89.1639 79.0697 92.0595 78.9414 94.9044 78.7724C95.5941 78.7441 96.2332 78.6749 96.9228 78.6465C97.1967 78.6169 97.4249 78.5922 97.7037 78.6083C98.4847 78.5701 99.3064 78.4812 100.082 78.3973C102.461 78.1862 104.82 77.7923 107.114 77.2205C108.687 76.8191 110.072 76.3918 111.353 75.4209C111.826 75.0923 112.198 74.6822 112.427 74.2412C112.351 74.3882 112.551 73.673 112.525 73.8607C112.541 73.5815 112.526 73.4444 112.471 73.3579C111.948 71.9348 110.365 70.9501 109.135 70.2508C105.937 68.4234 102.198 67.5794 98.6006 66.7663C94.2893 65.7529 95.3385 65.8632 91.0664 65.1935C91.0664 65.1935 90.2749 63.7663 89.9022 63.1484C89.3026 62.1546 88.7187 61.0612 88.7187 61.0612C90.9231 61.3777 96.8 62.4757 98.9785 62.9799C103.006 63.9314 107.171 64.8682 110.809 66.9253C114.221 68.5908 118.142 72.4207 115.564 76.3527Z" fill="black"/>
<path d="M94.598 75.8916C94.598 75.8916 96.5214 74.0188 97.1646 75.7062C97.6722 76.9921 97.8544 79.9777 97.9055 81.3131C97.9237 81.9122 97.6223 82.5459 97.099 82.8337C96.7485 83.0104 95.7244 82.9364 95.2335 82.6659C94.394 83.4503 93.3494 84.9043 91.0048 85.4357C89.2488 85.857 87.3116 85.8818 85.5536 85.4249C84.6518 85.1989 83.8216 84.7802 83.2359 84.0576C82.9129 83.6302 82.6306 83.1522 82.5717 82.6037C82.5422 82.3295 82.5633 82.096 82.6708 81.807C82.7116 81.7563 82.9315 81.2239 82.9315 81.2239C82.9315 81.2239 81.0929 79.1574 83.4812 77.7429C83.4812 77.7429 80.8463 74.283 86.5454 74.4519C86.8699 74.463 87.0275 72.9201 88.2322 72.0961C88.405 71.9849 89.701 71.151 91.1605 71.4091C92.9592 71.8153 94.4438 73.5965 94.598 75.8916Z" fill="white" stroke="black" stroke-width="0.8" stroke-miterlimit="10"/>
<path d="M83.5884 77.8687L85.7834 78.0937" stroke="black" stroke-width="0.8" stroke-miterlimit="10"/>
<path d="M82.9893 81.3096L85.2601 81.3871" stroke="black" stroke-width="0.8" stroke-miterlimit="10"/>
<path d="M86.6008 74.5374L89.7643 74.75" stroke="black" stroke-width="0.8" stroke-miterlimit="10"/>
<path d="M94.5964 75.8926L94.8377 78.1328" stroke="black" stroke-width="0.8" stroke-miterlimit="10"/>
<path d="M95.061 81.0691L95.2839 82.71" stroke="black" stroke-width="0.8" stroke-miterlimit="10"/>
<path d="M52.6951 50.5735L52.3238 53.4864C52.3238 53.4864 47.6833 52.6187 47.3739 55.0357C47.0645 57.4528 52.5094 57.0809 52.5094 57.0809" fill="#D9D9D9"/>
<path d="M52.6951 50.5735L52.3238 53.4864C52.3238 53.4864 47.6833 52.6187 47.3739 55.0357C47.0645 57.4528 52.5094 57.0809 52.5094 57.0809" stroke="black" stroke-width="0.8" stroke-miterlimit="10"/>
</svg>
