<svg width="117" height="121" viewBox="0 0 117 121" fill="none" xmlns="http://www.w3.org/2000/svg">
    <g clip-path="url(#clip0_722_4604)">
        <path d="M58.4726 57.439C68.2788 71.5894 69.4324 92.7506 66.0239 110.181C65.1849 114.362 59.8885 112.818 60.7275 108.638C63.6117 93.7798 63.2446 74.5481 54.7495 62.3274C52.4946 59.1114 56.1653 54.1587 58.4726 57.439Z" fill="black"/>
        <path d="M59.818 112.268C59.818 112.268 56.6591 109.545 63.1424 109.535C70.0812 109.518 65.6319 112.338 65.6319 112.338L66.6394 112.931C66.6394 112.931 74.2479 107.27 76.8842 113.153C79.5204 119.035 71.4601 119.852 66.5412 119.828C61.6223 119.804 56.2471 120.757 59.818 112.268Z" fill="#E30611" stroke="black" stroke-width="0.8" stroke-miterlimit="10"/>
        <path d="M59.8181 112.268C59.8181 112.268 60.8861 112.877 62.6038 112.755L59.8181 112.268Z" fill="black"/>
        <path d="M59.8181 112.268C59.8181 112.268 60.8861 112.877 62.6038 112.755" stroke="black" stroke-width="0.8" stroke-miterlimit="10"/>
        <path d="M64.4584 112.605C64.4584 112.605 64.8373 112.642 65.5876 112.261L64.4584 112.605Z" fill="black"/>
        <path d="M64.4584 112.605C64.4584 112.605 64.8373 112.642 65.5876 112.261" stroke="black" stroke-width="0.8" stroke-miterlimit="10"/>
        <path d="M66.6394 112.931L64.3437 114.968" stroke="black" stroke-width="0.8" stroke-miterlimit="10"/>
        <path d="M66.6392 112.931L66.4154 115.459" stroke="black" stroke-width="0.8" stroke-miterlimit="10"/>
        <path d="M46.9129 60.5781C36.9483 74.2498 35.776 94.6952 39.2396 111.536C40.0922 115.576 45.4742 114.084 44.6216 110.045C41.6908 95.6895 42.0638 77.1085 50.6962 65.3011C52.9875 62.1939 49.2042 57.4088 46.9129 60.5781Z" fill="black"/>
        <path d="M45.3461 112.295C45.3461 112.295 48.4851 109.576 42.0126 109.532C35.0853 109.478 39.5423 112.335 39.5423 112.335L38.5397 112.926C38.5397 112.926 30.9136 107.197 28.3132 113.094C25.7128 118.991 33.764 119.854 38.6745 119.856C43.585 119.858 48.9563 120.845 45.3461 112.295Z" fill="#E30611" stroke="black" stroke-width="0.8" stroke-miterlimit="10"/>
        <path d="M45.374 112.271C45.374 112.271 44.3084 112.883 42.5888 112.75L45.374 112.271Z" fill="black"/>
        <path d="M45.374 112.271C45.374 112.271 44.3084 112.883 42.5888 112.75" stroke="black" stroke-width="0.8" stroke-miterlimit="10"/>
        <path d="M40.7344 112.609C40.7344 112.609 40.3563 112.644 39.6052 112.257L40.7344 112.609Z" fill="black"/>
        <path d="M40.7344 112.609C40.7344 112.609 40.3563 112.644 39.6052 112.257" stroke="black" stroke-width="0.8" stroke-miterlimit="10"/>
        <path d="M38.5534 112.923L40.8492 114.976" stroke="black" stroke-width="0.8" stroke-miterlimit="10"/>
        <path d="M38.548 112.93L38.7825 115.458" stroke="black" stroke-width="0.8" stroke-miterlimit="10"/>
        <path d="M31.8096 111.56C31.5861 111.684 31.3625 111.808 31.2156 111.977C30.9921 112.101 30.8452 112.27 30.6983 112.439C30.3444 112.792 30.0506 113.13 29.9099 113.557C29.6927 113.94 29.5686 114.428 29.5046 114.901C29.4405 115.373 29.4531 115.891 29.4491 116.348L29.389 116.363C29.3227 116.12 29.3165 115.862 29.2502 115.619C29.2439 115.36 29.1776 115.117 29.2313 114.843C29.2188 114.325 29.4029 113.821 29.6035 113.378C30.0649 112.475 30.8658 111.874 31.8096 111.56Z" fill="white"/>
        <path d="M6.29677 29.4623C7.21494 29.2783 8.40856 29.8761 8.54628 30.8878C9.41854 37.4635 10.5203 43.9473 12.6321 50.2471C13.4585 52.6843 14.6062 55.3054 16.718 56.9148C18.8757 58.6162 21.4925 58.9841 24.1552 58.9381C27.4606 58.8462 30.6742 58.2024 33.9796 58.1104C34.9896 58.0644 35.8159 59.1221 35.77 60.0877C35.7241 61.0994 34.806 61.7891 33.796 61.7891C27.736 62.0191 21.217 64.0884 15.6162 60.6855C12.9076 59.0301 11.0713 56.363 9.87763 53.512C8.6381 50.523 7.76584 47.3501 6.98539 44.2232C5.97541 40.0846 5.3786 35.8541 4.82769 31.6695C4.73588 30.6579 5.24087 29.6922 6.29677 29.4623Z" fill="black"/>
        <path d="M6.52618 29.3246C6.52618 29.3246 7.62799 19.7139 10.9793 20.3117C13.5961 20.8175 10.7957 30.0143 10.7957 30.0143L6.52618 29.3246Z" fill="white" stroke="black" stroke-width="0.8" stroke-miterlimit="10"/>
        <path d="M3.17476 29.4624C3.17476 29.4624 -1.00292 20.9094 2.3484 20.3116C5.69972 19.7138 6.80153 29.0026 6.80153 29.0026L3.17476 29.4624Z" fill="white" stroke="black" stroke-width="0.8" stroke-miterlimit="10"/>
        <path d="M11.8516 30.5659C11.8516 30.5659 14.9274 34.6125 11.2088 37.1876C11.2088 37.1876 13.137 38.6591 10.8416 39.7627C8.54614 40.8664 3.45029 41.2342 4.36846 38.4752C4.36846 38.4752 -0.819199 36.4059 1.38441 30.9338L11.8516 30.5659Z" fill="white" stroke="black" stroke-width="0.8" stroke-miterlimit="10"/>
        <path d="M11.2547 37.1418C11.2547 37.1418 10.0611 37.8776 9.00519 38.0615" stroke="black" stroke-width="0.8" stroke-miterlimit="10"/>
        <path d="M6.61792 38.3833C6.61792 38.3833 5.69975 38.6128 4.41431 38.4751" stroke="black" stroke-width="0.8" stroke-miterlimit="10"/>
        <path d="M0.787607 28.5428C1.33851 28.2669 2.11895 28.3588 2.66986 28.6807C3.49621 29.1406 3.95529 30.1062 4.23075 30.9799C4.46029 31.7157 4.55211 32.6813 3.81757 33.2331C2.76167 33.9689 1.70578 33.1872 1.01715 32.3594C0.37443 31.5777 -0.176472 30.4741 0.0530703 29.4624C0.190796 29.0026 0.466247 28.6807 0.787607 28.5428Z" fill="white" stroke="black" stroke-width="0.8" stroke-miterlimit="10"/>
        <path d="M11.8975 30.6121C10.1071 28.7268 5.88349 28.9107 4.3685 29.0027C3.49624 29.0486 2.57807 29.2786 2.30262 30.1063C1.29263 32.8653 7.49028 33.693 7.49028 33.693C7.49028 33.693 6.93938 35.6704 8.68391 36.1762" fill="white"/>
        <path d="M11.8975 30.6121C10.1071 28.7268 5.88349 28.9107 4.3685 29.0027C3.49624 29.0486 2.57807 29.2786 2.30262 30.1063C1.29263 32.8653 7.49028 33.693 7.49028 33.693C7.49028 33.693 6.93938 35.6704 8.68391 36.1762" stroke="black" stroke-width="0.8" stroke-miterlimit="10"/>
        <path d="M45.5708 22.6683C50.0357 14.9349 61.1978 14.9349 65.6626 22.6683L92.5586 69.2536C97.0235 76.9869 91.4424 86.6536 82.5128 86.6536H28.7206C19.791 86.6536 14.2099 76.9869 18.6748 69.2536L45.5708 22.6683Z" fill="#D9D9D9" stroke="black" stroke-width="0.8"/>
        <path d="M67.2141 16.3241C67.2141 16.3241 77.8274 19.5325 75.579 28.332L55.4023 28.1748L35.5124 26.298C34.4265 19.6025 43.0816 16.2516 43.0816 16.2516C43.2083 16.1968 43.3585 12.6096 43.4383 12.3041C43.6709 10.4575 44.2617 8.81718 45.4025 7.27023C47.7566 3.99448 51.8006 1.37294 56.0024 1.30227C61.7534 1.13383 66.3545 5.79767 67.3398 11.0615C67.5239 12.126 67.5848 13.1834 67.5228 14.2338C67.454 14.3539 67.0947 16.2553 67.2141 16.3241Z" fill="#5663F1" stroke="black" stroke-width="0.8" stroke-miterlimit="10"/>
        <path d="M34.5174 33.8535C39.6886 33.0922 55.5929 31.514 77.5555 36.1227C78.7757 36.3787 79.9384 35.513 79.9463 34.3328C79.9432 33.3383 80.1247 32.3544 79.9985 31.353C79.8186 29.1678 79.0779 26.0185 76.4602 25.372C72.3183 24.39 66.8545 23.8297 61.7637 23.2285C53.5482 22.2005 43.2611 21.7378 34.5985 24.1021C34.0951 24.2598 33.6423 24.6068 33.4284 25.0917C32.9391 26.058 32.4315 27.334 32.2134 28.9372C32.0136 30.2308 32.0673 31.4145 32.255 32.4195C32.4501 33.3006 33.3985 33.9761 34.5174 33.8535Z" fill="#5663F1" stroke="black" stroke-width="0.8" stroke-miterlimit="10"/>
        <path d="M42.5257 22.6978L42.463 32.9684" stroke="black" stroke-width="0.8" stroke-miterlimit="10"/>
        <path d="M52.047 22.4468L51.5473 33.0625" stroke="black" stroke-width="0.8" stroke-miterlimit="10"/>
        <path d="M61.5729 23.2476L60.7845 33.6612" stroke="black" stroke-width="0.8" stroke-miterlimit="10"/>
        <path d="M71.085 24.3566L70.003 34.5071" stroke="black" stroke-width="0.8" stroke-miterlimit="10"/>
        <path d="M86.4424 79.9955C85.9809 77.3354 83.5674 75.8535 81.0252 76.7372C78.4765 77.583 76.7771 80.4394 77.2012 83.1056C77.6627 85.7657 80.0761 87.2476 82.6183 86.3639C85.1671 85.5181 86.9039 82.6556 86.4424 79.9955ZM81.9936 84.3165C80.4669 84.8392 79.0026 83.9449 78.7257 82.3488C78.4488 80.7528 79.4649 79.063 80.9915 78.5403C82.5181 78.0176 83.9825 78.9119 84.2594 80.508C84.5363 82.1041 83.5268 83.8319 81.9936 84.3165Z" fill="#F96F6F" stroke="black" stroke-width="0.8" stroke-miterlimit="10"/>
        <path d="M79.1853 74.5548C79.1853 74.5548 81.3876 90.3673 69.1264 91.5073C57.5095 92.5813 56.5142 76.6109 56.5142 76.6109L79.1853 74.5548Z" fill="#F96F6F" stroke="black" stroke-width="0.8" stroke-miterlimit="10"/>
        <path d="M79.2505 74.598C79.0602 72.7314 73.8232 71.6829 67.5533 72.256C61.2834 72.8291 56.3549 74.8068 56.5452 76.6733C56.7355 78.5399 61.9725 79.5884 68.2424 79.0153C74.5123 78.4422 79.4408 76.4645 79.2505 74.598Z" fill="#F96F6F" stroke="black" stroke-width="0.8" stroke-miterlimit="10"/>
        <path d="M57.2874 77.7359C56.8516 77.452 56.6039 77.1371 56.5002 76.7591C58.0355 74.8866 60.4156 74.0999 63.1598 74.7548C65.2622 75.2782 66.7955 76.0927 68.8527 75.0036C70.9408 73.8699 72.584 72.8489 75.1268 73.4579C76.4171 73.7593 78.0018 73.9727 79.2762 74.6323C79.3612 76.4753 74.4724 78.4254 68.2587 78.9734C63.5326 79.3952 59.3893 78.931 57.5397 77.8524" fill="black"/>
        <path d="M57.2874 77.7359C56.8516 77.452 56.6039 77.1371 56.5002 76.7591C58.0355 74.8866 60.4156 74.0999 63.1598 74.7548C65.2622 75.2782 66.7955 76.0927 68.8527 75.0036C70.9408 73.8699 72.584 72.8489 75.1268 73.4579C76.4171 73.7593 78.0018 73.9727 79.2762 74.6323C79.3612 76.4753 74.4724 78.4254 68.2587 78.9734C63.5326 79.3952 59.3893 78.931 57.5397 77.8524" stroke="black" stroke-width="0.8" stroke-miterlimit="10"/>
        <path d="M72.6507 74.2416C73.4829 73.9083 74.4053 73.8745 75.2853 74.0441C76.1654 74.2137 77.0031 74.5866 77.7787 75.0484C77.9113 75.1445 77.7938 75.3602 77.6612 75.2642C76.8921 74.8406 76.0986 74.4996 75.2561 74.3239C74.4137 74.1481 73.5355 74.214 72.6967 74.509C72.5529 74.572 72.5068 74.3045 72.6507 74.2416Z" fill="white"/>
        <path d="M57.2809 77.7842C57.5715 77.2253 57.9882 76.7242 58.5064 76.3638C59.1554 75.8639 59.919 75.581 60.7466 75.4448C61.2357 75.3644 61.7002 75.3666 62.209 75.4008C62.366 75.4143 62.3679 75.6499 62.2108 75.6364C60.6404 75.5016 59.0181 75.9651 57.9919 77.1954C57.7991 77.4237 57.6439 77.6458 57.5329 77.9L57.2809 77.7842Z" fill="white"/>
        <path d="M71.6704 74.4258C71.7766 74.3691 71.8894 74.3506 71.9957 74.2939C72.0709 74.2816 72.115 74.3136 72.1658 74.3838C72.179 74.4601 72.148 74.5044 72.0793 74.555C72.0041 74.5673 71.8979 74.624 71.8227 74.6364L71.7851 74.6425C71.7475 74.6487 71.7099 74.6549 71.7099 74.6549C71.6723 74.661 71.6657 74.6229 71.6215 74.5909C71.6149 74.5527 71.6084 74.5145 71.6084 74.5145C71.6394 74.4702 71.6704 74.4258 71.6704 74.4258Z" fill="white"/>
        <path d="M62.9288 75.4714C63.0791 75.4467 63.205 75.5045 63.3375 75.6003C63.3816 75.6323 63.4324 75.7024 63.3704 75.7909C63.3394 75.8352 63.2708 75.8857 63.1825 75.8218C63.1449 75.8279 63.1383 75.7898 63.1008 75.796C63.0566 75.764 63.019 75.7702 62.9815 75.7763C62.9439 75.7825 62.9439 75.7825 62.9063 75.7887C62.8312 75.801 62.7804 75.7309 62.7673 75.6547C62.8227 75.528 62.8537 75.4837 62.9288 75.4714Z" fill="white"/>
        <path d="M76.833 75.6829C77.3859 76.4492 77.8777 77.3034 78.2579 78.1759C78.5245 78.8332 78.9987 79.8071 78.4588 80.4407C78.1396 80.8044 77.5757 80.8577 77.1823 80.5716C76.7387 80.2158 76.6644 79.5659 76.6098 79.0296C76.5006 77.9571 76.6209 76.8859 76.8155 75.8026C76.8155 75.8026 76.809 75.7647 76.833 75.6829Z" fill="black" stroke="black" stroke-width="0.8" stroke-miterlimit="10"/>
        <path d="M76.8231 78.5639C76.8471 78.4821 76.9082 78.3943 76.989 78.42C77.0698 78.4457 77.1572 78.5093 77.1332 78.5911C77.1048 78.8683 77.107 79.1015 77.1899 79.3605C77.2664 79.5816 77.3865 79.8345 77.5983 79.9555C77.6791 79.9813 77.6988 80.0948 77.6376 80.1827C77.5765 80.2706 77.5022 80.2827 77.4149 80.2192C77.1593 80.0663 76.989 79.7438 76.8995 79.4469C76.8165 79.188 76.7575 78.8472 76.8231 78.5639Z" fill="white"/>
        <path d="M114.92 76.24C112.588 79.7816 107.625 80.7723 103.731 81.4176C102.237 81.669 100.733 81.8286 99.2238 81.9424C98.5401 82.015 97.8059 82.0465 97.1223 82.1191C97.0767 82.1239 97.0767 82.1239 97.0311 82.1288C96.2513 82.1651 95.4259 82.2064 94.6512 82.2886C94.1954 82.337 93.7802 82.3346 93.3244 82.383C92.9598 82.4217 92.5902 82.4145 92.2256 82.4532C89.8862 82.5624 87.5518 82.7174 85.2324 83.0099C84.2298 83.1164 83.2174 82.7135 82.96 81.6273C82.945 81.4897 82.9299 81.3522 82.9148 81.2146C82.9155 80.3794 83.458 79.4403 84.3239 79.3484C84.643 79.3145 84.962 79.2807 85.281 79.2468C85.4178 79.2323 85.5545 79.2178 85.6912 79.2033C88.5625 78.8985 91.4538 78.7772 94.2946 78.6149C94.9832 78.5882 95.6213 78.5204 96.31 78.4937C96.5834 78.4647 96.8113 78.4405 97.0898 78.4573C97.8696 78.421 98.6899 78.3339 99.4647 78.2517C101.84 78.046 104.195 77.6568 106.484 77.0891C108.054 76.6905 109.436 76.2654 110.713 75.2947C111.184 74.9664 111.554 74.5559 111.782 74.1141C111.706 74.2614 111.904 73.5445 111.879 73.7327C111.894 73.4527 111.879 73.3152 111.824 73.2283C111.298 71.7994 109.714 70.8077 108.484 70.1031C105.286 68.2621 101.549 67.406 97.955 66.5812C93.6468 65.5539 94.6949 65.6672 90.4267 64.9845C90.4267 64.9845 89.6326 63.551 89.2587 62.9303C88.6575 61.9319 88.0714 60.8337 88.0714 60.8337C90.2738 61.1567 96.1457 62.273 98.3226 62.7842C102.347 63.7489 106.509 64.699 110.148 66.7717C113.559 68.451 117.485 72.3026 114.92 76.24Z" fill="black"/>
        <path d="M93.9339 75.7321C93.9339 75.7321 95.8421 73.8605 96.4908 75.5574C97.0027 76.8507 97.1981 79.849 97.2552 81.1898C97.2761 81.7914 96.9787 82.4262 96.4585 82.7129C96.11 82.8887 95.0891 82.8098 94.5985 82.536C93.7656 83.3198 92.7312 84.7748 90.397 85.2977C88.6489 85.7129 86.7184 85.7291 84.9643 85.2625C84.0645 85.0315 83.2352 84.6074 82.6482 83.8794C82.3243 83.4488 82.0407 82.9676 81.9794 82.4167C81.9488 82.1413 81.9688 81.907 82.0746 81.6173C82.1149 81.5666 82.3316 81.0331 82.3316 81.0331C82.3316 81.0331 80.4898 78.9501 82.8634 77.5407C82.8634 77.5407 80.2215 74.0553 85.902 74.2504C86.2254 74.263 86.3753 72.7148 87.5721 71.8929C87.7438 71.782 89.0315 70.9506 90.4873 71.2163C92.2818 71.6323 93.7696 73.4272 93.9339 75.7321Z" fill="white" stroke="black" stroke-width="0.8" stroke-miterlimit="10"/>
        <path d="M82.9526 77.6919L85.1476 77.93" stroke="black" stroke-width="0.8" stroke-miterlimit="10"/>
        <path d="M82.3535 81.1335L84.6243 81.2228" stroke="black" stroke-width="0.8" stroke-miterlimit="10"/>
        <path d="M85.9647 74.3582L89.1281 74.5885" stroke="black" stroke-width="0.8" stroke-miterlimit="10"/>
        <path d="M93.9604 75.7224L94.2016 77.9626" stroke="black" stroke-width="0.8" stroke-miterlimit="10"/>
        <path d="M94.4254 80.8987L94.6483 82.54" stroke="black" stroke-width="0.8" stroke-miterlimit="10"/>
        <path d="M59.2516 68.179C56.4052 70.2482 52.6866 70.7081 49.3353 69.7884C48.1417 69.4665 46.8563 68.9147 45.7086 68.133C43.9181 66.9374 42.5868 65.236 42.6327 63.0287C42.7245 61.0054 44.2395 60.4536 46.0299 60.4536C47.5908 60.4536 49.3812 60.9135 50.483 61.1894C51.4471 61.4193 52.3653 61.6032 53.3753 61.5572C54.9362 61.4653 56.4052 60.7755 57.9202 60.5916C58.2416 60.5456 58.5629 60.5456 58.9302 60.5916C59.9861 60.6376 61.1797 60.9135 61.8684 61.6032C63.8883 63.5805 60.8125 66.9834 59.2516 68.179Z" fill="black" stroke="black" stroke-width="0.8" stroke-miterlimit="10"/>
        <path d="M59.2515 68.1787C56.4052 70.248 52.6866 70.7079 49.3353 69.7882C48.1416 69.4663 46.8562 68.9145 45.7085 68.1328C47.0858 66.2474 49.6107 65.0058 52.457 65.0058C55.3952 64.9598 57.8743 66.2474 59.2515 68.1787Z" fill="#E30611" stroke="black" stroke-width="0.8" stroke-miterlimit="10"/>
        <path d="M32.0502 47.7878C32.586 44.5075 35.4937 42.2053 38.7525 42.3492C39.0566 42.3486 39.309 42.3769 39.6017 42.4167C43.1602 43.0368 45.5503 46.4099 44.9752 49.9833C44.3599 53.5452 40.9935 55.9343 37.4237 55.3544C37.131 55.3147 36.8497 55.2348 36.5684 55.1549C33.4966 54.1951 31.5031 51.1084 32.0502 47.7878Z" fill="white" stroke="black" stroke-width="0.8" stroke-miterlimit="10"/>
        <path d="M36.5684 55.1549C37.512 54.1195 38.3395 52.5732 38.8795 50.8148L34.8625 48.2829L39.5062 47.2126C39.5928 45.3689 39.3011 43.6348 38.7525 42.3492C35.5339 42.2168 32.6261 44.519 32.0502 47.7879C31.503 51.1085 33.4966 54.1952 36.5684 55.1549Z" fill="black" stroke="black" stroke-width="0.8" stroke-miterlimit="10"/>
        <path d="M59.868 47.3333C60.3518 44.0444 63.2224 41.6955 66.4827 41.787C66.7867 41.7816 67.0396 41.8058 67.3328 41.8408C70.9002 42.4037 73.3432 45.7383 72.8248 49.3208C72.266 52.8926 68.9382 55.3358 65.36 54.8133C65.0668 54.7783 64.7843 54.7029 64.5017 54.6275C61.4155 53.7172 59.3736 50.6627 59.868 47.3333Z" fill="white" stroke="black" stroke-width="0.8" stroke-miterlimit="10"/>
        <path d="M64.5017 54.6276C65.4288 53.5771 66.2316 52.0175 66.7437 50.2504L62.6876 47.7832L67.3132 46.6383C67.3706 44.7932 67.0515 43.0639 66.4827 41.7871C63.2628 41.7064 60.3921 44.0553 59.868 47.3335C59.3736 50.6628 61.4155 53.7173 64.5017 54.6276Z" fill="black" stroke="black" stroke-width="0.8" stroke-miterlimit="10"/>
        <circle cx="36.3069" cy="48.7092" r="8.35465" stroke="black" stroke-width="0.8"/>
        <circle cx="64.2172" cy="48.0166" r="8.35465" stroke="black" stroke-width="0.8"/>
        <rect x="45.1683" y="48.0166" width="10.2859" height="0.692716" fill="black"/>
        <path d="M52.0596 50.4036L51.6883 53.3164C51.6883 53.3164 47.0478 52.4488 46.7384 54.8658C46.4291 57.2829 51.8739 56.911 51.8739 56.911" fill="#D9D9D9"/>
        <path d="M52.0596 50.4036L51.6883 53.3164C51.6883 53.3164 47.0478 52.4488 46.7384 54.8658C46.4291 57.2829 51.8739 56.911 51.8739 56.911" stroke="black" stroke-width="0.8" stroke-miterlimit="10"/>
    </g>
    <defs>
        <clipPath id="clip0_722_4604">
            <rect width="117" height="121" fill="white"/>
        </clipPath>
    </defs>
</svg>
