<svg width="133" height="121" viewBox="0 0 133 121" fill="none" xmlns="http://www.w3.org/2000/svg">
<g clip-path="url(#clip0_3_36206)">
<path d="M58.5904 80.6882C58.9922 81.2236 59.3176 81.8165 59.7099 82.4189C60.6572 83.9202 67.5802 93.4293 68.5086 95.0646C70.9587 99.4444 73.4187 104.236 75.0277 108.291C75.133 108.511 75.2478 108.664 75.3531 108.884C76.8839 111.083 80.9339 109.47 79.823 106.715C79.7272 106.428 79.6219 106.208 79.526 105.921C77.8981 102 76.0885 97.9157 74.0401 94.0713C73.2361 92.522 72.3652 90.9632 71.4847 89.4714C70.7191 88.1326 63.9014 78.8435 62.9925 77.5527C62.935 77.4762 62.8777 77.3997 62.8203 77.3233L62.8492 77.6008C62.6869 77.7828 59.4211 80.1224 58.5904 80.6882Z" fill="black" stroke="black" stroke-width="0.8" stroke-miterlimit="10"/>
<path d="M78.7535 119.349L78.9353 117.784L80.2083 119.349L96.7268 119.366L96.939 115.768L70.9943 115.507L70.8731 119.279L78.7535 119.349Z" fill="black" stroke="black" stroke-width="0.8" stroke-miterlimit="10"/>
<path d="M83.3605 104.516C87.2703 105.208 95.3629 107.665 96.939 116.011L70.964 115.57L70.9337 107.665C75.2073 109.019 80.5417 108.106 83.3605 104.516Z" fill="#ACBFFF" stroke="black" stroke-width="0.8" stroke-miterlimit="10"/>
<path d="M88.4221 105.775L83.7545 109.618" stroke="black" stroke-width="0.8" stroke-miterlimit="10"/>
<path d="M90.8165 107.035L86.1186 110.909" stroke="black" stroke-width="0.8" stroke-miterlimit="10"/>
<path d="M58.6471 102.875C58.7822 102.875 58.8498 102.875 58.9849 102.875C63.0387 102.739 67.0925 101.927 71.0788 100.777C71.4841 100.641 71.8895 100.506 72.2949 100.371C73.5786 99.9647 74.7948 99.5586 76.0109 99.1526C76.4163 99.0172 76.8216 98.8819 77.227 98.7465C77.3621 98.6789 77.4973 98.6789 77.6324 98.6112C82.3618 96.784 86.3481 93.4679 86.7534 88.0539C86.9561 84.6702 85.74 81.8279 83.7131 79.3916C82.497 80.6774 81.2808 81.8279 80.1998 82.9107C80.943 83.9258 81.4835 85.0763 81.6862 86.2944C82.5645 90.964 78.2405 93.1295 74.5245 94.4154C74.1191 94.5507 73.7137 94.686 73.3759 94.8214C73.3083 94.8214 73.1732 94.8891 73.1057 94.8891C71.7544 95.2951 70.4031 95.7688 68.9843 96.1072C68.6465 96.1749 68.3087 96.3102 67.9708 96.3779C65.0656 97.19 62.0253 97.7314 59.0525 97.8668C58.5796 97.8668 58.1742 98.0021 57.8363 98.2051C55.6743 99.3556 55.9446 102.942 58.6471 102.875Z" fill="black" stroke="black" stroke-width="0.8" stroke-miterlimit="10"/>
<path d="M50.0877 100.449L51.5902 100.921L49.8141 101.878L46.6911 118.098L50.1858 118.983L55.3202 93.5503L51.6377 92.7219L50.0877 100.449Z" fill="black" stroke="black" stroke-width="0.8" stroke-miterlimit="10"/>
<path d="M63.7904 107.763C62.3748 111.473 58.4404 118.959 49.9471 118.938L55.2641 93.5089L63.0338 94.9655C60.9002 98.9082 60.7942 104.319 63.7904 107.763Z" fill="#ACBFFF" stroke="black" stroke-width="0.8" stroke-miterlimit="10"/>
<path d="M61.6012 112.497L58.7051 107.19" stroke="black" stroke-width="0.8" stroke-miterlimit="10"/>
<path d="M59.9139 114.612L56.9926 109.27" stroke="black" stroke-width="0.8" stroke-miterlimit="10"/>
<path d="M104.92 63.2263C104.86 62.862 104.255 59.2192 103.775 56.6903C106.479 58.3208 108.68 60.3332 110.848 62.8092C115.13 67.7821 119.379 73.2186 121.199 79.6948C121.376 80.4023 121.534 81.0526 121.711 81.7602C122.288 84.5751 117.999 85.5382 117.498 82.7594C117.399 82.2808 117.299 81.8021 117.144 81.3444C115.574 75.4192 111.556 70.4766 107.674 65.9344C106.761 64.9223 105.755 64.0095 104.92 63.2263Z" fill="black"/>
<path d="M115.475 83.1074C115.589 83.4483 114.882 83.9723 114.64 84.1919C112.818 85.7147 112.295 88.4746 112.269 90.0857C112.292 90.7174 112.214 92.9245 113.154 93.6572C115.13 95.2149 116.652 90.9236 117.167 89.6399C117.377 90.2648 117.415 90.3785 117.473 90.5489C117.568 90.833 117.683 91.1738 117.779 91.4579C117.95 91.9692 118.086 92.5585 118.258 93.0698C118.566 94.3621 118.763 95.6967 119.071 96.989C119.302 97.8624 119.629 99.2114 120.604 99.4828C121.241 99.6897 121.874 99.1301 122.301 98.7121C122.301 98.7121 122.301 98.7121 122.357 98.6909C122.357 98.6909 124.39 100.419 125.565 97.348C125.81 97.5116 126.129 97.7109 126.428 97.6617C127.568 97.4863 128.191 95.5852 128.446 94.6559C129.122 92.3504 129.364 89.5048 129.067 87.1196C128.772 85.1176 127.936 83.3844 126.468 82.0192C126.185 81.7419 125.921 81.5214 125.583 81.2653C125.319 81.0449 124.682 80.8379 124.53 80.5751C124.53 80.5751 124.79 80.2206 124.827 80.1426C125.03 79.8094 125.214 79.4194 125.287 79.0717C125.43 78.1848 125.049 77.2402 124.223 76.8484C122.966 76.2997 121.567 76.8296 120.335 77.2959C118.88 77.847 117.367 78.2277 115.893 78.7219C111.431 80.0911 114.16 82.3883 114.686 82.6376C115.456 83.0506 115.398 82.8801 115.475 83.1074Z" fill="white" stroke="black" stroke-width="0.8" stroke-miterlimit="10"/>
<path d="M121.415 89.9291C121.415 89.9291 123.065 95.1775 122.503 98.807" stroke="black" stroke-width="0.8" stroke-miterlimit="10"/>
<path d="M125.683 97.5619C125.683 97.5619 126.102 92.572 125.228 89.4219" stroke="black" stroke-width="0.8" stroke-miterlimit="10"/>
<path d="M119.747 90.4617C119.82 90.306 119.819 90.1145 119.669 90.0431C119.519 89.9717 119.352 90.0349 119.278 90.1906C119.205 90.3463 119.207 90.5377 119.357 90.6091C119.451 90.7016 119.618 90.6384 119.747 90.4617Z" fill="black" stroke="black" stroke-width="0.8" stroke-miterlimit="10"/>
<path d="M123.526 89.3191C123.599 89.1634 123.597 88.972 123.448 88.9005C123.298 88.8291 123.13 88.8923 123.057 89.048C122.984 89.2037 122.986 89.3951 123.135 89.4666C123.23 89.5591 123.453 89.4748 123.526 89.3191Z" fill="black" stroke="black" stroke-width="0.8" stroke-miterlimit="10"/>
<path d="M127.092 88.6438C127.165 88.4881 127.164 88.2967 127.014 88.2252C126.864 88.1538 126.696 88.217 126.623 88.3727C126.55 88.5284 126.552 88.7198 126.701 88.7913C126.851 88.8627 127.019 88.7995 127.092 88.6438Z" fill="black" stroke="black" stroke-width="0.8" stroke-miterlimit="10"/>
<path d="M115.481 83.1235L117.178 82.6151" stroke="black" stroke-width="0.8" stroke-miterlimit="10"/>
<path d="M122.916 81.2035L124.39 80.593" stroke="black" stroke-width="0.8" stroke-miterlimit="10"/>
<path d="M51.0948 64.1846C46.0049 67.4167 41.3108 71.589 35.5988 73.587C33.1104 74.4685 30.5654 74.8211 28.4729 73.587C25.7583 72.0004 23.9486 69.1209 22.5913 66.2414C20.9512 62.7743 19.9332 59.0133 18.7455 55.3699C17.8407 52.4904 13.4294 53.7244 14.3343 56.6039C16.653 63.8908 18.7455 72.1179 25.0231 76.8779C31.0179 81.4028 38.5962 77.8769 44.2517 74.4097C47.3622 72.4705 50.303 70.1787 53.4135 68.2394C55.9019 66.7115 53.5832 62.598 51.0948 64.1846Z" fill="black"/>
<path d="M22.0156 59.6016L21.4937 59.834C26.7129 57.7422 24.6252 48.1354 22.1647 46.4309C18.8095 44.4941 18.8095 51.0794 18.8095 51.0794C18.8095 51.0794 16.6472 47.2057 12.2482 44.1067C7.02895 40.3104 7.99825 44.9589 7.99825 44.9589C7.99825 44.9589 5.98511 42.9446 3.82286 44.1842C2.18254 45.4238 4.1211 47.2832 4.1211 47.2832C3.07726 46.8183 0.989578 46.121 0.542217 47.6705C0.169415 49.1425 1.58606 50.4596 2.33166 51.3118C3.45006 52.5514 4.64303 53.6361 5.83599 54.7207C6.20879 55.0306 6.87984 55.4954 7.02896 55.9603C9.11665 63.2429 14.485 62.8555 14.485 62.8555C14.3359 63.5528 14.3359 64.7924 14.7087 65.1798C15.2306 65.7221 16.0507 65.877 16.7963 65.6446C18.3621 65.1023 21.7919 63.7078 23.134 62.6231C24.9234 61.306 22.0156 59.6016 22.0156 59.6016Z" fill="white" stroke="black" stroke-width="0.8" stroke-miterlimit="10"/>
<path d="M7.99817 44.959L13.8139 50.5372" stroke="black" stroke-width="0.8" stroke-miterlimit="10"/>
<path d="M4.12122 47.2832L10.2352 53.0938" stroke="black" stroke-width="0.8" stroke-miterlimit="10"/>
<path d="M8.81836 54.1009L14.4104 50.0723" stroke="black" stroke-width="0.8" stroke-miterlimit="10"/>
<path d="M18.8095 51.0791L18.9586 52.2412C18.9586 52.2412 14.2614 51.9313 14.7833 56.2699" stroke="black" stroke-width="0.8" stroke-miterlimit="10"/>
<path d="M16.1254 62.0806L14.4105 63.0103" stroke="black" stroke-width="0.8" stroke-miterlimit="10"/>
<path d="M98.887 85.3955L87.3951 71.7302L86.7101 72.0805L91.0894 89.6131L79.7089 92.6539L74.1981 70.0227L73.8673 68.664L73.4357 69.9789L66.1778 92.0893L55.1331 88.1749L62.4188 65.9799L62.847 64.6753L61.7907 65.5294L43.9298 79.9727L36.7867 70.3677L50.4859 59.2405L50.1476 58.5295L33.0942 62.0777L30.8035 50.1141L50.6806 46.0441L52.0914 45.7552L50.7198 45.2691L31.4866 38.4525L35.2615 26.9527L54.4133 33.7405L55.7752 34.2231L54.839 33.1032L41.5251 17.1765L50.3469 9.2414L61.7876 22.7973L62.4725 22.4481L58.1729 4.94383L69.4474 1.95628L75.1454 24.8464L75.48 26.1903L75.9074 24.8883L83.2485 2.52417L94.2932 6.4386L86.9798 28.7181L86.5491 30.0303L87.6088 29.1678L105.39 14.696L112.557 24.2184L98.859 35.3441L99.1948 36.0556L116.303 32.6178L118.543 44.4717L98.6352 48.6254L97.2356 48.9175L98.5974 49.4001L117.668 56.159L113.893 67.6588L94.7412 60.871L93.3696 60.3849L94.3165 61.5094L107.658 77.3542L98.887 85.3955Z" fill="#F96F6F" stroke="black" stroke-width="0.8"/>
<path d="M74.9054 45.2822C77.6194 45.4702 79.5191 44.2012 82.0521 44.3422C83.4543 44.4362 84.8113 44.7652 84.8113 46.3162C84.8565 49.1832 82.6854 51.0632 80.0619 52.1912C76.6695 53.6483 72.7343 53.5073 69.3871 51.9562C66.5375 50.6402 63.5974 48.4782 64.2759 45.0942C64.5925 43.5432 65.9042 43.3552 67.2612 43.4492C69.749 43.6372 72.4177 45.1412 74.9054 45.2822Z" fill="white" stroke="black" stroke-width="0.8" stroke-miterlimit="10"/>
<path d="M70.156 44.1074C69.7941 45.0004 69.3871 46.2224 69.2061 47.7264C68.98 49.4655 69.1609 50.9225 69.3418 51.9565" stroke="black" stroke-width="0.8" stroke-miterlimit="10"/>
<path d="M74.9054 45.2822C74.5888 46.2222 74.3174 47.4912 74.2269 48.9952C74.1364 50.7343 74.3174 52.1443 74.5888 53.2253" stroke="black" stroke-width="0.8" stroke-miterlimit="10"/>
<path d="M80.0619 44.4834C79.7905 45.4704 79.5191 46.8334 79.5191 48.5254C79.5191 50.0294 79.7905 51.2984 80.0619 52.1914" stroke="black" stroke-width="0.8" stroke-miterlimit="10"/>
<path d="M72.1521 38.5193C72.0138 39.5877 72.7502 40.555 73.7853 40.7053C74.8203 40.8556 75.7516 40.1016 75.8899 39.0333C76.0282 37.965 75.2919 36.9976 74.2568 36.8473C73.2217 36.697 72.2904 37.451 72.1521 38.5193Z" fill="#E30611" stroke="black" stroke-width="0.8" stroke-miterlimit="10"/>
<path d="M69.6429 40.5445C68.0431 39.9083 66.0028 39.6015 63.8329 39.7505C63.5105 39.7638 63.1881 39.777 62.8618 39.8368C61.238 40.0428 59.7353 40.4491 58.5396 41.0282C57.996 39.2821 57.7031 37.2806 57.6531 35.1168C57.6316 34.2699 57.6518 33.4742 57.7629 32.6881C57.9367 30.5946 58.3681 28.7156 59.0493 27.1443C60.1419 24.4897 61.8476 22.7437 63.7745 22.7571C63.82 22.7618 63.8655 22.7666 63.911 22.7713C66.2891 22.8787 68.4094 25.5402 69.4658 29.4045C69.8845 30.9968 70.1512 32.7609 70.2243 34.6456C70.2166 34.7386 70.2544 34.8364 70.2466 34.9295C70.2588 36.9955 70.0094 38.8934 69.6429 40.5445Z" fill="white" stroke="black" stroke-width="0.8" stroke-miterlimit="10"/>
<path d="M69.4632 29.4183C68.3656 25.5037 66.2917 22.8476 63.9146 22.7403C62.616 24.0121 61.756 26.0804 61.6995 28.4203C61.694 29.5925 61.8782 30.6908 62.2104 31.6638L65.23 30.6653L63.1555 33.5452C64.1393 34.9614 65.5294 35.9041 67.0877 35.926C68.2782 35.9564 69.3708 35.5075 70.3124 34.6675C70.1483 32.7738 69.8817 31.0101 69.4632 29.4183Z" fill="black" stroke="black" stroke-width="0.8" stroke-miterlimit="10"/>
<path d="M89.7631 40.5951L89.7592 40.6416L89.7554 40.6882C89.7515 40.7347 89.7476 40.7812 89.6944 40.8695C89.4746 40.7527 89.2093 40.6312 88.9857 40.5609C88.853 40.5001 88.7204 40.4394 88.5877 40.3786C87.3407 39.92 85.9417 39.6332 84.4363 39.523C83.8447 39.4613 83.2455 39.4926 82.6501 39.4773C82.5591 39.4678 82.5136 39.4631 82.4187 39.5001C80.9888 39.5855 79.7294 39.8294 78.591 40.2736C78.1801 38.5885 77.9705 36.6898 77.9961 34.7218C78.1009 27.9292 80.9835 22.5058 84.4649 22.5876C86.3876 22.6475 88.0803 24.3726 89.1875 27.0688C89.3386 27.4599 89.4859 27.8976 89.6293 28.3818C89.6254 28.4283 89.6671 28.4796 89.6632 28.5261C89.7049 28.5773 89.6971 28.6704 89.7388 28.7217C89.7766 28.8194 89.7727 28.866 89.8105 28.9637C89.8444 29.108 89.8822 29.2058 89.9161 29.3501C89.9462 29.5409 90.0256 29.69 90.0556 29.8808C90.0857 30.0716 90.1158 30.2625 90.1913 30.458C90.2854 30.984 90.3794 31.5099 90.4279 32.0311C90.458 32.2219 90.4881 32.4128 90.4765 32.5523C90.4765 32.5523 90.4765 32.5523 90.4726 32.5988C90.4988 32.8362 90.5212 33.12 90.5474 33.3574C90.5774 33.5482 90.562 33.7342 90.5465 33.9203C90.535 34.0599 90.5689 34.2042 90.5573 34.3437C90.5534 34.3902 90.5534 34.3902 90.5496 34.4368C90.5341 34.6228 90.5642 34.8137 90.5449 35.0462C90.5192 37.0142 90.27 38.912 89.7631 40.5951Z" fill="white" stroke="black" stroke-width="0.8" stroke-miterlimit="10"/>
<path d="M89.8679 29.3613C88.8611 25.4557 86.7945 22.7063 84.4168 22.5988C83.0724 23.8661 82.1706 25.8834 82.0686 28.2188C82.0176 29.3865 82.2018 30.4849 82.4886 31.4533L85.4024 30.6313L83.3429 33.3254C84.2775 34.7837 85.668 35.7264 87.2228 35.7949C88.4097 35.8719 89.5481 35.4276 90.4898 34.5875C90.5039 32.7591 90.2866 30.9534 89.8679 29.3613Z" fill="black" stroke="black" stroke-width="0.8" stroke-miterlimit="10"/>
<path d="M54.8361 54.2031L60.2624 56.7632L69.4605 61.2814L65.1224 70.4968L44.7073 56.4649L54.8361 54.2031Z" fill="white"/>
<path d="M93.3566 56.7186L78.6443 62.1635L79.8886 71.915L101.463 59.8182L93.3566 56.7186Z" fill="white"/>
<path d="M54.8361 54.2031L60.2624 56.7632L69.4605 61.2814L65.1224 70.4968L44.7073 56.4649L54.8361 54.2031Z" stroke="black" stroke-width="0.8"/>
<path d="M93.3566 56.7186L78.6443 62.1635L79.8886 71.915L101.463 59.8182L93.3566 56.7186Z" stroke="black" stroke-width="0.8"/>
<path d="M69.0024 61.927L78.0894 62.079L73.6638 69.5455L77.6887 74.6066L76.1946 98.6471L72.3808 103.928L68.6458 97.7908L69.5401 73.6859L73.6638 69.5455L69.0024 61.927Z" fill="#5663F1"/>
<path d="M73.6638 69.5455L78.0894 62.079L69.0024 61.927L73.6638 69.5455ZM73.6638 69.5455L69.5401 73.6859L68.6458 97.7908L72.3808 103.928L76.1946 98.6471L77.6887 74.6066L73.6638 69.5455Z" stroke="black" stroke-width="0.8"/>
</g>
<defs>
<clipPath id="clip0_3_36206">
<rect width="131.977" height="120" fill="white" transform="translate(0.366699 0.241699)"/>
</clipPath>
</defs>
</svg>
