<svg width="118" height="125" viewBox="0 0 118 125" fill="none" xmlns="http://www.w3.org/2000/svg">
<path d="M70.3462 110.132C70.4547 113.519 67.4034 114.608 66.0505 112.763C65.698 112.26 65.4702 111.595 65.488 110.77C65.3547 105.732 62.0761 88.4276 60.9067 83.6975C60.7927 83.3648 60.7411 82.951 60.6272 82.6184C62.3932 82.1613 63.9776 81.7003 65.4445 81.0716C66.9076 86.2209 70.1738 104.103 70.3605 109.472C70.3569 109.637 70.3516 109.884 70.3462 110.132Z" fill="black" stroke="black" stroke-width="0.8" stroke-miterlimit="10"/>
<path d="M64.8535 112.445C64.8535 112.445 61.7542 109.655 68.2361 109.785C75.1738 109.918 70.6645 112.641 70.6645 112.641L71.6589 113.256C71.6589 113.256 79.388 107.761 81.8966 113.699C84.4051 119.637 76.329 120.279 71.4118 120.149C66.4946 120.018 61.1 120.856 64.8535 112.445Z" fill="#E30611" stroke="black" stroke-width="0.8" stroke-miterlimit="10"/>
<path d="M64.8538 112.445C64.8538 112.445 65.9083 113.078 67.6283 112.993Z" fill="black"/>
<path d="M64.8538 112.445C64.8538 112.445 65.9083 113.078 67.6283 112.993" stroke="black" stroke-width="0.8" stroke-miterlimit="10"/>
<path d="M69.4854 112.883C69.4854 112.883 69.8635 112.928 70.6218 112.563Z" fill="black"/>
<path d="M69.4854 112.883C69.4854 112.883 69.8635 112.928 70.6218 112.563" stroke="black" stroke-width="0.8" stroke-miterlimit="10"/>
<path d="M71.6589 113.256L69.3196 115.243" stroke="black" stroke-width="0.8" stroke-miterlimit="10"/>
<path d="M71.6589 113.255L71.3806 115.778" stroke="black" stroke-width="0.8" stroke-miterlimit="10"/>
<path d="M78.4052 112.031C78.6281 112.161 78.851 112.291 78.9964 112.463C79.2193 112.593 79.3646 112.766 79.51 112.938C79.8608 113.301 80.1515 113.646 80.2871 114.076C80.5002 114.464 80.6183 114.954 80.6762 115.426C80.7342 115.899 80.7146 116.414 80.7125 116.869L80.7726 116.886C80.8425 116.646 80.8523 116.389 80.9222 116.149C80.932 115.891 81.0019 115.651 80.9516 115.376C80.9712 114.861 80.793 114.354 80.5974 113.906C80.146 112.993 79.3493 112.371 78.4052 112.031Z" fill="white"/>
<path d="M44.5047 86.9929C43.6391 90.6236 43.6641 102.689 39.5094 105.183C37.0408 107.332 34.0655 107.708 31.237 106.892C27.3259 105.738 24.8395 103.104 23.8377 101.824L23.7799 101.697C23.1345 100.739 23.0998 99.5431 23.6044 98.6102C23.9825 97.9262 24.5987 97.4361 25.3291 97.2632C25.7555 97.1465 26.1778 97.2186 26.5369 97.4151C26.7171 97.4819 26.8354 97.6103 26.9538 97.7387C28.4908 99.4708 33.3561 104.106 37.3787 100.103C38.3675 99.1809 39.3865 88.4553 39.9088 86.7048C41.4192 86.8633 42.931 86.9589 44.5047 86.9929Z" fill="black" stroke="black" stroke-width="0.8" stroke-miterlimit="10"/>
<path d="M26.9496 97.1219C26.9496 97.1219 31.0324 96.2725 27.0945 101.423C22.885 106.939 23.3559 101.693 23.3559 101.693L22.2719 102.131C22.2719 102.131 22.1329 111.613 15.8609 110.125C9.58898 108.637 13.8466 101.744 16.8593 97.8559C19.8719 93.9674 22.3866 89.1219 26.9496 97.1219Z" fill="#E30611" stroke="black" stroke-width="0.8" stroke-miterlimit="10"/>
<path d="M26.9495 97.1223C26.9495 97.1223 25.8158 97.5986 24.8672 99.0359Z" fill="black"/>
<path d="M26.9495 97.1223C26.9495 97.1223 25.8158 97.5986 24.8672 99.0359" stroke="black" stroke-width="0.8" stroke-miterlimit="10"/>
<path d="M23.8577 100.599C23.8577 100.599 23.5979 100.877 23.4438 101.704Z" fill="black"/>
<path d="M23.8577 100.599C23.8577 100.599 23.5979 100.877 23.4438 101.704" stroke="black" stroke-width="0.8" stroke-miterlimit="10"/>
<path d="M22.2721 102.131L22.0525 99.0693" stroke="black" stroke-width="0.8" stroke-miterlimit="10"/>
<path d="M22.2721 102.131L20.4023 100.415" stroke="black" stroke-width="0.8" stroke-miterlimit="10"/>
<path d="M19.2706 108.296C19.034 108.399 18.7973 108.501 18.5722 108.517C18.3355 108.62 18.1105 108.635 17.8854 108.65C17.3856 108.719 16.9354 108.749 16.5085 108.604C16.0699 108.547 15.6049 108.352 15.1896 108.119C14.7742 107.887 14.3705 107.566 14.0048 107.296L13.9551 107.334C14.1074 107.532 14.3092 107.692 14.4614 107.891C14.6633 108.051 14.8155 108.249 15.0671 108.371C15.4708 108.691 15.9855 108.848 16.4621 108.955C17.465 109.13 18.4381 108.856 19.2706 108.296Z" fill="white"/>
<path d="M6.96858 28.9713C7.88675 28.7874 9.08037 29.3852 9.2181 30.3968C10.0904 36.9726 11.1922 43.4563 13.304 49.7562C14.1303 52.1933 15.278 54.8144 17.3898 56.4239C19.5475 58.1253 22.1643 58.4931 24.827 58.4472C28.1324 58.3552 31.346 57.7114 34.6514 57.6194C35.6614 57.5735 36.4878 58.6311 36.4418 59.5968C36.3959 60.6084 35.4778 61.2982 34.4678 61.2982C28.4079 61.5281 21.8888 63.5974 16.288 60.1946C13.5794 58.5391 11.7431 55.872 10.5494 53.021C9.30991 50.0321 8.43765 46.8592 7.65721 43.7322C6.64722 39.5937 6.05041 35.3631 5.49951 31.1786C5.40769 30.1669 5.91268 29.2012 6.96858 28.9713Z" fill="black"/>
<path d="M7.19812 28.8336C7.19812 28.8336 8.29992 19.2229 11.6512 19.8207C14.268 20.3265 11.4676 29.5234 11.4676 29.5234L7.19812 28.8336Z" fill="white" stroke="black" stroke-width="0.8" stroke-miterlimit="10"/>
<path d="M3.84663 28.9715C3.84663 28.9715 -0.331045 20.4184 3.02028 19.8206C6.3716 19.2228 7.4734 28.5116 7.4734 28.5116L3.84663 28.9715Z" fill="white" stroke="black" stroke-width="0.8" stroke-miterlimit="10"/>
<path d="M12.5234 30.075C12.5234 30.075 15.5992 34.1216 11.8806 36.6967C11.8806 36.6967 13.8088 38.1682 11.5134 39.2718C9.21795 40.3754 4.12211 40.7433 5.04028 37.9842C5.04028 37.9842 -0.147385 35.9149 2.05622 30.4428L12.5234 30.075Z" fill="white" stroke="black" stroke-width="0.8" stroke-miterlimit="10"/>
<path d="M11.9266 36.6509C11.9266 36.6509 10.733 37.3866 9.67712 37.5706" stroke="black" stroke-width="0.8" stroke-miterlimit="10"/>
<path d="M7.28979 37.8923C7.28979 37.8923 6.37162 38.1219 5.08618 37.9842" stroke="black" stroke-width="0.8" stroke-miterlimit="10"/>
<path d="M1.45948 28.0518C2.01038 27.7759 2.79083 27.8679 3.34173 28.1897C4.16808 28.6496 4.62717 29.6153 4.90262 30.489C5.13216 31.2247 5.22398 32.1904 4.48944 32.7422C3.43355 33.4779 2.37765 32.6962 1.68902 31.8685C1.04631 31.0867 0.495403 29.9831 0.724945 28.9715C0.862671 28.5116 1.13812 28.1897 1.45948 28.0518Z" fill="white" stroke="black" stroke-width="0.8" stroke-miterlimit="10"/>
<path d="M12.5693 30.1211C10.7789 28.2358 6.5553 28.4197 5.04032 28.5117C4.16806 28.5577 3.24989 28.7876 2.97444 29.6153C1.96445 32.3744 8.1621 33.2021 8.1621 33.2021C8.1621 33.2021 7.6112 35.1794 9.35572 35.6852" fill="white"/>
<path d="M12.5693 30.1211C10.7789 28.2358 6.5553 28.4197 5.04032 28.5117C4.16806 28.5577 3.24989 28.7876 2.97444 29.6153C1.96445 32.3744 8.1621 33.2021 8.1621 33.2021C8.1621 33.2021 7.6112 35.1794 9.35572 35.6852" stroke="black" stroke-width="0.8" stroke-miterlimit="10"/>
<path d="M66.3345 22.1775L93.2305 68.7629C97.6954 76.4962 92.1143 86.1629 83.1846 86.1629H29.3925C20.4628 86.1629 14.8818 76.4962 19.3466 68.7629L46.2427 22.1775C50.7075 14.4442 61.8696 14.4442 66.3345 22.1775Z" fill="#D9D9D9" stroke="black" stroke-width="0.8"/>
<path d="M66.6864 14.9263C66.6864 14.9263 77.5577 17.1822 76.1125 26.1269L55.9829 27.7449L35.9836 27.6283C34.2951 21.0682 42.6207 16.9763 42.6207 16.9763C42.742 16.9107 42.5672 13.3316 42.6191 13.0209C42.6838 11.1648 43.1244 9.48241 44.1217 7.84437C46.1723 4.38115 49.9667 1.41964 54.1494 0.979907C59.8676 0.306772 64.8768 4.53819 66.3355 9.68402C66.6153 10.7259 66.7718 11.7717 66.805 12.8213C66.7472 12.9467 66.5611 14.8684 66.6864 14.9263Z" fill="#5663F1" stroke="black" stroke-width="0.8" stroke-miterlimit="10"/>
<path d="M35.6685 35.2409C40.7525 34.0315 56.4572 31.0689 78.7572 33.7085C79.996 33.8552 81.0765 32.8945 80.9778 31.7235C80.8849 30.7378 80.977 29.7462 80.7608 28.7643C80.3843 26.6133 79.362 23.5557 76.6954 23.1447C72.4796 22.535 66.9848 22.4596 61.858 22.3109C53.5791 22.0136 43.2872 22.4589 34.869 25.5645C34.3817 25.7652 33.9618 26.149 33.7925 26.6487C33.3921 27.6499 33.0015 28.9597 32.929 30.5686C32.8466 31.8688 33.007 33.0378 33.2848 34.0178C33.5587 34.8743 34.5647 35.4608 35.6685 35.2409Z" fill="#5663F1" stroke="black" stroke-width="0.8" stroke-miterlimit="10"/>
<path d="M42.6403 23.4675L43.52 33.7005" stroke="black" stroke-width="0.8" stroke-miterlimit="10"/>
<path d="M52.1094 22.3669L52.5682 32.9841" stroke="black" stroke-width="0.8" stroke-miterlimit="10"/>
<path d="M61.6733 22.3145L61.8174 32.756" stroke="black" stroke-width="0.8" stroke-miterlimit="10"/>
<path d="M71.2464 22.5707L71.0745 32.7748" stroke="black" stroke-width="0.8" stroke-miterlimit="10"/>
<path d="M50.3438 67.688C53.1902 69.7573 56.9088 70.2171 60.2601 69.2974C61.4537 68.9755 62.7391 68.4237 63.8868 67.642C65.6773 66.4464 67.0086 64.745 66.9627 62.5378C66.8709 60.5145 65.3559 59.9626 63.5655 59.9626C62.0046 59.9626 60.2142 60.4225 59.1124 60.6984C58.1483 60.9283 57.2301 61.1122 56.2201 61.0663C54.6592 60.9743 53.1902 60.2845 51.6752 60.1006C51.3538 60.0546 51.0325 60.0546 50.6652 60.1006C49.6093 60.1466 48.4157 60.4225 47.727 61.1123C45.7071 63.0896 48.7829 66.4924 50.3438 67.688Z" fill="black" stroke="black" stroke-width="0.8" stroke-miterlimit="10"/>
<path d="M50.3438 67.6878C53.1902 69.7571 56.9087 70.2169 60.2601 69.2972C61.4537 68.9753 62.7391 68.4235 63.8868 67.6418C62.5096 65.7564 59.9846 64.5149 57.1383 64.5149C54.2001 64.4689 51.7211 65.7564 50.3438 67.6878Z" fill="#E30611" stroke="black" stroke-width="0.8" stroke-miterlimit="10"/>
<path d="M87.154 79.477C86.7113 76.8349 84.2955 75.38 81.7312 76.2789C79.1605 77.14 77.4281 79.9943 77.8331 82.6427C78.2759 85.2848 80.6916 86.7398 83.256 85.8409C85.8266 84.9797 87.5968 82.1191 87.154 79.477ZM82.6441 83.8095C81.1042 84.3413 79.6384 83.4634 79.3728 81.8781C79.1071 80.2929 80.1428 78.6042 81.6827 78.0725C83.2225 77.5407 84.6884 78.4186 84.954 80.0039C85.2197 81.5891 84.1903 83.3155 82.6441 83.8095Z" fill="#F96F6F" stroke="black" stroke-width="0.8" stroke-miterlimit="10"/>
<path d="M79.9667 74.0498C79.9667 74.0498 82.0506 89.7249 69.7302 90.9521C58.0572 92.1088 57.1864 76.2675 57.1864 76.2675L79.9667 74.0498Z" fill="#F96F6F" stroke="black" stroke-width="0.8" stroke-miterlimit="10"/>
<path d="M79.9487 74.0389C79.7729 72.2101 74.5359 71.2228 68.2514 71.8336C61.967 72.4445 57.0149 74.4222 57.1907 76.251C57.3664 78.0797 62.6035 79.0671 68.8879 78.4562C75.1724 77.8453 80.1244 75.8676 79.9487 74.0389Z" fill="#F96F6F" stroke="black" stroke-width="0.8" stroke-miterlimit="10"/>
<path d="M57.941 77.2987C57.507 77.0229 57.2616 76.7153 57.1607 76.3446C58.7112 74.4928 61.0987 73.7019 63.8397 74.3251C65.9395 74.8239 67.4675 75.613 69.5343 74.5273C71.6323 73.3975 73.2843 72.3818 75.8241 72.9614C77.1128 73.248 78.6969 73.446 79.9671 74.0848C80.0381 75.8955 75.1314 77.8484 68.9097 78.4333C64.1775 78.8831 60.0351 78.4577 58.1925 77.4114" fill="black"/>
<path d="M57.941 77.2987C57.507 77.0229 57.2616 76.7153 57.1607 76.3446C58.7112 74.4928 61.0987 73.7019 63.8397 74.3251C65.9395 74.8239 67.4675 75.613 69.5343 74.5273C71.6323 73.3975 73.2843 72.3818 75.8241 72.9614C77.1128 73.248 78.6969 73.446 79.9671 74.0848C80.0381 75.8955 75.1314 77.8484 68.9097 78.4333C64.1775 78.8831 60.0351 78.4577 58.1925 77.4114" stroke="black" stroke-width="0.8" stroke-miterlimit="10"/>
<path d="M73.3221 73.7731C74.1577 73.438 75.0816 73.3985 75.9617 73.5603C76.8419 73.7221 77.6782 74.0853 78.4518 74.5367C78.5839 74.6307 78.4647 74.8449 78.3326 74.7508C77.5654 74.3371 76.773 74.0053 75.9306 73.8371C75.0882 73.6689 74.2083 73.7399 73.3663 74.0372C73.2219 74.1004 73.1776 73.8363 73.3221 73.7731Z" fill="white"/>
<path d="M57.9413 77.2954C58.2361 76.7413 58.6567 76.2436 59.178 75.884C59.8311 75.3858 60.5976 75.1012 61.4272 74.9612C61.9173 74.8784 62.3824 74.8775 62.8916 74.908C63.0487 74.9202 63.049 75.153 62.8918 75.1407C61.3204 75.018 59.693 75.4867 58.6572 76.709C58.4626 76.9359 58.3057 77.1563 58.1928 77.4081L57.9413 77.2954Z" fill="white"/>
<path d="M72.3419 73.9369C72.4488 73.88 72.562 73.8609 72.6688 73.8039C72.7443 73.7912 72.7884 73.8226 72.8388 73.8919C72.8515 73.9675 72.8201 74.0117 72.7509 74.0622C72.6755 74.075 72.5686 74.1319 72.4932 74.1446L72.4554 74.151C72.4177 74.1573 72.38 74.1637 72.38 74.1637C72.3422 74.1701 72.3359 74.1323 72.2918 74.1008C72.2855 74.063 72.2791 74.0252 72.2791 74.0252C72.3105 73.9811 72.3419 73.9369 72.3419 73.9369Z" fill="white"/>
<path d="M63.6014 74.983C63.7524 74.9575 63.8783 75.0141 64.0105 75.1084C64.0546 75.1398 64.105 75.2091 64.0422 75.2975C64.0108 75.3417 63.9417 75.3922 63.8535 75.3293C63.8158 75.3357 63.8094 75.2979 63.7717 75.3043C63.7276 75.2728 63.6899 75.2792 63.6521 75.2856C63.6144 75.2919 63.6144 75.2919 63.5767 75.2983C63.5012 75.3111 63.4508 75.2418 63.4381 75.1662C63.4945 75.04 63.5259 74.9958 63.6014 74.983Z" fill="white"/>
<path d="M77.5173 75.2014C78.0715 75.9618 78.563 76.8105 78.9412 77.6784C79.206 78.3324 79.6787 79.3008 79.1257 79.9378C78.7989 80.3035 78.2265 80.3614 77.8299 80.079C77.383 79.7275 77.3132 79.0793 77.2624 78.5444C77.1608 77.4745 77.2919 76.4041 77.4985 75.321C77.4985 75.321 77.4922 75.2833 77.5173 75.2014Z" fill="black" stroke="black" stroke-width="0.8" stroke-miterlimit="10"/>
<path d="M77.4957 78.0774C77.5208 77.9956 77.5836 77.9073 77.6654 77.9323C77.7472 77.9573 77.8353 78.0201 77.8102 78.102C77.7791 78.379 77.7793 78.6119 77.8613 78.8698C77.937 79.09 78.0568 79.3415 78.2708 79.4606C78.3526 79.4856 78.3716 79.5989 78.3088 79.6872C78.246 79.7754 78.1705 79.7882 78.0823 79.7254C77.8243 79.5749 77.6541 79.2542 77.5657 78.9585C77.4837 78.7006 77.4267 78.3608 77.4957 78.0774Z" fill="white"/>
<path d="M77.5452 47.2969C77.0094 44.0165 74.1017 41.7143 70.8429 41.8582C70.5388 41.8577 70.2864 41.886 69.9937 41.9257C66.4352 42.5458 64.0451 45.9189 64.6202 49.4923C65.2355 53.0542 68.6019 55.4434 72.1717 54.8635C72.4644 54.8238 72.7457 54.7438 73.027 54.6639C76.0988 53.7041 78.0923 50.6175 77.5452 47.2969Z" fill="white" stroke="black" stroke-width="0.8" stroke-miterlimit="10"/>
<path d="M73.027 54.664C72.0834 53.6286 71.2559 52.0822 70.7159 50.3238L74.7329 47.7919L70.0892 46.7217C70.0026 44.8779 70.2943 43.1439 70.8429 41.8583C74.0615 41.7258 76.9693 44.028 77.5452 47.297C78.0923 50.6176 76.0988 53.7042 73.027 54.664Z" fill="black" stroke="black" stroke-width="0.8" stroke-miterlimit="10"/>
<path d="M49.7274 46.8426C49.2436 43.5537 46.373 41.2048 43.1127 41.2963C42.8087 41.2909 42.5558 41.3151 42.2626 41.3501C38.6952 41.913 36.2522 45.2476 36.7706 48.8301C37.3294 52.4019 40.6572 54.8451 44.2354 54.3226C44.5286 54.2876 44.8111 54.2122 45.0937 54.1368C48.1799 53.2264 50.2218 50.1719 49.7274 46.8426Z" fill="white" stroke="black" stroke-width="0.8" stroke-miterlimit="10"/>
<path d="M45.0936 54.1369C44.1666 53.0864 43.3637 51.5268 42.8517 49.7597L46.9078 47.2925L42.2822 46.1476C42.2247 44.3024 42.5438 42.5731 43.1126 41.2964C46.3326 41.2157 49.2032 43.5646 49.7273 46.8427C50.2218 50.1721 48.1798 53.2266 45.0936 54.1369Z" fill="black" stroke="black" stroke-width="0.8" stroke-miterlimit="10"/>
<circle cx="8.75465" cy="8.75465" r="8.35465" transform="matrix(-1 0 0 1 82.043 39.4639)" stroke="black" stroke-width="0.8"/>
<circle cx="8.75465" cy="8.75465" r="8.35465" transform="matrix(-1 0 0 1 54.1328 38.771)" stroke="black" stroke-width="0.8"/>
<rect width="10.2859" height="0.692716" transform="matrix(-1 0 0 1 64.4268 47.5259)" fill="black"/>
<path d="M115.6 75.692C113.256 79.2287 108.284 80.2289 104.382 80.8821C102.886 81.1365 101.379 81.2995 99.868 81.4167C99.1833 81.4908 98.448 81.5241 97.7633 81.5981C97.7176 81.6031 97.7176 81.6031 97.672 81.608C96.891 81.6463 96.0644 81.6894 95.2884 81.7734C94.8319 81.8228 94.4162 81.8215 93.9597 81.8709C93.5945 81.9104 93.2244 81.9042 92.8592 81.9437C90.5164 82.0584 88.1785 82.2188 85.8553 82.5164C84.851 82.625 83.8383 82.2259 83.5834 81.1437C83.5687 81.0066 83.5539 80.8695 83.5392 80.7323C83.542 79.8997 84.0877 78.9621 84.955 78.8683C85.2745 78.8337 85.5941 78.7992 85.9136 78.7646C86.0506 78.7498 86.1875 78.735 86.3245 78.7201C89.2003 78.4091 92.0958 78.2808 94.9408 78.1118C95.6305 78.0834 96.2695 78.0143 96.9592 77.9859C97.2331 77.9563 97.4613 77.9316 97.7401 77.9477C98.5211 77.9094 99.3427 77.8206 100.119 77.7366C102.497 77.5255 104.856 77.1316 107.15 76.5598C108.723 76.1585 110.109 75.7311 111.39 74.7603C111.862 74.4317 112.234 74.0216 112.464 73.5806C112.387 73.7276 112.587 73.0123 112.561 73.2001C112.577 72.9209 112.563 72.7838 112.507 72.6973C111.985 71.2741 110.401 70.2894 109.171 69.5901C105.973 67.7628 102.234 66.9187 98.637 66.1056C94.3257 65.0923 95.3749 65.2026 91.1028 64.5328C91.1028 64.5328 90.3113 63.1057 89.9385 62.4878C89.339 61.4939 88.755 60.4006 88.755 60.4006C90.9595 60.717 96.8364 61.8151 99.0149 62.3193C103.042 63.2708 107.207 64.2075 110.846 66.2647C114.257 67.9302 118.179 71.7601 115.6 75.692Z" fill="black"/>
<path d="M94.6338 75.231C94.6338 75.231 96.5572 73.3582 97.2003 75.0455C97.708 76.3314 97.8902 79.3171 97.9413 80.6524C97.9595 81.2515 97.6581 81.8852 97.1347 82.1731C96.7842 82.3498 95.7602 82.2757 95.2692 82.0052C94.4298 82.7897 93.3852 84.2437 91.0406 84.775C89.2845 85.1964 87.3474 85.2212 85.5894 84.7643C84.6876 84.5383 83.8574 84.1196 83.2717 83.397C82.9487 82.9696 82.6664 82.4916 82.6074 81.9431C82.578 81.6689 82.5991 81.4354 82.7066 81.1463C82.7473 81.0957 82.9673 80.5633 82.9673 80.5633C82.9673 80.5633 81.1287 78.4968 83.517 77.0822C83.517 77.0822 80.8821 73.6224 86.5812 73.7912C86.9057 73.8023 87.0632 72.2595 88.2679 71.4354C88.4407 71.3243 89.7367 70.4903 91.1962 70.7484C92.995 71.1547 94.4796 72.9359 94.6338 75.231Z" fill="white" stroke="black" stroke-width="0.8" stroke-miterlimit="10"/>
<path d="M83.6245 77.208L85.8195 77.4331" stroke="black" stroke-width="0.8" stroke-miterlimit="10"/>
<path d="M83.0254 80.6489L85.2962 80.7264" stroke="black" stroke-width="0.8" stroke-miterlimit="10"/>
<path d="M86.6365 73.8765L89.8 74.0891" stroke="black" stroke-width="0.8" stroke-miterlimit="10"/>
<path d="M94.6322 75.2319L94.8734 77.4722" stroke="black" stroke-width="0.8" stroke-miterlimit="10"/>
<path d="M95.0972 80.4082L95.32 82.0491" stroke="black" stroke-width="0.8" stroke-miterlimit="10"/>
<path d="M57.5356 49.9126L57.9069 52.8255C57.9069 52.8255 62.5474 51.9578 62.8568 54.3749C63.1662 56.7919 57.7213 56.4201 57.7213 56.4201" fill="#D9D9D9"/>
<path d="M57.5356 49.9126L57.9069 52.8255C57.9069 52.8255 62.5474 51.9578 62.8568 54.3749C63.1662 56.7919 57.7213 56.4201 57.7213 56.4201" stroke="black" stroke-width="0.8" stroke-miterlimit="10"/>
</svg>
