<svg width="111" height="142" viewBox="0 0 111 142" fill="none" xmlns="http://www.w3.org/2000/svg">
    <path d="M46.0295 67.9848C34.5261 84.5844 33.1728 109.408 37.1713 129.856C38.1555 134.76 44.3686 132.949 43.3843 128.045C40.001 110.615 40.4316 88.0552 50.3971 73.7192C53.0423 69.9466 48.7362 64.1368 46.0295 67.9848Z" fill="black"/>
    <path d="M34.8327 126.111L46.0363 125.809L46.4149 140.069L19.1626 140.296L19.0112 137.051C19.0112 137.051 20.7523 130.864 34.9084 132.524L34.8327 126.111Z" fill="#F96F6F" stroke="black" stroke-width="0.8" stroke-miterlimit="10"/>
    <path d="M26.8841 132.449C20.071 133.43 19.0112 137.052 19.0112 137.052L19.1626 140.296L28.928 140.221C28.6252 137.504 28.0196 134.939 26.8841 132.449Z" fill="white" stroke="black" stroke-width="0.8" stroke-miterlimit="10"/>
    <path d="M46.2635 136.599L19.0112 137.052L19.1626 140.296L46.4149 140.07L46.2635 136.599Z" fill="white" stroke="black" stroke-width="0.8" stroke-miterlimit="10"/>
    <path d="M35.0601 128.677V128.299L39.9049 128.148V128.526L35.0601 128.677Z" fill="white"/>
    <path d="M39.9015 130.662L35.1338 130.785L35.1416 131.087L39.9093 130.964L39.9015 130.662Z" fill="white"/>
    <path d="M40.1319 128.602C40.2991 128.602 40.4347 128.466 40.4347 128.299C40.4347 128.133 40.2991 127.997 40.1319 127.997C39.9647 127.997 39.8291 128.133 39.8291 128.299C39.8291 128.466 39.9647 128.602 40.1319 128.602Z" fill="white" stroke="white" stroke-width="0.8" stroke-miterlimit="10"/>
    <path d="M40.2076 131.092C40.3748 131.092 40.5104 130.956 40.5104 130.789C40.5104 130.622 40.3748 130.487 40.2076 130.487C40.0404 130.487 39.9048 130.622 39.9048 130.789C39.9048 130.956 40.0404 131.092 40.2076 131.092Z" fill="white" stroke="white" stroke-width="0.8" stroke-miterlimit="10"/>
    <path d="M59.5904 71.6673C71.2796 87.7054 72.6548 111.69 68.5917 131.445C67.5916 136.184 61.2781 134.434 62.2783 129.696C65.7163 112.856 65.2787 91.0588 55.1522 77.2078C52.4643 73.5628 56.9025 67.9494 59.5904 71.6673Z" fill="black"/>
    <path d="M71.977 127.536L61.1523 127.245L60.7866 141.023L87.117 141.241L87.2633 138.107C87.2633 138.107 85.581 132.129 71.9039 133.733L71.977 127.536Z" fill="#F96F6F" stroke="black" stroke-width="0.8" stroke-miterlimit="10"/>
    <path d="M79.6569 133.66C86.2395 134.608 87.2635 138.107 87.2635 138.107L87.1172 141.242L77.6821 141.169C77.9747 138.545 78.5598 136.066 79.6569 133.66Z" fill="white" stroke="black" stroke-width="0.8" stroke-miterlimit="10"/>
    <path d="M60.9329 137.67L87.2633 138.107L87.117 141.242L60.7866 141.023L60.9329 137.67Z" fill="white" stroke="black" stroke-width="0.8" stroke-miterlimit="10"/>
    <path d="M71.7581 130.016V129.651L67.0771 129.505V129.87L71.7581 130.016Z" fill="white"/>
    <path d="M67.1379 131.939L67.1304 132.231L71.7368 132.35L71.7443 132.058L67.1379 131.939Z" fill="white"/>
    <path d="M66.8575 129.943C67.0191 129.943 67.1501 129.812 67.1501 129.651C67.1501 129.489 67.0191 129.359 66.8575 129.359C66.6959 129.359 66.5649 129.489 66.5649 129.651C66.5649 129.812 66.6959 129.943 66.8575 129.943Z" fill="white" stroke="white" stroke-width="0.8" stroke-miterlimit="10"/>
    <path d="M66.8575 132.349C67.0191 132.349 67.1501 132.218 67.1501 132.057C67.1501 131.895 67.0191 131.765 66.8575 131.765C66.6959 131.765 66.5649 131.895 66.5649 132.057C66.5649 132.218 66.6959 132.349 66.8575 132.349Z" fill="white" stroke="white" stroke-width="0.8" stroke-miterlimit="10"/>
    <path d="M92.3409 69.907L92.3409 69.9072C91.9171 71.2238 92.1366 72.8191 92.5985 74.4696C93.0026 75.9134 93.6115 77.4609 94.21 78.9819C94.2994 79.2093 94.3887 79.4361 94.4769 79.6619C95.1617 81.4129 95.7891 83.1019 96.0719 84.5952C96.3561 86.096 96.2735 87.3057 95.6514 88.1694C95.0217 89.0406 93.9004 89.4974 92.3939 89.691C90.8938 89.8838 89.1038 89.8046 87.2393 89.688C86.9861 89.6722 86.7315 89.6557 86.4763 89.6391C84.8689 89.5348 83.2364 89.4288 81.7654 89.4839C80.0713 89.5474 78.5037 89.8252 77.4029 90.6362C76.3095 91.4369 75.5744 92.8524 74.9996 94.4556C74.5075 95.828 74.1127 97.4008 73.7227 98.9539C73.6543 99.2264 73.586 99.4983 73.5174 99.7684C73.0537 101.594 72.5741 103.338 71.9235 104.721C71.27 106.109 70.4827 107.048 69.452 107.385L69.4519 107.385C68.4677 107.708 67.319 107.412 65.9998 106.672C64.6882 105.936 63.2945 104.81 61.8546 103.61C61.6908 103.474 61.5264 103.336 61.3615 103.198C60.0899 102.135 58.7912 101.049 57.5236 100.199C56.0994 99.245 54.6471 98.5414 53.2528 98.5414C51.8586 98.5414 50.4063 99.2443 48.9821 100.198C47.7133 101.047 46.4133 102.134 45.1404 103.198C44.9768 103.334 44.8137 103.471 44.6511 103.606C43.2112 104.806 41.8174 105.931 40.5057 106.668C39.1863 107.409 38.0373 107.705 37.0529 107.385C36.0225 107.047 35.2348 106.109 34.5805 104.72C33.9291 103.338 33.4486 101.594 32.9842 99.7683C32.9147 99.4952 32.8456 99.2203 32.7764 98.9447C32.3867 97.3946 31.9923 95.8253 31.5016 94.4557C30.9274 92.8527 30.1937 91.4372 29.1031 90.6365C28.0022 89.8279 26.4343 89.552 24.7398 89.49C23.2714 89.4363 21.6421 89.5427 20.0374 89.6475C19.7794 89.6644 19.5221 89.6812 19.2661 89.6973C17.4017 89.8145 15.6117 89.894 14.1116 89.7014C12.6051 89.5079 11.4838 89.0511 10.8542 88.1799C10.2321 87.3163 10.1494 86.1066 10.4337 84.6057C10.7165 83.1124 11.3439 81.4234 12.0286 79.6724C12.1169 79.4466 12.2062 79.2198 12.2956 78.9924C12.8941 77.4714 13.503 75.9239 13.9071 74.4801C14.369 72.8296 14.5885 71.2343 14.1647 69.9177L14.1646 69.9175C13.7525 68.639 12.6473 67.5099 11.316 66.4729C10.1978 65.6018 8.86743 64.7573 7.54943 63.9206C7.2885 63.755 7.02806 63.5897 6.76984 63.4245C5.19318 62.416 3.69738 61.4124 2.59548 60.3517C1.49004 59.2875 0.843359 58.2249 0.843359 57.1041C0.843359 55.9834 1.49004 54.9207 2.59548 53.8565C3.69738 52.7958 5.19318 51.7922 6.76984 50.7837C7.02804 50.6185 7.28847 50.4532 7.54938 50.2876C8.8674 49.4509 10.1978 48.6064 11.316 47.7353C12.6473 46.6983 13.7525 45.5693 14.1646 44.2907L14.1647 44.2905C14.5885 42.9739 14.369 41.3786 13.9071 39.7281C13.503 38.2843 12.8941 36.7368 12.2956 35.2158C12.2062 34.9884 12.1169 34.7616 12.0286 34.5358C11.3439 32.7848 10.7165 31.0958 10.4337 29.6025C10.1495 28.1019 10.232 26.8923 10.8539 26.0287C11.4835 25.1572 12.6049 24.7003 14.1116 24.5068C15.6117 24.3142 17.4017 24.3937 19.2661 24.511C19.5221 24.5271 19.7795 24.5439 20.0375 24.5607C21.6422 24.6655 23.2715 24.7719 24.7398 24.7182C26.4343 24.6562 28.0023 24.3803 29.1032 23.5717C30.1963 22.7709 30.9313 21.3556 31.506 19.7526C31.998 18.3802 32.3929 16.8074 32.7828 15.2544C32.8513 14.9818 32.9195 14.7099 32.9882 14.4398C33.4519 12.6143 33.9315 10.87 34.582 9.48771C35.2356 8.09905 36.0229 7.16033 37.0535 6.82305L37.0537 6.823C38.0379 6.50047 39.1866 6.79574 40.5058 7.53598C41.8174 8.27194 43.2111 9.39799 44.651 10.5981C44.8149 10.7347 44.9793 10.8722 45.1442 11.0101C46.4158 12.0735 47.7145 13.1595 48.982 14.0089C50.4062 14.9632 51.8585 15.6668 53.2528 15.6668C54.6474 15.6668 56.0992 14.9616 57.5224 14.0053C58.7897 13.1538 60.0879 12.0647 61.359 10.9985C61.5231 10.8608 61.6867 10.7236 61.8498 10.5872C63.2884 9.38443 64.6809 8.25582 65.9915 7.51796C67.3097 6.77579 68.4576 6.47954 69.4415 6.80197L69.4416 6.80202C70.4723 7.13933 71.2603 8.07817 71.9146 9.46684C72.566 10.8491 73.0466 12.5935 73.5109 14.4189C73.5804 14.692 73.6495 14.9671 73.7188 15.2427C74.1085 16.7927 74.5029 18.3619 74.9935 19.7315C75.5677 21.3345 76.3015 22.7499 77.392 23.5507C78.4929 24.3593 80.0608 24.6351 81.7554 24.6972C83.2237 24.7509 84.853 24.6445 86.4576 24.5397C86.7157 24.5228 86.9731 24.506 87.229 24.4899C89.0935 24.3727 90.8835 24.2932 92.3835 24.4858C93.89 24.6792 95.0113 25.1361 95.641 26.0072C96.2631 26.8709 96.3457 28.0806 96.0614 29.5815C95.7786 31.0747 95.1512 32.7637 94.4665 34.5148C94.3782 34.7406 94.289 34.9674 94.1995 35.1949C93.601 36.7159 92.9922 38.2633 92.5881 39.7071C92.1261 41.3576 91.9067 42.9529 92.3305 44.2695L92.3305 44.2697C92.7426 45.5482 93.8478 46.6772 95.1791 47.7143C96.2973 48.5854 97.6277 49.4299 98.9457 50.2665C99.2066 50.4322 99.4671 50.5975 99.7253 50.7627C101.302 51.7712 102.798 52.7747 103.9 53.8355C105.005 54.8997 105.652 55.9623 105.652 57.0831V57.2478L105.658 57.2539C105.599 58.3159 104.963 59.3278 103.91 60.3412C102.808 61.4019 101.312 62.4055 99.7357 63.414C99.4775 63.5792 99.2171 63.7445 98.9561 63.9101C97.6381 64.7468 96.3078 65.5913 95.1896 66.4624C93.8583 67.4994 92.753 68.6284 92.3409 69.907Z" fill="#ACBFFF" stroke="black" stroke-width="0.8"/>
    <path d="M60.3199 43.6417C60.7011 37.7781 62.5329 32.8401 64.9742 30.6296C65.9411 29.7821 66.9328 29.2941 67.9614 29.3453C71.716 29.5742 74.2901 36.3222 73.8251 44.4784C73.356 52.5747 69.8781 59.0077 66.1835 58.7748C65.2149 58.7196 64.2734 58.1811 63.4913 57.331C61.2694 54.8323 59.9469 49.6251 60.3199 43.6417Z" fill="white" stroke="black" stroke-width="0.8" stroke-miterlimit="10"/>
    <path d="M63.4858 57.2714C67.0268 57.0331 70.1975 51.4034 70.6164 44.3338C70.6 44.0942 70.6435 43.8506 70.6312 43.6708L64.9756 42.9681L70.5167 40.2482C69.9747 34.9886 67.8344 31.0402 64.9725 30.631C62.5316 32.8414 60.7042 37.8391 60.319 43.6426C59.946 49.6257 61.2683 54.8328 63.4858 57.2714Z" fill="black" stroke="black" stroke-width="0.8" stroke-miterlimit="10"/>
    <path d="M35.7066 42.1203C36.0878 36.2567 37.9196 31.3187 40.3609 29.1082C41.3278 28.2608 42.3195 27.7727 43.3482 27.8239C47.1027 28.0528 49.6768 34.8008 49.2118 42.957C48.7427 51.0533 45.2648 57.4863 41.5703 57.2534C40.6016 57.1982 39.6601 56.6597 38.878 55.8096C36.6561 53.3109 35.3336 48.1037 35.7066 42.1203Z" fill="white" stroke="black" stroke-width="0.8" stroke-miterlimit="10"/>
    <path d="M38.8764 55.8098C42.4174 55.5715 45.5881 49.9418 46.0071 42.8723C45.9906 42.6327 46.0342 42.389 46.0218 42.2093L40.3662 41.5065L45.9074 38.7866C45.3653 33.527 43.225 29.5786 40.3631 29.1694C37.9223 31.3798 36.0949 36.3776 35.7096 42.181C35.3325 48.1042 36.6548 53.3113 38.8764 55.8098Z" fill="black" stroke="black" stroke-width="0.8" stroke-miterlimit="10"/>
    <path d="M55.7112 47.0255L55.5316 49.6857C55.5316 49.6857 55.2914 49.7019 55.2272 49.6461C53.7136 49.5675 51.9161 49.7489 51.6831 51.6303C51.4706 53.8112 53.9343 54.5479 55.5748 53.8355" fill="#ACBFFF"/>
    <path d="M55.7112 47.0255L55.5316 49.6857C55.5316 49.6857 55.2914 49.7019 55.2272 49.6461C53.7136 49.5675 51.9161 49.7489 51.6831 51.6303C51.4706 53.8112 53.9343 54.5479 55.5748 53.8355" stroke="black" stroke-width="0.8" stroke-miterlimit="10"/>
    <path d="M57.6935 68.074C56.6032 69.7726 55.1755 70.9522 53.1812 70.9061C51.2468 70.8559 49.9593 69.6787 49.0594 67.9938C46.7651 63.5741 47.3723 55.7086 47.3723 55.7086L51.6054 55.8446L56.9279 56.0276L60.6164 56.1401C60.6205 56.2 60.4173 63.7975 57.6935 68.074Z" fill="black" stroke="black" stroke-width="0.8" stroke-miterlimit="10"/>
    <path d="M57.7314 67.7696C56.6492 69.5882 55.1695 70.8918 53.1749 70.8456C51.2404 70.7954 49.9487 69.5582 49.0404 67.7533C49.2801 65.0886 51.3753 63.0813 53.7427 63.283C55.9257 63.4368 57.6271 65.3688 57.7314 67.7696Z" fill="#E30611" stroke="black" stroke-width="0.8" stroke-miterlimit="10"/>
    <path d="M47.1427 53.2618C47.6242 54.1319 48.7361 56.2834 48.6372 59.2386C48.4906 62.3775 47.07 64.5193 46.4592 65.2826" fill="#ACBFFF"/>
    <path d="M47.1427 53.2618C47.6242 54.1319 48.7361 56.2834 48.6372 59.2386C48.4906 62.3775 47.07 64.5193 46.4592 65.2826" stroke="black" stroke-width="0.8" stroke-miterlimit="10"/>
    <path d="M61.104 53.5195C60.6216 54.3945 59.5657 56.5718 59.7067 59.5107C59.86 62.6294 61.3312 64.7565 61.9284 65.5586" fill="#ACBFFF"/>
    <path d="M61.104 53.5195C60.6216 54.3945 59.5657 56.5718 59.7067 59.5107C59.86 62.6294 61.3312 64.7565 61.9284 65.5586" stroke="black" stroke-width="0.8" stroke-miterlimit="10"/>
    <path d="M90.3794 17.325L87.0662 19.2924C86.9252 19.1518 83.8235 16.0603 83.8235 16.0603C77.1267 10.0178 61.9706 -0.872878 43.8538 5.45072C35.2536 8.40173 28.2043 14.8659 23.3403 20.5571C22.4239 21.611 21.5779 22.665 20.8025 23.6486C19.3926 25.4052 18.2647 27.0212 17.4188 28.2859L14.1761 26.5294C18.4057 20.3463 28.2043 7.76937 42.9374 2.64023C65.7067 -5.22913 83.5415 10.4393 89.04 15.99C89.604 16.5521 90.0269 17.044 90.3794 17.325Z" fill="#E30611" stroke="black" stroke-width="0.8" stroke-miterlimit="10"/>
    <path d="M87.5599 47.4675C85.7976 47.327 84.1057 46.7649 82.6254 45.8514C82.5549 45.8514 82.5549 45.7812 82.4844 45.7812V17.6061V16.6926C82.5549 16.6926 82.5549 16.6224 82.6254 16.6224C83.5418 16.2008 84.4582 15.9198 85.4451 15.7792C86.15 15.709 86.855 15.6387 87.6304 15.709C94.6797 16.2008 100.39 23.7189 100.319 32.4314C100.319 41.2844 94.6092 47.9593 87.5599 47.4675Z" fill="#E30611" stroke="black" stroke-width="0.8" stroke-miterlimit="10"/>
    <path d="M18.6173 51.8237C19.3927 51.894 20.0976 51.894 20.8026 51.7535C21.5075 51.6832 22.2124 51.4724 22.9174 51.2616C23.0584 38.4036 23.2698 26.3888 23.3403 21.4705C21.9305 20.6976 20.3796 20.2057 18.8287 20.1355C11.7089 19.5734 5.85797 26.2483 5.78748 34.9608C5.78748 43.6733 11.4974 51.2616 18.6173 51.8237Z" fill="#E30611" stroke="black" stroke-width="0.8" stroke-miterlimit="10"/>
    <path d="M93.2662 90.9455C98.2248 90.5641 103.794 89.8012 107.684 86.3683C112.109 82.4777 111.194 76.3748 108.676 71.645C108.676 70.0072 103.565 65.0382 99.8965 63.4137L95.2142 66.1849C97.0298 67.5227 98.53 68.3647 100.895 71.3399C101.887 72.4842 102.878 73.9336 103.565 75.4594C104.251 76.9851 104.557 78.5871 104.023 80.1891C102.344 85.224 93.7239 84.4612 89.6807 84.6137H85.1798C84.2644 84.6137 83.2727 84.5375 82.3572 84.5375H78.3141C74.1183 84.6138 74.2709 91.0981 78.3903 91.0218C79.7635 90.9455 81.1367 91.0218 82.5098 91.0218C83.4252 91.0981 84.3405 91.0981 85.2558 91.0981H85.2561C87.9261 91.1744 90.5962 91.1744 93.2662 90.9455Z" fill="black"/>
    <path d="M82.2808 82.4015C82.2808 82.4015 85.4085 79.9603 86.0951 82.6303C86.6291 84.6901 86.4002 89.191 86.324 91.2507C86.2477 92.1661 85.7137 93.0816 84.8745 93.3867C84.3405 93.6156 82.8911 93.3104 82.2045 92.7764C80.8313 93.8444 79.0767 95.8279 75.5676 96.2093C72.9738 96.5144 70.1512 96.133 67.6338 95.1413C66.3369 94.6073 65.1926 93.8444 64.4297 92.6238C64.0483 91.9373 63.7432 91.1744 63.7432 90.3353C63.7432 89.9538 63.8195 89.5724 64.0483 89.191C64.1246 89.1147 64.506 88.3518 64.506 88.3518C64.506 88.3518 62.1411 84.9189 65.8029 83.2406C65.8029 83.2406 62.37 77.0614 70.3801 78.282L73.8893 79.4263C73.8893 79.4263 72.6687 70.0431 76.3304 69.8905C80.6025 69.7379 79.7633 79.5789 79.7633 79.5789C81.9756 80.6469 82.2808 82.4015 82.2808 82.4015V85.8344V82.4015Z" fill="white"/>
    <path d="M82.2808 82.4015C82.2808 82.4015 85.4085 79.9603 86.0951 82.6303C86.6291 84.6901 86.4002 89.191 86.324 91.2507C86.2477 92.1661 85.7137 93.0816 84.8745 93.3867C84.3405 93.6156 82.8911 93.3104 82.2045 92.7764C80.8313 93.8444 79.0767 95.8279 75.5676 96.2093C72.9738 96.5144 70.1512 96.133 67.6338 95.1413C66.3369 94.6073 65.1926 93.8444 64.4297 92.6238C64.0483 91.9373 63.7432 91.1744 63.7432 90.3353C63.7432 89.9538 63.8195 89.5724 64.0483 89.191C64.1246 89.1147 64.506 88.3518 64.506 88.3518C64.506 88.3518 62.1411 84.9189 65.8029 83.2406C65.8029 83.2406 62.37 77.0614 70.3801 78.282L73.8893 79.4263C73.8893 79.4263 72.6687 70.0431 76.3304 69.8905C80.6025 69.7379 79.7633 79.5789 79.7633 79.5789C81.9756 80.6469 82.2808 82.4015 82.2808 82.4015ZM82.2808 82.4015V85.8344" stroke="black" stroke-width="0.8" stroke-miterlimit="10"/>
    <path d="M65.9556 83.2406L69.0833 84.0798" stroke="black" stroke-width="0.8" stroke-miterlimit="10"/>
    <path d="M64.5059 88.3518L67.7099 89.1147" stroke="black" stroke-width="0.8" stroke-miterlimit="10"/>
    <path d="M82.1284 90.259L82.2047 92.7764" stroke="black" stroke-width="0.8" stroke-miterlimit="10"/>
</svg>
