<svg width="117" height="121" viewBox="0 0 117 121" fill="none" xmlns="http://www.w3.org/2000/svg">
    <g clip-path="url(#clip0_722_4447)">
        <path d="M67.5518 57.439C57.7457 71.5894 56.592 92.7506 60.0006 110.181C60.8396 114.362 66.136 112.818 65.2969 108.638C62.4128 93.7798 62.7799 74.5481 71.275 62.3274C73.5299 59.1114 69.8592 54.1587 67.5518 57.439Z" fill="black"/>
        <path d="M66.2065 112.268C66.2065 112.268 69.3653 109.545 62.882 109.535C55.9432 109.518 60.3925 112.337 60.3925 112.337L59.385 112.931C59.385 112.931 51.7765 107.27 49.1402 113.153C46.504 119.035 54.5643 119.851 59.4832 119.827C64.4021 119.803 69.7773 120.757 66.2065 112.268Z" fill="#E30611" stroke="black" stroke-width="0.8" stroke-miterlimit="10"/>
        <path d="M66.2063 112.267C66.2063 112.267 65.1383 112.877 63.4207 112.755L66.2063 112.267Z" fill="black"/>
        <path d="M66.2063 112.267C66.2063 112.267 65.1383 112.877 63.4207 112.755" stroke="black" stroke-width="0.8" stroke-miterlimit="10"/>
        <path d="M61.566 112.605C61.566 112.605 61.1871 112.642 60.4368 112.261L61.566 112.605Z" fill="black"/>
        <path d="M61.566 112.605C61.566 112.605 61.1871 112.642 60.4368 112.261" stroke="black" stroke-width="0.8" stroke-miterlimit="10"/>
        <path d="M59.385 112.93L61.6808 114.968" stroke="black" stroke-width="0.8" stroke-miterlimit="10"/>
        <path d="M59.3853 112.93L59.609 115.458" stroke="black" stroke-width="0.8" stroke-miterlimit="10"/>
        <path d="M50.9131 60.5781C40.9485 74.2498 39.7762 94.6952 43.2398 111.536C44.0924 115.576 49.4743 114.084 48.6218 110.045C45.691 95.6895 46.064 77.1085 54.6964 65.3011C56.9877 62.1939 53.2044 57.4088 50.9131 60.5781Z" fill="black"/>
        <path d="M49.3463 112.295C49.3463 112.295 52.4853 109.576 46.0128 109.532C39.0855 109.478 43.5425 112.335 43.5425 112.335L42.5398 112.926C42.5398 112.926 34.9138 107.197 32.3134 113.094C29.713 118.991 37.7642 119.854 42.6747 119.856C47.5852 119.858 52.9565 120.845 49.3463 112.295Z" fill="#E30611" stroke="black" stroke-width="0.8" stroke-miterlimit="10"/>
        <path d="M49.3742 112.271C49.3742 112.271 48.3086 112.883 46.589 112.75L49.3742 112.271Z" fill="black"/>
        <path d="M49.3742 112.271C49.3742 112.271 48.3086 112.883 46.589 112.75" stroke="black" stroke-width="0.8" stroke-miterlimit="10"/>
        <path d="M44.7344 112.609C44.7344 112.609 44.3562 112.644 43.6052 112.257L44.7344 112.609Z" fill="black"/>
        <path d="M44.7344 112.609C44.7344 112.609 44.3562 112.644 43.6052 112.257" stroke="black" stroke-width="0.8" stroke-miterlimit="10"/>
        <path d="M42.5533 112.923L44.8491 114.976" stroke="black" stroke-width="0.8" stroke-miterlimit="10"/>
        <path d="M42.5482 112.93L42.7827 115.458" stroke="black" stroke-width="0.8" stroke-miterlimit="10"/>
        <path d="M35.8097 111.56C35.5862 111.684 35.3627 111.808 35.2157 111.977C34.9922 112.101 34.8453 112.27 34.6984 112.439C34.3445 112.792 34.0507 113.13 33.91 113.557C33.6928 113.94 33.5687 114.428 33.5047 114.901C33.4406 115.373 33.4532 115.891 33.4492 116.348L33.3892 116.363C33.3229 116.12 33.3166 115.862 33.2503 115.619C33.244 115.36 33.1777 115.117 33.2314 114.843C33.2189 114.325 33.403 113.821 33.6036 113.378C34.065 112.475 34.8659 111.874 35.8097 111.56Z" fill="white"/>
        <path d="M6.29646 32.4623C7.21463 32.2783 8.40825 32.8761 8.54598 33.8878C9.41824 40.4635 10.52 46.9473 12.6318 53.2471C13.4582 55.6843 14.6059 58.3054 16.7177 59.9148C18.8754 61.6162 21.4922 61.9841 24.1549 61.9381C27.4603 61.8462 30.6739 61.2024 33.9793 61.1104C34.9893 61.0644 35.8156 62.1221 35.7697 63.0877C35.7238 64.0994 34.8057 64.7891 33.7957 64.7891C27.7357 65.0191 21.2167 67.0884 15.6159 63.6855C12.9073 62.0301 11.0709 59.363 9.87733 56.512C8.6378 53.523 7.76553 50.3501 6.98509 47.2232C5.9751 43.0846 5.37829 38.8541 4.82739 34.6695C4.73557 33.6579 5.24056 32.6922 6.29646 32.4623Z" fill="black"/>
        <path d="M6.52625 32.3246C6.52625 32.3246 7.62805 22.7139 10.9794 23.3117C13.5962 23.8175 10.7957 33.0143 10.7957 33.0143L6.52625 32.3246Z" fill="white" stroke="black" stroke-width="0.8" stroke-miterlimit="10"/>
        <path d="M3.17488 32.4624C3.17488 32.4624 -1.0028 23.9094 2.34852 23.3116C5.69985 22.7138 6.80165 32.0026 6.80165 32.0026L3.17488 32.4624Z" fill="white" stroke="black" stroke-width="0.8" stroke-miterlimit="10"/>
        <path d="M11.8516 33.5659C11.8516 33.5659 14.9275 37.6125 11.2089 40.1876C11.2089 40.1876 13.1371 41.6591 10.8416 42.7627C8.5462 43.8664 3.45035 44.2342 4.36852 41.4752C4.36852 41.4752 -0.819138 39.4059 1.38447 33.9338L11.8516 33.5659Z" fill="white" stroke="black" stroke-width="0.8" stroke-miterlimit="10"/>
        <path d="M11.2548 40.1418C11.2548 40.1418 10.0611 40.8776 9.00525 41.0615" stroke="black" stroke-width="0.8" stroke-miterlimit="10"/>
        <path d="M6.61755 41.3833C6.61755 41.3833 5.69938 41.6128 4.41394 41.4751" stroke="black" stroke-width="0.8" stroke-miterlimit="10"/>
        <path d="M0.787607 31.5428C1.33851 31.2669 2.11895 31.3588 2.66986 31.6807C3.49621 32.1406 3.95529 33.1062 4.23075 33.9799C4.46029 34.7157 4.55211 35.6813 3.81757 36.2331C2.76167 36.9689 1.70578 36.1872 1.01715 35.3594C0.37443 34.5777 -0.176472 33.4741 0.0530703 32.4624C0.190796 32.0026 0.466247 31.6807 0.787607 31.5428Z" fill="white" stroke="black" stroke-width="0.8" stroke-miterlimit="10"/>
        <path d="M11.8974 33.6121C10.107 31.7268 5.88342 31.9107 4.36844 32.0027C3.49618 32.0486 2.57801 32.2786 2.30256 33.1063C1.29257 35.8653 7.49022 36.693 7.49022 36.693C7.49022 36.693 6.93932 38.6704 8.68385 39.1762" fill="white"/>
        <path d="M11.8974 33.6121C10.107 31.7268 5.88342 31.9107 4.36844 32.0027C3.49618 32.0486 2.57801 32.2786 2.30256 33.1063C1.29257 35.8653 7.49022 36.693 7.49022 36.693C7.49022 36.693 6.93932 38.6704 8.68384 39.1762" stroke="black" stroke-width="0.8" stroke-miterlimit="10"/>
        <path d="M45.5709 25.6685C50.0358 17.9352 61.1979 17.9352 65.6627 25.6685L92.5588 72.2538C97.0236 79.9872 91.4426 89.6538 82.5129 89.6538H28.7208C19.7911 89.6538 14.21 79.9872 18.6749 72.2538L45.5709 25.6685Z" fill="#D9D9D9" stroke="black" stroke-width="0.8"/>
        <path d="M67.2139 19.3241C67.2139 19.3241 77.8272 22.5325 75.5788 31.332L55.4021 31.1748L35.5122 29.298C34.4263 22.6025 43.0814 19.2516 43.0814 19.2516C43.2081 19.1968 43.3584 15.6096 43.4381 15.3041C43.6707 13.4575 44.2615 11.8172 45.4023 10.2702C47.7564 6.99448 51.8004 4.37294 56.0023 4.30227C61.7532 4.13383 66.3543 8.79767 67.3397 14.0615C67.5237 15.126 67.5847 16.1834 67.5226 17.2338C67.4538 17.3539 67.0945 19.2553 67.2139 19.3241Z" fill="#5663F1" stroke="black" stroke-width="0.8" stroke-miterlimit="10"/>
        <path d="M34.5172 36.8535C39.6884 36.0922 55.5927 34.514 77.5553 39.1227C78.7755 39.3787 79.9383 38.513 79.9461 37.3328C79.943 36.3383 80.1246 35.3544 79.9983 34.353C79.8184 32.1678 79.0777 29.0185 76.4601 28.372C72.3181 27.39 66.8543 26.8297 61.7635 26.2285C53.548 25.2005 43.261 24.7378 34.5983 27.1021C34.0949 27.2598 33.6421 27.6068 33.4282 28.0917C32.9389 29.058 32.4313 30.334 32.2132 31.9372C32.0134 33.2308 32.0671 34.4145 32.2549 35.4195C32.4499 36.3006 33.3983 36.9761 34.5172 36.8535Z" fill="#5663F1" stroke="black" stroke-width="0.8" stroke-miterlimit="10"/>
        <path d="M42.5251 25.6978L42.4624 35.9684" stroke="black" stroke-width="0.8" stroke-miterlimit="10"/>
        <path d="M52.0464 25.4468L51.5467 36.0625" stroke="black" stroke-width="0.8" stroke-miterlimit="10"/>
        <path d="M61.5722 26.2476L60.7838 36.6612" stroke="black" stroke-width="0.8" stroke-miterlimit="10"/>
        <path d="M71.0841 27.3566L70.0021 37.5071" stroke="black" stroke-width="0.8" stroke-miterlimit="10"/>
        <path d="M59.2513 71.179C56.4049 73.2482 52.6863 73.7081 49.335 72.7884C48.1414 72.4665 46.856 71.9147 45.7083 71.133C43.9178 69.9374 42.5865 68.236 42.6324 66.0287C42.7242 64.0054 44.2392 63.4536 46.0296 63.4536C47.5905 63.4536 49.3809 63.9135 50.4827 64.1894C51.4468 64.4193 52.365 64.6032 53.375 64.5572C54.9359 64.4653 56.4049 63.7755 57.9199 63.5916C58.2413 63.5456 58.5626 63.5456 58.9299 63.5916C59.9858 63.6376 61.1794 63.9135 61.868 64.6032C63.888 66.5805 60.8122 69.9834 59.2513 71.179Z" fill="black" stroke="black" stroke-width="0.8" stroke-miterlimit="10"/>
        <path d="M59.2513 71.1787C56.4049 73.248 52.6863 73.7079 49.335 72.7882C48.1414 72.4663 46.856 71.9145 45.7083 71.1328C47.0855 69.2474 49.6105 68.0058 52.4568 68.0058C55.3949 67.9598 57.874 69.2474 59.2513 71.1787Z" fill="#E30611" stroke="black" stroke-width="0.8" stroke-miterlimit="10"/>
        <path d="M86.4428 82.9955C85.9813 80.3354 83.5678 78.8535 81.0257 79.7372C78.4769 80.583 76.7776 83.4394 77.2016 86.1056C77.6631 88.7657 80.0766 90.2476 82.6187 89.3639C85.1675 88.5181 86.9043 85.6556 86.4428 82.9955ZM81.994 87.3165C80.4674 87.8392 79.003 86.9449 78.7261 85.3488C78.4492 83.7528 79.4653 82.063 80.9919 81.5403C82.5185 81.0176 83.9829 81.9119 84.2598 83.508C84.5367 85.1041 83.5272 86.8319 81.994 87.3165Z" fill="#F96F6F" stroke="black" stroke-width="0.8" stroke-miterlimit="10"/>
        <path d="M79.1858 77.555C79.1858 77.555 81.3881 93.3675 69.1269 94.5075C57.51 95.5815 56.5147 79.6112 56.5147 79.6112L79.1858 77.555Z" fill="#F96F6F" stroke="black" stroke-width="0.8" stroke-miterlimit="10"/>
        <path d="M79.251 77.5982C79.0606 75.7317 73.8236 74.6831 67.5537 75.2562C61.2838 75.8293 56.3553 77.807 56.5456 79.6736C56.7359 81.5401 61.973 82.5886 68.2429 82.0155C74.5128 81.4424 79.4413 79.4647 79.251 77.5982Z" fill="#F96F6F" stroke="black" stroke-width="0.8" stroke-miterlimit="10"/>
        <path d="M57.2878 80.7361C56.852 80.4522 56.6043 80.1374 56.5005 79.7593C58.0359 77.8868 60.4159 77.1002 63.1602 77.755C65.2626 78.2784 66.7959 79.093 68.853 78.0039C70.9412 76.8701 72.5844 75.8491 75.1272 76.4581C76.4174 76.7595 78.0021 76.973 79.2766 77.6325C79.3615 79.4756 74.4727 81.4256 68.2591 81.9736C63.533 82.3955 59.3897 81.9312 57.54 80.8526" fill="black"/>
        <path d="M57.2878 80.7361C56.852 80.4522 56.6043 80.1374 56.5005 79.7593C58.0359 77.8868 60.4159 77.1002 63.1602 77.755C65.2626 78.2784 66.7959 79.093 68.853 78.0039C70.9412 76.8701 72.5844 75.8491 75.1272 76.4581C76.4174 76.7595 78.0021 76.973 79.2766 77.6325C79.3615 79.4756 74.4727 81.4256 68.2591 81.9736C63.533 82.3955 59.3897 81.9312 57.54 80.8526" stroke="black" stroke-width="0.8" stroke-miterlimit="10"/>
        <path d="M72.6514 77.2418C73.4836 76.9086 74.406 76.8747 75.2861 77.0443C76.1661 77.2139 77.0038 77.5869 77.7795 78.0487C77.912 78.1447 77.7945 78.3605 77.6619 78.2644C76.8928 77.8409 76.0993 77.4999 75.2569 77.3241C74.4144 77.1484 73.5362 77.2142 72.6975 77.5093C72.5536 77.5722 72.5076 77.3048 72.6514 77.2418Z" fill="white"/>
        <path d="M57.2814 80.7844C57.5721 80.2255 57.9888 79.7245 58.507 79.364C59.1559 78.8641 59.9196 78.5812 60.7472 78.4451C61.2362 78.3646 61.7008 78.3668 62.2095 78.4011C62.3666 78.4145 62.3684 78.6501 62.2114 78.6366C60.6409 78.5019 59.0186 78.9654 57.9925 80.1957C57.7996 80.424 57.6444 80.6461 57.5334 80.9002L57.2814 80.7844Z" fill="white"/>
        <path d="M71.6709 77.4261C71.7772 77.3694 71.89 77.3509 71.9962 77.2942C72.0714 77.2818 72.1156 77.3138 72.1664 77.384C72.1795 77.4603 72.1485 77.5047 72.0799 77.5552C72.0047 77.5676 71.8985 77.6243 71.8233 77.6366L71.7857 77.6428C71.748 77.6489 71.7104 77.6551 71.7104 77.6551C71.6728 77.6613 71.6663 77.6231 71.6221 77.5911C71.6155 77.5529 71.6089 77.5148 71.6089 77.5148C71.6399 77.4704 71.6709 77.4261 71.6709 77.4261Z" fill="white"/>
        <path d="M62.9296 78.4716C63.0799 78.447 63.2058 78.5047 63.3383 78.6006C63.3824 78.6325 63.4332 78.7026 63.3712 78.7912C63.3402 78.8355 63.2716 78.8859 63.1833 78.822C63.1457 78.8282 63.1391 78.79 63.1016 78.7962C63.0574 78.7643 63.0198 78.7704 62.9823 78.7766C62.9447 78.7828 62.9447 78.7828 62.9071 78.7889C62.832 78.8012 62.7812 78.7312 62.7681 78.6549C62.8235 78.5282 62.8545 78.484 62.9296 78.4716Z" fill="white"/>
        <path d="M76.8331 78.6831C77.386 79.4494 77.8777 80.3037 78.2579 81.1761C78.5245 81.8335 78.9987 82.8074 78.4588 83.4409C78.1397 83.8047 77.5758 83.858 77.1824 83.5718C76.7387 83.216 76.6645 82.5661 76.6099 82.0299C76.5007 80.9573 76.621 79.8861 76.8156 78.8028C76.8156 78.8028 76.809 78.765 76.8331 78.6831Z" fill="black" stroke="black" stroke-width="0.8" stroke-miterlimit="10"/>
        <path d="M76.8235 81.5642C76.8476 81.4824 76.9087 81.3945 76.9895 81.4202C77.0703 81.4459 77.1577 81.5095 77.1337 81.5913C77.1053 81.8685 77.1074 82.1017 77.1904 82.3607C77.2669 82.5818 77.387 82.8347 77.5988 82.9558C77.6796 82.9815 77.6993 83.0951 77.6381 83.183C77.5769 83.2708 77.5027 83.283 77.4153 83.2194C77.1598 83.0665 76.9895 82.744 76.9 82.4472C76.817 82.1882 76.758 81.8474 76.8235 81.5642Z" fill="white"/>
        <path d="M32.0499 50.7878C32.5857 47.5075 35.4934 45.2053 38.7522 45.3492C39.0562 45.3486 39.3087 45.3769 39.6014 45.4167C43.1599 46.0368 45.55 49.4099 44.9749 52.9833C44.3596 56.5452 40.9932 58.9343 37.4234 58.3544C37.1307 58.3147 36.8494 58.2348 36.5681 58.1549C33.4963 57.1951 31.5028 54.1084 32.0499 50.7878Z" fill="white" stroke="black" stroke-width="0.8" stroke-miterlimit="10"/>
        <path d="M36.5678 58.1549C37.5114 57.1195 38.3389 55.5732 38.879 53.8148L34.862 51.2829L39.5056 50.2126C39.5922 48.3689 39.3005 46.6348 38.7519 45.3492C35.5333 45.2168 32.6256 47.519 32.0496 50.7879C31.5025 54.1085 33.496 57.1952 36.5678 58.1549Z" fill="black" stroke="black" stroke-width="0.8" stroke-miterlimit="10"/>
        <path d="M59.8677 50.3336C60.3515 47.0447 63.2221 44.6957 66.4824 44.7872C66.7864 44.7818 67.0393 44.8061 67.3325 44.8411C70.8999 45.4039 73.3429 48.7386 72.8245 52.3211C72.2657 55.8928 68.9379 58.336 65.3597 57.8136C65.0665 57.7786 64.784 57.7032 64.5014 57.6278C61.4152 56.7174 59.3733 53.6629 59.8677 50.3336Z" fill="white" stroke="black" stroke-width="0.8" stroke-miterlimit="10"/>
        <path d="M64.5015 57.6281C65.4285 56.5776 66.2313 55.018 66.7434 53.2509L62.6873 50.7837L67.3129 49.6388C67.3704 47.7936 67.0513 46.0644 66.4825 44.7876C63.2625 44.7069 60.3919 47.0558 59.8678 50.3339C59.3733 53.6633 61.4153 56.7178 64.5015 57.6281Z" fill="black" stroke="black" stroke-width="0.8" stroke-miterlimit="10"/>
        <circle cx="36.3069" cy="51.7092" r="8.35465" stroke="black" stroke-width="0.8"/>
        <circle cx="64.2169" cy="51.0166" r="8.35465" stroke="black" stroke-width="0.8"/>
        <rect x="45.1683" y="51.0168" width="10.2859" height="0.692716" fill="black"/>
        <path d="M114.92 79.2405C112.588 82.7821 107.625 83.7728 103.731 84.4181C102.237 84.6695 100.733 84.8291 99.2236 84.9429C98.54 85.0155 97.8057 85.047 97.1221 85.1196C97.0765 85.1244 97.0765 85.1244 97.0309 85.1292C96.2511 85.1656 95.4258 85.2068 94.651 85.2891C94.1952 85.3375 93.78 85.3351 93.3243 85.3835C92.9597 85.4222 92.59 85.415 92.2254 85.4537C89.886 85.5629 87.5516 85.7179 85.2323 86.0104C84.2296 86.1169 83.2172 85.714 82.9599 84.6278C82.9448 84.4902 82.9297 84.3526 82.9146 84.2151C82.9153 83.3799 83.4578 82.4408 84.3238 82.3489C84.6428 82.315 84.9618 82.2812 85.2808 82.2473C85.4176 82.2328 85.5543 82.2183 85.691 82.2038C88.5623 81.899 91.4536 81.7777 94.2944 81.6153C94.9831 81.5886 95.6211 81.5209 96.3098 81.4942C96.5832 81.4652 96.8111 81.441 97.0896 81.4578C97.8694 81.4215 98.6898 81.3344 99.4645 81.2522C101.839 81.0465 104.194 80.6573 106.483 80.0896C108.053 79.691 109.436 79.2658 110.713 78.2952C111.184 77.9668 111.554 77.5564 111.782 77.1146C111.706 77.2619 111.904 76.545 111.879 76.7332C111.894 76.4532 111.879 76.3156 111.824 76.2288C111.298 74.7999 109.714 73.8082 108.484 73.1036C105.285 71.2626 101.549 70.4065 97.9548 69.5817C93.6466 68.5544 94.6947 68.6677 90.4265 67.985C90.4265 67.985 89.6324 66.5515 89.2586 65.9308C88.6573 64.9324 88.0713 63.8342 88.0713 63.8342C90.2736 64.1572 96.1455 65.2735 98.3224 65.7847C102.347 66.7494 106.509 67.6995 110.148 69.7722C113.559 71.4515 117.485 75.3031 114.92 79.2405Z" fill="black"/>
        <path d="M93.9343 78.7323C93.9343 78.7323 95.8424 76.8607 96.4912 78.5576C97.0031 79.8509 97.1985 82.8492 97.2556 84.1901C97.2765 84.7916 96.9791 85.4265 96.4589 85.7131C96.1103 85.8889 95.0894 85.81 94.5989 85.5362C93.7659 86.32 92.7316 87.7751 90.3974 88.298C88.6493 88.7131 86.7188 88.7294 84.9647 88.2627C84.0649 88.0318 83.2356 87.6077 82.6485 86.8796C82.3246 86.4491 82.0411 85.9679 81.9798 85.417C81.9492 85.1415 81.9691 84.9072 82.0749 84.6175C82.1153 84.5668 82.332 84.0333 82.332 84.0333C82.332 84.0333 80.4901 81.9504 82.8638 80.5409C82.8638 80.5409 80.2218 77.0556 85.9023 77.2507C86.2258 77.2633 86.3757 75.715 87.5724 74.8931C87.7441 74.7823 89.0319 73.9509 90.4876 74.2165C92.2822 74.6325 93.77 76.4274 93.9343 78.7323Z" fill="white" stroke="black" stroke-width="0.8" stroke-miterlimit="10"/>
        <path d="M82.9527 80.6921L85.1477 80.9303" stroke="black" stroke-width="0.8" stroke-miterlimit="10"/>
        <path d="M82.3536 84.1338L84.6244 84.223" stroke="black" stroke-width="0.8" stroke-miterlimit="10"/>
        <path d="M85.9651 77.3584L89.1286 77.5887" stroke="black" stroke-width="0.8" stroke-miterlimit="10"/>
        <path d="M93.9608 78.7227L94.202 80.9628" stroke="black" stroke-width="0.8" stroke-miterlimit="10"/>
        <path d="M94.4254 83.8989L94.6482 85.5403" stroke="black" stroke-width="0.8" stroke-miterlimit="10"/>
        <path d="M52.0594 53.4036L51.6882 56.3164C51.6882 56.3164 47.0477 55.4488 46.7383 57.8658C46.4289 60.2829 51.8738 59.911 51.8738 59.911" fill="#D9D9D9"/>
        <path d="M52.0594 53.4036L51.6882 56.3164C51.6882 56.3164 47.0477 55.4488 46.7383 57.8658C46.4289 60.2829 51.8738 59.911 51.8738 59.911" stroke="black" stroke-width="0.8" stroke-miterlimit="10"/>
    </g>
    <defs>
        <clipPath id="clip0_722_4447">
            <rect width="117" height="121" fill="white"/>
        </clipPath>
    </defs>
</svg>
