<svg width="133" height="121" viewBox="0 0 133 121" fill="none" xmlns="http://www.w3.org/2000/svg">
<g clip-path="url(#clip0_3_36272)">
<path d="M104.817 63.2263C104.757 62.862 104.152 59.2192 103.672 56.6903C106.376 58.3208 108.577 60.3332 110.746 62.8092C115.027 67.7821 119.276 73.2186 121.096 79.6948C121.273 80.4023 121.431 81.0526 121.608 81.7602C122.185 84.5751 117.896 85.5382 117.395 82.7594C117.296 82.2808 117.196 81.8021 117.041 81.3444C115.471 75.4192 111.453 70.4766 107.571 65.9344C106.658 64.9223 105.652 64.0095 104.817 63.2263Z" fill="black"/>
<path d="M115.372 83.1074C115.486 83.4483 114.779 83.9723 114.537 84.1919C112.715 85.7147 112.192 88.4746 112.166 90.0857C112.189 90.7174 112.111 92.9245 113.051 93.6572C115.027 95.2149 116.549 90.9236 117.064 89.6399C117.274 90.2648 117.312 90.3785 117.37 90.5489C117.465 90.833 117.58 91.1738 117.675 91.4579C117.847 91.9692 117.983 92.5585 118.155 93.0698C118.463 94.3621 118.66 95.6967 118.968 96.989C119.199 97.8624 119.526 99.2114 120.501 99.4828C121.138 99.6897 121.771 99.1301 122.198 98.7121C122.198 98.7121 122.198 98.7121 122.254 98.6909C122.254 98.6909 124.287 100.419 125.462 97.348C125.707 97.5116 126.026 97.7109 126.325 97.6617C127.465 97.4863 128.088 95.5852 128.343 94.6559C129.019 92.3504 129.261 89.5048 128.964 87.1196C128.669 85.1176 127.833 83.3844 126.365 82.0192C126.082 81.7419 125.818 81.5214 125.48 81.2653C125.216 81.0449 124.579 80.8379 124.427 80.5751C124.427 80.5751 124.687 80.2206 124.724 80.1426C124.927 79.8094 125.111 79.4194 125.184 79.0717C125.327 78.1848 124.946 77.2402 124.12 76.8484C122.863 76.2997 121.464 76.8296 120.232 77.2959C118.777 77.847 117.264 78.2277 115.79 78.7219C111.328 80.0911 114.057 82.3883 114.583 82.6376C115.353 83.0506 115.295 82.8801 115.372 83.1074Z" fill="white" stroke="black" stroke-width="0.8" stroke-miterlimit="10"/>
<path d="M121.312 89.9291C121.312 89.9291 122.963 95.1775 122.4 98.807" stroke="black" stroke-width="0.8" stroke-miterlimit="10"/>
<path d="M125.58 97.5619C125.58 97.5619 125.999 92.572 125.125 89.4219" stroke="black" stroke-width="0.8" stroke-miterlimit="10"/>
<path d="M119.644 90.4617C119.717 90.306 119.716 90.1145 119.566 90.0431C119.416 89.9717 119.249 90.0349 119.175 90.1906C119.102 90.3463 119.104 90.5377 119.254 90.6091C119.348 90.7016 119.515 90.6384 119.644 90.4617Z" fill="black" stroke="black" stroke-width="0.8" stroke-miterlimit="10"/>
<path d="M123.423 89.3191C123.496 89.1634 123.494 88.972 123.345 88.9005C123.195 88.8291 123.027 88.8923 122.954 89.048C122.881 89.2037 122.883 89.3951 123.032 89.4666C123.126 89.5591 123.35 89.4748 123.423 89.3191Z" fill="black" stroke="black" stroke-width="0.8" stroke-miterlimit="10"/>
<path d="M126.989 88.6438C127.062 88.4881 127.06 88.2967 126.911 88.2252C126.761 88.1538 126.593 88.217 126.52 88.3727C126.447 88.5284 126.448 88.7198 126.598 88.7913C126.748 88.8627 126.916 88.7995 126.989 88.6438Z" fill="black" stroke="black" stroke-width="0.8" stroke-miterlimit="10"/>
<path d="M115.378 83.1235L117.075 82.6151" stroke="black" stroke-width="0.8" stroke-miterlimit="10"/>
<path d="M122.813 81.2035L124.287 80.593" stroke="black" stroke-width="0.8" stroke-miterlimit="10"/>
<path d="M53.9705 109.112C53.7889 111.691 56.8159 112.572 58.2083 111.188C58.5716 110.81 58.8137 110.307 58.8137 109.678C59.0559 105.841 62.7076 92.7066 63.979 89.1209C64.1001 88.8693 64.1606 88.5547 64.2817 88.3031C62.526 87.9257 60.952 87.5482 59.499 87.045C57.9249 90.9452 54.2732 104.52 53.9705 108.609C53.9705 108.734 53.9705 108.923 53.9705 109.112Z" fill="black" stroke="black" stroke-width="0.8" stroke-miterlimit="10"/>
<path d="M55.4072 120.224L55.2253 118.659L53.9523 120.224L37.4338 120.241L37.2217 116.643L63.1663 116.382L63.2876 120.154L55.4072 120.224Z" fill="black" stroke="black" stroke-width="0.8" stroke-miterlimit="10"/>
<path d="M50.8002 105.391C46.8903 106.083 38.7978 108.54 37.2217 116.886L63.1966 116.445L63.227 108.54C58.9534 109.894 53.6189 108.981 50.8002 105.391Z" fill="#ACBFFF" stroke="black" stroke-width="0.8" stroke-miterlimit="10"/>
<path d="M45.7385 106.65L50.4061 110.493" stroke="black" stroke-width="0.8" stroke-miterlimit="10"/>
<path d="M43.344 107.91L48.0419 111.784" stroke="black" stroke-width="0.8" stroke-miterlimit="10"/>
<path d="M80.6278 110.299C80.9961 112.858 84.141 113.078 85.209 111.431C85.4841 110.985 85.6143 110.442 85.4811 109.827C84.9057 106.026 85.695 92.4164 86.1786 88.6428C86.2437 88.3713 86.2363 88.051 86.3014 87.7795C84.5056 87.7822 82.8873 87.7464 81.3607 87.5621C80.6478 91.7071 79.9517 105.747 80.5212 109.807C80.5479 109.93 80.5878 110.115 80.6278 110.299Z" fill="black" stroke="black" stroke-width="0.8" stroke-miterlimit="10"/>
<path d="M82.3596 120.221L82.1171 118.679L80.8683 120.22L63.9369 120.228L63.5904 116.682L90.1753 116.438L90.4348 120.156L82.3596 120.221Z" fill="black" stroke="black" stroke-width="0.8" stroke-miterlimit="10"/>
<path d="M77.1082 105.694C73.1351 106.372 64.9489 108.779 63.6401 116.985L90.1859 116.578L89.93 108.805C85.609 110.132 80.1209 109.228 77.1082 105.694Z" fill="#ACBFFF" stroke="black" stroke-width="0.8" stroke-miterlimit="10"/>
<path d="M71.9771 106.958L76.8807 110.734" stroke="black" stroke-width="0.8" stroke-miterlimit="10"/>
<path d="M69.563 108.185L74.4987 111.992" stroke="black" stroke-width="0.8" stroke-miterlimit="10"/>
<path d="M50.9915 64.1846C45.9016 67.4167 41.2076 71.589 35.4955 73.587C33.0071 74.4685 30.4622 74.8211 28.3697 73.587C25.655 72.0004 23.8453 69.1209 22.488 66.2414C20.8479 62.7743 19.8299 59.0133 18.6423 55.3699C17.7374 52.4904 13.3261 53.7244 14.231 56.6039C16.5497 63.8908 18.6423 72.1179 24.9198 76.8779C30.9146 81.4028 38.4929 77.8769 44.1484 74.4097C47.2589 72.4705 50.1997 70.1787 53.3102 68.2394C55.7986 66.7115 53.4799 62.598 50.9915 64.1846Z" fill="black"/>
<path d="M21.9124 59.6016L21.3905 59.834C26.6097 57.7422 24.522 48.1354 22.0615 46.4309C18.7063 44.4941 18.7063 51.0794 18.7063 51.0794C18.7063 51.0794 16.5441 47.2057 12.145 44.1067C6.9258 40.3104 7.8951 44.9589 7.8951 44.9589C7.8951 44.9589 5.88196 42.9446 3.71972 44.1842C2.07939 45.4238 4.01795 47.2832 4.01795 47.2832C2.97411 46.8183 0.886429 46.121 0.439067 47.6705C0.0662659 49.1425 1.48291 50.4596 2.22851 51.3118C3.34691 52.5514 4.53988 53.6361 5.73284 54.7207C6.10564 55.0306 6.77669 55.4954 6.92581 55.9603C9.0135 63.2429 14.3818 62.8555 14.3818 62.8555C14.2327 63.5528 14.2327 64.7924 14.6055 65.1798C15.1274 65.7221 15.9476 65.877 16.6932 65.6446C18.259 65.1023 21.6887 63.7078 23.0308 62.6231C24.8203 61.306 21.9124 59.6016 21.9124 59.6016Z" fill="white" stroke="black" stroke-width="0.8" stroke-miterlimit="10"/>
<path d="M7.89502 44.959L13.7107 50.5372" stroke="black" stroke-width="0.8" stroke-miterlimit="10"/>
<path d="M4.01807 47.2832L10.132 53.0938" stroke="black" stroke-width="0.8" stroke-miterlimit="10"/>
<path d="M8.71533 54.1009L14.3074 50.0723" stroke="black" stroke-width="0.8" stroke-miterlimit="10"/>
<path d="M18.7064 51.0791L18.8555 52.2412C18.8555 52.2412 14.1582 51.9313 14.6801 56.2699" stroke="black" stroke-width="0.8" stroke-miterlimit="10"/>
<path d="M16.0223 62.0806L14.3074 63.0103" stroke="black" stroke-width="0.8" stroke-miterlimit="10"/>
<path d="M98.784 85.3955L87.2921 71.7302L86.6071 72.0805L90.9864 89.6131L79.6059 92.6539L74.0951 70.0227L73.7643 68.664L73.3327 69.9789L66.0748 92.0893L55.0301 88.1749L62.3158 65.9799L62.744 64.6753L61.6877 65.5294L43.8268 79.9727L36.6837 70.3677L50.3829 59.2405L50.0445 58.5295L32.9912 62.0777L30.7004 50.1141L50.5775 46.0441L51.9884 45.7552L50.6168 45.2691L31.3836 38.4525L35.1585 26.9527L54.3103 33.7405L55.6721 34.2231L54.7359 33.1032L41.4221 17.1765L50.2439 9.2414L61.6846 22.7973L62.3695 22.4481L58.0699 4.94383L69.3444 1.95628L75.0424 24.8464L75.3769 26.1903L75.8044 24.8883L83.1455 2.52417L94.1902 6.4386L86.8768 28.7181L86.446 30.0303L87.5058 29.1678L105.287 14.696L112.454 24.2184L98.756 35.3441L99.0918 36.0556L116.2 32.6178L118.44 44.4717L98.5322 48.6254L97.1325 48.9175L98.4944 49.4001L117.565 56.159L113.79 67.6588L94.6381 60.871L93.2665 60.3849L94.2134 61.5094L107.555 77.3542L98.784 85.3955Z" fill="#F96F6F" stroke="black" stroke-width="0.8"/>
<path d="M71.6341 45.2822C68.9202 45.4702 67.0204 44.2012 64.4874 44.3422C63.0852 44.4362 61.7282 44.7652 61.7282 46.3162C61.683 49.1832 63.8542 51.0632 66.4776 52.1912C69.87 53.6483 73.8053 53.5073 77.1524 51.9562C80.0021 50.6402 82.9422 48.4782 82.2637 45.0942C81.9471 43.5432 80.6353 43.3552 79.2784 43.4492C76.7906 43.6372 74.1219 45.1412 71.6341 45.2822Z" fill="white" stroke="black" stroke-width="0.8" stroke-miterlimit="10"/>
<path d="M76.3835 44.1074C76.7454 45.0004 77.1525 46.2224 77.3334 47.7264C77.5596 49.4655 77.3787 50.9225 77.1977 51.9565" stroke="black" stroke-width="0.8" stroke-miterlimit="10"/>
<path d="M71.634 45.2822C71.9507 46.2222 72.2221 47.4912 72.3125 48.9952C72.403 50.7343 72.2221 52.1443 71.9507 53.2253" stroke="black" stroke-width="0.8" stroke-miterlimit="10"/>
<path d="M66.4775 44.4834C66.7489 45.4704 67.0203 46.8334 67.0203 48.5254C67.0203 50.0294 66.7489 51.2984 66.4775 52.1914" stroke="black" stroke-width="0.8" stroke-miterlimit="10"/>
<path d="M74.3872 38.5193C74.5255 39.5877 73.7891 40.555 72.7541 40.7053C71.719 40.8556 70.7877 40.1016 70.6494 39.0333C70.5111 37.965 71.2474 36.9976 72.2825 36.8473C73.3176 36.697 74.2489 37.451 74.3872 38.5193Z" fill="#E30611" stroke="black" stroke-width="0.8" stroke-miterlimit="10"/>
<path d="M76.8964 40.5445C78.4962 39.9083 80.5365 39.6015 82.7064 39.7505C83.0288 39.7638 83.3512 39.777 83.6775 39.8368C85.3013 40.0428 86.804 40.4491 87.9997 41.0282C88.5433 39.2821 88.8362 37.2806 88.8862 35.1168C88.9077 34.2699 88.8876 33.4742 88.7764 32.6881C88.6026 30.5946 88.1712 28.7156 87.49 27.1443C86.3974 24.4897 84.6917 22.7437 82.7648 22.7571C82.7193 22.7618 82.6738 22.7666 82.6283 22.7713C80.2502 22.8787 78.1299 25.5402 77.0735 29.4045C76.6548 30.9968 76.3881 32.7609 76.315 34.6456C76.3227 34.7386 76.2849 34.8364 76.2927 34.9295C76.2805 36.9955 76.5299 38.8934 76.8964 40.5445Z" fill="white" stroke="black" stroke-width="0.8" stroke-miterlimit="10"/>
<path d="M77.0761 29.4183C78.1737 25.5037 80.2476 22.8476 82.6247 22.7403C83.9233 24.0121 84.7833 26.0804 84.8398 28.4203C84.8453 29.5925 84.6611 30.6908 84.3289 31.6638L81.3093 30.6653L83.3838 33.5452C82.4001 34.9614 81.0099 35.9041 79.4516 35.926C78.2611 35.9564 77.1685 35.5075 76.2269 34.6675C76.391 32.7738 76.6576 31.0101 77.0761 29.4183Z" fill="black" stroke="black" stroke-width="0.8" stroke-miterlimit="10"/>
<path d="M56.7761 40.5951L56.78 40.6416L56.7838 40.6882C56.7877 40.7347 56.7915 40.7812 56.8448 40.8695C57.0646 40.7527 57.3298 40.6312 57.5535 40.5609C57.6861 40.5001 57.8188 40.4394 57.9514 40.3786C59.1985 39.92 60.5975 39.6332 62.1029 39.523C62.6945 39.4613 63.2937 39.4926 63.8891 39.4773C63.9801 39.4678 64.0256 39.4631 64.1205 39.5001C65.5503 39.5855 66.8098 39.8294 67.9482 40.2736C68.3591 38.5885 68.5687 36.6898 68.543 34.7218C68.4383 27.9292 65.5557 22.5058 62.0743 22.5876C60.1516 22.6475 58.4589 24.3726 57.3517 27.0688C57.2006 27.4599 57.0533 27.8976 56.9099 28.3818C56.9138 28.4283 56.8721 28.4796 56.876 28.5261C56.8343 28.5773 56.8421 28.6704 56.8004 28.7217C56.7626 28.8194 56.7665 28.866 56.7287 28.9637C56.6948 29.108 56.657 29.2058 56.6231 29.3501C56.593 29.5409 56.5136 29.69 56.4835 29.8808C56.4535 30.0716 56.4234 30.2625 56.3479 30.458C56.2538 30.984 56.1598 31.5099 56.1112 32.0311C56.0812 32.2219 56.0511 32.4128 56.0627 32.5523C56.0627 32.5523 56.0627 32.5523 56.0666 32.5988C56.0404 32.8362 56.018 33.12 55.9918 33.3574C55.9618 33.5482 55.9772 33.7342 55.9926 33.9203C56.0042 34.0599 55.9703 34.2042 55.9819 34.3437C55.9857 34.3902 55.9857 34.3902 55.9896 34.4368C56.0051 34.6228 55.975 34.8137 55.9943 35.0462C56.0199 37.0142 56.2692 38.912 56.7761 40.5951Z" fill="white" stroke="black" stroke-width="0.8" stroke-miterlimit="10"/>
<path d="M56.6714 29.3613C57.6782 25.4557 59.7449 22.7063 62.1226 22.5988C63.4669 23.8661 64.3687 25.8834 64.4707 28.2188C64.5217 29.3865 64.3375 30.4849 64.0507 31.4533L61.1369 30.6313L63.1964 33.3254C62.2618 34.7837 60.8713 35.7264 59.3165 35.7949C58.1296 35.8719 56.9912 35.4276 56.0495 34.5875C56.0354 32.7591 56.2527 30.9534 56.6714 29.3613Z" fill="black" stroke="black" stroke-width="0.8" stroke-miterlimit="10"/>
<path d="M54.7332 54.2031L60.1595 56.7632L69.3576 61.2814L65.0195 70.4968L44.6044 56.4649L54.7332 54.2031Z" fill="white"/>
<path d="M93.2537 56.7186L78.5414 62.1635L79.7857 71.915L101.36 59.8182L93.2537 56.7186Z" fill="white"/>
<path d="M54.7332 54.2031L60.1595 56.7632L69.3576 61.2814L65.0195 70.4968L44.6044 56.4649L54.7332 54.2031Z" stroke="black" stroke-width="0.8"/>
<path d="M93.2537 56.7186L78.5414 62.1635L79.7857 71.915L101.36 59.8182L93.2537 56.7186Z" stroke="black" stroke-width="0.8"/>
<path d="M68.8995 61.927L77.9865 62.079L73.5609 69.5455L77.5858 74.6066L76.0917 98.6471L72.2779 103.928L68.5429 97.7908L69.4371 73.6859L73.5609 69.5455L68.8995 61.927Z" fill="#5663F1"/>
<path d="M73.5609 69.5455L77.9865 62.079L68.8995 61.927L73.5609 69.5455ZM73.5609 69.5455L69.4371 73.6859L68.5429 97.7908L72.2779 103.928L76.0917 98.6471L77.5858 74.6066L73.5609 69.5455Z" stroke="black" stroke-width="0.8"/>
</g>
<defs>
<clipPath id="clip0_3_36272">
<rect width="131.977" height="120" fill="white" transform="translate(0.263672 0.241699)"/>
</clipPath>
</defs>
</svg>
