<svg width="117" height="121" viewBox="0 0 117 121" fill="none" xmlns="http://www.w3.org/2000/svg">
    <g clip-path="url(#clip0_722_4680)">
        <path d="M69.5855 109.792C69.6911 113.135 66.6483 114.213 65.301 112.393C64.9499 111.896 64.7233 111.24 64.7417 110.425C64.6125 105.452 61.3568 88.3733 60.1944 83.7049C60.0811 83.3766 60.03 82.9681 59.9166 82.6399C61.6775 82.1874 63.2574 81.7312 64.7203 81.1096C66.1752 86.1915 69.418 103.841 69.6002 109.141C69.5965 109.304 69.591 109.548 69.5855 109.792Z" fill="black" stroke="black" stroke-width="0.8" stroke-miterlimit="10"/>
        <path d="M64.1508 112.103C64.1508 112.103 61.0714 109.352 67.5421 109.448C74.4677 109.544 69.9513 112.267 69.9513 112.267L70.9408 112.871C70.9408 112.871 78.6867 107.383 81.1594 113.258C83.6321 119.134 75.5657 119.812 70.6572 119.708C65.7488 119.604 60.3585 120.462 64.1508 112.103Z" fill="#E30611" stroke="black" stroke-width="0.8" stroke-miterlimit="10"/>
        <path d="M64.122 112.078C64.122 112.078 65.1742 112.705 66.8961 112.611L64.122 112.078Z" fill="black"/>
        <path d="M64.122 112.078C64.122 112.078 65.1742 112.705 66.8961 112.611" stroke="black" stroke-width="0.8" stroke-miterlimit="10"/>
        <path d="M68.7532 112.512C68.7532 112.512 69.1305 112.554 69.8895 112.189L68.7532 112.512Z" fill="black"/>
        <path d="M68.7532 112.512C68.7532 112.512 69.1305 112.554 69.8895 112.189" stroke="black" stroke-width="0.8" stroke-miterlimit="10"/>
        <path d="M70.9268 112.868L68.5881 114.845" stroke="black" stroke-width="0.8" stroke-miterlimit="10"/>
        <path d="M70.9323 112.876L70.6438 115.365" stroke="black" stroke-width="0.8" stroke-miterlimit="10"/>
        <path d="M77.6985 111.669C77.9193 111.797 78.14 111.924 78.2833 112.093C78.5041 112.221 78.6473 112.39 78.7906 112.56C79.1367 112.917 79.4232 113.256 79.5547 113.681C79.7637 114.064 79.8773 114.548 79.9312 115.016C79.9851 115.484 79.9615 115.994 79.9558 116.445L80.0154 116.462C80.0869 116.223 80.0987 115.968 80.1702 115.73C80.1819 115.475 80.2534 115.236 80.2056 114.964C80.2292 114.454 80.0559 113.952 79.8648 113.511C79.4229 112.61 78.6352 111.999 77.6985 111.669Z" fill="white"/>
        <path d="M43.5047 87.22C42.6375 90.8531 42.6561 102.925 38.5021 105.422C36.0336 107.573 33.0596 107.951 30.233 107.136C26.3245 105.983 23.8407 103.35 22.8402 102.07L22.7825 101.943C22.1379 100.985 22.1038 99.7878 22.6087 98.8542C22.987 98.1696 23.6031 97.679 24.3332 97.5056C24.7594 97.3886 25.1815 97.4605 25.5403 97.657C25.7204 97.7237 25.8386 97.8521 25.9568 97.9805C27.4921 99.7127 32.3525 104.348 36.3752 100.341C37.364 99.4175 38.3882 88.6859 38.9112 86.9342C40.4208 87.092 41.9318 87.1868 43.5047 87.22Z" fill="black" stroke="black" stroke-width="0.8" stroke-miterlimit="10"/>
        <path d="M25.9397 97.3736C25.9397 97.3736 30.0214 96.5337 26.0956 101.679C21.8992 107.189 22.3569 101.939 22.3569 101.939L21.2737 102.375C21.2737 102.375 21.1587 111.866 14.8816 110.361C8.60442 108.855 12.8456 101.967 15.849 98.0825C18.8525 94.1981 21.3554 89.3545 25.9397 97.3736Z" fill="#E30611" stroke="black" stroke-width="0.8" stroke-miterlimit="10"/>
        <path d="M25.9487 97.3604C25.9487 97.3604 24.8145 97.8351 23.8682 99.2737L25.9487 97.3604Z" fill="black"/>
        <path d="M25.9487 97.3604C25.9487 97.3604 24.8145 97.8351 23.8682 99.2737" stroke="black" stroke-width="0.8" stroke-miterlimit="10"/>
        <path d="M22.8565 100.836C22.8565 100.836 22.5973 101.114 22.4453 101.942L22.8565 100.836Z" fill="black"/>
        <path d="M22.8565 100.836C22.8565 100.836 22.5973 101.114 22.4453 101.942" stroke="black" stroke-width="0.8" stroke-miterlimit="10"/>
        <path d="M21.276 102.369L21.0489 99.3072" stroke="black" stroke-width="0.8" stroke-miterlimit="10"/>
        <path d="M21.2722 102.37L19.4024 100.652" stroke="black" stroke-width="0.8" stroke-miterlimit="10"/>
        <path d="M18.2708 108.541C18.0345 108.643 17.7982 108.745 17.5732 108.76C17.337 108.862 17.112 108.877 16.8871 108.891C16.3877 108.958 15.9379 108.988 15.5107 108.842C15.0723 108.783 14.6069 108.587 14.1912 108.354C13.7754 108.12 13.371 107.798 13.0048 107.526L12.9553 107.564C13.1079 107.763 13.3101 107.924 13.4628 108.123C13.665 108.283 13.8177 108.482 14.0694 108.605C14.4738 108.926 14.9886 109.084 15.4653 109.192C16.4681 109.371 17.4401 109.099 18.2708 108.541Z" fill="white"/>
        <path d="M6.29646 29.4623C7.21463 29.2783 8.40825 29.8761 8.54598 30.8878C9.41824 37.4635 10.52 43.9473 12.6318 50.2471C13.4582 52.6843 14.6059 55.3054 16.7177 56.9148C18.8754 58.6162 21.4922 58.9841 24.1549 58.9381C27.4603 58.8462 30.6739 58.2024 33.9793 58.1104C34.9893 58.0644 35.8156 59.1221 35.7697 60.0877C35.7238 61.0994 34.8057 61.7891 33.7957 61.7891C27.7357 62.0191 21.2167 64.0884 15.6159 60.6855C12.9073 59.0301 11.0709 56.363 9.87733 53.512C8.6378 50.523 7.76553 47.3501 6.98509 44.2232C5.9751 40.0846 5.37829 35.8541 4.82739 31.6695C4.73557 30.6579 5.24056 29.6922 6.29646 29.4623Z" fill="black"/>
        <path d="M6.52625 29.3246C6.52625 29.3246 7.62805 19.7139 10.9794 20.3117C13.5962 20.8175 10.7957 30.0143 10.7957 30.0143L6.52625 29.3246Z" fill="white" stroke="black" stroke-width="0.8" stroke-miterlimit="10"/>
        <path d="M3.17488 29.4624C3.17488 29.4624 -1.0028 20.9094 2.34852 20.3116C5.69985 19.7138 6.80165 29.0026 6.80165 29.0026L3.17488 29.4624Z" fill="white" stroke="black" stroke-width="0.8" stroke-miterlimit="10"/>
        <path d="M11.8516 30.5659C11.8516 30.5659 14.9275 34.6125 11.2089 37.1876C11.2089 37.1876 13.1371 38.6591 10.8416 39.7627C8.5462 40.8664 3.45035 41.2342 4.36852 38.4752C4.36852 38.4752 -0.819138 36.4059 1.38447 30.9338L11.8516 30.5659Z" fill="white" stroke="black" stroke-width="0.8" stroke-miterlimit="10"/>
        <path d="M11.2548 37.1418C11.2548 37.1418 10.0611 37.8776 9.00525 38.0615" stroke="black" stroke-width="0.8" stroke-miterlimit="10"/>
        <path d="M6.61755 38.3833C6.61755 38.3833 5.69938 38.6128 4.41394 38.4751" stroke="black" stroke-width="0.8" stroke-miterlimit="10"/>
        <path d="M0.787607 28.5428C1.33851 28.2669 2.11895 28.3588 2.66986 28.6807C3.49621 29.1406 3.95529 30.1062 4.23075 30.9799C4.46029 31.7157 4.55211 32.6813 3.81757 33.2331C2.76167 33.9689 1.70578 33.1872 1.01715 32.3594C0.37443 31.5777 -0.176472 30.4741 0.0530703 29.4624C0.190796 29.0026 0.466247 28.6807 0.787607 28.5428Z" fill="white" stroke="black" stroke-width="0.8" stroke-miterlimit="10"/>
        <path d="M11.8974 30.6121C10.107 28.7268 5.88342 28.9107 4.36844 29.0027C3.49618 29.0486 2.57801 29.2786 2.30256 30.1063C1.29257 32.8653 7.49022 33.693 7.49022 33.693C7.49022 33.693 6.93932 35.6704 8.68385 36.1762" fill="white"/>
        <path d="M11.8974 30.6121C10.107 28.7268 5.88342 28.9107 4.36844 29.0027C3.49618 29.0486 2.57801 29.2786 2.30256 30.1063C1.29257 32.8653 7.49022 33.693 7.49022 33.693C7.49022 33.693 6.93932 35.6704 8.68384 36.1762" stroke="black" stroke-width="0.8" stroke-miterlimit="10"/>
        <path d="M45.5709 22.6685C50.0358 14.9352 61.1979 14.9352 65.6627 22.6685L92.5588 69.2538C97.0236 76.9872 91.4426 86.6538 82.5129 86.6538H28.7208C19.7911 86.6538 14.21 76.9872 18.6749 69.2538L45.5709 22.6685Z" fill="#D9D9D9" stroke="black" stroke-width="0.8"/>
        <path d="M86.4428 79.9955C85.9813 77.3354 83.5678 75.8535 81.0257 76.7372C78.4769 77.583 76.7776 80.4394 77.2016 83.1056C77.6631 85.7657 80.0766 87.2476 82.6187 86.3639C85.1675 85.5181 86.9043 82.6556 86.4428 79.9955ZM81.994 84.3165C80.4674 84.8392 79.003 83.9449 78.7261 82.3488C78.4492 80.7528 79.4653 79.063 80.9919 78.5403C82.5185 78.0176 83.9829 78.9119 84.2598 80.508C84.5367 82.1041 83.5272 83.8319 81.994 84.3165Z" fill="#F96F6F" stroke="black" stroke-width="0.8" stroke-miterlimit="10"/>
        <path d="M79.1858 74.555C79.1858 74.555 81.3881 90.3675 69.1269 91.5075C57.51 92.5815 56.5147 76.6112 56.5147 76.6112L79.1858 74.555Z" fill="#F96F6F" stroke="black" stroke-width="0.8" stroke-miterlimit="10"/>
        <path d="M79.2509 74.5982C79.0606 72.7317 73.8235 71.6831 67.5536 72.2562C61.2837 72.8293 56.3553 74.807 56.5456 76.6736C56.7359 78.5401 61.9729 79.5886 68.2428 79.0155C74.5127 78.4424 79.4412 76.4647 79.2509 74.5982Z" fill="#F96F6F" stroke="black" stroke-width="0.8" stroke-miterlimit="10"/>
        <path d="M57.2877 77.7361C56.8519 77.4522 56.6042 77.1374 56.5005 76.7593C58.0358 74.8868 60.4159 74.1002 63.1601 74.755C65.2625 75.2784 66.7959 76.093 68.853 75.0039C70.9411 73.8701 72.5843 72.8491 75.1271 73.4581C76.4174 73.7595 78.0021 73.973 79.2765 74.6325C79.3615 76.4756 74.4727 78.4256 68.259 78.9736C63.5329 79.3955 59.3896 78.9312 57.54 77.8526" fill="black"/>
        <path d="M57.2877 77.7361C56.8519 77.4522 56.6042 77.1374 56.5005 76.7593C58.0358 74.8868 60.4159 74.1002 63.1601 74.755C65.2625 75.2784 66.7959 76.093 68.853 75.0039C70.9411 73.8701 72.5843 72.8491 75.1271 73.4581C76.4174 73.7595 78.0021 73.973 79.2765 74.6325C79.3615 76.4756 74.4727 78.4256 68.259 78.9736C63.5329 79.3955 59.3896 78.9312 57.54 77.8526" stroke="black" stroke-width="0.8" stroke-miterlimit="10"/>
        <path d="M72.6514 74.2418C73.4835 73.9086 74.4059 73.8747 75.286 74.0443C76.166 74.2139 77.0038 74.5869 77.7794 75.0487C77.912 75.1447 77.7944 75.3605 77.6619 75.2644C76.8928 74.8409 76.0993 74.4999 75.2568 74.3241C74.4144 74.1484 73.5362 74.2142 72.6974 74.5093C72.5535 74.5722 72.5075 74.3048 72.6514 74.2418Z" fill="white"/>
        <path d="M57.2814 77.7844C57.572 77.2255 57.9887 76.7245 58.5069 76.364C59.1559 75.8641 59.9195 75.5812 60.7471 75.4451C61.2361 75.3646 61.7007 75.3668 62.2095 75.4011C62.3665 75.4145 62.3684 75.6501 62.2113 75.6366C60.6408 75.5019 59.0186 75.9654 57.9924 77.1957C57.7996 77.424 57.6444 77.6461 57.5334 77.9002L57.2814 77.7844Z" fill="white"/>
        <path d="M71.6709 74.4261C71.7771 74.3694 71.8899 74.3509 71.9961 74.2942C72.0713 74.2818 72.1155 74.3138 72.1663 74.384C72.1795 74.4603 72.1484 74.5047 72.0798 74.5552C72.0046 74.5676 71.8984 74.6243 71.8232 74.6366L71.7856 74.6428C71.748 74.6489 71.7104 74.6551 71.7104 74.6551C71.6728 74.6613 71.6662 74.6231 71.622 74.5911C71.6154 74.5529 71.6089 74.5148 71.6089 74.5148C71.6399 74.4704 71.6709 74.4261 71.6709 74.4261Z" fill="white"/>
        <path d="M62.9296 75.4716C63.0799 75.447 63.2057 75.5047 63.3382 75.6006C63.3824 75.6325 63.4331 75.7026 63.3711 75.7912C63.3401 75.8355 63.2715 75.8859 63.1832 75.822C63.1457 75.8282 63.1391 75.79 63.1015 75.7962C63.0574 75.7643 63.0198 75.7704 62.9822 75.7766C62.9446 75.7828 62.9446 75.7828 62.9071 75.7889C62.8319 75.8012 62.7812 75.7312 62.768 75.6549C62.8234 75.5282 62.8544 75.484 62.9296 75.4716Z" fill="white"/>
        <path d="M76.833 75.6831C77.3859 76.4494 77.8776 77.3037 78.2578 78.1761C78.5244 78.8335 78.9986 79.8074 78.4587 80.4409C78.1396 80.8047 77.5757 80.858 77.1823 80.5718C76.7386 80.216 76.6643 79.5661 76.6098 79.0299C76.5006 77.9573 76.6209 76.8861 76.8155 75.8028C76.8155 75.8028 76.8089 75.765 76.833 75.6831Z" fill="black" stroke="black" stroke-width="0.8" stroke-miterlimit="10"/>
        <path d="M76.8234 78.5642C76.8474 78.4824 76.9086 78.3945 76.9894 78.4202C77.0702 78.4459 77.1576 78.5095 77.1335 78.5913C77.1051 78.8685 77.1073 79.1017 77.1903 79.3607C77.2667 79.5818 77.3868 79.8347 77.5987 79.9558C77.6795 79.9815 77.6991 80.0951 77.638 80.183C77.5768 80.2708 77.5026 80.283 77.4152 80.2194C77.1597 80.0665 76.9894 79.744 76.8998 79.4472C76.8169 79.1882 76.7579 78.8474 76.8234 78.5642Z" fill="white"/>
        <path d="M114.92 76.2405C112.588 79.7821 107.625 80.7728 103.73 81.4181C102.237 81.6695 100.733 81.8291 99.2235 81.9429C98.5399 82.0155 97.8057 82.047 97.122 82.1196C97.0765 82.1244 97.0765 82.1244 97.0309 82.1292C96.2511 82.1656 95.4257 82.2068 94.6509 82.2891C94.1952 82.3375 93.78 82.3351 93.3242 82.3835C92.9596 82.4222 92.59 82.415 92.2254 82.4537C89.8859 82.5629 87.5515 82.7179 85.2322 83.0104C84.2295 83.1169 83.2172 82.714 82.9598 81.6278C82.9447 81.4902 82.9296 81.3526 82.9146 81.2151C82.9152 80.3799 83.4578 79.4408 84.3237 79.3489C84.6427 79.315 84.9618 79.2812 85.2808 79.2473C85.4175 79.2328 85.5542 79.2183 85.691 79.2038C88.5622 78.899 91.4536 78.7777 94.2943 78.6153C94.983 78.5886 95.6211 78.5209 96.3097 78.4942C96.5832 78.4652 96.811 78.441 97.0895 78.4578C97.8693 78.4215 98.6897 78.3344 99.4645 78.2522C101.839 78.0465 104.194 77.6573 106.483 77.0896C108.053 76.691 109.436 76.2658 110.713 75.2952C111.184 74.9668 111.554 74.5564 111.782 74.1146C111.706 74.2619 111.904 73.545 111.879 73.7332C111.894 73.4532 111.879 73.3156 111.823 73.2288C111.298 71.7999 109.714 70.8082 108.484 70.1036C105.285 68.2626 101.549 67.4065 97.9548 66.5817C93.6465 65.5544 94.6946 65.6677 90.4264 64.985C90.4264 64.985 89.6323 63.5515 89.2585 62.9308C88.6572 61.9324 88.0712 60.8342 88.0712 60.8342C90.2736 61.1572 96.1455 62.2735 98.3224 62.7847C102.347 63.7494 106.509 64.6995 110.148 66.7722C113.559 68.4515 117.485 72.3031 114.92 76.2405Z" fill="black"/>
        <path d="M93.9342 75.7323C93.9342 75.7323 95.8424 73.8607 96.4912 75.5576C97.003 76.8509 97.1985 79.8492 97.2556 81.1901C97.2764 81.7916 96.979 82.4265 96.4588 82.7131C96.1103 82.8889 95.0894 82.81 94.5988 82.5362C93.7659 83.32 92.7315 84.7751 90.3973 85.298C88.6492 85.7131 86.7188 85.7294 84.9646 85.2627C84.0648 85.0318 83.2355 84.6077 82.6485 83.8796C82.3246 83.4491 82.041 82.9679 81.9797 82.417C81.9491 82.1415 81.9691 81.9072 82.0749 81.6175C82.1152 81.5668 82.3319 81.0333 82.3319 81.0333C82.3319 81.0333 80.4901 78.9504 82.8637 77.5409C82.8637 77.5409 80.2218 74.0556 85.9023 74.2507C86.2257 74.2633 86.3756 72.715 87.5724 71.8931C87.7441 71.7823 89.0318 70.9509 90.4876 71.2165C92.2821 71.6325 93.7699 73.4274 93.9342 75.7323Z" fill="white" stroke="black" stroke-width="0.8" stroke-miterlimit="10"/>
        <path d="M82.9528 77.6921L85.1478 77.9303" stroke="black" stroke-width="0.8" stroke-miterlimit="10"/>
        <path d="M82.3536 81.1338L84.6245 81.223" stroke="black" stroke-width="0.8" stroke-miterlimit="10"/>
        <path d="M85.9651 74.3584L89.1286 74.5887" stroke="black" stroke-width="0.8" stroke-miterlimit="10"/>
        <path d="M93.9607 75.7227L94.2019 77.9628" stroke="black" stroke-width="0.8" stroke-miterlimit="10"/>
        <path d="M94.4254 80.8989L94.6483 82.5403" stroke="black" stroke-width="0.8" stroke-miterlimit="10"/>
        <path d="M66.0619 15.331C66.0619 15.331 76.9298 17.5976 75.4922 26.5508L55.3736 28.1552L35.3839 28.0234C33.691 21.455 42.0094 17.365 42.0094 17.365C42.1307 17.2994 41.9531 13.7164 42.0047 13.4054C42.068 11.5474 42.507 9.86351 43.5026 8.22448C45.5495 4.7591 49.3398 1.79731 53.5201 1.36027C59.235 0.69074 64.2451 4.93047 65.7071 10.0829C65.9876 11.1261 66.1448 12.1731 66.1788 13.2239C66.1212 13.3494 65.9366 15.273 66.0619 15.331Z" fill="#5663F1" stroke="black" stroke-width="0.8" stroke-miterlimit="10"/>
        <path d="M35.058 35.6384C40.14 34.4297 55.8397 31.4713 78.1378 34.1347C79.3766 34.2826 80.4561 33.3203 80.3565 32.1462C80.2629 31.1578 80.3542 30.1638 80.1373 29.1791C79.7591 27.0223 78.7346 23.9559 76.0681 23.5419C71.8527 22.9274 66.3588 22.8476 61.2327 22.6947C52.9551 22.3903 42.6653 22.829 34.251 25.9363C33.7639 26.137 33.3445 26.5216 33.1755 27.0224C32.776 28.0259 32.3865 29.3388 32.3152 30.9518C32.2339 32.2553 32.3952 33.4275 32.6737 34.4103C32.9482 35.2692 33.9544 35.858 35.058 35.6384Z" fill="#5663F1" stroke="black" stroke-width="0.8" stroke-miterlimit="10"/>
        <path d="M42.0206 23.8625L42.9004 34.0971" stroke="black" stroke-width="0.8" stroke-miterlimit="10"/>
        <path d="M51.4897 22.7629L51.9485 33.3804" stroke="black" stroke-width="0.8" stroke-miterlimit="10"/>
        <path d="M61.0482 22.7103L61.2032 33.1518" stroke="black" stroke-width="0.8" stroke-miterlimit="10"/>
        <path d="M70.6177 22.967L70.464 33.171" stroke="black" stroke-width="0.8" stroke-miterlimit="10"/>
        <path d="M50.6718 68.179C53.5182 70.2482 57.2368 70.7081 60.5881 69.7884C61.7817 69.4665 63.0671 68.9147 64.2148 68.133C66.0053 66.9374 67.3366 65.236 67.2907 63.0287C67.1989 61.0054 65.6839 60.4536 63.8935 60.4536C62.3326 60.4536 60.5422 60.9135 59.4404 61.1894C58.4763 61.4193 57.5581 61.6032 56.5481 61.5572C54.9872 61.4653 53.5182 60.7755 52.0032 60.5916C51.6818 60.5456 51.3605 60.5456 50.9932 60.5916C49.9373 60.6376 48.7437 60.9135 48.055 61.6032C46.0351 63.5805 49.1109 66.9834 50.6718 68.179Z" fill="black" stroke="black" stroke-width="0.8" stroke-miterlimit="10"/>
        <path d="M50.6718 68.1787C53.5182 70.248 57.2368 70.7079 60.5881 69.7882C61.7817 69.4663 63.0671 68.9145 64.2148 68.1328C62.8376 66.2474 60.3126 65.0058 57.4663 65.0058C54.5281 64.9598 52.0491 66.2474 50.6718 68.1787Z" fill="#E30611" stroke="black" stroke-width="0.8" stroke-miterlimit="10"/>
        <path d="M77.8732 47.7878C77.3374 44.5075 74.4297 42.2053 71.1709 42.3492C70.8668 42.3486 70.6144 42.3769 70.3217 42.4167C66.7632 43.0368 64.3731 46.4099 64.9482 49.9833C65.5635 53.5452 68.9299 55.9343 72.4997 55.3544C72.7924 55.3147 73.0737 55.2348 73.355 55.1549C76.4268 54.1951 78.4203 51.1084 77.8732 47.7878Z" fill="white" stroke="black" stroke-width="0.8" stroke-miterlimit="10"/>
        <path d="M73.355 55.1549C72.4114 54.1195 71.5839 52.5732 71.0439 50.8148L75.0609 48.2829L70.4172 47.2126C70.3306 45.3689 70.6223 43.6348 71.1709 42.3492C74.3895 42.2168 77.2973 44.519 77.8732 47.7879C78.4204 51.1085 76.4268 54.1952 73.355 55.1549Z" fill="black" stroke="black" stroke-width="0.8" stroke-miterlimit="10"/>
        <path d="M50.0554 47.3333C49.5716 44.0444 46.701 41.6955 43.4407 41.787C43.1367 41.7816 42.8838 41.8058 42.5906 41.8408C39.0232 42.4037 36.5802 45.7383 37.0986 49.3208C37.6574 52.8926 40.9852 55.3358 44.5634 54.8133C44.8566 54.7783 45.1391 54.7029 45.4217 54.6275C48.5079 53.7172 50.5498 50.6627 50.0554 47.3333Z" fill="white" stroke="black" stroke-width="0.8" stroke-miterlimit="10"/>
        <path d="M45.4216 54.6276C44.4946 53.5771 43.6918 52.0175 43.1797 50.2504L47.2358 47.7832L42.6102 46.6383C42.5527 44.7932 42.8718 43.0639 43.4406 41.7871C46.6606 41.7064 49.5312 44.0553 50.0553 47.3335C50.5498 50.6628 48.5078 53.7173 45.4216 54.6276Z" fill="black" stroke="black" stroke-width="0.8" stroke-miterlimit="10"/>
        <circle cx="8.75465" cy="8.75465" r="8.35465" transform="matrix(-1 0 0 1 82.3713 39.9546)" stroke="black" stroke-width="0.8"/>
        <circle cx="8.75465" cy="8.75465" r="8.35465" transform="matrix(-1 0 0 1 54.4608 39.262)" stroke="black" stroke-width="0.8"/>
        <rect width="10.2859" height="0.692716" transform="matrix(-1 0 0 1 64.7554 48.0166)" fill="black"/>
        <path d="M57.864 50.4036L58.2353 53.3164C58.2353 53.3164 62.8758 52.4488 63.1852 54.8658C63.4945 57.2829 58.0496 56.911 58.0496 56.911" fill="#D9D9D9"/>
        <path d="M57.864 50.4036L58.2353 53.3164C58.2353 53.3164 62.8758 52.4488 63.1852 54.8658C63.4945 57.2829 58.0496 56.911 58.0496 56.911" stroke="black" stroke-width="0.8" stroke-miterlimit="10"/>
    </g>
    <defs>
        <clipPath id="clip0_722_4680">
            <rect width="117" height="121" fill="white"/>
        </clipPath>
    </defs>
</svg>
