<svg width="96" height="91" viewBox="0 0 96 91" fill="none" xmlns="http://www.w3.org/2000/svg">
<path d="M84.968 31.2732L86.6265 24.1528L79.3043 22.4646L80.9034 15.5997L66.4687 12.2717L64.8718 19.1278L58.0738 17.5605L56.4153 24.681L49.3989 23.0633L50.9959 16.2072L44.198 14.6399L45.9181 7.25511L31.2126 3.86467L29.4925 11.2495L22.4324 9.62177L20.7739 16.7422L13.9759 15.1749L8.86478 37.1179L15.6627 38.6852L14.0657 45.5413L21.1258 47.169L19.5288 54.0251L26.851 55.7133L25.1924 62.8337L32.2524 64.4615L30.5939 71.5819L37.3918 73.1492L35.6717 80.534L43.0463 82.2343L44.7048 75.1138L51.7649 76.7416L53.4234 69.6211L60.4835 71.2488L62.142 64.1284L69.4642 65.8166L71.1228 58.6961L78.1828 60.3238L79.8414 53.2034L86.9014 54.8311L92.0126 32.8881L84.97 31.2644L84.968 31.2732ZM79.6228 52.8373L72.554 51.2075L70.8955 58.328L63.8354 56.7003L62.1769 63.8207L54.8547 62.1325L53.1961 69.253L46.1361 67.6253L44.4775 74.7457L37.9854 73.2489L39.7056 65.8641L32.6455 64.2364L34.3041 57.1159L26.9819 55.4278L28.6405 48.3073L21.5804 46.6796L23.1774 39.8235L16.3795 38.2562L21.2854 17.1944L28.0833 18.7617L29.8034 11.3769L43.6265 14.5639L41.9063 21.9487L48.9664 23.5764L47.3694 30.4325L54.7178 32.1267L56.3763 25.0063L63.6985 26.6944L65.2955 19.8384L79.1185 23.0253L77.5215 29.8814L84.5816 31.5091L79.6141 52.8353L79.6228 52.8373Z" fill="#F96F6F"/>
</svg>
