<svg width="119" height="119" viewBox="0 0 119 119" fill="none" xmlns="http://www.w3.org/2000/svg">
<path d="M79.7502 57.1758C89.3771 71.0675 90.5096 91.8418 87.1634 108.954C86.3397 113.058 81.1402 111.543 81.9639 107.438C84.7953 92.8521 84.4349 73.9721 76.0951 61.9748C73.8815 58.8176 77.4851 53.9555 79.7502 57.1758Z" fill="black"/>
<path d="M89.1206 105.82L79.7445 105.567L79.4278 117.501L102.234 117.691L102.361 114.975C102.361 114.975 100.904 109.798 89.0572 111.187L89.1206 105.82Z" fill="#F96F6F" stroke="black" stroke-width="0.8" stroke-miterlimit="10"/>
<path d="M95.7725 111.124C101.474 111.945 102.361 114.976 102.361 114.976L102.234 117.691L94.062 117.628C94.3154 115.355 94.8222 113.208 95.7725 111.124Z" fill="white" stroke="black" stroke-width="0.8" stroke-miterlimit="10"/>
<path d="M79.5545 114.597L102.361 114.976L102.234 117.691L79.4278 117.501L79.5545 114.597Z" fill="white" stroke="black" stroke-width="0.8" stroke-miterlimit="10"/>
<path d="M88.9306 107.967V107.651L84.8761 107.525V107.841L88.9306 107.967Z" fill="white"/>
<path d="M84.879 109.629L88.869 109.731L88.8625 109.984L84.8725 109.882L84.879 109.629Z" fill="white"/>
<path d="M84.6859 107.904C84.5459 107.904 84.4325 107.791 84.4325 107.651C84.4325 107.512 84.5459 107.398 84.6859 107.398C84.8258 107.398 84.9393 107.512 84.9393 107.651C84.9393 107.791 84.8258 107.904 84.6859 107.904Z" fill="white" stroke="white" stroke-width="0.8" stroke-miterlimit="10"/>
<path d="M84.6228 109.988C84.4828 109.988 84.3694 109.875 84.3694 109.735C84.3694 109.595 84.4828 109.482 84.6228 109.482C84.7627 109.482 84.8762 109.595 84.8762 109.735C84.8762 109.875 84.7627 109.988 84.6228 109.988Z" fill="white" stroke="white" stroke-width="0.8" stroke-miterlimit="10"/>
<path d="M68.4015 60.2576C58.6191 73.6793 57.4683 93.7509 60.8685 110.284C61.7055 114.25 66.9891 112.785 66.1521 108.82C63.2749 94.7271 63.6411 76.4857 72.1156 64.8942C74.3651 61.8438 70.6509 57.1462 68.4015 60.2576Z" fill="black"/>
<path d="M58.0355 107.013L67.0944 106.769L67.4004 118.299L45.3653 118.482L45.2429 115.859C45.2429 115.859 46.6507 110.856 58.0967 112.198L58.0355 107.013Z" fill="#F96F6F" stroke="black" stroke-width="0.8" stroke-miterlimit="10"/>
<path d="M51.6086 112.138C46.0998 112.931 45.2429 115.859 45.2429 115.859L45.3653 118.482L53.2612 118.421C53.0164 116.225 52.5267 114.151 51.6086 112.138Z" fill="white" stroke="black" stroke-width="0.8" stroke-miterlimit="10"/>
<path d="M67.278 115.493L45.2429 115.859L45.3653 118.482L67.4004 118.299L67.278 115.493Z" fill="white" stroke="black" stroke-width="0.8" stroke-miterlimit="10"/>
<path d="M58.2192 109.088V108.782L62.1366 108.66V108.966L58.2192 109.088Z" fill="white"/>
<path d="M62.0857 110.697L62.092 110.942L58.237 111.041L58.2307 110.796L62.0857 110.697Z" fill="white"/>
<path d="M62.3202 109.027C62.185 109.027 62.0754 108.917 62.0754 108.782C62.0754 108.647 62.185 108.538 62.3202 108.538C62.4554 108.538 62.565 108.647 62.565 108.782C62.565 108.917 62.4554 109.027 62.3202 109.027Z" fill="white" stroke="white" stroke-width="0.8" stroke-miterlimit="10"/>
<path d="M62.3202 111.04C62.185 111.04 62.0754 110.931 62.0754 110.796C62.0754 110.661 62.185 110.551 62.3202 110.551C62.4554 110.551 62.565 110.661 62.565 110.796C62.565 110.931 62.4554 111.04 62.3202 111.04Z" fill="white" stroke="white" stroke-width="0.8" stroke-miterlimit="10"/>
<path d="M60.0443 90.4669C57.9053 89.7669 57.0746 86.4588 56.2489 83.1711C55.5382 80.3409 54.8313 77.5258 53.2969 76.4021C51.7399 75.2544 48.8331 75.4429 45.9253 75.6315C42.5895 75.8479 39.2526 76.0644 37.9514 74.2633C36.6685 72.4823 37.8905 69.376 39.1184 66.2548C40.1963 63.5148 41.2788 60.7634 40.6748 58.8871L60.0443 90.4669ZM60.0443 90.4669C62.0746 91.1322 64.5879 89.0307 67.134 86.9016C69.4046 85.003 71.7013 83.0824 73.7051 83.0824C75.71 83.0824 78.0079 85.0028 80.2795 86.9012C82.8246 89.0281 85.3365 91.1273 87.3659 90.4669C89.5067 89.7663 90.3396 86.4536 91.1668 83.1633C91.8777 80.3358 92.5844 77.5248 94.1134 76.4021C95.6691 75.2594 98.5725 75.4489 101.478 75.6385C104.816 75.8564 108.157 76.0745 109.459 74.2721L60.0443 90.4669ZM37.9352 71.0886C37.6985 72.3388 37.7712 73.3284 38.2756 74.0291L53.5337 76.0797C54.4652 76.7622 55.0856 77.9628 55.5673 79.3064C55.9803 80.4582 56.3117 81.7781 56.6379 83.0776C56.6951 83.3055 56.7522 83.5328 56.8095 83.7585C57.1977 85.2867 57.5978 86.7406 58.1392 87.891C58.6836 89.0477 59.3321 89.8129 60.1688 90.0867L60.1689 90.0868C60.966 90.348 61.9064 90.112 63.0056 89.4952C64.0972 88.8827 65.2592 87.9443 66.4648 86.9394C66.6018 86.8252 66.7394 86.7102 66.8774 86.5948C67.9411 85.7052 69.0308 84.7938 70.0947 84.081C71.2889 83.2808 72.518 82.6824 73.7051 82.6824C74.8922 82.6824 76.1212 83.2801 77.3155 84.0796C78.3804 84.7926 79.4712 85.7043 80.536 86.5942C80.673 86.7087 80.8095 86.8228 80.9454 86.936C82.1511 87.9403 83.3131 88.8786 84.4048 89.4916C85.5041 90.1088 86.4449 90.346 87.2422 90.0865C88.0786 89.8125 88.7274 89.0473 89.2724 87.8908C89.8145 86.7405 90.2153 85.2865 90.6041 83.7584C90.6621 83.5302 90.7199 83.3004 90.7778 83.0699C91.1038 81.7729 91.4348 80.4559 91.8466 79.3065C92.3279 77.9629 92.9473 76.7621 93.8767 76.0797C94.8146 75.3908 96.1438 75.1596 97.5644 75.1076C98.7969 75.0625 100.164 75.1518 101.507 75.2395C101.723 75.2536 101.938 75.2677 102.152 75.2812C103.713 75.3793 105.205 75.4453 106.453 75.285C107.708 75.1239 108.624 74.7451 109.135 74.0379C109.639 73.3372 109.712 72.3476 109.475 71.0974C109.24 69.8546 108.717 68.4466 108.144 66.9805C108.07 66.7918 107.995 66.6021 107.92 66.4119C107.42 65.1393 106.909 63.8408 106.57 62.6291C106.182 61.2453 105.994 59.8944 106.355 58.7733L106.355 58.7732C106.706 57.6833 107.645 56.7282 108.761 55.859C109.699 55.1279 110.816 54.4191 111.919 53.719C112.137 53.5805 112.355 53.4424 112.57 53.3044C113.89 52.4602 115.137 51.6235 116.053 50.7408C116.974 49.8548 117.5 48.9815 117.5 48.07C117.5 47.1586 116.974 46.2853 116.053 45.3993C115.137 44.5166 113.89 43.6799 112.57 42.8357C112.355 42.6977 112.137 42.5596 111.919 42.4211C110.816 41.721 109.699 41.0122 108.761 40.2811C107.645 39.4118 106.706 38.4567 106.355 37.3669L106.355 37.3667C105.994 36.2457 106.182 34.8948 106.57 33.511C106.909 32.2993 107.42 31.0008 107.92 29.7282C107.995 29.538 108.07 29.3483 108.144 29.1596C108.717 27.6935 109.24 26.2855 109.475 25.0427C109.712 23.7922 109.639 22.8024 109.134 22.1017C108.623 21.3948 107.708 21.0162 106.453 20.8551C105.205 20.6948 103.713 20.7608 102.152 20.8589C101.938 20.8724 101.723 20.8864 101.507 20.9005C100.164 20.9882 98.7969 21.0776 97.5644 21.0325C96.1439 20.9805 94.8148 20.7494 93.8768 20.0605C92.9453 19.3782 92.3247 18.1774 91.843 16.8337C91.43 15.6819 91.0986 14.362 90.7724 13.0625C90.7152 12.8346 90.6581 12.6073 90.6008 12.3816C90.2126 10.8534 89.8125 9.39944 89.2711 8.24908C88.7267 7.09237 88.0782 6.32714 87.2415 6.05334L87.2414 6.05329C86.4443 5.79209 85.5039 6.02807 84.4047 6.64486C83.3131 7.25737 82.1511 8.19583 80.9455 9.2007C80.8085 9.3149 80.6709 9.42994 80.5329 9.54535C79.4692 10.4349 78.3794 11.3463 77.3156 12.0591C76.1214 12.8593 74.8923 13.4576 73.7051 13.4576C72.5177 13.4576 71.289 12.858 70.0956 12.0561C69.032 11.3414 67.9426 10.4276 66.8794 9.53561C66.742 9.42039 66.6051 9.30553 66.4687 9.19151C65.2641 8.18441 64.1033 7.24382 63.0125 6.62973C61.9141 6.01133 60.9744 5.77459 60.1776 6.03569L60.1775 6.03574C59.3407 6.30957 58.6917 7.07491 58.1466 8.23165C57.6045 9.38201 57.2037 10.836 56.815 12.3641C56.7569 12.5923 56.6991 12.8221 56.6412 13.0526C56.3152 14.3496 55.9842 15.6665 55.5724 16.816C55.0911 18.1596 54.4717 19.3604 53.5424 20.0428C52.6044 20.7317 51.2752 20.9628 49.8546 21.0148C48.6222 21.06 47.2549 20.9706 45.9123 20.8829C45.6964 20.8688 45.4812 20.8548 45.2673 20.8413C43.7064 20.7432 42.2144 20.6772 40.9661 20.8375C39.7112 20.9986 38.7953 21.3774 38.2844 22.0846C37.7799 22.7853 37.7072 23.7749 37.944 25.0251C38.1794 26.2679 38.7021 27.6759 39.2754 29.142C39.3492 29.3306 39.4238 29.5203 39.4986 29.7105C39.9994 30.9831 40.5103 32.2816 40.8494 33.4934C41.2367 34.8772 41.4252 36.2281 41.0643 37.3491L41.0643 37.3493C40.713 38.4391 39.7742 39.3942 38.6583 40.2635C37.7198 40.9946 36.6032 41.7034 35.5002 42.4036C35.282 42.542 35.0644 42.6802 34.8488 42.8181C33.529 43.6623 32.2824 44.499 31.3655 45.3817C30.4451 46.2677 29.9192 47.141 29.9192 48.0524V48.2172L29.9159 48.2206C29.9733 49.0748 30.4902 49.8977 31.3568 50.732C32.2737 51.6147 33.5203 52.4514 34.8401 53.2956C35.0557 53.4335 35.2733 53.5717 35.4915 53.7102C36.5945 54.4103 37.7111 55.1191 38.6496 55.8502C39.7655 56.7194 40.7043 57.6745 41.0555 58.7644L41.0556 58.7645C41.4164 59.8855 41.228 61.2365 40.8407 62.6203C40.5016 63.8321 39.9906 65.1306 39.4899 66.4032C39.4151 66.5934 39.3404 66.783 39.2667 66.9717C38.6934 68.4378 38.1706 69.8458 37.9352 71.0886Z" fill="#ACBFFF" stroke="black" stroke-width="0.8"/>
<path d="M67.7913 36.8038C67.4723 31.8967 65.9393 27.7642 63.8963 25.9143C63.0871 25.2051 62.2572 24.7967 61.3963 24.8395C58.2542 25.0311 56.1001 30.6783 56.4892 37.504C56.8818 44.2795 59.7924 49.6631 62.8842 49.4682C63.6948 49.422 64.4828 48.9714 65.1372 48.2599C66.9967 46.1689 68.1035 41.8111 67.7913 36.8038Z" fill="white" stroke="black" stroke-width="0.8" stroke-miterlimit="10"/>
<path d="M65.1416 48.21C62.1783 48.0106 59.5248 43.2993 59.1742 37.383C59.1879 37.1825 59.1515 36.9785 59.1618 36.8281L63.8948 36.2401L59.2576 33.9638C59.7112 29.5622 61.5023 26.2579 63.8974 25.9155C65.9401 27.7653 67.4694 31.9478 67.7918 36.8045C68.1039 41.8116 66.9973 46.1692 65.1416 48.21Z" fill="black" stroke="black" stroke-width="0.8" stroke-miterlimit="10"/>
<path d="M88.3891 35.5305C88.07 30.6235 86.537 26.491 84.494 24.6411C83.6848 23.9319 82.8549 23.5235 81.9941 23.5663C78.852 23.7578 76.6978 29.4051 77.0869 36.2308C77.4795 43.0063 80.3901 48.3899 83.4819 48.195C84.2926 48.1488 85.0805 47.6981 85.735 46.9867C87.5945 44.8956 88.7012 40.5378 88.3891 35.5305Z" fill="white" stroke="black" stroke-width="0.8" stroke-miterlimit="10"/>
<path d="M85.7361 46.9869C82.7727 46.7875 80.1192 42.0761 79.7686 36.1599C79.7824 35.9593 79.7459 35.7554 79.7563 35.605L84.4893 35.0169L79.852 32.7407C80.3057 28.3391 82.0968 25.0348 84.4919 24.6923C86.5345 26.5422 88.0638 30.7246 88.3863 35.5813C88.7018 40.5383 87.5952 44.8959 85.7361 46.9869Z" fill="black" stroke="black" stroke-width="0.8" stroke-miterlimit="10"/>
<path d="M71.6476 39.6356L71.7979 41.8618C71.7979 41.8618 71.999 41.8754 72.0527 41.8286C73.3194 41.7629 74.8237 41.9147 75.0187 43.4892C75.1965 45.3143 73.1346 45.9308 71.7618 45.3346" fill="#ACBFFF"/>
<path d="M71.6476 39.6356L71.7979 41.8618C71.7979 41.8618 71.999 41.8754 72.0527 41.8286C73.3194 41.7629 74.8237 41.9147 75.0187 43.4892C75.1965 45.3143 73.1346 45.9308 71.7618 45.3346" stroke="black" stroke-width="0.8" stroke-miterlimit="10"/>
<path d="M69.989 57.2504C70.9014 58.6719 72.0962 59.6591 73.7652 59.6205C75.384 59.5785 76.4615 58.5933 77.2146 57.1833C79.1346 53.4846 78.6265 46.9022 78.6265 46.9022L75.0839 47.016L70.6296 47.1691L67.5429 47.2633C67.5394 47.3134 67.7095 53.6716 69.989 57.2504Z" fill="black" stroke="black" stroke-width="0.8" stroke-miterlimit="10"/>
<path d="M69.9573 56.9956C70.863 58.5176 72.1013 59.6085 73.7705 59.5699C75.3894 59.5279 76.4705 58.4925 77.2306 56.9821C77.0299 54.752 75.2765 53.0722 73.2954 53.2409C71.4685 53.3697 70.0446 54.9865 69.9573 56.9956Z" fill="#E30611" stroke="black" stroke-width="0.8" stroke-miterlimit="10"/>
<path d="M78.8187 44.8545C78.4156 45.5827 77.4851 47.3832 77.5679 49.8563C77.6906 52.4832 78.8795 54.2756 79.3906 54.9143" fill="#ACBFFF"/>
<path d="M78.8187 44.8545C78.4156 45.5827 77.4851 47.3832 77.5679 49.8563C77.6906 52.4832 78.8795 54.2756 79.3906 54.9143" stroke="black" stroke-width="0.8" stroke-miterlimit="10"/>
<path d="M67.135 45.0702C67.5387 45.8025 68.4224 47.6246 68.3044 50.0841C68.1761 52.694 66.9448 54.4741 66.4451 55.1454" fill="#ACBFFF"/>
<path d="M67.135 45.0702C67.5387 45.8025 68.4224 47.6246 68.3044 50.0841C68.1761 52.694 66.9448 54.4741 66.4451 55.1454" stroke="black" stroke-width="0.8" stroke-miterlimit="10"/>
<path d="M40.0815 57.1771C40.577 57.5726 41.1853 59.5276 41.1853 59.5276C41.1853 59.5276 40.1117 59.9697 38.6545 60.4123C34.729 61.4763 30.8561 60.5228 27.7414 57.9479C24.752 55.4634 22.7213 52.0543 20.8953 48.6789C20.0108 47.0309 19.1548 45.4224 18.3894 43.6892C18.0353 42.8623 17.6811 42.0353 17.327 41.2084C16.927 40.2341 16.5668 39.2315 16.1954 38.2969C16.1954 38.2969 16.1669 38.2573 16.1384 38.2176C15.8127 37.4303 15.4871 36.643 15.1899 35.8953C14.7218 34.9098 15.4127 33.6964 16.3783 33.3667C17.4234 32.9802 18.516 33.5797 18.9159 34.5539C19.1673 35.1543 19.4299 35.6867 19.6415 36.3155C20.07 37.3293 20.4872 38.4112 20.8759 39.4535C21.2931 40.5354 21.7388 41.6569 22.264 42.7217C22.9948 44.2396 23.8395 45.916 24.5928 47.2978C26.1847 50.1805 27.9986 53.2045 30.6062 55.2417C32.9634 57.0978 34.2502 58.0561 37.1807 56.8629C39.3218 55.9935 38.6731 56.2483 38.6731 56.2483C38.6731 56.2483 39.221 56.4902 40.0815 57.1771Z" fill="black"/>
<path d="M12.4324 39.3104C12.4324 39.3104 -1.44568 26.7727 2.73428 23.3179C2.73428 23.3179 4.28827 22.208 5.75794 23.2703C5.75794 23.2703 5.29708 19.1408 8.99761 20.2525C11.304 20.9519 11.8842 25.4655 11.8842 25.4655C11.9574 25.0221 12.49 24.5635 12.8154 24.2528C13.6363 23.4319 14.5687 22.7659 15.6498 22.3067C17.2196 21.6549 19.4651 21.6155 20.3728 23.3139C20.41 23.3655 20.4472 23.4172 20.4326 23.5059C21.0881 25.0715 19.5949 26.9201 17.9192 26.5525C16.7255 26.31 15.31 26.3041 14.3855 27.1991C13.1209 28.4933 13.8068 30.4283 15.3868 31.099C17.3081 31.917 20.1436 30.5176 20.2323 26.9342C20.2311 26.3875 20.0892 25.8631 20.266 25.3457C20.5092 24.7027 21.3313 24.4285 21.9101 24.7973C23.8989 26.0364 26.468 31.789 20.1304 34.7511" fill="white"/>
<path d="M12.4324 39.3104C12.4324 39.3104 -1.44568 26.7727 2.73428 23.3179C2.73428 23.3179 4.28827 22.208 5.75794 23.2703C5.75794 23.2703 5.29708 19.1408 8.99761 20.2525C11.304 20.9519 11.8842 25.4655 11.8842 25.4655C11.9574 25.0221 12.49 24.5635 12.8154 24.2528C13.6363 23.4319 14.5687 22.7659 15.6498 22.3067C17.2196 21.6549 19.4651 21.6155 20.3728 23.3139C20.41 23.3655 20.4472 23.4172 20.4326 23.5059C21.0881 25.0715 19.5949 26.9201 17.9192 26.5525C16.7255 26.31 15.31 26.3041 14.3855 27.1991C13.1209 28.4933 13.8068 30.4283 15.3868 31.099C17.3081 31.917 20.1436 30.5176 20.2323 26.9342C20.2311 26.3875 20.0892 25.8631 20.266 25.3457C20.5092 24.7027 21.3313 24.4285 21.9101 24.7973C23.8989 26.0364 26.468 31.789 20.1304 34.7511" stroke="black" stroke-width="0.8" stroke-miterlimit="10"/>
<path d="M5.72167 23.2232L8.19041 27.6372" stroke="black" stroke-width="0.8" stroke-miterlimit="10"/>
<path d="M18.1716 36.065L20.163 34.7992C22.7987 33.2296 28.1707 35.574 19.0854 40.4982C9.96291 45.3708 12.4924 39.1824 12.4924 39.1824C12.8405 39.012 13.3293 38.8194 13.7438 38.5233C14.1437 38.316 14.5064 38.0569 14.7801 37.7832" fill="white"/>
<path d="M18.1716 36.065L20.163 34.7992C22.7987 33.2296 28.1707 35.574 19.0854 40.4982C9.96291 45.3708 12.4924 39.1824 12.4924 39.1824C12.8405 39.012 13.3293 38.8194 13.7438 38.5233C14.1437 38.316 14.5064 38.0569 14.7801 37.7832" stroke="black" stroke-width="0.8" stroke-miterlimit="10"/>
<path d="M42.6348 14.7801L45.4075 16.4265C45.5255 16.3089 48.1212 13.7217 48.1212 13.7217C53.7256 8.66489 66.4093 -0.449166 81.5707 4.84286C88.7679 7.31248 94.6673 12.7221 98.7378 17.4849C99.5048 18.3669 100.213 19.2489 100.862 20.0722C102.041 21.5422 102.985 22.8946 103.693 23.953L106.407 22.483C102.867 17.3085 94.6673 6.78328 82.3376 2.49085C63.2826 -4.09479 48.3572 9.01769 43.7557 13.6629C43.2837 14.1333 42.9298 14.5449 42.6348 14.7801Z" fill="#E30611" stroke="black" stroke-width="0.8" stroke-miterlimit="10"/>
<path d="M44.9945 40.0054C46.4694 39.8878 47.8852 39.4174 49.1241 38.653C49.1831 38.653 49.1831 38.5942 49.2421 38.5942V15.0153V14.2509C49.1831 14.2509 49.1831 14.1921 49.1241 14.1921C48.3572 13.8393 47.5902 13.6041 46.7643 13.4865C46.1744 13.4277 45.5844 13.3689 44.9355 13.4277C39.0361 13.8393 34.2576 20.1309 34.3166 27.4222C34.3166 34.831 39.0951 40.417 44.9945 40.0054Z" fill="#E30611" stroke="black" stroke-width="0.8" stroke-miterlimit="10"/>
<path d="M102.69 43.651C102.041 43.7098 101.452 43.7098 100.862 43.5922C100.272 43.5334 99.6817 43.357 99.0918 43.1806C98.9738 32.4202 98.7968 22.3653 98.7378 18.2493C99.9177 17.6025 101.216 17.1909 102.513 17.1321C108.472 16.6617 113.368 22.2477 113.427 29.539C113.427 36.8302 108.649 43.1806 102.69 43.651Z" fill="#E30611" stroke="black" stroke-width="0.8" stroke-miterlimit="10"/>
<path d="M98.6898 61.1816L92.0816 57.2479L88.4772 62.6336L87.0123 64.8836L85.9614 66.4731L77.7018 78.8337L77.3789 83.3608L77.1541 86.5135C78.1242 86.0559 79.1002 85.5173 80.0704 85.0596L84.1306 82.9981L92.5263 70.4442L93.5772 68.8548L95.042 66.6047L98.6898 61.1816Z" fill="#5663F1" stroke="black" stroke-width="0.8" stroke-miterlimit="10"/>
<path d="M77.6948 78.8361L79.9271 77.8204L79.8672 80.375L82.3339 78.9295L82.0568 81.6714L84.1646 80.6873L84.122 82.9994L77.1906 86.4764L77.6948 78.8361Z" fill="white" stroke="black" stroke-width="0.8" stroke-miterlimit="10"/>
<path d="M77.4131 83.3252C77.5376 83.2936 78.3831 82.8676 79.2085 83.2932C80.1092 83.8054 80.1096 84.9427 80.1039 85.0236C79.1339 85.4811 78.1582 86.0195 77.1883 86.4771L77.4131 83.3252Z" fill="black" stroke="black" stroke-width="0.8" stroke-miterlimit="10"/>
<path d="M79.8937 77.8581L93.2564 57.9826" stroke="black" stroke-width="0.8" stroke-miterlimit="10"/>
<path d="M82.2937 79.0457L95.326 59.2277" stroke="black" stroke-width="0.8" stroke-miterlimit="10"/>
<path d="M84.1664 80.7641L97.4824 60.3979" stroke="black" stroke-width="0.8" stroke-miterlimit="10"/>
<path d="M92.7737 56.2783C92.7737 56.2783 95.0074 52.3796 98.491 54.3789C102.012 56.4216 99.3789 60.21 99.3789 60.21L92.7737 56.2783Z" fill="#FF1F33" stroke="black" stroke-width="0.8" stroke-miterlimit="10"/>
<path d="M96.6027 55.1775C95.7713 54.8326 94.6447 55.1977 94.0078 56.1265C93.8717 56.3198 93.6399 56.1404 93.776 55.9472C94.5055 54.8626 95.8812 54.4343 96.788 54.8659C96.9502 54.8777 96.8026 55.2326 96.6027 55.1775Z" fill="white"/>
<path d="M97.034 55.4109C96.8773 55.3181 97.1063 54.9686 97.2572 55.1423C97.4573 55.1975 97.2283 55.547 97.034 55.4109Z" fill="white"/>
<path d="M92.0931 57.2461L98.7345 61.2204L99.3768 60.2114L92.773 56.2804L92.0931 57.2461Z" fill="black" stroke="black" stroke-width="0.8" stroke-miterlimit="10"/>
<path d="M91.4209 72.3964C91.6693 72.5342 91.9176 72.6719 92.166 72.8097C93.939 73.7121 95.712 74.6144 97.5539 75.393C99.0509 76.0613 100.534 76.6814 102.003 77.2534C102.3 77.3774 102.645 77.4877 102.942 77.6117C106.287 78.9004 110.598 80.2791 114.08 78.7681C119.457 76.4053 116.437 69.3453 114.435 65.643C112.211 61.5346 110.348 60.6925 107.008 57.4226L106.311 59.267L106.313 61.3555C107.949 63.2346 109.594 65.509 110.788 67.6698C111.361 68.7571 111.9 69.9063 112.329 71.0348C112.64 71.9362 113.054 73.0165 112.966 73.9795C112.979 74.0276 112.869 74.3715 112.883 74.4197C112.849 74.4816 112.814 74.5435 112.814 74.5435C112.78 74.6054 112.663 74.7429 112.614 74.7566L112.566 74.7703C112.304 74.949 111.615 75.093 111.311 75.1272C110.277 75.1609 109.201 75.0501 108.132 74.7811C105.849 74.2842 103.524 73.2783 101.337 72.3894C100.448 72.0173 99.6198 71.6797 98.7781 71.2939C97.8123 70.8392 96.8465 70.3845 95.8807 69.9299C95.1494 69.5648 94.4181 69.1997 93.7351 68.8209C93.246 69.4809 92.8052 70.1273 92.4265 70.808C92.0683 71.3788 91.7446 71.8876 91.4209 72.3964Z" fill="black"/>
<path d="M99.2288 69.2775C98.8584 69.1779 98.8302 68.3665 98.7846 67.9698C98.5918 65.6348 96.5933 63.6763 95.1741 62.7822C94.6047 62.466 92.8058 61.2018 91.6863 61.5881C89.2579 62.4145 91.936 66.0236 92.7413 67.1604C92.0818 67.0063 91.9372 66.9791 91.7927 66.9519C91.5036 66.8975 91.1964 66.7799 90.8441 66.7434C90.311 66.5535 89.7328 66.4446 89.1997 66.2547C87.9076 65.8024 86.7237 65.2511 85.4316 64.7989C84.5912 64.4914 83.2359 64.0571 82.46 64.6872C81.9006 65.1192 81.9919 65.9126 82.1102 66.5618C82.1102 66.5618 82.1102 66.5618 82.1283 66.6249C82.1283 66.6249 79.474 67.379 81.4012 70.0406C81.1034 70.1935 80.7874 70.2833 80.6704 70.5896C80.1479 71.6257 81.4144 73.1777 82.0295 73.8906C83.5763 75.7044 85.7913 77.4648 87.9332 78.495C89.7497 79.3446 91.737 79.5993 93.7143 79.1059C94.0935 78.9981 94.4727 78.8904 94.8519 78.7827C95.1679 78.6929 95.7272 78.2609 96.0163 78.3153C96.0163 78.3153 96.1434 78.7572 96.1615 78.8203C96.3336 79.1811 96.5689 79.5239 96.8492 79.7857C97.5093 80.4175 98.5211 80.608 99.3333 80.1041C100.552 79.3484 100.884 77.8884 101.207 76.6357C101.585 75.0947 102.125 73.644 102.583 72.1481C104.023 67.6425 100.502 68.7111 100.032 68.9809C99.2739 69.1964 99.4366 69.2867 99.2288 69.2775Z" fill="white" stroke="black" stroke-width="0.8" stroke-miterlimit="10"/>
<path d="M90.127 70.4396C90.127 70.4396 84.8596 69 82.0926 66.5087" stroke="black" stroke-width="0.8" stroke-miterlimit="10"/>
<path d="M81.2975 69.9416C81.2975 69.9416 85.1847 73.0018 88.2655 73.9699" stroke="black" stroke-width="0.8" stroke-miterlimit="10"/>
<path d="M99.1358 69.1625L98.5422 70.901" stroke="black" stroke-width="0.8" stroke-miterlimit="10"/>
<path d="M96.4613 76.54L96.0392 78.1614" stroke="black" stroke-width="0.8" stroke-miterlimit="10"/>
</svg>
