<svg width="60" height="61" viewBox="0 0 60 61" fill="none" xmlns="http://www.w3.org/2000/svg">
<path d="M32.1585 40.2283L21.3494 57.0132C5.41391 50.0415 4.68158 32.3484 4.71088 32.407C5.23815 32.3484 8.31393 31.0888 8.78262 30.708C10.921 30.7959 13.9382 30.708 17.3948 29.7999C20.0605 29.1262 22.2574 28.306 23.9564 27.4858C24.1908 30.1807 25.4797 36.1565 32.1585 40.2283Z" fill="#ACBFFF" stroke="black" stroke-width="0.5" stroke-miterlimit="10"/>
<path d="M23.9272 52.8536C10.3352 46.2627 8.87051 30.7373 8.87051 30.7373" stroke="black" stroke-width="0.5" stroke-miterlimit="10"/>
<path d="M24.7473 27.0464C22.9898 28.0424 20.4998 29.009 17.3948 29.7999C13.9382 30.6787 10.921 30.7959 8.7826 30.708C8.31391 31.0888 5.23813 32.3484 4.68157 32.407C3.77348 31.1474 2.71893 29.2727 1.92801 26.607C1.07851 23.8535 1.01993 21.4807 1.07851 19.8989L4.71086 15.8271C5.64824 15.2706 6.96643 14.5675 8.69472 13.9524C10.3644 13.3372 12.3857 12.81 14.6998 12.5756C17.4241 12.312 19.7968 12.5463 21.6716 12.8978C22.9019 13.1322 23.6049 13.5423 24.3958 13.8059C24.8645 15.5049 25.3332 17.7898 25.3918 20.5433C25.4797 23.1797 25.1281 25.3767 24.7473 27.0464Z" fill="#ACBFFF" stroke="black" stroke-width="0.5" stroke-miterlimit="10"/>
<path d="M4.68158 15.8564C4.91592 18.1706 5.35532 20.8948 6.23411 23.9413C6.99573 26.5484 7.90382 28.804 8.78261 30.6787" stroke="black" stroke-width="0.5" stroke-miterlimit="10"/>
<path d="M32.5394 38.9101L21.3494 51.4476L21.408 57.0718C22.7555 57.9506 24.7181 59.0638 27.2959 59.7668C30.7232 60.6749 33.6525 60.5284 35.4687 60.3234C37.0798 59.4739 39.804 57.7163 42.1768 54.5526C44.198 51.8577 45.1354 49.2213 45.5748 47.5516C45.2233 45.4132 44.9889 43.9485 44.3445 41.7515C42.7334 40.9899 40.6828 40.199 38.1636 39.6131C36.0545 39.1445 34.1212 38.9687 32.5394 38.9101Z" fill="#ACBFFF" stroke="black" stroke-width="0.5" stroke-miterlimit="10"/>
<path d="M21.2909 51.5354C21.2909 51.5354 29.5222 56.5738 35.2344 55.49C36.8162 54.2011 38.8374 52.2678 40.7122 49.5142C42.8799 46.292 43.788 43.9778 44.3738 41.8394" stroke="black" stroke-width="0.5" stroke-miterlimit="10"/>
<path d="M35.4686 60.3234L35.2343 55.49" stroke="black" stroke-width="0.5" stroke-miterlimit="10"/>
<path d="M28.8777 47.991C29.2878 48.2546 29.405 48.7819 29.1706 49.192C28.907 49.6021 28.3797 49.7192 27.9696 49.4849C27.5595 49.2213 27.4423 48.694 27.6767 48.2839C27.9403 47.8445 28.4676 47.7273 28.8777 47.991Z" fill="black"/>
<path d="M34.502 50.9495C34.9121 51.2132 35.0293 51.7405 34.7949 52.1506C34.5313 52.5607 34.004 52.6778 33.5939 52.4435C33.1838 52.1799 33.0666 51.6526 33.301 51.2425C33.5646 50.8324 34.0919 50.7152 34.502 50.9495Z" fill="black"/>
<path d="M34.6192 41.4293C35.0293 41.6929 35.1465 42.2202 34.9121 42.6303C34.6485 43.0404 34.1212 43.1576 33.7111 42.9232C33.301 42.6596 33.1838 42.1323 33.4182 41.7222C33.6818 41.3121 34.2091 41.1657 34.6192 41.4293Z" fill="black"/>
<path d="M40.7121 43.7141C41.1222 43.9778 41.2394 44.5051 41.0051 44.9152C40.7414 45.3253 40.2141 45.4424 39.804 45.2081C39.3939 44.9445 39.2768 44.4172 39.5111 44.0071C39.7747 43.597 40.302 43.4798 40.7121 43.7141Z" fill="black"/>
<path d="M35.0293 46.0869C35.4394 46.3505 35.5565 46.8778 35.3222 47.2879C35.0585 47.698 34.5313 47.8152 34.1212 47.5809C33.7111 47.3172 33.5939 46.7899 33.8282 46.3798C34.0919 45.9697 34.6192 45.8233 35.0293 46.0869Z" fill="black"/>
<path d="M12.005 13.015C10.7747 13.2786 9.69083 13.6009 8.69486 13.9817C8.28476 14.1281 7.90395 14.2746 7.55243 14.4211C6.52717 14.8605 5.64838 15.2999 4.97464 15.71C4.82817 15.1534 4.68171 14.5383 4.59383 13.9231C4.50595 13.4251 4.47666 12.9271 4.44736 12.4291C4.38878 11.1403 4.50595 9.93924 4.74029 8.91398C5.17969 7.15639 6.02919 5.95537 7.14233 5.75032C8.57769 5.48668 10.0423 6.92205 11.009 9.2362C11.4191 10.2029 11.7121 11.3453 11.8878 12.5463C11.9757 12.6928 12.005 12.8393 12.005 13.015Z" fill="white" stroke="black" stroke-width="0.5" stroke-miterlimit="10"/>
<path d="M3.56854 7.12712C3.56854 7.12712 3.68571 8.56248 4.79885 8.914" stroke="black" stroke-width="0.5" stroke-miterlimit="10"/>
<path d="M2.77762 8.8847C2.77762 8.8847 3.24631 10.3787 4.47662 10.3201" stroke="black" stroke-width="0.5" stroke-miterlimit="10"/>
<path d="M2.74838 11.1696C2.74838 11.1696 3.21707 12.4585 4.47668 12.4292" stroke="black" stroke-width="0.5" stroke-miterlimit="10"/>
<path d="M12.0049 13.015C10.7746 13.2786 9.69076 13.6009 8.69479 13.9817C8.28469 14.1281 7.90388 14.2746 7.55236 14.4211C7.49378 14.1281 7.43519 13.8059 7.3766 13.4837C7.34731 13.3079 7.31802 13.1029 7.28872 12.9271L9.80793 11.6382L7.14226 11.1988C7.08367 8.88468 7.66953 7.18568 8.69479 7.03921C9.48571 6.92204 10.3645 7.80083 11.0675 9.2069C11.4776 10.1736 11.7706 11.316 11.9463 12.517C11.9756 12.6928 12.0049 12.8392 12.0049 13.015Z" fill="black" stroke="black" stroke-width="0.5" stroke-miterlimit="10"/>
<path d="M23.2827 13.3958C22.8433 13.2201 22.316 13.0736 21.6716 12.9271C20.7342 12.7514 19.6797 12.6049 18.5372 12.5463C17.717 12.4877 16.8382 12.4877 15.9009 12.517C15.8716 12.3413 15.8423 12.1655 15.8423 11.9897C15.4322 7.85942 16.7211 4.31496 18.7716 4.08061C19.914 3.96344 21.0272 4.87152 21.8767 6.42406C21.9938 6.6584 22.111 6.92204 22.2282 7.18568C22.2575 7.24427 22.2868 7.30285 22.316 7.39073C22.3453 7.44932 22.3453 7.47861 22.3746 7.5372C22.4039 7.62508 22.4332 7.68366 22.4625 7.77154C22.4918 7.88871 22.5504 7.97659 22.5797 8.09377C22.609 8.15235 22.609 8.21094 22.6383 8.26952C22.6676 8.32811 22.6676 8.3867 22.6969 8.44528C22.7262 8.53316 22.7554 8.59175 22.7554 8.67963C22.814 8.82609 22.8433 9.00185 22.8726 9.14832C22.9019 9.2362 22.9019 9.32408 22.9312 9.38266C22.9605 9.49983 22.9898 9.58771 22.9898 9.70489C22.9898 9.70489 22.9898 9.70489 22.9898 9.73418C23.0191 9.88064 23.0484 10.0271 23.0777 10.2029C23.107 10.32 23.107 10.4079 23.1363 10.5251L23.1655 10.7594C23.1655 10.7887 23.1655 10.818 23.1655 10.818C23.1655 10.9352 23.1948 11.0524 23.1948 11.1695C23.1948 11.2867 23.2241 11.4039 23.2241 11.5211C23.2241 11.6675 23.2241 11.7847 23.2534 11.9312C23.2534 11.9897 23.2534 12.019 23.2534 12.0776C23.312 12.4877 23.312 12.9564 23.2827 13.3958Z" fill="white" stroke="black" stroke-width="0.5" stroke-miterlimit="10"/>
<path d="M22.609 4.37355C22.609 4.37355 22.8433 5.77962 21.8766 6.42407" stroke="black" stroke-width="0.5" stroke-miterlimit="10"/>
<path d="M23.81 5.80891C23.81 5.80891 23.7221 7.39074 22.5211 7.68367" stroke="black" stroke-width="0.5" stroke-miterlimit="10"/>
<path d="M24.3959 8.00589C24.3959 8.00589 24.2494 9.38267 23.0484 9.70489" stroke="black" stroke-width="0.5" stroke-miterlimit="10"/>
<path d="M23.2827 13.3958C22.8433 13.2201 22.3161 13.0736 21.6716 12.9271C20.7342 12.7514 19.6797 12.6049 18.5372 12.5463C18.508 12.2534 18.4787 11.9605 18.4494 11.6675C18.4494 11.4625 18.4201 11.2867 18.4201 11.0817L21.0565 10.2029L18.4787 9.2948H18.4494C18.5372 8.09378 18.7716 7.09782 19.1231 6.39478C19.4453 5.69175 19.914 5.31094 20.412 5.31094C21.0565 5.34023 21.7009 6.04326 22.1989 7.1564C22.2282 7.21499 22.2575 7.27357 22.2868 7.36145C22.3161 7.42004 22.3161 7.44933 22.3453 7.50792C22.3746 7.5958 22.4039 7.65438 22.4332 7.74226C22.4625 7.85944 22.5211 7.94731 22.5504 8.06449C22.5797 8.12307 22.5797 8.18166 22.609 8.24025L22.6676 8.416C22.6969 8.50388 22.7262 8.56247 22.7262 8.65035C22.7847 8.79681 22.814 8.97257 22.8433 9.11904C22.8726 9.20692 22.8726 9.2948 22.9019 9.35338C22.9312 9.47056 22.9605 9.55843 22.9605 9.67561C22.9605 9.67561 22.9605 9.67561 22.9605 9.7049C22.9898 9.85137 23.0191 9.99783 23.0484 10.1736C23.0777 10.2908 23.0777 10.3786 23.107 10.4958L23.1363 10.7302C23.1363 10.7595 23.1363 10.7887 23.1363 10.7887C23.1363 10.9059 23.1656 11.0231 23.1656 11.1403C23.1656 11.2574 23.1948 11.3746 23.1948 11.4918C23.1948 11.6382 23.1948 11.7554 23.2241 11.9019C23.2241 11.9605 23.2241 11.9898 23.2241 12.0483C23.312 12.4877 23.312 12.9564 23.2827 13.3958Z" fill="black" stroke="black" stroke-width="0.5" stroke-miterlimit="10"/>
<path d="M20.7342 12.7514C20.4999 14.011 19.8847 15.8857 18.3322 17.1746C17.5999 17.7898 16.6625 18.2585 15.4322 18.5221C14.2019 18.7564 13.0887 18.61 12.1221 18.1999C10.0423 17.3504 8.6069 15.4463 7.87457 14.2746C8.13821 14.1574 8.40185 14.0696 8.69478 13.9524C9.48569 13.6595 10.3352 13.3958 11.3019 13.1615C12.2685 12.9271 13.3231 12.7221 14.4655 12.6049C14.5534 12.6049 14.612 12.5756 14.6999 12.5756C15.7251 12.4877 16.6625 12.4584 17.5999 12.4584C18.713 12.4877 19.7676 12.6049 20.7342 12.7514Z" fill="white" stroke="black" stroke-width="0.5" stroke-miterlimit="10"/>
<path d="M14.4655 12.6049C14.6999 13.4251 14.9342 14.3625 15.11 15.3877C15.315 16.5302 15.3736 17.5554 15.4029 18.4635" stroke="black" stroke-width="0.5" stroke-miterlimit="10"/>
<path d="M17.6 12.4877C17.7757 13.1029 17.9515 13.8059 18.0687 14.5675C18.2444 15.5342 18.303 16.413 18.3323 17.2039V17.2332" stroke="black" stroke-width="0.5" stroke-miterlimit="10"/>
<path d="M11.3019 13.1615C11.4776 13.8645 11.6241 14.6261 11.7706 15.4463C11.9463 16.413 12.0635 17.3211 12.1514 18.1999V18.2292V18.2585" stroke="black" stroke-width="0.5" stroke-miterlimit="10"/>
<path d="M16.0181 12.0483C16.106 13.1322 15.2565 14.0989 14.114 14.1867C12.9716 14.2746 11.9756 13.4544 11.8877 12.3706C11.7999 11.2867 12.6494 10.3201 13.7918 10.2322C14.9342 10.1443 15.9302 10.9645 16.0181 12.0483Z" fill="#5663F1" stroke="black" stroke-width="0.5" stroke-miterlimit="10"/>
<path d="M15.9888 33.4909C16.2231 35.1313 16.5746 36.9768 17.1019 38.9687C17.5413 40.5212 18.01 41.9566 18.508 43.2162C19.0645 43.8021 19.8848 44.5637 20.9686 45.2374C22.1403 45.9697 23.2535 46.3506 24.0444 46.5849C24.3959 45.794 24.806 44.7101 25.011 43.392C25.1868 42.3081 25.1868 41.3414 25.1575 40.5798C24.5424 39.3495 23.7807 38.002 22.8726 36.5667C21.8474 34.9848 20.7928 33.5788 19.7969 32.407C18.508 32.7586 17.2484 33.1101 15.9888 33.4909Z" fill="#F96F6F" stroke="black" stroke-width="0.5" stroke-miterlimit="10"/>
<path d="M21.7009 30.7373L20.5878 33.608L16.3696 34.9262L13.6746 32.9636L13.7039 30.5323C14.8463 30.3858 16.0766 30.1515 17.3948 29.8292C18.4494 29.5656 19.416 29.2434 20.3241 28.9211L21.7009 30.7373Z" fill="#F96F6F" stroke="black" stroke-width="0.5" stroke-miterlimit="10"/>
<path d="M41.7373 52.3263C42.0302 52.3849 42.3232 52.0334 42.3818 51.5354C42.4696 51.0667 42.2939 50.6273 42.0302 50.5688C41.7373 50.5102 41.4444 50.8617 41.3858 51.3597C41.2979 51.8284 41.4444 52.2678 41.7373 52.3263Z" fill="black" stroke="black" stroke-width="0.5" stroke-miterlimit="10"/>
<path d="M58.7567 42.9233C58.5223 42.5424 58.2294 42.1616 57.8779 41.8687C58.6395 39.2909 57.1162 36.5081 55.0657 34.8677C55.2415 34.0474 55.2122 33.2272 54.9486 32.4656C54.6263 31.5282 53.9526 30.7959 53.3081 30.0636C53.0445 29.7707 52.4879 29.8292 52.2243 30.0929C51.9314 30.4151 51.9899 30.8545 52.2536 31.1767C52.7223 31.704 53.2496 32.2899 53.4839 32.9636C53.6011 33.2858 53.6304 33.6373 53.6011 33.9596C52.4293 33.3737 50.994 33.0515 49.793 33.4323C48.8849 33.7252 48.2697 34.4575 48.0354 35.3363C47.7717 36.3616 48.1526 37.4162 48.8556 38.1485C49.5 38.8515 50.5253 39.2616 51.492 39.1152C52.4001 38.998 53.1617 38.4707 53.7182 37.7384C54.0112 37.3283 54.3041 36.8596 54.5384 36.3616C54.9193 36.7131 55.2708 37.1232 55.5637 37.5626C55.9152 38.0899 56.1789 38.5879 56.3546 39.203C56.5011 39.701 56.589 40.3455 56.5304 40.7849C56.5304 40.8434 56.5011 40.902 56.5011 40.9606C56.3253 40.902 56.1203 40.8142 55.9445 40.7849C55.2708 40.6384 54.5677 40.6677 53.894 40.7849C53.1617 40.9313 52.3415 41.1657 51.8728 41.7515C50.8768 43.0111 51.7556 44.7101 53.1324 45.1788C54.6849 45.7061 56.2667 44.5344 57.1748 43.2455C57.2041 43.2748 57.2041 43.3041 57.2334 43.3041C57.292 43.3919 57.3506 43.4798 57.4092 43.5677C57.4678 43.6556 57.5263 43.7435 57.5556 43.8313C57.5849 43.8899 57.6142 43.9485 57.6435 44.0071C57.6435 44.0364 57.6728 44.0657 57.6728 44.095C57.8779 44.5344 57.995 44.9738 58.0829 45.4425C58.0829 45.4425 58.0829 45.4425 58.0829 45.4718V45.501C58.0829 45.5596 58.1122 45.6182 58.1122 45.6768C58.1415 45.794 58.1415 45.9112 58.1415 46.0576C58.1708 46.3213 58.1708 46.5556 58.1415 46.8192C58.1415 46.9071 58.1415 47.0243 58.1122 47.1122C58.1122 47.1415 58.1122 47.2 58.1122 47.2293C58.1122 47.2879 58.0829 47.3758 58.0829 47.4344C58.0536 47.6687 57.995 47.9324 57.9364 48.1667C57.9072 48.2839 57.8779 48.3718 57.8486 48.4889C57.8193 48.5475 57.8193 48.6061 57.79 48.6647C57.79 48.694 57.7607 48.7233 57.7607 48.7233C57.6728 48.9576 57.5556 49.192 57.4092 49.4263C57.3506 49.5142 57.292 49.6314 57.2334 49.7193C57.2334 49.7193 57.1748 49.8071 57.1748 49.8364C57.1455 49.8657 57.1162 49.895 57.1162 49.9243C56.9698 50.1294 56.794 50.3051 56.589 50.4809C56.3253 50.7152 55.8566 51.0374 55.4758 51.1546C55.3001 51.2132 55.1243 51.2718 54.9778 51.3011C54.9193 50.4516 54.6263 49.6314 54.0991 48.9283C53.2788 47.8445 51.2283 46.7314 50.0566 47.991C49.4707 48.6354 49.5586 49.6607 49.8516 50.4223C50.1445 51.1839 50.6718 51.7698 51.3455 52.1799C51.9314 52.5314 52.6051 52.7657 53.3081 52.8536C53.0445 53.791 52.4293 54.6991 51.6677 55.2556C50.5546 56.0466 49.0899 56.2809 47.7717 55.8708C46.5414 55.49 45.5162 54.5233 44.9596 53.3516C44.6667 52.7364 44.4909 52.092 44.4323 51.4183C44.403 51.1546 44.2859 50.9789 44.1101 50.8617L44.0808 50.8324C44.0515 50.8324 44.0515 50.8031 44.0222 50.8031C43.9343 50.7445 43.8172 50.7152 43.7 50.7152L42.2939 50.6566C42.0889 50.6566 41.8838 50.7152 41.7374 50.8617C41.5909 50.9789 41.503 51.2132 41.503 51.389C41.503 51.594 41.5616 51.7991 41.7081 51.9455C41.8545 52.092 42.0303 52.1799 42.2353 52.1799L42.997 52.2092C43.2899 53.791 44.0808 55.2556 45.3697 56.2809C46.8344 57.4526 48.7091 57.8627 50.5253 57.4233C52.2829 56.9839 53.7768 55.7243 54.4799 54.0546C54.6556 53.6738 54.7728 53.2637 54.8607 52.8536C55.1829 52.8243 55.4758 52.7364 55.7688 52.6486C57.0577 52.2385 58.1122 51.2718 58.7567 50.1001C60.0163 47.991 60.0456 45.0324 58.7567 42.9233ZM52.6051 36.7717C52.2536 37.2697 51.7849 37.6505 51.2576 37.6798C50.0273 37.7677 48.9728 36.2444 49.7637 35.2485C49.9394 35.0434 50.0273 34.9848 50.2324 34.8969C50.496 34.8091 50.7596 34.7798 51.1112 34.8091C51.6091 34.8384 52.3122 35.0434 52.7809 35.2485C52.9273 35.307 53.1031 35.3949 53.2496 35.4828C53.1031 35.9222 52.898 36.3909 52.6051 36.7717ZM54.5384 43.6849C54.2455 43.8313 54.1283 43.8313 53.8061 43.8313H53.7768C53.7182 43.802 53.6597 43.802 53.5718 43.7728C53.5718 43.7728 53.5718 43.7728 53.5425 43.7728C53.4839 43.7435 53.396 43.7142 53.3374 43.6556C53.3374 43.6556 53.191 43.5384 53.1617 43.5091C53.1617 43.5091 53.1324 43.5091 53.1324 43.4798C53.1324 43.4798 53.1324 43.4798 53.1031 43.4505C53.0738 43.4212 53.0445 43.3919 53.0445 43.3334C53.0445 43.3334 53.0152 43.2748 52.9859 43.2455C52.9859 43.2162 52.9566 43.1576 52.9566 43.1283C52.9566 43.1283 52.9566 43.1283 52.9566 43.099C52.9566 43.0697 52.9566 43.0111 52.9566 42.9818C52.9566 43.0404 53.0152 42.8354 52.9859 42.8647C53.0152 42.8354 53.0152 42.8061 53.0445 42.7768C53.1617 42.6303 53.3374 42.5424 53.6304 42.4546C54.2162 42.2788 54.5092 42.2202 55.1243 42.2202C55.1536 42.2202 55.1829 42.2202 55.1829 42.2202C55.2122 42.2202 55.3001 42.2202 55.3001 42.2202C55.4172 42.2495 55.5051 42.2495 55.6223 42.2788C55.7102 42.3081 55.8273 42.3374 55.9152 42.3667H55.9445C55.6223 42.9525 55.1243 43.4212 54.5384 43.6849ZM51.3748 50.0708C51.3455 49.9829 51.2283 49.5728 51.199 49.4849C51.199 49.397 51.1697 49.3091 51.199 49.2213C51.199 49.2213 51.199 49.192 51.199 49.1627C51.199 49.1627 51.199 49.1041 51.2283 49.0748L51.2576 49.0455C51.2869 49.0455 51.2869 49.0455 51.3162 49.0455C51.3748 49.0455 51.492 49.0455 51.5213 49.0455C51.5213 49.0455 51.5213 49.0455 51.5506 49.0455C51.5506 49.0455 51.5506 49.0455 51.5798 49.0455C51.6384 49.0455 51.697 49.0748 51.7556 49.0748C51.8142 49.1041 51.8728 49.1041 51.9314 49.1334C51.9607 49.1334 52.0778 49.192 52.0778 49.192C52.9273 49.5728 53.4253 50.4516 53.5425 51.389C52.6637 51.2425 51.7849 50.8324 51.3748 50.0708Z" fill="black" stroke="black" stroke-width="0.5" stroke-miterlimit="10"/>
</svg>
