<svg width="119" height="119" viewBox="0 0 119 119" fill="none" xmlns="http://www.w3.org/2000/svg">
    <path d="M79.7502 57.1758C89.377 71.0675 90.5096 91.8418 87.1634 108.954C86.3397 113.058 81.1402 111.543 81.9639 107.438C84.7953 92.8521 84.4349 73.9721 76.0951 61.9748C73.8814 58.8176 77.4851 53.9555 79.7502 57.1758Z" fill="black"/>
    <path d="M89.1206 105.82L79.7446 105.567L79.4278 117.501L102.234 117.691L102.361 114.975C102.361 114.975 100.904 109.798 89.0573 111.187L89.1206 105.82Z" fill="#F96F6F" stroke="black" stroke-width="0.8" stroke-miterlimit="10"/>
    <path d="M95.7725 111.124C101.474 111.945 102.361 114.976 102.361 114.976L102.234 117.691L94.062 117.628C94.3154 115.354 94.8222 113.208 95.7725 111.124Z" fill="white" stroke="black" stroke-width="0.8" stroke-miterlimit="10"/>
    <path d="M79.5545 114.597L102.361 114.976L102.234 117.691L79.4278 117.501L79.5545 114.597Z" fill="white" stroke="black" stroke-width="0.8" stroke-miterlimit="10"/>
    <path d="M88.9307 107.967V107.651L84.8762 107.525V107.841L88.9307 107.967Z" fill="white"/>
    <path d="M84.8792 109.629L88.8691 109.731L88.8626 109.984L84.8727 109.882L84.8792 109.629Z" fill="white"/>
    <path d="M84.686 107.904C84.5461 107.904 84.4326 107.791 84.4326 107.651C84.4326 107.512 84.5461 107.398 84.686 107.398C84.826 107.398 84.9395 107.512 84.9395 107.651C84.9395 107.791 84.826 107.904 84.686 107.904Z" fill="white" stroke="white" stroke-width="0.8" stroke-miterlimit="10"/>
    <path d="M84.6228 109.988C84.4829 109.988 84.3694 109.875 84.3694 109.735C84.3694 109.595 84.4829 109.482 84.6228 109.482C84.7628 109.482 84.8762 109.595 84.8762 109.735C84.8762 109.875 84.7628 109.988 84.6228 109.988Z" fill="white" stroke="white" stroke-width="0.8" stroke-miterlimit="10"/>
    <path d="M68.4015 60.2576C58.6191 73.6794 57.4683 93.751 60.8685 110.284C61.7055 114.25 66.9891 112.785 66.1521 108.82C63.2749 94.7271 63.6411 76.4857 72.1156 64.8942C74.3651 61.8438 70.6509 57.1462 68.4015 60.2576Z" fill="black"/>
    <path d="M58.0355 107.013L67.0943 106.769L67.4004 118.299L45.3653 118.482L45.2429 115.859C45.2429 115.859 46.6507 110.856 58.0967 112.198L58.0355 107.013Z" fill="#F96F6F" stroke="black" stroke-width="0.8" stroke-miterlimit="10"/>
    <path d="M51.6086 112.138C46.0998 112.931 45.2429 115.859 45.2429 115.859L45.3653 118.482L53.2612 118.421C53.0164 116.225 52.5267 114.151 51.6086 112.138Z" fill="white" stroke="black" stroke-width="0.8" stroke-miterlimit="10"/>
    <path d="M67.278 115.493L45.2429 115.859L45.3653 118.482L67.4004 118.299L67.278 115.493Z" fill="white" stroke="black" stroke-width="0.8" stroke-miterlimit="10"/>
    <path d="M58.2191 109.088V108.782L62.1365 108.66V108.966L58.2191 109.088Z" fill="white"/>
    <path d="M62.0857 110.697L62.092 110.942L58.237 111.041L58.2307 110.796L62.0857 110.697Z" fill="white"/>
    <path d="M62.3201 109.027C62.1849 109.027 62.0753 108.917 62.0753 108.782C62.0753 108.647 62.1849 108.538 62.3201 108.538C62.4553 108.538 62.5649 108.647 62.5649 108.782C62.5649 108.917 62.4553 109.027 62.3201 109.027Z" fill="white" stroke="white" stroke-width="0.8" stroke-miterlimit="10"/>
    <path d="M62.3201 111.04C62.1849 111.04 62.0753 110.931 62.0753 110.796C62.0753 110.661 62.1849 110.551 62.3201 110.551C62.4553 110.551 62.5649 110.661 62.5649 110.796C62.5649 110.931 62.4553 111.04 62.3201 111.04Z" fill="white" stroke="white" stroke-width="0.8" stroke-miterlimit="10"/>
    <path d="M41.0557 58.7646L41.0557 58.7644C40.7044 57.6746 39.7656 56.7195 38.6497 55.8503C37.7112 55.1191 36.5946 54.4104 35.4916 53.7102C35.2735 53.5717 35.0558 53.4336 34.8402 53.2957C33.5204 52.4514 32.2738 51.6147 31.3569 50.7321C30.4903 49.8978 29.9734 49.0748 29.916 48.2207L29.9194 48.2173V48.0525C29.9194 47.141 30.4452 46.2678 31.3657 45.3817C32.2826 44.499 33.5291 43.6623 34.849 42.8181C35.0646 42.6802 35.2822 42.542 35.5004 42.4035C36.6034 41.7034 37.7199 40.9946 38.6585 40.2635C39.7743 39.3943 40.7131 38.4392 41.0644 37.3493L41.0644 37.3492C41.4253 36.2282 41.2369 34.8772 40.8496 33.4934C40.5104 32.2817 39.9995 30.9831 39.4988 29.7105C39.4239 29.5203 39.3493 29.3307 39.2755 29.142C38.7022 27.676 38.1795 26.2679 37.9441 25.0251C37.7073 23.7746 37.7801 22.7849 38.2848 22.0842C38.7958 21.3773 39.7115 20.9986 40.9662 20.8375C42.2145 20.6772 43.7065 20.7432 45.2675 20.8414C45.4814 20.8548 45.6965 20.8689 45.9124 20.883C47.255 20.9707 48.6223 21.06 49.8547 21.0149C51.2753 20.9629 52.6045 20.7318 53.5425 20.0428C54.4718 19.3604 55.0912 18.1596 55.5725 16.816C55.9843 15.6666 56.3153 14.3496 56.6413 13.0526C56.6993 12.8221 56.757 12.5923 56.8151 12.3642C57.2038 10.836 57.6047 9.38204 58.1467 8.23168C58.6918 7.07494 59.3409 6.3096 60.1776 6.03577L60.1778 6.03572C60.9745 5.77462 61.9142 6.01136 63.0126 6.62976C64.1034 7.24385 65.2642 8.18444 66.4688 9.19154C66.6052 9.30556 66.7421 9.42042 66.8795 9.53564C67.9428 10.4276 69.0321 11.3414 70.0958 12.0561C71.2891 12.858 72.5178 13.4577 73.7053 13.4577C74.8924 13.4577 76.1215 12.8594 77.3157 12.0592C78.3796 11.3463 79.4693 10.435 80.533 9.54538C80.671 9.42997 80.8086 9.31493 80.9456 9.20073C82.1513 8.19586 83.3132 7.2574 84.4048 6.64489C85.504 6.0281 86.4444 5.79212 87.2415 6.05332L87.2417 6.05337C88.0783 6.32717 88.7268 7.0924 89.2712 8.24911C89.8126 9.39947 90.2127 10.8534 90.6009 12.3816C90.6582 12.6073 90.7153 12.8346 90.7725 13.0625C91.0988 14.362 91.4301 15.6819 91.8431 16.8337C92.3248 18.1774 92.9454 19.3782 93.877 20.0606C94.8149 20.7494 96.1441 20.9805 97.5646 21.0325C98.797 21.0776 100.164 20.9883 101.507 20.9006C101.723 20.8865 101.938 20.8724 102.152 20.859C103.713 20.7608 105.205 20.6948 106.453 20.8551C107.708 21.0162 108.624 21.395 109.135 22.1021C109.639 22.8028 109.712 23.7925 109.475 25.0427C109.24 26.2855 108.717 27.6936 108.144 29.1596C108.07 29.3483 107.995 29.538 107.92 29.7283C107.42 31.0008 106.909 32.2993 106.57 33.511C106.182 34.8948 105.994 36.2458 106.355 37.3668L106.355 37.3669C106.706 38.4568 107.645 39.4119 108.761 40.2811C109.699 41.0122 110.816 41.721 111.919 42.4211C112.137 42.5596 112.355 42.6978 112.57 42.8357C113.89 43.6799 115.137 44.5166 116.054 45.3993C116.974 46.2854 117.5 47.1586 117.5 48.0701C117.5 48.9815 116.974 49.8548 116.054 50.7409C115.137 51.6235 113.89 52.4602 112.57 53.3045C112.355 53.4424 112.137 53.5805 111.919 53.719C110.816 54.4192 109.699 55.128 108.761 55.8591C107.645 56.7283 106.706 57.6834 106.355 58.7732L106.355 58.7734C105.994 59.8944 106.182 61.2453 106.57 62.6291C106.909 63.8409 107.42 65.1394 107.92 66.4119C107.995 66.6022 108.07 66.7918 108.144 66.9806C108.717 68.4466 109.24 69.8547 109.475 71.0975C109.712 72.3479 109.639 73.3377 109.134 74.0384C108.623 74.7453 107.708 75.1239 106.453 75.285C105.205 75.4453 103.713 75.3793 102.152 75.2812C101.938 75.2677 101.723 75.2537 101.507 75.2396C100.164 75.1519 98.797 75.0626 97.5646 75.1077C96.144 75.1597 94.8148 75.3908 93.8768 76.0797C92.9474 76.7621 92.328 77.9629 91.8467 79.3065C91.435 80.456 91.1039 81.7729 90.7779 83.07C90.72 83.3004 90.6622 83.5302 90.6042 83.7584C90.2155 85.2865 89.8146 86.7405 89.2725 87.8909C88.7276 89.0473 88.0787 89.8125 87.2423 90.0866C86.445 90.346 85.5043 90.1089 84.4049 89.4916C83.3132 88.8786 82.1512 87.9404 80.9455 86.9361C80.8096 86.8228 80.6731 86.7087 80.5362 86.5943C79.4714 85.7044 78.3805 84.7926 77.3156 84.0797C76.1213 83.2801 74.8923 82.6825 73.7053 82.6825C72.5181 82.6825 71.289 83.2808 70.0948 84.081C69.0309 84.7939 67.9412 85.7052 66.8774 86.5949C66.7394 86.7102 66.6019 86.8252 66.4649 86.9394C65.2593 87.9443 64.0973 88.8827 63.0057 89.4953C61.9065 90.112 60.9661 90.348 60.169 90.0868L60.1689 90.0868C59.3322 89.813 58.6837 89.0478 58.1393 87.891C57.5979 86.7407 57.1978 85.2867 56.8097 83.7585C56.7523 83.5329 56.6953 83.3056 56.6381 83.0777C56.3118 81.7782 55.9804 80.4582 55.5674 79.3064C55.0857 77.9626 54.4651 76.7618 53.5333 76.0794M41.0557 58.7646L38.2761 74.0296C38.7871 74.7365 39.7028 75.1151 40.9575 75.2764C42.2058 75.4368 43.6979 75.3711 45.2589 75.2735C45.4705 75.2602 45.6833 75.2464 45.8968 75.2326C47.2417 75.1452 48.6117 75.0563 49.8463 75.1026C51.2666 75.1558 52.5955 75.3886 53.5333 76.0794M41.0557 58.7646C41.4166 59.8856 41.2281 61.2365 40.8408 62.6203C40.5017 63.8321 39.9908 65.1306 39.49 66.4032C39.4152 66.5934 39.3406 66.7831 39.2668 66.9718C38.6935 68.4378 38.1707 69.8458 37.9354 71.0887C37.6986 72.3388 37.7713 73.3285 38.2758 74.0291L41.0557 58.7646ZM53.5333 76.0794L53.297 76.4021L53.5343 76.0801C53.534 76.0799 53.5337 76.0797 53.5333 76.0794Z" fill="#ACBFFF" stroke="black" stroke-width="0.8"/>
    <path d="M67.7912 36.8038C67.4722 31.8967 65.9392 27.7642 63.8962 25.9143C63.087 25.2051 62.2571 24.7967 61.3962 24.8395C58.2542 25.0311 56.1 30.6783 56.4891 37.504C56.8817 44.2795 59.7923 49.6631 62.8841 49.4682C63.6947 49.422 64.4827 48.9714 65.1372 48.2599C66.9966 46.1689 68.1034 41.8111 67.7912 36.8038Z" fill="white" stroke="black" stroke-width="0.8" stroke-miterlimit="10"/>
    <path d="M65.1416 48.21C62.1782 48.0106 59.5247 43.2993 59.1741 37.383C59.1879 37.1825 59.1514 36.9785 59.1618 36.8281L63.8948 36.2401L59.2576 33.9638C59.7112 29.5622 61.5023 26.2579 63.8974 25.9155C65.9401 27.7653 67.4693 31.9478 67.7918 36.8045C68.1039 41.8116 66.9973 46.1692 65.1416 48.21Z" fill="black" stroke="black" stroke-width="0.8" stroke-miterlimit="10"/>
    <path d="M88.3889 35.5305C88.0698 30.6235 86.5369 26.491 84.4939 24.6411C83.6846 23.9319 82.8547 23.5235 81.9939 23.5663C78.8518 23.7578 76.6976 29.4051 77.0868 36.2308C77.4793 43.0063 80.3899 48.3899 83.4818 48.195C84.2924 48.1488 85.0803 47.6981 85.7348 46.9867C87.5943 44.8956 88.7011 40.5378 88.3889 35.5305Z" fill="white" stroke="black" stroke-width="0.8" stroke-miterlimit="10"/>
    <path d="M85.7358 46.9869C82.7725 46.7875 80.119 42.0761 79.7684 36.1599C79.7821 35.9593 79.7457 35.7554 79.756 35.605L84.489 35.0169L79.8518 32.7407C80.3054 28.3391 82.0966 25.0348 84.4916 24.6923C86.5343 26.5422 88.0636 30.7246 88.386 35.5813C88.7016 40.5383 87.595 44.8959 85.7358 46.9869Z" fill="black" stroke="black" stroke-width="0.8" stroke-miterlimit="10"/>
    <path d="M71.6475 39.6356L71.7978 41.8618C71.7978 41.8618 71.9989 41.8754 72.0525 41.8286C73.3193 41.7629 74.8236 41.9147 75.0186 43.4891C75.1964 45.3143 73.1345 45.9308 71.7617 45.3346" fill="#ACBFFF"/>
    <path d="M71.6475 39.6356L71.7978 41.8618C71.7978 41.8618 71.9989 41.8754 72.0525 41.8286C73.3193 41.7629 74.8236 41.9147 75.0186 43.4891C75.1964 45.3143 73.1345 45.9308 71.7617 45.3346" stroke="black" stroke-width="0.8" stroke-miterlimit="10"/>
    <path d="M69.9888 57.2504C70.9013 58.6719 72.096 59.6591 73.7651 59.6205C75.3839 59.5785 76.4613 58.5933 77.2145 57.1833C79.1345 53.4846 78.6263 46.9022 78.6263 46.9022L75.0837 47.016L70.6295 47.1691L67.5428 47.2633C67.5393 47.3134 67.7094 53.6716 69.9888 57.2504Z" fill="black" stroke="black" stroke-width="0.8" stroke-miterlimit="10"/>
    <path d="M69.9572 56.9956C70.8629 58.5176 72.1012 59.6085 73.7704 59.5699C75.3893 59.5279 76.4704 58.4925 77.2304 56.9821C77.0298 54.752 75.2764 53.0722 73.2953 53.2409C71.4684 53.3697 70.0445 54.9865 69.9572 56.9956Z" fill="#E30611" stroke="black" stroke-width="0.8" stroke-miterlimit="10"/>
    <path d="M78.8186 44.8545C78.4156 45.5827 77.4851 47.3832 77.5679 49.8563C77.6906 52.4832 78.8794 54.2756 79.3906 54.9143" fill="#ACBFFF"/>
    <path d="M78.8186 44.8545C78.4156 45.5827 77.4851 47.3832 77.5679 49.8563C77.6906 52.4832 78.8794 54.2756 79.3906 54.9143" stroke="black" stroke-width="0.8" stroke-miterlimit="10"/>
    <path d="M67.1349 45.0702C67.5386 45.8025 68.4223 47.6246 68.3043 50.0841C68.176 52.694 66.9448 54.4741 66.445 55.1454" fill="#ACBFFF"/>
    <path d="M67.1349 45.0702C67.5386 45.8025 68.4223 47.6246 68.3043 50.0841C68.176 52.694 66.9448 54.4741 66.445 55.1454" stroke="black" stroke-width="0.8" stroke-miterlimit="10"/>
    <path d="M40.0814 57.1771C40.577 57.5727 41.1852 59.5276 41.1852 59.5276C41.1852 59.5276 40.1117 59.9698 38.6545 60.4124C34.7289 61.4763 30.856 60.5229 27.7414 57.9479C24.752 55.4635 22.7213 52.0543 20.8952 48.6789C20.0107 47.0309 19.1547 45.4225 18.3894 43.6893C18.0353 42.8623 17.6811 42.0354 17.3269 41.2084C16.927 40.2342 16.5668 39.2316 16.1954 38.2969C16.1954 38.2969 16.1669 38.2573 16.1384 38.2177C15.8127 37.4303 15.4871 36.643 15.1899 35.8953C14.7217 34.9098 15.4127 33.6964 16.3783 33.3667C17.4233 32.9802 18.516 33.5797 18.9159 34.5539C19.1673 35.1543 19.4299 35.6867 19.6415 36.3155C20.0699 37.3294 20.4871 38.4113 20.8759 39.4535C21.2931 40.5354 21.7388 41.6569 22.264 42.7217C22.9947 44.2396 23.8395 45.916 24.5927 47.2979C26.1847 50.1805 27.9986 53.2046 30.6062 55.2417C32.9633 57.0979 34.2502 58.0561 37.1807 56.8629C39.3218 55.9936 38.673 56.2483 38.673 56.2483C38.673 56.2483 39.2209 56.4902 40.0814 57.1771Z" fill="black"/>
    <path d="M12.4324 39.3104C12.4324 39.3104 -1.44568 26.7727 2.73428 23.3179C2.73428 23.3179 4.28827 22.208 5.75794 23.2704C5.75794 23.2704 5.29708 19.1409 8.99761 20.2525C11.304 20.952 11.8842 25.4655 11.8842 25.4655C11.9574 25.0222 12.49 24.5635 12.8154 24.2529C13.6363 23.4319 14.5687 22.766 15.6498 22.3067C17.2196 21.6549 19.4651 21.6156 20.3728 23.3139C20.41 23.3656 20.4472 23.4173 20.4326 23.5059C21.0881 25.0715 19.5949 26.9202 17.9192 26.5525C16.7255 26.31 15.31 26.3041 14.3855 27.1991C13.1209 28.4934 13.8068 30.4283 15.3868 31.099C17.3081 31.917 20.1436 30.5176 20.2323 26.9343C20.2311 26.3875 20.0892 25.8631 20.266 25.3458C20.5092 24.7027 21.3313 24.4285 21.9101 24.7973C23.8989 26.0364 26.468 31.789 20.1304 34.7511" fill="white"/>
    <path d="M12.4324 39.3104C12.4324 39.3104 -1.44568 26.7727 2.73428 23.3179C2.73428 23.3179 4.28827 22.208 5.75794 23.2704C5.75794 23.2704 5.29708 19.1409 8.99761 20.2525C11.304 20.952 11.8842 25.4655 11.8842 25.4655C11.9574 25.0222 12.49 24.5635 12.8154 24.2529C13.6363 23.4319 14.5687 22.766 15.6498 22.3067C17.2196 21.6549 19.4651 21.6156 20.3728 23.3139C20.41 23.3656 20.4472 23.4173 20.4326 23.5059C21.0881 25.0715 19.5949 26.9202 17.9192 26.5525C16.7255 26.31 15.31 26.3041 14.3855 27.1991C13.1209 28.4934 13.8068 30.4283 15.3868 31.099C17.3081 31.917 20.1436 30.5176 20.2323 26.9343C20.2311 26.3875 20.0892 25.8631 20.266 25.3458C20.5092 24.7027 21.3313 24.4285 21.9101 24.7973C23.8989 26.0364 26.468 31.789 20.1304 34.7511" stroke="black" stroke-width="0.8" stroke-miterlimit="10"/>
    <path d="M5.72173 23.2232L8.19047 27.6372" stroke="black" stroke-width="0.8" stroke-miterlimit="10"/>
    <path d="M18.1716 36.0651L20.163 34.7992C22.7987 33.2296 28.1707 35.574 19.0854 40.4982C9.96291 45.3708 12.4924 39.1824 12.4924 39.1824C12.8405 39.0121 13.3293 38.8194 13.7438 38.5233C14.1437 38.316 14.5064 38.0569 14.7801 37.7832" fill="white"/>
    <path d="M18.1716 36.0651L20.163 34.7992C22.7987 33.2296 28.1707 35.574 19.0854 40.4982C9.96291 45.3708 12.4924 39.1824 12.4924 39.1824C12.8405 39.0121 13.3293 38.8194 13.7438 38.5233C14.1437 38.316 14.5064 38.0569 14.7801 37.7832" stroke="black" stroke-width="0.8" stroke-miterlimit="10"/>
    <path d="M42.6348 14.7801L45.4075 16.4265C45.5254 16.3089 48.1212 13.7217 48.1212 13.7217C53.7256 8.6649 66.4092 -0.449151 81.5706 4.84288C88.7679 7.31249 94.6672 12.7221 98.7378 17.485C99.5047 18.367 100.213 19.249 100.862 20.0722C102.041 21.5422 102.985 22.8946 103.693 23.953L106.407 22.483C102.867 17.3086 94.6672 6.78329 82.3376 2.49087C63.2826 -4.09477 48.3572 9.0177 43.7556 13.6629C43.2837 14.1333 42.9297 14.5449 42.6348 14.7801Z" fill="#E30611" stroke="black" stroke-width="0.8" stroke-miterlimit="10"/>
    <path d="M44.9945 40.0055C46.4693 39.8879 47.8851 39.4175 49.124 38.653C49.183 38.653 49.183 38.5942 49.242 38.5942V15.0153V14.2509C49.183 14.2509 49.183 14.1921 49.124 14.1921C48.3571 13.8393 47.5902 13.6041 46.7643 13.4865C46.1743 13.4277 45.5844 13.3689 44.9355 13.4277C39.0361 13.8393 34.2576 20.1309 34.3166 27.4222C34.3166 34.831 39.0951 40.4171 44.9945 40.0055Z" fill="#E30611" stroke="black" stroke-width="0.8" stroke-miterlimit="10"/>
    <path d="M102.69 43.651C102.041 43.7098 101.452 43.7098 100.862 43.5922C100.272 43.5334 99.6817 43.357 99.0918 43.1806C98.9738 32.4202 98.7968 22.3653 98.7378 18.2493C99.9177 17.6025 101.216 17.1909 102.513 17.1321C108.472 16.6617 113.368 22.2477 113.427 29.539C113.427 36.8302 108.649 43.1806 102.69 43.651Z" fill="#E30611" stroke="black" stroke-width="0.8" stroke-miterlimit="10"/>
    <path d="M98.6895 61.1816L92.0812 57.248L88.4769 62.6336L87.012 64.8837L85.9611 66.4731L77.7015 78.8338L77.3786 83.3608L77.1537 86.5136C78.1239 86.0559 79.0998 85.5174 80.07 85.0597L84.1302 82.9982L92.5259 70.4443L93.5768 68.8548L95.0417 66.6047L98.6895 61.1816Z" fill="#5663F1" stroke="black" stroke-width="0.8" stroke-miterlimit="10"/>
    <path d="M77.6945 78.8362L79.9268 77.8205L79.8668 80.3751L82.3336 78.9295L82.0565 81.6715L84.1643 80.6873L84.1216 82.9995L77.1903 86.4765L77.6945 78.8362Z" fill="white" stroke="black" stroke-width="0.8" stroke-miterlimit="10"/>
    <path d="M77.4129 83.3252C77.5374 83.2937 78.3828 82.8677 79.2082 83.2932C80.109 83.8055 80.1093 84.9428 80.1036 85.0236C79.1337 85.4812 78.158 86.0196 77.188 86.4771L77.4129 83.3252Z" fill="black" stroke="black" stroke-width="0.8" stroke-miterlimit="10"/>
    <path d="M79.8934 77.8582L93.2561 57.9826" stroke="black" stroke-width="0.8" stroke-miterlimit="10"/>
    <path d="M82.2933 79.0458L95.3257 59.2278" stroke="black" stroke-width="0.8" stroke-miterlimit="10"/>
    <path d="M84.1661 80.7642L97.4822 60.3979" stroke="black" stroke-width="0.8" stroke-miterlimit="10"/>
    <path d="M92.7734 56.2783C92.7734 56.2783 95.0072 52.3796 98.4907 54.3789C102.012 56.4216 99.3786 60.2101 99.3786 60.2101L92.7734 56.2783Z" fill="#FF1F33" stroke="black" stroke-width="0.8" stroke-miterlimit="10"/>
    <path d="M96.6023 55.1775C95.7709 54.8327 94.6443 55.1978 94.0073 56.1266C93.8713 56.3198 93.6395 56.1405 93.7756 55.9472C94.5051 54.8626 95.8808 54.4344 96.7875 54.8659C96.9497 54.8777 96.8021 55.2327 96.6023 55.1775Z" fill="white"/>
    <path d="M97.0337 55.4109C96.8771 55.3182 97.1061 54.9687 97.2569 55.1424C97.4571 55.1976 97.2281 55.5471 97.0337 55.4109Z" fill="white"/>
    <path d="M92.0928 57.2461L98.7342 61.2204L99.3764 60.2114L92.7727 56.2805L92.0928 57.2461Z" fill="black" stroke="black" stroke-width="0.8" stroke-miterlimit="10"/>
    <path d="M91.4207 72.3965C91.669 72.5342 91.9174 72.672 92.1658 72.8097C93.9388 73.7121 95.7118 74.6144 97.5537 75.393C99.0507 76.0613 100.534 76.6815 102.003 77.2534C102.3 77.3774 102.645 77.4877 102.941 77.6118C106.287 78.9004 110.598 80.2792 114.079 78.7681C119.456 76.4053 116.437 69.3453 114.434 65.643C112.211 61.5346 110.348 60.6925 107.007 57.4226L106.311 59.267L106.312 61.3555C107.948 63.2346 109.593 65.509 110.788 67.6699C111.361 68.7572 111.9 69.9063 112.329 71.0348C112.64 71.9362 113.054 73.0165 112.965 73.9795C112.979 74.0277 112.869 74.3715 112.883 74.4197C112.849 74.4816 112.814 74.5435 112.814 74.5435C112.78 74.6054 112.663 74.7429 112.614 74.7566L112.566 74.7703C112.304 74.949 111.615 75.093 111.311 75.1272C110.277 75.1609 109.201 75.0501 108.132 74.7811C105.849 74.2842 103.524 73.2783 101.337 72.3894C100.447 72.0173 99.6196 71.6797 98.7779 71.2939C97.8121 70.8392 96.8463 70.3846 95.8805 69.9299C95.1492 69.5648 94.4179 69.1997 93.7349 68.8209C93.2458 69.4809 92.805 70.1273 92.4262 70.8081C92.0681 71.3788 91.7444 71.8876 91.4207 72.3965Z" fill="black"/>
    <path d="M99.2286 69.2775C98.8581 69.1779 98.83 68.3666 98.7843 67.9699C98.5916 65.6349 96.593 63.6763 95.1739 62.7822C94.6044 62.466 92.8055 61.2018 91.6861 61.5881C89.2576 62.4146 91.9357 66.0236 92.741 67.1604C92.0815 67.0064 91.937 66.9792 91.7924 66.9519C91.5033 66.8975 91.1961 66.78 90.8438 66.7435C90.3107 66.5535 89.7325 66.4447 89.1994 66.2547C87.9073 65.8025 86.7234 65.2512 85.4313 64.7989C84.5909 64.4914 83.2356 64.0571 82.4597 64.6872C81.9003 65.1193 81.9917 65.9127 82.1099 66.5618C82.1099 66.5618 82.1099 66.5618 82.1281 66.625C82.1281 66.625 79.4737 67.379 81.401 70.0406C81.1031 70.1935 80.7871 70.2833 80.6701 70.5897C80.1476 71.6257 81.4141 73.1777 82.0292 73.8906C83.576 75.7044 85.7911 77.4649 87.9329 78.4951C89.7494 79.3446 91.7367 79.5994 93.714 79.1059C94.0932 78.9982 94.4724 78.8905 94.8516 78.7827C95.1676 78.693 95.727 78.2609 96.0161 78.3153C96.0161 78.3153 96.1431 78.7572 96.1612 78.8203C96.3333 79.1811 96.5686 79.524 96.8489 79.7857C97.509 80.4175 98.5208 80.608 99.333 80.1042C100.551 79.3484 100.884 77.8884 101.207 76.6358C101.584 75.0947 102.124 73.644 102.583 72.1481C104.022 67.6425 100.501 68.7111 100.032 68.981C99.2736 69.1964 99.4363 69.2868 99.2286 69.2775Z" fill="white" stroke="black" stroke-width="0.8" stroke-miterlimit="10"/>
    <path d="M90.1269 70.4397C90.1269 70.4397 84.8595 69.0001 82.0925 66.5087" stroke="black" stroke-width="0.8" stroke-miterlimit="10"/>
    <path d="M81.2974 69.9416C81.2974 69.9416 85.1846 73.0018 88.2654 73.9699" stroke="black" stroke-width="0.8" stroke-miterlimit="10"/>
    <path d="M99.1357 69.1625L98.5422 70.9011" stroke="black" stroke-width="0.8" stroke-miterlimit="10"/>
    <path d="M96.4612 76.54L96.0391 78.1614" stroke="black" stroke-width="0.8" stroke-miterlimit="10"/>
</svg>
