<svg width="61" height="62" viewBox="0 0 61 62" fill="none" xmlns="http://www.w3.org/2000/svg">
<path d="M8.19666 47.9878L56.6087 46.5347L60.4713 57.9171L0.600098 59.128L8.19666 47.9878Z" fill="#5663F1" stroke="black" stroke-width="0.5" stroke-miterlimit="10"/>
<path d="M9.99928 49.1534L54.9349 48.0484L57.4528 55.8285L4.66309 57.2815L9.99928 49.1534Z" fill="white" stroke="black" stroke-width="0.5" stroke-miterlimit="10"/>
<path d="M13.4756 49.0775L11.7875 52.0442L10.0994 54.9807L8.84045 57.1603" stroke="black" stroke-width="0.5" stroke-miterlimit="10"/>
<path d="M17.0665 48.9867L15.4499 51.9232L13.8333 54.8596L12.6173 57.0543" stroke="black" stroke-width="0.5" stroke-miterlimit="10"/>
<path d="M20.686 48.8959L19.1695 51.8172H19.1552L17.6388 54.7536L16.4943 56.9484" stroke="black" stroke-width="0.5" stroke-miterlimit="10"/>
<path d="M24.1767 48.8051L22.7174 51.7112L21.2439 54.6477L20.1423 56.8575" stroke="black" stroke-width="0.5" stroke-miterlimit="10"/>
<path d="M27.9392 48.7143L26.5945 51.6053L25.2354 54.5266L24.2053 56.7365" stroke="black" stroke-width="0.5" stroke-miterlimit="10"/>
<path d="M28.7261 54.4358H28.7404L30.0279 51.4993L31.3155 48.6386" stroke="black" stroke-width="0.5" stroke-miterlimit="10"/>
<path d="M32.7175 54.2997L34.563 48.6085" stroke="black" stroke-width="0.5" stroke-miterlimit="10"/>
<path d="M36.1509 54.1938L37.0665 51.3028H37.0808L37.9821 48.4723" stroke="black" stroke-width="0.5" stroke-miterlimit="10"/>
<path d="M40.3284 54.1333L40.3427 54.0878L40.8291 51.1817L41.3012 48.3815" stroke="black" stroke-width="0.5" stroke-miterlimit="10"/>
<path d="M44.4628 48.3058L44.2912 51.0908L44.1195 53.9819L43.9764 56.2069" stroke="black" stroke-width="0.5" stroke-miterlimit="10"/>
<path d="M47.7961 48.215L47.882 50.9849L47.9535 53.8608L48.0107 56.0858" stroke="black" stroke-width="0.5" stroke-miterlimit="10"/>
<path d="M51.6301 48.1242L52.0736 50.8487H52.0879L52.56 53.7246L52.932 55.9647" stroke="black" stroke-width="0.5" stroke-miterlimit="10"/>
<path d="M8.03931 52.1503L11.7875 52.0443L15.4499 51.9233L19.1552 51.8173H19.1695L22.7174 51.7113L26.5944 51.6054L30.0279 51.4994L33.7188 51.3935L37.0665 51.3027H37.0808L40.829 51.1816L44.2911 51.0908L47.8819 50.9848L52.0736 50.8486H52.0879L55.8075 50.7426" stroke="black" stroke-width="0.5" stroke-miterlimit="10"/>
<path d="M6.09375 55.0867L10.0995 54.9807L13.8334 54.8596L17.6388 54.7537L21.244 54.6477L25.2354 54.5266L28.7404 54.4358L32.46 54.3147L40.3427 54.0877L44.1195 53.9817L47.9535 53.8606L52.5601 53.7244L56.7375 53.6033" stroke="black" stroke-width="0.5" stroke-miterlimit="10"/>
<path d="M0.514306 61.0049L60.5 59.9303L60.4428 57.7961L0.5 59.2189L0.514306 61.0049Z" fill="#5663F1" stroke="black" stroke-width="0.5" stroke-miterlimit="10"/>
<path d="M8.19672 47.9877L7.79614 12.3116L56.5515 10.7526L56.6087 46.5347L8.19672 47.9877Z" fill="#5663F1" stroke="black" stroke-width="0.5" stroke-miterlimit="10"/>
<path d="M10.5429 44.8244L10.2139 14.5217L53.4041 13.1594L53.4328 43.553L10.5429 44.8244Z" fill="#AFC2FB" stroke="black" stroke-width="0.5" stroke-miterlimit="10"/>
<path d="M16.48 42.1299L16.2368 20.1673L47.5244 19.1834L47.5387 41.2066L16.48 42.1299Z" fill="white" stroke="black" stroke-width="0.5" stroke-miterlimit="10"/>
<path d="M47.5101 21.5599L16.2225 22.6497L16.2368 20.1674L47.5101 19.1532V21.5599Z" fill="#F96F6F" stroke="black" stroke-width="0.5" stroke-miterlimit="10"/>
<path d="M17.739 42.0846L23.4329 32.6547L27.6675 36.8323L33.7476 29.3248L38.8406 35.7425L42.646 26.2521L41.3871 25.571L44.8063 23.1643L45.2784 27.3419L43.8334 26.7213L39.2984 39.0725L33.719 31.9282L27.7962 39.5114L23.6045 35.3944L19.656 42.0392L17.739 42.0846Z" fill="#E30611" stroke="black" stroke-width="0.5" stroke-miterlimit="10"/>
<path d="M27.5243 10.5105C27.5386 10.6165 27.5672 11.2825 27.5529 11.4944C27.4528 14.5822 25.4642 17.2007 22.7174 18.0181C22.2453 18.1543 21.7732 18.2451 21.2725 18.2754C17.5958 18.5024 14.4342 15.5206 14.2339 11.6306C14.0193 7.74059 16.8376 4.39549 20.5143 4.18358C20.8004 4.16844 21.0865 4.16844 21.3727 4.18358C23.4614 4.33494 25.2926 5.51557 26.4227 7.27137C26.4657 7.33191 26.4943 7.37732 26.5372 7.43787C27.0665 8.34604 27.4242 9.39044 27.5243 10.5105Z" fill="white" stroke="black" stroke-width="0.5" stroke-miterlimit="10"/>
<path d="M27.5243 10.5104C27.7246 12.8717 26.809 15.3086 25.0064 16.792C24.8204 16.9433 24.6202 17.0947 24.4199 17.2309C23.8905 17.5791 23.3183 17.8515 22.7174 18.0331C22.0737 17.4277 22.789 16.5498 22.3169 15.8838C21.9163 15.3238 21.2868 15.1573 21.2439 14.4156C21.201 13.8101 21.716 13.2804 21.9592 12.7203C22.417 11.6002 21.6302 11.4792 21.0436 10.5256C20.6574 9.90498 20.7718 9.46603 21.1008 8.83031C21.5014 8.0735 21.6731 8.08864 21.1295 7.43778C20.8004 7.04424 20.2139 6.71124 20.0565 6.22688C19.8276 5.53061 20.2282 4.75867 21.0007 4.3954C21.1152 4.33485 21.2439 4.28944 21.3584 4.24403C23.4471 4.3954 25.2782 5.57602 26.4084 7.33182C26.4227 7.39237 26.4657 7.43778 26.5229 7.49832C26.7518 7.75564 26.9091 8.22486 27.0379 8.54272C27.3097 9.14817 27.4528 9.8293 27.5243 10.5104Z" fill="black" stroke="black" stroke-width="0.5" stroke-miterlimit="10"/>
<path d="M25.221 2.41245L23.8619 5.03101" stroke="black" stroke-width="0.5" stroke-miterlimit="10"/>
<path d="M19.4127 1.53471L19.8991 4.2441" stroke="black" stroke-width="0.5" stroke-miterlimit="10"/>
<path d="M14.2769 4.18349L16.151 6.3631" stroke="black" stroke-width="0.5" stroke-miterlimit="10"/>
<path d="M47.367 10.4044C47.367 10.5104 47.367 11.1763 47.3527 11.3883C47.0952 14.4609 44.9922 16.9735 42.2168 17.6395C41.7447 17.7606 41.2583 17.8212 40.7575 17.8212C37.0666 17.8514 34.0623 14.7031 34.0337 10.8131C34.005 6.90793 36.9807 3.72932 40.6574 3.69905C40.9435 3.69905 41.2296 3.71419 41.5158 3.74446C43.5902 4.01691 45.3784 5.28836 46.4085 7.08957C46.4371 7.15011 46.48 7.21066 46.5086 7.25606C47.0093 8.22478 47.3098 9.26918 47.367 10.4044Z" fill="white" stroke="black" stroke-width="0.5" stroke-miterlimit="10"/>
<path d="M47.3527 10.4044C47.4385 12.7656 46.3942 15.1572 44.5487 16.5497C44.3484 16.7011 44.1481 16.8221 43.9478 16.9432C43.4042 17.2611 42.8176 17.5033 42.2168 17.6546C41.6016 17.0189 42.3598 16.1864 41.9163 15.475C41.5444 14.8998 40.9149 14.7031 40.9149 13.9463C40.9006 13.3408 41.4442 12.8413 41.7017 12.2964C42.2168 11.2066 41.4442 11.0401 40.8863 10.0411C40.5429 9.4054 40.6574 8.98158 41.0293 8.34586C41.4585 7.61932 41.6302 7.63446 41.1152 6.95333C40.8004 6.54465 40.2425 6.18138 40.0994 5.68188C39.9135 4.98562 40.3426 4.21367 41.1438 3.89581C41.2725 3.8504 41.387 3.80499 41.5158 3.75958C43.5901 4.03203 45.3784 5.30348 46.4085 7.11982C46.4228 7.18037 46.4657 7.24091 46.5086 7.28632C46.7375 7.54364 46.8663 8.028 46.9807 8.361C47.2096 9.02699 47.3241 9.70812 47.3527 10.4044Z" fill="black" stroke="black" stroke-width="0.5" stroke-miterlimit="10"/>
<path d="M45.45 2.1853L43.9764 4.72819" stroke="black" stroke-width="0.5" stroke-miterlimit="10"/>
<path d="M39.6989 1.00487L40.0565 3.72939" stroke="black" stroke-width="0.5" stroke-miterlimit="10"/>
<path d="M34.4342 3.36601L36.2082 5.65158" stroke="black" stroke-width="0.5" stroke-miterlimit="10"/>
<path d="M32.1453 11.3428C32.1596 12.1753 31.5301 12.8564 30.7433 12.8715C29.9564 12.8867 29.3126 12.2207 29.2983 11.3882C29.284 10.5557 29.9135 9.87457 30.7003 9.85943C31.4872 9.84429 32.1453 10.5103 32.1453 11.3428Z" fill="#EC554D" stroke="black" stroke-width="0.5" stroke-miterlimit="10"/>
<path d="M33.9334 13.0987C33.9334 13.0987 34.7918 24.0574 31.0865 24.1028C26.8662 24.1633 27.6816 13.1896 27.6816 13.1896C28.2253 13.4771 29.3698 13.9766 30.8719 13.9464C32.3168 13.9161 33.3898 13.4015 33.9334 13.0987Z" fill="white" stroke="black" stroke-width="0.5" stroke-miterlimit="10"/>
<path d="M32.0308 13.825L32.1023 18.7443L32.1881 23.6938V23.709" stroke="black" stroke-width="0.5" stroke-miterlimit="10"/>
<path d="M29.7131 13.8856L29.8276 18.7746L29.942 23.7998" stroke="black" stroke-width="0.5" stroke-miterlimit="10"/>
<path d="M33.8905 18.7141L32.1023 18.7444L29.8276 18.7746L27.8104 18.8049" stroke="black" stroke-width="0.5" stroke-miterlimit="10"/>
</svg>
