<svg width="62" height="62" viewBox="0 0 62 62" fill="none" xmlns="http://www.w3.org/2000/svg">
<path d="M6.19148 51.2958L50.166 61.0004L61.0065 11.8788L17.0319 2.17428L6.19148 51.2958Z" fill="white" stroke="black" stroke-width="0.5" stroke-miterlimit="10"/>
<path d="M4.02486 51.0594L47.9994 60.7639L58.8398 11.6424L14.8653 1.93785L4.02486 51.0594Z" fill="white" stroke="black" stroke-width="0.5" stroke-miterlimit="10"/>
<path d="M5.34626 50.1219L49.3208 59.8265L60.1612 10.7049L16.1867 1.00037L5.34626 50.1219Z" fill="white" stroke="black" stroke-width="0.5" stroke-miterlimit="10"/>
<path d="M55.4526 19.871L42.1766 16.9062" stroke="#445DD8" stroke-width="0.5" stroke-miterlimit="10"/>
<path d="M54.9914 21.4852L41.7155 18.5204" stroke="#445DD8" stroke-width="0.5" stroke-miterlimit="10"/>
<path d="M54.5961 23.1983L41.3202 20.2005" stroke="#445DD8" stroke-width="0.5" stroke-miterlimit="10"/>
<path d="M54.1348 24.8124L40.8589 21.8147" stroke="#445DD8" stroke-width="0.5" stroke-miterlimit="10"/>
<path d="M53.6079 26.6243L46.5581 25.0101" stroke="#445DD8" stroke-width="0.5" stroke-miterlimit="10"/>
<path d="M7.4322 60.1133L8.61737 60.5805C10.0057 61.1143 11.5972 60.447 12.139 59.0456L18.1326 43.864L11.8681 41.4617L5.9084 56.6766C5.36661 58.0446 6.04385 59.5795 7.4322 60.1133Z" fill="#F96F6F" stroke="black" stroke-width="0.5" stroke-miterlimit="10"/>
<path d="M6.0776 41.5618C13.5611 49.7699 26.5642 50.9377 35.1313 44.1643C43.6985 37.391 44.5789 25.2791 37.0953 17.1044C29.6118 8.89633 16.6087 7.72851 8.04161 14.5018C-0.525518 21.2752 -1.40594 33.3537 6.0776 41.5618ZM12.613 18.9062C18.4712 14.3016 27.3769 15.0691 32.4901 20.7079C37.6033 26.3135 36.9938 34.6216 31.1356 39.2262C25.2774 43.8307 16.3717 43.0633 11.2585 37.4244C6.14533 31.8189 6.75485 23.5107 12.613 18.9062Z" fill="#F96F6F" stroke="black" stroke-width="0.5" stroke-miterlimit="10"/>
<path d="M11.7326 14.9689C7.46594 16.8708 4.89241 20.9081 4.28289 25.3792C4.11358 26.6805 4.07972 27.9817 4.21517 29.283C4.28289 29.917 5.23103 29.7168 5.19717 29.0828C4.85855 25.0122 6.00986 20.6412 9.15905 17.8051C10.0733 16.9709 11.0892 16.337 12.2066 15.8365C12.7484 15.5695 12.3082 14.702 11.7326 14.9689Z" fill="#E7F9EF"/>
<path d="M33.2013 43.0966C37.468 41.1948 40.0415 37.1575 40.651 32.6864C40.8203 31.3851 40.8542 30.0838 40.7187 28.7825C40.651 28.1486 39.7029 28.3488 39.7367 28.9827C40.0754 33.0534 38.924 37.4244 35.7749 40.2605C34.8606 41.0947 33.8447 41.7286 32.7273 42.2291C32.1855 42.496 32.6257 43.3636 33.2013 43.0966Z" fill="#E7F9EF"/>
<path d="M4.55387 30.6511C3.91049 30.6511 3.91049 31.6187 4.52001 31.6187C5.16339 31.6521 5.19725 30.6844 4.55387 30.6511Z" fill="#E7F9EF"/>
<path d="M8.51572 58.4117C8.48186 58.3783 8.41414 58.3116 8.38028 58.2448C8.34641 58.2115 8.34641 58.2115 8.31255 58.1781C8.24483 58.078 8.1771 57.9779 8.10938 57.8444L8.07552 57.7777V57.7443C8.04165 57.6776 8.04165 57.6442 8.00779 57.5775C7.97393 57.5108 7.97393 57.444 7.97393 57.3773C7.97393 57.3439 7.97393 57.3106 7.97393 57.2772C7.97393 57.1437 7.97393 57.0436 7.97393 56.9102C7.97393 56.8435 7.97393 56.8101 7.97393 56.7434C7.97393 56.7434 7.97393 56.7434 7.97393 56.71C7.97393 56.6766 7.97393 56.6433 8.00779 56.6099C8.04165 56.5098 8.07552 56.3763 8.10938 56.2762L8.14324 56.1761C8.1771 56.1094 8.21096 56.0427 8.24483 55.9759C8.38028 55.7757 8.31255 55.4421 8.07552 55.3086C7.83848 55.1751 7.53372 55.2419 7.39827 55.4754C6.68717 56.6099 6.85648 58.1114 7.80462 59.0456C7.97393 59.2458 8.31255 59.2458 8.51572 59.0456C8.68503 58.9122 8.68503 58.6119 8.51572 58.4117Z" fill="#E7F9EF"/>
<path d="M20.6143 14.1421C23.4813 12.5867 24.5258 9.03582 22.9473 6.21087C21.3689 3.38591 17.7652 2.35669 14.8982 3.91202C12.0313 5.46736 10.9867 9.01829 12.5652 11.8432C14.1437 14.6682 17.7474 15.6974 20.6143 14.1421Z" fill="white" stroke="black" stroke-width="0.5" stroke-miterlimit="10"/>
<path d="M23.5505 10.4979C22.9071 13.1005 20.6045 14.8022 18.3696 14.2683C16.1347 13.7344 14.8479 11.1986 15.4913 8.59605C16.1347 5.99349 18.4373 4.29181 20.6722 4.82567C22.9071 5.35953 24.1938 7.89536 23.5505 10.4979Z" fill="black" stroke="black" stroke-width="0.5" stroke-miterlimit="10"/>
<path d="M13.3919 2.5234C13.3919 2.5234 12.8501 3.82468 13.7982 4.6922" stroke="black" stroke-width="0.5" stroke-miterlimit="10"/>
<path d="M11.7666 3.62447C11.7666 3.62447 11.5295 5.15931 12.8163 5.7599" stroke="black" stroke-width="0.5" stroke-miterlimit="10"/>
<path d="M10.6828 5.5931C10.6828 5.5931 10.5474 6.96111 11.8341 7.5617" stroke="black" stroke-width="0.5" stroke-miterlimit="10"/>
<path d="M41.2198 14.8597C42.1548 11.7693 40.3703 8.51719 37.234 7.59585C34.0977 6.67452 30.7972 8.43286 29.8622 11.5232C28.9272 14.6136 30.7117 17.8657 33.848 18.787C36.9843 19.7084 40.2847 17.95 41.2198 14.8597Z" fill="white" stroke="black" stroke-width="0.5" stroke-miterlimit="10"/>
<path d="M33.269 12.7334C32.6256 15.336 33.9463 17.8718 36.1473 18.4057C38.3822 18.9395 40.6848 17.2379 41.3282 14.6353C41.9716 12.0327 40.651 9.49691 38.4499 8.96306C36.1812 8.4292 33.8785 10.1309 33.269 12.7334Z" fill="black" stroke="black" stroke-width="0.5" stroke-miterlimit="10"/>
<path d="M42.4117 9.29673C42.4117 9.29673 42.3102 10.6981 41.0573 11.0651" stroke="black" stroke-width="0.5" stroke-miterlimit="10"/>
<path d="M43.3597 10.9984C43.3597 10.9984 42.8518 12.4665 41.4296 12.4332" stroke="black" stroke-width="0.5" stroke-miterlimit="10"/>
<path d="M43.4615 13.2339C43.4615 13.2339 42.9536 14.5018 41.5314 14.5018" stroke="black" stroke-width="0.5" stroke-miterlimit="10"/>
<path d="M26.632 10.7649L26.2257 12.0995C26.2257 12.0995 28.2235 12.3998 27.8849 13.4675C27.5801 14.3684 26.1918 13.968 26.1918 13.968C26.1918 13.968 27.7833 14.2683 27.4108 15.4361C27.1399 16.3037 25.0743 15.4361 25.0743 15.4361" stroke="black" stroke-width="0.5" stroke-miterlimit="10"/>
<path d="M28.1558 10.5313C28.0203 11.1986 27.3092 11.6323 26.5981 11.4655C25.887 11.3321 25.4129 10.6647 25.5484 9.9974C25.6838 9.33008 26.3949 8.89632 27.106 9.06315C27.8171 9.19662 28.2912 9.86394 28.1558 10.5313Z" fill="#5663F1" stroke="black" stroke-width="0.5" stroke-miterlimit="10"/>
</svg>
