<svg width="127" height="131" viewBox="0 0 127 131" fill="none" xmlns="http://www.w3.org/2000/svg">
<path d="M7.56794 32.1327C8.56057 31.9338 9.85098 32.5801 9.99988 33.6738C10.9429 40.7827 12.134 47.7923 14.4171 54.603C15.3104 57.2378 16.5512 60.0714 18.8343 61.8114C21.1669 63.6508 23.9959 64.0485 26.8745 63.9988C30.448 63.8993 33.9222 63.2034 37.4956 63.1039C38.5875 63.0542 39.4809 64.1976 39.4313 65.2416C39.3816 66.3353 38.389 67.081 37.2971 67.081C30.7458 67.3295 23.6981 69.5666 17.6431 65.8879C14.7149 64.0982 12.7296 61.2148 11.4392 58.1326C10.0991 54.9013 9.15614 51.4711 8.31241 48.0906C7.22052 43.6164 6.57531 39.0428 5.97974 34.5189C5.88048 33.4252 6.42642 32.3812 7.56794 32.1327Z" fill="black"/>
<path d="M7.81604 31.9837C7.81604 31.9837 9.00719 21.5936 12.6303 22.2399C15.4593 22.7867 12.4318 32.7293 12.4318 32.7293L7.81604 31.9837Z" fill="white" stroke="black" stroke-width="0.8" stroke-miterlimit="10"/>
<path d="M4.19291 32.1328C4.19291 32.1328 -0.323541 22.8861 3.29955 22.2399C6.92264 21.5936 8.11379 31.6356 8.11379 31.6356L4.19291 32.1328Z" fill="white" stroke="black" stroke-width="0.8" stroke-miterlimit="10"/>
<path d="M13.5732 33.3257C13.5732 33.3257 16.8985 37.7005 12.8784 40.4844C12.8784 40.4844 14.9629 42.0752 12.4814 43.2683C9.99979 44.4614 4.49071 44.8591 5.48334 41.8764C5.48334 41.8764 -0.125006 39.6393 2.2573 33.7234L13.5732 33.3257Z" fill="white" stroke="black" stroke-width="0.8" stroke-miterlimit="10"/>
<path d="M12.928 40.4349C12.928 40.4349 11.6376 41.2303 10.4961 41.4292" stroke="black" stroke-width="0.8" stroke-miterlimit="10"/>
<path d="M7.91526 41.777C7.91526 41.777 6.92264 42.0252 5.53296 41.8763" stroke="black" stroke-width="0.8" stroke-miterlimit="10"/>
<path d="M1.6121 31.1385C2.20767 30.8402 3.0514 30.9397 3.64698 31.2877C4.54034 31.7848 5.03666 32.8288 5.33445 33.7733C5.5826 34.5687 5.68187 35.6127 4.88776 36.2093C3.74624 37.0047 2.60472 36.1595 1.86025 35.2647C1.16541 34.4196 0.569837 33.2265 0.817994 32.1328C0.966888 31.6356 1.26468 31.2877 1.6121 31.1385Z" fill="white" stroke="black" stroke-width="0.8" stroke-miterlimit="10"/>
<path d="M13.6229 33.3756C11.6873 31.3373 7.12118 31.5362 5.48335 31.6356C4.54035 31.6853 3.54773 31.9339 3.24994 32.8287C2.15805 35.8115 8.85828 36.7064 8.85828 36.7064C8.85828 36.7064 8.2627 38.844 10.1487 39.3909" fill="white"/>
<path d="M13.6229 33.3756C11.6873 31.3373 7.12118 31.5362 5.48335 31.6356C4.54035 31.6853 3.54773 31.9339 3.24994 32.8287C2.15805 35.8115 8.85828 36.7064 8.85828 36.7064C8.85828 36.7064 8.2627 38.844 10.1487 39.3909" stroke="black" stroke-width="0.8" stroke-miterlimit="10"/>
<path d="M72.5926 109.248C72.5926 109.248 70.6333 105.188 68.8091 111.955C66.8498 119.196 71.0387 115.339 71.0387 115.339L71.3765 116.557C71.3765 116.557 63.3365 122.918 68.7415 127.317C74.1466 131.716 77.2545 123.527 78.6058 118.384C79.957 113.241 82.4569 107.895 72.5926 109.248Z" fill="#E30611" stroke="black" stroke-width="0.8" stroke-miterlimit="10"/>
<path d="M72.5925 109.248C72.5925 109.248 72.9303 110.534 72.3223 112.294Z" fill="black"/>
<path d="M72.5925 109.248C72.5925 109.248 72.9303 110.534 72.3223 112.294" stroke="black" stroke-width="0.8" stroke-miterlimit="10"/>
<path d="M71.6467 114.188C71.6467 114.188 71.5791 114.594 70.9711 115.271Z" fill="black"/>
<path d="M71.6467 114.188C71.6467 114.188 71.5791 114.594 70.9711 115.271" stroke="black" stroke-width="0.8" stroke-miterlimit="10"/>
<path d="M71.3763 116.557L74.1464 114.729" stroke="black" stroke-width="0.8" stroke-miterlimit="10"/>
<path d="M71.3763 116.557L74.0789 117.031" stroke="black" stroke-width="0.8" stroke-miterlimit="10"/>
<path d="M68.0658 123.189C68.1334 123.46 68.2009 123.73 68.336 123.933C68.4036 124.204 68.5387 124.407 68.6739 124.61C68.9441 125.084 69.2144 125.49 69.6197 125.761C69.9576 126.099 70.4305 126.37 70.9035 126.573C71.3764 126.776 71.9169 126.911 72.3898 127.046V127.114C72.1196 127.114 71.8493 127.046 71.5791 127.046C71.3088 126.979 71.0386 126.979 70.7683 126.843C70.2278 126.708 69.7549 126.37 69.3495 126.031C68.5387 125.287 68.1334 124.272 68.0658 123.189Z" fill="white"/>
<path d="M68.7416 114.121C68.6064 114.121 68.5389 114.121 68.4037 114.121C64.3499 113.985 60.2961 113.173 56.3099 112.023C55.9045 111.887 55.4991 111.752 55.0938 111.617C53.8101 111.211 52.5939 110.805 51.3778 110.399C50.9724 110.263 50.567 110.128 50.1617 109.992C50.0265 109.925 49.8914 109.925 49.7563 109.857C45.0268 108.03 41.0406 104.714 40.6352 99.2999C40.4325 95.9161 41.6487 93.0738 43.6756 90.6375C44.8917 91.9233 46.1079 93.0738 47.1889 94.1566C46.4457 95.1717 45.9052 96.3222 45.7025 97.5403C44.8241 102.21 49.1482 104.375 52.8642 105.661C53.2696 105.797 53.675 105.932 54.0128 106.067C54.0803 106.067 54.2155 106.135 54.283 106.135C55.6343 106.541 56.9856 107.015 58.4044 107.353C58.7422 107.421 59.08 107.556 59.4178 107.624C62.3231 108.436 65.3634 108.977 68.3362 109.113C68.8091 109.113 69.2145 109.248 69.5523 109.451C71.7143 110.602 71.4441 114.188 68.7416 114.121Z" fill="black" stroke="black" stroke-width="0.8" stroke-miterlimit="10"/>
<path d="M72.5995 94.1733C72.1266 94.647 71.7212 95.1884 71.2482 95.7298C70.0997 97.0833 61.911 105.527 60.7624 107.016C57.7221 111.009 54.6142 115.408 52.4522 119.197C52.317 119.4 52.1819 119.536 52.0468 119.739C50.2226 121.701 46.439 119.536 47.9254 116.964C48.0606 116.693 48.1957 116.49 48.3308 116.22C50.4928 112.565 52.8575 108.775 55.425 105.256C56.4384 103.835 57.5194 102.414 58.6004 101.061C59.5463 99.8425 67.5998 91.6016 68.6809 90.4512C68.7484 90.3835 68.816 90.3158 68.8835 90.2481L68.816 90.5188C68.9511 90.7219 71.8563 93.4965 72.5995 94.1733Z" fill="black" stroke="black" stroke-width="0.8" stroke-miterlimit="10"/>
<path d="M50.2737 123.991C49.1252 126.766 48.0441 128.39 46.9631 129.27C43.9903 131.638 41.1527 127.849 37.9772 124.803C34.7342 121.69 30.4101 116.615 31.5587 113.028C31.8965 111.81 32.91 110.795 34.7342 110.118C42.0986 107.276 44.7335 119.931 44.7335 119.931L45.1389 119.322C45.0038 119.186 44.666 118.577 44.5984 117.968C44.5309 117.291 45.0038 116.547 45.5443 116.344C46.7604 115.803 48.7198 117.765 49.7332 118.848C50.6791 119.795 52.9087 122.096 52.2331 123.314C52.1655 123.45 51.7601 123.923 50.2737 123.991Z" fill="#E30611" stroke="black" stroke-width="0.8" stroke-miterlimit="10"/>
<path d="M50.2737 123.991C50.2737 123.991 49.2602 123.517 47.5712 121.826" stroke="black" stroke-width="0.8" stroke-miterlimit="10"/>
<path d="M46.0173 120.134C46.0173 120.134 45.5444 119.863 45.0714 119.118" stroke="black" stroke-width="0.8" stroke-miterlimit="10"/>
<path d="M39.7337 111.742C39.4635 111.607 39.2608 111.471 38.9905 111.404C38.7203 111.268 38.5176 111.201 38.2473 111.133C37.7744 110.998 37.2339 110.862 36.7609 110.93C36.288 110.93 35.7475 110.998 35.2745 111.201C34.8016 111.336 34.3287 111.674 33.8557 111.877C34.0584 111.742 34.2611 111.539 34.5313 111.336C34.8016 111.201 35.0043 110.998 35.2745 110.93C35.7475 110.659 36.288 110.592 36.8961 110.524C37.8419 110.524 38.923 110.998 39.7337 111.742Z" fill="white"/>
<path d="M46.9631 129.202C46.8955 129.27 46.828 129.405 46.7604 129.473C46.1523 130.082 44.9362 130.014 44.1254 129.811C41.6932 129.067 39.8014 126.495 38.0447 124.735C34.8017 121.622 30.6128 116.344 31.6262 112.96C32.5721 109.915 37.9096 115.735 38.9906 116.953C41.558 119.795 44.1254 122.841 46.1523 126.089C46.6253 126.969 47.5712 128.187 46.9631 129.202Z" fill="white" stroke="black" stroke-width="0.8" stroke-miterlimit="10"/>
<path d="M32.437 117.494L36.8286 114.72" stroke="black" stroke-width="0.8" stroke-miterlimit="10"/>
<path d="M34.5314 120.946L39.6662 117.9" stroke="black" stroke-width="0.8" stroke-miterlimit="10"/>
<path d="M37.5044 124.465L42.3689 121.149" stroke="black" stroke-width="0.8" stroke-miterlimit="10"/>
<path d="M40.9498 127.645L45.2063 124.871" stroke="black" stroke-width="0.8" stroke-miterlimit="10"/>
<path d="M70.9333 23.312L101.696 76.5944C106.161 84.3277 100.58 93.9943 91.65 93.9943H30.1248C21.1951 93.9943 15.6141 84.3277 20.0789 76.5943L50.8415 23.312C55.3064 15.5786 66.4685 15.5787 70.9333 23.312Z" fill="#D9D9D9" stroke="black" stroke-width="0.8"/>
<path d="M73.4375 17.9425C73.4375 17.9425 84.9259 21.4206 82.5066 30.9126L60.6754 30.7126L39.1519 28.6575C37.9667 21.4308 47.3263 17.8279 47.3263 17.8279C47.4633 17.769 47.6204 13.8983 47.7062 13.5688C47.955 11.5764 48.5917 9.80732 49.8237 8.13975C52.3658 4.60847 56.7373 1.78569 61.2836 1.71576C67.5057 1.54266 72.4913 6.58228 73.5655 12.2639C73.7662 13.4128 73.8338 14.554 73.7683 15.6873C73.694 15.8168 73.3082 17.8681 73.4375 17.9425Z" fill="#5663F1" stroke="black" stroke-width="0.8" stroke-miterlimit="10"/>
<path d="M38.0782 36.8242C43.6692 36.0125 60.8656 34.3377 84.623 39.3316C85.9428 39.609 87.1989 38.6788 87.2056 37.4084C87.2007 36.338 87.3956 35.2792 87.2575 34.2011C87.0596 31.8486 86.2538 28.4576 83.4221 27.7578C78.9415 26.6945 73.0321 26.0832 67.526 25.4284C58.6402 24.3095 47.5151 23.796 38.151 26.3278C37.6068 26.4968 37.1177 26.8696 36.8872 27.3913C36.3595 28.4307 35.8125 29.8034 35.5791 31.5288C35.365 32.9209 35.4249 34.1952 35.6295 35.2772C35.8418 36.2259 36.8684 36.9545 38.0782 36.8242Z" fill="#5663F1" stroke="black" stroke-width="0.8" stroke-miterlimit="10"/>
<path d="M46.7209 24.8196L46.6809 35.9231" stroke="black" stroke-width="0.8" stroke-miterlimit="10"/>
<path d="M57.0234 24.5483L56.4931 36.0249" stroke="black" stroke-width="0.8" stroke-miterlimit="10"/>
<path d="M67.3265 25.4144L66.4742 36.6715" stroke="black" stroke-width="0.8" stroke-miterlimit="10"/>
<path d="M77.6102 26.6142L76.4405 37.5851" stroke="black" stroke-width="0.8" stroke-miterlimit="10"/>
<path d="M64.817 73.989C61.7399 76.2261 57.7198 76.7232 54.0967 75.7289C52.8062 75.381 51.4166 74.7844 50.1758 73.9393C48.2402 72.6467 46.8009 70.8073 46.8505 68.4211C46.9498 66.2337 48.5876 65.6372 50.5232 65.6372C52.2107 65.6372 54.1463 66.1343 55.3374 66.4326C56.3797 66.6812 57.3723 66.88 58.4642 66.8303C60.1517 66.7309 61.7399 65.9852 63.3777 65.7863C63.7251 65.7366 64.0726 65.7366 64.4696 65.7863C65.6111 65.836 66.9015 66.1343 67.646 66.88C69.8298 69.0177 66.5045 72.6964 64.817 73.989Z" fill="black" stroke="black" stroke-width="0.8" stroke-miterlimit="10"/>
<path d="M64.817 73.9888C61.7399 76.2259 57.7197 76.723 54.0967 75.7287C52.8062 75.3808 51.4166 74.7842 50.1758 73.9391C51.6647 71.9008 54.3944 70.5586 57.4716 70.5586C60.648 70.5089 63.3281 71.9008 64.817 73.9888Z" fill="#E30611" stroke="black" stroke-width="0.8" stroke-miterlimit="10"/>
<path d="M94.2559 86.734C93.7772 83.8776 91.1655 82.3047 88.3933 83.2765C85.6142 84.2075 83.7412 87.2932 84.1791 90.1564C84.6578 93.0127 87.2694 94.5857 90.0417 93.6139C92.8208 92.6829 94.7345 89.5903 94.2559 86.734ZM89.3802 91.4178C87.7155 91.9927 86.1308 91.0436 85.8436 89.3298C85.5564 87.616 86.6761 85.7904 88.3408 85.2155C90.0056 84.6406 91.5903 85.5898 91.8774 87.3036C92.1646 89.0174 91.0518 90.8837 89.3802 91.4178Z" fill="#F96F6F" stroke="black" stroke-width="0.8" stroke-miterlimit="10"/>
<path d="M86.4857 80.8666C86.4857 80.8666 88.7386 97.8129 75.4191 99.1397C62.7995 100.39 61.8581 83.2643 61.8581 83.2643L86.4857 80.8666Z" fill="#F96F6F" stroke="black" stroke-width="0.8" stroke-miterlimit="10"/>
<path d="M86.4663 80.8549C86.2762 78.8779 80.6145 77.8105 73.8205 78.4709C67.0264 79.1313 61.6727 81.2694 61.8627 83.2465C62.0528 85.2235 67.7145 86.2909 74.5085 85.6305C81.3026 84.9701 86.6563 82.832 86.4663 80.8549Z" fill="#F96F6F" stroke="black" stroke-width="0.8" stroke-miterlimit="10"/>
<path d="M62.674 84.3791C62.2048 84.081 61.9395 83.7484 61.8304 83.3476C63.5066 81.3457 66.0878 80.4907 69.051 81.1644C71.321 81.7036 72.9731 82.5567 75.2074 81.383C77.4756 80.1616 79.2615 79.0635 82.0072 79.6901C83.4005 80 85.113 80.214 86.4863 80.9046C86.563 82.8621 81.2584 84.9734 74.5322 85.6057C69.4162 86.092 64.9379 85.6321 62.9459 84.5009" fill="black"/>
<path d="M62.674 84.3791C62.2048 84.081 61.9395 83.7484 61.8304 83.3476C63.5066 81.3457 66.0878 80.4907 69.051 81.1644C71.321 81.7036 72.9731 82.5567 75.2074 81.383C77.4756 80.1616 79.2615 79.0635 82.0072 79.6901C83.4005 80 85.113 80.214 86.4863 80.9046C86.563 82.8621 81.2584 84.9734 74.5322 85.6057C69.4162 86.092 64.9379 85.6321 62.9459 84.5009" stroke="black" stroke-width="0.8" stroke-miterlimit="10"/>
<path d="M79.3025 80.5676C80.2058 80.2054 81.2047 80.1626 82.1562 80.3376C83.1077 80.5125 84.0119 80.9051 84.8482 81.3931C84.991 81.4948 84.8622 81.7263 84.7193 81.6246C83.8899 81.1774 83.0333 80.8187 82.1225 80.6369C81.2118 80.455 80.2605 80.5317 79.3503 80.8532C79.1941 80.9215 79.1462 80.6359 79.3025 80.5676Z" fill="white"/>
<path d="M62.6745 84.3754C62.9932 83.7763 63.4479 83.2382 64.0114 82.8495C64.7175 82.3109 65.5462 82.0032 66.443 81.8518C66.9729 81.7624 67.4758 81.7614 68.0262 81.7943C68.1961 81.8076 68.1964 82.0592 68.0265 82.0459C66.3276 81.9133 64.5682 82.42 63.4484 83.7414C63.238 83.9866 63.0684 84.225 62.9464 84.4972L62.6745 84.3754Z" fill="white"/>
<path d="M78.2429 80.7445C78.3584 80.683 78.4808 80.6623 78.5963 80.6008C78.6779 80.587 78.7255 80.621 78.78 80.6959C78.7937 80.7776 78.7598 80.8254 78.6851 80.88C78.6035 80.8938 78.4879 80.9553 78.4064 80.9691L78.3656 80.976C78.3248 80.9829 78.284 80.9898 78.284 80.9898C78.2432 80.9966 78.2363 80.9558 78.1887 80.9218C78.1818 80.8809 78.175 80.8401 78.175 80.8401C78.2089 80.7923 78.2429 80.7445 78.2429 80.7445Z" fill="white"/>
<path d="M68.7935 81.8755C68.9567 81.848 69.0928 81.9091 69.2357 82.0111C69.2834 82.0451 69.3379 82.1199 69.27 82.2155C69.2361 82.2632 69.1613 82.3179 69.066 82.2499C69.0252 82.2568 69.0184 82.2159 68.9776 82.2228C68.9299 82.1888 68.8891 82.1957 68.8483 82.2026C68.8075 82.2095 68.8075 82.2095 68.7667 82.2164C68.6851 82.2302 68.6306 82.1553 68.6169 82.0735C68.6779 81.9371 68.7119 81.8893 68.7935 81.8755Z" fill="white"/>
<path d="M83.8378 82.1115C84.437 82.9337 84.9683 83.8512 85.3772 84.7894C85.6634 85.4965 86.1744 86.5434 85.5766 87.232C85.2233 87.6275 84.6045 87.6901 84.1758 87.3847C83.6926 87.0047 83.6172 86.3039 83.5622 85.7256C83.4524 84.569 83.5941 83.4118 83.8175 82.2409C83.8175 82.2409 83.8107 82.2001 83.8378 82.1115Z" fill="black" stroke="black" stroke-width="0.8" stroke-miterlimit="10"/>
<path d="M83.8144 85.2209C83.8415 85.1324 83.9094 85.037 83.9979 85.064C84.0863 85.0911 84.1816 85.1589 84.1545 85.2474C84.1208 85.5469 84.121 85.7987 84.2097 86.0775C84.2915 86.3155 84.421 86.5875 84.6524 86.7163C84.7408 86.7433 84.7613 86.8658 84.6934 86.9612C84.6255 87.0566 84.5439 87.0704 84.4486 87.0025C84.1696 86.8398 83.9856 86.4931 83.8901 86.1735C83.8014 85.8947 83.7399 85.5273 83.8144 85.2209Z" fill="white"/>
<path d="M36.3657 49.4114C38.2332 46.3414 42.0809 45.2138 45.2882 46.6798C45.5931 46.8026 45.8346 46.9334 46.1118 47.0919C49.4263 49.1566 50.4533 53.5064 48.4275 56.8541C46.3662 60.174 42.0236 61.2027 38.6814 59.1736C38.4042 59.0151 38.1547 58.8209 37.9052 58.6267C35.2163 56.4189 34.4705 52.5171 36.3657 49.4114Z" fill="white" stroke="black" stroke-width="0.8" stroke-miterlimit="10"/>
<path d="M37.9052 58.6267C39.2708 57.9719 40.7273 56.7579 41.9817 55.2148L38.9832 51.0482L44.0708 51.8592C44.9054 50.0466 45.3164 48.1906 45.2882 46.6798C42.1165 45.2415 38.2688 46.3692 36.3657 49.4114C34.4705 52.5172 35.2163 56.4189 37.9052 58.6267Z" fill="black" stroke="black" stroke-width="0.8" stroke-miterlimit="10"/>
<path d="M66.114 49.4332C67.6641 46.1907 71.3792 44.6815 74.7173 45.8172C75.033 45.9087 75.2864 46.0145 75.5781 46.1444C79.0829 47.865 80.5412 52.0894 78.8615 55.624C77.1437 59.1346 72.9263 60.5952 69.3975 58.9129C69.1058 58.783 68.8381 58.6149 68.5704 58.4468C65.6735 56.5209 64.54 52.7139 66.114 49.4332Z" fill="white" stroke="black" stroke-width="0.8" stroke-miterlimit="10"/>
<path d="M68.5703 58.4471C69.8632 57.6581 71.1905 56.3036 72.2838 54.6421L68.8824 50.7984L74.0256 51.0932C74.6742 49.2058 74.8969 47.3179 74.7172 45.8175C71.4173 44.7058 67.7022 46.215 66.1139 49.4334C64.54 52.7142 65.6734 56.5211 68.5703 58.4471Z" fill="black" stroke="black" stroke-width="0.8" stroke-miterlimit="10"/>
<circle cx="40.0117" cy="52.9405" r="9.06459" stroke="black" stroke-width="0.8"/>
<circle cx="70.1853" cy="52.1917" r="9.06459" stroke="black" stroke-width="0.8"/>
<rect x="49.5917" y="52.1918" width="11.12" height="0.74889" fill="black"/>
<path d="M125.008 82.6418C122.474 86.4652 117.099 87.5466 112.881 88.2527C111.263 88.5277 109.635 88.7039 108.001 88.8307C107.26 88.9107 106.466 88.9467 105.725 89.0268C105.676 89.0322 105.676 89.0322 105.627 89.0375C104.782 89.0788 103.889 89.1255 103.05 89.2163C102.556 89.2697 102.107 89.2683 101.613 89.3217C101.218 89.3644 100.818 89.3577 100.424 89.4004C97.8908 89.5244 95.3633 89.6978 92.8517 90.0195C91.766 90.1369 90.6712 89.7055 90.3956 88.5355C90.3797 88.3873 90.3637 88.239 90.3478 88.0908C90.3508 87.1906 90.9407 86.177 91.8784 86.0756C92.2239 86.0382 92.5693 86.0008 92.9148 85.9635C93.0628 85.9475 93.2109 85.9314 93.3589 85.9154C96.468 85.5791 99.5983 85.4405 102.674 85.2577C103.42 85.2271 104.11 85.1523 104.856 85.1216C105.152 85.0896 105.399 85.0629 105.7 85.0803C106.545 85.039 107.433 84.9429 108.272 84.8521C110.843 84.6239 113.394 84.1981 115.873 83.5799C117.574 83.146 119.072 82.684 120.457 81.6344C120.968 81.2792 121.369 80.8358 121.618 80.3591C121.535 80.518 121.751 79.7447 121.723 79.9477C121.741 79.6459 121.725 79.4977 121.665 79.4042C121.1 77.8656 119.388 76.801 118.058 76.045C114.601 74.0695 110.559 73.157 106.67 72.2779C102.009 71.1825 103.143 71.3017 98.5247 70.5776C98.5247 70.5776 97.669 69.0347 97.2661 68.3667C96.6179 67.2923 95.9866 66.1103 95.9866 66.1103C98.3698 66.4524 104.723 67.6395 107.078 68.1846C111.433 69.2133 115.935 70.2259 119.868 72.4499C123.557 74.2505 127.796 78.391 125.008 82.6418Z" fill="black"/>
<path d="M102.342 82.1436C102.342 82.1436 104.422 80.1189 105.117 81.9431C105.666 83.3333 105.863 86.561 105.918 88.0046C105.938 88.6523 105.612 89.3374 105.046 89.6486C104.667 89.8396 103.56 89.7596 103.029 89.4672C102.122 90.3152 100.992 91.8871 98.4576 92.4615C96.5592 92.9171 94.465 92.9439 92.5644 92.4499C91.5894 92.2056 90.692 91.7529 90.0588 90.9718C89.7096 90.5097 89.4044 89.9929 89.3407 89.4C89.3088 89.1035 89.3316 88.8511 89.4478 88.5386C89.4919 88.4839 89.7296 87.9083 89.7296 87.9083C89.7296 87.9083 87.742 85.6742 90.3239 84.1449C90.3239 84.1449 87.4754 80.4045 93.6367 80.5871C93.9875 80.5991 94.1578 78.9311 95.4602 78.0402C95.647 77.92 97.0481 77.0185 98.6259 77.2975C100.571 77.7367 102.176 79.6623 102.342 82.1436Z" fill="white" stroke="black" stroke-width="0.8" stroke-miterlimit="10"/>
<path d="M90.4401 84.2806L92.8131 84.5239" stroke="black" stroke-width="0.8" stroke-miterlimit="10"/>
<path d="M89.7924 88.0007L92.2473 88.0845" stroke="black" stroke-width="0.8" stroke-miterlimit="10"/>
<path d="M93.6963 80.6791L97.1163 80.909" stroke="black" stroke-width="0.8" stroke-miterlimit="10"/>
<path d="M102.34 82.1444L102.601 84.5663" stroke="black" stroke-width="0.8" stroke-miterlimit="10"/>
<path d="M102.843 87.7405L103.084 89.5145" stroke="black" stroke-width="0.8" stroke-miterlimit="10"/>
<path d="M57.0417 54.7722L56.6404 57.9213C56.6404 57.9213 51.6236 56.9833 51.2891 59.5963C50.9546 62.2094 56.8411 61.8074 56.8411 61.8074" fill="#D9D9D9"/>
<path d="M57.0417 54.7722L56.6404 57.9213C56.6404 57.9213 51.6236 56.9833 51.2891 59.5963C50.9546 62.2094 56.8411 61.8074 56.8411 61.8074" stroke="black" stroke-width="0.8" stroke-miterlimit="10"/>
</svg>
