<svg width="60" height="62" viewBox="0 0 60 62" fill="none" xmlns="http://www.w3.org/2000/svg">
<path d="M32.1723 58.394L31.3058 60.7844L30.8874 60.8143L29.5727 58.633L27.8695 33.8322L30.5587 33.5633L32.1723 58.394Z" fill="#00BBFB" stroke="black" stroke-width="0.5" stroke-miterlimit="10"/>
<path d="M30.5288 60.9637L31.724 60.9039" stroke="black" stroke-width="0.5" stroke-miterlimit="10"/>
<path d="M54.732 43.9915C54.0747 31.7704 41.2261 32.0095 41.2261 32.0095L38.4472 10.376C44.8715 8.43378 42.5109 0.963654 42.5109 0.963654L25.9571 2.21863V2.18875L8.62645 3.83218C8.62645 3.83218 7.58063 11.631 14.244 12.4378L15.2002 34.2206C15.2002 34.2206 3.93521 36.4617 5.39936 48.5931L54.732 43.9915Z" fill="#F96F6F" stroke="black" stroke-width="0.5" stroke-miterlimit="10"/>
<path d="M15.2002 34.2206C18.2779 35.0871 23.4173 36.1329 29.7221 35.3859C34.7121 34.7883 38.6265 33.2644 41.256 32.0094" stroke="black" stroke-width="0.5" stroke-miterlimit="10"/>
<path d="M14.244 12.4378C17.0229 11.2724 21.2062 9.89792 26.4651 9.50947C31.4253 9.12102 35.5787 9.74852 38.4472 10.376" stroke="black" stroke-width="0.5" stroke-miterlimit="10"/>
<path d="M12.6603 36.91C11.1663 37.9857 9.82166 39.3004 8.86548 40.8841C7.9093 42.5275 7.52086 44.41 7.64038 46.2924C7.67026 47.0693 8.89536 46.9797 8.86548 46.1729C8.77584 44.4996 9.1344 42.8562 9.97106 41.392C10.8077 39.9877 12.0328 38.8522 13.3476 37.896C14.0049 37.4478 13.2878 36.4319 12.6603 36.91Z" fill="#FFDADA"/>
<path d="M40.6882 2.42788C40.7181 4.63904 39.9711 6.76056 38.2081 8.13506C37.5806 8.61315 38.4472 9.47968 39.0747 9.00159C41.0767 7.41792 41.9731 4.90796 41.9133 2.42788C41.9133 1.65099 40.6882 1.65099 40.6882 2.42788Z" fill="#FFDADA"/>
<path d="M26.6324 18.0028L27.0662 20.4318C27.0662 20.4318 27.2831 20.3885 27.3698 20.3885C28.7579 20.1282 30.5796 20.0414 31.0568 21.7765C31.5773 23.9019 29.0615 24.8128 27.4566 24.379" fill="#E30611"/>
<path d="M26.6324 18.0028L27.0662 20.4318C27.0662 20.4318 27.2831 20.3885 27.3698 20.3885C28.7579 20.1282 30.5796 20.0414 31.0568 21.7765C31.5773 23.9019 29.0615 24.8128 27.4566 24.379" stroke="black" stroke-width="0.5" stroke-miterlimit="10"/>
<path d="M33.6865 27.4962C33.6865 27.4962 36.4191 42.374 31.0839 42.9813C24.9679 43.6753 24.6643 28.5372 24.6643 28.5372C25.4884 28.8408 27.2235 29.3613 29.3923 29.1011C31.4743 28.8408 32.9491 27.9733 33.6865 27.4962Z" fill="white" stroke="black" stroke-width="0.5" stroke-miterlimit="10"/>
<path d="M31.0405 28.7541L31.8213 35.4774L32.6021 42.244" stroke="black" stroke-width="0.5" stroke-miterlimit="10"/>
<path d="M27.7007 29.1446L28.5248 35.8244L29.349 42.7212" stroke="black" stroke-width="0.5" stroke-miterlimit="10"/>
<path d="M34.3804 35.1738L31.8213 35.4774L28.5247 35.8244L25.6185 36.1714" stroke="black" stroke-width="0.5" stroke-miterlimit="10"/>
<path d="M34.2081 15.4239C34.3553 19.3436 35.5247 22.6613 37.1195 24.2001C37.7453 24.7953 38.4264 25.11 39.1102 25.079C41.581 24.9729 43.4647 20.5041 43.2241 15.0699C43.0201 9.62786 40.8294 5.30089 38.3219 5.4148C37.6748 5.43802 37.0536 5.76257 36.4874 6.34392C34.9852 7.93087 34.0453 11.4308 34.2081 15.4239Z" fill="white" stroke="black" stroke-width="0.5" stroke-miterlimit="10"/>
<path d="M36.5241 6.33619C38.8742 6.56281 40.9105 10.3473 41.0835 15.1055C41.0781 15.2601 41.1095 15.4068 41.1042 15.5614L37.3494 15.9419L40.9798 17.8513C40.5403 21.3593 39.0585 23.9393 37.1195 24.2003C35.5247 22.6614 34.3554 19.3437 34.2082 15.424C34.0453 11.4309 34.9852 7.93097 36.5241 6.33619Z" fill="black" stroke="black" stroke-width="0.5" stroke-miterlimit="10"/>
<path d="M11.47 16.9724C11.6172 20.8922 12.7865 24.2098 14.3813 25.7487C15.0072 26.3438 15.6882 26.6586 16.3721 26.6275C18.8429 26.5215 20.7266 22.0526 20.4859 16.6184C20.2819 11.1764 18.0913 6.84944 15.5838 6.96335C14.9366 6.98657 14.3155 7.31113 13.7492 7.89248C12.2916 9.50827 11.3071 12.9793 11.47 16.9724Z" fill="white" stroke="black" stroke-width="0.5" stroke-miterlimit="10"/>
<path d="M13.7858 7.88448C16.1359 8.1111 18.1722 11.8956 18.3452 16.6538C18.3398 16.8084 18.3712 16.9551 18.3659 17.1097L14.6111 17.4902L18.2415 19.3996C17.802 22.9076 16.3202 25.4876 14.3812 25.7486C12.7864 24.2097 11.6171 20.892 11.4699 16.9723C11.307 12.9792 12.2915 9.50811 13.7858 7.88448Z" fill="black" stroke="black" stroke-width="0.5" stroke-miterlimit="10"/>
</svg>
