<svg width="168" height="159" viewBox="0 0 168 159" fill="none" xmlns="http://www.w3.org/2000/svg">
<path d="M149.038 54.3296L151.967 41.7559L139.037 38.7748L141.86 26.6524L116.371 20.7756L113.551 32.8825L101.547 30.1149L98.6177 42.6886L86.2278 39.8321L89.0479 27.7252L77.0437 24.9576L80.0812 11.917L54.1133 5.92994L51.0758 18.9705L38.6087 16.0962L35.6799 28.6699L23.6758 25.9023L14.6502 64.6505L26.6543 67.4182L23.8343 79.5251L36.3014 82.3994L33.4813 94.5063L46.4113 97.4874L43.4825 110.061L55.9495 112.935L53.0207 125.509L65.0249 128.277L61.9874 141.317L75.0099 144.32L77.9387 131.746L90.4057 134.62L93.3345 122.047L105.802 124.921L108.73 112.347L121.66 115.328L124.589 102.755L137.056 105.629L139.985 93.0552L152.452 95.9296L161.478 57.1813L149.041 54.3141L149.038 54.3296ZM139.599 92.4088L127.117 89.5309L124.188 102.105L111.721 99.2302L108.792 111.804L95.862 108.823L92.9332 121.397L80.4661 118.522L77.5373 131.096L66.0732 128.453L69.1107 115.412L56.6437 112.538L59.5724 99.9642L46.6425 96.9832L49.5713 84.4094L37.1042 81.5351L39.9243 69.4282L27.9201 66.6606L36.5832 29.4685L48.5874 32.2361L51.6249 19.1955L76.0344 24.8233L72.9969 37.8638L85.464 40.7382L82.6439 52.8451L95.6202 55.8368L98.549 43.2631L111.479 46.2441L114.299 34.1373L138.708 39.765L135.888 51.8719L148.355 54.7462L139.584 92.4052L139.599 92.4088Z" fill="white"/>
</svg>
