<svg width="54" height="57" viewBox="0 0 54 57" fill="none" xmlns="http://www.w3.org/2000/svg">
<path d="M51.9518 22.8659L52.0376 22.9019L52.1286 22.9214L52.3124 22.9608C52.3134 22.9649 52.3146 22.971 52.315 22.9792C52.316 23.0011 52.311 23.0279 52.2976 23.0532C52.2858 23.0756 52.2654 23.1014 52.2251 23.125L52.221 23.1275L39.4283 30.7143L38.346 31.3563L39.2158 32.2657L52.7458 46.4113C52.7441 46.4476 52.7393 46.4962 52.7287 46.5575C52.7127 46.6506 52.6885 46.7439 52.6643 46.8241L44.1972 55.0129C44.161 55.0112 44.1125 55.0064 44.0516 54.9958C43.9595 54.98 43.8671 54.9562 43.7875 54.9322L30.3737 40.9081L29.5064 40.0013L28.816 41.0492L20.6786 53.4012C20.5936 53.4725 20.4751 53.5072 20.3764 53.4967C20.3614 53.4951 20.3497 53.4927 20.341 53.4903L20.3348 53.4664L20.3172 53.4187L1.27168 1.88306L1.26777 1.87247L1.26362 1.86198C1.24245 1.80845 1.24615 1.77694 1.25021 1.75975C1.25549 1.73738 1.26854 1.71301 1.28992 1.69241C1.31145 1.67167 1.33241 1.66332 1.34518 1.6609C1.35209 1.6596 1.36943 1.65653 1.40637 1.67403L1.42696 1.68379L1.44796 1.69259L51.9518 22.8659Z" stroke="#5663F1" stroke-width="2"/>
</svg>
