<svg width="58" height="60" viewBox="0 0 58 60" fill="none" xmlns="http://www.w3.org/2000/svg">
<path fill-rule="evenodd" clip-rule="evenodd" d="M21.069 57.9906L21.5163 58.1377C27.8281 60.214 34.5613 59.9804 39.5218 57.4165C43.0019 55.6957 45.4088 53.0837 46.4694 49.8596L57.0348 17.9438C57.4652 16.6351 57.3582 15.209 56.7373 13.9793C56.1163 12.7495 55.0322 11.8167 53.7236 11.3863C52.4149 10.9558 50.9888 11.0628 49.759 11.6837C48.5293 12.3047 47.5965 13.3888 47.166 14.6974L43.812 24.8935C43.1837 23.784 42.1675 22.9458 40.9587 22.5402C39.6584 22.1124 38.2416 22.218 37.0192 22.8335C37.0332 21.9983 36.8458 21.164 36.4623 20.4046C35.8413 19.1748 34.7573 18.2421 33.4486 17.8116C32.1884 17.397 30.8193 17.4809 29.6215 18.0422L33.1853 7.20856C33.4026 6.56247 33.49 5.87977 33.4424 5.19977C33.3948 4.51977 33.2131 3.8559 32.9079 3.24639C32.6027 2.63689 32.1799 2.09377 31.6639 1.64833C31.1479 1.20289 30.5489 0.863909 29.9014 0.650916C28.599 0.232012 27.1841 0.342876 25.9629 0.959509C24.7417 1.57614 23.8125 2.64892 23.3765 3.94562L14.5113 30.895L9.78854 22.3708C9.75085 22.3032 9.70418 22.2411 9.64979 22.1861C8.68393 21.2045 7.36831 20.6458 5.99127 20.6325C4.61422 20.6192 3.28807 21.1524 2.30344 22.1152C0.0818728 24.2923 1.03288 26.8965 1.41647 27.9174L4.82325 40.2952C6.03812 44.9809 8.52795 49.2382 12.0163 52.5944C14.6168 55.015 17.7027 56.8545 21.069 57.9906ZM26.7756 21.4744L24.3232 28.9294C24.1068 29.5753 24.0201 30.2576 24.0683 30.9371C24.1164 31.6165 24.2984 32.2798 24.6037 32.8887C24.9091 33.4976 25.3318 34.0402 25.8475 34.4851C26.3633 34.9301 26.9619 35.2688 27.609 35.4816C28.9208 35.9036 30.3464 35.7879 31.573 35.16C31.8822 35.0017 32.1724 34.8141 32.4404 34.601C32.5295 34.936 32.6525 35.2636 32.8089 35.5786C33.4235 36.8159 34.5043 37.7584 35.8138 38.1988C37.1232 38.6392 38.554 38.5413 39.7912 37.9268C41.0285 37.3123 41.971 36.2314 42.4114 34.922L42.4401 34.8347L42.4652 34.7583L44.337 29.0684L48.7408 15.681L48.8647 15.3046C49.1524 14.4299 49.7757 13.7054 50.5976 13.2904C51.4195 12.8754 52.3726 12.8039 53.2472 13.0916C54.1218 13.3793 54.8463 14.0027 55.2614 14.8246C55.6764 15.6465 55.7479 16.5996 55.4602 17.4742L44.8966 49.3846C43.9759 52.165 41.8764 54.4307 38.8168 55.9392C34.0661 58.288 27.645 58.455 21.6346 56.363C18.4958 55.3036 15.6184 53.5884 13.1936 51.3312C9.9384 48.1918 7.61692 44.2117 6.48678 39.8328L3.05079 27.4152L3.02688 27.3408C2.44324 25.7886 2.30019 24.5142 3.4978 23.3363C4.14367 22.7032 5.01064 22.3464 5.91506 22.3415C6.81947 22.3365 7.69028 22.6839 8.34301 23.3099L13.9584 33.4579C14.0396 33.6046 14.1617 33.7244 14.31 33.8027C14.4582 33.8809 14.626 33.9143 14.7929 33.8986C14.9598 33.8829 15.1185 33.8188 15.2495 33.7143C15.3805 33.6097 15.4782 33.4692 15.5306 33.31L23.7109 8.62617L25.0694 4.49647C25.3614 3.63292 25.981 2.91869 26.7948 2.50781C27.6085 2.09692 28.5511 2.02229 29.4194 2.30001C30.2914 2.59402 31.0148 3.21576 31.4366 4.03368C31.8196 4.85743 31.8618 5.7991 31.5541 6.65383L26.8093 21.0778C26.7668 21.2067 26.7559 21.3426 26.7756 21.4744ZM32.5986 31.4138C32.5642 31.47 32.5361 31.5304 32.5152 31.594C32.2296 32.4621 31.6109 33.1812 30.7951 33.5931C29.9794 34.0051 29.0334 34.076 28.1653 33.7905C27.2972 33.5049 26.5781 32.8862 26.1661 32.0704C25.7542 31.2546 25.6832 30.3086 25.9688 29.4405L28.5395 21.6257C28.8323 20.767 29.4499 20.0564 30.2606 19.647C31.0825 19.232 32.0356 19.1605 32.9102 19.4482C33.7848 19.7359 34.5094 20.3593 34.9244 21.1812C35.3394 22.003 35.4109 22.9561 35.1232 23.8308L34.8235 24.7418C34.7934 24.8332 34.7792 24.9281 34.7804 25.0226C34.6428 25.2812 34.5266 25.5528 34.4338 25.8349L32.5986 31.4138ZM37.8305 24.3994C38.6463 23.9875 39.5923 23.9165 40.4604 24.202L40.5095 24.2182C41.3649 24.5103 42.0733 25.1232 42.4854 25.9276C42.8976 26.732 42.9811 27.6651 42.7185 28.53L40.8342 34.2581L40.8091 34.3344C40.6667 34.7675 40.4403 35.1683 40.143 35.5139C39.8456 35.8594 39.4831 36.1431 39.0761 36.3486C38.6692 36.5541 38.2257 36.6774 37.7711 36.7115C37.3165 36.7456 36.8596 36.6898 36.4265 36.5474C35.9935 36.4049 35.5927 36.1786 35.2471 35.8812C34.9015 35.5839 34.6179 35.2214 34.4124 34.8144C34.2069 34.4075 34.0836 33.964 34.0495 33.5094C34.0154 33.0548 34.0712 32.5979 34.2136 32.1648L36.1105 26.3985C36.396 25.5304 37.0148 24.8113 37.8305 24.3994Z" fill="#E30611"/>
</svg>
