<svg width="46" height="49" viewBox="0 0 46 49" fill="none" xmlns="http://www.w3.org/2000/svg">
<path fill-rule="evenodd" clip-rule="evenodd" d="M16.5236 46.9375L16.8827 47.0556C21.9486 48.7221 27.3527 48.5346 31.334 46.4768C34.1272 45.0956 36.059 42.9992 36.9102 40.4115L45.3901 14.7956C45.7356 13.7453 45.6497 12.6007 45.1513 11.6137C44.6529 10.6266 43.7829 9.878 42.7325 9.53248C41.6822 9.18696 40.5376 9.27285 39.5505 9.77124C38.5635 10.2696 37.8149 11.1397 37.4694 12.1901L34.7774 20.3735C34.2731 19.483 33.4575 18.8103 32.4873 18.4847C31.4437 18.1414 30.3066 18.2261 29.3254 18.7201C29.3367 18.0498 29.1862 17.3802 28.8785 16.7707C28.3801 15.7836 27.51 15.035 26.4597 14.6895C25.4482 14.3568 24.3494 14.4241 23.388 14.8746L26.2483 6.17943C26.4227 5.66087 26.4929 5.11293 26.4547 4.56716C26.4164 4.02138 26.2706 3.48856 26.0257 2.99936C25.7807 2.51017 25.4414 2.07426 25.0272 1.71674C24.6131 1.35923 24.1323 1.08716 23.6126 0.91621C22.5673 0.579994 21.4317 0.668975 20.4516 1.16389C19.4714 1.6588 18.7256 2.51983 18.3757 3.56056L11.2604 25.1904L7.46988 18.3487C7.43963 18.2945 7.40217 18.2447 7.35852 18.2005C6.5833 17.4127 5.52738 16.9643 4.42215 16.9536C3.31693 16.943 2.25254 17.3709 1.46227 18.1436C-0.320777 19.891 0.442512 21.9811 0.750385 22.8005L3.4847 32.735C4.45976 36.4958 6.45812 39.9128 9.25787 42.6065C11.3451 44.5493 13.8219 46.0256 16.5236 46.9375ZM21.1038 17.6291L19.1355 23.6128C18.9617 24.1311 18.8922 24.6788 18.9308 25.2241C18.9695 25.7695 19.1155 26.3018 19.3606 26.7905C19.6057 27.2792 19.9449 27.7147 20.3589 28.0718C20.7728 28.429 21.2533 28.7008 21.7726 28.8716C22.8255 29.2102 23.9697 29.1174 24.9542 28.6134C25.2024 28.4864 25.4353 28.3358 25.6504 28.1648C25.7219 28.4336 25.8206 28.6966 25.9462 28.9495C26.4395 29.9426 27.307 30.699 28.358 31.0525C29.4089 31.4059 30.5572 31.3274 31.5503 30.8341C32.5434 30.3409 33.2998 29.4734 33.6533 28.4224L33.6763 28.3524L33.6965 28.2911L35.1987 23.7243L38.7333 12.9795L38.8327 12.6774C39.0636 11.9754 39.5639 11.3939 40.2236 11.0608C40.8832 10.7277 41.6482 10.6703 42.3502 10.9012C43.0522 11.1321 43.6337 11.6325 43.9667 12.2921C44.2998 12.9518 44.3572 13.7167 44.1263 14.4187L35.6479 40.0302C34.9089 42.2618 33.2238 44.0803 30.7682 45.2911C26.9552 47.1762 21.8016 47.3102 16.9776 45.6312C14.4584 44.7809 12.1489 43.4042 10.2028 41.5926C7.59016 39.0729 5.72691 35.8784 4.81986 32.3639L2.0621 22.3974L2.04291 22.3378C1.57448 21.0919 1.45967 20.0691 2.42087 19.1237C2.93926 18.6156 3.6351 18.3292 4.36099 18.3252C5.08688 18.3213 5.7858 18.6001 6.30968 19.1025L10.8167 27.2473C10.8818 27.3651 10.9798 27.4612 11.0988 27.5241C11.2178 27.5869 11.3525 27.6137 11.4864 27.6011C11.6204 27.5885 11.7477 27.5371 11.8529 27.4532C11.9581 27.3692 12.0365 27.2565 12.0785 27.1287L18.6441 7.31721L19.7344 4.00269C19.9688 3.30959 20.4661 2.73635 21.1192 2.40657C21.7723 2.07679 22.5289 2.01689 23.2257 2.23979C23.9256 2.47576 24.5063 2.97478 24.8448 3.63124C25.1522 4.29239 25.1861 5.04819 24.9391 5.7342L21.1309 17.311C21.0968 17.4144 21.088 17.5234 21.1038 17.6291ZM25.7775 25.6064C25.7499 25.6516 25.7273 25.7002 25.7104 25.7514C25.4812 26.4481 24.9846 27.0253 24.3299 27.3559C23.6751 27.6865 22.9159 27.7435 22.2191 27.5143C21.5224 27.2851 20.9452 26.7885 20.6146 26.1337C20.284 25.479 20.227 24.7197 20.4562 24.023L22.5161 17.7611C22.7496 17.0672 23.247 16.4928 23.901 16.1626C24.5606 15.8295 25.3256 15.7721 26.0276 16.0031C26.7295 16.234 27.311 16.7343 27.6441 17.3939C27.9772 18.0536 28.0346 18.8186 27.8037 19.5205L27.5632 20.2517C27.539 20.3251 27.5276 20.4013 27.5286 20.4771C27.4181 20.6847 27.3248 20.9027 27.2504 21.1291L25.7775 25.6064ZM29.9766 19.9769C30.6314 19.6463 31.3906 19.5893 32.0874 19.8185L32.1268 19.8315C32.8133 20.0659 33.3819 20.5579 33.7127 21.2035C34.0435 21.8491 34.1105 22.598 33.8998 23.2922L32.3874 27.8896L32.3673 27.9509C32.2529 28.2985 32.0712 28.6201 31.8326 28.8975C31.5939 29.1749 31.303 29.4025 30.9764 29.5674C30.6497 29.7324 30.2938 29.8313 29.9289 29.8587C29.5641 29.8861 29.1973 29.8413 28.8498 29.727C28.5022 29.6127 28.1805 29.431 27.9032 29.1923C27.6258 28.9537 27.3981 28.6627 27.2332 28.3361C27.0683 28.0095 26.9693 27.6536 26.9419 27.2887C26.9145 26.9238 26.9593 26.5571 27.0736 26.2095L28.5961 21.5814C28.8253 20.8847 29.3219 20.3075 29.9766 19.9769Z" fill="#E30611"/>
</svg>
