<svg width="158" height="155" viewBox="0 0 158 155" fill="none" xmlns="http://www.w3.org/2000/svg">
<path d="M157.459 71.1065C157.895 76.6618 103.505 77.7335 102.308 82.8623C101.028 88.199 148.943 114.119 146.151 118.667C143.364 123.265 98.6745 91.9578 94.6006 95.4479C90.5765 98.9342 114.241 148.247 109.258 150.348C104.416 152.337 86.5637 100.657 81.0501 101.087C75.5365 101.518 65.974 155.387 60.877 154.123C55.5775 152.825 71.3036 100.438 66.7841 97.6185C62.215 94.8027 23.0077 132.657 19.4867 128.551C16.0193 124.491 59.2993 91.4047 57.2056 86.3816C55.223 81.501 1.32771 88.8787 0.891374 83.3235C0.455042 77.7682 54.8456 76.6964 56.042 71.5677C57.3221 66.231 9.4075 40.3113 12.1988 35.7631C14.9862 31.1648 59.6756 62.4722 63.7494 58.982C67.7736 55.4957 44.0559 6.1365 49.0882 4.03179C53.9297 2.04269 71.7824 53.7227 77.2961 53.2924C82.8097 52.8622 92.3761 -0.957285 97.4691 0.256631C102.719 1.55901 87.0426 53.9418 91.562 56.7615C96.1312 59.5772 135.338 21.7233 138.859 25.8294C142.327 29.8893 99.0468 62.9752 101.141 67.9983C103.123 72.879 157.018 65.5012 157.455 71.0565L157.459 71.1065Z" fill="white"/>
</svg>
