<svg width="102" height="89" viewBox="0 0 102 89" fill="none" xmlns="http://www.w3.org/2000/svg">
<path d="M80.8312 71.331C79.7131 72.9895 77.8666 73.9936 75.3304 74.2708C72.79 74.5484 69.636 74.0837 66.0591 72.8902C58.9098 70.5046 50.2576 65.27 41.8309 57.7203C33.4041 50.1706 26.8677 41.7975 23.0973 34.3999C21.2108 30.6987 20.0415 27.2901 19.6476 24.3836C19.2544 21.4818 19.6425 19.1712 20.7606 17.5127C21.8787 15.8541 23.7251 14.8501 26.2614 14.5729C28.8018 14.2952 31.9557 14.7599 35.5327 15.9535C42.6819 18.3391 51.3341 23.5736 59.7609 31.1234C68.1877 38.6731 74.724 47.0462 78.4945 54.4438C80.3809 58.145 81.5503 61.5536 81.9441 64.4601C82.3373 67.3618 81.9493 69.6724 80.8312 71.331Z" stroke="#ACBFFF" stroke-width="2"/>
<path d="M10.5229 42.3512C10.1476 44.3159 10.7503 46.3294 12.3546 48.3133C13.9615 50.3004 16.5268 52.1931 19.9059 53.8666C26.6597 57.2116 36.4875 59.5941 47.7866 60.1751C59.0858 60.756 69.6238 59.4206 77.5119 56.8284C81.4585 55.5315 84.69 53.9369 87.0175 52.1521C89.3413 50.3702 90.6941 48.4572 91.0694 46.4925C91.4447 44.5278 90.8421 42.5143 89.2378 40.5304C87.6308 38.5433 85.0655 36.6507 81.6864 34.9771C74.9326 31.6321 65.1049 29.2496 53.8057 28.6686C42.5065 28.0877 31.9685 29.4231 24.0804 32.0153C20.1339 33.3122 16.9023 34.9068 14.5748 36.6916C12.2511 38.4736 10.8983 40.3865 10.5229 42.3512Z" stroke="#ACBFFF" stroke-width="2"/>
</svg>
