<svg width="142" height="130" viewBox="0 0 142 130" fill="none" xmlns="http://www.w3.org/2000/svg">
<path d="M113.638 71.4277C113.575 71.0751 112.937 67.5483 112.436 65.0993C115.141 66.7027 117.35 68.6702 119.531 71.0853C123.838 75.9353 128.118 81.233 129.991 87.5106C130.174 88.1962 130.338 88.8263 130.521 89.5119C131.122 92.2384 126.865 93.1253 126.34 90.4346C126.236 89.971 126.133 89.5073 125.974 89.0634C124.354 83.3209 120.309 78.5029 116.404 74.0733C115.486 73.0858 114.477 72.1933 113.638 71.4277Z" fill="black"/>
<path d="M124.206 90.6161C124.325 90.9493 123.626 91.4477 123.388 91.6574C121.59 93.1094 121.108 95.7842 121.106 97.3498C121.138 97.9643 121.093 100.109 122.043 100.835C124.038 102.38 125.496 98.2322 125.991 96.9923C126.21 97.603 126.25 97.7141 126.31 97.8806C126.409 98.1582 126.529 98.4913 126.628 98.7689C126.808 99.2686 126.951 99.8436 127.13 100.343C127.457 101.604 127.673 102.905 128 104.165C128.243 105.018 128.59 106.334 129.567 106.613C130.207 106.824 130.83 106.29 131.251 105.89C131.251 105.89 131.251 105.89 131.306 105.871C131.306 105.871 133.362 107.582 134.491 104.615C134.737 104.778 135.059 104.976 135.357 104.933C136.493 104.78 137.087 102.942 137.328 102.043C137.97 99.812 138.17 97.0496 137.838 94.7265C137.514 92.7759 136.655 91.0782 135.168 89.7284C134.881 89.4545 134.615 89.2361 134.273 88.9819C134.007 88.7635 133.367 88.5525 133.212 88.2946C133.212 88.2946 133.466 87.9541 133.502 87.8789C133.7 87.5581 133.878 87.1818 133.946 86.845C134.076 85.9851 133.682 85.061 132.851 84.6674C131.587 84.1146 130.198 84.608 128.975 85.0422C127.529 85.5554 126.024 85.902 124.559 86.3597C120.123 87.6216 122.882 89.8968 123.411 90.1473C124.186 90.5606 124.126 90.394 124.206 90.6161Z" fill="white" stroke="black" stroke-width="0.8" stroke-miterlimit="10"/>
<path d="M130.177 97.3182C130.177 97.3182 131.876 102.407 131.376 105.9" stroke="black" stroke-width="0.8" stroke-miterlimit="10"/>
<path d="M134.584 104.696C134.584 104.696 134.925 99.8835 134.017 96.8277" stroke="black" stroke-width="0.8" stroke-miterlimit="10"/>
<path d="M128.548 97.8369C128.619 97.6864 128.615 97.5001 128.464 97.4285C128.313 97.357 128.146 97.4162 128.075 97.5668C128.003 97.7173 128.007 97.9036 128.158 97.9752C128.254 98.0665 128.421 98.0072 128.548 97.8369Z" fill="black" stroke="black" stroke-width="0.8" stroke-miterlimit="10"/>
<path d="M132.356 96.7325C132.427 96.582 132.423 96.3957 132.272 96.3241C132.121 96.2526 131.954 96.3118 131.883 96.4624C131.812 96.6129 131.816 96.7992 131.967 96.8708C132.062 96.962 132.285 96.8831 132.356 96.7325Z" fill="black" stroke="black" stroke-width="0.8" stroke-miterlimit="10"/>
<path d="M135.95 96.0798C136.021 95.9293 136.017 95.743 135.866 95.6714C135.715 95.5999 135.548 95.6591 135.477 95.8097C135.405 95.9602 135.409 96.1465 135.56 96.2181C135.711 96.2896 135.878 96.2304 135.95 96.0798Z" fill="black" stroke="black" stroke-width="0.8" stroke-miterlimit="10"/>
<path d="M124.248 90.7352L125.959 90.2527" stroke="black" stroke-width="0.8" stroke-miterlimit="10"/>
<path d="M131.742 88.8834L133.225 88.2932" stroke="black" stroke-width="0.8" stroke-miterlimit="10"/>
<path d="M60.7914 115.812C60.6084 118.305 63.6589 119.156 65.0621 117.818C65.4282 117.454 65.6722 116.967 65.6722 116.359C65.9163 112.65 69.5963 99.9533 70.8775 96.4871C70.9995 96.2439 71.0606 95.9398 71.1826 95.6966C69.4133 95.3317 67.827 94.9668 66.3628 94.4804C64.7765 98.2506 61.0965 111.373 60.7914 115.325C60.7914 115.447 60.7914 115.629 60.7914 115.812Z" fill="black" stroke="black" stroke-width="0.8" stroke-miterlimit="10"/>
<path d="M87.3308 97.0331C88.124 100.56 87.836 112.22 91.9676 114.717C94.408 116.846 97.3975 117.271 100.265 116.542C104.231 115.508 106.793 113.015 107.83 111.798L107.891 111.677C108.562 110.765 108.623 109.609 108.135 108.697C107.769 108.028 107.159 107.542 106.427 107.359C106 107.238 105.573 107.298 105.207 107.481C105.024 107.542 104.902 107.663 104.78 107.785C103.194 109.427 98.1907 113.805 94.225 109.852C93.2488 108.94 92.4557 98.5534 91.9676 96.8507C90.4424 96.9723 88.9171 97.0331 87.3308 97.0331Z" fill="black" stroke="black" stroke-width="0.8" stroke-miterlimit="10"/>
<path d="M59.3624 72.4317C54.233 75.5561 49.5026 79.5893 43.7463 81.5207C41.2386 82.3728 38.6739 82.7136 36.5652 81.5207C33.8295 79.9869 32.0057 77.2034 30.6379 74.4199C28.9851 71.0684 27.9592 67.4328 26.7624 63.9108C25.8505 61.1273 21.405 62.3202 22.3169 65.1037C24.6536 72.1477 26.7624 80.1006 33.0886 84.7019C39.1299 89.0759 46.767 85.6676 52.4663 82.316C55.6009 80.4414 58.5645 78.226 61.6991 76.3513C64.2068 74.8744 61.8701 70.8979 59.3624 72.4317Z" fill="black"/>
<path d="M30.0579 68.0013L29.532 68.2259C34.7916 66.2039 32.6878 56.9173 30.2082 55.2696C26.827 53.3973 26.827 59.7631 26.827 59.7631C26.827 59.7631 24.6479 56.0185 20.2148 53.0229C14.9551 49.3532 15.9319 53.8467 15.9319 53.8467C15.9319 53.8467 13.9032 51.8995 11.7241 53.0978C10.0711 54.296 12.0247 56.0934 12.0247 56.0934C10.9728 55.6441 8.86889 54.9701 8.41806 56.4679C8.04237 57.8908 9.46999 59.164 10.2214 59.9878C11.3485 61.1861 12.5507 62.2346 13.7529 63.2831C14.1286 63.5826 14.8048 64.032 14.9551 64.4813C17.059 71.5212 22.4689 71.1467 22.4689 71.1467C22.3186 71.8208 22.3187 73.019 22.6944 73.3935C23.2203 73.9177 24.0468 74.0675 24.7982 73.8428C26.3761 73.3186 29.8325 71.9706 31.185 70.9221C32.9883 69.6489 30.0579 68.0013 30.0579 68.0013Z" fill="white" stroke="black" stroke-width="0.8" stroke-miterlimit="10"/>
<path d="M15.9319 53.8466L21.7927 59.2388" stroke="black" stroke-width="0.8" stroke-miterlimit="10"/>
<path d="M12.0247 56.0934L18.186 61.7103" stroke="black" stroke-width="0.8" stroke-miterlimit="10"/>
<path d="M16.7585 62.6839L22.3939 58.7895" stroke="black" stroke-width="0.8" stroke-miterlimit="10"/>
<path d="M26.827 59.7631L26.9773 60.8865C26.9773 60.8865 22.2436 60.5869 22.7696 64.7808" stroke="black" stroke-width="0.8" stroke-miterlimit="10"/>
<path d="M24.122 70.3977L22.3938 71.2964" stroke="black" stroke-width="0.8" stroke-miterlimit="10"/>
<path d="M107.53 92.9285L95.9432 79.7116L95.2545 80.0764L99.6628 97.0057L88.1991 99.9438L82.6446 78.0631L82.3137 76.7596L81.8779 78.0332L74.5676 99.3955L63.4348 95.6107L70.7732 74.1666L71.2056 72.9029L70.1493 73.7223L52.1466 87.6867L44.9512 78.4059L58.7412 67.6616L58.4176 66.9546L41.2227 70.3864L38.9175 58.838L58.9356 54.9062L60.406 54.6174L58.9885 54.1355L39.6049 47.5457L43.4015 36.4514L62.7031 43.0134L64.1104 43.4918L63.1347 42.3722L49.7263 26.9865L58.6038 19.3269L70.1394 32.438L70.828 32.0742L66.5 15.1724L77.8569 12.2857L83.6002 34.4169L83.9347 35.706L84.3663 34.4447L91.7606 12.8372L102.893 16.622L95.5271 38.1478L95.0921 39.4187L96.1519 38.5913L114.074 24.5994L121.293 33.8004L107.505 44.5432L107.826 45.2507L125.076 41.9257L127.33 53.368L107.281 57.3806L105.822 57.6726L107.23 58.151L126.449 64.6851L122.653 75.7793L103.351 69.2174L101.934 68.7355L102.921 69.8597L116.357 85.1664L107.53 92.9285Z" fill="#F96F6F" stroke="black" stroke-width="0.8"/>
<path d="M80.164 54.1592C77.4291 54.3409 75.5146 53.1142 72.9619 53.2505C71.5489 53.3414 70.1814 53.6594 70.1814 55.1587C70.1358 57.9302 72.3238 59.7475 74.9676 60.8379C78.3863 62.2464 82.352 62.1101 85.7252 60.6108C88.5969 59.3386 91.5598 57.2487 90.876 53.9775C90.557 52.4781 89.2351 52.2964 87.8676 52.3873C85.3605 52.569 82.6711 54.0229 80.164 54.1592Z" fill="white" stroke="black" stroke-width="0.8" stroke-miterlimit="10"/>
<path d="M84.9502 53.0236C85.3149 53.8868 85.7251 55.0681 85.9074 56.522C86.1354 58.203 85.953 59.6115 85.7707 60.611" stroke="black" stroke-width="0.8" stroke-miterlimit="10"/>
<path d="M80.1641 54.1593C80.4831 55.068 80.7566 56.2947 80.8478 57.7486C80.939 59.4296 80.7566 60.7927 80.4831 61.8376" stroke="black" stroke-width="0.8" stroke-miterlimit="10"/>
<path d="M74.9675 53.3868C75.241 54.3409 75.5145 55.6585 75.5145 57.2941C75.5145 58.7479 75.241 59.9746 74.9675 60.8379" stroke="black" stroke-width="0.8" stroke-miterlimit="10"/>
<path d="M82.9326 47.6279C83.0753 48.6645 82.3391 49.5998 81.2997 49.7415C80.2603 49.8833 79.322 49.1485 79.1792 48.112C79.0364 47.0754 79.7727 46.1401 80.8121 45.9983C81.8514 45.8566 82.7898 46.5914 82.9326 47.6279Z" fill="#E30611" stroke="black" stroke-width="0.8" stroke-miterlimit="10"/>
<path d="M85.5974 49.5714C87.1873 48.9684 89.2192 48.6899 91.3845 48.8556C91.7061 48.8717 92.0278 48.8877 92.3537 48.949C93.9748 49.1648 95.4768 49.5743 96.6742 50.1487C97.2013 48.4567 97.4762 46.514 97.5073 44.4112C97.5214 43.5882 97.4945 42.8146 97.3769 42.0493C97.1855 40.0126 96.7391 38.182 96.0462 36.6481C94.9338 34.0571 93.2177 32.3435 91.2963 32.3379C91.2509 32.3421 91.2056 32.3462 91.1602 32.3504C88.7896 32.4319 86.6981 34.9984 85.6779 38.7445C85.2741 40.2882 85.0233 42.0005 84.9667 43.8317C84.9752 43.9223 84.9383 44.0169 84.9468 44.1075C84.9526 46.1156 85.2176 47.9629 85.5974 49.5714Z" fill="white" stroke="black" stroke-width="0.8" stroke-miterlimit="10"/>
<path d="M85.6824 38.792C86.7437 34.9964 88.7899 32.4339 91.1606 32.3525C92.4672 33.6017 93.343 35.621 93.4196 37.8966C93.4352 39.0365 93.2609 40.1026 92.9378 41.0454L89.9166 40.0454L92.0111 42.8655C91.0418 44.2331 89.663 45.1362 88.1085 45.1425C86.921 45.1606 85.827 44.7135 84.8804 43.8877C85.0277 42.048 85.2785 40.3357 85.6824 38.792Z" fill="black" stroke="black" stroke-width="0.8" stroke-miterlimit="10"/>
<path d="M65.3221 49.6264L65.3263 49.6716L65.3306 49.7169C65.3348 49.7621 65.3391 49.8074 65.3929 49.8937C65.6112 49.7823 65.8747 49.6668 66.0972 49.6006C66.229 49.5428 66.3608 49.485 66.4926 49.4272C67.7325 48.9934 69.1254 48.7282 70.626 48.6356C71.2155 48.5813 71.8135 48.6175 72.4073 48.6084C72.498 48.6001 72.5433 48.5959 72.6382 48.6328C74.0652 48.7296 75.3235 48.9789 76.4628 49.4218C76.8582 47.7875 77.0508 45.9437 77.0083 44.0302C76.8452 37.4257 73.9232 32.1254 70.4514 32.1713C68.5342 32.2109 66.8607 33.8716 65.7795 36.4821C65.6322 36.8609 65.489 37.2849 65.3502 37.7542C65.3544 37.7995 65.3133 37.8489 65.3176 37.8942C65.2765 37.9436 65.285 38.0342 65.2439 38.0836C65.2071 38.1783 65.2113 38.2236 65.1745 38.3183C65.1419 38.4582 65.105 38.5529 65.0725 38.6929C65.0441 38.8781 64.9662 39.0222 64.9379 39.2074C64.9095 39.3927 64.8812 39.5779 64.8075 39.7673C64.7182 40.2777 64.629 40.7881 64.5851 41.2943C64.5567 41.4795 64.5284 41.6647 64.5411 41.8005C64.5411 41.8005 64.5411 41.8005 64.5454 41.8458C64.5213 42.0762 64.5015 42.352 64.4774 42.5825C64.449 42.7677 64.4661 42.9487 64.4831 43.1298C64.4958 43.2655 64.4632 43.4055 64.476 43.5413C64.4802 43.5865 64.4802 43.5865 64.4845 43.6318C64.5015 43.8128 64.4732 43.9981 64.4944 44.2244C64.537 46.1378 64.802 47.9851 65.3221 49.6264Z" fill="white" stroke="black" stroke-width="0.8" stroke-miterlimit="10"/>
<path d="M65.1223 38.7363C66.0929 34.949 68.1305 32.2961 70.5012 32.2147C71.8531 33.4597 72.77 35.4296 72.8919 37.7009C72.9529 38.8366 72.7786 39.9027 72.5009 40.8413L69.5874 40.014L71.6649 42.6531C70.7452 44.0617 69.3665 44.9648 67.8162 45.0163C66.633 45.0797 65.4937 44.6368 64.5471 43.811C64.5173 42.0333 64.7185 40.28 65.1223 38.7363Z" fill="black" stroke="black" stroke-width="0.8" stroke-miterlimit="10"/>
<path d="M62.7325 62.4836L68.1587 65.0436L77.3569 69.5618L73.0188 78.7772L52.6037 64.7453L62.7325 62.4836Z" fill="white"/>
<path d="M101.253 64.999L86.5407 70.4439L87.785 80.1955L109.36 68.0986L101.253 64.999Z" fill="white"/>
<path d="M62.7325 62.4836L68.1587 65.0436L77.3569 69.5618L73.0188 78.7772L52.6037 64.7453L62.7325 62.4836Z" stroke="black" stroke-width="0.8"/>
<path d="M101.253 64.999L86.5407 70.4439L87.785 80.1955L109.36 68.0986L101.253 64.999Z" stroke="black" stroke-width="0.8"/>
<path d="M76.8988 70.2075L85.9858 70.3596L81.5601 77.826L85.5851 82.8872L84.091 106.928L80.2772 112.209L76.5421 106.071L77.4364 81.9664L81.5601 77.826L76.8988 70.2075Z" fill="#5663F1"/>
<path d="M81.5601 77.826L85.9858 70.3596L76.8988 70.2075L81.5601 77.826ZM81.5601 77.826L77.4364 81.9664L76.5421 106.071L80.2772 112.209L84.091 106.928L85.5851 82.8872L81.5601 77.826Z" stroke="black" stroke-width="0.8"/>
<path d="M62.2391 126.554L62.0558 125.041L60.773 126.554L44.1264 126.571L43.9126 123.092L70.0584 122.84L70.1806 126.487L62.2391 126.554Z" fill="black" stroke="black" stroke-width="0.8" stroke-miterlimit="10"/>
<path d="M57.5964 112.215C53.6562 112.885 45.5009 115.259 43.9126 123.327L70.089 122.901L70.1195 115.259C65.8128 116.568 60.437 115.685 57.5964 112.215Z" fill="#ACBFFF" stroke="black" stroke-width="0.8" stroke-miterlimit="10"/>
<path d="M52.4956 113.433L57.1994 117.147" stroke="black" stroke-width="0.8" stroke-miterlimit="10"/>
<path d="M50.0825 114.65L54.8169 118.395" stroke="black" stroke-width="0.8" stroke-miterlimit="10"/>
<path d="M114.074 105.997L112.931 107.005L114.907 107.2L124.376 120.849L121.628 122.998L106.569 101.688L109.508 99.5192L114.074 105.997Z" fill="black" stroke="black" stroke-width="0.8" stroke-miterlimit="10"/>
<path d="M104.875 117.945C107.666 120.798 114.259 126.144 121.819 122.87L106.595 101.631L100.272 105.941C103.799 108.732 106.125 113.645 104.875 117.945Z" fill="#ACBFFF" stroke="black" stroke-width="0.8" stroke-miterlimit="10"/>
<path d="M108.776 121.441L109.168 115.473" stroke="black" stroke-width="0.8" stroke-miterlimit="10"/>
<path d="M111.152 122.729L111.552 116.719" stroke="black" stroke-width="0.8" stroke-miterlimit="10"/>
<path d="M0.911903 22.7243C1.48642 15.7226 8.30229 10.5689 16.1453 11.2109C23.9884 11.853 29.8728 18.0392 29.2983 25.0409C28.9153 29.7695 25.6684 33.6564 21.1941 35.4785L20.402 39.5303C18.8177 39.8947 15.9712 40.2851 12.8288 39.8253C9.80822 39.3828 7.27512 38.6106 6.28277 37.5694C6.47428 36.4242 6.66579 35.2789 6.85729 34.1336C2.94883 31.5655 0.537595 27.3141 0.911903 22.7243Z" fill="#ACBFFF" stroke="black" stroke-miterlimit="10"/>
<path d="M9.42517 36.589C9.4774 37.474 9.76465 38.333 10.1651 39.1312C10.3566 39.1746 10.5481 39.2179 10.7396 39.2526C10.2608 38.385 9.90393 37.422 9.87782 36.4329C9.8517 35.7388 9.92134 34.9058 10.3218 34.3158C10.5133 34.0382 10.7831 33.856 11.1226 33.8473C11.3402 33.8387 11.5056 33.9688 11.6797 34.1163C11.9931 34.3939 12.2542 34.7323 12.4806 35.0967C12.0975 35.8863 12.0714 36.832 12.6895 37.422C12.7678 37.5 12.8549 37.5174 12.9593 37.474C13.7863 37.153 13.499 36.1118 13.2205 35.5045C13.1595 35.3744 13.0899 35.2355 13.0116 35.1054C13.2988 34.6108 13.8298 34.0382 14.4391 34.151C14.7699 34.2117 15.0746 34.4547 15.3009 34.7844C15.2052 34.8625 15.1094 34.9492 15.0311 35.036C14.5958 35.5219 13.9691 36.4242 14.3434 37.0923C14.796 37.8992 15.8319 37.2484 16.0582 36.6064C16.2323 36.1205 16.154 35.4785 15.8928 34.9145C16.0321 34.8364 16.1714 34.7844 16.3281 34.7497C16.8939 34.6369 17.4684 34.8711 17.7644 35.3657C18.1213 35.9643 18.0429 36.7365 17.7905 37.3525C17.3814 38.3763 16.5109 39.1225 15.6752 39.834L16.3455 39.8426C17.5206 38.8015 18.661 37.5868 18.4347 35.9383C18.3302 35.1922 17.834 34.5154 17.0767 34.3245C16.5892 34.2031 16.1018 34.2985 15.6752 34.5241C15.2835 33.9428 14.6916 33.5523 14.0039 33.7085C13.5164 33.8213 13.0551 34.1857 12.7243 34.6542C12.4631 34.2638 12.1411 33.8994 11.7755 33.6304C11.1574 33.1706 10.3305 33.4482 9.92134 34.0556C9.45128 34.7757 9.37294 35.7561 9.42517 36.589ZM15.5359 35.1748C15.7797 35.7301 15.8145 36.3808 15.4402 36.7626C15.2487 36.9621 14.8222 37.1703 14.709 36.7799C14.6219 36.4849 14.8309 36.1118 14.9788 35.8689C15.1355 35.626 15.3183 35.3744 15.5359 35.1748ZM12.7678 35.6346C12.7852 35.678 12.8113 35.7127 12.8288 35.7561C12.9767 36.0858 13.2205 36.7018 12.8984 36.9795C12.6111 36.5977 12.6285 36.0945 12.7678 35.6346Z" fill="black"/>
<path d="M5.74316 45.595L5.86503 45.6123L11.793 46.3325L13.917 46.5928L17.6427 47.0439L18.8961 47.2001L19.3314 47.2522L19.4533 46.3932L19.9407 42.9227L20.4804 39.1572L20.4369 39.1485C18.1388 40.6495 8.43295 39.5476 6.30027 37.5521L5.94338 42.6624L5.74316 45.595Z" fill="white" stroke="black" stroke-miterlimit="10"/>
<path d="M19.8973 42.8012L6.03052 41.1614" stroke="black" stroke-miterlimit="10"/>
<path d="M19.6795 45.1004L5.90845 43.4085" stroke="black" stroke-miterlimit="10"/>
</svg>
