<svg width="229" height="235" viewBox="0 0 229 235" fill="none" xmlns="http://www.w3.org/2000/svg">
<path d="M13.3094 57.4721C15.1021 57.1136 17.4325 58.2788 17.7014 60.2508C19.4044 73.0683 21.5556 85.7065 25.6787 97.9863C27.2921 102.737 29.533 107.846 33.6561 110.983C37.8688 114.299 42.9779 115.017 48.1766 114.927C54.6302 114.748 60.9045 113.493 67.3581 113.313C69.33 113.224 70.9434 115.285 70.8538 117.168C70.7641 119.14 68.9715 120.484 66.9996 120.484C55.168 120.932 42.4401 124.966 31.5049 118.333C26.2165 115.106 22.6312 109.907 20.3008 104.35C17.8807 98.5241 16.1776 92.3394 14.6539 86.2443C12.682 78.1774 11.5167 69.9311 10.4411 61.7745C10.2619 59.8026 11.2478 57.9203 13.3094 57.4721Z" fill="black"/>
<path d="M13.7576 57.2033C13.7576 57.2033 15.9088 38.47 22.452 39.6352C27.561 40.6212 22.0934 58.5478 22.0934 58.5478L13.7576 57.2033Z" fill="white" stroke="black" stroke-miterlimit="10"/>
<path d="M7.21433 57.4722C7.21433 57.4722 -0.94227 40.8005 5.60094 39.6353C12.1441 38.47 14.2953 56.5759 14.2953 56.5759L7.21433 57.4722Z" fill="white" stroke="black" stroke-miterlimit="10"/>
<path d="M24.1549 59.6232C24.1549 59.6232 30.1603 67.5109 22.9001 72.5304C22.9001 72.5304 26.6646 75.3986 22.183 77.5498C17.7013 79.701 7.75207 80.4181 9.54473 75.0401C9.54473 75.0401 -0.583795 71.0066 3.71859 60.3403L24.1549 59.6232Z" fill="white" stroke="black" stroke-miterlimit="10"/>
<path d="M22.9897 72.4409C22.9897 72.4409 20.6592 73.875 18.5977 74.2335" stroke="black" stroke-miterlimit="10"/>
<path d="M13.9369 74.861C13.9369 74.861 12.1442 75.3091 9.63452 75.0402" stroke="black" stroke-miterlimit="10"/>
<path d="M2.55337 55.6796C3.62896 55.1418 5.15273 55.3211 6.22832 55.9485C7.84171 56.8448 8.73804 58.7271 9.27584 60.4302C9.72401 61.8643 9.90327 63.7466 8.46915 64.8222C6.40759 66.2563 4.34603 64.7325 3.00153 63.1192C1.74667 61.5954 0.671076 59.4442 1.11924 57.4723C1.38814 56.5759 1.92594 55.9485 2.55337 55.6796Z" fill="white" stroke="black" stroke-miterlimit="10"/>
<path d="M24.2445 59.713C20.7488 56.038 12.5026 56.3966 9.54469 56.5758C7.84166 56.6655 6.049 57.1136 5.5112 58.727C3.53928 64.105 15.6397 65.7184 15.6397 65.7184C15.6397 65.7184 14.5641 69.5726 17.9702 70.5586" fill="white"/>
<path d="M24.2445 59.713C20.7488 56.038 12.5026 56.3966 9.54469 56.5758C7.84166 56.6655 6.049 57.1136 5.5112 58.727C3.53928 64.105 15.6397 65.7184 15.6397 65.7184C15.6397 65.7184 14.5641 69.5726 17.9702 70.5586" stroke="black" stroke-miterlimit="10"/>
<path d="M130.743 196.512C130.743 196.512 127.204 189.19 123.91 201.392C120.371 214.448 127.936 207.493 127.936 207.493L128.546 209.689C128.546 209.689 114.026 221.159 123.788 229.09C133.549 237.021 139.162 222.257 141.602 212.984C144.042 203.711 148.557 194.071 130.743 196.512Z" fill="#E30611" stroke="black" stroke-miterlimit="10"/>
<path d="M130.742 196.512C130.742 196.512 131.352 198.83 130.254 202.003Z" fill="black"/>
<path d="M130.742 196.512C130.742 196.512 131.352 198.83 130.254 202.003" stroke="black" stroke-miterlimit="10"/>
<path d="M129.034 205.419C129.034 205.419 128.912 206.151 127.814 207.371Z" fill="black"/>
<path d="M129.034 205.419C129.034 205.419 128.912 206.151 127.814 207.371" stroke="black" stroke-miterlimit="10"/>
<path d="M128.546 209.689L133.549 206.395" stroke="black" stroke-miterlimit="10"/>
<path d="M128.546 209.689L133.427 210.543" stroke="black" stroke-miterlimit="10"/>
<path d="M122.567 221.647C122.689 222.135 122.811 222.623 123.055 222.989C123.177 223.477 123.421 223.843 123.665 224.209C124.153 225.063 124.641 225.795 125.374 226.284C125.984 226.894 126.838 227.382 127.692 227.748C128.546 228.114 129.522 228.358 130.376 228.602V228.724C129.888 228.724 129.4 228.602 128.912 228.602C128.424 228.48 127.936 228.48 127.448 228.236C126.472 227.992 125.618 227.382 124.885 226.772C123.421 225.429 122.689 223.599 122.567 221.647Z" fill="white"/>
<path d="M123.787 205.297C123.543 205.297 123.421 205.297 123.177 205.297C115.856 205.053 108.535 203.589 101.336 201.514C100.604 201.27 99.872 201.026 99.1399 200.782C96.8216 200.05 94.6253 199.318 92.429 198.586C91.6968 198.342 90.9648 198.098 90.2326 197.854C89.9886 197.732 89.7446 197.732 89.5005 197.61C80.9593 194.315 73.7603 188.336 73.0282 178.575C72.6621 172.474 74.8584 167.349 78.5189 162.957C80.7153 165.275 82.9116 167.349 84.8639 169.302C83.5217 171.132 82.5455 173.206 82.1795 175.403C80.5932 183.822 88.4024 187.726 95.1134 190.045C95.8455 190.289 96.5776 190.533 97.1877 190.777C97.3097 190.777 97.5537 190.899 97.6757 190.899C100.116 191.631 102.556 192.485 105.119 193.095C105.729 193.217 106.339 193.461 106.949 193.583C112.196 195.047 117.687 196.023 123.055 196.268C123.91 196.268 124.642 196.512 125.252 196.878C129.156 198.952 128.668 205.419 123.787 205.297Z" fill="black" stroke="black" stroke-miterlimit="10"/>
<path d="M130.755 169.332C129.901 170.186 129.169 171.162 128.315 172.138C126.24 174.579 111.452 189.803 109.377 192.487C103.887 199.686 98.2739 207.617 94.3693 214.45C94.1253 214.816 93.8812 215.06 93.6372 215.427C90.3427 218.965 83.5097 215.061 86.1941 210.424C86.4382 209.936 86.6822 209.57 86.9262 209.082C90.8308 202.493 95.1014 195.66 99.7381 189.315C101.568 186.752 103.521 184.19 105.473 181.75C107.181 179.553 121.726 164.695 123.678 162.621C123.8 162.499 123.922 162.377 124.044 162.255L123.922 162.743C124.166 163.109 129.413 168.112 130.755 169.332Z" fill="black" stroke="black" stroke-miterlimit="10"/>
<path d="M90.435 223.094C88.3607 228.096 86.4084 231.025 84.4561 232.611C79.0874 236.882 73.9626 230.049 68.2278 224.558C62.3709 218.945 54.5618 209.794 56.6361 203.327C57.2462 201.131 59.0765 199.3 62.3709 198.08C75.6709 192.955 80.4295 215.773 80.4295 215.773L81.1616 214.675C80.9176 214.431 80.3075 213.332 80.1855 212.234C80.0635 211.014 80.9176 209.672 81.8938 209.306C84.0901 208.33 87.6286 211.868 89.4588 213.82C91.1671 215.529 95.1937 219.677 93.9735 221.874C93.8515 222.118 93.1194 222.972 90.435 223.094Z" fill="#E30611" stroke="black" stroke-miterlimit="10"/>
<path d="M90.4349 223.094C90.4349 223.094 88.6046 222.239 85.5542 219.189" stroke="black" stroke-miterlimit="10"/>
<path d="M82.748 216.138C82.748 216.138 81.8939 215.65 81.0398 214.308" stroke="black" stroke-miterlimit="10"/>
<path d="M71.4 201.008C70.9119 200.764 70.5458 200.52 70.0578 200.398C69.5697 200.154 69.2036 200.032 68.7156 199.91C67.8614 199.666 66.8853 199.422 66.0312 199.544C65.1771 199.544 64.2009 199.666 63.3468 200.032C62.4927 200.276 61.6385 200.886 60.7844 201.252C61.1505 201.008 61.5165 200.642 62.0046 200.276C62.4927 200.032 62.8587 199.666 63.3468 199.544C64.2009 199.056 65.1771 198.934 66.2752 198.812C67.9835 198.812 69.9358 199.666 71.4 201.008Z" fill="white"/>
<path d="M84.4562 232.489C84.3342 232.611 84.2121 232.855 84.0901 232.977C82.9919 234.075 80.7956 233.953 79.3314 233.587C74.9388 232.245 71.5223 227.608 68.3498 224.436C62.493 218.823 54.9279 209.305 56.7582 203.205C58.4664 197.714 68.1058 208.207 70.0581 210.404C74.6948 215.528 79.3314 221.019 82.992 226.876C83.8461 228.462 85.5543 230.659 84.4562 232.489Z" fill="white" stroke="black" stroke-miterlimit="10"/>
<path d="M58.2224 211.38L66.1536 206.377" stroke="black" stroke-miterlimit="10"/>
<path d="M62.0049 217.603L71.2782 212.112" stroke="black" stroke-miterlimit="10"/>
<path d="M67.374 223.948L76.1593 217.969" stroke="black" stroke-miterlimit="10"/>
<path d="M73.5964 229.682L81.2836 224.68" stroke="black" stroke-miterlimit="10"/>
<path d="M124.59 35.9173L186.843 143.742C193.504 155.279 185.178 169.701 171.856 169.701H47.3503C34.0285 169.701 25.7023 155.279 32.3633 143.742L94.6161 35.9173C101.277 24.3802 117.929 24.3802 124.59 35.9173Z" fill="#D9D9D9" stroke="black"/>
<path d="M132.267 31.8858C132.267 31.8858 153.013 38.1556 148.642 55.2724L109.218 54.9155L70.3492 51.2132C68.2101 38.182 85.113 31.6836 85.113 31.6836C85.3604 31.5774 85.6446 24.5975 85.7997 24.0033C86.2494 20.4106 87.3995 17.2204 89.6246 14.2131C94.2159 7.84498 102.111 2.75408 110.321 2.6272C121.557 2.31399 130.56 11.4007 132.499 21.6459C132.861 23.7176 132.983 25.7753 132.864 27.8191C132.73 28.0526 132.033 31.7516 132.267 31.8858Z" fill="#5663F1" stroke="black" stroke-miterlimit="10"/>
<path d="M68.41 65.9382C78.507 64.4733 109.563 61.4497 152.467 70.4523C154.85 70.9525 157.119 69.2747 157.131 66.9835C157.122 65.0529 157.474 63.1433 157.225 61.1988C156.868 56.9561 155.414 50.8404 150.3 49.5787C142.208 47.6618 131.537 46.5603 121.593 45.3803C105.546 43.3638 85.4547 42.4396 68.5431 47.0075C67.5604 47.3123 66.677 47.9849 66.2606 48.9257C65.3074 50.8005 64.3194 53.2763 63.8976 56.3882C63.5107 58.8989 63.6187 61.1971 63.988 63.1485C64.3712 64.8596 66.2251 66.1734 68.41 65.9382Z" fill="#5663F1" stroke="black" stroke-miterlimit="10"/>
<path d="M84.0205 44.2861L83.9448 64.3059" stroke="black" stroke-miterlimit="10"/>
<path d="M102.625 43.7971L101.666 64.4893" stroke="black" stroke-miterlimit="10"/>
<path d="M121.232 45.3586L119.693 65.6554" stroke="black" stroke-miterlimit="10"/>
<path d="M139.804 47.522L137.691 67.303" stroke="black" stroke-miterlimit="10"/>
<path d="M116.7 132.939C111.143 136.973 103.882 137.869 97.3392 136.077C95.0087 135.449 92.499 134.374 90.2582 132.85C86.7625 130.519 84.1631 127.203 84.2527 122.901C84.432 118.957 87.3899 117.881 90.8856 117.881C93.9331 117.881 97.4288 118.777 99.58 119.315C101.462 119.763 103.255 120.122 105.227 120.032C108.274 119.853 111.143 118.509 114.101 118.15C114.728 118.06 115.355 118.06 116.072 118.15C118.134 118.24 120.464 118.777 121.809 120.122C125.753 123.976 119.747 130.609 116.7 132.939Z" fill="black" stroke="black" stroke-miterlimit="10"/>
<path d="M116.7 132.94C111.143 136.973 103.882 137.869 97.3391 136.077C95.0086 135.449 92.4989 134.374 90.2581 132.85C92.947 129.175 97.8769 126.755 103.434 126.755C109.171 126.665 114.011 129.175 116.7 132.94Z" fill="#E30611" stroke="black" stroke-miterlimit="10"/>
<path d="M169.861 155.923C168.994 150.77 164.278 147.931 159.274 149.681C154.257 151.357 150.879 156.921 151.672 162.086C152.539 167.238 157.256 170.078 162.259 168.328C167.276 166.651 170.727 161.075 169.861 155.923ZM161.063 164.366C158.058 165.401 155.197 163.688 154.677 160.596C154.156 157.505 156.176 154.213 159.181 153.178C162.186 152.143 165.047 153.856 165.567 156.948C166.088 160.039 164.08 163.404 161.063 164.366Z" fill="#F96F6F" stroke="black" stroke-miterlimit="10"/>
<path d="M155.819 145.342C155.819 145.342 159.903 175.914 135.856 178.295C113.072 180.538 111.356 149.643 111.356 149.643L155.819 145.342Z" fill="#F96F6F" stroke="black" stroke-miterlimit="10"/>
<path d="M155.795 145.328C155.45 141.758 145.225 139.826 132.957 141.011C120.689 142.197 111.023 146.052 111.368 149.622C111.713 153.191 121.938 155.124 134.206 153.938C146.474 152.752 156.14 148.897 155.795 145.328Z" fill="#F96F6F" stroke="black" stroke-miterlimit="10"/>
<path d="M112.832 151.666C111.984 151.127 111.505 150.527 111.307 149.803C114.333 146.191 118.993 144.65 124.345 145.869C128.445 146.844 131.429 148.386 135.463 146.269C139.558 144.066 142.782 142.086 147.741 143.219C150.258 143.78 153.351 144.168 155.831 145.416C155.972 148.949 146.394 152.756 134.248 153.891C125.009 154.764 116.921 153.93 113.323 151.886" fill="black"/>
<path d="M112.832 151.666C111.984 151.127 111.505 150.527 111.307 149.803C114.333 146.191 118.993 144.65 124.345 145.869C128.445 146.844 131.429 148.386 135.463 146.269C139.558 144.066 142.782 142.086 147.741 143.219C150.258 143.78 153.351 144.168 155.831 145.416C155.972 148.949 146.394 152.756 134.248 153.891C125.009 154.764 116.921 153.93 113.323 151.886" stroke="black" stroke-miterlimit="10"/>
<path d="M142.86 144.797C144.491 144.145 146.295 144.068 148.013 144.385C149.732 144.701 151.365 145.41 152.875 146.291C153.133 146.475 152.901 146.893 152.643 146.709C151.145 145.901 149.598 145.253 147.953 144.925C146.308 144.596 144.59 144.733 142.947 145.313C142.665 145.436 142.578 144.921 142.86 144.797Z" fill="white"/>
<path d="M112.832 151.666C113.407 150.585 114.227 149.614 115.245 148.913C116.519 147.942 118.016 147.388 119.635 147.115C120.592 146.954 121.5 146.953 122.494 147.013C122.801 147.037 122.801 147.491 122.495 147.467C119.427 147.226 116.25 148.139 114.229 150.522C113.849 150.965 113.543 151.395 113.323 151.886L112.832 151.666Z" fill="white"/>
<path d="M140.946 145.119C141.155 145.008 141.376 144.971 141.584 144.86C141.731 144.836 141.817 144.897 141.916 145.032C141.94 145.179 141.879 145.265 141.744 145.363C141.597 145.388 141.389 145.499 141.242 145.524L141.168 145.536C141.094 145.548 141.021 145.561 141.021 145.561C140.947 145.573 140.935 145.5 140.849 145.438C140.836 145.365 140.824 145.291 140.824 145.291C140.885 145.205 140.946 145.119 140.946 145.119Z" fill="white"/>
<path d="M123.881 147.158C124.175 147.108 124.421 147.218 124.679 147.402C124.765 147.463 124.863 147.598 124.741 147.77C124.679 147.856 124.545 147.954 124.373 147.832C124.299 147.844 124.287 147.771 124.213 147.783C124.127 147.722 124.053 147.734 123.98 147.747C123.906 147.759 123.906 147.759 123.833 147.771C123.685 147.796 123.587 147.661 123.562 147.514C123.672 147.269 123.734 147.183 123.881 147.158Z" fill="white"/>
<path d="M151.049 147.583C152.131 149.066 153.091 150.721 153.829 152.413C154.347 153.688 155.27 155.577 154.192 156.818C153.555 157.53 152.439 157.643 151.665 157.092C150.792 156.406 150.655 155.142 150.556 154.099C150.356 152.013 150.611 149.927 151.012 147.816C151.012 147.816 151 147.742 151.049 147.583Z" fill="black" stroke="black" stroke-miterlimit="10"/>
<path d="M151.008 153.19C151.057 153.031 151.18 152.859 151.339 152.908C151.499 152.956 151.671 153.079 151.622 153.238C151.561 153.778 151.562 154.232 151.722 154.735C151.87 155.165 152.104 155.655 152.522 155.888C152.681 155.936 152.718 156.157 152.596 156.329C152.474 156.501 152.326 156.526 152.154 156.403C151.651 156.11 151.319 155.484 151.146 154.908C150.986 154.405 150.874 153.743 151.008 153.19Z" fill="white"/>
<path d="M65.3176 88.626C68.6902 83.0907 75.639 81.0576 81.4314 83.7008C81.982 83.9222 82.4182 84.158 82.9188 84.4438C88.9046 88.1666 90.7594 96.0092 87.101 102.045C83.3782 108.031 75.5356 109.886 69.4997 106.227C68.9991 105.941 68.5486 105.591 68.098 105.241C63.2418 101.26 61.8949 94.2256 65.3176 88.626Z" fill="white" stroke="black" stroke-miterlimit="10"/>
<path d="M68.0981 105.241C70.5643 104.06 73.1946 101.872 75.4601 99.0895L70.0448 91.577L79.2329 93.0393C80.7403 89.7712 81.4826 86.4248 81.4315 83.7008C75.7035 81.1076 68.7546 83.1408 65.3177 88.626C61.895 94.2256 63.2419 101.26 68.0981 105.241Z" fill="black" stroke="black" stroke-miterlimit="10"/>
<path d="M119.042 88.6657C121.841 82.8196 128.551 80.0984 134.579 82.1462C135.15 82.3112 135.607 82.5019 136.134 82.7359C142.464 85.8384 145.097 93.4549 142.064 99.8278C138.961 106.157 131.345 108.791 124.972 105.758C124.445 105.524 123.962 105.22 123.478 104.917C118.247 101.445 116.2 94.5809 119.042 88.6657Z" fill="white" stroke="black" stroke-miterlimit="10"/>
<path d="M123.478 104.917C125.813 103.495 128.21 101.053 130.185 98.0569L124.042 91.1267L133.33 91.6582C134.502 88.2552 134.904 84.8512 134.579 82.1461C128.62 80.1416 121.91 82.8628 119.042 88.6656C116.199 94.5808 118.246 101.445 123.478 104.917Z" fill="black" stroke="black" stroke-miterlimit="10"/>
<circle cx="71.9024" cy="95.336" r="16.5928" stroke="black"/>
<circle cx="126.395" cy="93.9836" r="16.5928" stroke="black"/>
<rect x="89.2034" y="93.9836" width="20.0824" height="1.35248" fill="black"/>
<path d="M225.403 148.548C220.828 155.442 211.121 157.391 203.505 158.663C200.583 159.158 197.643 159.476 194.692 159.704C193.355 159.848 191.92 159.913 190.583 160.057C190.494 160.066 190.494 160.066 190.405 160.076C188.88 160.15 187.267 160.234 185.752 160.398C184.861 160.494 184.049 160.491 183.158 160.587C182.445 160.664 181.722 160.652 181.009 160.729C176.436 160.952 171.871 161.264 167.336 161.843C165.376 162.054 163.398 161.276 162.9 159.166C162.872 158.899 162.843 158.631 162.814 158.364C162.819 156.741 163.884 154.913 165.577 154.73C166.201 154.663 166.825 154.596 167.449 154.528C167.716 154.499 167.983 154.471 168.251 154.442C173.865 153.836 179.518 153.587 185.072 153.259C186.418 153.204 187.666 153.069 189.012 153.014C189.547 152.956 189.992 152.908 190.537 152.94C192.061 152.865 193.665 152.692 195.18 152.529C199.824 152.118 204.429 151.351 208.907 150.237C211.978 149.455 214.683 148.622 217.183 146.73C218.106 146.09 218.831 145.29 219.279 144.43C219.13 144.717 219.52 143.323 219.47 143.689C219.501 143.144 219.472 142.877 219.364 142.708C218.343 139.934 215.251 138.013 212.851 136.649C206.606 133.086 199.307 131.439 192.284 129.852C183.867 127.875 185.915 128.091 177.575 126.783C177.575 126.783 176.029 124.001 175.301 122.796C174.13 120.858 172.99 118.726 172.99 118.726C177.294 119.344 188.767 121.487 193.02 122.471C200.883 124.327 209.014 126.155 216.118 130.167C222.779 133.415 230.436 140.883 225.403 148.548Z" fill="black"/>
<path d="M184.466 147.644C184.466 147.644 188.22 143.994 189.476 147.284C190.468 149.792 190.825 155.613 190.926 158.217C190.962 159.385 190.374 160.62 189.352 161.181C188.668 161.525 186.669 161.38 185.711 160.853C184.073 162.382 182.034 165.216 177.458 166.25C174.031 167.071 170.249 167.118 166.817 166.226C165.057 165.785 163.436 164.968 162.292 163.559C161.662 162.725 161.11 161.793 160.995 160.724C160.937 160.189 160.978 159.734 161.188 159.17C161.268 159.071 161.697 158.034 161.697 158.034C161.697 158.034 158.106 154.003 162.768 151.247C162.768 151.247 157.622 144.499 168.747 144.832C169.38 144.854 169.687 141.846 172.038 140.24C172.375 140.023 174.905 138.398 177.754 138.902C181.265 139.695 184.164 143.169 184.466 147.644Z" fill="white" stroke="black" stroke-miterlimit="10"/>
<path d="M162.975 151.495L167.259 151.934" stroke="black" stroke-miterlimit="10"/>
<path d="M161.805 158.202L166.239 158.355" stroke="black" stroke-miterlimit="10"/>
<path d="M168.855 145.001L175.03 145.417" stroke="black" stroke-miterlimit="10"/>
<path d="M184.466 147.644L184.937 152.011" stroke="black" stroke-miterlimit="10"/>
<path d="M185.374 157.734L185.809 160.932" stroke="black" stroke-miterlimit="10"/>
<path d="M102.658 98.2914L101.933 103.969C101.933 103.969 92.8728 102.278 92.2688 106.989C91.6648 111.701 102.296 110.976 102.296 110.976" fill="#D9D9D9"/>
<path d="M102.658 98.2914L101.933 103.969C101.933 103.969 92.8728 102.278 92.2688 106.989C91.6648 111.701 102.296 110.976 102.296 110.976" stroke="black" stroke-miterlimit="10"/>
</svg>
