<svg width="190" height="202" viewBox="0 0 190 202" fill="none" xmlns="http://www.w3.org/2000/svg">
<path d="M188.632 121.265C187.008 112.874 181.647 105.954 171.232 102.862C171.232 102.862 171.201 102.862 171.171 102.862C170.619 102.708 170.037 102.525 169.424 102.402C168.26 102.127 167.004 101.882 165.718 101.698C163.727 101.392 161.582 101.239 159.254 101.177C158.795 101.177 158.304 101.177 157.845 101.177C158.335 101.177 158.795 101.177 159.254 101.177C159.714 101.177 160.142 101.177 160.602 101.116C168.291 100.779 174.234 98.9727 178.645 96.125C184.435 92.3893 187.621 86.8776 188.724 80.6003C188.785 80.2329 188.846 79.8654 188.908 79.498C188.908 79.498 188.908 79.498 188.908 79.4674C192.094 56.1957 168.383 23.3091 145.714 29.2189C138.883 30.9949 132.143 36.3229 126.261 46.4889C161.797 -15.1811 27.4977 -15.1811 63.033 46.3971C27.4977 -15.1811 -39.6824 101.086 31.4188 101.086C-39.6824 101.086 27.4671 217.352 63.033 155.805C59.1119 162.602 57.2432 168.665 57.0288 173.963C56.5999 183.853 61.777 191.141 69.6499 195.795C74.7045 198.765 80.8313 200.694 87.2644 201.491C89.807 201.827 92.3803 201.981 94.9535 201.95C95.2905 201.95 95.6275 201.95 95.9338 201.95C97.2204 201.95 98.5071 201.858 99.763 201.736C100.56 201.674 101.356 201.582 102.122 201.491C123.903 198.674 142.16 183.455 126.2 155.805C131.653 165.236 137.841 170.503 144.152 172.615C144.366 172.677 144.58 172.768 144.795 172.83C144.917 172.86 145.04 172.891 145.162 172.922C145.285 172.952 145.438 173.013 145.561 173.044C168.781 179.229 193.135 144.628 188.601 121.234L188.632 121.265Z" fill="white"/>
</svg>
