<svg width="61" height="62" viewBox="0 0 61 62" fill="none" xmlns="http://www.w3.org/2000/svg">
<path d="M30.7825 60.6685C44.4851 60.1381 55.1448 49.7398 54.5916 37.4433C54.0385 25.1467 42.4819 15.6083 28.7793 16.1387C15.0767 16.6691 4.41699 27.0674 4.97014 39.3639C5.5233 51.6605 17.0799 61.1988 30.7825 60.6685Z" fill="#F96F6F" stroke="black" stroke-width="0.5" stroke-miterlimit="10"/>
<path d="M30.558 55.7942C41.2675 55.3782 49.6 47.2536 49.1691 37.6474C48.7381 28.0412 39.707 20.5912 28.9974 21.0072C18.2878 21.4233 9.95536 29.5479 10.3863 39.1541C10.8172 48.7602 19.8484 56.2103 30.558 55.7942Z" fill="white" stroke="black" stroke-width="0.5" stroke-miterlimit="10"/>
<path d="M30.349 51.1286C38.1878 50.8239 44.2866 44.8786 43.9711 37.8492C43.6556 30.8198 37.0453 25.3684 29.2066 25.673C21.3678 25.9777 15.269 31.9231 15.5845 38.9524C15.9 45.9818 22.5103 51.4333 30.349 51.1286Z" fill="#F96F6F" stroke="black" stroke-width="0.5" stroke-miterlimit="10"/>
<path d="M30.1369 46.3944C35.0438 46.2036 38.8608 42.4701 38.6626 38.0554C38.4643 33.6408 34.3258 30.2167 29.419 30.4075C24.5121 30.5984 20.695 34.3319 20.8933 38.7465C21.0916 43.1612 25.2301 46.5853 30.1369 46.3944Z" fill="white" stroke="black" stroke-width="0.5" stroke-miterlimit="10"/>
<path d="M33.5449 38.2673C33.6187 40.1902 32.032 41.8384 29.9288 41.9071C27.8624 41.9758 26.0913 40.4993 26.0175 38.542C25.9437 36.6191 27.5303 34.9709 29.6336 34.9022C31.6999 34.8336 33.4342 36.3101 33.5449 38.2673Z" fill="#F96F6F" stroke="black" stroke-width="0.5" stroke-miterlimit="10"/>
<path d="M53.3493 17.1168C53.1711 17.9872 52.9484 18.9405 52.6812 19.8524C52.0576 21.8833 51.2559 23.7484 50.2761 25.4063C49.5634 24.7846 48.8508 24.2044 48.0936 23.6655C45.6885 21.9247 43.0162 20.5155 40.0766 19.5208C39.3194 19.2721 38.5623 19.0234 37.8051 18.8162C37.9832 17.9043 38.2059 16.9511 38.5177 15.9978C39.1858 13.7596 40.1211 11.7287 41.1455 10.0293C43.6843 5.88458 46.9802 3.48063 49.7416 4.22668C53.2156 5.13853 54.5964 10.651 53.3493 17.1168Z" fill="white" stroke="black" stroke-width="0.5" stroke-miterlimit="10"/>
<path d="M56.5561 7.41811C56.5561 7.41811 55.9326 10.0707 53.6611 10.5267" stroke="black" stroke-width="0.5" stroke-miterlimit="10"/>
<path d="M57.6696 10.8583C57.6696 10.8583 56.3334 13.5523 53.9283 13.2208" stroke="black" stroke-width="0.5" stroke-miterlimit="10"/>
<path d="M57.0906 15.0859C57.0906 15.0859 55.799 17.407 53.3493 17.1168" stroke="black" stroke-width="0.5" stroke-miterlimit="10"/>
<path d="M50.8996 15.003L45.4659 15.2517L50.0089 18.2359C49.8752 18.5675 49.7862 18.8991 49.6526 19.2721C49.1626 20.557 48.6727 22.2563 48.0937 23.6241C45.6886 21.8833 43.0162 20.4741 40.0766 19.4793C40.2993 18.4846 40.6111 17.4484 40.9674 16.4122C41.7246 14.174 42.749 12.1017 43.8625 10.3609C45.7331 7.83259 47.7819 6.42337 49.2962 6.7964C51.256 7.29377 51.7904 10.651 50.8996 15.003Z" fill="black" stroke="black" stroke-width="0.5" stroke-miterlimit="10"/>
<path d="M30.3224 14.5471C30.3224 15.6247 30.2333 16.7024 30.0997 17.6971C29.3871 17.6971 28.719 17.6971 28.0064 17.6971C27.7837 17.6971 27.5164 17.7385 27.2937 17.7385C24.1314 17.9458 21.1473 18.526 18.3414 19.5208C17.6287 19.7695 16.9161 20.0596 16.2035 20.3497C15.8026 18.5675 15.5799 16.5366 15.5799 14.4227C15.5799 14.1741 15.5799 13.9668 15.5799 13.7181C15.5799 13.6767 15.5799 13.6352 15.5799 13.5938C15.5799 13.428 15.5799 13.2622 15.6245 13.1379C15.6245 12.9306 15.6245 12.7234 15.669 12.5162C15.669 12.226 15.7135 11.9359 15.7581 11.6458C15.7581 11.6458 15.7581 11.6458 15.7581 11.6043C15.7581 11.3971 15.8026 11.1898 15.8472 10.9826C15.9362 10.3609 16.0253 9.73918 16.1589 9.15892C16.2035 8.95168 16.248 8.70299 16.2926 8.49575C16.3371 8.28852 16.3816 8.08128 16.4707 7.87404C16.5152 7.70825 16.5598 7.54246 16.6043 7.41812C16.6489 7.33522 16.6489 7.21089 16.6934 7.12799C16.7379 7.0451 16.7379 7.00365 16.7825 6.92076C16.7825 6.87931 16.827 6.83786 16.827 6.75497C17.0052 6.21615 17.1833 5.71878 17.406 5.26286C18.7867 2.19574 20.791 0.247711 23.0625 0.247711C27.1156 0.289159 30.3669 6.71352 30.3224 14.5471Z" fill="white" stroke="black" stroke-width="0.5" stroke-miterlimit="10"/>
<path d="M15.5355 1.57402C15.5355 1.57402 15.3573 4.30956 17.3616 5.3043" stroke="black" stroke-width="0.5" stroke-miterlimit="10"/>
<path d="M13.4867 4.55825C13.4867 4.55825 13.9766 7.50102 16.3817 7.79116" stroke="black" stroke-width="0.5" stroke-miterlimit="10"/>
<path d="M12.7741 8.78589C12.7741 8.78589 13.3531 11.3556 15.7582 11.6872" stroke="black" stroke-width="0.5" stroke-miterlimit="10"/>
<path d="M27.5166 13.3866C27.5166 13.7596 27.5166 14.1326 27.5166 14.5056C27.5166 15.5004 27.4275 16.6609 27.2939 17.8214C24.1316 18.0287 21.1475 18.609 18.3415 19.6037C18.1188 17.9043 17.9406 15.9978 17.9852 14.1741C17.9852 13.9254 17.9852 13.7181 18.0297 13.4695C18.0297 13.428 18.0297 13.3866 18.0297 13.3451C18.0297 13.1793 18.0743 13.0135 18.0743 12.8892C18.0743 12.682 18.1188 12.4747 18.1188 12.2675C18.1633 11.9774 18.2079 11.6458 18.2524 11.3556C18.2524 11.3556 18.2524 11.3556 18.2524 11.3142C18.2969 11.107 18.297 10.8997 18.3415 10.6925C18.4306 10.0708 18.5642 9.44906 18.7423 8.86879C18.7869 8.66155 18.876 8.41288 18.9205 8.20564C18.965 7.9984 19.0541 7.79117 19.0987 7.58393C19.1432 7.41814 19.1877 7.25235 19.2323 7.12801C19.2768 7.04511 19.2768 6.92076 19.3213 6.83787C19.3659 6.71353 19.4104 6.58919 19.455 6.46484C20.3458 4.26813 21.5038 2.81746 22.7954 2.69312C23.8198 2.61023 24.7106 3.27339 25.4678 4.55826C26.2249 5.84313 26.8485 7.74971 27.1602 9.98788L27.1157 10.0293L22.1273 12.1432L27.5166 13.3866Z" fill="black" stroke="black" stroke-width="0.5" stroke-miterlimit="10"/>
<path d="M36.5337 16.2226C36.5337 16.463 36.5337 16.7034 36.4599 16.9094C34.7625 16.4973 32.9914 16.2226 31.1833 16.154C31.2571 14.9178 32.3641 13.8877 33.7293 13.8533C35.2422 13.7503 36.4968 14.8491 36.5337 16.2226Z" fill="#E30611" stroke="black" stroke-width="0.5" stroke-miterlimit="10"/>
<path d="M38.5479 20.9591C38.5479 20.9591 36.647 35.8448 30.9903 34.8524C24.5455 33.7306 29.043 19.2763 29.043 19.2763C29.7848 19.8372 31.3613 20.8296 33.6796 21.2179C35.9051 21.6063 37.667 21.218 38.5479 20.9591Z" fill="white" stroke="black" stroke-width="0.5" stroke-miterlimit="10"/>
<path d="M35.4877 21.3905L34.1431 27.9489L32.7985 34.5936V34.6367" stroke="black" stroke-width="0.5" stroke-miterlimit="10"/>
<path d="M31.9177 20.7865L30.6658 27.3449L29.3676 34.119" stroke="black" stroke-width="0.5" stroke-miterlimit="10"/>
<path d="M36.8323 28.4235L34.1431 27.9489L30.6657 27.3449L27.6056 26.7839" stroke="black" stroke-width="0.5" stroke-miterlimit="10"/>
<path d="M15.7964 26.5583L20.1505 27.039L20.6671 23.0902L14.5787 15.9136L14.0991 19.8624L9.70807 19.3817L15.7964 26.5583Z" fill="#5663F1" stroke="black" stroke-width="0.5" stroke-miterlimit="10"/>
<path d="M12.9921 18.6606L29.7812 38.4734" stroke="black" stroke-width="0.5" stroke-miterlimit="10"/>
<path d="M11.5531 21.545L15.9072 22.0257L16.4238 18.0769" stroke="black" stroke-width="0.5" stroke-miterlimit="10"/>
<path d="M13.4718 23.8113L17.8628 24.292L18.3425 20.3775" stroke="black" stroke-width="0.5" stroke-miterlimit="10"/>
<path d="M10.6306 38.5764L14.3205 36.3101L11.959 33.0137L2.36526 31.1595L4.6899 34.4559L1 36.7222L10.6306 38.5764Z" fill="#5663F1" stroke="black" stroke-width="0.5" stroke-miterlimit="10"/>
<path d="M3.02942 34.1812L29.5967 39.3318" stroke="black" stroke-width="0.5" stroke-miterlimit="10"/>
<path d="M3.91504 37.2716L7.56803 35.0053L5.2434 31.7089" stroke="black" stroke-width="0.5" stroke-miterlimit="10"/>
<path d="M6.97763 37.8553L10.6675 35.6234L8.306 32.2926" stroke="black" stroke-width="0.5" stroke-miterlimit="10"/>
</svg>
