<svg width="60" height="61" viewBox="0 0 60 61" fill="none" xmlns="http://www.w3.org/2000/svg">
<path d="M20.6816 19.8L33.4489 1.11368C34.2748 -0.090775 36.1675 0.356594 36.3396 1.80194L39.0926 21.7959L57.0562 24.8931C58.536 25.134 58.8801 27.1299 57.5724 27.887L40.7788 37.1441L43.876 58.5834C44.0825 60.0976 42.293 61.0268 41.1918 59.96L25.2586 44.6462L5.88403 52.6644C4.43868 53.2494 3.09657 51.6664 3.88807 50.3587L14.5217 32.7737L1.96094 16.7372C0.997371 15.4983 2.20183 13.7433 3.716 14.225L20.6816 19.8Z" fill="#ACBFFF" stroke="black" stroke-width="0.5" stroke-miterlimit="10"/>
<path d="M33.5521 28.5409C34.8942 28.3344 36.5116 28.4376 38.1979 28.885C38.4388 28.9538 38.7141 29.0226 38.9549 29.0915C40.1938 29.5044 41.295 30.0206 42.1554 30.6401C42.8092 29.47 43.3598 28.0591 43.704 26.5449C43.8416 25.9599 43.9104 25.3749 43.9793 24.7898C44.1513 23.2757 44.0825 21.8303 43.7728 20.5915C43.291 18.4923 42.2242 16.9781 40.7444 16.634C40.71 16.634 40.6756 16.634 40.6068 16.5995C38.7485 16.2898 36.7181 17.8728 35.3072 20.4882C34.7566 21.555 34.2748 22.7939 33.9651 24.136C33.9306 24.2048 33.9307 24.2737 33.9307 24.3425C33.5865 25.8567 33.4833 27.2676 33.5521 28.5409Z" fill="#EBE9EF" stroke="black" stroke-width="0.5" stroke-miterlimit="10"/>
<path d="M45.4935 18.5611C45.4935 18.5611 45.2526 20.2818 43.7384 20.5915" stroke="black" stroke-width="0.5" stroke-miterlimit="10"/>
<path d="M46.457 20.7291C46.457 20.7291 45.7343 22.4842 44.0825 22.3121" stroke="black" stroke-width="0.5" stroke-miterlimit="10"/>
<path d="M46.3537 23.4477C46.3537 23.4477 45.6311 24.9619 43.9448 24.8243" stroke="black" stroke-width="0.5" stroke-miterlimit="10"/>
<path d="M35.2728 20.557C36.6837 17.9072 38.7141 16.3242 40.5724 16.634C41.3983 17.7696 41.7768 19.4214 41.5015 21.1077C41.3639 21.9336 41.0542 22.6907 40.6412 23.3445L38.4388 22.14L39.6432 24.549C38.6796 25.4093 37.4752 25.8567 36.2363 25.6502C35.3072 25.4781 34.5157 24.9619 33.8962 24.2048C34.2404 22.8627 34.7222 21.6239 35.2728 20.557Z" fill="black" stroke="black" stroke-width="0.5" stroke-miterlimit="10"/>
<path d="M35.7889 20.557C37.9914 21.6583 37.0966 21.7959 36.6493 24.4457C37.7849 22.0024 37.3719 21.5206 39.7809 21.8992C37.5784 20.7979 38.1979 20.6947 38.6796 18.0449C37.544 20.4882 38.2323 20.9356 35.7889 20.557Z" fill="white"/>
<path d="M16.2078 25.306V25.3405V25.3749C16.2078 25.4093 16.2078 25.4437 16.2078 25.5125C16.4143 25.4781 16.5864 25.4437 16.8273 25.4093C16.9305 25.3749 17.0682 25.3749 17.1714 25.3749C18.2038 25.2372 19.3394 25.2372 20.5439 25.4093C21.0257 25.4781 21.473 25.5469 21.9204 25.6846C21.9892 25.6846 22.0581 25.719 22.0925 25.719C23.1937 25.9943 24.1573 26.4073 24.9488 26.889C25.4994 25.7534 25.9467 24.4113 26.222 22.966C27.1168 18.0449 25.637 13.6744 22.9184 13.1582C21.4042 12.8829 19.8556 13.8465 18.5823 15.6016C18.4103 15.8769 18.2038 16.1522 18.0317 16.4619C18.0317 16.4963 17.9973 16.5307 17.9629 16.5651C17.9285 16.5995 17.9285 16.634 17.8941 16.7028C17.8597 16.7716 17.8252 16.806 17.7908 16.8748C17.7564 16.9781 17.6876 17.0469 17.6532 17.1502C17.5844 17.2878 17.5155 17.391 17.4811 17.5287C17.4123 17.6663 17.3779 17.804 17.3091 17.9072C17.1714 18.2514 17.0338 18.6299 16.8961 19.0085C16.8617 19.1461 16.8273 19.2494 16.7584 19.387C16.7584 19.387 16.7584 19.387 16.7584 19.4214C16.6896 19.5935 16.6552 19.7655 16.6208 19.972C16.5864 20.1097 16.552 20.2129 16.5176 20.3506C16.4831 20.4538 16.4831 20.557 16.4487 20.6259C16.4487 20.6603 16.4487 20.6603 16.4143 20.6947C16.3799 20.8323 16.3455 20.97 16.3455 21.1077C16.139 22.5874 16.0702 24.0328 16.2078 25.306Z" fill="#EBE9EF" stroke="black" stroke-width="0.5" stroke-miterlimit="10"/>
<path d="M17.7909 13.055C17.7909 13.055 17.378 14.7412 18.6168 15.6016" stroke="black" stroke-width="0.5" stroke-miterlimit="10"/>
<path d="M16.0702 14.6724C16.0702 14.6724 16.0702 16.5651 17.6532 17.0469" stroke="black" stroke-width="0.5" stroke-miterlimit="10"/>
<path d="M15.1411 17.219C15.1411 17.219 15.2444 18.8708 16.8273 19.387" stroke="black" stroke-width="0.5" stroke-miterlimit="10"/>
<path d="M17.7566 17.219C19.1331 14.5348 21.0946 12.9173 22.9873 13.1927C23.8477 14.3283 24.2606 15.9457 23.9853 17.6319C23.8477 18.4578 23.5723 19.2493 23.1594 19.9032L20.9914 18.8364L22.1958 21.1076C21.2667 22.0024 20.0622 22.4498 18.8233 22.2777C17.8942 22.14 17.0683 21.6238 16.4489 20.8668C16.7586 19.5246 17.2059 18.2858 17.7566 17.219Z" fill="black" stroke="black" stroke-width="0.5" stroke-miterlimit="10"/>
<path d="M18.376 16.9093C20.5784 18.0105 19.6837 18.1481 19.2363 20.7979C20.3719 18.3546 19.959 17.8728 22.3679 18.2514C20.1655 17.1501 20.7849 17.0469 21.2667 14.3971C20.0966 16.8404 20.7849 17.2878 18.376 16.9093Z" fill="white"/>
<path d="M29.4913 24.5145L29.2504 26.5793C29.2504 26.5793 26.05 24.8587 25.8435 26.4417C25.637 28.0247 29.0439 28.9194 29.0439 28.9194" fill="#F96F6F"/>
<path d="M29.4913 24.5145L29.2504 26.5793C29.2504 26.5793 26.05 24.8587 25.8435 26.4417C25.637 28.0247 29.0439 28.9194 29.0439 28.9194" stroke="black" stroke-width="0.5" stroke-miterlimit="10"/>
<path d="M27.9083 30.3648C30.0763 30.8121 31.797 30.055 33.7929 30.468C34.9286 30.7089 35.961 31.1218 35.7545 32.3607C35.4104 34.632 33.4144 35.9052 31.1431 36.4559C28.218 37.2129 24.9488 36.8 22.5743 34.9761C19.6836 32.8081 18.6856 30.1927 19.3739 28.9194C19.9589 27.7838 20.8881 27.715 22.0237 27.9558C23.9852 28.4376 25.9468 29.9518 27.9083 30.3648Z" fill="white" stroke="black" stroke-width="0.5" stroke-miterlimit="10"/>
<path d="M22.9185 28.2312C21.8517 29.9518 21.1978 31.9478 21.3699 33.9781" stroke="black" stroke-width="0.5" stroke-miterlimit="10"/>
<path d="M26.6351 30.0551C26.2565 30.7777 25.8436 31.7413 25.6027 32.9113C25.293 34.2535 25.2586 35.4579 25.3274 36.3182" stroke="black" stroke-width="0.5" stroke-miterlimit="10"/>
<path d="M31.1775 30.3992C30.8334 31.1563 30.4204 32.2231 30.214 33.5308C30.0419 34.7352 30.0763 35.8709 30.1795 36.6624" stroke="black" stroke-width="0.5" stroke-miterlimit="10"/>
</svg>
