<svg width="60" height="61" viewBox="0 0 60 61" fill="none" xmlns="http://www.w3.org/2000/svg">
<path d="M13.0433 60.095C12.0346 60.0254 11.0955 59.6428 10.3303 59.0167C9.39114 58.2167 8.83462 57.1384 8.79984 55.9558C8.76506 54.7732 9.21723 53.6254 10.0868 52.7558C10.9216 51.921 12.0694 51.4341 13.2868 51.3993C13.739 51.3645 14.1564 51.4341 14.539 51.5037L14.3998 52.0254C14.052 51.9558 13.7042 51.9211 13.3216 51.9211C12.2781 51.9558 11.2694 52.3732 10.539 53.1037C9.77375 53.8689 9.35636 54.8428 9.42593 55.9211C9.46071 56.9645 9.94767 57.9037 10.7824 58.5993C11.5824 59.2602 12.5911 59.608 13.6694 59.5732C14.052 59.5732 14.3998 59.5037 14.7477 59.3993L14.3651 53.7645L14.9564 53.7297L15.3738 59.7471L15.1651 59.8167C14.7129 59.9906 14.2259 60.095 13.7042 60.095C13.4607 60.095 13.252 60.095 13.0433 60.095Z" fill="#5663F1"/>
<path d="M12.7998 54.2167C11.7911 54.1471 10.852 53.7645 10.1215 53.1384C9.1824 52.3384 8.62588 51.2602 8.5911 50.0776C8.55631 48.8602 9.04327 47.6428 9.9824 46.7732C10.8172 46.008 11.8954 45.5558 13.0781 45.5211C13.4607 45.5211 13.8085 45.5211 14.1563 45.5906L14.052 46.1124C13.7737 46.0428 13.4607 46.0428 13.1128 46.0428C12.1041 46.0776 11.165 46.4602 10.4346 47.1558C9.59979 47.9211 9.1824 48.9645 9.21718 50.0428C9.25197 51.0863 9.73892 52.0602 10.5737 52.721C11.3737 53.3819 12.3824 53.7298 13.4259 53.695C13.8085 53.695 14.1911 53.6254 14.5389 53.4863L14.7476 54.008C14.3302 54.1471 13.9128 54.2167 13.4607 54.2515C13.2172 54.2167 13.0085 54.2167 12.7998 54.2167Z" fill="#5663F1"/>
<path d="M12.5563 48.1298C11.6172 48.0602 10.7129 47.7124 9.98243 47.1211C8.97374 46.3558 8.38243 45.1732 8.31287 43.9558C8.2433 42.7732 8.69547 41.6602 9.56504 40.7906C10.3998 39.9558 11.5476 39.4341 12.765 39.3993C13.0781 39.3993 13.3563 39.3993 13.6694 39.4341L13.8781 39.4689L13.9129 39.6776L13.5998 39.7124L13.565 39.9906C13.3216 39.9558 13.0433 39.9558 12.7998 39.9558C11.7216 39.9906 10.7476 40.4428 9.98243 41.1732C9.21721 41.9385 8.8346 42.9124 8.86939 43.9558C8.90417 45.0341 9.46069 46.0428 10.3303 46.7385C11.0955 47.3298 12.0694 47.6428 13.1129 47.608C13.4607 47.608 13.7737 47.5384 14.0868 47.4689L14.2607 47.9906C13.9129 48.095 13.5303 48.1645 13.1476 48.1645C12.939 48.1645 12.765 48.1645 12.5563 48.1298Z" fill="#5663F1"/>
<path d="M12.2781 42.2863C11.2694 42.2167 10.3303 41.8341 9.56505 41.1732C8.62592 40.3732 8.06939 39.2949 8.03461 38.1123C7.99983 36.9297 8.452 35.7819 9.32157 34.9123C10.1564 34.0776 11.2694 33.5906 12.5216 33.5558C12.765 33.5558 13.0085 33.5558 13.252 33.5906L13.1824 34.1471C12.9737 34.1123 12.765 34.1123 12.5564 34.1123C11.4781 34.1471 10.5042 34.5645 9.77374 35.2949C9.00852 36.0602 8.59113 37.0341 8.6607 38.0776C8.69548 39.121 9.18244 40.0602 10.0172 40.7558C10.8172 41.4167 11.8259 41.7645 12.9042 41.7297C13.1824 41.7297 13.4607 41.695 13.739 41.6254L13.8085 41.9036L14.1216 41.8689L14.1564 42.1123L13.9129 42.1819C13.5998 42.2515 13.2868 42.2863 12.939 42.321C12.6955 42.321 12.4868 42.321 12.2781 42.2863Z" fill="#5663F1"/>
<path d="M12.0346 36.408C11.0259 36.3384 10.0868 35.9558 9.32157 35.3297C8.38244 34.5297 7.82592 33.4515 7.79114 32.2689C7.75636 31.0515 8.24331 29.8341 9.18244 28.9645C10.0172 28.1993 11.0955 27.7471 12.2781 27.7124C12.452 27.7124 12.6607 27.7124 12.8346 27.7124L12.7651 28.2689C12.6259 28.2689 12.452 28.2689 12.2781 28.2689C11.2694 28.3037 10.2955 28.6863 9.59983 29.3819C8.79983 30.1471 8.34766 31.1906 8.38244 32.2689C8.41723 33.3124 8.90418 34.2515 9.73897 34.9471C10.539 35.608 11.5477 35.9558 12.5911 35.9211C12.7998 35.9211 13.0433 35.8863 13.2868 35.8515L13.4259 36.3732C13.1477 36.4428 12.9042 36.4776 12.6259 36.4776C12.452 36.4428 12.2433 36.4428 12.0346 36.408Z" fill="#5663F1"/>
<path d="M11.7911 30.3558C10.852 30.2863 9.94764 29.9384 9.21721 29.3471C8.20851 28.5471 7.61721 27.3993 7.54764 26.1819C7.51286 24.9645 7.99982 23.7819 8.90416 22.9124C9.73895 22.1124 10.852 21.6602 12.0346 21.5906C12.1737 21.5906 12.2781 21.5906 12.4172 21.5906V22.1471C12.3129 22.1471 12.2085 22.1471 12.1042 22.1471C11.0607 22.1819 10.0868 22.5993 9.39112 23.295C8.59112 24.0602 8.17373 25.1037 8.20851 26.1471C8.24329 27.2254 8.79982 28.2341 9.66938 28.9297C10.4346 29.521 11.4433 29.8341 12.452 29.7993C12.6259 29.7993 12.7998 29.7645 12.9737 29.7297L13.0781 30.2515C12.8694 30.2863 12.6607 30.321 12.452 30.321C12.1737 30.3906 11.9998 30.3558 11.7911 30.3558Z" fill="#5663F1"/>
<path d="M11.0259 24.0254C10.2954 23.9558 9.56501 23.7471 8.93893 23.3645C7.65197 22.5993 6.85197 21.3123 6.78241 19.8515C6.67806 17.4515 8.69545 15.3993 11.2346 15.295C11.4781 15.295 11.7215 15.295 11.9302 15.3297L12.1737 15.3645L12.765 23.8515L12.5215 23.921C12.2085 23.9906 11.8954 24.0254 11.5824 24.0602C11.4433 24.0254 11.2346 24.0254 11.0259 24.0254ZM11.652 15.8515C11.5476 15.8515 11.4085 15.8515 11.3041 15.8515C9.07806 15.9558 7.30415 17.7297 7.40849 19.8515C7.47806 21.1036 8.17371 22.2515 9.28675 22.9124C9.98241 23.3297 10.7824 23.5384 11.6172 23.5036C11.8259 23.5036 11.9998 23.4689 12.2085 23.4341L12.1041 21.9384L11.652 15.8515Z" fill="#5663F1"/>
<path d="M48.3129 12.3732L11.4085 14.008L14.6781 60.4776L51.4433 58.5993C52.4868 58.5297 53.2868 57.6949 53.2172 56.721L50.2607 14.008C50.1911 13.0689 49.3563 12.3384 48.3129 12.3732Z" fill="#F96F6F" stroke="black" stroke-width="0.5" stroke-miterlimit="10"/>
<path d="M17.8433 13.7645L20.3476 60.1297L14.7128 60.4428L11.4781 14.0428L17.8433 13.7645Z" fill="white" stroke="black" stroke-width="0.5" stroke-miterlimit="10"/>
<path d="M48.2433 17.2428C48.1389 16.3384 47.7911 15.3645 46.9563 14.8428C46.3998 14.495 45.7041 14.3906 45.0781 14.3906C44.6607 14.3906 44.6607 15.0167 45.0781 14.9819C45.7041 14.9819 46.3302 15.0515 46.8172 15.4689C47.2346 15.8167 47.4433 16.3037 47.5476 16.7906C47.8259 17.9384 47.6868 19.121 47.652 20.2689C47.652 20.6515 48.2781 20.6863 48.3128 20.2689C48.2781 19.295 48.3476 18.2515 48.2433 17.2428Z" fill="white"/>
<path d="M24.765 43.2949L46.5389 42.1471L47.3737 54.1819L25.4259 55.5036L24.765 43.2949Z" fill="white" stroke="black" stroke-width="0.5" stroke-miterlimit="10"/>
<path d="M27.965 46.7732L43.7563 45.9384" stroke="black" stroke-width="0.5" stroke-miterlimit="10"/>
<path d="M28.6259 51.4688L44.3824 50.634" stroke="black" stroke-width="0.5" stroke-miterlimit="10"/>
<path d="M24.6607 2.84277C24.0347 2.46017 23.339 2.1819 22.6086 2.04277C22.3651 2.00799 22.1564 1.97321 21.9129 1.93842C20.7651 1.83408 19.652 2.00799 18.6433 2.42538C16.452 3.36451 14.852 5.41669 14.6086 7.92104C14.3999 10.2515 15.3738 12.408 17.0781 13.7645L25.9129 13.3471C26.4347 12.8602 26.852 12.2689 27.1999 11.6428C27.5825 10.9123 27.826 10.0776 27.9303 9.20799C28.1738 6.56451 26.8173 4.09495 24.6607 2.84277ZM25.2173 13.3819L17.5999 13.7645Z" fill="white"/>
<path d="M25.2173 13.3819L17.5999 13.7645M24.6607 2.84277C24.0347 2.46017 23.339 2.1819 22.6086 2.04277C22.3651 2.00799 22.1564 1.97321 21.9129 1.93842C20.7651 1.83408 19.652 2.00799 18.6433 2.42538C16.452 3.36451 14.852 5.41669 14.6086 7.92104C14.3999 10.2515 15.3738 12.408 17.0781 13.7645L25.9129 13.3471C26.4347 12.8602 26.852 12.2689 27.1999 11.6428C27.5825 10.9123 27.826 10.0776 27.9303 9.20799C28.1738 6.56451 26.8173 4.09495 24.6607 2.84277Z" stroke="black" stroke-width="0.5" stroke-miterlimit="10"/>
<path d="M14.539 8.16451L12.313 7.92104" stroke="black" stroke-width="0.5" stroke-miterlimit="10"/>
<path d="M15.339 5.72972L13.2521 4.86015" stroke="black" stroke-width="0.5" stroke-miterlimit="10"/>
<path d="M16.6608 3.78189L15.4086 2.00798" stroke="black" stroke-width="0.5" stroke-miterlimit="10"/>
<path d="M24.626 2.80799C23.9999 2.42538 23.3042 2.1819 22.539 2.04277C20.5912 2.70364 19.1303 4.47755 18.9216 6.66886C18.8521 7.32973 18.9216 7.95581 19.0955 8.54712L22.8521 7.22538L19.9303 10.2515C20.8347 11.4689 22.226 12.3384 23.8607 12.4776C25.1129 12.5819 26.2955 12.2689 27.2347 11.608C27.6173 10.8776 27.8607 10.0428 27.9303 9.13842C28.1738 6.49495 26.7825 4.06016 24.626 2.80799Z" fill="black" stroke="black" stroke-width="0.5" stroke-miterlimit="10"/>
<path d="M43.0955 2.04276C42.4694 1.66015 41.7738 1.38189 41.0433 1.20798C40.7999 1.17319 40.5912 1.10363 40.3477 1.10363C39.1999 0.964497 38.0868 1.13841 37.0781 1.5558C34.8868 2.46015 33.252 4.47754 32.9738 7.01667C32.7303 9.3471 33.7042 11.5036 35.3738 12.8949L44.2085 12.5819C44.7303 12.0949 45.1477 11.5384 45.4955 10.9123C45.8781 10.1819 46.1564 9.34711 46.2607 8.47754C46.539 5.83407 45.252 3.3645 43.0955 2.04276ZM43.5129 12.6167L35.8955 12.8949Z" fill="white"/>
<path d="M43.5129 12.6167L35.8955 12.8949M43.0955 2.04276C42.4694 1.66015 41.7738 1.38189 41.0433 1.20798C40.7999 1.17319 40.5912 1.10363 40.3477 1.10363C39.1999 0.964497 38.0868 1.13841 37.0781 1.5558C34.8868 2.46015 33.252 4.47754 32.9738 7.01667C32.7303 9.3471 33.7042 11.5036 35.3738 12.8949L44.2085 12.5819C44.7303 12.0949 45.1477 11.5384 45.4955 10.9123C45.8781 10.1819 46.1564 9.34711 46.2607 8.47754C46.539 5.83407 45.252 3.3645 43.0955 2.04276Z" stroke="black" stroke-width="0.5" stroke-miterlimit="10"/>
<path d="M43.4434 2.32103L44.6608 0.477554" stroke="black" stroke-width="0.5" stroke-miterlimit="10"/>
<path d="M45.3217 4.12973L47.026 2.63408" stroke="black" stroke-width="0.5" stroke-miterlimit="10"/>
<path d="M46.1216 6.39059L48.3477 5.90363" stroke="black" stroke-width="0.5" stroke-miterlimit="10"/>
<path d="M43.0955 2.04277C42.4694 1.66016 41.7738 1.38191 41.0433 1.20799C39.0607 1.83408 37.5651 3.57321 37.3216 5.76451C37.252 6.42538 37.2868 7.05146 37.4607 7.64277L41.252 6.42538L38.2607 9.3819C39.1303 10.6341 40.4868 11.5036 42.1216 11.6776C43.3738 11.8167 44.5564 11.5036 45.5303 10.9123C45.9129 10.1819 46.1912 9.34712 46.2955 8.47756C46.539 5.83408 45.252 3.36451 43.0955 2.04277Z" fill="black" stroke="black" stroke-width="0.5" stroke-miterlimit="10"/>
<path d="M31.0986 14.1472C32.2128 14.1455 33.1146 13.2409 33.1129 12.1267C33.1112 11.0125 32.2065 10.1107 31.0924 10.1125C29.9782 10.1142 29.0764 11.0188 29.0781 12.133C29.0798 13.2472 29.9845 14.149 31.0986 14.1472Z" fill="#5663F1" stroke="black" stroke-width="0.5" stroke-miterlimit="10"/>
<path d="M40.0694 19.4688C39.6868 20.7558 38.9564 22.0775 37.6346 23.121C36.3129 24.1645 34.3651 24.8949 31.5825 25.0341C28.3825 25.1732 26.226 24.3732 24.7651 23.1906C23.6173 22.2514 22.8868 21.0688 22.4347 19.8862C21.5651 17.5558 21.7738 15.3645 21.7738 15.3645L30.8868 14.9471L31.6868 14.9123L40.2781 14.5297C40.2781 14.4949 40.8346 16.9297 40.0694 19.4688Z" fill="black" stroke="black" stroke-width="0.5" stroke-miterlimit="10"/>
<path d="M33.5176 19.8862H22.6625C21.5028 17.5558 21.7811 15.3645 21.7811 15.3645L33.9351 14.9471L33.5176 19.8862Z" fill="white" stroke="black" stroke-width="0.5" stroke-miterlimit="10"/>
<path d="M40.0694 19.4688L32.3825 19.7123L31.6868 14.8775L40.2781 14.4949C40.2781 14.4949 40.8346 16.9297 40.0694 19.4688Z" fill="white" stroke="black" stroke-width="0.5" stroke-miterlimit="10"/>
<path d="M37.6346 23.0862C36.3129 24.1297 34.3651 24.8602 31.5825 24.9993C28.3825 25.1384 26.2259 24.3384 24.7651 23.1558C24.8346 23.0167 24.939 22.8775 25.0433 22.7384C25.739 21.9036 26.852 21.521 27.8955 21.3819C29.7042 21.1732 30.2259 22.0775 31.4433 23.0862C32.5216 19.921 35.9303 20.9645 37.6346 23.0862Z" fill="#E30611" stroke="black" stroke-width="0.5" stroke-miterlimit="10"/>
</svg>
