<svg width="61" height="61" viewBox="0 0 61 61" fill="none" xmlns="http://www.w3.org/2000/svg">
<path d="M42.284 7.72466L27.3932 3.38568L15.467 7.89482L2.80981 50.1786L37.6814 60.0051L49.1067 18.7706L42.284 7.72466ZM34.2159 11.9077C33.8233 13.3115 32.4155 14.1339 31.0617 13.7227C29.708 13.3115 28.9229 11.8509 29.3155 10.433C29.708 9.02919 31.1159 8.20677 32.4696 8.61798C33.8233 9.02919 34.5949 10.5039 34.2159 11.9077Z" fill="#ACBFFF" stroke="black" stroke-width="0.5" stroke-miterlimit="10"/>
<path d="M3.47314 47.7115L38.277 57.8216" stroke="black" stroke-width="0.5" stroke-miterlimit="10"/>
<path d="M58.1901 30.3837V31.8442C56.9447 32.0569 55.6722 31.83 54.4809 30.9083C51.584 28.6396 50.8665 24.1446 50.4333 20.6422C49.9189 16.5868 49.8513 12.1911 47.929 8.51861C47.1303 7.01556 46.0473 5.46998 44.4635 4.83189C42.5818 4.08037 40.2264 4.26471 38.3583 4.94533C36.8692 5.49834 35.529 6.53345 34.3783 7.65365C33.8775 8.13576 33.2954 8.7313 32.8757 9.38357C32.7945 9.51118 32.6456 9.59626 32.4967 9.58208C32.3884 9.58208 32.2801 9.55372 32.1718 9.51118C31.9823 9.44029 31.8063 9.31267 31.7115 9.12833C31.6303 8.98654 31.6439 8.78802 31.7386 8.64622C32.1718 7.9656 32.7268 7.35587 33.2412 6.83123C34.5273 5.54088 36.0299 4.39232 37.6949 3.69752C39.6443 2.88928 41.9456 2.71912 43.9897 3.18705C45.6412 3.55572 46.9679 4.60502 47.9831 5.98045C50.4604 9.32685 51.0425 13.5099 51.4757 17.6078C51.7058 19.7347 51.9089 21.8617 52.3962 23.9319C52.8159 25.7611 53.4521 27.7462 54.6975 29.15C55.7264 30.3695 56.9447 30.6389 58.1901 30.3837Z" fill="#E30611" stroke="black" stroke-width="0.5" stroke-miterlimit="10"/>
<path d="M32.0369 24.3641C32.7972 20.8918 34.5459 18.1204 36.4162 17.0532C37.1461 16.6391 37.8912 16.4798 38.6211 16.6391C41.191 17.1966 42.4075 21.5608 41.343 26.387C40.2786 31.2131 37.3286 34.6695 34.774 34.112C34.0897 33.9687 33.5119 33.5386 33.0405 32.9174C31.7023 31.2131 31.2614 27.916 32.0369 24.3641Z" fill="white" stroke="black" stroke-width="0.5" stroke-miterlimit="10"/>
<path d="M33.0102 32.9334C35.4888 33.1883 38.1651 30.162 39.0927 25.957C39.1231 25.8136 39.1535 25.6862 39.1839 25.5429L35.3368 24.4757L39.412 23.4563C39.5032 20.2389 38.3628 17.6267 36.4164 17.0374C34.546 18.1045 32.8125 20.876 32.037 24.3483C31.2615 27.9161 31.7025 31.2132 33.0102 32.9334Z" fill="black" stroke="black" stroke-width="0.5" stroke-miterlimit="10"/>
<path d="M43.7914 20.605L41.6017 20.4776" stroke="black" stroke-width="0.5" stroke-miterlimit="10"/>
<path d="M43.4568 18.805L41.4192 19.4262" stroke="black" stroke-width="0.5" stroke-miterlimit="10"/>
<path d="M14.0482 19.7134C14.8541 16.2411 16.6332 13.4697 18.534 12.3866C19.2639 11.9724 20.0242 11.7972 20.7389 11.9565C23.3087 12.4981 24.4644 16.8305 23.3391 21.6566C22.2139 26.4828 19.2182 29.9551 16.6484 29.4135C15.9641 29.2702 15.3863 28.856 14.9149 28.2508C13.6224 26.5465 13.2118 23.2653 14.0482 19.7134Z" fill="white" stroke="black" stroke-width="0.5" stroke-miterlimit="10"/>
<path d="M14.9149 28.2508C17.3935 28.4897 20.1154 25.4475 21.1038 21.2425C21.1342 21.0992 21.1646 20.9718 21.195 20.8284L17.3631 19.809L21.4536 18.7578C21.5904 15.5563 20.4651 12.96 18.534 12.3866C16.6484 13.4697 14.8693 16.2412 14.0482 19.7134C13.2118 23.2654 13.6224 26.5465 14.9149 28.2508Z" fill="black" stroke="black" stroke-width="0.5" stroke-miterlimit="10"/>
<path d="M14.2914 13.3898L16.2074 14.4092" stroke="black" stroke-width="0.5" stroke-miterlimit="10"/>
<path d="M15.6448 12.0522L16.9677 13.6291" stroke="black" stroke-width="0.5" stroke-miterlimit="10"/>
<path d="M23.0653 26.4985C22.5635 27.2471 23.1109 28.2824 24.3122 28.824C25.5135 29.3496 26.8973 29.1744 27.3991 28.4258C27.9009 27.6772 27.3535 26.6418 26.1522 26.1003C24.9661 25.5587 23.5823 25.7499 23.0653 26.4985Z" fill="#E30611" stroke="black" stroke-width="0.5" stroke-miterlimit="10"/>
<path d="M30.8005 44.1487C21.9664 45.2763 18.2103 35.1904 23.0846 36.4451C24.0068 36.6776 24.8851 36.8638 25.6318 37.0038C28.4426 37.5631 31.343 37.3405 34.0692 36.4272C34.8607 36.1532 35.8281 35.7876 36.9714 35.3764C41.1052 33.7766 39.3249 43.9404 30.4049 44.1937L30.8005 44.1487Z" fill="#5663F1" stroke="black" stroke-width="0.5" stroke-miterlimit="10"/>
<path d="M30.7138 43.2722C22.6717 44.2149 19.397 35.8832 23.7868 37.3211C28.0888 38.7587 30.3744 38.3514 30.3744 38.3514L29.935 38.3502C29.935 38.3502 32.2634 38.4028 36.3103 36.3452C40.4012 34.2418 38.3589 43.0181 30.2744 43.3169L30.7138 43.2722Z" fill="white" stroke="black" stroke-width="0.5" stroke-miterlimit="10"/>
<path d="M35.3883 36.7507L35.9027 41.3085" stroke="black" stroke-width="0.5" stroke-miterlimit="10"/>
<path d="M31.255 38.1675L31.6365 43.1392" stroke="black" stroke-width="0.5" stroke-miterlimit="10"/>
<path d="M27.3428 38.1583L27.3321 43.083" stroke="black" stroke-width="0.5" stroke-miterlimit="10"/>
<path d="M24.1807 37.4143L23.8206 41.3714" stroke="black" stroke-width="0.5" stroke-miterlimit="10"/>
</svg>
