<svg width="61" height="62" viewBox="0 0 61 62" fill="none" xmlns="http://www.w3.org/2000/svg">
<path d="M60.4977 19.8628C60.5782 25.6478 58.5259 31.1737 55.3872 36.1384C54.3007 37.9084 53.0532 39.5921 51.7253 41.2326C42.1078 53.0184 28.0236 60.9187 27.8224 61.005C27.7017 60.9187 25.569 58.717 25.4482 58.5874C25.6494 58.4579 39.6934 50.6439 49.3108 38.8582C50.6388 37.2608 51.846 35.5772 52.9325 33.8503C56.1115 28.8425 58.204 23.2734 58.1235 17.4452C58.043 13.2576 56.192 9.37222 53.013 7.08414C53.2142 7.17049 53.3751 7.3 53.5361 7.38635C57.0773 9.63125 60.4575 15.4594 60.4977 19.8628Z" fill="#F96F6F" stroke="black" stroke-width="0.5" stroke-miterlimit="10"/>
<path d="M58.1638 17.4452C58.0833 13.0417 55.9908 8.94045 52.4899 6.69555C47.7012 3.63039 39.4117 2.93965 29.7137 16.1069C29.7137 16.1069 21.6657 -3.4497 8.50701 1.94671C4.68416 3.50087 1.86732 6.95457 0.982032 11.2285C-3.5249 33.3322 25.0459 58.242 25.4483 58.6305C25.7702 58.4579 58.4857 40.1533 58.1638 17.4452Z" fill="#F96F6F" stroke="black" stroke-width="0.5" stroke-miterlimit="10"/>
<path d="M32.7318 23.4891C33.4158 19.5605 36.7156 16.8839 40.297 17.0997C40.6189 17.0997 40.9408 17.1429 41.2627 17.2293C45.2466 18.0063 47.8622 22.1076 47.1379 26.3816C46.4135 30.6555 42.5907 33.4616 38.6069 32.6846C38.285 32.6414 37.963 32.555 37.6813 32.4255C34.2207 31.1736 32.0477 27.3745 32.7318 23.4891Z" fill="white" stroke="black" stroke-width="0.5" stroke-miterlimit="10"/>
<path d="M50.1961 19.129C49.673 19.5607 49.3511 19.8197 48.3451 20.2083C47.5403 20.5105 46.8159 20.64 46.2526 20.7263" stroke="black" stroke-width="0.5" stroke-miterlimit="10"/>
<path d="M47.5403 15.7184C47.2184 16.1933 46.816 16.7545 46.2929 17.3589C45.6893 18.0065 45.0857 18.4382 44.6028 18.7836" stroke="black" stroke-width="0.5" stroke-miterlimit="10"/>
<path d="M43.9991 13.5166C43.9186 14.0779 43.7577 14.7254 43.476 15.4162C43.1541 16.2364 42.7919 16.884 42.47 17.4021" stroke="black" stroke-width="0.5" stroke-miterlimit="10"/>
<path d="M37.6411 32.3824C38.7276 31.1304 39.6934 29.3604 40.297 27.2018L35.8303 24.0935L41.0213 22.9279C41.1421 20.683 40.8604 18.6539 40.2568 17.0998C36.6351 16.8839 33.3757 19.6037 32.6916 23.4891C32.0477 27.3745 34.2207 31.1736 37.6411 32.3824Z" fill="black" stroke="black" stroke-width="0.5" stroke-miterlimit="10"/>
<path d="M10.0362 18.9993C10.7203 15.0707 14.02 12.3941 17.6014 12.61C17.9233 12.61 18.2453 12.6531 18.5672 12.7395C22.551 13.5166 25.1666 17.6178 24.4423 21.8918C23.718 26.1657 19.8951 28.9719 15.9113 28.1948C15.5894 28.1516 15.2675 28.0653 14.9858 27.9358C11.5251 26.6838 9.35212 22.9279 10.0362 18.9993Z" fill="white" stroke="black" stroke-width="0.5" stroke-miterlimit="10"/>
<path d="M9.03015 11.7896C9.35208 12.394 9.55328 12.7393 10.3983 13.5164C11.0422 14.1208 11.686 14.5093 12.1689 14.7684" stroke="black" stroke-width="0.5" stroke-miterlimit="10"/>
<path d="M12.6517 9.58806C12.7725 10.1493 12.9737 10.84 13.2956 11.5739C13.6577 12.3942 14.0602 13.0418 14.3821 13.5598" stroke="black" stroke-width="0.5" stroke-miterlimit="10"/>
<path d="M16.6759 8.89713C16.5954 9.45835 16.5149 10.1059 16.5149 10.883C16.5149 11.7464 16.6356 12.5235 16.7563 13.1279" stroke="black" stroke-width="0.5" stroke-miterlimit="10"/>
<path d="M14.9455 27.8926C16.032 26.6407 16.9977 24.8706 17.6014 22.7121L13.1347 19.6037L18.3257 18.4381C18.4464 16.1932 18.1647 14.1642 17.5611 12.61C13.9395 12.3941 10.68 15.1139 9.99589 18.9993C9.35204 22.9279 11.525 26.6838 14.9455 27.8926Z" fill="black" stroke="black" stroke-width="0.5" stroke-miterlimit="10"/>
<path d="M31.9682 42.102C29.4733 44.0447 26.2138 44.4764 23.2763 43.613C22.23 43.3108 21.1033 42.7927 20.0973 42.0588C18.5279 40.9364 17.3609 39.339 17.4012 37.2668C17.4816 35.3673 18.8096 34.8492 20.379 34.8492C21.7471 34.8492 23.3165 35.2809 24.2823 35.54C25.1273 35.7558 25.9321 35.9285 26.8174 35.8853C28.1856 35.799 29.4733 35.1514 30.8012 34.9787C31.0829 34.9356 31.3646 34.9356 31.6865 34.9787C32.6121 35.0219 33.6583 35.2809 34.2619 35.9285C36.0325 37.7849 33.3364 40.9795 31.9682 42.102Z" fill="black" stroke="black" stroke-width="0.5" stroke-miterlimit="10"/>
<path d="M31.9682 42.102C29.4733 44.0447 26.2138 44.4764 23.2763 43.613C22.23 43.3108 21.1033 42.7927 20.0973 42.0588C21.3045 40.2888 23.5177 39.1232 26.0126 39.1232C28.588 39.08 30.761 40.2888 31.9682 42.102Z" fill="#E30611" stroke="black" stroke-width="0.5" stroke-miterlimit="10"/>
<path d="M28.4604 26.2538L28.135 28.9884C28.135 28.9884 24.0674 28.1738 23.7963 30.443C23.5251 32.7123 28.2977 32.3631 28.2977 32.3631" fill="#F96F6F"/>
<path d="M28.4604 26.2538L28.135 28.9884C28.135 28.9884 24.0674 28.1738 23.7963 30.443C23.5251 32.7123 28.2977 32.3631 28.2977 32.3631" stroke="black" stroke-width="0.5" stroke-miterlimit="10"/>
</svg>
