<svg width="30" height="27" viewBox="0 0 30 27" fill="none" xmlns="http://www.w3.org/2000/svg">
<path fill-rule="evenodd" clip-rule="evenodd" d="M11.9412 0.773529H4.10956V2.73129H4.10953H2.17218H2.15161V4.68922H2.17218V4.90408H0.537903V12.7358H2.15161V14.479H4V16H6V18H8.02897L8.02988 18.3955H8.02539V20.3534H8.03439L8.03443 20.3723H10V22H11.9412V22.3105H12V24H13.8991V24.2684H15.8571V24H18V22.4588H19.8137V20.3723H21.7711V18.3944H23.6888L23.6888 16.4368V16.4367H25.6466V14.4788H25.6467V14.479H27.6046V12.5211H27.5692V12.3915H29.3442V4.55984H27.6046V2.73129H27.5692H25.6467V0.773529H17.815V2.73129H17.815H15.8571H15.8571V4.68922H15.8571V4.90408H13.8843V4.68922H13.8991V2.73129H13.8843H11.9412V0.773529ZM15.857 24.2686H13.8991V26.2265H15.857V24.2686Z" fill="#E30611"/>
<path d="M8.0254 4.69029H6.06748V6.64822H4.10956V8.60614V10.5641H6.06748V8.60614H8.0254V6.64822H9.98333V4.69029H8.0254Z" fill="white"/>
</svg>
