<svg width="121" height="121" viewBox="0 0 121 121" fill="none" xmlns="http://www.w3.org/2000/svg">
<path d="M83.2618 107.579C83.389 110.161 86.4994 110.675 87.7169 109.135C88.0326 108.717 88.213 108.188 88.138 107.564C87.9208 103.725 89.9804 90.2489 90.8151 86.5372C90.9053 86.2729 90.9279 85.9534 91.0182 85.6891C89.23 85.5237 87.6222 85.3367 86.1195 85.0103C85.0218 89.0704 83.0147 102.983 83.2017 107.079C83.2167 107.204 83.2393 107.392 83.2618 107.579Z" fill="black" stroke="black" stroke-width="0.8" stroke-miterlimit="10"/>
<path d="M80.9946 108.1L90.5453 107.843L90.8679 119.999L67.6366 120.192L67.5076 117.426C67.5076 117.426 68.9918 112.152 81.0592 113.567L80.9946 108.1Z" fill="#F96F6F" stroke="black" stroke-width="0.8" stroke-miterlimit="10"/>
<path d="M74.2188 113.503C68.411 114.339 67.5076 117.426 67.5076 117.426L67.6366 120.192L75.9612 120.128C75.7031 117.812 75.1868 115.625 74.2188 113.503Z" fill="white" stroke="black" stroke-width="0.8" stroke-miterlimit="10"/>
<path d="M90.7389 117.041L67.5076 117.426L67.6366 120.192L90.8679 119.999L90.7389 117.041Z" fill="white" stroke="black" stroke-width="0.8" stroke-miterlimit="10"/>
<path d="M81.1885 110.288V109.966L85.3185 109.837V110.159L81.1885 110.288Z" fill="white"/>
<path d="M85.3152 111.98L81.251 112.084L81.2576 112.342L85.3219 112.238L85.3152 111.98Z" fill="white"/>
<path d="M85.5123 110.223C85.6548 110.223 85.7704 110.108 85.7704 109.966C85.7704 109.823 85.6548 109.708 85.5123 109.708C85.3697 109.708 85.2542 109.823 85.2542 109.966C85.2542 110.108 85.3697 110.223 85.5123 110.223Z" fill="white" stroke="white" stroke-width="0.8" stroke-miterlimit="10"/>
<path d="M85.5762 112.346C85.7188 112.346 85.8344 112.231 85.8344 112.088C85.8344 111.946 85.7188 111.831 85.5762 111.831C85.4337 111.831 85.3181 111.946 85.3181 112.088C85.3181 112.231 85.4337 112.346 85.5762 112.346Z" fill="white" stroke="white" stroke-width="0.8" stroke-miterlimit="10"/>
<path d="M57.5388 108.487C57.5783 111.072 60.6695 111.691 61.9386 110.193C62.2682 109.786 62.4665 109.264 62.4127 108.637C62.326 104.793 64.8418 91.3946 65.8021 87.7134C65.9012 87.4523 65.9346 87.1338 66.0338 86.8727C64.2522 86.6467 62.6517 86.4052 61.161 86.028C59.9261 90.0485 57.4479 103.885 57.4958 107.985C57.5065 108.111 57.5226 108.299 57.5388 108.487Z" fill="black" stroke="black" stroke-width="0.8" stroke-miterlimit="10"/>
<path d="M55.1719 108.1L64.7225 107.843L65.0452 119.999L41.8139 120.192L41.6848 117.426C41.6848 117.426 43.169 112.152 55.2364 113.567L55.1719 108.1Z" fill="#F96F6F" stroke="black" stroke-width="0.8" stroke-miterlimit="10"/>
<path d="M48.3961 113.503C42.5883 114.339 41.6848 117.426 41.6848 117.426L41.8139 120.192L50.1384 120.128C49.8803 117.812 49.3641 115.625 48.3961 113.503Z" fill="white" stroke="black" stroke-width="0.8" stroke-miterlimit="10"/>
<path d="M64.9161 117.041L41.6848 117.426L41.8139 120.192L65.0452 119.999L64.9161 117.041Z" fill="white" stroke="black" stroke-width="0.8" stroke-miterlimit="10"/>
<path d="M55.3655 110.288L55.3655 109.966L59.4955 109.837L59.4955 110.159L55.3655 110.288Z" fill="white"/>
<path d="M59.4922 111.98L55.428 112.084L55.4346 112.342L59.4989 112.238L59.4922 111.98Z" fill="white"/>
<path d="M59.6893 110.223C59.8318 110.223 59.9474 110.108 59.9474 109.966C59.9474 109.823 59.8318 109.708 59.6893 109.708C59.5467 109.708 59.4312 109.823 59.4312 109.966C59.4312 110.108 59.5467 110.223 59.6893 110.223Z" fill="white" stroke="white" stroke-width="0.8" stroke-miterlimit="10"/>
<path d="M59.7532 112.346C59.8958 112.346 60.0114 112.231 60.0114 112.088C60.0114 111.946 59.8958 111.831 59.7532 111.831C59.6107 111.831 59.4951 111.946 59.4951 112.088C59.4951 112.231 59.6107 112.346 59.7532 112.346Z" fill="white" stroke="white" stroke-width="0.8" stroke-miterlimit="10"/>
<path d="M41.6419 60.1713L41.6418 60.1711C41.2848 59.0632 40.3301 58.0915 39.1936 57.2063C38.2379 56.4618 37.1009 55.74 35.9773 55.0268C35.7551 54.8857 35.5334 54.745 35.3137 54.6045C33.9694 53.7446 32.699 52.8919 31.7644 51.9922C30.88 51.1408 30.3517 50.2998 30.2941 49.4258L30.2978 49.4222V49.2574C30.2978 48.326 30.8352 47.4346 31.7733 46.5315C32.7079 45.6318 33.9783 44.7792 35.3226 43.9192C35.5423 43.7787 35.7641 43.638 35.9863 43.4969C37.1098 42.7837 38.2468 42.0619 39.2025 41.3175C40.3389 40.4322 41.2936 39.4605 41.6507 38.3526L41.6508 38.3525C42.0176 37.2128 41.8263 35.8385 41.4318 34.4292C41.0865 33.1953 40.5662 31.873 40.0561 30.5767C39.9799 30.3829 39.9039 30.1897 39.8287 29.9974C39.2448 28.5042 38.712 27.0693 38.4721 25.8025C38.2307 24.5282 38.3045 23.5174 38.8204 22.8011C39.3428 22.0785 40.2781 21.6924 41.5569 21.5282C42.8292 21.3648 44.3497 21.4321 45.9396 21.5321C46.1575 21.5458 46.3768 21.5601 46.5966 21.5744C47.9643 21.6638 49.3566 21.7547 50.6116 21.7088C52.0584 21.6558 53.4104 21.4204 54.3639 20.7201C55.3086 20.0264 55.939 18.8051 56.4291 17.4367C56.8484 16.2662 57.1855 14.9252 57.5176 13.604C57.5766 13.3692 57.6355 13.135 57.6946 12.9026C58.0906 11.346 58.4991 9.86432 59.0516 8.69181C59.6071 7.5129 60.2694 6.73099 61.1247 6.45109L61.1248 6.45104C61.9395 6.18409 62.899 6.42651 64.0185 7.05674C65.1302 7.68265 66.3132 8.64121 67.5402 9.667C67.6791 9.78316 67.8186 9.90016 67.9585 10.0175C69.0416 10.9261 70.1509 11.8567 71.234 12.5845C72.4494 13.4011 73.6994 14.0109 74.9066 14.0109C76.1135 14.0109 77.364 13.4025 78.5801 12.5876C79.6634 11.8617 80.7731 10.9337 81.8567 10.0275C81.9973 9.90989 82.1374 9.79269 82.277 9.67636C83.5051 8.65283 84.6891 7.69645 85.8017 7.07214C86.922 6.44356 87.8823 6.20191 88.6973 6.46897L88.6974 6.46902C89.5526 6.74889 90.2143 7.53069 90.7692 8.70957C91.321 9.88208 91.7287 11.3638 92.1241 12.9204C92.1825 13.1503 92.2406 13.3818 92.2989 13.614C92.6313 14.9378 92.9687 16.2818 93.3892 17.4547C93.8799 18.8232 94.5113 20.0445 95.4584 20.7382C96.4119 21.4384 97.7639 21.6738 99.2105 21.7267C100.465 21.7727 101.858 21.6817 103.225 21.5924C103.445 21.578 103.665 21.5637 103.882 21.55C105.472 21.45 106.993 21.3827 108.265 21.5461C109.544 21.7103 110.48 22.0966 111.002 22.8194C111.518 23.5356 111.591 24.5463 111.35 25.8205C111.11 27.0872 110.577 28.5221 109.993 30.0154C109.918 30.2076 109.842 30.4009 109.766 30.5947C109.256 31.8909 108.736 33.2132 108.39 34.4471C107.996 35.8564 107.804 37.2307 108.171 38.3704L108.171 38.3706C108.528 39.4784 109.483 40.4501 110.62 41.3354C111.575 42.0799 112.712 42.8016 113.836 43.5149C114.058 43.6559 114.28 43.7967 114.499 43.9372C115.844 44.7971 117.114 45.6497 118.049 46.5494C118.987 47.4525 119.524 48.3439 119.524 49.2753C119.524 50.2068 118.987 51.0981 118.049 52.0012C117.114 52.9009 115.844 53.7536 114.499 54.6135C114.28 54.754 114.058 54.8947 113.836 55.0358C112.712 55.749 111.575 56.4708 110.62 57.2152C109.483 58.1005 108.528 59.0722 108.171 60.1801L108.171 60.1802C107.804 61.3199 107.996 62.6942 108.39 64.1035C108.736 65.3374 109.256 66.6597 109.766 67.956C109.842 68.1498 109.918 68.343 109.993 68.5353C110.577 70.0285 111.11 71.4634 111.35 72.7302C111.591 74.0045 111.518 75.0153 111.002 75.7316C110.479 76.4542 109.544 76.8403 108.265 77.0045C106.993 77.1679 105.472 77.1006 103.882 77.0006C103.665 76.9869 103.445 76.9726 103.226 76.9583C101.858 76.8689 100.466 76.778 99.2105 76.8239C97.7638 76.8769 96.4117 77.1123 95.4582 77.8126C94.5135 78.5063 93.8831 79.7276 93.393 81.096C92.9737 82.2665 92.6366 83.6075 92.3045 84.9287C92.2455 85.1635 92.1866 85.3977 92.1275 85.6301C91.7315 87.1867 91.323 88.6684 90.7705 89.8409C90.2151 91.0195 89.553 91.8013 88.698 92.0814C87.8829 92.3467 86.9222 92.1039 85.8018 91.4748C84.6891 90.85 83.505 89.8938 82.2769 88.8709C82.1384 88.7555 81.9993 88.6392 81.8598 88.5226C80.7752 87.6161 79.6644 86.6877 78.58 85.9617C77.3638 85.1475 76.1134 84.5398 74.9066 84.5398C73.6997 84.5398 72.4492 85.1482 71.2331 85.9631C70.1497 86.689 69.04 87.6171 67.9563 88.5233C67.8158 88.6408 67.6757 88.758 67.5362 88.8743C66.3082 89.8978 65.1241 90.8542 64.0115 91.4785C62.8912 92.1071 61.9309 92.3487 61.1159 92.0817L61.1158 92.0816C60.2606 91.8018 59.5989 91.02 59.044 89.8411C58.4922 88.6686 58.0845 87.1869 57.6891 85.6303C57.6307 85.4003 57.5726 85.1688 57.5143 84.9366C57.1819 83.6128 56.8445 82.2688 56.424 81.0959C55.9333 79.7273 55.3018 78.506 54.3546 77.8123M41.6419 60.1713L38.8115 75.7226C39.3339 76.4453 40.2693 76.8314 41.548 76.9957C42.8204 77.1592 44.3409 77.0922 45.9309 76.9928C46.1465 76.9793 46.3635 76.9652 46.581 76.9511C47.9509 76.8622 49.3459 76.7716 50.603 76.8187C52.0495 76.873 53.4012 77.11 54.3546 77.8123M41.6419 60.1713C42.0087 61.311 41.8174 62.6853 41.4229 64.0946C41.0776 65.3284 40.5573 66.6507 40.0473 67.947C39.971 68.1408 39.895 68.334 39.8198 68.5263C39.2359 70.0196 38.7031 71.4545 38.4632 72.7212C38.2219 73.9953 38.2956 75.006 38.8112 75.7222L41.6419 60.1713ZM54.3546 77.8123L54.1183 78.135L54.3556 77.813C54.3553 77.8128 54.3549 77.8126 54.3546 77.8123Z" fill="#ACBFFF" stroke="black" stroke-width="0.8"/>
<path d="M77.7125 37.799C78.0375 32.8006 79.5991 28.5911 81.6801 26.7068C82.5044 25.9844 83.3497 25.5684 84.2266 25.612C87.4272 25.8071 89.6215 31.5595 89.2252 38.5123C88.8253 45.414 85.8605 50.8979 82.7111 50.6993C81.8853 50.6523 81.0827 50.1932 80.4161 49.4685C78.522 47.3385 77.3946 42.8996 77.7125 37.799Z" fill="white" stroke="black" stroke-width="0.8" stroke-miterlimit="10"/>
<path d="M80.4111 49.4176C83.4297 49.2145 86.1326 44.4154 86.4897 38.3889C86.4757 38.1846 86.5128 37.9769 86.5023 37.8237L81.6811 37.2247L86.4047 34.9061C85.9426 30.4225 84.1182 27.0567 81.6785 26.7078C79.5978 28.5921 78.04 32.8525 77.7116 37.7996C77.3936 42.9 78.5208 47.3388 80.4111 49.4176Z" fill="black" stroke="black" stroke-width="0.8" stroke-miterlimit="10"/>
<path d="M56.7313 36.5021C57.0563 31.5037 58.6179 27.2943 60.6989 25.4099C61.5232 24.6875 62.3686 24.2715 63.2455 24.3151C66.4461 24.5102 68.6404 30.2626 68.244 37.2154C67.8441 44.1172 64.8793 49.601 61.7299 49.4025C60.9041 49.3554 60.1015 48.8964 59.4349 48.1716C57.5408 46.0417 56.4134 41.6027 56.7313 36.5021Z" fill="white" stroke="black" stroke-width="0.8" stroke-miterlimit="10"/>
<path d="M59.4336 48.172C62.4521 47.9689 65.155 43.1698 65.5122 37.1433C65.4981 36.9391 65.5353 36.7313 65.5248 36.5781L60.7036 35.9791L65.4272 33.6604C64.9651 29.1769 63.1406 25.8111 60.7009 25.4622C58.6202 27.3465 57.0625 31.6069 56.734 36.554C56.4126 41.6033 57.5398 46.0421 59.4336 48.172Z" fill="black" stroke="black" stroke-width="0.8" stroke-miterlimit="10"/>
<path d="M73.7845 40.6838L73.6313 42.9515C73.6313 42.9515 73.4266 42.9653 73.3719 42.9177C72.0815 42.8507 70.5493 43.0053 70.3506 44.6091C70.1695 46.4683 72.2697 47.0963 73.6681 46.489" fill="#ACBFFF"/>
<path d="M73.7845 40.6838L73.6313 42.9515C73.6313 42.9515 73.4266 42.9653 73.3719 42.9177C72.0815 42.8507 70.5493 43.0053 70.3506 44.6091C70.1695 46.4683 72.2697 47.0963 73.6681 46.489" stroke="black" stroke-width="0.8" stroke-miterlimit="10"/>
<path d="M75.4743 58.6265C74.5448 60.0744 73.3278 61.08 71.6277 61.0407C69.9787 60.9979 68.8812 59.9944 68.114 58.5581C66.1583 54.7905 66.6759 48.0855 66.6759 48.0855L70.2844 48.2014L74.8216 48.3574L77.9659 48.4533C77.9694 48.5044 77.7962 54.981 75.4743 58.6265Z" fill="black" stroke="black" stroke-width="0.8" stroke-miterlimit="10"/>
<path d="M75.5064 58.3669C74.5839 59.9172 73.3226 61.0285 71.6223 60.9891C69.9732 60.9463 68.872 59.8916 68.0978 58.3531C68.3021 56.0815 70.0882 54.3704 72.1062 54.5423C73.9671 54.6734 75.4176 56.3203 75.5064 58.3669Z" fill="#E30611" stroke="black" stroke-width="0.8" stroke-miterlimit="10"/>
<path d="M66.4802 45.9997C66.8907 46.7414 67.8385 48.5755 67.7542 51.0947C67.6292 53.7705 66.4182 55.5962 65.8976 56.2469" fill="#ACBFFF"/>
<path d="M66.4802 45.9997C66.8907 46.7414 67.8385 48.5755 67.7542 51.0947C67.6292 53.7705 66.4182 55.5962 65.8976 56.2469" stroke="black" stroke-width="0.8" stroke-miterlimit="10"/>
<path d="M78.3814 46.2194C77.9702 46.9653 77.0701 48.8213 77.1903 51.3266C77.321 53.9851 78.5751 55.7984 79.0842 56.4822" fill="#ACBFFF"/>
<path d="M78.3814 46.2194C77.9702 46.9653 77.0701 48.8213 77.1903 51.3266C77.321 53.9851 78.5751 55.7984 79.0842 56.4822" stroke="black" stroke-width="0.8" stroke-miterlimit="10"/>
<path d="M40.6573 58.5521C41.162 58.955 41.7816 60.9464 41.7816 60.9464C41.7816 60.9464 40.6881 61.3967 39.2037 61.8476C35.2051 62.9314 31.26 61.9601 28.0874 59.3372C25.0423 56.8065 22.9738 53.3339 21.1137 49.8956C20.2127 48.2169 19.3408 46.5785 18.5612 44.8131C18.2005 43.9707 17.8397 43.1283 17.479 42.286C17.0716 41.2936 16.7047 40.2723 16.3263 39.3203C16.3263 39.3203 16.2973 39.2799 16.2683 39.2395C15.9365 38.4376 15.6048 37.6356 15.3021 36.874C14.8253 35.8701 15.529 34.6341 16.5126 34.2982C17.5772 33.9045 18.6901 34.5152 19.0975 35.5076C19.3536 36.1192 19.6211 36.6614 19.8366 37.3019C20.273 38.3347 20.698 39.4367 21.094 40.4984C21.519 41.6004 21.973 42.7429 22.508 43.8275C23.2523 45.3736 24.1128 47.0813 24.8801 48.4889C26.5017 51.4252 28.3494 54.5055 31.0056 56.5807C33.4066 58.4713 34.7174 59.4475 37.7025 58.232C39.8835 57.3465 39.2226 57.606 39.2226 57.606C39.2226 57.606 39.7807 57.8524 40.6573 58.5521Z" fill="black"/>
<path d="M12.4932 40.3524C12.4932 40.3524 -1.64338 27.5812 2.61443 24.0621C2.61443 24.0621 4.19737 22.9315 5.69441 24.0137C5.69441 24.0137 5.22496 19.8072 8.99441 20.9396C11.3437 21.6521 11.9348 26.2497 11.9348 26.2497C12.0093 25.7981 12.5519 25.3309 12.8833 25.0144C13.7195 24.1782 14.6693 23.4998 15.7705 23.0321C17.3695 22.3681 19.6568 22.328 20.5815 24.058C20.6193 24.1106 20.6572 24.1633 20.6423 24.2536C21.31 25.8483 19.7891 27.7314 18.0822 27.3569C16.8662 27.1099 15.4243 27.1039 14.4826 28.0155C13.1945 29.3339 13.8932 31.3049 15.5026 31.9881C17.4596 32.8213 20.348 31.3959 20.4383 27.7458C20.4372 27.1889 20.2926 26.6547 20.4726 26.1277C20.7204 25.4727 21.5578 25.1933 22.1474 25.569C24.1733 26.8312 26.7902 32.691 20.3345 35.7082" fill="white"/>
<path d="M12.4932 40.3524C12.4932 40.3524 -1.64338 27.5812 2.61443 24.0621C2.61443 24.0621 4.19737 22.9315 5.69441 24.0137C5.69441 24.0137 5.22496 19.8072 8.99441 20.9396C11.3437 21.6521 11.9348 26.2497 11.9348 26.2497C12.0093 25.7981 12.5519 25.3309 12.8833 25.0144C13.7195 24.1782 14.6693 23.4998 15.7705 23.0321C17.3695 22.3681 19.6568 22.328 20.5815 24.058C20.6193 24.1106 20.6572 24.1633 20.6423 24.2536C21.31 25.8483 19.7891 27.7314 18.0822 27.3569C16.8662 27.1099 15.4243 27.1039 14.4826 28.0155C13.1945 29.3339 13.8932 31.3049 15.5026 31.9881C17.4597 32.8213 20.348 31.3959 20.4383 27.7458C20.4372 27.1889 20.2926 26.6547 20.4726 26.1277C20.7204 25.4727 21.5578 25.1933 22.1474 25.569C24.1733 26.8312 26.7902 32.691 20.3345 35.7082" stroke="black" stroke-width="0.8" stroke-miterlimit="10"/>
<path d="M5.65729 23.9659L8.17201 28.462" stroke="black" stroke-width="0.8" stroke-miterlimit="10"/>
<path d="M18.339 37.0468L20.3675 35.7574C23.0523 34.1586 28.5244 36.5467 19.2698 41.5626C9.97744 46.5259 12.5541 40.2222 12.5541 40.2222C12.9086 40.0487 13.4065 39.8525 13.8288 39.5509C14.2361 39.3397 14.6055 39.0758 14.8843 38.797" fill="white"/>
<path d="M18.339 37.0468L20.3675 35.7574C23.0523 34.1586 28.5244 36.5467 19.2698 41.5626C9.97744 46.5259 12.5541 40.2222 12.5541 40.2222C12.9086 40.0487 13.4065 39.8525 13.8288 39.5509C14.2361 39.3397 14.6055 39.0758 14.8843 38.797" stroke="black" stroke-width="0.8" stroke-miterlimit="10"/>
<path d="M43.2583 15.3654L46.0826 17.0424C46.2028 16.9227 48.8469 14.2873 48.8469 14.2873C54.5557 9.13625 67.4756 -0.147543 82.9193 5.24305C90.2506 7.75865 96.2598 13.269 100.406 18.1206C101.187 19.019 101.909 19.9174 102.57 20.756C103.771 22.2533 104.733 23.6309 105.454 24.7091L108.218 23.2117C104.613 17.9409 96.2598 7.21959 83.7005 2.84723C64.2906 -3.86106 49.0873 9.49562 44.4001 14.2274C43.9193 14.7065 43.5588 15.1258 43.2583 15.3654Z" fill="#E30611" stroke="black" stroke-width="0.8" stroke-miterlimit="10"/>
<path d="M45.6617 41.0604C47.164 40.9406 48.6062 40.4615 49.8682 39.6828C49.9283 39.6828 49.9283 39.6229 49.9884 39.6229V15.6049V14.8262C49.9283 14.8262 49.9283 14.7663 49.8682 14.7663C49.087 14.407 48.3058 14.1674 47.4645 14.0476C46.8636 13.9877 46.2626 13.9278 45.6016 13.9877C39.5924 14.407 34.7249 20.8158 34.785 28.2428C34.785 35.7896 39.6525 41.4797 45.6617 41.0604Z" fill="#E30611" stroke="black" stroke-width="0.8" stroke-miterlimit="10"/>
<path d="M104.432 44.7739C103.771 44.8338 103.17 44.8338 102.569 44.714C101.968 44.6541 101.367 44.4744 100.767 44.2948C100.646 33.3339 100.466 23.0918 100.406 18.8991C101.608 18.2403 102.93 17.821 104.252 17.7611C110.321 17.2819 115.309 22.972 115.369 30.399C115.369 37.8261 110.502 44.2948 104.432 44.7739Z" fill="#E30611" stroke="black" stroke-width="0.8" stroke-miterlimit="10"/>
<path d="M100.358 62.6314L93.6271 58.6244L89.9556 64.1103L88.4635 66.4023L87.393 68.0214L78.9795 80.6123L78.6506 85.2236L78.4216 88.4351C79.4098 87.9689 80.4039 87.4203 81.3922 86.9541L85.528 84.8542L94.0801 72.0665L95.1505 70.4474L96.6427 68.1554L100.358 62.6314Z" fill="#5663F1" stroke="black" stroke-width="0.8" stroke-miterlimit="10"/>
<path d="M78.9721 80.6147L81.246 79.58L81.1849 82.1822L83.6975 80.7098L83.4153 83.5028L85.5624 82.5003L85.5189 84.8555L78.4585 88.3972L78.9721 80.6147Z" fill="white" stroke="black" stroke-width="0.8" stroke-miterlimit="10"/>
<path d="M78.6854 85.1874C78.8122 85.1552 79.6734 84.7213 80.5142 85.1548C81.4317 85.6766 81.4321 86.8351 81.4262 86.9174C80.4382 87.3835 79.4444 87.9319 78.4564 88.398L78.6854 85.1874Z" fill="black" stroke="black" stroke-width="0.8" stroke-miterlimit="10"/>
<path d="M81.2121 79.6185L94.8237 59.3728" stroke="black" stroke-width="0.8" stroke-miterlimit="10"/>
<path d="M83.657 80.8282L96.9321 60.6411" stroke="black" stroke-width="0.8" stroke-miterlimit="10"/>
<path d="M85.5644 82.5785L99.1284 61.833" stroke="black" stroke-width="0.8" stroke-miterlimit="10"/>
<path d="M94.3323 57.6367C94.3323 57.6367 96.6077 53.6654 100.156 55.702C103.743 57.7827 101.06 61.6417 101.06 61.6417L94.3323 57.6367Z" fill="#FF1F33" stroke="black" stroke-width="0.8" stroke-miterlimit="10"/>
<path d="M98.2329 56.5154C97.386 56.1642 96.2384 56.536 95.5896 57.4821C95.451 57.679 95.2149 57.4963 95.3536 57.2994C96.0967 56.1946 97.498 55.7584 98.4216 56.198C98.5868 56.21 98.4365 56.5716 98.2329 56.5154Z" fill="white"/>
<path d="M98.6717 56.753C98.5121 56.6585 98.7454 56.3025 98.8991 56.4794C99.1029 56.5357 98.8697 56.8917 98.6717 56.753Z" fill="white"/>
<path d="M93.6394 58.6223L100.405 62.6707L101.059 61.6429L94.332 57.6387L93.6394 58.6223Z" fill="black" stroke="black" stroke-width="0.8" stroke-miterlimit="10"/>
<path d="M92.9541 74.0547C93.2071 74.195 93.4601 74.3354 93.7131 74.4757C95.5191 75.3949 97.3252 76.314 99.2014 77.1071C100.726 77.7878 102.237 78.4195 103.734 79.0021C104.036 79.1285 104.387 79.2408 104.689 79.3672C108.097 80.6798 112.489 82.0842 116.035 80.5451C121.512 78.1383 118.437 70.9468 116.397 67.1755C114.131 62.9906 112.234 62.1328 108.831 58.802L108.122 60.6807L108.123 62.8081C109.79 64.7222 111.465 67.039 112.682 69.2401C113.266 70.3476 113.815 71.5182 114.251 72.6677C114.568 73.5859 114.991 74.6863 114.9 75.6673C114.914 75.7163 114.802 76.0666 114.816 76.1157C114.781 76.1787 114.746 76.2417 114.746 76.2417C114.711 76.3048 114.592 76.4448 114.542 76.4588L114.493 76.4728C114.226 76.6548 113.524 76.8015 113.215 76.8363C112.161 76.8706 111.065 76.7578 109.976 76.4838C107.651 75.9777 105.283 74.953 103.055 74.0476C102.149 73.6686 101.306 73.3246 100.448 72.9316C99.4646 72.4685 98.4808 72.0054 97.497 71.5422C96.7521 71.1703 96.0072 70.7984 95.3115 70.4126C94.8132 71.0849 94.3642 71.7433 93.9784 72.4368C93.6136 73.0181 93.2839 73.5364 92.9541 74.0547Z" fill="black"/>
<path d="M100.907 70.8776C100.53 70.7762 100.501 69.9497 100.454 69.5456C100.258 67.1671 98.2222 65.1721 96.7766 64.2613C96.1966 63.9393 94.3641 62.6515 93.2239 63.045C90.7502 63.8869 93.4782 67.5631 94.2985 68.7211C93.6267 68.5642 93.4794 68.5365 93.3322 68.5088C93.0377 68.4533 92.7248 68.3336 92.3659 68.2964C91.8229 68.1029 91.234 67.992 90.6909 67.7986C89.3747 67.3379 88.1688 66.7763 86.8526 66.3156C85.9966 66.0024 84.616 65.56 83.8257 66.2019C83.2559 66.6419 83.3489 67.4501 83.4694 68.1114C83.4694 68.1114 83.4694 68.1114 83.4879 68.1757C83.4879 68.1757 80.7841 68.9438 82.7472 71.655C82.4438 71.8107 82.122 71.9022 82.0028 72.2142C81.4706 73.2696 82.7606 74.8505 83.3872 75.5767C84.9628 77.4242 87.2191 79.2175 89.4008 80.2669C91.2511 81.1322 93.2755 81.3917 95.2896 80.8891C95.6758 80.7794 96.0621 80.6696 96.4483 80.5599C96.7702 80.4684 97.34 80.0284 97.6345 80.0838C97.6345 80.0838 97.7639 80.5339 97.7824 80.5982C97.9577 80.9657 98.1973 81.3149 98.4829 81.5815C99.1553 82.2251 100.186 82.4192 101.013 81.9059C102.254 81.1361 102.593 79.6489 102.922 78.3729C103.307 76.8032 103.857 75.3255 104.324 73.8017C105.79 69.2122 102.203 70.3007 101.725 70.5756C100.953 70.7951 101.118 70.8871 100.907 70.8776Z" fill="white" stroke="black" stroke-width="0.8" stroke-miterlimit="10"/>
<path d="M91.6354 72.0615C91.6354 72.0615 86.2699 70.5951 83.4514 68.0574" stroke="black" stroke-width="0.8" stroke-miterlimit="10"/>
<path d="M82.6417 71.5541C82.6417 71.5541 86.6013 74.6714 89.7395 75.6575" stroke="black" stroke-width="0.8" stroke-miterlimit="10"/>
<path d="M100.812 70.7605L100.207 72.5314" stroke="black" stroke-width="0.8" stroke-miterlimit="10"/>
<path d="M98.0879 78.2754L97.6579 79.927" stroke="black" stroke-width="0.8" stroke-miterlimit="10"/>
</svg>
