<svg width="117" height="121" viewBox="0 0 117 121" fill="none" xmlns="http://www.w3.org/2000/svg">
    <g clip-path="url(#clip0_755_5574)">
        <path d="M88.2654 85.0628C87.806 85.523 87.4122 86.049 86.9527 86.5749C85.837 87.8897 77.8821 96.0925 76.7663 97.5388C73.8128 101.418 70.7936 105.691 68.6933 109.372C68.5621 109.57 68.4308 109.701 68.2995 109.898C66.5274 111.805 62.8519 109.701 64.2958 107.203C64.4271 106.94 64.5584 106.743 64.6896 106.48C66.7899 102.93 69.0871 99.2481 71.5812 95.8295C72.5657 94.4489 73.6159 93.0683 74.666 91.7535C75.5849 90.5701 83.4085 82.5646 84.4586 81.447C84.5243 81.3812 84.5899 81.3155 84.6555 81.2498L84.5899 81.5127C84.7212 81.71 87.5434 84.4054 88.2654 85.0628Z" fill="black" stroke="black" stroke-width="0.8" stroke-miterlimit="10"/>
        <path d="M61.9888 105.371L70.5371 108.986L65.9313 119.865L45.3123 110.689L46.311 108.191C46.311 108.191 49.7454 104.125 59.8462 110.231L61.9888 105.371Z" fill="#F96F6F" stroke="black" stroke-width="0.8" stroke-miterlimit="10"/>
        <path d="M53.8237 107.423C48.3519 105.825 46.3109 108.192 46.3109 108.192L45.3122 110.689L52.6988 113.982C53.4022 111.83 53.8256 109.689 53.8237 107.423Z" fill="white" stroke="black" stroke-width="0.8" stroke-miterlimit="10"/>
        <path d="M67.0075 117.197L46.3108 108.191L45.3122 110.689L65.9311 119.865L67.0075 117.197Z" fill="white" stroke="black" stroke-width="0.8" stroke-miterlimit="10"/>
        <path d="M61.2798 107.384L61.4094 107.099L65.1131 108.647L64.9835 108.931L61.2798 107.384Z" fill="white"/>
        <path d="M64.248 110.54L60.6123 108.997L60.5146 109.228L64.1503 110.771L64.248 110.54Z" fill="white"/>
        <path d="M65.1287 109.066C65.2548 109.124 65.4034 109.068 65.4606 108.942C65.5179 108.817 65.4621 108.668 65.3361 108.611C65.21 108.553 65.0614 108.609 65.0042 108.735C64.9469 108.861 65.0027 109.009 65.1287 109.066Z" fill="white" stroke="white" stroke-width="0.8" stroke-miterlimit="10"/>
        <path d="M64.3315 110.969C64.4575 111.026 64.6061 110.971 64.6634 110.845C64.7207 110.719 64.6649 110.571 64.5388 110.513C64.4128 110.456 64.2642 110.511 64.2069 110.637C64.1497 110.763 64.2054 110.912 64.3315 110.969Z" fill="white" stroke="white" stroke-width="0.8" stroke-miterlimit="10"/>
        <path d="M84.5174 104.062C84.3862 104.062 84.3205 104.062 84.1893 104.062C80.2512 103.931 76.3132 103.142 72.4408 102.024C72.0469 101.893 71.6531 101.761 71.2593 101.63C70.0123 101.235 68.8309 100.841 67.6494 100.447C67.2556 100.315 66.8618 100.184 66.468 100.052C66.3368 99.9863 66.2055 99.9863 66.0742 99.9206C61.4798 98.1455 57.6074 94.9242 57.2136 89.6648C57.0167 86.3776 58.1981 83.6165 60.1671 81.2498C61.3486 82.4989 62.53 83.6165 63.5801 84.6684C62.8582 85.6545 62.3331 86.7721 62.1362 87.9555C61.2829 92.4917 65.4835 94.5954 69.0934 95.8446C69.4872 95.976 69.881 96.1075 70.2092 96.239C70.2748 96.239 70.4061 96.3047 70.4717 96.3047C71.7844 96.6992 73.0971 97.1594 74.4754 97.4881C74.8036 97.5539 75.1318 97.6853 75.4599 97.7511C78.2822 98.54 81.2357 99.0659 84.1236 99.1974C84.5831 99.1974 84.9769 99.3289 85.3051 99.5261C87.4054 100.644 87.1428 104.128 84.5174 104.062Z" fill="black" stroke="black" stroke-width="0.8" stroke-miterlimit="10"/>
        <path d="M84.4233 106.434L84.7848 97.1596L96.5892 97.6244L95.2903 120.156L92.6011 120.104C92.6011 120.104 87.5835 118.328 89.727 106.721L84.4233 106.434Z" fill="#F96F6F" stroke="black" stroke-width="0.8" stroke-miterlimit="10"/>
        <path d="M89.2273 113.348C89.6663 119.031 92.6013 120.104 92.6013 120.104L95.2905 120.156L95.7606 112.082C93.4995 112.184 91.3467 112.545 89.2273 113.348Z" fill="white" stroke="black" stroke-width="0.8" stroke-miterlimit="10"/>
        <path d="M93.7132 97.5601L92.6013 120.104L95.2905 120.156L96.5894 97.6242L93.7132 97.5601Z" fill="white" stroke="black" stroke-width="0.8" stroke-miterlimit="10"/>
        <path d="M86.5563 106.386L86.2441 106.365L86.3833 102.354L86.6956 102.374L86.5563 106.386Z" fill="white"/>
        <path d="M88.4606 102.494L88.3019 106.44L88.5521 106.45L88.7108 102.504L88.4606 102.494Z" fill="white"/>
        <path d="M86.7705 102.191C86.7796 102.053 86.6752 101.933 86.5372 101.924C86.3993 101.915 86.2801 102.02 86.2709 102.158C86.2618 102.296 86.3663 102.416 86.5042 102.425C86.6422 102.434 86.7614 102.329 86.7705 102.191Z" fill="white" stroke="white" stroke-width="0.8" stroke-miterlimit="10"/>
        <path d="M88.8321 102.264C88.8413 102.126 88.7368 102.007 88.5988 101.998C88.4609 101.988 88.3416 102.093 88.3325 102.231C88.3234 102.369 88.4278 102.489 88.5658 102.498C88.7038 102.507 88.823 102.402 88.8321 102.264Z" fill="white" stroke="white" stroke-width="0.8" stroke-miterlimit="10"/>
        <path d="M40.3071 61.4793L40.307 61.4792C39.959 60.3995 39.0292 59.4537 37.9249 58.5935C36.996 57.8699 35.8909 57.1684 34.7995 56.4756C34.5836 56.3385 34.3682 56.2018 34.1549 56.0654C32.8488 55.23 31.6156 54.4022 30.7087 53.5291C29.852 52.7044 29.3416 51.8916 29.2842 51.0486L29.2874 51.0454V50.8806C29.2874 49.9803 29.8068 49.1172 30.7173 48.2407C31.6243 47.3676 32.8575 46.5398 34.1635 45.7044C34.3769 45.568 34.5923 45.4312 34.8082 45.2942C35.8996 44.6014 37.0046 43.8999 37.9335 43.1763C39.0378 42.3161 39.9677 41.3704 40.3157 40.2906L40.3157 40.2905C40.6732 39.18 40.4864 37.8421 40.1031 36.4726C39.7675 35.2733 39.2618 33.9882 38.7663 32.7289C38.6923 32.5407 38.6184 32.353 38.5454 32.1663C37.9781 30.7156 37.461 29.3226 37.2281 28.0932C36.9939 26.8562 37.0662 25.8783 37.5646 25.1863C38.0692 24.4882 38.9739 24.1138 40.2151 23.9544C41.4499 23.7959 42.9259 23.8611 44.4705 23.9582C44.6822 23.9715 44.8951 23.9855 45.1087 23.9994C46.4372 24.0862 47.7905 24.1746 49.0102 24.13C50.4161 24.0785 51.7326 23.8498 52.6618 23.1672C53.5825 22.4912 54.1957 21.3019 54.672 19.9723C55.0796 18.8346 55.4072 17.5312 55.7298 16.2477C55.7871 16.0197 55.8443 15.7923 55.9017 15.5666C56.2864 14.0544 56.6829 12.616 57.2192 11.4781C57.7584 10.3338 58.4 9.57775 59.2263 9.30732L59.2264 9.30727C60.0132 9.04947 60.9417 9.28301 62.0283 9.89477C63.1073 10.5022 64.2557 11.4327 65.4477 12.4293C65.5827 12.5421 65.7181 12.6558 65.8541 12.7698C66.9062 13.6524 67.9843 14.5568 69.0371 15.2642C70.2181 16.0578 71.4348 16.6518 72.6111 16.6518C73.7872 16.6518 75.0043 16.0591 76.1862 15.2672C77.2391 14.5617 78.3176 13.6597 79.3702 12.7795C79.5067 12.6653 79.6429 12.5514 79.7784 12.4384C80.9715 11.444 82.121 10.5156 83.2008 9.90974C84.2882 9.29958 85.2175 9.06678 86.0045 9.32469L86.0046 9.32474C86.8309 9.59513 87.4719 10.351 88.0105 11.4953C88.5461 12.6332 88.9418 14.0716 89.326 15.5839C89.3827 15.8071 89.4392 16.0321 89.4958 16.2576C89.8186 17.5435 90.1466 18.8498 90.5553 19.9898C91.0321 21.3195 91.6465 22.5088 92.5694 23.1848C93.4986 23.8672 94.8149 24.0959 96.2207 24.1474C97.4405 24.192 98.7937 24.1036 100.122 24.0168C100.336 24.0029 100.549 23.989 100.76 23.9757C102.305 23.8785 103.781 23.8133 105.016 23.9718C106.257 24.1312 107.162 24.5058 107.667 25.2041C108.165 25.896 108.237 26.8739 108.003 28.1107C107.77 29.34 107.253 30.733 106.686 32.1838C106.612 32.3705 106.539 32.5582 106.465 32.7464C105.969 34.0057 105.463 35.2908 105.128 36.4901C104.744 37.8596 104.558 39.1974 104.915 40.3079L104.915 40.3081C105.263 41.3878 106.193 42.3335 107.297 43.1938C108.226 43.9174 109.331 44.6189 110.423 45.3117C110.639 45.4487 110.854 45.5854 111.067 45.7219C112.373 46.5573 113.607 47.385 114.514 48.2581C115.424 49.1347 115.944 49.9978 115.944 50.898C115.944 51.7982 115.424 52.6613 114.514 53.5378C113.607 54.4109 112.373 55.2387 111.067 56.0741C110.854 56.2105 110.639 56.3472 110.423 56.4842C109.331 57.1771 108.226 57.8786 107.297 58.6022C106.193 59.4624 105.263 60.4082 104.915 61.4879L104.915 61.488C104.558 62.5985 104.744 63.9364 105.128 65.3059C105.463 66.5051 105.969 67.7903 106.465 69.0495C106.539 69.2377 106.612 69.4254 106.686 69.6122C107.253 71.0629 107.77 72.4559 108.003 73.6853C108.237 74.9223 108.165 75.9003 107.666 76.5922C107.162 77.2903 106.257 77.6647 105.016 77.8241C103.781 77.9827 102.305 77.9174 100.76 77.8203C100.549 77.807 100.336 77.7931 100.122 77.7791C98.7938 77.6923 97.4405 77.6039 96.2207 77.6486C94.8148 77.7 93.4984 77.9287 92.5692 78.6113C91.6485 79.2873 91.0352 80.4766 90.5589 81.8063C90.1514 82.9439 89.8238 84.2473 89.5012 85.5307C89.4439 85.7588 89.3867 85.9862 89.3293 86.212C88.9446 87.7242 88.548 89.1625 88.0118 90.3005C87.4727 91.4445 86.8313 92.2004 86.0053 92.471C85.218 92.7272 84.2885 92.4932 83.2009 91.8826C82.121 91.2762 80.9714 90.348 79.7784 89.3542C79.6438 89.2421 79.5087 89.1292 79.3732 89.0159C78.3196 88.1354 77.24 87.233 76.186 86.5274C75.0041 85.7361 73.7871 85.1441 72.6111 85.1441C71.4351 85.1441 70.218 85.7368 69.0361 86.5287C67.9832 87.2343 66.9047 88.1362 65.8522 89.0164C65.7156 89.1307 65.5794 89.2445 65.4439 89.3575C64.2508 90.3519 63.1013 91.2803 62.0215 91.8862C60.9341 92.4964 60.0048 92.7292 59.2178 92.4713L59.2177 92.4712C58.3914 92.2008 57.7504 91.4449 57.2118 90.3006C56.6762 89.1627 56.2805 87.7243 55.8963 86.2121C55.8396 85.9888 55.7831 85.7638 55.7265 85.5383C55.4036 84.2524 55.0757 82.9461 54.667 81.8062C54.1902 80.4763 53.5757 79.287 52.6527 78.611C51.7236 77.9266 50.4075 77.6962 49.0019 77.6435C47.7799 77.5977 46.424 77.6858 45.0932 77.7722C44.882 77.7859 44.6714 77.7996 44.462 77.8127C42.9174 77.9092 41.4413 77.9742 40.2065 77.8155C38.9653 77.656 38.0606 77.2816 37.5559 76.5835L40.3071 61.4793ZM40.3071 61.4793C40.6646 62.5898 40.4778 63.9277 40.0945 65.2972M40.3071 61.4793L40.0945 65.2972M40.0945 65.2972C39.7588 66.4965 39.2532 67.7817 38.7577 69.0409M40.0945 65.2972L38.7577 69.0409M38.7577 69.0409C38.6836 69.2291 38.6098 69.4168 38.5368 69.6035M38.7577 69.0409L38.5368 69.6035M38.5368 69.6035C37.9695 71.0542 37.4523 72.4472 37.2195 73.6766M38.5368 69.6035L37.2195 73.6766M37.2195 73.6766C36.9853 74.9133 37.0575 75.8911 37.5556 76.583L37.2195 73.6766Z" fill="#ACBFFF" stroke="black" stroke-width="0.8"/>
        <path d="M75.3366 39.7492C75.6523 34.8935 77.1693 30.8043 79.1909 28.9737C79.9916 28.2719 80.8128 27.8678 81.6647 27.9102C84.7739 28.0997 86.9056 33.6878 86.5205 40.4421C86.132 47.1468 83.2519 52.4741 80.1924 52.2812C79.3902 52.2355 78.6105 51.7896 77.9629 51.0855C76.1229 49.0164 75.0277 44.7042 75.3366 39.7492Z" fill="white" stroke="black" stroke-width="0.8" stroke-miterlimit="10"/>
        <path d="M77.9582 51.0362C80.8905 50.8389 83.5163 46.1768 83.8632 40.3224C83.8496 40.124 83.8856 39.9222 83.8754 39.7734L79.1919 39.1915L83.7806 36.939C83.3317 32.5835 81.5594 29.3138 79.1893 28.9749C77.168 30.8054 75.6547 34.9441 75.3357 39.75C75.0268 44.7047 76.1218 49.0168 77.9582 51.0362Z" fill="black" stroke="black" stroke-width="0.8" stroke-miterlimit="10"/>
        <path d="M54.9545 38.4895C55.2702 33.6338 56.7871 29.5445 58.8088 27.714C59.6095 27.0122 60.4307 26.608 61.2826 26.6504C64.3918 26.8399 66.5235 32.4281 66.1384 39.1824C65.7499 45.8871 62.8698 51.2143 59.8103 51.0215C59.0081 50.9758 58.2284 50.5298 57.5808 49.8258C55.7408 47.7566 54.6456 43.4444 54.9545 38.4895Z" fill="white" stroke="black" stroke-width="0.8" stroke-miterlimit="10"/>
        <path d="M57.5796 49.826C60.5119 49.6287 63.1377 44.9666 63.4846 39.1123C63.471 38.9138 63.507 38.712 63.4968 38.5632L58.8133 37.9813L63.402 35.7288C62.9531 31.3733 61.1808 28.1036 58.8107 27.7647C56.7894 29.5952 55.2761 33.7339 54.9571 38.5398C54.6448 43.4449 55.7398 47.757 57.5796 49.826Z" fill="black" stroke="black" stroke-width="0.8" stroke-miterlimit="10"/>
        <path d="M71.5207 42.5518L71.3719 44.7547C71.3719 44.7547 71.173 44.7681 71.1199 44.7219C69.8664 44.6569 68.3778 44.807 68.1849 46.365C68.0089 48.1711 70.0492 48.7812 71.4077 48.1912" fill="#ACBFFF"/>
        <path d="M71.5207 42.5518L71.3719 44.7547C71.3719 44.7547 71.173 44.7681 71.1199 44.7219C69.8664 44.6569 68.3778 44.807 68.1849 46.365C68.0089 48.1711 70.0492 48.7812 71.4077 48.1912" stroke="black" stroke-width="0.8" stroke-miterlimit="10"/>
        <path d="M73.1622 59.982C72.2593 61.3887 71.0771 62.3655 69.4255 62.3273C67.8236 62.2857 66.7574 61.3109 66.0122 59.9156C64.1122 56.2556 64.6151 49.742 64.6151 49.742L68.1206 49.8546L72.5282 50.0062L75.5827 50.0994C75.5861 50.149 75.4179 56.4406 73.1622 59.982Z" fill="black" stroke="black" stroke-width="0.8" stroke-miterlimit="10"/>
        <path d="M73.1936 59.7299C72.2973 61.2359 71.072 62.3155 69.4203 62.2772C67.8183 62.2357 66.7486 61.2111 65.9964 59.7165C66.1949 57.5097 67.93 55.8475 69.8904 56.0145C71.6982 56.1419 73.1072 57.7418 73.1936 59.7299Z" fill="#E30611" stroke="black" stroke-width="0.8" stroke-miterlimit="10"/>
        <path d="M64.425 47.7158C64.8238 48.4363 65.7445 50.218 65.6626 52.6653C65.5412 55.2647 64.3648 57.0383 63.859 57.6704" fill="#ACBFFF"/>
        <path d="M64.425 47.7158C64.8238 48.4363 65.7445 50.218 65.6626 52.6653C65.5412 55.2647 64.3648 57.0383 63.859 57.6704" stroke="black" stroke-width="0.8" stroke-miterlimit="10"/>
        <path d="M75.9864 47.9291C75.587 48.6537 74.7125 50.4568 74.8293 52.8905C74.9563 55.4731 76.1746 57.2346 76.6692 57.8989" fill="#ACBFFF"/>
        <path d="M75.9864 47.9291C75.587 48.6537 74.7125 50.4568 74.8293 52.8905C74.9563 55.4731 76.1746 57.2346 76.6692 57.8989" stroke="black" stroke-width="0.8" stroke-miterlimit="10"/>
        <path d="M39.3394 59.9098C39.8297 60.3013 40.4317 62.2358 40.4317 62.2358C40.4317 62.2358 39.3693 62.6733 37.9273 63.1113C34.0429 64.1641 30.2105 63.2206 27.1284 60.6726C24.1703 58.2141 22.1608 54.8406 20.3539 51.5006C19.4786 49.8698 18.6316 48.2782 17.8743 46.5631C17.5238 45.7448 17.1734 44.9265 16.8229 44.1082C16.4272 43.1441 16.0707 42.152 15.7032 41.2272C15.7032 41.2272 15.675 41.188 15.6468 41.1487C15.3245 40.3696 15.0023 39.5906 14.7082 38.8507C14.245 37.8755 14.9286 36.6748 15.8842 36.3485C16.9183 35.9661 17.9995 36.5593 18.3952 37.5233C18.644 38.1174 18.9038 38.6443 19.1132 39.2665C19.5372 40.2697 19.9501 41.3403 20.3347 42.3717C20.7475 43.4422 21.1886 44.552 21.7083 45.6057C22.4314 47.1077 23.2674 48.7666 24.0127 50.134C25.588 52.9864 27.3829 55.9789 29.9633 57.9947C32.2958 59.8314 33.5691 60.7797 36.469 59.599C38.5877 58.7387 37.9457 58.9908 37.9457 58.9908C37.9457 58.9908 38.4879 59.2301 39.3394 59.9098Z" fill="black"/>
        <path d="M11.9795 42.2298C11.9795 42.2298 -1.75348 29.8232 2.38276 26.4046C2.38276 26.4046 3.9205 25.3063 5.3748 26.3576C5.3748 26.3576 4.91876 22.2713 8.58059 23.3713C10.8628 24.0634 11.437 28.5298 11.437 28.5298C11.5094 28.091 12.0365 27.6372 12.3585 27.3298C13.1708 26.5174 14.0934 25.8584 15.1632 25.404C16.7165 24.759 18.9385 24.7201 19.8368 26.4006C19.8736 26.4518 19.9104 26.5029 19.8959 26.5907C20.5446 28.1399 19.0671 29.9692 17.4089 29.6054C16.2276 29.3654 14.8269 29.3596 13.9121 30.2452C12.6608 31.5259 13.3395 33.4407 14.903 34.1043C16.8041 34.9138 19.61 33.529 19.6978 29.9831C19.6966 29.4421 19.5562 28.9232 19.7311 28.4112C19.9717 27.7749 20.7852 27.5036 21.358 27.8685C23.326 29.0946 25.8682 34.7871 19.5969 37.7182" fill="white"/>
        <path d="M11.9795 42.2298C11.9795 42.2298 -1.75348 29.8232 2.38276 26.4046C2.38276 26.4046 3.9205 25.3063 5.3748 26.3576C5.3748 26.3576 4.91876 22.2713 8.58059 23.3713C10.8628 24.0634 11.437 28.5298 11.437 28.5298C11.5094 28.091 12.0365 27.6372 12.3585 27.3298C13.1708 26.5174 14.0934 25.8584 15.1632 25.404C16.7165 24.759 18.9385 24.7201 19.8368 26.4006C19.8736 26.4518 19.9104 26.5029 19.8959 26.5907C20.5446 28.1399 19.0671 29.9692 17.4089 29.6054C16.2276 29.3654 14.8269 29.3596 13.9121 30.2452C12.6608 31.5259 13.3395 33.4407 14.903 34.1043C16.8041 34.9138 19.61 33.529 19.6978 29.9831C19.6966 29.4421 19.5562 28.9232 19.7311 28.4112C19.9717 27.7749 20.7852 27.5036 21.358 27.8685C23.326 29.0946 25.8682 34.7871 19.5969 37.7182" stroke="black" stroke-width="0.8" stroke-miterlimit="10"/>
        <path d="M5.33874 26.311L7.78166 30.6788" stroke="black" stroke-width="0.8" stroke-miterlimit="10"/>
        <path d="M17.6584 39.0187L19.6289 37.766C22.2371 36.2129 27.5529 38.5328 18.5626 43.4055C9.53555 48.227 12.0386 42.1034 12.0386 42.1034C12.383 41.9348 12.8667 41.7442 13.2769 41.4512C13.6726 41.246 14.0315 40.9897 14.3023 40.7188" fill="white"/>
        <path d="M17.6584 39.0187L19.6289 37.766C22.2371 36.2129 27.5529 38.5328 18.5626 43.4055C9.53555 48.227 12.0386 42.1034 12.0386 42.1034C12.383 41.9348 12.8667 41.7442 13.2769 41.4512C13.6726 41.246 14.0315 40.9897 14.3023 40.7188" stroke="black" stroke-width="0.8" stroke-miterlimit="10"/>
        <path d="M41.8662 17.9562L44.6099 19.5853C44.7266 19.469 47.2952 16.9088 47.2952 16.9088C52.841 11.9049 65.392 2.88617 80.3948 8.12285C87.5167 10.5666 93.3544 15.9197 97.3824 20.6327C98.1413 21.5055 98.8418 22.3782 99.4839 23.1928C100.651 24.6475 101.586 25.9857 102.286 27.0331L104.971 25.5784C101.469 20.4581 93.3544 10.043 81.1537 5.79543C62.298 -0.721318 47.5287 12.254 42.9753 16.8506C42.5083 17.3161 42.1581 17.7234 41.8662 17.9562Z" fill="#E30611" stroke="black" stroke-width="0.8" stroke-miterlimit="10"/>
        <path d="M44.201 42.9176C45.6604 42.8012 47.0614 42.3357 48.2873 41.5793C48.3457 41.5793 48.3457 41.5211 48.4041 41.5211V18.1889V17.4324C48.3457 17.4324 48.3457 17.3743 48.2873 17.3743C47.5284 17.0251 46.7695 16.7924 45.9523 16.676C45.3685 16.6179 44.7847 16.5597 44.1426 16.6179C38.3049 17.0251 33.5764 23.251 33.6348 30.4659C33.6348 37.7973 38.3633 43.3249 44.201 42.9176Z" fill="#E30611" stroke="black" stroke-width="0.8" stroke-miterlimit="10"/>
        <path d="M101.293 46.525C100.651 46.5832 100.068 46.5832 99.4838 46.4669C98.9 46.4087 98.3162 46.2341 97.7325 46.0596C97.6157 35.4116 97.4406 25.462 97.3822 21.389C98.5497 20.749 99.834 20.3417 101.118 20.2835C107.014 19.818 111.86 25.3456 111.918 32.5606C111.918 39.7755 107.189 46.0596 101.293 46.525Z" fill="#E30611" stroke="black" stroke-width="0.8" stroke-miterlimit="10"/>
        <path d="M97.3359 63.8725L90.7968 59.98L87.2301 65.3093L85.7806 67.5358L84.7406 69.1087L76.5674 81.34L76.2479 85.8197L76.0254 88.9395C76.9854 88.4866 77.9511 87.9537 78.9112 87.5008L82.9289 85.4609L91.2368 73.0383L92.2767 71.4654L93.7263 69.2389L97.3359 63.8725Z" fill="#5663F1" stroke="black" stroke-width="0.8" stroke-miterlimit="10"/>
        <path d="M76.5602 81.3425L78.7691 80.3374L78.7098 82.8653L81.1507 81.4349L80.8765 84.1482L82.9623 83.1743L82.9201 85.4623L76.0612 88.9029L76.5602 81.3425Z" fill="white" stroke="black" stroke-width="0.8" stroke-miterlimit="10"/>
        <path d="M76.2817 85.7845C76.4049 85.7533 77.2415 85.3318 78.0583 85.7529C78.9496 86.2597 78.95 87.3852 78.9443 87.4652C77.9845 87.9179 77.019 88.4507 76.0592 88.9035L76.2817 85.7845Z" fill="black" stroke="black" stroke-width="0.8" stroke-miterlimit="10"/>
        <path d="M78.7362 80.3747L91.9592 60.707" stroke="black" stroke-width="0.8" stroke-miterlimit="10"/>
        <path d="M81.1114 81.5499L94.0074 61.9392" stroke="black" stroke-width="0.8" stroke-miterlimit="10"/>
        <path d="M82.9642 83.2501L96.141 63.0969" stroke="black" stroke-width="0.8" stroke-miterlimit="10"/>
        <path d="M91.4818 59.0205C91.4818 59.0205 93.6922 55.1626 97.1393 57.141C100.624 59.1624 98.0179 62.9112 98.0179 62.9112L91.4818 59.0205Z" fill="#FF1F33" stroke="black" stroke-width="0.8" stroke-miterlimit="10"/>
        <path d="M95.271 57.9313C94.4482 57.5901 93.3334 57.9514 92.7032 58.8704C92.5685 59.0617 92.3392 58.8842 92.4738 58.693C93.1957 57.6197 94.557 57.196 95.4543 57.623C95.6148 57.6347 95.4687 57.9859 95.271 57.9313Z" fill="white"/>
        <path d="M95.6972 58.1621C95.5422 58.0703 95.7688 57.7245 95.9181 57.8964C96.1161 57.951 95.8895 58.2969 95.6972 58.1621Z" fill="white"/>
        <path d="M90.8087 59.978L97.3806 63.9107L98.0161 62.9123L91.4815 59.0224L90.8087 59.978Z" fill="black" stroke="black" stroke-width="0.8" stroke-miterlimit="10"/>
        <path d="M90.1429 74.9699C90.3887 75.1062 90.6345 75.2425 90.8803 75.3788C92.6347 76.2717 94.3892 77.1647 96.2118 77.9351C97.6931 78.5964 99.1608 79.21 100.615 79.776C100.908 79.8988 101.25 80.0079 101.543 80.1306C104.854 81.4058 109.12 82.7701 112.565 81.2749C117.886 78.9368 114.898 71.9506 112.916 68.287C110.715 64.2217 108.872 63.3883 105.567 60.1527L104.877 61.9777L104.879 64.0444C106.498 65.9039 108.125 68.1545 109.308 70.2927C109.875 71.3686 110.408 72.5058 110.832 73.6225C111.14 74.5144 111.55 75.5834 111.462 76.5364C111.476 76.584 111.367 76.9243 111.381 76.972C111.347 77.0332 111.313 77.0944 111.313 77.0944C111.278 77.1557 111.163 77.2917 111.115 77.3053L111.067 77.3189C110.808 77.4957 110.126 77.6382 109.825 77.672C108.802 77.7054 107.737 77.5958 106.679 77.3296C104.42 76.8379 102.12 75.8425 99.9558 74.9629C99.0752 74.5947 98.2561 74.2606 97.4232 73.8789C96.4675 73.4289 95.5118 72.979 94.5561 72.5291C93.8325 72.1678 93.1088 71.8065 92.433 71.4317C91.949 72.0849 91.5128 72.7244 91.138 73.3981C90.7836 73.9629 90.4633 74.4664 90.1429 74.9699Z" fill="black"/>
        <path d="M97.8685 71.8836C97.502 71.785 97.4741 70.9822 97.4289 70.5896C97.2382 68.279 95.2605 66.341 93.8562 65.4562C93.2928 65.1433 91.5126 63.8924 90.4049 64.2746C88.0019 65.0924 90.652 68.6637 91.4489 69.7886C90.7962 69.6362 90.6532 69.6093 90.5102 69.5823C90.2241 69.5285 89.9201 69.4121 89.5715 69.376C89.044 69.1881 88.4718 69.0804 87.9443 68.8924C86.6657 68.4449 85.4942 67.8994 84.2156 67.4518C83.384 67.1475 82.0429 66.7178 81.2751 67.3413C80.7215 67.7688 80.8119 68.5539 80.929 69.1963C80.929 69.1963 80.929 69.1963 80.9469 69.2588C80.9469 69.2588 78.3203 70.005 80.2274 72.6387C79.9327 72.79 79.62 72.8788 79.5042 73.182C78.9872 74.2072 80.2404 75.743 80.8491 76.4484C82.3797 78.2432 84.5716 79.9853 86.691 81.0047C88.4885 81.8454 90.4551 82.0975 92.4117 81.6092C92.7869 81.5026 93.1621 81.396 93.5373 81.2894C93.85 81.2005 94.4036 80.773 94.6896 80.8269C94.6896 80.8269 94.8153 81.2641 94.8333 81.3266C95.0036 81.6836 95.2364 82.0228 95.5138 82.2819C96.167 82.9071 97.1682 83.0956 97.9719 82.597C99.1775 81.8491 99.5063 80.4044 99.8264 79.1649C100.2 77.6399 100.734 76.2044 101.188 74.7242C102.612 70.2657 99.1279 71.3231 98.6636 71.5901C97.9131 71.8033 98.0741 71.8927 97.8685 71.8836Z" fill="white" stroke="black" stroke-width="0.8" stroke-miterlimit="10"/>
        <path d="M88.862 73.0336C88.862 73.0336 83.6496 71.6091 80.9116 69.1438" stroke="black" stroke-width="0.8" stroke-miterlimit="10"/>
        <path d="M80.125 72.5405C80.125 72.5405 83.9716 75.5687 87.0201 76.5267" stroke="black" stroke-width="0.8" stroke-miterlimit="10"/>
        <path d="M97.7766 71.7695L97.1892 73.4899" stroke="black" stroke-width="0.8" stroke-miterlimit="10"/>
        <path d="M95.1302 79.0701L94.7125 80.6745" stroke="black" stroke-width="0.8" stroke-miterlimit="10"/>
    </g>
    <defs>
        <clipPath id="clip0_755_5574">
            <rect width="117" height="121" fill="white"/>
        </clipPath>
    </defs>
</svg>
