<svg width="117" height="121" viewBox="0 0 117 121" fill="none" xmlns="http://www.w3.org/2000/svg">
    <g clip-path="url(#clip0_755_7172)">
        <path d="M71.4485 63.9726C80.2944 76.7373 81.335 95.8262 78.2603 111.55C77.5034 115.321 72.7257 113.929 73.4826 110.157C76.0843 96.7546 75.7532 79.4062 68.09 68.3822C66.0559 65.4812 69.3672 61.0135 71.4485 63.9726Z" fill="black"/>
        <path d="M76.8594 120.325L77.0782 118.934L78.2046 120.324L93.478 120.332L93.7906 117.133L69.8091 116.913L69.575 120.267L76.8594 120.325Z" fill="black" stroke="black" stroke-width="0.8" stroke-miterlimit="10"/>
        <path d="M81.5965 107.221C85.1805 107.832 92.565 110.004 93.7456 117.406L69.7994 117.039L70.0303 110.027C73.9281 111.224 78.8788 110.409 81.5965 107.221Z" fill="#ACBFFF" stroke="black" stroke-width="0.8" stroke-miterlimit="10"/>
        <path d="M86.2252 108.361L81.8017 111.768" stroke="black" stroke-width="0.8" stroke-miterlimit="10"/>
        <path d="M88.4029 109.468L83.9505 112.902" stroke="black" stroke-width="0.8" stroke-miterlimit="10"/>
        <path d="M61.0207 66.9397C52.032 79.2726 50.9745 97.7158 54.0989 112.908C54.868 116.551 59.7229 115.206 58.9538 111.562C56.31 98.6128 56.6465 81.8513 64.4335 71.2002C66.5005 68.3972 63.0876 64.0807 61.0207 66.9397Z" fill="black"/>
        <path d="M54.2871 120.102L54.0683 118.711L52.9419 120.102L37.6685 120.109L37.3559 116.91L61.3374 116.691L61.5715 120.044L54.2871 120.102Z" fill="black" stroke="black" stroke-width="0.8" stroke-miterlimit="10"/>
        <path d="M49.5499 106.999C45.9659 107.61 38.5814 109.781 37.4008 117.183L61.347 116.817L61.1161 109.804C57.2183 111.002 52.2676 110.186 49.5499 106.999Z" fill="#ACBFFF" stroke="black" stroke-width="0.8" stroke-miterlimit="10"/>
        <path d="M44.9213 108.138L49.3447 111.545" stroke="black" stroke-width="0.8" stroke-miterlimit="10"/>
        <path d="M42.7436 109.245L47.196 112.679" stroke="black" stroke-width="0.8" stroke-miterlimit="10"/>
        <path d="M94.2117 58.6684C94.1571 58.3398 93.6114 55.0537 93.1788 52.7725C95.6176 54.2433 97.6031 56.0586 99.5595 58.2921C103.422 62.778 107.255 67.6821 108.897 73.5241C109.056 74.1624 109.199 74.749 109.358 75.3872C109.879 77.9265 106.01 78.7953 105.558 76.2887C105.468 75.8569 105.379 75.4251 105.238 75.0122C103.822 69.6673 100.198 65.2087 96.6955 61.1113C95.8721 60.1983 94.965 59.3749 94.2117 58.6684Z" fill="black"/>
        <path d="M103.732 76.602C103.836 76.9095 103.198 77.3822 102.98 77.5803C101.336 78.9539 100.864 81.4436 100.84 82.8969C100.861 83.4668 100.791 85.4578 101.639 86.1187C103.421 87.5239 104.795 83.6528 105.259 82.4948C105.449 83.0585 105.483 83.161 105.535 83.3148C105.621 83.571 105.725 83.8785 105.811 84.1347C105.966 84.596 106.088 85.1276 106.243 85.5888C106.521 86.7545 106.698 87.9585 106.977 89.1242C107.185 89.912 107.48 91.129 108.359 91.3738C108.935 91.5605 109.505 91.0556 109.89 90.6786C109.89 90.6786 109.89 90.6786 109.941 90.6595C109.941 90.6595 111.774 92.2184 112.835 89.448C113.055 89.5956 113.344 89.7754 113.613 89.7311C114.642 89.5728 115.203 87.8579 115.434 87.0196C116.043 84.9399 116.262 82.3729 115.993 80.2213C115.727 78.4154 114.974 76.8519 113.649 75.6204C113.394 75.3702 113.156 75.1713 112.851 74.9403C112.613 74.7414 112.038 74.5548 111.901 74.3176C111.901 74.3176 112.135 73.9979 112.169 73.9276C112.352 73.627 112.518 73.2751 112.584 72.9615C112.713 72.1615 112.37 71.3094 111.625 70.9559C110.49 70.461 109.228 70.939 108.117 71.3596C106.804 71.8568 105.44 72.2001 104.11 72.646C100.085 73.8811 102.547 75.9533 103.021 76.1782C103.715 76.5508 103.663 76.397 103.732 76.602Z" fill="white" stroke="black" stroke-width="0.8" stroke-miterlimit="10"/>
        <path d="M109.091 82.7557C109.091 82.7557 110.58 87.4902 110.073 90.7643" stroke="black" stroke-width="0.8" stroke-miterlimit="10"/>
        <path d="M112.942 89.641C112.942 89.641 113.319 85.1397 112.531 82.2981" stroke="black" stroke-width="0.8" stroke-miterlimit="10"/>
        <path d="M107.587 83.236C107.653 83.0956 107.651 82.9229 107.516 82.8584C107.381 82.794 107.23 82.851 107.164 82.9915C107.098 83.1319 107.099 83.3046 107.235 83.369C107.319 83.4525 107.47 83.3955 107.587 83.236Z" fill="black" stroke="black" stroke-width="0.8" stroke-miterlimit="10"/>
        <path d="M110.995 82.2055C111.061 82.065 111.06 81.8924 110.925 81.8279C110.79 81.7635 110.639 81.8205 110.573 81.9609C110.507 82.1014 110.508 82.2741 110.643 82.3385C110.728 82.422 110.929 82.346 110.995 82.2055Z" fill="black" stroke="black" stroke-width="0.8" stroke-miterlimit="10"/>
        <path d="M114.212 81.5964C114.278 81.4559 114.277 81.2832 114.142 81.2188C114.006 81.1543 113.855 81.2114 113.789 81.3518C113.723 81.4923 113.725 81.6649 113.86 81.7294C113.995 81.7938 114.146 81.7368 114.212 81.5964Z" fill="black" stroke="black" stroke-width="0.8" stroke-miterlimit="10"/>
        <path d="M103.738 76.6169L105.269 76.1583" stroke="black" stroke-width="0.8" stroke-miterlimit="10"/>
        <path d="M110.445 74.8844L111.775 74.3337" stroke="black" stroke-width="0.8" stroke-miterlimit="10"/>
        <path d="M46.6574 56.5323C42.0659 59.4478 37.8315 63.2116 32.6789 65.0139C30.4342 65.8091 28.1384 66.1271 26.2508 65.0139C23.802 63.5826 22.1695 60.9851 20.9451 58.3876C19.4657 55.26 18.5474 51.8673 17.476 48.5807C16.6598 45.9832 12.6805 47.0964 13.4967 49.6939C15.5884 56.2672 17.476 63.6886 23.1388 67.9825C28.5466 72.0643 35.3828 68.8837 40.4844 65.7561C43.2903 64.0067 45.9431 61.9393 48.749 60.19C50.9937 58.8117 48.9021 55.101 46.6574 56.5323Z" fill="black"/>
        <path d="M20.4259 52.3976L19.9551 52.6073C24.6632 50.7203 22.7799 42.0543 20.5604 40.5167C17.5338 38.7696 17.5338 44.71 17.5338 44.71C17.5338 44.71 15.5832 41.2156 11.615 38.4201C6.90687 34.9956 7.78125 39.1889 7.78125 39.1889C7.78125 39.1889 5.96526 37.3718 4.01475 38.49C2.53506 39.6082 4.28378 41.2855 4.28378 41.2855C3.34216 40.8662 1.45892 40.2372 1.05537 41.6349C0.719077 42.9628 1.99699 44.1509 2.66958 44.9197C3.67846 46.0379 4.7546 47.0163 5.83074 47.9947C6.16703 48.2743 6.77236 48.6936 6.90688 49.1129C8.79012 55.6823 13.6327 55.3329 13.6327 55.3329C13.4982 55.9619 13.4982 57.0801 13.8345 57.4295C14.3053 57.9188 15.0452 58.0585 15.7178 57.8489C17.1302 57.3597 20.2241 56.1017 21.4348 55.1233C23.049 53.9352 20.4259 52.3976 20.4259 52.3976Z" fill="white" stroke="black" stroke-width="0.8" stroke-miterlimit="10"/>
        <path d="M7.78119 39.1887L13.0274 44.2206" stroke="black" stroke-width="0.8" stroke-miterlimit="10"/>
        <path d="M4.28381 41.2856L9.79904 46.5272" stroke="black" stroke-width="0.8" stroke-miterlimit="10"/>
        <path d="M8.52112 47.4357L13.5655 43.8015" stroke="black" stroke-width="0.8" stroke-miterlimit="10"/>
        <path d="M17.5338 44.7102L17.6683 45.7585C17.6683 45.7585 13.4311 45.479 13.9019 49.3927" stroke="black" stroke-width="0.8" stroke-miterlimit="10"/>
        <path d="M15.1125 54.634L13.5656 55.4727" stroke="black" stroke-width="0.8" stroke-miterlimit="10"/>
        <path d="M90.3354 81.8345L79.2377 68.638L78.5527 68.9882L82.782 85.9204L71.8087 88.8523L66.4859 66.9934L66.1551 65.6347L65.7235 66.9495L58.713 88.3061L48.0639 84.5318L55.1011 63.0935L55.5294 61.7889L54.4731 62.6431L37.2215 76.5936L30.334 67.3323L43.5641 56.5862L43.2257 55.8752L26.7573 59.3017L24.5484 47.7657L43.7466 43.8347L45.1574 43.5458L43.7859 43.0597L25.21 36.4761L28.8499 25.3873L47.3472 31.943L48.709 32.4257L47.7728 31.3058L34.9137 15.9231L43.4201 8.27163L54.4684 21.3626L55.1533 21.0133L51.001 4.10865L61.872 1.22803L67.3757 23.3374L67.7102 24.6813L68.1376 23.3793L75.2285 1.77755L85.8777 5.55181L78.8136 27.0718L78.3829 28.384L79.4426 27.5215L96.6172 13.5434L103.527 22.7249L90.2988 33.4696L90.6346 34.1811L107.156 30.8611L109.316 42.2912L90.0881 46.3031L88.6884 46.5951L90.0502 47.0778L108.469 53.6056L104.829 64.6945L86.3316 58.1387L84.96 57.6526L85.9069 58.7771L98.7932 74.0807L90.3354 81.8345Z" fill="#F96F6F" stroke="black" stroke-width="0.8"/>
        <path d="M64.0935 43.0851C61.4706 43.2668 59.6345 42.0403 57.1864 42.1766C55.8312 42.2674 54.5197 42.5854 54.5197 44.0844C54.476 46.8553 56.5744 48.6723 59.1099 49.7625C62.3886 51.1707 66.1919 51.0344 69.4269 49.5354C72.181 48.2635 75.0226 46.174 74.3668 42.9034C74.0608 41.4044 72.7931 41.2227 71.4816 41.3135C69.0772 41.4952 66.4979 42.9488 64.0935 43.0851Z" fill="white" stroke="black" stroke-width="0.8" stroke-miterlimit="10"/>
        <path d="M68.6837 41.9497C69.0334 42.8128 69.4269 43.9938 69.6018 45.4474C69.8203 47.1281 69.6455 48.5363 69.4706 49.5357" stroke="black" stroke-width="0.8" stroke-miterlimit="10"/>
        <path d="M64.0936 43.0857C64.3996 43.9942 64.6619 45.2207 64.7494 46.6743C64.8368 48.355 64.6619 49.7177 64.3996 50.7625" stroke="black" stroke-width="0.8" stroke-miterlimit="10"/>
        <path d="M59.1099 42.313C59.3722 43.2669 59.6345 44.5842 59.6345 46.2195C59.6345 47.6731 59.3722 48.8996 59.1099 49.7627" stroke="black" stroke-width="0.8" stroke-miterlimit="10"/>
        <path d="M66.7552 36.5484C66.8888 37.5809 66.1772 38.5158 65.1768 38.6611C64.1764 38.8064 63.2764 38.0776 63.1427 37.0451C63.0091 36.0126 63.7207 35.0776 64.7211 34.9324C65.7215 34.7871 66.6215 35.5158 66.7552 36.5484Z" fill="#E30611" stroke="black" stroke-width="0.8" stroke-miterlimit="10"/>
        <path d="M69.1806 38.5061C70.7268 37.8912 72.6987 37.5947 74.7958 37.7387C75.1075 37.7515 75.4191 37.7644 75.7344 37.8222C77.3038 38.0212 78.7561 38.4139 79.9117 38.9736C80.4371 37.286 80.7202 35.3516 80.7685 33.2604C80.7893 32.4418 80.7698 31.6728 80.6624 30.9131C80.4944 28.8897 80.0775 27.0737 79.4191 25.5551C78.3632 22.9894 76.7146 21.302 74.8523 21.3149C74.8084 21.3195 74.7644 21.3241 74.7204 21.3287C72.4219 21.4325 70.3728 24.0047 69.3518 27.7395C68.9471 29.2784 68.6893 30.9834 68.6187 32.8049C68.6262 32.8948 68.5896 32.9894 68.5971 33.0793C68.5854 35.0761 68.8264 36.9104 69.1806 38.5061Z" fill="white" stroke="black" stroke-width="0.8" stroke-miterlimit="10"/>
        <path d="M69.354 27.7521C70.4148 23.9687 72.4191 21.4017 74.7166 21.2979C75.9717 22.5272 76.8028 24.5261 76.8574 26.7875C76.8628 27.9205 76.6848 28.982 76.3637 29.9223L73.4453 28.9573L75.4502 31.7406C74.4995 33.1094 73.1559 34.0205 71.6499 34.0417C70.4993 34.0711 69.4432 33.6372 68.5332 32.8254C68.6918 30.9951 68.9495 29.2906 69.354 27.7521Z" fill="black" stroke="black" stroke-width="0.8" stroke-miterlimit="10"/>
        <path d="M49.7346 38.5552L49.7383 38.6001L49.742 38.6451C49.7458 38.6901 49.7495 38.735 49.8009 38.8203C50.0134 38.7075 50.2698 38.59 50.4859 38.5221C50.6141 38.4634 50.7423 38.4046 50.8705 38.3459C52.0758 37.9027 53.4279 37.6255 54.8829 37.519C55.4546 37.4593 56.0337 37.4896 56.6092 37.4749C56.6971 37.4657 56.7411 37.4611 56.8328 37.4969C58.2147 37.5794 59.432 37.8151 60.5322 38.2444C60.9293 36.6158 61.1319 34.7807 61.1071 32.8787C61.0059 26.3138 58.2199 21.0722 54.8552 21.1513C52.997 21.2092 51.361 22.8764 50.2909 25.4823C50.1448 25.8603 50.0025 26.2833 49.8639 26.7512C49.8676 26.7962 49.8274 26.8457 49.8311 26.8907C49.7909 26.9402 49.7983 27.0301 49.7581 27.0797C49.7216 27.1742 49.7253 27.2192 49.6888 27.3137C49.656 27.4531 49.6195 27.5476 49.5867 27.6871C49.5577 27.8715 49.4809 28.0156 49.4518 28.2C49.4228 28.3844 49.3937 28.5689 49.3207 28.7579C49.2298 29.2662 49.1389 29.7745 49.092 30.2782C49.063 30.4627 49.0339 30.6471 49.0451 30.782C49.0451 30.782 49.0451 30.782 49.0488 30.8269C49.0235 31.0563 49.0019 31.3306 48.9766 31.56C48.9476 31.7444 48.9625 31.9243 48.9774 32.1041C48.9886 32.239 48.9558 32.3784 48.967 32.5133C48.9707 32.5583 48.9707 32.5583 48.9745 32.6032C48.9894 32.7831 48.9603 32.9675 48.979 33.1923C49.0038 35.0943 49.2447 36.9284 49.7346 38.5552Z" fill="white" stroke="black" stroke-width="0.8" stroke-miterlimit="10"/>
        <path d="M49.6333 27.6978C50.6064 23.9231 52.6038 21.2658 54.9018 21.162C56.2011 22.3868 57.0726 24.3365 57.1712 26.5936C57.2205 27.7221 57.0425 28.7837 56.7653 29.7196L53.9492 28.9252L55.9396 31.529C55.0363 32.9384 53.6925 33.8496 52.1898 33.9157C51.0427 33.9901 49.9424 33.5608 49.0322 32.7488C49.0187 30.9817 49.2287 29.2365 49.6333 27.6978Z" fill="black" stroke="black" stroke-width="0.8" stroke-miterlimit="10"/>
        <path d="M47.7601 51.7074L53.0045 54.1816L61.8943 58.5484L57.7016 67.4549L37.9708 53.8933L47.7601 51.7074Z" fill="white"/>
        <path d="M84.9894 54.1385L70.7703 59.4009L71.9728 68.8256L92.8243 57.1342L84.9894 54.1385Z" fill="white"/>
        <path d="M47.7601 51.7074L53.0045 54.1816L61.8943 58.5484L57.7016 67.4549L37.9708 53.8933L47.7601 51.7074Z" stroke="black" stroke-width="0.8"/>
        <path d="M84.9894 54.1385L70.7703 59.4009L71.9728 68.8256L92.8243 57.1342L84.9894 54.1385Z" stroke="black" stroke-width="0.8"/>
        <path d="M61.4515 59.1717L70.234 59.3187L65.9567 66.5348L69.8467 71.4264L68.4027 94.6611L64.7167 99.765L61.1069 93.8334L61.9712 70.5365L65.9567 66.5348L61.4515 59.1717Z" fill="#5663F1"/>
        <path d="M65.9567 66.5348L70.234 59.3187L61.4515 59.1717L65.9567 66.5348ZM65.9567 66.5348L61.9712 70.5365L61.1069 93.8334L64.7167 99.765L68.4027 94.6611L69.8467 71.4264L65.9567 66.5348Z" stroke="black" stroke-width="0.8"/>
    </g>
    <defs>
        <clipPath id="clip0_755_7172">
            <rect width="117" height="121" fill="white"/>
        </clipPath>
    </defs>
</svg>
