<svg width="124" height="121" viewBox="0 0 124 121" fill="none" xmlns="http://www.w3.org/2000/svg">
<path d="M57.9972 107.211C57.8156 109.791 60.8426 110.671 62.2351 109.287C62.5983 108.91 62.8405 108.407 62.8405 107.778C63.0826 103.94 66.7344 90.8062 68.0057 87.2205C68.1268 86.9689 68.1874 86.6543 68.3084 86.4027C66.5527 86.0253 64.9787 85.6478 63.5257 85.1446C61.9516 89.0448 58.2999 102.619 57.9972 106.708C57.9972 106.834 57.9972 107.023 57.9972 107.211Z" fill="black" stroke="black" stroke-width="0.8" stroke-miterlimit="10"/>
<path d="M55.3259 108.202L64.8766 107.945L65.1992 120.101L41.9679 120.294L41.8389 117.528C41.8389 117.528 43.3231 112.254 55.3905 113.669L55.3259 108.202Z" fill="#F96F6F" stroke="black" stroke-width="0.8" stroke-miterlimit="10"/>
<path d="M48.5501 113.605C42.7423 114.441 41.8389 117.528 41.8389 117.528L41.9679 120.294L50.2925 120.23C50.0344 117.914 49.5181 115.728 48.5501 113.605Z" fill="white" stroke="black" stroke-width="0.8" stroke-miterlimit="10"/>
<path d="M65.0702 117.143L41.8389 117.529L41.9679 120.294L65.1992 120.101L65.0702 117.143Z" fill="white" stroke="black" stroke-width="0.8" stroke-miterlimit="10"/>
<path d="M55.5197 110.39V110.068L59.6497 109.939V110.261L55.5197 110.39Z" fill="white"/>
<path d="M59.6464 112.082L55.5822 112.187L55.5888 112.444L59.6531 112.34L59.6464 112.082Z" fill="white"/>
<path d="M59.8433 110.325C59.9859 110.325 60.1015 110.21 60.1015 110.068C60.1015 109.925 59.9859 109.81 59.8433 109.81C59.7008 109.81 59.5852 109.925 59.5852 110.068C59.5852 110.21 59.7008 110.325 59.8433 110.325Z" fill="white" stroke="white" stroke-width="0.8" stroke-miterlimit="10"/>
<path d="M59.9075 112.448C60.0501 112.448 60.1657 112.333 60.1657 112.19C60.1657 112.048 60.0501 111.933 59.9075 111.933C59.765 111.933 59.6494 112.048 59.6494 112.19C59.6494 112.333 59.765 112.448 59.9075 112.448Z" fill="white" stroke="white" stroke-width="0.8" stroke-miterlimit="10"/>
<path d="M84.3327 87.7853C85.1198 91.434 84.834 103.496 88.9338 106.079C91.3555 108.281 94.322 108.721 97.1674 107.967C101.103 106.897 103.645 104.318 104.674 103.06L104.735 102.934C105.401 101.99 105.461 100.795 104.977 99.8515C104.614 99.1596 104.009 98.6563 103.282 98.4676C102.858 98.3418 102.434 98.4047 102.071 98.5934C101.89 98.6563 101.768 98.7821 101.647 98.9079C100.073 100.606 95.109 105.136 91.1738 101.047C90.2052 100.103 89.4182 89.358 88.9338 87.5966C87.4203 87.7224 85.9068 87.7853 84.3327 87.7853Z" fill="black" stroke="black" stroke-width="0.8" stroke-miterlimit="10"/>
<path d="M105.475 105.466L99.2512 98.2174L108.481 90.2996L123.284 108.205L121.219 110.05C121.219 110.05 116.19 112.225 109.677 101.968L105.475 105.466Z" fill="#F96F6F" stroke="black" stroke-width="0.8" stroke-miterlimit="10"/>
<path d="M113.941 107.316C118.253 111.296 121.219 110.05 121.219 110.05L123.284 108.205L117.983 101.786C116.349 103.447 114.978 105.227 113.941 107.316Z" fill="white" stroke="black" stroke-width="0.8" stroke-miterlimit="10"/>
<path d="M106.267 92.2659L121.219 110.05L123.284 108.205L108.481 90.2996L106.267 92.2659Z" fill="white" stroke="black" stroke-width="0.8" stroke-miterlimit="10"/>
<path d="M107.05 103.936L106.8 104.139L104.095 101.016L104.345 100.813L107.05 103.936Z" fill="white"/>
<path d="M105.761 99.6664L108.405 102.754L108.601 102.587L105.956 99.4988L105.761 99.6664Z" fill="white"/>
<path d="M104.273 100.622C104.183 100.511 104.021 100.494 103.91 100.584C103.8 100.674 103.783 100.836 103.873 100.947C103.963 101.057 104.126 101.074 104.236 100.984C104.347 100.895 104.363 100.732 104.273 100.622Z" fill="white" stroke="white" stroke-width="0.8" stroke-miterlimit="10"/>
<path d="M105.88 99.2329C105.79 99.1223 105.628 99.1054 105.517 99.1951C105.407 99.2849 105.39 99.4474 105.48 99.558C105.57 99.6686 105.732 99.6855 105.843 99.5958C105.953 99.506 105.97 99.3435 105.88 99.2329Z" fill="white" stroke="white" stroke-width="0.8" stroke-miterlimit="10"/>
<path d="M41.6019 60.0692L41.6018 60.0691C41.2447 58.9612 40.29 57.9895 39.1536 57.1042C38.1979 56.3597 37.0608 55.638 35.9373 54.9248C35.7151 54.7837 35.4934 54.643 35.2737 54.5025C33.9293 53.6425 32.6589 52.7899 31.7244 51.8902C30.8399 51.0388 30.3117 50.1978 30.2541 49.3238L30.2578 49.3201V49.1553C30.2578 48.2239 30.7952 47.3325 31.7333 46.4294C32.6678 45.5298 33.9382 44.6771 35.2826 43.8172C35.5023 43.6767 35.724 43.5359 35.9463 43.3948C37.0698 42.6816 38.2068 41.9599 39.1625 41.2154C40.2989 40.3302 41.2536 39.3584 41.6107 38.2506L41.6107 38.2504C41.9776 37.1107 41.7862 35.7364 41.3918 34.3271C41.0464 33.0933 40.5262 31.771 40.0161 30.4747C39.9398 30.2809 39.8638 30.0876 39.7886 29.8954C39.2047 28.4021 38.672 26.9672 38.4321 25.7005C38.1907 24.4261 38.2645 23.4153 38.7804 22.6991C39.3027 21.9764 40.2381 21.5903 41.5168 21.4261C42.7892 21.2628 44.3097 21.33 45.8996 21.43C46.1175 21.4437 46.3367 21.458 46.5566 21.4724C47.9242 21.5617 49.3166 21.6527 50.5715 21.6068C52.0183 21.5538 53.3704 21.3184 54.3239 20.618C55.2686 19.9243 55.8989 18.703 56.3891 17.3347C56.8084 16.1642 57.1455 14.8231 57.4776 13.5019C57.5366 13.2671 57.5955 13.033 57.6546 12.8005C58.0505 11.244 58.459 9.76227 59.0115 8.58975C59.5671 7.41085 60.2294 6.62894 61.0847 6.34904L61.0848 6.34899C61.8994 6.08204 62.859 6.32446 63.9784 6.95468C65.0902 7.5806 66.2732 8.53915 67.5001 9.56495C67.6391 9.68111 67.7785 9.79811 67.9185 9.91549C69.0016 10.8241 70.1109 11.7546 71.194 12.4824C72.4093 13.299 73.6593 13.9088 74.8666 13.9088C76.0735 13.9088 77.3239 13.3004 78.5401 12.4855C79.6234 11.7596 80.7331 10.8316 81.8167 9.9254C81.9573 9.80784 82.0974 9.69064 82.237 9.57431C83.465 8.55078 84.6491 7.5944 85.7617 6.97009C86.8819 6.34151 87.8423 6.09986 88.6572 6.36692L88.6574 6.36697C89.5125 6.64684 90.1743 7.42864 90.7292 8.60752C91.281 9.78003 91.6887 11.2617 92.0841 12.8183C92.1425 13.0482 92.2006 13.2798 92.2589 13.512C92.5912 14.8357 92.9287 16.1798 93.3492 17.3527C93.8398 18.7211 94.4713 19.9424 95.4183 20.6361C96.3719 21.3364 97.7238 21.5717 99.1705 21.6247C100.425 21.6706 101.818 21.5797 103.185 21.4903C103.405 21.476 103.625 21.4616 103.842 21.4479C105.432 21.348 106.953 21.2807 108.225 21.4441C109.504 21.6083 110.44 21.9945 110.962 22.7174C111.478 23.4336 111.551 24.4443 111.31 25.7184C111.07 26.9851 110.537 28.42 109.953 29.9133C109.878 30.1056 109.802 30.2988 109.726 30.4926C109.216 31.7889 108.696 33.1112 108.35 34.3451C107.956 35.7544 107.764 37.1287 108.131 38.2684L108.131 38.2685C108.488 39.3764 109.443 40.3481 110.58 41.2333C111.535 41.9778 112.672 42.6996 113.796 43.4128C114.018 43.5539 114.24 43.6946 114.459 43.8351C115.804 44.695 117.074 45.5477 118.009 46.4474C118.947 47.3505 119.484 48.2418 119.484 49.1733C119.484 50.1047 118.947 50.9961 118.009 51.8992C117.074 52.7988 115.804 53.6515 114.459 54.5114C114.24 54.6519 114.018 54.7927 113.796 54.9338C112.672 55.647 111.535 56.3687 110.58 57.1132C109.443 57.9984 108.488 58.9702 108.131 60.078L108.131 60.0782C107.764 61.2179 107.956 62.5922 108.35 64.0015C108.696 65.2354 109.216 66.5576 109.726 67.8539C109.802 68.0477 109.878 68.241 109.953 68.4332C110.537 69.9265 111.07 71.3614 111.31 72.6281C111.551 73.9025 111.478 74.9133 110.962 75.6295C110.439 76.3522 109.504 76.7383 108.225 76.9025C106.953 77.0658 105.432 76.9986 103.842 76.8986C103.625 76.8849 103.405 76.8706 103.186 76.8562C101.818 76.7669 100.426 76.6759 99.1705 76.7218C97.7237 76.7748 96.3717 77.0102 95.4182 77.7106C94.4734 78.4043 93.8431 79.6256 93.3529 80.9939C92.9336 82.1645 92.5965 83.5055 92.2644 84.8267C92.2054 85.0615 92.1466 85.2956 92.0874 85.5281C91.6915 87.0846 91.283 88.5663 90.7305 89.7389C90.1751 90.9175 89.513 91.6993 88.658 91.9794C87.8428 92.2446 86.8822 92.0018 85.7618 91.3727C84.6491 90.7479 83.4649 89.7918 82.2369 88.7688C82.0984 88.6534 81.9593 88.5372 81.8198 88.4206C80.7352 87.5141 79.6244 86.5857 78.54 85.8597C77.3238 85.0454 76.0734 84.4377 74.8666 84.4377C73.6596 84.4377 72.4092 85.0461 71.193 85.861C70.1097 86.587 68.9999 87.515 67.9163 88.4213C67.7758 88.5388 67.6357 88.6559 67.4961 88.7722C66.2681 89.7958 65.084 90.7521 63.9714 91.3764C62.8512 92.005 61.8909 92.2467 61.0759 91.9796L61.0758 91.9796C60.2206 91.6997 59.5588 90.9179 59.004 89.739C58.4521 88.5665 58.0445 87.0848 57.6491 85.5282C57.5907 85.2983 57.5325 85.0667 57.4742 84.8345C57.1419 83.5108 56.8044 82.1667 56.3839 80.9939C55.8933 79.6253 55.2617 78.4039 54.3146 77.7103M41.6019 60.0692L38.7715 75.6206C39.2938 76.3432 40.2292 76.7293 41.508 76.8936C42.7804 77.0572 44.3009 76.9902 45.8908 76.8907C46.1065 76.8773 46.3234 76.8632 46.541 76.8491C47.9109 76.7601 49.3058 76.6695 50.563 76.7167C52.0094 76.7709 53.3611 77.008 54.3146 77.7103M41.6019 60.0692C41.9687 61.2089 41.7773 62.5832 41.3829 63.9925C41.0375 65.2264 40.5173 66.5487 40.0072 67.845C39.931 68.0388 39.8549 68.232 39.7798 68.4243C39.1958 69.9175 38.6631 71.3524 38.4232 72.6192C38.1819 73.8933 38.2555 74.9039 38.7712 75.6201L41.6019 60.0692ZM54.3146 77.7103L54.0782 78.033L54.3156 77.711C54.3152 77.7108 54.3149 77.7105 54.3146 77.7103Z" fill="#ACBFFF" stroke="black" stroke-width="0.8"/>
<path d="M77.6725 37.697C77.9975 32.6985 79.559 28.4891 81.6401 26.6047C82.4644 25.8823 83.3097 25.4663 84.1866 25.5099C87.3872 25.705 89.5815 31.4574 89.1851 38.4102C88.7852 45.312 85.8205 50.7958 82.671 50.5973C81.8453 50.5502 81.0427 50.0912 80.376 49.3665C78.4819 47.2365 77.3545 42.7975 77.6725 37.697Z" fill="white" stroke="black" stroke-width="0.8" stroke-miterlimit="10"/>
<path d="M80.3713 49.3156C83.3899 49.1124 86.0928 44.3133 86.4499 38.2869C86.4359 38.0826 86.473 37.8749 86.4625 37.7217L81.6413 37.1227L86.3649 34.804C85.9028 30.3205 84.0784 26.9546 81.6387 26.6058C79.558 28.4901 78.0002 32.7504 77.6718 37.6976C77.3538 42.7979 78.481 47.2367 80.3713 49.3156Z" fill="black" stroke="black" stroke-width="0.8" stroke-miterlimit="10"/>
<path d="M56.6914 36.4001C57.0164 31.4017 58.578 27.1922 60.659 25.3079C61.4833 24.5854 62.3286 24.1694 63.2055 24.213C66.4061 24.4081 68.6004 30.1606 68.2041 37.1134C67.8042 44.0151 64.8394 49.499 61.6899 49.3004C60.8642 49.2534 60.0616 48.7943 59.3949 48.0696C57.5008 45.9396 56.3735 41.5006 56.6914 36.4001Z" fill="white" stroke="black" stroke-width="0.8" stroke-miterlimit="10"/>
<path d="M59.3937 48.07C62.4122 47.8668 65.1151 43.0677 65.4722 37.0413C65.4582 36.837 65.4954 36.6293 65.4848 36.4761L60.6637 35.877L65.3873 33.5584C64.9252 29.0749 63.1007 25.709 60.661 25.3602C58.5803 27.2445 57.0225 31.5048 56.6941 36.452C56.3727 41.5013 57.4999 45.9401 59.3937 48.07Z" fill="black" stroke="black" stroke-width="0.8" stroke-miterlimit="10"/>
<path d="M73.7445 40.5817L73.5914 42.8494C73.5914 42.8494 73.3867 42.8632 73.332 42.8156C72.0416 42.7487 70.5093 42.9033 70.3107 44.5071C70.1296 46.3662 72.2298 46.9942 73.6282 46.3869" fill="#ACBFFF"/>
<path d="M73.7445 40.5817L73.5914 42.8494C73.5914 42.8494 73.3867 42.8632 73.332 42.8156C72.0416 42.7487 70.5093 42.9033 70.3107 44.5071C70.1296 46.3662 72.2298 46.9942 73.6282 46.3869" stroke="black" stroke-width="0.8" stroke-miterlimit="10"/>
<path d="M75.4342 58.5244C74.5047 59.9724 73.2878 60.978 71.5876 60.9386C69.9387 60.8958 68.8411 59.8923 68.074 58.4561C66.1182 54.6884 66.6358 47.9834 66.6358 47.9834L70.2444 48.0994L74.7816 48.2553L77.9258 48.3513C77.9293 48.4024 77.7561 54.8789 75.4342 58.5244Z" fill="black" stroke="black" stroke-width="0.8" stroke-miterlimit="10"/>
<path d="M75.4663 58.2649C74.5437 59.8151 73.2824 60.9264 71.5821 60.8871C69.933 60.8443 68.8318 59.7896 68.0576 58.251C68.2619 55.9795 70.048 54.2684 72.066 54.4402C73.927 54.5714 75.3774 56.2183 75.4663 58.2649Z" fill="#E30611" stroke="black" stroke-width="0.8" stroke-miterlimit="10"/>
<path d="M66.4403 45.8976C66.8508 46.6394 67.7986 48.4734 67.7143 50.9926C67.5893 53.6684 66.3783 55.4942 65.8576 56.1448" fill="#ACBFFF"/>
<path d="M66.4403 45.8976C66.8508 46.6394 67.7986 48.4734 67.7143 50.9926C67.5893 53.6684 66.3783 55.4942 65.8576 56.1448" stroke="black" stroke-width="0.8" stroke-miterlimit="10"/>
<path d="M78.3415 46.1173C77.9303 46.8632 77.0302 48.7192 77.1504 51.2246C77.2811 53.8831 78.5352 55.6963 79.0443 56.3801" fill="#ACBFFF"/>
<path d="M78.3415 46.1173C77.9303 46.8632 77.0302 48.7192 77.1504 51.2246C77.2811 53.8831 78.5352 55.6963 79.0443 56.3801" stroke="black" stroke-width="0.8" stroke-miterlimit="10"/>
<path d="M40.6172 58.45C41.122 58.8529 41.7416 60.8443 41.7416 60.8443C41.7416 60.8443 40.648 61.2947 39.1637 61.7455C35.165 62.8293 31.22 61.8581 28.0473 59.2352C25.0023 56.7045 22.9337 53.2318 21.0737 49.7936C20.1727 48.1148 19.3008 46.4765 18.5212 44.711C18.1604 43.8686 17.7997 43.0263 17.4389 42.1839C17.0316 41.1916 16.6646 40.1703 16.2863 39.2182C16.2863 39.2182 16.2572 39.1779 16.2282 39.1375C15.8965 38.3355 15.5648 37.5335 15.2621 36.7719C14.7852 35.7681 15.489 34.532 16.4726 34.1962C17.5371 33.8025 18.6501 34.4131 19.0575 35.4055C19.3135 36.0171 19.581 36.5594 19.7966 37.1999C20.233 38.2326 20.658 39.3347 21.0539 40.3964C21.4789 41.4984 21.933 42.6408 22.4679 43.7254C23.2123 45.2716 24.0728 46.9792 24.84 48.3868C26.4616 51.3231 28.3093 54.4035 30.9655 56.4786C33.3666 58.3693 34.6774 59.3454 37.6625 58.13C39.8434 57.2444 39.1826 57.5039 39.1826 57.5039C39.1826 57.5039 39.7407 57.7503 40.6172 58.45Z" fill="black"/>
<path d="M12.4532 40.2504C12.4532 40.2504 -1.68342 27.4791 2.57439 23.9601C2.57439 23.9601 4.15733 22.8295 5.65437 23.9116C5.65437 23.9116 5.18492 19.7052 8.95437 20.8376C11.3037 21.55 11.8947 26.1476 11.8947 26.1476C11.9693 25.696 12.5118 25.2288 12.8433 24.9124C13.6795 24.0761 14.6293 23.3978 15.7304 22.93C17.3295 22.266 19.6168 22.226 20.5414 23.9559C20.5793 24.0086 20.6172 24.0612 20.6023 24.1515C21.27 25.7463 19.7491 27.6294 18.0421 27.2549C16.8262 27.0078 15.3843 27.0018 14.4426 27.9135C13.1545 29.2319 13.8532 31.2029 15.4626 31.886C17.4196 32.7193 20.3079 31.2938 20.3983 27.6437C20.3971 27.0868 20.2525 26.5526 20.4326 26.0256C20.6803 25.3706 21.5177 25.0913 22.1073 25.467C24.1332 26.7291 26.7501 32.5889 20.2944 35.6061" fill="white"/>
<path d="M12.4532 40.2504C12.4532 40.2504 -1.68342 27.4791 2.57439 23.9601C2.57439 23.9601 4.15733 22.8295 5.65437 23.9116C5.65437 23.9116 5.18492 19.7052 8.95438 20.8376C11.3037 21.55 11.8947 26.1476 11.8947 26.1476C11.9693 25.696 12.5118 25.2288 12.8433 24.9124C13.6795 24.0761 14.6293 23.3978 15.7304 22.93C17.3295 22.266 19.6168 22.226 20.5414 23.9559C20.5793 24.0086 20.6172 24.0612 20.6023 24.1515C21.27 25.7463 19.7491 27.6294 18.0421 27.2549C16.8262 27.0078 15.3843 27.0018 14.4426 27.9135C13.1545 29.2319 13.8532 31.2029 15.4626 31.886C17.4196 32.7193 20.3079 31.2938 20.3983 27.6437C20.3971 27.0868 20.2525 26.5526 20.4326 26.0256C20.6803 25.3706 21.5177 25.0913 22.1074 25.467C24.1332 26.7291 26.7501 32.5889 20.2944 35.6061" stroke="black" stroke-width="0.8" stroke-miterlimit="10"/>
<path d="M5.61725 23.8638L8.13197 28.36" stroke="black" stroke-width="0.8" stroke-miterlimit="10"/>
<path d="M18.299 36.9448L20.3275 35.6553C23.0123 34.0566 28.4843 36.4446 19.2298 41.4606C9.9374 46.4238 12.514 40.1202 12.514 40.1202C12.8686 39.9467 13.3665 39.7504 13.7887 39.4489C14.196 39.2376 14.5655 38.9738 14.8443 38.6949" fill="white"/>
<path d="M18.299 36.9448L20.3275 35.6553C23.0123 34.0566 28.4843 36.4446 19.2298 41.4606C9.9374 46.4238 12.514 40.1202 12.514 40.1202C12.8686 39.9467 13.3665 39.7504 13.7887 39.4489C14.196 39.2376 14.5655 38.9738 14.8443 38.6949" stroke="black" stroke-width="0.8" stroke-miterlimit="10"/>
<path d="M43.2183 15.2633L46.0426 16.9404C46.1628 16.8206 48.8069 14.1852 48.8069 14.1852C54.5156 9.0342 67.4355 -0.249594 82.8793 5.14099C90.2106 7.6566 96.2198 13.167 100.366 18.0185C101.147 18.9169 101.868 19.8154 102.529 20.6539C103.731 22.1513 104.693 23.5289 105.414 24.607L108.178 23.1096C104.573 17.8388 96.2198 7.11754 83.6605 2.74518C64.2506 -3.96311 49.0472 9.39357 44.36 14.1253C43.8793 14.6045 43.5187 15.0237 43.2183 15.2633Z" fill="#E30611" stroke="black" stroke-width="0.8" stroke-miterlimit="10"/>
<path d="M45.6217 40.9584C47.124 40.8386 48.5662 40.3594 49.8281 39.5808C49.8882 39.5808 49.8882 39.5209 49.9483 39.5209V15.5028V14.7242C49.8882 14.7242 49.8882 14.6643 49.8281 14.6643C49.0469 14.3049 48.2657 14.0653 47.4244 13.9455C46.8235 13.8856 46.2226 13.8258 45.5616 13.8856C39.5523 14.3049 34.6848 20.7137 34.7449 28.1408C34.7449 35.6876 39.6124 41.3776 45.6217 40.9584Z" fill="#E30611" stroke="black" stroke-width="0.8" stroke-miterlimit="10"/>
<path d="M104.392 44.6719C103.731 44.7318 103.13 44.7318 102.529 44.612C101.928 44.5521 101.328 44.3724 100.727 44.1927C100.606 33.2318 100.426 22.9897 100.366 18.7971C101.568 18.1382 102.89 17.7189 104.212 17.659C110.281 17.1799 115.269 22.8699 115.329 30.297C115.329 37.724 110.462 44.1927 104.392 44.6719Z" fill="#E30611" stroke="black" stroke-width="0.8" stroke-miterlimit="10"/>
<path d="M100.319 62.5293L93.5872 58.5224L89.9157 64.0083L88.4235 66.3003L87.3531 67.9193L78.9396 80.5102L78.6107 85.1216L78.3817 88.333C79.3699 87.8668 80.364 87.3183 81.3523 86.852L85.4881 84.7522L94.0402 71.9644L95.1106 70.3454L96.6028 68.0534L100.319 62.5293Z" fill="#5663F1" stroke="black" stroke-width="0.8" stroke-miterlimit="10"/>
<path d="M78.9322 80.5126L81.206 79.478L81.145 82.0802L83.6576 80.6077L83.3754 83.4007L85.5225 82.3982L85.479 84.7534L78.4186 88.2952L78.9322 80.5126Z" fill="white" stroke="black" stroke-width="0.8" stroke-miterlimit="10"/>
<path d="M78.6453 85.0854C78.7722 85.0532 79.6333 84.6193 80.4741 85.0527C81.3917 85.5745 81.3921 86.733 81.3862 86.8154C80.3982 87.2815 79.4043 87.8299 78.4163 88.2959L78.6453 85.0854Z" fill="black" stroke="black" stroke-width="0.8" stroke-miterlimit="10"/>
<path d="M81.1722 79.5165L94.7838 59.2708" stroke="black" stroke-width="0.8" stroke-miterlimit="10"/>
<path d="M83.6171 80.7262L96.8922 60.5391" stroke="black" stroke-width="0.8" stroke-miterlimit="10"/>
<path d="M85.5245 82.4765L99.0885 61.731" stroke="black" stroke-width="0.8" stroke-miterlimit="10"/>
<path d="M94.2924 57.5346C94.2924 57.5346 96.5677 53.5633 100.116 55.5999C103.703 57.6806 101.021 61.5396 101.021 61.5396L94.2924 57.5346Z" fill="#FF1F33" stroke="black" stroke-width="0.8" stroke-miterlimit="10"/>
<path d="M98.1929 56.4133C97.346 56.0621 96.1984 56.434 95.5496 57.3801C95.411 57.5769 95.1749 57.3942 95.3135 57.1974C96.0566 56.0926 97.458 55.6564 98.3816 56.096C98.5468 56.108 98.3965 56.4695 98.1929 56.4133Z" fill="white"/>
<path d="M98.6318 56.6509C98.4722 56.5565 98.7055 56.2005 98.8592 56.3774C99.063 56.4336 98.8298 56.7896 98.6318 56.6509Z" fill="white"/>
<path d="M93.5994 58.5203L100.364 62.5686L101.019 61.5408L94.2919 57.5367L93.5994 58.5203Z" fill="black" stroke="black" stroke-width="0.8" stroke-miterlimit="10"/>
<path d="M92.914 73.9527C93.1669 74.093 93.4199 74.2333 93.6729 74.3736C95.479 75.2928 97.285 76.212 99.1612 77.0051C100.686 77.6858 102.197 78.3175 103.694 78.9001C103.996 79.0264 104.347 79.1388 104.649 79.2651C108.057 80.5778 112.449 81.9822 115.995 80.443C121.472 78.0362 118.396 70.8447 116.356 67.0734C114.091 62.8886 112.194 62.0307 108.791 58.7L108.081 60.5787L108.083 62.7061C109.749 64.6202 111.425 66.937 112.642 69.1381C113.226 70.2456 113.775 71.4162 114.211 72.5657C114.528 73.4838 114.95 74.5843 114.86 75.5652C114.874 75.6143 114.762 75.9645 114.776 76.0136C114.741 76.0766 114.706 76.1397 114.706 76.1397C114.671 76.2027 114.551 76.3428 114.502 76.3568L114.453 76.3708C114.186 76.5528 113.484 76.6994 113.175 76.7343C112.121 76.7686 111.025 76.6557 109.936 76.3817C107.611 75.8756 105.243 74.851 103.015 73.9455C102.109 73.5665 101.266 73.2226 100.408 72.8296C99.4244 72.3664 98.4406 71.9033 97.4568 71.4402C96.7119 71.0683 95.967 70.6964 95.2713 70.3105C94.7731 70.9829 94.324 71.6412 93.9382 72.3347C93.5734 72.9161 93.2437 73.4344 92.914 73.9527Z" fill="black"/>
<path d="M100.867 70.7756C100.49 70.6741 100.461 69.8477 100.415 69.4436C100.218 67.0651 98.1824 65.0701 96.7368 64.1593C96.1568 63.8372 94.3243 62.5495 93.1841 62.943C90.7104 63.7848 93.4384 67.4611 94.2587 68.619C93.5869 68.4621 93.4396 68.4344 93.2924 68.4067C92.9979 68.3513 92.685 68.2315 92.3261 68.1944C91.7831 68.0009 91.1942 67.89 90.6511 67.6965C89.3349 67.2358 88.129 66.6743 86.8128 66.2136C85.9568 65.9004 84.5762 65.458 83.7859 66.0998C83.2161 66.5399 83.3091 67.3481 83.4296 68.0093C83.4296 68.0093 83.4296 68.0093 83.4481 68.0736C83.4481 68.0736 80.7443 68.8418 82.7074 71.5529C82.404 71.7087 82.0822 71.8001 81.963 72.1122C81.4308 73.1675 82.7208 74.7485 83.3474 75.4746C84.923 77.3222 87.1793 79.1154 89.361 80.1648C91.2114 81.0302 93.2357 81.2897 95.2498 80.787C95.636 80.6773 96.0223 80.5676 96.4086 80.4578C96.7304 80.3664 97.3002 79.9263 97.5947 79.9817C97.5947 79.9817 97.7241 80.4318 97.7426 80.4961C97.9179 80.8636 98.1575 81.2129 98.4431 81.4795C99.1155 82.1231 100.146 82.3171 100.973 81.8039C102.214 81.034 102.553 79.5469 102.882 78.2709C103.267 76.7011 103.817 75.2234 104.284 73.6997C105.75 69.1102 102.163 70.1986 101.685 70.4735C100.913 70.693 101.079 70.785 100.867 70.7756Z" fill="white" stroke="black" stroke-width="0.8" stroke-miterlimit="10"/>
<path d="M91.5955 71.9595C91.5955 71.9595 86.23 70.4931 83.4115 67.9553" stroke="black" stroke-width="0.8" stroke-miterlimit="10"/>
<path d="M82.6019 71.4521C82.6019 71.4521 86.5615 74.5693 89.6997 75.5555" stroke="black" stroke-width="0.8" stroke-miterlimit="10"/>
<path d="M100.772 70.6584L100.168 72.4293" stroke="black" stroke-width="0.8" stroke-miterlimit="10"/>
<path d="M98.0481 78.1733L97.6181 79.8249" stroke="black" stroke-width="0.8" stroke-miterlimit="10"/>
</svg>
