<svg width="117" height="121" viewBox="0 0 117 121" fill="none" xmlns="http://www.w3.org/2000/svg">
    <g clip-path="url(#clip0_722_4761)">
        <path d="M38.1698 57.439C47.976 71.5894 49.1296 92.7506 45.7211 110.181C44.8821 114.362 39.5857 112.818 40.4247 108.638C43.3089 93.7798 42.9418 74.5481 34.4467 62.3274C32.1918 59.1114 35.8625 54.1587 38.1698 57.439Z" fill="black"/>
        <path d="M39.5152 112.268C39.5152 112.268 36.3564 109.545 42.8396 109.535C49.7785 109.518 45.3291 112.337 45.3291 112.337L46.3366 112.931C46.3366 112.931 53.9452 107.27 56.5815 113.153C59.2177 119.035 51.1573 119.851 46.2385 119.827C41.3196 119.803 35.9444 120.757 39.5152 112.268Z" fill="#E30611" stroke="black" stroke-width="0.8" stroke-miterlimit="10"/>
        <path d="M39.5154 112.267C39.5154 112.267 40.5833 112.877 42.301 112.755L39.5154 112.267Z" fill="black"/>
        <path d="M39.5154 112.267C39.5154 112.267 40.5833 112.877 42.301 112.755" stroke="black" stroke-width="0.8" stroke-miterlimit="10"/>
        <path d="M44.1556 112.605C44.1556 112.605 44.5346 112.642 45.2848 112.261L44.1556 112.605Z" fill="black"/>
        <path d="M44.1556 112.605C44.1556 112.605 44.5346 112.642 45.2848 112.261" stroke="black" stroke-width="0.8" stroke-miterlimit="10"/>
        <path d="M46.3367 112.93L44.0409 114.968" stroke="black" stroke-width="0.8" stroke-miterlimit="10"/>
        <path d="M46.3364 112.93L46.1127 115.458" stroke="black" stroke-width="0.8" stroke-miterlimit="10"/>
        <path d="M54.8086 60.5781C64.7732 74.2498 65.9455 94.6952 62.4818 111.536C61.6293 115.576 56.2473 114.084 57.0999 110.045C60.0307 95.6895 59.6577 77.1085 51.0253 65.3011C48.734 62.1939 52.5173 57.4088 54.8086 60.5781Z" fill="black"/>
        <path d="M56.3754 112.295C56.3754 112.295 53.2364 109.576 59.7089 109.532C66.6362 109.478 62.1792 112.335 62.1792 112.335L63.1818 112.926C63.1818 112.926 70.8079 107.197 73.4083 113.094C76.0087 118.991 67.9575 119.854 63.047 119.856C58.1365 119.858 52.7652 120.845 56.3754 112.295Z" fill="#E30611" stroke="black" stroke-width="0.8" stroke-miterlimit="10"/>
        <path d="M56.3475 112.271C56.3475 112.271 57.4131 112.883 59.1327 112.75L56.3475 112.271Z" fill="black"/>
        <path d="M56.3475 112.271C56.3475 112.271 57.4131 112.883 59.1327 112.75" stroke="black" stroke-width="0.8" stroke-miterlimit="10"/>
        <path d="M60.9873 112.609C60.9873 112.609 61.3654 112.644 62.1165 112.257L60.9873 112.609Z" fill="black"/>
        <path d="M60.9873 112.609C60.9873 112.609 61.3654 112.644 62.1165 112.257" stroke="black" stroke-width="0.8" stroke-miterlimit="10"/>
        <path d="M63.1683 112.923L60.8726 114.976" stroke="black" stroke-width="0.8" stroke-miterlimit="10"/>
        <path d="M63.1735 112.93L62.9389 115.458" stroke="black" stroke-width="0.8" stroke-miterlimit="10"/>
        <path d="M69.912 111.56C70.1355 111.684 70.359 111.808 70.5059 111.977C70.7295 112.101 70.8764 112.27 71.0233 112.439C71.3772 112.792 71.671 113.13 71.8116 113.557C72.0289 113.94 72.1529 114.428 72.217 114.901C72.281 115.373 72.2685 115.891 72.2725 116.348L72.3325 116.363C72.3988 116.12 72.4051 115.862 72.4714 115.619C72.4777 115.36 72.544 115.117 72.4902 114.843C72.5028 114.325 72.3187 113.821 72.118 113.378C71.6567 112.475 70.8558 111.874 69.912 111.56Z" fill="white"/>
        <path d="M6.29646 32.4623C7.21463 32.2783 8.40825 32.8761 8.54598 33.8878C9.41824 40.4635 10.52 46.9473 12.6318 53.2471C13.4582 55.6843 14.6059 58.3054 16.7177 59.9148C18.8754 61.6162 21.4922 61.9841 24.1549 61.9381C27.4603 61.8462 30.6739 61.2024 33.9793 61.1104C34.9893 61.0644 35.8156 62.1221 35.7697 63.0877C35.7238 64.0994 34.8057 64.7891 33.7957 64.7891C27.7357 65.0191 21.2167 67.0884 15.6159 63.6855C12.9073 62.0301 11.0709 59.363 9.87733 56.512C8.6378 53.523 7.76553 50.3501 6.98509 47.2232C5.9751 43.0846 5.37829 38.8541 4.82739 34.6695C4.73557 33.6579 5.24056 32.6922 6.29646 32.4623Z" fill="black"/>
        <path d="M6.52625 32.3246C6.52625 32.3246 7.62805 22.7139 10.9794 23.3117C13.5962 23.8175 10.7957 33.0143 10.7957 33.0143L6.52625 32.3246Z" fill="white" stroke="black" stroke-width="0.8" stroke-miterlimit="10"/>
        <path d="M3.17488 32.4624C3.17488 32.4624 -1.0028 23.9094 2.34852 23.3116C5.69985 22.7138 6.80165 32.0026 6.80165 32.0026L3.17488 32.4624Z" fill="white" stroke="black" stroke-width="0.8" stroke-miterlimit="10"/>
        <path d="M11.8516 33.5659C11.8516 33.5659 14.9275 37.6125 11.2089 40.1876C11.2089 40.1876 13.1371 41.6591 10.8416 42.7627C8.5462 43.8664 3.45035 44.2342 4.36852 41.4752C4.36852 41.4752 -0.819138 39.4059 1.38447 33.9338L11.8516 33.5659Z" fill="white" stroke="black" stroke-width="0.8" stroke-miterlimit="10"/>
        <path d="M11.2548 40.1418C11.2548 40.1418 10.0611 40.8776 9.00525 41.0615" stroke="black" stroke-width="0.8" stroke-miterlimit="10"/>
        <path d="M6.61755 41.3833C6.61755 41.3833 5.69938 41.6128 4.41394 41.4751" stroke="black" stroke-width="0.8" stroke-miterlimit="10"/>
        <path d="M0.787607 31.5428C1.33851 31.2669 2.11895 31.3588 2.66986 31.6807C3.49621 32.1406 3.95529 33.1062 4.23075 33.9799C4.46029 34.7157 4.55211 35.6813 3.81757 36.2331C2.76167 36.9689 1.70578 36.1872 1.01715 35.3594C0.37443 34.5777 -0.176472 33.4741 0.0530703 32.4624C0.190796 32.0026 0.466247 31.6807 0.787607 31.5428Z" fill="white" stroke="black" stroke-width="0.8" stroke-miterlimit="10"/>
        <path d="M11.8974 33.6121C10.107 31.7268 5.88342 31.9107 4.36844 32.0027C3.49618 32.0486 2.57801 32.2786 2.30256 33.1063C1.29257 35.8653 7.49022 36.693 7.49022 36.693C7.49022 36.693 6.93932 38.6704 8.68385 39.1762" fill="white"/>
        <path d="M11.8974 33.6121C10.107 31.7268 5.88342 31.9107 4.36844 32.0027C3.49618 32.0486 2.57801 32.2786 2.30256 33.1063C1.29257 35.8653 7.49022 36.693 7.49022 36.693C7.49022 36.693 6.93932 38.6704 8.68384 39.1762" stroke="black" stroke-width="0.8" stroke-miterlimit="10"/>
        <path d="M45.5709 25.6685C50.0358 17.9352 61.1979 17.9352 65.6627 25.6685L92.5588 72.2538C97.0236 79.9872 91.4426 89.6538 82.5129 89.6538H28.7208C19.7911 89.6538 14.21 79.9872 18.6749 72.2538L45.5709 25.6685Z" fill="#D9D9D9" stroke="black" stroke-width="0.8"/>
        <path d="M50.6718 71.179C53.5182 73.2482 57.2368 73.7081 60.5881 72.7884C61.7817 72.4665 63.0671 71.9147 64.2148 71.133C66.0053 69.9374 67.3366 68.236 67.2907 66.0287C67.1989 64.0054 65.6839 63.4536 63.8935 63.4536C62.3326 63.4536 60.5422 63.9135 59.4404 64.1894C58.4763 64.4193 57.5581 64.6032 56.5481 64.5572C54.9872 64.4653 53.5182 63.7755 52.0032 63.5916C51.6818 63.5456 51.3605 63.5456 50.9932 63.5916C49.9373 63.6376 48.7437 63.9135 48.055 64.6032C46.0351 66.5805 49.1109 69.9834 50.6718 71.179Z" fill="black" stroke="black" stroke-width="0.8" stroke-miterlimit="10"/>
        <path d="M50.6718 71.1787C53.5182 73.248 57.2368 73.7079 60.5881 72.7882C61.7817 72.4663 63.0671 71.9145 64.2148 71.1328C62.8376 69.2474 60.3126 68.0058 57.4663 68.0058C54.5281 67.9598 52.0491 69.2474 50.6718 71.1787Z" fill="#E30611" stroke="black" stroke-width="0.8" stroke-miterlimit="10"/>
        <path d="M77.8732 50.7878C77.3374 47.5075 74.4297 45.2053 71.1709 45.3492C70.8668 45.3486 70.6144 45.3769 70.3217 45.4167C66.7632 46.0368 64.3731 49.4099 64.9482 52.9833C65.5635 56.5452 68.9299 58.9343 72.4997 58.3544C72.7924 58.3147 73.0737 58.2348 73.355 58.1549C76.4268 57.1951 78.4203 54.1084 77.8732 50.7878Z" fill="white" stroke="black" stroke-width="0.8" stroke-miterlimit="10"/>
        <path d="M73.355 58.1549C72.4114 57.1195 71.5839 55.5732 71.0439 53.8148L75.0609 51.2829L70.4172 50.2126C70.3306 48.3689 70.6223 46.6348 71.1709 45.3492C74.3895 45.2168 77.2973 47.519 77.8732 50.7879C78.4204 54.1085 76.4268 57.1952 73.355 58.1549Z" fill="black" stroke="black" stroke-width="0.8" stroke-miterlimit="10"/>
        <path d="M50.0554 50.3333C49.5716 47.0444 46.701 44.6955 43.4407 44.787C43.1367 44.7816 42.8838 44.8058 42.5906 44.8408C39.0232 45.4037 36.5802 48.7383 37.0986 52.3208C37.6574 55.8926 40.9852 58.3358 44.5634 57.8133C44.8566 57.7783 45.1391 57.7029 45.4217 57.6275C48.5079 56.7172 50.5498 53.6627 50.0554 50.3333Z" fill="white" stroke="black" stroke-width="0.8" stroke-miterlimit="10"/>
        <path d="M45.4216 57.6276C44.4946 56.5771 43.6918 55.0175 43.1797 53.2504L47.2358 50.7832L42.6102 49.6383C42.5527 47.7932 42.8718 46.0639 43.4406 44.7871C46.6606 44.7064 49.5312 47.0553 50.0553 50.3335C50.5498 53.6628 48.5078 56.7173 45.4216 57.6276Z" fill="black" stroke="black" stroke-width="0.8" stroke-miterlimit="10"/>
        <circle cx="8.75465" cy="8.75465" r="8.35465" transform="matrix(-1 0 0 1 82.3713 42.9546)" stroke="black" stroke-width="0.8"/>
        <circle cx="8.75465" cy="8.75465" r="8.35465" transform="matrix(-1 0 0 1 54.4608 42.262)" stroke="black" stroke-width="0.8"/>
        <rect width="10.2859" height="0.692716" transform="matrix(-1 0 0 1 64.7554 51.0166)" fill="black"/>
        <path d="M57.864 53.4036L58.2353 56.3164C58.2353 56.3164 62.8758 55.4488 63.1852 57.8658C63.4945 60.2829 58.0496 59.911 58.0496 59.911" fill="#D9D9D9"/>
        <path d="M57.864 53.4036L58.2353 56.3164C58.2353 56.3164 62.8758 55.4488 63.1852 57.8658C63.4945 60.2829 58.0496 59.911 58.0496 59.911" stroke="black" stroke-width="0.8" stroke-miterlimit="10"/>
        <path d="M86.4428 82.9955C85.9813 80.3354 83.5678 78.8535 81.0257 79.7372C78.4769 80.583 76.7776 83.4394 77.2016 86.1056C77.6631 88.7657 80.0766 90.2476 82.6187 89.3639C85.1675 88.5181 86.9043 85.6556 86.4428 82.9955ZM81.994 87.3165C80.4674 87.8392 79.003 86.9449 78.7261 85.3488C78.4492 83.7528 79.4653 82.063 80.9919 81.5403C82.5185 81.0176 83.9829 81.9119 84.2598 83.508C84.5367 85.1041 83.5272 86.8319 81.994 87.3165Z" fill="#F96F6F" stroke="black" stroke-width="0.8" stroke-miterlimit="10"/>
        <path d="M79.1858 77.555C79.1858 77.555 81.3881 93.3675 69.1269 94.5075C57.51 95.5815 56.5147 79.6112 56.5147 79.6112L79.1858 77.555Z" fill="#F96F6F" stroke="black" stroke-width="0.8" stroke-miterlimit="10"/>
        <path d="M79.2509 77.5982C79.0606 75.7317 73.8235 74.6831 67.5536 75.2562C61.2837 75.8293 56.3553 77.807 56.5456 79.6736C56.7359 81.5401 61.9729 82.5886 68.2428 82.0155C74.5127 81.4424 79.4412 79.4647 79.2509 77.5982Z" fill="#F96F6F" stroke="black" stroke-width="0.8" stroke-miterlimit="10"/>
        <path d="M57.2877 80.7361C56.8519 80.4522 56.6042 80.1374 56.5005 79.7593C58.0358 77.8868 60.4159 77.1002 63.1601 77.755C65.2625 78.2784 66.7959 79.093 68.853 78.0039C70.9411 76.8701 72.5843 75.8491 75.1271 76.4581C76.4174 76.7595 78.0021 76.973 79.2765 77.6325C79.3615 79.4756 74.4727 81.4256 68.259 81.9736C63.5329 82.3955 59.3896 81.9312 57.54 80.8526" fill="black"/>
        <path d="M57.2877 80.7361C56.8519 80.4522 56.6042 80.1374 56.5005 79.7593C58.0358 77.8868 60.4159 77.1002 63.1601 77.755C65.2625 78.2784 66.7959 79.093 68.853 78.0039C70.9411 76.8701 72.5843 75.8491 75.1271 76.4581C76.4174 76.7595 78.0021 76.973 79.2765 77.6325C79.3615 79.4756 74.4727 81.4256 68.259 81.9736C63.5329 82.3955 59.3896 81.9312 57.54 80.8526" stroke="black" stroke-width="0.8" stroke-miterlimit="10"/>
        <path d="M72.6514 77.2418C73.4835 76.9086 74.4059 76.8747 75.286 77.0443C76.166 77.2139 77.0038 77.5869 77.7794 78.0487C77.912 78.1447 77.7944 78.3605 77.6619 78.2644C76.8928 77.8409 76.0993 77.4999 75.2568 77.3241C74.4144 77.1484 73.5362 77.2142 72.6974 77.5093C72.5535 77.5722 72.5075 77.3048 72.6514 77.2418Z" fill="white"/>
        <path d="M57.2814 80.7844C57.572 80.2255 57.9887 79.7245 58.5069 79.364C59.1559 78.8641 59.9195 78.5812 60.7471 78.4451C61.2361 78.3646 61.7007 78.3668 62.2095 78.4011C62.3665 78.4145 62.3684 78.6501 62.2113 78.6366C60.6408 78.5019 59.0186 78.9654 57.9924 80.1957C57.7996 80.424 57.6444 80.6461 57.5334 80.9002L57.2814 80.7844Z" fill="white"/>
        <path d="M71.6709 77.4261C71.7771 77.3694 71.8899 77.3509 71.9961 77.2942C72.0713 77.2818 72.1155 77.3138 72.1663 77.384C72.1795 77.4603 72.1484 77.5047 72.0798 77.5552C72.0046 77.5676 71.8984 77.6243 71.8232 77.6366L71.7856 77.6428C71.748 77.6489 71.7104 77.6551 71.7104 77.6551C71.6728 77.6613 71.6662 77.6231 71.622 77.5911C71.6154 77.5529 71.6089 77.5148 71.6089 77.5148C71.6399 77.4704 71.6709 77.4261 71.6709 77.4261Z" fill="white"/>
        <path d="M62.9296 78.4716C63.0799 78.447 63.2057 78.5047 63.3382 78.6006C63.3824 78.6325 63.4331 78.7026 63.3711 78.7912C63.3401 78.8355 63.2715 78.8859 63.1832 78.822C63.1457 78.8282 63.1391 78.79 63.1015 78.7962C63.0574 78.7643 63.0198 78.7704 62.9822 78.7766C62.9446 78.7828 62.9446 78.7828 62.9071 78.7889C62.8319 78.8012 62.7812 78.7312 62.768 78.6549C62.8234 78.5282 62.8544 78.484 62.9296 78.4716Z" fill="white"/>
        <path d="M76.833 78.6831C77.3859 79.4494 77.8776 80.3037 78.2578 81.1761C78.5244 81.8335 78.9986 82.8074 78.4587 83.4409C78.1396 83.8047 77.5757 83.858 77.1823 83.5718C76.7386 83.216 76.6643 82.5661 76.6098 82.0299C76.5006 80.9573 76.6209 79.8861 76.8155 78.8028C76.8155 78.8028 76.8089 78.765 76.833 78.6831Z" fill="black" stroke="black" stroke-width="0.8" stroke-miterlimit="10"/>
        <path d="M76.8234 81.5642C76.8474 81.4824 76.9086 81.3945 76.9894 81.4202C77.0702 81.4459 77.1576 81.5095 77.1335 81.5913C77.1051 81.8685 77.1073 82.1017 77.1903 82.3607C77.2667 82.5818 77.3868 82.8347 77.5987 82.9558C77.6795 82.9815 77.6991 83.0951 77.638 83.183C77.5768 83.2708 77.5026 83.283 77.4152 83.2194C77.1597 83.0665 76.9894 82.744 76.8998 82.4472C76.8169 82.1882 76.7579 81.8474 76.8234 81.5642Z" fill="white"/>
        <path d="M114.92 79.2405C112.588 82.7821 107.625 83.7728 103.73 84.4181C102.237 84.6695 100.733 84.8291 99.2235 84.9429C98.5399 85.0155 97.8057 85.047 97.122 85.1196C97.0765 85.1244 97.0765 85.1244 97.0309 85.1292C96.2511 85.1656 95.4257 85.2068 94.6509 85.2891C94.1952 85.3375 93.78 85.3351 93.3242 85.3835C92.9596 85.4222 92.59 85.415 92.2254 85.4537C89.8859 85.5629 87.5515 85.7179 85.2322 86.0104C84.2295 86.1169 83.2172 85.714 82.9598 84.6278C82.9447 84.4902 82.9296 84.3526 82.9146 84.2151C82.9152 83.3799 83.4578 82.4408 84.3237 82.3489C84.6427 82.315 84.9618 82.2812 85.2808 82.2473C85.4175 82.2328 85.5542 82.2183 85.691 82.2038C88.5622 81.899 91.4536 81.7777 94.2943 81.6153C94.983 81.5886 95.6211 81.5209 96.3097 81.4942C96.5832 81.4652 96.811 81.441 97.0895 81.4578C97.8693 81.4215 98.6897 81.3344 99.4645 81.2522C101.839 81.0465 104.194 80.6573 106.483 80.0896C108.053 79.691 109.436 79.2658 110.713 78.2952C111.184 77.9668 111.554 77.5564 111.782 77.1146C111.706 77.2619 111.904 76.545 111.879 76.7332C111.894 76.4532 111.879 76.3156 111.823 76.2288C111.298 74.7999 109.714 73.8082 108.484 73.1036C105.285 71.2626 101.549 70.4065 97.9548 69.5817C93.6465 68.5544 94.6946 68.6677 90.4264 67.985C90.4264 67.985 89.6323 66.5515 89.2585 65.9308C88.6572 64.9324 88.0712 63.8342 88.0712 63.8342C90.2736 64.1572 96.1455 65.2735 98.3224 65.7847C102.347 66.7494 106.509 67.6995 110.148 69.7722C113.559 71.4515 117.485 75.3031 114.92 79.2405Z" fill="black"/>
        <path d="M93.9342 78.7323C93.9342 78.7323 95.8424 76.8607 96.4912 78.5576C97.003 79.8509 97.1985 82.8492 97.2556 84.1901C97.2764 84.7916 96.979 85.4265 96.4588 85.7131C96.1103 85.8889 95.0894 85.81 94.5988 85.5362C93.7659 86.32 92.7315 87.7751 90.3973 88.298C88.6492 88.7131 86.7188 88.7294 84.9646 88.2627C84.0648 88.0318 83.2355 87.6077 82.6485 86.8796C82.3246 86.4491 82.041 85.9679 81.9797 85.417C81.9491 85.1415 81.9691 84.9072 82.0749 84.6175C82.1152 84.5668 82.3319 84.0333 82.3319 84.0333C82.3319 84.0333 80.4901 81.9504 82.8637 80.5409C82.8637 80.5409 80.2218 77.0556 85.9023 77.2507C86.2257 77.2633 86.3756 75.715 87.5724 74.8931C87.7441 74.7823 89.0318 73.9509 90.4876 74.2165C92.2821 74.6325 93.7699 76.4274 93.9342 78.7323Z" fill="white" stroke="black" stroke-width="0.8" stroke-miterlimit="10"/>
        <path d="M82.9528 80.6921L85.1478 80.9303" stroke="black" stroke-width="0.8" stroke-miterlimit="10"/>
        <path d="M82.3536 84.1338L84.6245 84.223" stroke="black" stroke-width="0.8" stroke-miterlimit="10"/>
        <path d="M85.9651 77.3584L89.1286 77.5887" stroke="black" stroke-width="0.8" stroke-miterlimit="10"/>
        <path d="M93.9607 78.7227L94.2019 80.9628" stroke="black" stroke-width="0.8" stroke-miterlimit="10"/>
        <path d="M94.4254 83.8989L94.6483 85.5403" stroke="black" stroke-width="0.8" stroke-miterlimit="10"/>
        <path d="M66.0619 18.331C66.0619 18.331 76.9298 20.5976 75.4922 29.5508L55.3736 31.1552L35.3839 31.0234C33.691 24.455 42.0094 20.365 42.0094 20.365C42.1307 20.2994 41.9531 16.7164 42.0047 16.4054C42.068 14.5474 42.507 12.8635 43.5026 11.2245C45.5495 7.7591 49.3398 4.79731 53.5201 4.36027C59.235 3.69074 64.2451 7.93047 65.7071 13.0829C65.9876 14.1261 66.1448 15.1731 66.1788 16.2239C66.1212 16.3494 65.9366 18.273 66.0619 18.331Z" fill="#5663F1" stroke="black" stroke-width="0.8" stroke-miterlimit="10"/>
        <path d="M35.058 38.6384C40.14 37.4297 55.8397 34.4713 78.1378 37.1347C79.3766 37.2826 80.4561 36.3203 80.3565 35.1462C80.2629 34.1578 80.3542 33.1638 80.1373 32.1791C79.7591 30.0223 78.7346 26.9559 76.0681 26.5419C71.8527 25.9274 66.3588 25.8476 61.2327 25.6947C52.9551 25.3903 42.6653 25.829 34.251 28.9363C33.7639 29.137 33.3445 29.5216 33.1755 30.0224C32.776 31.0259 32.3865 32.3388 32.3152 33.9518C32.2339 35.2553 32.3952 36.4275 32.6737 37.4103C32.9482 38.2692 33.9544 38.858 35.058 38.6384Z" fill="#5663F1" stroke="black" stroke-width="0.8" stroke-miterlimit="10"/>
        <path d="M42.0206 26.8625L42.9004 37.0971" stroke="black" stroke-width="0.8" stroke-miterlimit="10"/>
        <path d="M51.4897 25.7629L51.9485 36.3804" stroke="black" stroke-width="0.8" stroke-miterlimit="10"/>
        <path d="M61.0482 25.7103L61.2032 36.1518" stroke="black" stroke-width="0.8" stroke-miterlimit="10"/>
        <path d="M70.6177 25.967L70.464 36.171" stroke="black" stroke-width="0.8" stroke-miterlimit="10"/>
    </g>
    <defs>
        <clipPath id="clip0_722_4761">
            <rect width="117" height="121" fill="white"/>
        </clipPath>
    </defs>
</svg>
