<svg width="133" height="121" viewBox="0 0 133 121" fill="none" xmlns="http://www.w3.org/2000/svg">
<g clip-path="url(#clip0_3_36079)">
<path d="M104.879 63.2263C104.818 62.862 104.213 59.2192 103.734 56.6903C106.437 58.3208 108.638 60.3332 110.807 62.8092C115.088 67.7821 119.338 73.2186 121.158 79.6948C121.335 80.4023 121.492 81.0526 121.67 81.7602C122.246 84.5751 117.958 85.5382 117.456 82.7594C117.357 82.2808 117.258 81.8021 117.102 81.3444C115.532 75.4192 111.514 70.4766 107.632 65.9344C106.719 64.9223 105.714 64.0095 104.879 63.2263Z" fill="black"/>
<path d="M115.433 83.1074C115.548 83.4483 114.841 83.9723 114.599 84.1919C112.776 85.7147 112.253 88.4746 112.227 90.0857C112.25 90.7174 112.172 92.9245 113.113 93.6572C115.088 95.2149 116.611 90.9236 117.126 89.6399C117.336 90.2648 117.374 90.3785 117.431 90.5489C117.527 90.833 117.641 91.1738 117.737 91.4579C117.909 91.9692 118.044 92.5585 118.216 93.0698C118.525 94.3621 118.721 95.6967 119.029 96.989C119.26 97.8624 119.588 99.2114 120.562 99.4828C121.2 99.6897 121.832 99.1301 122.259 98.7121C122.259 98.7121 122.259 98.7121 122.315 98.6909C122.315 98.6909 124.348 100.419 125.524 97.348C125.768 97.5116 126.088 97.7109 126.387 97.6617C127.527 97.4863 128.149 95.5852 128.405 94.6559C129.081 92.3504 129.322 89.5048 129.025 87.1196C128.73 85.1176 127.895 83.3844 126.426 82.0192C126.143 81.7419 125.88 81.5214 125.541 81.2653C125.278 81.0449 124.64 80.8379 124.489 80.5751C124.489 80.5751 124.748 80.2206 124.785 80.1426C124.989 79.8094 125.173 79.4194 125.245 79.0717C125.389 78.1848 125.008 77.2402 124.182 76.8484C122.925 76.2997 121.525 76.8296 120.294 77.2959C118.838 77.847 117.326 78.2277 115.851 78.7219C111.39 80.0911 114.118 82.3883 114.644 82.6376C115.414 83.0506 115.357 82.8801 115.433 83.1074Z" fill="white" stroke="black" stroke-width="0.8" stroke-miterlimit="10"/>
<path d="M121.374 89.9291C121.374 89.9291 123.024 95.1775 122.461 98.807" stroke="black" stroke-width="0.8" stroke-miterlimit="10"/>
<path d="M125.642 97.5619C125.642 97.5619 126.061 92.572 125.187 89.4219" stroke="black" stroke-width="0.8" stroke-miterlimit="10"/>
<path d="M119.706 90.4617C119.779 90.306 119.777 90.1145 119.627 90.0431C119.478 89.9717 119.31 90.0349 119.237 90.1906C119.164 90.3463 119.165 90.5377 119.315 90.6091C119.409 90.7016 119.577 90.6384 119.706 90.4617Z" fill="black" stroke="black" stroke-width="0.8" stroke-miterlimit="10"/>
<path d="M123.484 89.3191C123.558 89.1634 123.556 88.972 123.406 88.9005C123.256 88.8291 123.089 88.8923 123.016 89.048C122.942 89.2037 122.944 89.3951 123.094 89.4666C123.188 89.5591 123.411 89.4748 123.484 89.3191Z" fill="black" stroke="black" stroke-width="0.8" stroke-miterlimit="10"/>
<path d="M127.05 88.6438C127.124 88.4881 127.122 88.2967 126.972 88.2252C126.822 88.1538 126.655 88.217 126.582 88.3727C126.508 88.5284 126.51 88.7198 126.66 88.7913C126.81 88.8627 126.977 88.7995 127.05 88.6438Z" fill="black" stroke="black" stroke-width="0.8" stroke-miterlimit="10"/>
<path d="M115.439 83.1235L117.137 82.6151" stroke="black" stroke-width="0.8" stroke-miterlimit="10"/>
<path d="M122.874 81.2035L124.348 80.593" stroke="black" stroke-width="0.8" stroke-miterlimit="10"/>
<path d="M91.3209 109.077C91.5025 111.656 88.4755 112.537 87.083 111.153C86.7198 110.775 86.4776 110.272 86.4776 109.643C86.2355 105.806 82.5837 92.6714 81.3124 89.0857C81.1913 88.8341 81.1308 88.5196 81.0097 88.2679C82.7654 87.8905 84.3394 87.5131 85.7924 87.0098C87.3665 90.91 91.0182 104.484 91.3209 108.573C91.3209 108.699 91.3209 108.888 91.3209 109.077Z" fill="black" stroke="black" stroke-width="0.8" stroke-miterlimit="10"/>
<path d="M89.8842 120.189L90.066 118.624L91.339 120.189L107.858 120.206L108.07 116.607L82.125 116.347L82.0038 120.119L89.8842 120.189Z" fill="black" stroke="black" stroke-width="0.8" stroke-miterlimit="10"/>
<path d="M94.4912 105.355C98.4011 106.048 106.494 108.505 108.07 116.851L82.0947 116.41L82.0644 108.505C86.338 109.859 91.6724 108.946 94.4912 105.355Z" fill="#ACBFFF" stroke="black" stroke-width="0.8" stroke-miterlimit="10"/>
<path d="M99.5529 106.615L94.8852 110.457" stroke="black" stroke-width="0.8" stroke-miterlimit="10"/>
<path d="M101.947 107.875L97.2493 111.749" stroke="black" stroke-width="0.8" stroke-miterlimit="10"/>
<path d="M64.9856 89.6506C64.1986 93.2992 64.4844 105.361 60.3845 107.945C57.9629 110.146 54.9964 110.587 52.151 109.832C48.2158 108.762 45.6731 106.183 44.6439 104.925L44.5834 104.799C43.9174 103.856 43.8569 102.66 44.3412 101.717C44.7044 101.025 45.3099 100.522 46.0363 100.333C46.4601 100.207 46.8839 100.27 47.2472 100.459C47.4288 100.522 47.5499 100.647 47.6709 100.773C49.245 102.472 54.2094 107.001 58.1445 102.912C59.1132 101.968 59.9002 91.2233 60.3845 89.4619C61.8981 89.5877 63.4116 89.6506 64.9856 89.6506Z" fill="black" stroke="black" stroke-width="0.8" stroke-miterlimit="10"/>
<path d="M38.4218 99.2422L39.5722 100.297L37.5975 100.485L28.2248 114.586L30.9876 116.836L45.8958 94.8232L42.9422 92.5505L38.4218 99.2422Z" fill="black" stroke="black" stroke-width="0.8" stroke-miterlimit="10"/>
<path d="M47.6184 111.652C44.8565 114.587 38.3228 120.076 30.7627 116.627L45.7852 94.7368L52.1198 99.2502C48.6239 102.116 46.3411 107.188 47.6184 111.652Z" fill="#ACBFFF" stroke="black" stroke-width="0.8" stroke-miterlimit="10"/>
<path d="M43.7277 115.228L43.2941 109.054" stroke="black" stroke-width="0.8" stroke-miterlimit="10"/>
<path d="M41.3701 116.561L40.9285 110.343" stroke="black" stroke-width="0.8" stroke-miterlimit="10"/>
<path d="M51.0533 64.1846C45.9634 67.4167 41.2693 71.589 35.5573 73.587C33.0689 74.4685 30.5239 74.8211 28.4314 73.587C25.7168 72.0004 23.9071 69.1209 22.5497 66.2414C20.9097 62.7743 19.8917 59.0133 18.704 55.3699C17.7992 52.4904 13.3879 53.7244 14.2928 56.6039C16.6115 63.8908 18.704 72.1179 24.9816 76.8779C30.9764 81.4028 38.5547 77.8769 44.2102 74.4097C47.3207 72.4705 50.2615 70.1787 53.372 68.2394C55.8604 66.7115 53.5417 62.598 51.0533 64.1846Z" fill="black"/>
<path d="M21.9741 59.6016L21.4522 59.834C26.6714 57.7422 24.5837 48.1354 22.1232 46.4309C18.768 44.4941 18.768 51.0794 18.768 51.0794C18.768 51.0794 16.6057 47.2057 12.2067 44.1067C6.98744 40.3104 7.95674 44.9589 7.95674 44.9589C7.95674 44.9589 5.94361 42.9446 3.78136 44.1842C2.14103 45.4238 4.0796 47.2832 4.0796 47.2832C3.03575 46.8183 0.948075 46.121 0.500713 47.6705C0.127911 49.1425 1.54455 50.4596 2.29016 51.3118C3.40856 52.5514 4.60152 53.6361 5.79449 54.7207C6.16729 55.0306 6.83833 55.4954 6.98746 55.9603C9.07514 63.2429 14.4435 62.8555 14.4435 62.8555C14.2944 63.5528 14.2944 64.7924 14.6672 65.1798C15.1891 65.7221 16.0092 65.877 16.7548 65.6446C18.3206 65.1023 21.7504 63.7078 23.0925 62.6231C24.8819 61.306 21.9741 59.6016 21.9741 59.6016Z" fill="white" stroke="black" stroke-width="0.8" stroke-miterlimit="10"/>
<path d="M7.95667 44.959L13.7724 50.5372" stroke="black" stroke-width="0.8" stroke-miterlimit="10"/>
<path d="M4.07971 47.2832L10.1937 53.0938" stroke="black" stroke-width="0.8" stroke-miterlimit="10"/>
<path d="M8.77686 54.1009L14.3689 50.0723" stroke="black" stroke-width="0.8" stroke-miterlimit="10"/>
<path d="M18.768 51.0791L18.9171 52.2412C18.9171 52.2412 14.2199 51.9313 14.7418 56.2699" stroke="black" stroke-width="0.8" stroke-miterlimit="10"/>
<path d="M16.0839 62.0806L14.369 63.0103" stroke="black" stroke-width="0.8" stroke-miterlimit="10"/>
<path d="M98.8455 85.3955L87.3536 71.7302L86.6686 72.0805L91.0479 89.6131L79.6674 92.6539L74.1566 70.0227L73.8258 68.664L73.3942 69.9789L66.1363 92.0893L55.0916 88.1749L62.3773 65.9799L62.8055 64.6753L61.7492 65.5294L43.8883 79.9727L36.7452 70.3677L50.4444 59.2405L50.1061 58.5295L33.0527 62.0777L30.762 50.1141L50.6391 46.0441L52.0499 45.7552L50.6783 45.2691L31.4451 38.4525L35.22 26.9527L54.3718 33.7405L55.7337 34.2231L54.7975 33.1032L41.4836 17.1765L50.3054 9.2414L61.7461 22.7973L62.431 22.4481L58.1314 4.94383L69.4059 1.95628L75.1039 24.8464L75.4385 26.1903L75.8659 24.8883L83.207 2.52417L94.2517 6.4386L86.9383 28.7181L86.5076 30.0303L87.5673 29.1678L105.349 14.696L112.515 24.2184L98.8175 35.3441L99.1533 36.0556L116.261 32.6178L118.501 44.4717L98.5937 48.6254L97.194 48.9175L98.5559 49.4001L117.626 56.159L113.851 67.6588L94.6996 60.871L93.3281 60.3849L94.275 61.5094L107.617 77.3542L98.8455 85.3955Z" fill="#F96F6F" stroke="black" stroke-width="0.8"/>
<path d="M74.8639 45.2822C77.5779 45.4702 79.4776 44.2012 82.0106 44.3422C83.4128 44.4362 84.7698 44.7652 84.7698 46.3162C84.815 49.1832 82.6439 51.0632 80.0204 52.1912C76.628 53.6483 72.6928 53.5073 69.3456 51.9562C66.496 50.6402 63.5559 48.4782 64.2344 45.0942C64.551 43.5432 65.8627 43.3552 67.2197 43.4492C69.7075 43.6372 72.3762 45.1412 74.8639 45.2822Z" fill="white" stroke="black" stroke-width="0.8" stroke-miterlimit="10"/>
<path d="M70.1145 44.1074C69.7526 45.0004 69.3456 46.2224 69.1646 47.7264C68.9385 49.4655 69.1194 50.9225 69.3003 51.9565" stroke="black" stroke-width="0.8" stroke-miterlimit="10"/>
<path d="M74.8639 45.2822C74.5473 46.2222 74.2759 47.4912 74.1854 48.9952C74.0949 50.7343 74.2759 52.1443 74.5473 53.2253" stroke="black" stroke-width="0.8" stroke-miterlimit="10"/>
<path d="M80.0204 44.4834C79.749 45.4704 79.4776 46.8334 79.4776 48.5254C79.4776 50.0294 79.749 51.2984 80.0204 52.1914" stroke="black" stroke-width="0.8" stroke-miterlimit="10"/>
<path d="M72.1106 38.5193C71.9723 39.5877 72.7087 40.555 73.7437 40.7053C74.7788 40.8556 75.7101 40.1016 75.8484 39.0333C75.9867 37.965 75.2504 36.9976 74.2153 36.8473C73.1802 36.697 72.2489 37.451 72.1106 38.5193Z" fill="#E30611" stroke="black" stroke-width="0.8" stroke-miterlimit="10"/>
<path d="M69.6014 40.5445C68.0016 39.9083 65.9613 39.6015 63.7914 39.7505C63.469 39.7638 63.1466 39.777 62.8203 39.8368C61.1965 40.0428 59.6938 40.4491 58.4981 41.0282C57.9545 39.2821 57.6616 37.2806 57.6116 35.1168C57.5901 34.2699 57.6102 33.4742 57.7214 32.6881C57.8952 30.5946 58.3266 28.7156 59.0078 27.1443C60.1004 24.4897 61.8061 22.7437 63.733 22.7571C63.7785 22.7618 63.824 22.7666 63.8695 22.7713C66.2476 22.8787 68.3679 25.5402 69.4243 29.4045C69.843 30.9968 70.1097 32.7609 70.1828 34.6456C70.1751 34.7386 70.2129 34.8364 70.2051 34.9295C70.2173 36.9955 69.9679 38.8934 69.6014 40.5445Z" fill="white" stroke="black" stroke-width="0.8" stroke-miterlimit="10"/>
<path d="M69.4217 29.4183C68.3241 25.5037 66.2502 22.8476 63.8731 22.7403C62.5745 24.0121 61.7145 26.0804 61.658 28.4203C61.6525 29.5925 61.8367 30.6908 62.1689 31.6638L65.1885 30.6653L63.114 33.5452C64.0977 34.9614 65.4879 35.9041 67.0462 35.926C68.2367 35.9564 69.3293 35.5075 70.2709 34.6675C70.1068 32.7738 69.8402 31.0101 69.4217 29.4183Z" fill="black" stroke="black" stroke-width="0.8" stroke-miterlimit="10"/>
<path d="M89.7216 40.5951L89.7177 40.6416L89.7139 40.6882C89.71 40.7347 89.7061 40.7812 89.6529 40.8695C89.4331 40.7527 89.1678 40.6312 88.9442 40.5609C88.8115 40.5001 88.6789 40.4394 88.5462 40.3786C87.2992 39.92 85.9002 39.6332 84.3948 39.523C83.8032 39.4613 83.204 39.4926 82.6086 39.4773C82.5176 39.4678 82.4721 39.4631 82.3772 39.5001C80.9473 39.5855 79.6879 39.8294 78.5495 40.2736C78.1386 38.5885 77.929 36.6898 77.9546 34.7218C78.0594 27.9292 80.942 22.5058 84.4234 22.5876C86.3461 22.6475 88.0388 24.3726 89.146 27.0688C89.2971 27.4599 89.4444 27.8976 89.5878 28.3818C89.5839 28.4283 89.6256 28.4796 89.6217 28.5261C89.6634 28.5773 89.6556 28.6704 89.6973 28.7217C89.735 28.8194 89.7312 28.866 89.769 28.9637C89.8029 29.108 89.8407 29.2058 89.8746 29.3501C89.9047 29.5409 89.9841 29.69 90.0141 29.8808C90.0442 30.0716 90.0743 30.2625 90.1498 30.458C90.2439 30.984 90.3379 31.5099 90.3864 32.0311C90.4165 32.2219 90.4466 32.4128 90.435 32.5523C90.435 32.5523 90.435 32.5523 90.4311 32.5988C90.4573 32.8362 90.4797 33.12 90.5059 33.3574C90.5359 33.5482 90.5205 33.7342 90.505 33.9203C90.4934 34.0599 90.5274 34.2042 90.5158 34.3437C90.5119 34.3902 90.5119 34.3902 90.5081 34.4368C90.4926 34.6228 90.5227 34.8137 90.5034 35.0462C90.4777 37.0142 90.2285 38.912 89.7216 40.5951Z" fill="white" stroke="black" stroke-width="0.8" stroke-miterlimit="10"/>
<path d="M89.8264 29.3613C88.8196 25.4557 86.7529 22.7063 84.3752 22.5988C83.0309 23.8661 82.1291 25.8834 82.0271 28.2188C81.9761 29.3865 82.1603 30.4849 82.4471 31.4533L85.3609 30.6313L83.3014 33.3254C84.236 34.7837 85.6265 35.7264 87.1813 35.7949C88.3682 35.8719 89.5066 35.4276 90.4483 34.5875C90.4624 32.7591 90.2451 30.9534 89.8264 29.3613Z" fill="black" stroke="black" stroke-width="0.8" stroke-miterlimit="10"/>
<path d="M54.7946 54.2031L60.2209 56.7632L69.419 61.2814L65.0809 70.4968L44.6658 56.4649L54.7946 54.2031Z" fill="white"/>
<path d="M93.3151 56.7186L78.6028 62.1635L79.8471 71.915L101.422 59.8182L93.3151 56.7186Z" fill="white"/>
<path d="M54.7946 54.2031L60.2209 56.7632L69.419 61.2814L65.0809 70.4968L44.6658 56.4649L54.7946 54.2031Z" stroke="black" stroke-width="0.8"/>
<path d="M93.3151 56.7186L78.6028 62.1635L79.8471 71.915L101.422 59.8182L93.3151 56.7186Z" stroke="black" stroke-width="0.8"/>
<path d="M68.9609 61.927L78.0479 62.079L73.6223 69.5455L77.6472 74.6066L76.1531 98.6471L72.3393 103.928L68.6043 97.7908L69.4985 73.6859L73.6223 69.5455L68.9609 61.927Z" fill="#5663F1"/>
<path d="M73.6223 69.5455L78.0479 62.079L68.9609 61.927L73.6223 69.5455ZM73.6223 69.5455L69.4985 73.6859L68.6043 97.7908L72.3393 103.928L76.1531 98.6471L77.6472 74.6066L73.6223 69.5455Z" stroke="black" stroke-width="0.8"/>
</g>
<defs>
<clipPath id="clip0_3_36079">
<rect width="131.977" height="120" fill="white" transform="translate(0.325195 0.241699)"/>
</clipPath>
</defs>
</svg>
