<svg width="117" height="121" viewBox="0 0 117 121" fill="none" xmlns="http://www.w3.org/2000/svg">
    <g clip-path="url(#clip0_722_4523)">
        <path d="M36.4529 109.722C36.2713 113.105 39.2983 114.26 40.6908 112.445C41.054 111.95 41.2962 111.29 41.2962 110.464C41.5383 105.43 45.1901 88.201 46.4614 83.4972C46.5825 83.1671 46.643 82.7545 46.7641 82.4244C45.0084 81.9293 43.4344 81.4341 41.9814 80.774C40.4073 85.8904 36.7556 103.697 36.4529 109.061C36.4529 109.226 36.4529 109.474 36.4529 109.722Z" fill="black" stroke="black" stroke-width="0.8" stroke-miterlimit="10"/>
        <path d="M41.8659 112.181C41.8659 112.181 45.0051 109.462 38.5325 109.418C31.6052 109.364 36.0621 112.22 36.0621 112.22L35.0594 112.811C35.0594 112.811 27.4335 107.083 24.8329 112.98C22.2322 118.877 30.2835 119.74 35.194 119.742C40.1046 119.744 45.4759 120.731 41.8659 112.181Z" fill="#E30611" stroke="black" stroke-width="0.8" stroke-miterlimit="10"/>
        <path d="M41.8937 112.157C41.8937 112.157 40.8281 112.769 39.1085 112.636L41.8937 112.157Z" fill="black"/>
        <path d="M41.8937 112.157C41.8937 112.157 40.8281 112.769 39.1085 112.636" stroke="black" stroke-width="0.8" stroke-miterlimit="10"/>
        <path d="M37.2541 112.494C37.2541 112.494 36.8759 112.529 36.1249 112.142L37.2541 112.494Z" fill="black"/>
        <path d="M37.2541 112.494C37.2541 112.494 36.8759 112.529 36.1249 112.142" stroke="black" stroke-width="0.8" stroke-miterlimit="10"/>
        <path d="M35.0732 112.808L37.3689 114.861" stroke="black" stroke-width="0.8" stroke-miterlimit="10"/>
        <path d="M35.0677 112.816L35.3022 115.344" stroke="black" stroke-width="0.8" stroke-miterlimit="10"/>
        <path d="M28.3293 111.446C28.1058 111.57 27.8823 111.694 27.7354 111.862C27.5118 111.986 27.3649 112.155 27.218 112.324C26.8641 112.678 26.5702 113.015 26.4296 113.443C26.2123 113.825 26.0882 114.314 26.0242 114.786C25.9601 115.259 25.9726 115.776 25.9686 116.233L25.9086 116.249C25.8423 116.006 25.836 115.747 25.7697 115.504C25.7634 115.246 25.6971 115.003 25.7509 114.728C25.7384 114.211 25.9225 113.706 26.1232 113.263C26.5846 112.36 27.3855 111.759 28.3293 111.446Z" fill="white"/>
        <path d="M62.7885 87.1462C63.5755 90.7948 63.2898 102.857 67.3896 105.44C69.8112 107.642 72.7777 108.082 75.6231 107.327C79.5583 106.258 82.101 103.679 83.1302 102.421L83.1907 102.295C83.8567 101.351 83.9172 100.156 83.4329 99.2124C83.0697 98.5204 82.4643 98.0171 81.7378 97.8284C81.314 97.7026 80.8902 97.7655 80.5269 97.9542C80.3453 98.0171 80.2242 98.143 80.1032 98.2688C78.5291 99.9673 73.5647 104.497 69.6296 100.408C68.6609 99.464 67.8739 88.7189 67.3896 86.9575C65.8761 87.0833 64.3625 87.1462 62.7885 87.1462Z" fill="black" stroke="black" stroke-width="0.8" stroke-miterlimit="10"/>
        <path d="M80.1305 97.6665C80.1305 97.6665 76.0682 96.7388 79.8817 101.968C83.9577 107.568 83.6137 102.309 83.6137 102.309L84.6871 102.768C84.6871 102.768 84.5969 112.26 90.9048 110.89C97.2127 109.52 93.1216 102.541 90.203 98.5928C87.2844 94.6443 84.8869 89.7475 80.1305 97.6665Z" fill="#E30611" stroke="black" stroke-width="0.8" stroke-miterlimit="10"/>
        <path d="M80.1217 97.6526C80.1217 97.6526 81.2458 98.1513 82.1602 99.6109L80.1217 97.6526Z" fill="black"/>
        <path d="M80.1217 97.6526C80.1217 97.6526 81.2458 98.1513 82.1602 99.6109" stroke="black" stroke-width="0.8" stroke-miterlimit="10"/>
        <path d="M83.1384 101.194C83.1384 101.194 83.3914 101.478 83.5248 102.309L83.1384 101.194Z" fill="black"/>
        <path d="M83.1384 101.194C83.1384 101.194 83.3914 101.478 83.5248 102.309" stroke="black" stroke-width="0.8" stroke-miterlimit="10"/>
        <path d="M84.6848 102.761L84.9781 99.705" stroke="black" stroke-width="0.8" stroke-miterlimit="10"/>
        <path d="M84.6887 102.763L86.5951 101.085" stroke="black" stroke-width="0.8" stroke-miterlimit="10"/>
        <path d="M87.5562 108.997C87.7902 109.104 88.0242 109.211 88.2488 109.231C88.4828 109.338 88.7074 109.358 88.9319 109.377C89.4297 109.455 89.8788 109.494 90.3089 109.357C90.7486 109.308 91.218 109.122 91.6387 108.898C92.0593 108.673 92.4706 108.36 92.8426 108.096L92.8913 108.135C92.7343 108.331 92.5287 108.487 92.3718 108.683C92.1662 108.839 92.0093 109.034 91.755 109.152C91.3438 109.464 90.8257 109.611 90.3468 109.709C89.3404 109.865 88.3746 109.573 87.5562 108.997Z" fill="white"/>
        <path d="M6.29677 29.4623C7.21494 29.2783 8.40856 29.8761 8.54628 30.8878C9.41854 37.4635 10.5203 43.9473 12.6321 50.2471C13.4585 52.6843 14.6062 55.3054 16.718 56.9148C18.8757 58.6162 21.4925 58.9841 24.1552 58.9381C27.4606 58.8462 30.6742 58.2024 33.9796 58.1104C34.9896 58.0644 35.8159 59.1221 35.77 60.0877C35.7241 61.0994 34.806 61.7891 33.796 61.7891C27.736 62.0191 21.217 64.0884 15.6162 60.6855C12.9076 59.0301 11.0713 56.363 9.87763 53.512C8.6381 50.523 7.76584 47.3501 6.98539 44.2232C5.97541 40.0846 5.3786 35.8541 4.82769 31.6695C4.73588 30.6579 5.24087 29.6922 6.29677 29.4623Z" fill="black"/>
        <path d="M6.52618 29.3246C6.52618 29.3246 7.62799 19.7139 10.9793 20.3117C13.5961 20.8175 10.7957 30.0143 10.7957 30.0143L6.52618 29.3246Z" fill="white" stroke="black" stroke-width="0.8" stroke-miterlimit="10"/>
        <path d="M3.17476 29.4624C3.17476 29.4624 -1.00292 20.9094 2.3484 20.3116C5.69972 19.7138 6.80153 29.0026 6.80153 29.0026L3.17476 29.4624Z" fill="white" stroke="black" stroke-width="0.8" stroke-miterlimit="10"/>
        <path d="M11.8516 30.5659C11.8516 30.5659 14.9274 34.6125 11.2088 37.1876C11.2088 37.1876 13.137 38.6591 10.8416 39.7627C8.54614 40.8664 3.45029 41.2342 4.36846 38.4752C4.36846 38.4752 -0.819199 36.4059 1.38441 30.9338L11.8516 30.5659Z" fill="white" stroke="black" stroke-width="0.8" stroke-miterlimit="10"/>
        <path d="M11.2547 37.1418C11.2547 37.1418 10.0611 37.8776 9.00519 38.0615" stroke="black" stroke-width="0.8" stroke-miterlimit="10"/>
        <path d="M6.61792 38.3833C6.61792 38.3833 5.69975 38.6128 4.41431 38.4751" stroke="black" stroke-width="0.8" stroke-miterlimit="10"/>
        <path d="M0.787607 28.5428C1.33851 28.2669 2.11895 28.3588 2.66986 28.6807C3.49621 29.1406 3.95529 30.1062 4.23075 30.9799C4.46029 31.7157 4.55211 32.6813 3.81757 33.2331C2.76167 33.9689 1.70578 33.1872 1.01715 32.3594C0.37443 31.5777 -0.176472 30.4741 0.0530703 29.4624C0.190796 29.0026 0.466247 28.6807 0.787607 28.5428Z" fill="white" stroke="black" stroke-width="0.8" stroke-miterlimit="10"/>
        <path d="M11.8975 30.6121C10.1071 28.7268 5.88349 28.9107 4.3685 29.0027C3.49624 29.0486 2.57807 29.2786 2.30262 30.1063C1.29263 32.8653 7.49028 33.693 7.49028 33.693C7.49028 33.693 6.93938 35.6704 8.68391 36.1762" fill="white"/>
        <path d="M11.8975 30.6121C10.1071 28.7268 5.88349 28.9107 4.3685 29.0027C3.49624 29.0486 2.57807 29.2786 2.30262 30.1063C1.29263 32.8653 7.49028 33.693 7.49028 33.693C7.49028 33.693 6.93938 35.6704 8.68391 36.1762" stroke="black" stroke-width="0.8" stroke-miterlimit="10"/>
        <path d="M45.5708 22.6683C50.0357 14.9349 61.1978 14.9349 65.6626 22.6683L92.5586 69.2536C97.0235 76.9869 91.4424 86.6536 82.5128 86.6536H28.7206C19.791 86.6536 14.2099 76.9869 18.6748 69.2536L45.5708 22.6683Z" fill="#D9D9D9" stroke="black" stroke-width="0.8"/>
        <path d="M67.2141 16.3241C67.2141 16.3241 77.8275 19.5324 75.5791 28.332L55.4024 28.1748L35.5125 26.2981C34.4265 19.6025 43.0816 16.2516 43.0816 16.2516C43.2083 16.1969 43.3586 12.6096 43.4383 12.3041C43.6709 10.4575 44.2617 8.81719 45.4025 7.27024C47.7566 3.99447 51.8006 1.37291 56.0025 1.30223C61.7534 1.13378 66.3546 5.79763 67.3399 11.0615C67.5239 12.1259 67.5849 13.1834 67.5228 14.2338C67.454 14.3538 67.0947 16.2553 67.2141 16.3241Z" fill="#5663F1" stroke="black" stroke-width="0.8" stroke-miterlimit="10"/>
        <path d="M34.5175 33.8536C39.6887 33.0923 55.5929 31.514 77.5556 36.1227C78.7757 36.3787 79.9385 35.513 79.9464 34.3327C79.9432 33.3383 80.1248 32.3544 79.9986 31.3529C79.8186 29.1677 79.0779 26.0184 76.4603 25.3719C72.3184 24.3899 66.8545 23.8296 61.7637 23.2285C53.5482 22.2005 43.2611 21.7378 34.5985 24.1021C34.0951 24.2598 33.6423 24.6068 33.4284 25.0917C32.9391 26.0581 32.4315 27.3341 32.2134 28.9373C32.0136 30.2309 32.0673 31.4146 32.2551 32.4196C32.4502 33.3007 33.3985 33.9762 34.5175 33.8536Z" fill="#5663F1" stroke="black" stroke-width="0.8" stroke-miterlimit="10"/>
        <path d="M42.5257 22.6978L42.4631 32.9684" stroke="black" stroke-width="0.8" stroke-miterlimit="10"/>
        <path d="M52.047 22.4468L51.5474 33.0625" stroke="black" stroke-width="0.8" stroke-miterlimit="10"/>
        <path d="M61.5729 23.2473L60.7845 33.661" stroke="black" stroke-width="0.8" stroke-miterlimit="10"/>
        <path d="M71.085 24.3563L70.0031 34.5068" stroke="black" stroke-width="0.8" stroke-miterlimit="10"/>
        <path d="M59.2516 68.179C56.4052 70.2482 52.6866 70.7081 49.3353 69.7884C48.1417 69.4665 46.8563 68.9147 45.7086 68.133C43.9181 66.9374 42.5868 65.236 42.6327 63.0287C42.7245 61.0054 44.2395 60.4536 46.0299 60.4536C47.5908 60.4536 49.3812 60.9135 50.483 61.1894C51.4471 61.4193 52.3653 61.6032 53.3753 61.5572C54.9362 61.4653 56.4052 60.7755 57.9202 60.5916C58.2416 60.5456 58.5629 60.5456 58.9302 60.5916C59.9861 60.6376 61.1797 60.9135 61.8684 61.6032C63.8883 63.5805 60.8125 66.9834 59.2516 68.179Z" fill="black" stroke="black" stroke-width="0.8" stroke-miterlimit="10"/>
        <path d="M59.2515 68.1787C56.4052 70.248 52.6866 70.7079 49.3353 69.7882C48.1416 69.4663 46.8562 68.9145 45.7085 68.1328C47.0858 66.2474 49.6107 65.0058 52.457 65.0058C55.3952 64.9598 57.8743 66.2474 59.2515 68.1787Z" fill="#E30611" stroke="black" stroke-width="0.8" stroke-miterlimit="10"/>
        <path d="M86.4423 79.9955C85.9808 77.3354 83.5674 75.8535 81.0252 76.7372C78.4764 77.583 76.7771 80.4394 77.2011 83.1056C77.6626 85.7657 80.0761 87.2476 82.6182 86.3639C85.167 85.5181 86.9038 82.6556 86.4423 79.9955ZM81.9935 84.3166C80.4669 84.8392 79.0025 83.9449 78.7256 82.3489C78.4487 80.7528 79.4648 79.063 80.9914 78.5403C82.518 78.0177 83.9824 78.9119 84.2593 80.508C84.5362 82.1041 83.5267 83.8319 81.9935 84.3166Z" fill="#F96F6F" stroke="black" stroke-width="0.8" stroke-miterlimit="10"/>
        <path d="M79.1853 74.5549C79.1853 74.5549 81.3875 90.3674 69.1263 91.5074C57.5094 92.5814 56.5141 76.6109 56.5141 76.6109L79.1853 74.5549Z" fill="#F96F6F" stroke="black" stroke-width="0.8" stroke-miterlimit="10"/>
        <path d="M79.2506 74.5983C79.0604 72.7316 73.8233 71.6827 67.5534 72.2557C61.2834 72.8286 56.3548 74.8063 56.545 76.673C56.7352 78.5397 61.9723 79.5885 68.2423 79.0156C74.5122 78.4427 79.4408 76.465 79.2506 74.5983Z" fill="#F96F6F" stroke="black" stroke-width="0.8" stroke-miterlimit="10"/>
        <path d="M57.2873 77.7353C56.8514 77.4514 56.6038 77.1365 56.5 76.7585C58.0354 74.8859 60.4155 74.0992 63.1597 74.7542C65.2621 75.2777 66.7954 76.0924 68.8526 75.0033C70.9408 73.8695 72.584 72.8485 75.1268 73.4576C76.417 73.7591 78.0017 73.9726 79.2762 74.6322C79.3611 76.4754 74.4722 78.4254 68.2585 78.9733C63.5324 79.395 59.3891 78.9306 57.5395 77.8519" fill="black"/>
        <path d="M57.2873 77.7353C56.8514 77.4514 56.6038 77.1365 56.5 76.7585C58.0354 74.8859 60.4155 74.0992 63.1597 74.7542C65.2621 75.2777 66.7954 76.0924 68.8526 75.0033C70.9408 73.8695 72.584 72.8485 75.1268 73.4576C76.417 73.7591 78.0017 73.9726 79.2762 74.6322C79.3611 76.4754 74.4722 78.4254 68.2585 78.9733C63.5324 79.395 59.3891 78.9306 57.5395 77.8519" stroke="black" stroke-width="0.8" stroke-miterlimit="10"/>
        <path d="M72.6506 74.2414C73.4828 73.9081 74.4052 73.8743 75.2852 74.044C76.1653 74.2136 77.003 74.5867 77.7787 75.0486C77.9112 75.1446 77.7937 75.3604 77.6611 75.2644C76.892 74.8407 76.0985 74.4997 75.2561 74.3238C74.4136 74.148 73.5354 74.2138 72.6967 74.5088C72.5528 74.5718 72.5068 74.3043 72.6506 74.2414Z" fill="white"/>
        <path d="M57.2808 77.7839C57.5715 77.2249 57.9882 76.7239 58.5064 76.3634C59.1553 75.8635 59.919 75.5806 60.7465 75.4445C61.2356 75.3641 61.7001 75.3663 62.2089 75.4006C62.3659 75.4141 62.3678 75.6497 62.2107 75.6362C60.6403 75.5013 59.018 75.9647 57.9919 77.1951C57.7991 77.4234 57.6439 77.6455 57.5329 77.8997L57.2808 77.7839Z" fill="white"/>
        <path d="M71.6703 74.4256C71.7766 74.3689 71.8894 74.3504 71.9956 74.2937C72.0708 74.2813 72.115 74.3134 72.1657 74.3835C72.1789 74.4599 72.1479 74.5042 72.0793 74.5548C72.0041 74.5671 71.8979 74.6238 71.8226 74.6361L71.785 74.6423C71.7474 74.6485 71.7098 74.6547 71.7098 74.6547C71.6722 74.6608 71.6657 74.6226 71.6215 74.5906C71.6149 74.5525 71.6083 74.5143 71.6083 74.5143C71.6393 74.4699 71.6703 74.4256 71.6703 74.4256Z" fill="white"/>
        <path d="M62.9288 75.4711C63.0791 75.4465 63.2049 75.5043 63.3374 75.6001C63.3816 75.6321 63.4323 75.7022 63.3703 75.7907C63.3393 75.835 63.2707 75.8855 63.1824 75.8216C63.1449 75.8277 63.1383 75.7896 63.1007 75.7958C63.0566 75.7638 63.019 75.77 62.9814 75.7761C62.9438 75.7823 62.9438 75.7823 62.9063 75.7885C62.8311 75.8008 62.7804 75.7307 62.7672 75.6544C62.8226 75.5277 62.8536 75.4835 62.9288 75.4711Z" fill="white"/>
        <path d="M76.8329 75.6827C77.3859 76.449 77.8776 77.3032 78.2578 78.1756C78.5244 78.833 78.9986 79.8069 78.4586 80.4404C78.1395 80.8042 77.5756 80.8575 77.1822 80.5714C76.7385 80.2156 76.6642 79.5657 76.6096 79.0294C76.5005 77.9568 76.6208 76.8857 76.8154 75.8023C76.8154 75.8023 76.8089 75.7645 76.8329 75.6827Z" fill="black" stroke="black" stroke-width="0.8" stroke-miterlimit="10"/>
        <path d="M76.8229 78.5637C76.847 78.4819 76.9081 78.394 76.9889 78.4197C77.0697 78.4454 77.1571 78.509 77.1331 78.5908C77.1047 78.868 77.1068 79.1013 77.1898 79.3602C77.2662 79.5813 77.3863 79.8342 77.5982 79.9553C77.679 79.981 77.6986 80.0946 77.6375 80.1825C77.5763 80.2704 77.5021 80.2825 77.4147 80.2189C77.1592 80.0661 76.9889 79.7435 76.8993 79.4467C76.8164 79.1877 76.7574 78.847 76.8229 78.5637Z" fill="white"/>
        <path d="M32.0502 47.7878C32.586 44.5075 35.4937 42.2053 38.7525 42.3492C39.0566 42.3486 39.309 42.3769 39.6017 42.4167C43.1602 43.0368 45.5503 46.4099 44.9752 49.9833C44.3599 53.5452 40.9935 55.9343 37.4237 55.3544C37.131 55.3147 36.8497 55.2348 36.5684 55.1549C33.4966 54.1951 31.5031 51.1084 32.0502 47.7878Z" fill="white" stroke="black" stroke-width="0.8" stroke-miterlimit="10"/>
        <path d="M36.5684 55.1549C37.512 54.1195 38.3395 52.5732 38.8795 50.8148L34.8625 48.2829L39.5062 47.2126C39.5928 45.3689 39.3011 43.6348 38.7525 42.3492C35.5339 42.2168 32.6261 44.519 32.0502 47.7879C31.503 51.1085 33.4966 54.1952 36.5684 55.1549Z" fill="black" stroke="black" stroke-width="0.8" stroke-miterlimit="10"/>
        <path d="M59.868 47.3333C60.3518 44.0444 63.2224 41.6955 66.4827 41.787C66.7867 41.7816 67.0396 41.8058 67.3328 41.8408C70.9002 42.4037 73.3432 45.7383 72.8248 49.3208C72.266 52.8926 68.9382 55.3358 65.36 54.8133C65.0668 54.7783 64.7843 54.7029 64.5017 54.6275C61.4155 53.7172 59.3736 50.6627 59.868 47.3333Z" fill="white" stroke="black" stroke-width="0.8" stroke-miterlimit="10"/>
        <path d="M64.5017 54.6276C65.4288 53.5771 66.2316 52.0175 66.7437 50.2504L62.6876 47.7832L67.3132 46.6383C67.3706 44.7932 67.0515 43.0639 66.4827 41.7871C63.2628 41.7064 60.3921 44.0553 59.868 47.3335C59.3736 50.6628 61.4155 53.7173 64.5017 54.6276Z" fill="black" stroke="black" stroke-width="0.8" stroke-miterlimit="10"/>
        <circle cx="36.3069" cy="48.7092" r="8.35465" stroke="black" stroke-width="0.8"/>
        <circle cx="64.2172" cy="48.0166" r="8.35465" stroke="black" stroke-width="0.8"/>
        <rect x="45.1683" y="48.0166" width="10.2859" height="0.692716" fill="black"/>
        <path d="M114.92 76.2406C112.588 79.7822 107.625 80.7729 103.731 81.4182C102.237 81.6695 100.733 81.8292 99.2237 81.9429C98.5401 82.0155 97.8058 82.047 97.1222 82.1196C97.0766 82.1244 97.0766 82.1244 97.031 82.1293C96.2512 82.1656 95.4259 82.2068 94.6511 82.2891C94.1953 82.3374 93.7801 82.3351 93.3243 82.3835C92.9597 82.4222 92.5901 82.415 92.2255 82.4537C89.8861 82.5628 87.5517 82.7178 85.2323 83.0104C84.2297 83.1168 83.2173 82.7139 82.9599 81.6277C82.9448 81.4901 82.9298 81.3526 82.9147 81.215C82.9154 80.3798 83.4579 79.4407 84.3238 79.3488C84.6429 79.3149 84.9619 79.2811 85.2809 79.2472C85.4177 79.2327 85.5544 79.2182 85.6911 79.2037C88.5624 78.8989 91.4538 78.7776 94.2945 78.6153C94.9832 78.5886 95.6212 78.5209 96.3099 78.4942C96.5834 78.4652 96.8112 78.441 97.0897 78.4578C97.8695 78.4214 98.6899 78.3344 99.4647 78.2521C101.84 78.0465 104.194 77.6574 106.484 77.0896C108.054 76.691 109.436 76.2659 110.713 75.2953C111.184 74.9669 111.554 74.5565 111.783 74.1147C111.706 74.2619 111.904 73.545 111.879 73.7333C111.894 73.4533 111.879 73.3157 111.824 73.2288C111.298 71.7999 109.714 70.8082 108.484 70.1036C105.286 68.2625 101.549 67.4064 97.955 66.5816C93.6468 65.5542 94.6949 65.6675 90.4267 64.9849C90.4267 64.9849 89.6326 63.5513 89.2588 62.9306C88.6575 61.9322 88.0715 60.834 88.0715 60.834C90.2738 61.157 96.1458 62.2733 98.3227 62.7846C102.347 63.7493 106.509 64.6995 110.148 66.7722C113.559 68.4515 117.485 72.3031 114.92 76.2406Z" fill="black"/>
        <path d="M93.9339 75.7325C93.9339 75.7325 95.842 73.8609 96.4908 75.5578C97.0027 76.8511 97.1981 79.8494 97.2552 81.1902C97.2761 81.7918 96.9787 82.4267 96.4585 82.7133C96.11 82.8891 95.0891 82.8102 94.5985 82.5364C93.7656 83.3202 92.7312 84.7753 90.397 85.2982C88.6489 85.7133 86.7185 85.7295 84.9643 85.2629C84.0645 85.032 83.2352 84.6079 82.6482 83.8798C82.3243 83.4493 82.0407 82.9681 81.9795 82.4172C81.9488 82.1418 81.9688 81.9074 82.0746 81.6177C82.115 81.5671 82.3317 81.0335 82.3317 81.0335C82.3317 81.0335 80.4898 78.9506 82.8634 77.5412C82.8634 77.5412 80.2215 74.0558 85.902 74.2509C86.2254 74.2635 86.3753 72.7152 87.5721 71.8934C87.7438 71.7825 89.0315 70.9511 90.4872 71.2168C92.2818 71.6327 93.7696 73.4276 93.9339 75.7325Z" fill="white" stroke="black" stroke-width="0.8" stroke-miterlimit="10"/>
        <path d="M82.9527 77.6921L85.1477 77.9303" stroke="black" stroke-width="0.8" stroke-miterlimit="10"/>
        <path d="M82.3536 81.134L84.6244 81.2233" stroke="black" stroke-width="0.8" stroke-miterlimit="10"/>
        <path d="M85.9647 74.3586L89.1281 74.589" stroke="black" stroke-width="0.8" stroke-miterlimit="10"/>
        <path d="M93.9604 75.7229L94.2016 77.9631" stroke="black" stroke-width="0.8" stroke-miterlimit="10"/>
        <path d="M94.4254 80.8989L94.6478 82.5405" stroke="black" stroke-width="0.8" stroke-miterlimit="10"/>
        <path d="M52.0596 50.4036L51.6883 53.3164C51.6883 53.3164 47.0478 52.4488 46.7384 54.8658C46.4291 57.2829 51.8739 56.911 51.8739 56.911" fill="#D9D9D9"/>
        <path d="M52.0596 50.4036L51.6883 53.3164C51.6883 53.3164 47.0478 52.4488 46.7384 54.8658C46.4291 57.2829 51.8739 56.911 51.8739 56.911" stroke="black" stroke-width="0.8" stroke-miterlimit="10"/>
    </g>
    <defs>
        <clipPath id="clip0_722_4523">
            <rect width="117" height="121" fill="white"/>
        </clipPath>
    </defs>
</svg>
