<svg width="117" height="121" viewBox="0 0 117 121" fill="none" xmlns="http://www.w3.org/2000/svg">
    <g clip-path="url(#clip0_755_8183)">
        <path d="M49.9385 81.8603C50.3403 82.3921 50.6657 82.981 51.058 83.5793C52.0054 85.0705 58.9284 94.5159 59.8567 96.1402C62.3068 100.491 64.7669 105.25 66.3758 109.278C66.4811 109.497 66.5959 109.649 66.7012 109.867C68.2321 112.052 72.282 110.449 71.1711 107.713C71.0753 107.428 70.97 107.209 70.8742 106.924C69.2462 103.029 67.4366 98.9722 65.3883 95.1535C64.5842 93.6146 63.7133 92.0663 62.8329 90.5846C62.0672 89.2547 55.2495 80.0279 54.3406 78.7458C54.2832 78.6698 54.2258 78.5938 54.1684 78.5179L54.1973 78.7935C54.0351 78.9743 50.7693 81.2983 49.9385 81.8603Z" fill="black" stroke="black" stroke-width="0.8" stroke-miterlimit="10"/>
        <path d="M70.1015 120.262L70.2833 118.707L71.5563 120.262L88.0748 120.279L88.287 116.704L62.3423 116.445L62.2211 120.193L70.1015 120.262Z" fill="black" stroke="black" stroke-width="0.8" stroke-miterlimit="10"/>
        <path d="M74.7085 105.528C78.6184 106.216 86.7109 108.656 88.287 116.946L62.312 116.508L62.2817 108.656C66.5553 110.001 71.8897 109.094 74.7085 105.528Z" fill="#ACBFFF" stroke="black" stroke-width="0.8" stroke-miterlimit="10"/>
        <path d="M79.7701 106.779L75.1025 110.596" stroke="black" stroke-width="0.8" stroke-miterlimit="10"/>
        <path d="M82.1646 108.03L77.4666 111.878" stroke="black" stroke-width="0.8" stroke-miterlimit="10"/>
        <path d="M49.9959 103.898C50.131 103.898 50.1986 103.898 50.3337 103.898C54.3875 103.764 58.4413 102.957 62.4275 101.814C62.8329 101.68 63.2383 101.545 63.6437 101.411C64.9274 101.008 66.1435 100.604 67.3596 100.201C67.765 100.066 68.1704 99.9321 68.5758 99.7976C68.7109 99.7304 68.846 99.7304 68.9812 99.6632C73.7106 97.8482 77.6968 94.5544 78.1022 89.1767C78.3049 85.8157 77.0888 82.9925 75.0619 80.5725C73.8457 81.8497 72.6296 82.9925 71.5486 84.068C72.2918 85.0763 72.8323 86.219 73.035 87.429C73.9133 92.0672 69.5892 94.2183 65.8732 95.4955C65.4679 95.6299 65.0625 95.7644 64.7247 95.8988C64.6571 95.8988 64.522 95.966 64.4544 95.966C63.1031 96.3694 61.7519 96.8399 60.333 97.176C59.9952 97.2432 59.6574 97.3777 59.3196 97.4449C56.4144 98.2515 53.374 98.7893 50.4013 98.9237C49.9283 98.9237 49.5229 99.0582 49.1851 99.2598C47.0231 100.403 47.2933 103.965 49.9959 103.898Z" fill="black" stroke="black" stroke-width="0.8" stroke-miterlimit="10"/>
        <path d="M41.4364 101.488L42.939 101.958L41.1629 102.908L38.0399 119.019L41.5345 119.899L46.6689 94.6363L42.9864 93.8134L41.4364 101.488Z" fill="black" stroke="black" stroke-width="0.8" stroke-miterlimit="10"/>
        <path d="M55.1392 108.753C53.7235 112.438 49.7892 119.874 41.2958 119.853L46.6129 94.5949L54.3825 96.0417C52.2489 99.958 52.1429 105.333 55.1392 108.753Z" fill="#ACBFFF" stroke="black" stroke-width="0.8" stroke-miterlimit="10"/>
        <path d="M52.95 113.456L50.0539 108.185" stroke="black" stroke-width="0.8" stroke-miterlimit="10"/>
        <path d="M51.2627 115.556L48.3414 110.25" stroke="black" stroke-width="0.8" stroke-miterlimit="10"/>
        <path d="M94.2118 61.6684C94.1572 61.3398 93.6115 58.0537 93.179 55.7725C95.6178 57.2433 97.6032 59.0586 99.5596 61.2921C103.422 65.778 107.255 70.6821 108.897 76.5241C109.056 77.1624 109.199 77.749 109.358 78.3872C109.879 80.9265 106.01 81.7953 105.558 79.2887C105.468 78.8569 105.379 78.4251 105.238 78.0122C103.822 72.6673 100.198 68.2087 96.6956 64.1113C95.8722 63.1983 94.9651 62.3749 94.2118 61.6684Z" fill="black"/>
        <path d="M103.733 79.602C103.836 79.9095 103.198 80.3822 102.98 80.5803C101.336 81.9539 100.864 84.4436 100.841 85.8969C100.861 86.4668 100.791 88.4578 101.64 89.1187C103.422 90.5239 104.795 86.6528 105.259 85.4948C105.449 86.0585 105.483 86.161 105.535 86.3148C105.621 86.571 105.725 86.8785 105.811 87.1347C105.966 87.596 106.088 88.1276 106.243 88.5888C106.521 89.7545 106.699 90.9585 106.977 92.1242C107.185 92.912 107.48 94.129 108.36 94.3738C108.935 94.5605 109.505 94.0556 109.891 93.6786C109.891 93.6786 109.891 93.6786 109.941 93.6595C109.941 93.6595 111.775 95.2184 112.835 92.448C113.056 92.5956 113.344 92.7754 113.614 92.7311C114.642 92.5728 115.204 90.8579 115.434 90.0196C116.044 87.9399 116.262 85.3729 115.994 83.2213C115.728 81.4154 114.974 79.8519 113.649 78.6204C113.394 78.3702 113.156 78.1713 112.851 77.9403C112.613 77.7414 112.038 77.5548 111.902 77.3176C111.902 77.3176 112.136 76.9979 112.169 76.9276C112.352 76.627 112.519 76.2751 112.584 75.9615C112.713 75.1615 112.37 74.3094 111.625 73.9559C110.491 73.461 109.228 73.939 108.117 74.3596C106.804 74.8568 105.44 75.2001 104.11 75.646C100.085 76.8811 102.547 78.9533 103.021 79.1782C103.715 79.5508 103.664 79.397 103.733 79.602Z" fill="white" stroke="black" stroke-width="0.8" stroke-miterlimit="10"/>
        <path d="M109.092 85.7557C109.092 85.7557 110.58 90.4902 110.073 93.7643" stroke="black" stroke-width="0.8" stroke-miterlimit="10"/>
        <path d="M112.942 92.641C112.942 92.641 113.32 88.1397 112.531 85.2981" stroke="black" stroke-width="0.8" stroke-miterlimit="10"/>
        <path d="M107.587 86.236C107.653 86.0956 107.651 85.9229 107.516 85.8584C107.381 85.794 107.23 85.851 107.164 85.9915C107.098 86.1319 107.099 86.3046 107.235 86.369C107.319 86.4525 107.47 86.3955 107.587 86.236Z" fill="black" stroke="black" stroke-width="0.8" stroke-miterlimit="10"/>
        <path d="M110.996 85.2055C111.062 85.065 111.06 84.8924 110.925 84.8279C110.79 84.7635 110.639 84.8205 110.573 84.9609C110.507 85.1014 110.508 85.2741 110.643 85.3385C110.728 85.422 110.929 85.346 110.996 85.2055Z" fill="black" stroke="black" stroke-width="0.8" stroke-miterlimit="10"/>
        <path d="M114.212 84.5964C114.279 84.4559 114.277 84.2832 114.142 84.2188C114.007 84.1543 113.856 84.2114 113.79 84.3518C113.724 84.4923 113.725 84.6649 113.86 84.7294C113.995 84.7938 114.146 84.7368 114.212 84.5964Z" fill="black" stroke="black" stroke-width="0.8" stroke-miterlimit="10"/>
        <path d="M103.739 79.6169L105.269 79.1583" stroke="black" stroke-width="0.8" stroke-miterlimit="10"/>
        <path d="M110.445 77.8844L111.775 77.3337" stroke="black" stroke-width="0.8" stroke-miterlimit="10"/>
        <path d="M46.6574 59.5323C42.0659 62.4478 37.8316 66.2116 32.6789 68.0139C30.4342 68.8091 28.1385 69.1271 26.2509 68.0139C23.8021 66.5826 22.1696 63.9851 20.9452 61.3876C19.4657 58.26 18.5474 54.8673 17.4761 51.5807C16.6598 48.9832 12.6805 50.0964 13.4968 52.6939C15.5885 59.2672 17.4761 66.6886 23.1389 70.9825C28.5466 75.0643 35.3828 71.8837 40.4845 68.7561C43.2903 67.0067 45.9432 64.9393 48.7491 63.19C50.9938 61.8117 48.9021 58.101 46.6574 59.5323Z" fill="black"/>
        <path d="M20.4259 55.3976L19.9551 55.6073C24.6632 53.7203 22.7799 45.0543 20.5604 43.5167C17.5338 41.7696 17.5338 47.71 17.5338 47.71C17.5338 47.71 15.5832 44.2156 11.615 41.4201C6.90687 37.9956 7.78125 42.1889 7.78125 42.1889C7.78125 42.1889 5.96526 40.3718 4.01475 41.49C2.53506 42.6082 4.28378 44.2855 4.28378 44.2855C3.34216 43.8662 1.45892 43.2372 1.05537 44.6349C0.719077 45.9628 1.99699 47.1509 2.66958 47.9197C3.67846 49.0379 4.7546 50.0163 5.83074 50.9947C6.16703 51.2743 6.77236 51.6936 6.90688 52.1129C8.79012 58.6823 13.6327 58.3329 13.6327 58.3329C13.4982 58.9619 13.4982 60.0801 13.8345 60.4295C14.3053 60.9188 15.0452 61.0585 15.7178 60.8489C17.1302 60.3597 20.2241 59.1017 21.4348 58.1233C23.049 56.9352 20.4259 55.3976 20.4259 55.3976Z" fill="white" stroke="black" stroke-width="0.8" stroke-miterlimit="10"/>
        <path d="M7.78113 42.1887L13.0273 47.2206" stroke="black" stroke-width="0.8" stroke-miterlimit="10"/>
        <path d="M4.28381 44.2856L9.79904 49.5272" stroke="black" stroke-width="0.8" stroke-miterlimit="10"/>
        <path d="M8.52112 50.4357L13.5655 46.8015" stroke="black" stroke-width="0.8" stroke-miterlimit="10"/>
        <path d="M17.5338 47.7102L17.6683 48.7585C17.6683 48.7585 13.4311 48.479 13.9019 52.3927" stroke="black" stroke-width="0.8" stroke-miterlimit="10"/>
        <path d="M15.1125 57.634L13.5656 58.4727" stroke="black" stroke-width="0.8" stroke-miterlimit="10"/>
        <path d="M90.3354 84.8345L79.2377 71.638L78.5527 71.9882L82.782 88.9204L71.8087 91.8523L66.4859 69.9934L66.1551 68.6347L65.7235 69.9495L58.713 91.3061L48.0639 87.5318L55.1011 66.0935L55.5294 64.7889L54.4731 65.6431L37.2215 79.5936L30.334 70.3323L43.5641 59.5862L43.2257 58.8752L26.7573 62.3017L24.5484 50.7657L43.7466 46.8347L45.1574 46.5458L43.7859 46.0597L25.21 39.4761L28.8499 28.3873L47.3472 34.943L48.709 35.4257L47.7728 34.3058L34.9137 18.9231L43.4201 11.2716L54.4684 24.3626L55.1533 24.0133L51.001 7.10865L61.872 4.22803L67.3757 26.3374L67.7102 27.6813L68.1376 26.3793L75.2285 4.77755L85.8777 8.55181L78.8136 30.0718L78.3829 31.384L79.4426 30.5215L96.6172 16.5434L103.527 25.7249L90.2988 36.4696L90.6346 37.1811L107.156 33.8611L109.316 45.2912L90.0881 49.3031L88.6884 49.5951L90.0502 50.0778L108.469 56.6056L104.829 67.6945L86.3316 61.1387L84.96 60.6526L85.9069 61.7771L98.7932 77.0807L90.3354 84.8345Z" fill="#F96F6F" stroke="black" stroke-width="0.8"/>
        <path d="M47.7601 54.7074L53.0045 57.1816L61.8943 61.5484L57.7016 70.4549L37.9708 56.8933L47.7601 54.7074Z" fill="white"/>
        <path d="M84.9894 57.1385L70.7703 62.4009L71.9728 71.8256L92.8243 60.1342L84.9894 57.1385Z" fill="white"/>
        <path d="M47.7601 54.7074L53.0045 57.1816L61.8943 61.5484L57.7016 70.4549L37.9708 56.8933L47.7601 54.7074Z" stroke="black" stroke-width="0.8"/>
        <path d="M84.9894 57.1385L70.7703 62.4009L71.9728 71.8256L92.8243 60.1342L84.9894 57.1385Z" stroke="black" stroke-width="0.8"/>
        <path d="M61.4516 62.1717L70.2341 62.3187L65.9567 69.5348L69.8468 74.4264L68.4027 97.6611L64.7168 102.765L61.107 96.8334L61.9712 73.5365L65.9567 69.5348L61.4516 62.1717Z" fill="#5663F1"/>
        <path d="M65.9567 69.5348L70.2341 62.3187L61.4516 62.1717L65.9567 69.5348ZM65.9567 69.5348L61.9712 73.5365L61.107 96.8334L64.7168 102.765L68.4027 97.6611L69.8468 74.4264L65.9567 69.5348Z" stroke="black" stroke-width="0.8"/>
        <path d="M67.2246 46.0851C69.8475 46.2668 71.6836 45.0403 74.1317 45.1766C75.4869 45.2674 76.7984 45.5854 76.7984 47.0844C76.8421 49.8553 74.7437 51.6723 72.2082 52.7625C68.9295 54.1707 65.1262 54.0344 61.8912 52.5354C59.1371 51.2635 56.2955 49.174 56.9513 45.9034C57.2573 44.4044 58.5251 44.2227 59.8365 44.3135C62.2409 44.4952 64.8202 45.9488 67.2246 46.0851Z" fill="white" stroke="black" stroke-width="0.8" stroke-miterlimit="10"/>
        <path d="M62.6344 44.9497C62.2847 45.8128 61.8912 46.9938 61.7164 48.4474C61.4978 50.1281 61.6726 51.5363 61.8475 52.5357" stroke="black" stroke-width="0.8" stroke-miterlimit="10"/>
        <path d="M67.2245 46.0857C66.9185 46.9942 66.6562 48.2207 66.5687 49.6743C66.4813 51.355 66.6562 52.7177 66.9185 53.7625" stroke="black" stroke-width="0.8" stroke-miterlimit="10"/>
        <path d="M72.2081 45.313C71.9458 46.2669 71.6835 47.5842 71.6835 49.2195C71.6835 50.6731 71.9458 51.8996 72.2081 52.7627" stroke="black" stroke-width="0.8" stroke-miterlimit="10"/>
        <path d="M64.5629 39.5484C64.4292 40.5809 65.1409 41.5158 66.1412 41.6611C67.1416 41.8064 68.0417 41.0776 68.1753 40.0451C68.309 39.0126 67.5973 38.0776 66.597 37.9324C65.5966 37.7871 64.6965 38.5158 64.5629 39.5484Z" fill="#E30611" stroke="black" stroke-width="0.8" stroke-miterlimit="10"/>
        <path d="M62.1375 41.5061C60.5914 40.8912 58.6195 40.5947 56.5223 40.7387C56.2107 40.7515 55.8991 40.7644 55.5837 40.8222C54.0144 41.0212 52.5621 41.4139 51.4065 41.9736C50.881 40.286 50.5979 38.3516 50.5497 36.2604C50.5289 35.4418 50.5484 34.6728 50.6558 33.9131C50.8237 31.8897 51.2407 30.0737 51.8991 28.5551C52.955 25.9894 54.6035 24.302 56.4658 24.3149C56.5098 24.3195 56.5538 24.3241 56.5978 24.3287C58.8962 24.4325 60.9454 27.0047 61.9664 30.7395C62.3711 32.2784 62.6288 33.9834 62.6995 35.8049C62.692 35.8948 62.7285 35.9894 62.7211 36.0793C62.7328 38.0761 62.4918 39.9104 62.1375 41.5061Z" fill="white" stroke="black" stroke-width="0.8" stroke-miterlimit="10"/>
        <path d="M61.9641 30.7521C60.9033 26.9687 58.899 24.4017 56.6015 24.2979C55.3464 25.5272 54.5153 27.5261 54.4607 29.7875C54.4553 30.9205 54.6334 31.982 54.9544 32.9223L57.8728 31.9573L55.8679 34.7406C56.8186 36.1094 58.1622 37.0205 59.6683 37.0417C60.8189 37.0711 61.8749 36.6372 62.7849 35.8254C62.6263 33.9951 62.3686 32.2906 61.9641 30.7521Z" fill="black" stroke="black" stroke-width="0.8" stroke-miterlimit="10"/>
        <path d="M81.5836 41.5552L81.5799 41.6001L81.5761 41.6451C81.5724 41.6901 81.5687 41.735 81.5172 41.8203C81.3048 41.7075 81.0484 41.59 80.8322 41.5221C80.704 41.4634 80.5758 41.4046 80.4476 41.3459C79.2424 40.9027 77.8903 40.6255 76.4353 40.519C75.8636 40.4593 75.2845 40.4896 74.709 40.4749C74.6211 40.4657 74.5771 40.4611 74.4854 40.4969C73.1034 40.5794 71.8862 40.8151 70.786 41.2444C70.3889 39.6158 70.1863 37.7807 70.2111 35.8787C70.3123 29.3138 73.0983 24.0722 76.463 24.1513C78.3212 24.2092 79.9572 25.8764 81.0273 28.4823C81.1734 28.8603 81.3157 29.2833 81.4543 29.7512C81.4506 29.7962 81.4908 29.8457 81.4871 29.8907C81.5273 29.9402 81.5198 30.0301 81.5601 30.0797C81.5966 30.1742 81.5929 30.2192 81.6294 30.3137C81.6622 30.4531 81.6987 30.5476 81.7315 30.6871C81.7605 30.8715 81.8373 31.0156 81.8663 31.2C81.8954 31.3844 81.9244 31.5689 81.9975 31.7579C82.0884 32.2662 82.1792 32.7745 82.2262 33.2782C82.2552 33.4627 82.2843 33.6471 82.2731 33.782C82.2731 33.782 82.2731 33.782 82.2693 33.8269C82.2947 34.0563 82.3163 34.3306 82.3416 34.56C82.3706 34.7444 82.3557 34.9243 82.3408 35.1041C82.3296 35.239 82.3624 35.3784 82.3512 35.5133C82.3474 35.5583 82.3474 35.5583 82.3437 35.6032C82.3288 35.7831 82.3578 35.9675 82.3392 36.1923C82.3144 38.0943 82.0735 39.9284 81.5836 41.5552Z" fill="white" stroke="black" stroke-width="0.8" stroke-miterlimit="10"/>
        <path d="M81.6849 30.6978C80.7118 26.9231 78.7144 24.2658 76.4164 24.162C75.1171 25.3868 74.2456 27.3365 74.147 29.5936C74.0977 30.7221 74.2757 31.7837 74.5529 32.7196L77.369 31.9252L75.3786 34.529C76.2819 35.9384 77.6257 36.8496 79.1284 36.9157C80.2755 36.9901 81.3757 36.5608 82.2859 35.7488C82.2995 33.9817 82.0895 32.2365 81.6849 30.6978Z" fill="black" stroke="black" stroke-width="0.8" stroke-miterlimit="10"/>
    </g>
    <defs>
        <clipPath id="clip0_755_8183">
            <rect width="117" height="121" fill="white"/>
        </clipPath>
    </defs>
</svg>
