<svg width="122" height="121" viewBox="0 0 122 121" fill="none" xmlns="http://www.w3.org/2000/svg">
<path d="M67.155 108.607C66.7866 111.166 63.6417 111.387 62.5737 109.739C62.2986 109.293 62.1684 108.75 62.3016 108.136C62.877 104.334 62.0878 90.7245 61.6041 86.9509C61.539 86.6794 61.5464 86.3591 61.4813 86.0876C63.2771 86.0903 64.8954 86.0545 66.422 85.8702C67.1349 90.0152 67.831 104.055 67.2615 108.115C67.2348 108.238 67.1949 108.423 67.155 108.607Z" fill="black" stroke="black" stroke-width="0.8" stroke-miterlimit="10"/>
<path d="M68.8398 107.754L59.2892 107.497L58.9665 119.654L82.1978 119.846L82.3269 117.081C82.3269 117.081 80.8427 111.806 68.7753 113.222L68.8398 107.754Z" fill="#F96F6F" stroke="black" stroke-width="0.8" stroke-miterlimit="10"/>
<path d="M75.6156 113.157C81.4235 113.993 82.3269 117.081 82.3269 117.081L82.1978 119.846L73.8733 119.782C74.1314 117.467 74.6477 115.28 75.6156 113.157Z" fill="white" stroke="black" stroke-width="0.8" stroke-miterlimit="10"/>
<path d="M59.0956 116.695L82.3269 117.081L82.1978 119.846L58.9665 119.654L59.0956 116.695Z" fill="white" stroke="black" stroke-width="0.8" stroke-miterlimit="10"/>
<path d="M68.6461 109.942L68.6461 109.62L64.5161 109.491L64.5161 109.813L68.6461 109.942Z" fill="white"/>
<path d="M64.5194 111.634L68.5836 111.739L68.577 111.996L64.5127 111.892L64.5194 111.634Z" fill="white"/>
<path d="M64.3224 109.878C64.1799 109.878 64.0643 109.762 64.0643 109.62C64.0643 109.478 64.1799 109.362 64.3224 109.362C64.465 109.362 64.5806 109.478 64.5806 109.62C64.5806 109.762 64.465 109.878 64.3224 109.878Z" fill="white" stroke="white" stroke-width="0.8" stroke-miterlimit="10"/>
<path d="M64.2582 112C64.1157 112 64.0001 111.885 64.0001 111.743C64.0001 111.6 64.1157 111.485 64.2582 111.485C64.4008 111.485 64.5164 111.6 64.5164 111.743C64.5164 111.885 64.4008 112 64.2582 112Z" fill="white" stroke="white" stroke-width="0.8" stroke-miterlimit="10"/>
<path d="M94.0392 107.109C94.2208 109.689 91.1937 110.569 89.8013 109.185C89.4381 108.808 89.1959 108.305 89.1959 107.676C88.9537 103.838 85.302 90.7042 84.0306 87.1185C83.9096 86.8668 83.849 86.5523 83.7279 86.3007C85.4836 85.9232 87.0577 85.5458 88.5107 85.0425C90.0847 88.9428 93.7365 102.517 94.0392 106.606C94.0392 106.732 94.0392 106.921 94.0392 107.109Z" fill="black" stroke="black" stroke-width="0.8" stroke-miterlimit="10"/>
<path d="M42.2864 60.171L42.2864 60.1709C41.9293 59.063 40.9746 58.0913 39.8382 57.206C38.8824 56.4615 37.7454 55.7398 36.6219 55.0266C36.3996 54.8855 36.1779 54.7448 35.9583 54.6043C34.6139 53.7443 33.3435 52.8917 32.409 51.992C31.5245 51.1406 30.9962 50.2996 30.9387 49.4256L30.9423 49.4219V49.2571C30.9423 48.3257 31.4797 47.4343 32.4178 46.5312C33.3524 45.6316 34.6228 44.7789 35.9672 43.919C36.1869 43.7785 36.4086 43.6377 36.6309 43.4966C37.7544 42.7834 38.8914 42.0617 39.847 41.3172C40.9835 40.432 41.9382 39.4603 42.2953 38.3524L42.2953 38.3522C42.6622 37.2125 42.4708 35.8382 42.0763 34.4289C41.731 33.1951 41.2107 31.8728 40.7007 30.5765C40.6244 30.3827 40.5484 30.1895 40.4732 29.9972C39.8893 28.5039 39.3565 27.069 39.1166 25.8023C38.8753 24.5279 38.949 23.5171 39.465 22.8009C39.9873 22.0782 40.9227 21.6921 42.2014 21.5279C43.4737 21.3646 44.9943 21.4318 46.5842 21.5318C46.8021 21.5455 47.0213 21.5598 47.2411 21.5742C48.6088 21.6635 50.0011 21.7545 51.2561 21.7086C52.7029 21.6556 54.0549 21.4202 55.0084 20.7199C55.9532 20.0261 56.5835 18.8048 57.0737 17.4365C57.493 16.266 57.8301 14.9249 58.1622 13.6037C58.2212 13.3689 58.28 13.1348 58.3392 12.9023C58.7351 11.3458 59.1436 9.86408 59.6961 8.69156C60.2516 7.51266 60.914 6.73075 61.7692 6.45085L61.7694 6.4508C62.584 6.18384 63.5436 6.42627 64.663 7.05649C65.7748 7.68241 66.9578 8.64096 68.1847 9.66676C68.3236 9.78291 68.4631 9.89992 68.603 10.0173C69.6862 10.9259 70.7954 11.8564 71.8786 12.5842C73.0939 13.4009 74.3439 14.0106 75.5511 14.0106C76.7581 14.0106 78.0085 13.4022 79.2247 12.5873C80.308 11.8614 81.4177 10.9334 82.5013 10.0272C82.6418 9.90965 82.782 9.79245 82.9216 9.67611C84.1496 8.65258 85.3337 7.6962 86.4463 7.0719C87.5665 6.44331 88.5268 6.20167 89.3418 6.46873L89.3419 6.46878C90.1971 6.74864 90.8589 7.53045 91.4137 8.70932C91.9656 9.88183 92.3732 11.3635 92.7686 12.9201C92.827 13.15 92.8852 13.3816 92.9435 13.6138C93.2758 14.9375 93.6133 16.2816 94.0338 17.4545C94.5244 18.8229 95.1559 20.0442 96.1029 20.7379C97.0564 21.4382 98.4084 21.6735 99.8551 21.7265C101.11 21.7724 102.502 21.6815 103.87 21.5921C104.09 21.5778 104.309 21.5634 104.527 21.5497C106.117 21.4498 107.637 21.3825 108.91 21.5459C110.189 21.7101 111.124 22.0963 111.646 22.8192C112.162 23.5354 112.236 24.5461 111.995 25.8202C111.755 27.087 111.222 28.5219 110.638 30.0151C110.563 30.2074 110.487 30.4006 110.41 30.5944C109.9 31.8907 109.38 33.213 109.035 34.4469C108.64 35.8562 108.449 37.2305 108.816 38.3702L108.816 38.3703C109.173 39.4782 110.128 40.4499 111.264 41.3352C112.22 42.0796 113.357 42.8014 114.48 43.5146C114.703 43.6557 114.924 43.7964 115.144 43.9369C116.488 44.7968 117.759 45.6495 118.693 46.5492C119.631 47.4523 120.169 48.3436 120.169 49.2751C120.169 50.2065 119.631 51.0979 118.693 52.001C117.759 52.9007 116.488 53.7533 115.144 54.6132C114.924 54.7537 114.703 54.8945 114.48 55.0356C113.357 55.7488 112.22 56.4705 111.264 57.215C110.128 58.1003 109.173 59.072 108.816 60.1798L108.816 60.18C108.449 61.3197 108.64 62.694 109.035 64.1033C109.38 65.3372 109.9 66.6594 110.41 67.9557C110.487 68.1495 110.563 68.3428 110.638 68.535C111.222 70.0283 111.755 71.4632 111.995 72.7299C112.236 74.0043 112.162 75.0151 111.646 75.7314C111.124 76.454 110.188 76.8401 108.91 77.0043C107.637 77.1676 106.117 77.1004 104.527 77.0004C104.309 76.9867 104.09 76.9724 103.87 76.958C102.503 76.8687 101.11 76.7777 99.8551 76.8237C98.4083 76.8766 97.0563 77.112 96.1027 77.8124C95.158 78.5061 94.5277 79.7274 94.0375 81.0958C93.6182 82.2663 93.2811 83.6073 92.949 84.9285C92.89 85.1633 92.8311 85.3974 92.772 85.6299C92.3761 87.1864 91.9676 88.6681 91.4151 89.8407C90.8597 91.0193 90.1975 91.8011 89.3426 92.0812C88.5274 92.3464 87.5668 92.1036 86.4464 91.4745C85.3337 90.8498 84.1495 89.8936 82.9215 88.8706C82.7829 88.7552 82.6439 88.639 82.5044 88.5224C81.4197 87.6159 80.3089 86.6875 79.2245 85.9615C78.0083 85.1473 76.7579 84.5395 75.5511 84.5395C74.3442 84.5395 73.0938 85.1479 71.8776 85.9628C70.7942 86.6888 69.6845 87.6168 68.6008 88.5231C68.4603 88.6406 68.3202 88.7578 68.1807 88.874C66.9527 89.8976 65.7686 90.854 64.656 91.4783C63.5358 92.1068 62.5754 92.3485 61.7605 92.0814L61.7603 92.0814C60.9052 91.8015 60.2434 91.0197 59.6885 89.8408C59.1367 88.6683 58.729 87.1866 58.3336 85.63C58.2752 85.4001 58.2171 85.1685 58.1588 84.9363C57.8265 83.6126 57.489 82.2685 57.0685 81.0957C56.5778 79.7271 55.9463 78.5057 54.9991 77.8121M42.2864 60.171L39.4561 75.7224C39.9784 76.445 40.9138 76.8311 42.1926 76.9955C43.4649 77.159 44.9854 77.092 46.5754 76.9925C46.7911 76.9791 47.008 76.965 47.2256 76.9509C48.5955 76.8619 49.9904 76.7714 51.2476 76.8185C52.694 76.8727 54.0457 77.1098 54.9991 77.8121M42.2864 60.171C42.6533 61.3107 42.4619 62.685 42.0675 64.0943C41.7221 65.3282 41.2018 66.6505 40.6918 67.9468C40.6155 68.1406 40.5395 68.3338 40.4643 68.5261C39.8804 70.0193 39.3476 71.4542 39.1077 72.721C38.8664 73.9951 38.9401 75.0057 39.4557 75.7219L42.2864 60.171ZM54.9991 77.8121L54.7628 78.1348L55.0001 77.8128C54.9998 77.8126 54.9995 77.8123 54.9991 77.8121Z" fill="#ACBFFF" stroke="black" stroke-width="0.8"/>
<path d="M69.5278 37.7988C69.2028 32.8003 67.6413 28.5909 65.5602 26.7065C64.7359 25.9841 63.8906 25.5681 63.0137 25.6117C59.8131 25.8068 57.6188 31.5592 58.0152 38.512C58.4151 45.4138 61.3799 50.8976 64.5293 50.6991C65.355 50.652 66.1576 50.193 66.8243 49.4683C68.7184 47.3383 69.8458 42.8993 69.5278 37.7988Z" fill="white" stroke="black" stroke-width="0.8" stroke-miterlimit="10"/>
<path d="M66.829 49.4174C63.8104 49.2143 61.1075 44.4151 60.7504 38.3887C60.7644 38.1844 60.7273 37.9767 60.7378 37.8235L65.559 37.2245L60.8354 34.9058C61.2975 30.4223 63.122 27.0564 65.5616 26.7076C67.6423 28.5919 69.2001 32.8522 69.5286 37.7994C69.8465 42.8997 68.7193 47.3385 66.829 49.4174Z" fill="black" stroke="black" stroke-width="0.8" stroke-miterlimit="10"/>
<path d="M90.5089 36.5019C90.1839 31.5035 88.6224 27.294 86.5413 25.4097C85.717 24.6873 84.8717 24.2712 83.9948 24.3148C80.7942 24.5099 78.5999 30.2624 78.9963 37.2152C79.3961 44.1169 82.3609 49.6008 85.5104 49.4022C86.3361 49.3552 87.1387 48.8961 87.8054 48.1714C89.6995 46.0414 90.8269 41.6025 90.5089 36.5019Z" fill="white" stroke="black" stroke-width="0.8" stroke-miterlimit="10"/>
<path d="M87.8067 48.1718C84.7881 47.9686 82.0852 43.1695 81.7281 37.1431C81.7421 36.9388 81.705 36.7311 81.7155 36.5779L86.5366 35.9789L81.813 33.6602C82.2751 29.1767 84.0996 25.8108 86.5393 25.462C88.62 27.3463 90.1778 31.6066 90.5062 36.5538C90.8277 41.6031 89.7005 46.0419 87.8067 48.1718Z" fill="black" stroke="black" stroke-width="0.8" stroke-miterlimit="10"/>
<path d="M73.4558 40.6836L73.6089 42.9512C73.6089 42.9512 73.8137 42.965 73.8684 42.9174C75.1587 42.8505 76.691 43.0051 76.8896 44.6089C77.0707 46.468 74.9705 47.096 73.5721 46.4887" fill="#ACBFFF"/>
<path d="M73.4558 40.6836L73.6089 42.9512C73.6089 42.9512 73.8137 42.965 73.8684 42.9174C75.1587 42.8505 76.691 43.0051 76.8896 44.6089C77.0707 46.468 74.9705 47.096 73.5721 46.4887" stroke="black" stroke-width="0.8" stroke-miterlimit="10"/>
<path d="M71.7661 58.6262C72.6956 60.0742 73.9126 61.0798 75.6127 61.0404C77.2616 60.9976 78.3592 59.9941 79.1263 58.5579C81.0821 54.7902 80.5645 48.0852 80.5645 48.0852L76.9559 48.2012L72.4187 48.3572L69.2745 48.4531C69.271 48.5042 69.4442 54.9807 71.7661 58.6262Z" fill="black" stroke="black" stroke-width="0.8" stroke-miterlimit="10"/>
<path d="M71.734 58.3667C72.6566 59.9169 73.9179 61.0282 75.6182 60.9889C77.2673 60.9461 78.3685 59.8914 79.1427 58.3528C78.9384 56.0813 77.1523 54.3702 75.1343 54.542C73.2733 54.6732 71.8229 56.3201 71.734 58.3667Z" fill="#E30611" stroke="black" stroke-width="0.8" stroke-miterlimit="10"/>
<path d="M80.7601 45.9994C80.3495 46.7412 79.4017 48.5752 79.486 51.0944C79.611 53.7702 80.822 55.596 81.3427 56.2466" fill="#ACBFFF"/>
<path d="M80.7601 45.9994C80.3495 46.7412 79.4017 48.5752 79.486 51.0944C79.611 53.7702 80.822 55.596 81.3427 56.2466" stroke="black" stroke-width="0.8" stroke-miterlimit="10"/>
<path d="M68.8588 46.2191C69.27 46.965 70.1701 48.8211 70.0499 51.3264C69.9192 53.9849 68.6651 55.7982 68.156 56.4819" fill="#ACBFFF"/>
<path d="M68.8588 46.2191C69.27 46.965 70.1701 48.8211 70.0499 51.3264C69.9192 53.9849 68.6651 55.7982 68.156 56.4819" stroke="black" stroke-width="0.8" stroke-miterlimit="10"/>
<path d="M41.3019 58.5518C41.8067 58.9548 42.4263 60.9461 42.4263 60.9461C42.4263 60.9461 41.3327 61.3965 39.8484 61.8473C35.8497 62.9311 31.9047 61.9599 28.732 59.337C25.687 56.8063 23.6184 53.3336 21.7584 49.8954C20.8574 48.2166 19.9855 46.5783 19.2059 44.8128C18.8451 43.9704 18.4844 43.1281 18.1236 42.2857C17.7162 41.2934 17.3493 40.2721 16.971 39.32C16.971 39.32 16.9419 39.2797 16.9129 39.2393C16.5812 38.4373 16.2495 37.6353 15.9468 36.8737C15.4699 35.8699 16.1737 34.6338 17.1573 34.298C18.2218 33.9043 19.3348 34.5149 19.7422 35.5073C19.9982 36.1189 20.2657 36.6612 20.4813 37.3017C20.9177 38.3344 21.3427 39.4365 21.7386 40.4982C22.1636 41.6002 22.6177 42.7426 23.1526 43.8272C23.897 45.3734 24.7575 47.081 25.5247 48.4886C27.1463 51.4249 28.994 54.5053 31.6502 56.5804C34.0512 58.4711 35.3621 59.4472 38.3471 58.2318C40.5281 57.3463 39.8673 57.6057 39.8673 57.6057C39.8673 57.6057 40.4254 57.8521 41.3019 58.5518Z" fill="black"/>
<path d="M13.1377 40.3522C13.1377 40.3522 -0.99885 27.5809 3.25896 24.0619C3.25896 24.0619 4.8419 22.9313 6.33894 24.0134C6.33894 24.0134 5.86949 19.807 9.63895 20.9394C11.9883 21.6518 12.5793 26.2494 12.5793 26.2494C12.6538 25.7978 13.1964 25.3306 13.5279 25.0142C14.3641 24.1779 15.3138 23.4996 16.415 23.0318C18.014 22.3679 20.3013 22.3278 21.226 24.0577C21.2639 24.1104 21.3018 24.163 21.2868 24.2533C21.9546 25.8481 20.4336 27.7312 18.7267 27.3567C17.5108 27.1096 16.0689 27.1037 15.1271 28.0153C13.839 29.3337 14.5377 31.3047 16.1472 31.9878C18.1042 32.8211 20.9925 31.3956 21.0829 27.7455C21.0817 27.1886 20.9371 26.6544 21.1172 26.1274C21.3649 25.4724 22.2023 25.1931 22.7919 25.5688C24.8178 26.8309 27.4347 32.6907 20.979 35.7079" fill="white"/>
<path d="M13.1377 40.3522C13.1377 40.3522 -0.99885 27.5809 3.25896 24.0619C3.25896 24.0619 4.8419 22.9313 6.33894 24.0134C6.33894 24.0134 5.86949 19.807 9.63895 20.9394C11.9883 21.6518 12.5793 26.2494 12.5793 26.2494C12.6538 25.7978 13.1964 25.3306 13.5279 25.0142C14.3641 24.1779 15.3138 23.4996 16.415 23.0318C18.014 22.3679 20.3013 22.3278 21.226 24.0577C21.2639 24.1104 21.3018 24.163 21.2868 24.2533C21.9546 25.8481 20.4336 27.7312 18.7267 27.3567C17.5108 27.1096 16.0689 27.1037 15.1271 28.0153C13.839 29.3337 14.5377 31.3047 16.1472 31.9878C18.1042 32.8211 20.9925 31.3956 21.0829 27.7455C21.0817 27.1886 20.9371 26.6544 21.1172 26.1274C21.3649 25.4724 22.2023 25.1931 22.7919 25.5688C24.8178 26.8309 27.4347 32.6907 20.979 35.7079" stroke="black" stroke-width="0.8" stroke-miterlimit="10"/>
<path d="M6.30182 23.9656L8.81654 28.4618" stroke="black" stroke-width="0.8" stroke-miterlimit="10"/>
<path d="M18.9835 37.0466L21.012 35.7571C23.6968 34.1584 29.1689 36.5464 19.9144 41.5624C10.622 46.5256 13.1986 40.222 13.1986 40.222C13.5531 40.0485 14.0511 39.8522 14.4733 39.5507C14.8806 39.3394 15.25 39.0756 15.5288 38.7967" fill="white"/>
<path d="M18.9835 37.0466L21.012 35.7571C23.6968 34.1584 29.1689 36.5464 19.9144 41.5624C10.622 46.5256 13.1986 40.222 13.1986 40.222C13.5531 40.0485 14.0511 39.8522 14.4733 39.5507C14.8806 39.3394 15.25 39.0756 15.5288 38.7967" stroke="black" stroke-width="0.8" stroke-miterlimit="10"/>
<path d="M43.9027 15.3651L46.727 17.0422C46.8472 16.9224 49.4913 14.287 49.4913 14.287C55.2001 9.136 68.12 -0.147788 83.5637 5.2428C90.895 7.75841 96.9042 13.2688 101.051 18.1203C101.832 19.0187 102.553 19.9172 103.214 20.7557C104.416 22.2531 105.377 23.6307 106.098 24.7088L108.863 23.2114C105.257 17.9406 96.9042 7.21935 84.3449 2.84698C64.9351 -3.8613 49.7317 9.49538 45.0445 14.2271C44.5637 14.7063 44.2032 15.1255 43.9027 15.3651Z" fill="#E30611" stroke="black" stroke-width="0.8" stroke-miterlimit="10"/>
<path d="M46.3064 41.0602C47.8087 40.9404 49.2509 40.4612 50.5128 39.6826C50.5729 39.6826 50.5729 39.6227 50.633 39.6227V15.6046V14.826C50.5729 14.826 50.5729 14.7661 50.5128 14.7661C49.7316 14.4067 48.9504 14.1671 48.1091 14.0474C47.5082 13.9875 46.9073 13.9276 46.2463 13.9875C40.237 14.4067 35.3695 20.8155 35.4296 28.2426C35.4296 35.7894 40.2971 41.4795 46.3064 41.0602Z" fill="#E30611" stroke="black" stroke-width="0.8" stroke-miterlimit="10"/>
<path d="M105.077 44.7737C104.416 44.8336 103.815 44.8336 103.214 44.7138C102.613 44.6539 102.012 44.4742 101.411 44.2945C101.291 33.3337 101.111 23.0915 101.051 18.8989C102.253 18.24 103.575 17.8207 104.897 17.7608C110.966 17.2817 115.954 22.9717 116.014 30.3988C116.014 37.8258 111.146 44.2945 105.077 44.7737Z" fill="#E30611" stroke="black" stroke-width="0.8" stroke-miterlimit="10"/>
<path d="M101.003 62.6311L94.2718 58.6242L90.6003 64.1101L89.1081 66.4021L88.0376 68.0211L79.6242 80.612L79.2953 85.2234L79.0662 88.4348C80.0545 87.9686 81.0486 87.4201 82.0368 86.9538L86.1727 84.854L94.7247 72.0662L95.7952 70.4472L97.2874 68.1552L101.003 62.6311Z" fill="#5663F1" stroke="black" stroke-width="0.8" stroke-miterlimit="10"/>
<path d="M79.6167 80.6144L81.8906 79.5798L81.8295 82.182L84.3422 80.7095L84.06 83.5025L86.207 82.5L86.1636 84.8552L79.1031 88.397L79.6167 80.6144Z" fill="white" stroke="black" stroke-width="0.8" stroke-miterlimit="10"/>
<path d="M79.3299 85.1872C79.4567 85.155 80.3179 84.7211 81.1587 85.1545C82.0762 85.6763 82.0766 86.8349 82.0708 86.9172C81.0828 87.3833 80.0889 87.9317 79.1009 88.3978L79.3299 85.1872Z" fill="black" stroke="black" stroke-width="0.8" stroke-miterlimit="10"/>
<path d="M81.8568 79.6183L95.4684 59.3726" stroke="black" stroke-width="0.8" stroke-miterlimit="10"/>
<path d="M84.3017 80.828L97.5768 60.6409" stroke="black" stroke-width="0.8" stroke-miterlimit="10"/>
<path d="M86.209 82.5783L99.7731 61.8328" stroke="black" stroke-width="0.8" stroke-miterlimit="10"/>
<path d="M94.977 57.6364C94.977 57.6364 97.2523 53.6651 100.801 55.7017C104.388 57.7824 101.705 61.6414 101.705 61.6414L94.977 57.6364Z" fill="#FF1F33" stroke="black" stroke-width="0.8" stroke-miterlimit="10"/>
<path d="M98.8774 56.5151C98.0305 56.1639 96.883 56.5358 96.2342 57.4819C96.0956 57.6787 95.8595 57.496 95.9981 57.2992C96.7412 56.1944 98.1425 55.7582 99.0662 56.1978C99.2314 56.2098 99.081 56.5713 98.8774 56.5151Z" fill="white"/>
<path d="M99.3164 56.7527C99.1568 56.6583 99.3901 56.3023 99.5437 56.4792C99.7476 56.5354 99.5143 56.8914 99.3164 56.7527Z" fill="white"/>
<path d="M94.284 58.6221L101.049 62.6704L101.703 61.6427L94.9765 57.6385L94.284 58.6221Z" fill="black" stroke="black" stroke-width="0.8" stroke-miterlimit="10"/>
<path d="M93.5985 74.0545C93.8515 74.1948 94.1045 74.3351 94.3575 74.4754C96.1635 75.3946 97.9696 76.3138 99.8458 77.1069C101.371 77.7876 102.881 78.4193 104.378 79.0019C104.68 79.1282 105.032 79.2406 105.334 79.3669C108.742 80.6796 113.133 82.084 116.679 80.5448C122.156 78.138 119.081 70.9465 117.041 67.1752C114.776 62.9904 112.878 62.1325 109.476 58.8018L108.766 60.6805L108.768 62.8079C110.434 64.722 112.11 67.0388 113.327 69.2399C113.911 70.3474 114.459 71.518 114.896 72.6675C115.213 73.5856 115.635 74.6861 115.544 75.667C115.559 75.7161 115.446 76.0664 115.46 76.1154C115.425 76.1785 115.39 76.2415 115.39 76.2415C115.355 76.3045 115.236 76.4446 115.187 76.4586L115.138 76.4726C114.871 76.6546 114.169 76.8012 113.859 76.8361C112.806 76.8704 111.71 76.7575 110.621 76.4835C108.295 75.9774 105.927 74.9528 103.7 74.0473C102.793 73.6683 101.95 73.3244 101.093 72.9314C100.109 72.4683 99.1252 72.0051 98.1414 71.542C97.3965 71.1701 96.6516 70.7982 95.9559 70.4123C95.4577 71.0847 95.0086 71.7431 94.6228 72.4365C94.258 73.0179 93.9283 73.5362 93.5985 74.0545Z" fill="black"/>
<path d="M101.552 70.8774C101.174 70.7759 101.146 69.9495 101.099 69.5454C100.903 67.1669 98.867 65.1719 97.4214 64.2611C96.8414 63.939 95.0089 62.6513 93.8686 63.0448C91.395 63.8867 94.1229 67.5629 94.9433 68.7209C94.2715 68.564 94.1242 68.5362 93.977 68.5085C93.6825 68.4531 93.3696 68.3333 93.0107 68.2962C92.4677 68.1027 91.8787 67.9918 91.3357 67.7983C90.0195 67.3376 88.8136 66.7761 87.4974 66.3154C86.6414 66.0022 85.2608 65.5598 84.4705 66.2016C83.9006 66.6417 83.9937 67.4499 84.1142 68.1112C84.1142 68.1112 84.1142 68.1112 84.1326 68.1755C84.1326 68.1755 81.4289 68.9436 83.392 71.6547C83.0886 71.8105 82.7667 71.9019 82.6475 72.214C82.1153 73.2693 83.4054 74.8503 84.0319 75.5764C85.6075 77.424 87.8639 79.2172 90.0456 80.2666C91.8959 81.132 93.9202 81.3915 95.9344 80.8888C96.3206 80.7791 96.7069 80.6694 97.0931 80.5596C97.415 80.4682 97.9848 80.0281 98.2793 80.0836C98.2793 80.0836 98.4087 80.5336 98.4272 80.5979C98.6024 80.9655 98.8421 81.3147 99.1276 81.5813C99.8001 82.2249 100.831 82.4189 101.658 81.9057C102.899 81.1358 103.237 79.6487 103.567 78.3727C103.951 76.803 104.501 75.3252 104.969 73.8015C106.435 69.212 102.848 70.3004 102.37 70.5753C101.598 70.7948 101.763 70.8868 101.552 70.8774Z" fill="white" stroke="black" stroke-width="0.8" stroke-miterlimit="10"/>
<path d="M92.2801 72.0613C92.2801 72.0613 86.9146 70.5949 84.096 68.0571" stroke="black" stroke-width="0.8" stroke-miterlimit="10"/>
<path d="M83.2865 71.5539C83.2865 71.5539 87.2461 74.6711 90.3842 75.6573" stroke="black" stroke-width="0.8" stroke-miterlimit="10"/>
<path d="M101.457 70.7603L100.852 72.5311" stroke="black" stroke-width="0.8" stroke-miterlimit="10"/>
<path d="M98.7327 78.2751L98.3027 79.9268" stroke="black" stroke-width="0.8" stroke-miterlimit="10"/>
<path d="M96.7106 108.1L87.1599 107.843L86.8373 119.999L110.069 120.192L110.198 117.426C110.198 117.426 108.713 112.152 96.646 113.567L96.7106 108.1Z" fill="#F96F6F" stroke="black" stroke-width="0.8" stroke-miterlimit="10"/>
<path d="M103.486 113.503C109.294 114.339 110.198 117.426 110.198 117.426L110.069 120.192L101.744 120.128C102.002 117.812 102.518 115.625 103.486 113.503Z" fill="white" stroke="black" stroke-width="0.8" stroke-miterlimit="10"/>
<path d="M86.9663 117.041L110.198 117.426L110.069 120.192L86.8373 119.999L86.9663 117.041Z" fill="white" stroke="black" stroke-width="0.8" stroke-miterlimit="10"/>
<path d="M96.5168 110.288V109.966L92.3868 109.837V110.159L96.5168 110.288Z" fill="white"/>
<path d="M92.3901 111.98L96.4543 112.084L96.4477 112.342L92.3834 112.238L92.3901 111.98Z" fill="white"/>
<path d="M92.1932 110.223C92.0506 110.223 91.935 110.108 91.935 109.966C91.935 109.823 92.0506 109.708 92.1932 109.708C92.3357 109.708 92.4513 109.823 92.4513 109.966C92.4513 110.108 92.3357 110.223 92.1932 110.223Z" fill="white" stroke="white" stroke-width="0.8" stroke-miterlimit="10"/>
<path d="M92.129 112.346C91.9864 112.346 91.8708 112.231 91.8708 112.088C91.8708 111.946 91.9864 111.831 92.129 111.831C92.2715 111.831 92.3871 111.946 92.3871 112.088C92.3871 112.231 92.2715 112.346 92.129 112.346Z" fill="white" stroke="white" stroke-width="0.8" stroke-miterlimit="10"/>
</svg>
