<svg width="118" height="124" viewBox="0 0 118 124" fill="none" xmlns="http://www.w3.org/2000/svg">
<path d="M59.1324 57.4825C68.9385 71.6329 70.0922 92.7941 66.6836 110.225C65.8446 114.406 60.5482 112.862 61.3873 108.681C64.2714 93.8232 63.9043 74.5916 55.4092 62.3708C53.1543 59.1548 56.825 54.2022 59.1324 57.4825Z" fill="black"/>
<path d="M60.4776 112.311C60.4776 112.311 57.3188 109.589 63.802 109.579C70.7409 109.562 66.2915 112.381 66.2915 112.381L67.299 112.974C67.299 112.974 74.9076 107.314 77.5439 113.196C80.1801 119.079 72.1197 119.895 67.2009 119.871C62.282 119.847 56.9068 120.801 60.4776 112.311Z" fill="#E30611" stroke="black" stroke-width="0.8" stroke-miterlimit="10"/>
<path d="M60.4778 112.311C60.4778 112.311 61.5457 112.921 63.2634 112.799Z" fill="black"/>
<path d="M60.4778 112.311C60.4778 112.311 61.5457 112.921 63.2634 112.799" stroke="black" stroke-width="0.8" stroke-miterlimit="10"/>
<path d="M65.118 112.649C65.118 112.649 65.497 112.686 66.2472 112.304Z" fill="black"/>
<path d="M65.118 112.649C65.118 112.649 65.497 112.686 66.2472 112.304" stroke="black" stroke-width="0.8" stroke-miterlimit="10"/>
<path d="M67.2991 112.974L65.0033 115.012" stroke="black" stroke-width="0.8" stroke-miterlimit="10"/>
<path d="M67.2988 112.974L67.0751 115.502" stroke="black" stroke-width="0.8" stroke-miterlimit="10"/>
<path d="M47.5726 60.6216C37.6081 74.2933 36.4358 94.7387 39.8994 111.58C40.752 115.619 46.1339 114.128 45.2813 110.088C42.3506 95.733 42.7236 77.1519 51.3559 65.3445C53.6472 62.2373 49.8639 57.4522 47.5726 60.6216Z" fill="black"/>
<path d="M46.0345 112.311C46.0345 112.311 49.1933 109.588 42.71 109.579C35.7712 109.562 40.2205 112.381 40.2205 112.381L39.2131 112.974C39.2131 112.974 31.6045 107.314 28.9682 113.196C26.332 119.078 34.3923 119.895 39.3112 119.871C44.2301 119.847 49.6053 120.8 46.0345 112.311Z" fill="#E30611" stroke="black" stroke-width="0.8" stroke-miterlimit="10"/>
<path d="M46.0342 112.311C46.0342 112.311 44.9662 112.921 43.2485 112.799Z" fill="black"/>
<path d="M46.0342 112.311C46.0342 112.311 44.9662 112.921 43.2485 112.799" stroke="black" stroke-width="0.8" stroke-miterlimit="10"/>
<path d="M41.3942 112.648C41.3942 112.648 41.0152 112.685 40.265 112.304Z" fill="black"/>
<path d="M41.3942 112.648C41.3942 112.648 41.0152 112.685 40.265 112.304" stroke="black" stroke-width="0.8" stroke-miterlimit="10"/>
<path d="M39.2131 112.974L41.5089 115.011" stroke="black" stroke-width="0.8" stroke-miterlimit="10"/>
<path d="M39.2131 112.974L39.4369 115.502" stroke="black" stroke-width="0.8" stroke-miterlimit="10"/>
<path d="M32.4949 111.604C32.2692 111.729 32.0435 111.854 31.8944 112.023C31.6688 112.149 31.5197 112.318 31.3707 112.487C31.0121 112.842 30.714 113.181 30.5692 113.608C30.3478 113.991 30.2191 114.478 30.151 114.949C30.0828 115.42 30.0913 115.936 30.0835 116.391L30.0231 116.407C29.9584 116.165 29.9542 115.908 29.8895 115.666C29.8852 115.409 29.8205 115.167 29.8767 114.893C29.8683 114.378 30.0574 113.874 30.2627 113.431C30.7337 112.529 31.5436 111.923 32.4949 111.604Z" fill="white"/>
<path d="M6.95637 29.5055C7.87454 29.3216 9.06816 29.9194 9.20589 30.931C10.0782 37.5067 11.18 43.9905 13.2917 50.2903C14.1181 52.7275 15.2658 55.3486 17.3776 56.958C19.5353 58.6595 22.1521 59.0273 24.8148 58.9813C28.1202 58.8894 31.3338 58.2456 34.6392 58.1536C35.6492 58.1076 36.4756 59.1653 36.4296 60.1309C36.3837 61.1426 35.4656 61.8324 34.4556 61.8324C28.3957 62.0623 21.8766 64.1316 16.2758 60.7287C13.5672 59.0733 11.7309 56.4062 10.5372 53.5552C9.29771 50.5662 8.42545 47.3933 7.645 44.2664C6.63501 40.1278 6.0382 35.8973 5.4873 31.7127C5.39548 30.7011 5.90048 29.7354 6.95637 29.5055Z" fill="black"/>
<path d="M7.18591 29.3678C7.18591 29.3678 8.28772 19.7571 11.639 20.3549C14.2558 20.8607 11.4554 30.0576 11.4554 30.0576L7.18591 29.3678Z" fill="white" stroke="black" stroke-width="0.8" stroke-miterlimit="10"/>
<path d="M3.83442 29.5057C3.83442 29.5057 -0.343252 20.9526 3.00807 20.3548C6.35939 19.757 7.4612 29.0458 7.4612 29.0458L3.83442 29.5057Z" fill="white" stroke="black" stroke-width="0.8" stroke-miterlimit="10"/>
<path d="M12.5112 30.6091C12.5112 30.6091 15.587 34.6557 11.8684 37.2308C11.8684 37.2308 13.7966 38.7023 11.5012 39.806C9.20575 40.9096 4.1099 41.2775 5.02807 38.5184C5.02807 38.5184 -0.159592 36.4491 2.04402 30.977L12.5112 30.6091Z" fill="white" stroke="black" stroke-width="0.8" stroke-miterlimit="10"/>
<path d="M11.9144 37.1851C11.9144 37.1851 10.7208 37.9208 9.66492 38.1047" stroke="black" stroke-width="0.8" stroke-miterlimit="10"/>
<path d="M7.27758 38.4265C7.27758 38.4265 6.35941 38.6561 5.07397 38.5183" stroke="black" stroke-width="0.8" stroke-miterlimit="10"/>
<path d="M1.44727 28.586C1.99818 28.3101 2.77862 28.402 3.32952 28.7239C4.15588 29.1838 4.61496 30.1494 4.89041 31.0231C5.11996 31.7589 5.21177 32.7245 4.47724 33.2764C3.42134 34.0121 2.36545 33.2304 1.67682 32.4027C1.0341 31.6209 0.483196 30.5173 0.712738 29.5057C0.850464 29.0458 1.12591 28.7239 1.44727 28.586Z" fill="white" stroke="black" stroke-width="0.8" stroke-miterlimit="10"/>
<path d="M12.5571 30.6553C10.7667 28.77 6.54309 28.9539 5.02811 29.0459C4.15585 29.0919 3.23768 29.3218 2.96223 30.1495C1.95224 32.9085 8.14989 33.7363 8.14989 33.7363C8.14989 33.7363 7.59899 35.7136 9.34351 36.2194" fill="white"/>
<path d="M12.5571 30.6553C10.7667 28.77 6.54309 28.9539 5.02811 29.0459C4.15585 29.0919 3.23768 29.3218 2.96223 30.1495C1.95224 32.9085 8.14989 33.7363 8.14989 33.7363C8.14989 33.7363 7.59899 35.7136 9.34351 36.2194" stroke="black" stroke-width="0.8" stroke-miterlimit="10"/>
<path d="M66.3223 22.7117L93.2183 69.2971C97.6832 77.0304 92.1021 86.6971 83.1724 86.6971H29.3803C20.4506 86.6971 14.8696 77.0304 19.3344 69.2971L46.2305 22.7117C50.6953 14.9784 61.8574 14.9784 66.3223 22.7117Z" fill="#D9D9D9" stroke="black" stroke-width="0.8"/>
<path d="M67.885 16.3799C67.885 16.3799 78.5117 19.597 76.2739 28.3771L56.0802 28.1921L36.1712 26.2911C35.0749 19.6065 43.7324 16.2739 43.7324 16.2739C43.8591 16.2194 44.0044 12.639 44.0838 12.3342C44.314 10.4913 44.9029 8.85489 46.0425 7.3124C48.3939 4.046 52.4375 1.43495 56.6428 1.37027C62.3982 1.21015 67.0098 5.87175 68.0034 11.1272C68.1891 12.1899 68.2516 13.2455 68.191 14.2939C68.1223 14.4136 67.7654 16.311 67.885 16.3799Z" fill="#5663F1" stroke="black" stroke-width="0.8" stroke-miterlimit="10"/>
<path d="M35.178 33.8452C40.3496 33.0944 56.2561 31.5452 78.2314 36.1645C79.4523 36.4211 80.6142 35.5607 80.6204 34.3856C80.6158 33.3955 80.796 32.4161 80.6684 31.4189C80.4853 29.2429 79.74 26.1062 77.1206 25.4589C72.9762 24.4754 67.51 23.9099 62.4169 23.3042C54.1976 22.2692 43.907 21.7942 35.2453 24.1361C34.742 24.2925 34.2895 24.6373 34.0763 25.1199C33.5882 26.0813 33.0822 27.3511 32.8663 28.947C32.6683 30.2347 32.7237 31.4134 32.9129 32.4143C33.1093 33.2918 34.0589 33.9657 35.178 33.8452Z" fill="#5663F1" stroke="black" stroke-width="0.8" stroke-miterlimit="10"/>
<path d="M43.1725 22.7412L43.1354 33.0119" stroke="black" stroke-width="0.8" stroke-miterlimit="10"/>
<path d="M52.7021 22.4902L52.2116 33.1059" stroke="black" stroke-width="0.8" stroke-miterlimit="10"/>
<path d="M62.2325 23.2913L61.4441 33.704" stroke="black" stroke-width="0.8" stroke-miterlimit="10"/>
<path d="M71.7446 24.4013L70.6627 34.5493" stroke="black" stroke-width="0.8" stroke-miterlimit="10"/>
<path d="M59.9113 68.2224C57.065 70.2917 53.3464 70.7515 49.9951 69.8319C48.8014 69.51 47.516 68.9582 46.3683 68.1764C44.5779 66.9808 43.2465 65.2794 43.2924 63.0722C43.3842 61.0489 44.8992 60.4971 46.6896 60.4971C48.2505 60.4971 50.041 60.9569 51.1428 61.2328C52.1068 61.4627 53.025 61.6467 54.035 61.6007C55.5959 61.5087 57.065 60.819 58.5799 60.635C58.9013 60.589 59.2227 60.589 59.5899 60.635C60.6458 60.681 61.8395 60.9569 62.5281 61.6467C64.5481 63.624 61.4722 67.0268 59.9113 68.2224Z" fill="black" stroke="black" stroke-width="0.8" stroke-miterlimit="10"/>
<path d="M59.9113 68.2222C57.065 70.2915 53.3464 70.7513 49.9951 69.8317C48.8014 69.5098 47.516 68.958 46.3683 68.1762C47.7455 66.2909 50.2705 65.0493 53.1168 65.0493C56.055 65.0033 58.534 66.2909 59.9113 68.2222Z" fill="#E30611" stroke="black" stroke-width="0.8" stroke-miterlimit="10"/>
<path d="M87.1418 80.0112C86.6991 77.3691 84.2833 75.9142 81.719 76.8131C79.1483 77.6742 77.4159 80.5284 77.8209 83.1769C78.2637 85.819 80.6794 87.2739 83.2438 86.3751C85.8144 85.5139 87.5846 82.6533 87.1418 80.0112ZM82.6319 84.3437C81.092 84.8755 79.6262 83.9975 79.3605 82.4123C79.0949 80.827 80.1306 79.1384 81.6705 78.6066C83.2103 78.0748 84.6761 78.9528 84.9418 80.5381C85.2074 82.1233 84.178 83.8497 82.6319 84.3437Z" fill="#F96F6F" stroke="black" stroke-width="0.8" stroke-miterlimit="10"/>
<path d="M79.9545 74.5839C79.9545 74.5839 82.0384 90.2591 69.718 91.4863C58.045 92.643 57.1742 76.8017 57.1742 76.8017L79.9545 74.5839Z" fill="#F96F6F" stroke="black" stroke-width="0.8" stroke-miterlimit="10"/>
<path d="M79.9365 74.573C79.7607 72.7443 74.5237 71.757 68.2392 72.3678C61.9548 72.9787 57.0027 74.9564 57.1785 76.7852C57.3542 78.6139 62.5913 79.6012 68.8757 78.9904C75.1602 78.3795 80.1122 76.4018 79.9365 74.573Z" fill="#F96F6F" stroke="black" stroke-width="0.8" stroke-miterlimit="10"/>
<path d="M57.9288 77.8329C57.4948 77.5571 57.2494 77.2495 57.1485 76.8787C58.699 75.027 61.0865 74.2361 63.8275 74.8593C65.9272 75.3581 67.4553 76.1472 69.522 75.0615C71.6201 73.9317 73.2721 72.916 75.8119 73.4956C77.1006 73.7822 78.6847 73.9802 79.9549 74.6189C80.0259 76.4297 75.1192 78.3826 68.8975 78.9675C64.1653 79.4173 60.0229 78.9919 58.1803 77.9456" fill="black"/>
<path d="M57.9288 77.8329C57.4948 77.5571 57.2494 77.2495 57.1485 76.8787C58.699 75.027 61.0865 74.2361 63.8275 74.8593C65.9272 75.3581 67.4553 76.1472 69.522 75.0615C71.6201 73.9317 73.2721 72.916 75.8119 73.4956C77.1006 73.7822 78.6847 73.9802 79.9549 74.6189C80.0259 76.4297 75.1192 78.3826 68.8975 78.9675C64.1653 79.4173 60.0229 78.9919 58.1803 77.9456" stroke="black" stroke-width="0.8" stroke-miterlimit="10"/>
<path d="M73.3099 74.3073C74.1455 73.9722 75.0694 73.9327 75.9495 74.0945C76.8297 74.2563 77.666 74.6195 78.4396 75.0708C78.5717 75.1649 78.4525 75.379 78.3204 75.2849C77.5532 74.8713 76.7608 74.5395 75.9184 74.3713C75.076 74.2031 74.1961 74.2741 73.3541 74.5714C73.2096 74.6346 73.1654 74.3705 73.3099 74.3073Z" fill="white"/>
<path d="M57.9291 77.8296C58.2239 77.2755 58.6445 76.7777 59.1658 76.4182C59.8189 75.92 60.5854 75.6354 61.415 75.4954C61.9051 75.4126 62.3702 75.4117 62.8794 75.4421C63.0365 75.4544 63.0368 75.6871 62.8796 75.6749C61.3082 75.5522 59.6808 76.0209 58.645 77.2432C58.4504 77.47 58.2935 77.6905 58.1806 77.9423L57.9291 77.8296Z" fill="white"/>
<path d="M72.3297 74.4711C72.4366 74.4142 72.5498 74.395 72.6566 74.3381C72.7321 74.3254 72.7762 74.3568 72.8266 74.4261C72.8393 74.5017 72.8079 74.5458 72.7387 74.5964C72.6633 74.6091 72.5564 74.666 72.4809 74.6788L72.4432 74.6852C72.4055 74.6915 72.3677 74.6979 72.3677 74.6979C72.33 74.7043 72.3237 74.6665 72.2796 74.635C72.2733 74.5972 72.2669 74.5594 72.2669 74.5594C72.2983 74.5153 72.3297 74.4711 72.3297 74.4711Z" fill="white"/>
<path d="M63.5892 75.5172C63.7402 75.4917 63.8661 75.5482 63.9983 75.6426C64.0424 75.674 64.0928 75.7433 64.03 75.8317C63.9986 75.8759 63.9295 75.9264 63.8413 75.8635C63.8036 75.8699 63.7972 75.8321 63.7595 75.8384C63.7154 75.807 63.6777 75.8134 63.6399 75.8198C63.6022 75.8261 63.6022 75.8261 63.5645 75.8325C63.489 75.8452 63.4386 75.776 63.4259 75.7003C63.4823 75.5741 63.5137 75.53 63.5892 75.5172Z" fill="white"/>
<path d="M77.5051 75.7355C78.0593 76.496 78.5508 77.3447 78.929 78.2126C79.1938 78.8666 79.6664 79.835 79.1135 80.4719C78.7867 80.8377 78.2143 80.8956 77.8177 80.6132C77.3708 80.2617 77.301 79.6135 77.2502 79.0785C77.1486 78.0087 77.2797 76.9383 77.4863 75.8552C77.4863 75.8552 77.48 75.8174 77.5051 75.7355Z" fill="black" stroke="black" stroke-width="0.8" stroke-miterlimit="10"/>
<path d="M77.4835 78.6116C77.5085 78.5297 77.5714 78.4415 77.6532 78.4665C77.735 78.4915 77.8231 78.5543 77.798 78.6361C77.7669 78.9132 77.7671 79.1461 77.8491 79.404C77.9248 79.6241 78.0446 79.8757 78.2586 79.9948C78.3404 80.0198 78.3594 80.1331 78.2966 80.2213C78.2337 80.3096 78.1583 80.3223 78.0701 80.2596C77.8121 80.109 77.6419 79.7884 77.5535 79.4927C77.4715 79.2348 77.4145 78.895 77.4835 78.6116Z" fill="white"/>
<path d="M32.7098 47.8313C33.2456 44.5509 36.1533 42.2487 39.4121 42.3926C39.7162 42.3921 39.9687 42.4204 40.2613 42.4601C43.8198 43.0802 46.2099 46.4534 45.6348 50.0267C45.0195 53.5887 41.6531 55.9778 38.0833 55.3979C37.7906 55.3582 37.5093 55.2783 37.228 55.1983C34.1562 54.2385 32.1627 51.1519 32.7098 47.8313Z" fill="white" stroke="black" stroke-width="0.8" stroke-miterlimit="10"/>
<path d="M37.228 55.1984C38.1716 54.163 38.9991 52.6166 39.5391 50.8583L35.5221 48.3264L40.1658 47.2561C40.2524 45.4123 39.9607 43.6783 39.4121 42.3927C36.1935 42.2602 33.2858 44.5624 32.7098 47.8314C32.1627 51.152 34.1562 54.2386 37.228 55.1984Z" fill="black" stroke="black" stroke-width="0.8" stroke-miterlimit="10"/>
<path d="M60.5278 47.3768C61.0115 44.0879 63.8821 41.7389 67.1425 41.8304C67.4464 41.825 67.6993 41.8493 67.9925 41.8843C71.56 42.4471 74.0029 45.7818 73.4845 49.3643C72.9257 52.9361 69.5979 55.3793 66.0197 54.8568C65.7265 54.8218 65.444 54.7464 65.1615 54.671C62.0752 53.7606 60.0333 50.7061 60.5278 47.3768Z" fill="white" stroke="black" stroke-width="0.8" stroke-miterlimit="10"/>
<path d="M65.1615 54.6711C66.0886 53.6206 66.8914 52.0609 67.4035 50.2939L63.3473 47.8267L67.973 46.6817C68.0304 44.8366 67.7113 43.1073 67.1425 41.8306C63.9226 41.7498 61.0519 44.0988 60.5278 47.3769C60.0334 50.7062 62.0753 53.7607 65.1615 54.6711Z" fill="black" stroke="black" stroke-width="0.8" stroke-miterlimit="10"/>
<circle cx="36.9666" cy="48.7527" r="8.35465" stroke="black" stroke-width="0.8"/>
<circle cx="64.8768" cy="48.0601" r="8.35465" stroke="black" stroke-width="0.8"/>
<rect x="45.8279" y="48.0601" width="10.2859" height="0.692716" fill="black"/>
<path d="M115.588 76.2262C113.244 79.7629 108.271 80.7631 104.37 81.4163C102.874 81.6707 101.367 81.8336 99.8558 81.9509C99.1711 82.025 98.4358 82.0583 97.7511 82.1323C97.7054 82.1373 97.7054 82.1373 97.6598 82.1422C96.8788 82.1804 96.0522 82.2236 95.2762 82.3076C94.8197 82.3569 94.404 82.3557 93.9475 82.4051C93.5823 82.4446 93.2122 82.4384 92.847 82.4779C90.5042 82.5926 88.1663 82.753 85.8431 83.0505C84.8388 83.1592 83.8261 82.7601 83.5712 81.6779C83.5565 81.5408 83.5417 81.4036 83.527 81.2665C83.5298 80.4339 84.0755 79.4963 84.9428 79.4025C85.2623 79.3679 85.5819 79.3333 85.9014 79.2988C86.0384 79.284 86.1753 79.2691 86.3122 79.2543C89.1881 78.9432 92.0836 78.815 94.9286 78.6459C95.6182 78.6176 96.2573 78.5484 96.947 78.5201C97.2209 78.4905 97.4491 78.4658 97.7279 78.4819C98.5088 78.4436 99.3305 78.3547 100.107 78.2708C102.485 78.0597 104.844 77.6658 107.138 77.094C108.711 76.6927 110.097 76.2653 111.378 75.2944C111.85 74.9659 112.222 74.5557 112.451 74.1147C112.375 74.2617 112.575 73.5465 112.549 73.7343C112.565 73.4551 112.55 73.3179 112.495 73.2315C111.972 71.8083 110.389 70.8236 109.159 70.1243C105.961 68.297 102.222 67.4529 98.6248 66.6398C94.3135 65.6265 95.3627 65.7367 91.0906 65.067C91.0906 65.067 90.2991 63.6398 89.9263 63.022C89.3268 62.0281 88.7428 60.9348 88.7428 60.9348C90.9473 61.2512 96.8242 62.3493 99.0027 62.8534C103.03 63.805 107.195 64.7417 110.833 66.7988C114.245 68.4644 118.167 72.2943 115.588 76.2262Z" fill="black"/>
<path d="M94.6216 75.7652C94.6216 75.7652 96.545 73.8924 97.1881 75.5797C97.6958 76.8656 97.878 79.8513 97.9291 81.1866C97.9473 81.7857 97.6459 82.4194 97.1225 82.7073C96.772 82.8839 95.748 82.8099 95.257 82.5394C94.4176 83.3239 93.373 84.7779 91.0283 85.3092C89.2723 85.7305 87.3352 85.7554 85.5772 85.2984C84.6753 85.0724 83.8452 84.6537 83.2595 83.9311C82.9365 83.5038 82.6542 83.0257 82.5952 82.4773C82.5658 82.203 82.5869 81.9696 82.6944 81.6805C82.7351 81.6299 82.955 81.0974 82.955 81.0974C82.955 81.0974 81.1165 79.031 83.5048 77.6164C83.5048 77.6164 80.8699 74.1566 86.569 74.3254C86.8935 74.3365 87.051 72.7936 88.2557 71.9696C88.4285 71.8584 89.7245 71.0245 91.184 71.2826C92.9828 71.6889 94.4674 73.47 94.6216 75.7652Z" fill="white" stroke="black" stroke-width="0.8" stroke-miterlimit="10"/>
<path d="M83.6123 77.7422L85.8073 77.9673" stroke="black" stroke-width="0.8" stroke-miterlimit="10"/>
<path d="M83.0132 81.1831L85.284 81.2606" stroke="black" stroke-width="0.8" stroke-miterlimit="10"/>
<path d="M86.6243 74.4106L89.7877 74.6233" stroke="black" stroke-width="0.8" stroke-miterlimit="10"/>
<path d="M94.62 75.7661L94.8612 78.0064" stroke="black" stroke-width="0.8" stroke-miterlimit="10"/>
<path d="M95.085 80.9424L95.3078 82.5833" stroke="black" stroke-width="0.8" stroke-miterlimit="10"/>
<path d="M52.7192 50.447L52.348 53.3599C52.348 53.3599 47.7075 52.4922 47.3981 54.9093C47.0887 57.3263 52.5336 56.9545 52.5336 56.9545" fill="#D9D9D9"/>
<path d="M52.7192 50.447L52.348 53.3599C52.348 53.3599 47.7075 52.4922 47.3981 54.9093C47.0887 57.3263 52.5336 56.9545 52.5336 56.9545" stroke="black" stroke-width="0.8" stroke-miterlimit="10"/>
</svg>
