<svg width="117" height="121" viewBox="0 0 117 121" fill="none" xmlns="http://www.w3.org/2000/svg">
    <g clip-path="url(#clip0_755_6290)">
        <path d="M90.5711 106.35C90.7475 109.547 87.8069 110.639 86.4542 108.923C86.1013 108.455 85.8661 107.832 85.8661 107.052C85.6308 102.296 82.0834 86.0172 80.8483 81.573C80.7307 81.2611 80.6719 80.8713 80.5542 80.5594C82.2598 80.0916 83.7889 79.6238 85.2004 79C86.7295 83.8341 90.277 100.659 90.5711 105.727C90.5711 105.882 90.5711 106.116 90.5711 106.35Z" fill="black" stroke="black" stroke-width="0.8" stroke-miterlimit="10"/>
        <path d="M64.9877 82.2729C64.2231 86.7951 64.5007 101.745 60.518 104.947C58.1655 107.676 55.2837 108.222 52.5195 107.286C48.6967 105.961 46.2266 102.764 45.2268 101.204L45.168 101.048C44.521 99.879 44.4622 98.3976 44.9327 97.228C45.2856 96.3704 45.8737 95.7466 46.5795 95.5127C46.9911 95.3568 47.4028 95.4347 47.7557 95.6687C47.9321 95.7466 48.0498 95.9026 48.1674 96.0585C49.6965 98.1636 54.5191 103.777 58.3419 98.7094C59.2829 97.5399 60.0475 84.2221 60.518 82.039C61.9883 82.1949 63.4586 82.2729 64.9877 82.2729Z" fill="black" stroke="black" stroke-width="0.8" stroke-miterlimit="10"/>
        <path d="M93.1663 108.043L83.8884 107.793L83.5749 119.603L106.143 119.79L106.268 117.103C106.268 117.103 104.826 111.98 93.1036 113.354L93.1663 108.043Z" fill="#F96F6F" stroke="black" stroke-width="0.8" stroke-miterlimit="10"/>
        <path d="M99.7485 113.292C105.391 114.105 106.268 117.104 106.268 117.104L106.143 119.791L98.0559 119.728C98.3067 117.479 98.8082 115.354 99.7485 113.292Z" fill="white" stroke="black" stroke-width="0.8" stroke-miterlimit="10"/>
        <path d="M83.7002 116.729L106.268 117.104L106.143 119.79L83.5748 119.603L83.7002 116.729Z" fill="white" stroke="black" stroke-width="0.8" stroke-miterlimit="10"/>
        <path d="M92.978 110.169V109.856L88.9659 109.73V110.043L92.978 110.169Z" fill="white"/>
        <path d="M88.9691 111.813L92.9174 111.914L92.9109 112.165L88.9627 112.063L88.9691 111.813Z" fill="white"/>
        <path d="M88.7777 110.106C88.6392 110.106 88.5269 109.994 88.5269 109.856C88.5269 109.718 88.6392 109.605 88.7777 109.605C88.9162 109.605 89.0284 109.718 89.0284 109.856C89.0284 109.994 88.9162 110.106 88.7777 110.106Z" fill="white" stroke="white" stroke-width="0.8" stroke-miterlimit="10"/>
        <path d="M88.7156 112.168C88.5771 112.168 88.4648 112.056 88.4648 111.918C88.4648 111.779 88.5771 111.667 88.7156 111.667C88.854 111.667 88.9663 111.779 88.9663 111.918C88.9663 112.056 88.854 112.168 88.7156 112.168Z" fill="white" stroke="white" stroke-width="0.8" stroke-miterlimit="10"/>
        <path d="M44.4496 105.386L50.4954 98.3438L41.529 90.652L27.1493 108.047L29.1552 109.839C29.1552 109.839 34.0405 111.951 40.3677 101.987L44.4496 105.386Z" fill="#F96F6F" stroke="black" stroke-width="0.8" stroke-miterlimit="10"/>
        <path d="M36.2248 107.183C32.0359 111.049 29.1549 109.839 29.1549 109.839L27.1491 108.047L32.2982 101.811C33.8856 103.424 35.2178 105.153 36.2248 107.183Z" fill="white" stroke="black" stroke-width="0.8" stroke-miterlimit="10"/>
        <path d="M43.6802 92.5623L29.155 109.839L27.1491 108.047L41.5289 90.6522L43.6802 92.5623Z" fill="white" stroke="black" stroke-width="0.8" stroke-miterlimit="10"/>
        <path d="M42.9193 103.899L43.1621 104.097L45.7898 101.062L45.547 100.865L42.9193 103.899Z" fill="white"/>
        <path d="M44.1724 99.7517L41.6034 102.751L41.4133 102.589L43.9823 99.5888L44.1724 99.7517Z" fill="white"/>
        <path d="M45.6169 100.68C45.7043 100.572 45.8621 100.556 45.9693 100.643C46.0766 100.73 46.0928 100.888 46.0054 100.995C45.9181 101.103 45.7603 101.119 45.653 101.032C45.5457 100.945 45.5296 100.787 45.6169 100.68Z" fill="white" stroke="white" stroke-width="0.8" stroke-miterlimit="10"/>
        <path d="M44.0564 99.3304C44.1437 99.223 44.3015 99.2065 44.4088 99.2937C44.5161 99.381 44.5323 99.5388 44.4449 99.6462C44.3576 99.7537 44.1998 99.7701 44.0925 99.6829C43.9852 99.5957 43.969 99.4379 44.0564 99.3304Z" fill="white" stroke="white" stroke-width="0.8" stroke-miterlimit="10"/>
        <path d="M40.3071 57.4793L40.307 57.4792C39.959 56.3995 39.0292 55.4537 37.9249 54.5935C36.996 53.8699 35.8909 53.1684 34.7995 52.4756C34.5836 52.3385 34.3682 52.2018 34.1549 52.0654C32.8488 51.23 31.6156 50.4022 30.7087 49.5291C29.852 48.7044 29.3416 47.8916 29.2842 47.0486L29.2874 47.0454V46.8806C29.2874 45.9803 29.8068 45.1172 30.7173 44.2407C31.6243 43.3676 32.8575 42.5398 34.1635 41.7044C34.3769 41.568 34.5923 41.4312 34.8082 41.2942C35.8996 40.6014 37.0046 39.8999 37.9335 39.1763C39.0378 38.3161 39.9677 37.3704 40.3157 36.2906L40.3157 36.2905C40.6732 35.18 40.4864 33.8421 40.1031 32.4726C39.7675 31.2733 39.2618 29.9882 38.7663 28.7289C38.6923 28.5407 38.6184 28.353 38.5454 28.1663C37.9781 26.7156 37.461 25.3226 37.2281 24.0932C36.9939 22.8562 37.0662 21.8783 37.5646 21.1863C38.0692 20.4882 38.9739 20.1138 40.2151 19.9544C41.4499 19.7959 42.9259 19.8611 44.4705 19.9582C44.6822 19.9715 44.8951 19.9855 45.1087 19.9994C46.4372 20.0862 47.7905 20.1746 49.0102 20.13C50.4161 20.0785 51.7326 19.8498 52.6618 19.1672C53.5825 18.4912 54.1957 17.3019 54.672 15.9723C55.0796 14.8346 55.4072 13.5312 55.7298 12.2477C55.7871 12.0197 55.8443 11.7923 55.9017 11.5666C56.2864 10.0544 56.6829 8.61598 57.2192 7.47807C57.7584 6.33377 58.4 5.57775 59.2263 5.30732L59.2264 5.30727C60.0132 5.04947 60.9417 5.28301 62.0283 5.89477C63.1073 6.50222 64.2557 7.43272 65.4477 8.42931C65.5827 8.54213 65.7181 8.65579 65.8541 8.7698C66.9062 9.65241 67.9843 10.5568 69.0371 11.2642C70.2181 12.0578 71.4348 12.6518 72.6111 12.6518C73.7872 12.6518 75.0043 12.0591 76.1862 11.2672C77.2391 10.5617 78.3176 9.65974 79.3702 8.77948C79.5067 8.66527 79.6429 8.55142 79.7784 8.43841C80.9715 7.44402 82.121 6.51563 83.2008 5.90974C84.2882 5.29958 85.2175 5.06678 86.0045 5.32469L86.0046 5.32474C86.8309 5.59513 87.4719 6.35105 88.0105 7.49532C88.5461 8.63322 88.9418 10.0716 89.326 11.5839C89.3827 11.8071 89.4392 12.0321 89.4958 12.2576C89.8186 13.5435 90.1466 14.8498 90.5553 15.9898C91.0321 17.3195 91.6465 18.5088 92.5694 19.1848C93.4986 19.8672 94.8149 20.0959 96.2207 20.1474C97.4405 20.192 98.7937 20.1036 100.122 20.0168C100.336 20.0029 100.549 19.989 100.76 19.9757C102.305 19.8785 103.781 19.8133 105.016 19.9718C106.257 20.1312 107.162 20.5058 107.667 21.2041C108.165 21.896 108.237 22.8739 108.003 24.1107C107.77 25.34 107.253 26.733 106.686 28.1838C106.612 28.3705 106.539 28.5582 106.465 28.7464C105.969 30.0057 105.463 31.2908 105.128 32.4901C104.744 33.8596 104.558 35.1974 104.915 36.3079L104.915 36.3081C105.263 37.3878 106.193 38.3335 107.297 39.1938C108.226 39.9174 109.331 40.6189 110.423 41.3117C110.639 41.4487 110.854 41.5854 111.067 41.7219C112.373 42.5573 113.607 43.385 114.514 44.2581C115.424 45.1347 115.944 45.9978 115.944 46.898C115.944 47.7982 115.424 48.6613 114.514 49.5378C113.607 50.4109 112.373 51.2387 111.067 52.0741C110.854 52.2105 110.639 52.3472 110.423 52.4842C109.331 53.1771 108.226 53.8786 107.297 54.6022C106.193 55.4624 105.263 56.4082 104.915 57.4879L104.915 57.488C104.558 58.5985 104.744 59.9364 105.128 61.3059C105.463 62.5051 105.969 63.7903 106.465 65.0495C106.539 65.2377 106.612 65.4254 106.686 65.6122C107.253 67.0629 107.77 68.4559 108.003 69.6853C108.237 70.9223 108.165 71.9003 107.666 72.5922C107.162 73.2903 106.257 73.6647 105.016 73.8241C103.781 73.9827 102.305 73.9174 100.76 73.8203C100.549 73.807 100.336 73.7931 100.122 73.7791C98.7938 73.6923 97.4405 73.6039 96.2207 73.6486C94.8148 73.7 93.4984 73.9287 92.5692 74.6113C91.6485 75.2873 91.0352 76.4766 90.5589 77.8063C90.1514 78.9439 89.8238 80.2473 89.5012 81.5307C89.4439 81.7588 89.3867 81.9862 89.3293 82.212C88.9446 83.7242 88.548 85.1625 88.0118 86.3005C87.4727 87.4445 86.8313 88.2004 86.0053 88.471C85.218 88.7272 84.2885 88.4932 83.2009 87.8826C82.121 87.2762 80.9714 86.348 79.7784 85.3542C79.6438 85.2421 79.5087 85.1292 79.3732 85.0159C78.3196 84.1354 77.24 83.233 76.186 82.5274C75.0041 81.7361 73.7871 81.1441 72.6111 81.1441C71.4351 81.1441 70.218 81.7368 69.0361 82.5287C67.9832 83.2343 66.9047 84.1362 65.8522 85.0164C65.7156 85.1307 65.5794 85.2445 65.4439 85.3575C64.2508 86.3519 63.1013 87.2803 62.0215 87.8862C60.9341 88.4964 60.0048 88.7292 59.2178 88.4713L59.2177 88.4712C58.3914 88.2008 57.7504 87.4449 57.2118 86.3006C56.6762 85.1627 56.2805 83.7243 55.8963 82.2121C55.8396 81.9888 55.7831 81.7638 55.7265 81.5383C55.4036 80.2524 55.0757 78.9461 54.667 77.8062C54.1902 76.4763 53.5757 75.287 52.6527 74.611C51.7236 73.9266 50.4075 73.6962 49.0019 73.6435C47.7799 73.5977 46.424 73.6858 45.0932 73.7722C44.882 73.7859 44.6714 73.7996 44.462 73.8127C42.9174 73.9092 41.4413 73.9742 40.2065 73.8155C38.9653 73.656 38.0606 73.2816 37.5559 72.5835L40.3071 57.4793ZM40.3071 57.4793C40.6646 58.5898 40.4778 59.9277 40.0945 61.2972M40.3071 57.4793L40.0945 61.2972M40.0945 61.2972C39.7588 62.4965 39.2532 63.7817 38.7577 65.0409M40.0945 61.2972L38.7577 65.0409M38.7577 65.0409C38.6836 65.2291 38.6098 65.4168 38.5368 65.6035M38.7577 65.0409L38.5368 65.6035M38.5368 65.6035C37.9695 67.0542 37.4523 68.4472 37.2195 69.6766M38.5368 65.6035L37.2195 69.6766M37.2195 69.6766C36.9853 70.9133 37.0575 71.8911 37.5556 72.583L37.2195 69.6766Z" fill="#ACBFFF" stroke="black" stroke-width="0.8"/>
        <path d="M66.7595 35.7492C66.4438 30.8935 64.9268 26.8043 62.9052 24.9737C62.1045 24.2719 61.2833 23.8678 60.4314 23.9102C57.3222 24.0997 55.1905 29.6878 55.5756 36.4421C55.9641 43.1468 58.8442 48.4741 61.9037 48.2812C62.7059 48.2355 63.4856 47.7896 64.1332 47.0855C65.9732 45.0164 67.0684 40.7042 66.7595 35.7492Z" fill="white" stroke="black" stroke-width="0.8" stroke-miterlimit="10"/>
        <path d="M64.1379 47.0362C61.2055 46.8389 58.5798 42.1768 58.2329 36.3224C58.2465 36.124 58.2104 35.9222 58.2206 35.7734L62.9041 35.1915L58.3154 32.939C58.7643 28.5835 60.5367 25.3138 62.9067 24.9749C64.928 26.8054 66.4413 30.9441 66.7604 35.75C67.0692 40.7047 65.9742 45.0168 64.1379 47.0362Z" fill="black" stroke="black" stroke-width="0.8" stroke-miterlimit="10"/>
        <path d="M87.1415 34.4895C86.8258 29.6338 85.3088 25.5445 83.2872 23.714C82.4864 23.0122 81.6652 22.608 80.8133 22.6504C77.7041 22.8399 75.5725 28.4281 75.9575 35.1824C76.346 41.8871 79.2262 47.2143 82.2857 47.0215C83.0878 46.9758 83.8675 46.5298 84.5151 45.8258C86.3552 43.7566 87.4504 39.4444 87.1415 34.4895Z" fill="white" stroke="black" stroke-width="0.8" stroke-miterlimit="10"/>
        <path d="M84.5164 45.826C81.5841 45.6287 78.9583 40.9666 78.6114 35.1123C78.625 34.9138 78.5889 34.712 78.5992 34.5632L83.2827 33.9813L78.6939 31.7288C79.1428 27.3733 80.9152 24.1036 83.2852 23.7647C85.3065 25.5952 86.8198 29.7339 87.1389 34.5398C87.4512 39.4449 86.3561 43.757 84.5164 45.826Z" fill="black" stroke="black" stroke-width="0.8" stroke-miterlimit="10"/>
        <path d="M70.5753 38.5518L70.7241 40.7547C70.7241 40.7547 70.923 40.7681 70.9761 40.7219C72.2296 40.6569 73.7182 40.807 73.9111 42.365C74.0871 44.1711 72.0468 44.7812 70.6883 44.1912" fill="#ACBFFF"/>
        <path d="M70.5753 38.5518L70.7241 40.7547C70.7241 40.7547 70.923 40.7681 70.9761 40.7219C72.2296 40.6569 73.7182 40.807 73.9111 42.365C74.0871 44.1711 72.0468 44.7812 70.6883 44.1912" stroke="black" stroke-width="0.8" stroke-miterlimit="10"/>
        <path d="M68.9337 55.982C69.8367 57.3887 71.0189 58.3655 72.6705 58.3273C74.2723 58.2857 75.3385 57.3109 76.0838 55.9156C77.9837 52.2556 77.4809 45.742 77.4809 45.742L73.9753 45.8546L69.5677 46.0062L66.5132 46.0994C66.5098 46.149 66.6781 52.4406 68.9337 55.982Z" fill="black" stroke="black" stroke-width="0.8" stroke-miterlimit="10"/>
        <path d="M68.9024 55.7299C69.7986 57.2359 71.0239 58.3155 72.6757 58.2772C74.2777 58.2357 75.3474 57.2111 76.0995 55.7165C75.901 53.5097 74.1659 51.8475 72.2055 52.0145C70.3977 52.1419 68.9887 53.7418 68.9024 55.7299Z" fill="#E30611" stroke="black" stroke-width="0.8" stroke-miterlimit="10"/>
        <path d="M77.6711 43.7158C77.2723 44.4363 76.3515 46.218 76.4334 48.6653C76.5549 51.2647 77.7313 53.0383 78.2371 53.6704" fill="#ACBFFF"/>
        <path d="M77.6711 43.7158C77.2723 44.4363 76.3515 46.218 76.4334 48.6653C76.5549 51.2647 77.7313 53.0383 78.2371 53.6704" stroke="black" stroke-width="0.8" stroke-miterlimit="10"/>
        <path d="M66.1096 43.9291C66.509 44.6537 67.3835 46.4568 67.2667 48.8905C67.1397 51.4731 65.9214 53.2346 65.4268 53.8989" fill="#ACBFFF"/>
        <path d="M66.1096 43.9291C66.509 44.6537 67.3835 46.4568 67.2667 48.8905C67.1397 51.4731 65.9214 53.2346 65.4268 53.8989" stroke="black" stroke-width="0.8" stroke-miterlimit="10"/>
        <path d="M39.3394 55.9098C39.8297 56.3013 40.4317 58.2358 40.4317 58.2358C40.4317 58.2358 39.3693 58.6733 37.9273 59.1113C34.0429 60.1641 30.2105 59.2206 27.1284 56.6726C24.1703 54.2141 22.1608 50.8406 20.3539 47.5006C19.4786 45.8698 18.6316 44.2782 17.8743 42.5631C17.5238 41.7448 17.1734 40.9265 16.8229 40.1082C16.4272 39.1441 16.0707 38.152 15.7032 37.2272C15.7032 37.2272 15.675 37.188 15.6468 37.1487C15.3245 36.3696 15.0023 35.5906 14.7082 34.8507C14.245 33.8755 14.9286 32.6748 15.8842 32.3485C16.9183 31.9661 17.9995 32.5593 18.3952 33.5233C18.644 34.1174 18.9038 34.6443 19.1132 35.2665C19.5372 36.2697 19.9501 37.3403 20.3347 38.3717C20.7475 39.4422 21.1886 40.552 21.7083 41.6057C22.4314 43.1077 23.2674 44.7666 24.0127 46.134C25.588 48.9864 27.3829 51.9789 29.9633 53.9947C32.2958 55.8314 33.5691 56.7797 36.469 55.599C38.5877 54.7387 37.9457 54.9908 37.9457 54.9908C37.9457 54.9908 38.4879 55.2301 39.3394 55.9098Z" fill="black"/>
        <path d="M11.9795 38.2298C11.9795 38.2298 -1.75351 25.8232 2.38273 22.4046C2.38273 22.4046 3.92047 21.3063 5.37477 22.3576C5.37477 22.3576 4.91873 18.2713 8.58056 19.3713C10.8628 20.0634 11.437 24.5298 11.437 24.5298C11.5094 24.091 12.0364 23.6372 12.3585 23.3298C13.1708 22.5174 14.0934 21.8584 15.1632 21.404C16.7165 20.759 18.9385 20.7201 19.8368 22.4006C19.8736 22.4518 19.9104 22.5029 19.8959 22.5907C20.5445 24.1399 19.067 25.9692 17.4088 25.6054C16.2276 25.3654 14.8269 25.3596 13.9121 26.2452C12.6607 27.5259 13.3395 29.4407 14.903 30.1043C16.8041 30.9138 19.6099 29.529 19.6977 25.9831C19.6966 25.4421 19.5561 24.9232 19.7311 24.4112C19.9717 23.7749 20.7852 23.5036 21.358 23.8685C23.326 25.0946 25.8682 30.7871 19.5968 33.7182" fill="white"/>
        <path d="M11.9795 38.2298C11.9795 38.2298 -1.75351 25.8232 2.38273 22.4046C2.38273 22.4046 3.92047 21.3063 5.37477 22.3576C5.37477 22.3576 4.91873 18.2713 8.58056 19.3713C10.8628 20.0634 11.437 24.5298 11.437 24.5298C11.5094 24.091 12.0364 23.6372 12.3585 23.3298C13.1708 22.5174 14.0934 21.8584 15.1632 21.404C16.7165 20.759 18.9385 20.7201 19.8368 22.4006C19.8736 22.4518 19.9104 22.5029 19.8959 22.5907C20.5445 24.1399 19.067 25.9692 17.4088 25.6054C16.2276 25.3654 14.8269 25.3596 13.9121 26.2452C12.6607 27.5259 13.3395 29.4407 14.903 30.1043C16.8041 30.9138 19.6099 29.529 19.6977 25.9831C19.6966 25.4421 19.5561 24.9232 19.7311 24.4112C19.9717 23.7749 20.7852 23.5036 21.358 23.8685C23.326 25.0946 25.8682 30.7871 19.5968 33.7182" stroke="black" stroke-width="0.8" stroke-miterlimit="10"/>
        <path d="M5.3388 22.311L7.78172 26.6788" stroke="black" stroke-width="0.8" stroke-miterlimit="10"/>
        <path d="M17.6583 35.0187L19.6289 33.766C22.2371 32.2129 27.5529 34.5328 18.5626 39.4055C9.53552 44.227 12.0386 38.1034 12.0386 38.1034C12.383 37.9348 12.8667 37.7442 13.2769 37.4512C13.6726 37.246 14.0314 36.9897 14.3023 36.7188" fill="white"/>
        <path d="M17.6583 35.0187L19.6289 33.766C22.2371 32.2129 27.5529 34.5328 18.5626 39.4055C9.53552 44.227 12.0386 38.1034 12.0386 38.1034C12.383 37.9348 12.8667 37.7442 13.2769 37.4512C13.6726 37.246 14.0314 36.9897 14.3023 36.7188" stroke="black" stroke-width="0.8" stroke-miterlimit="10"/>
        <path d="M41.8662 13.9562L44.6099 15.5853C44.7267 15.469 47.2952 12.9088 47.2952 12.9088C52.841 7.90489 65.392 -1.11383 80.3948 4.12285C87.5168 6.56663 93.3544 11.9197 97.3824 16.6327C98.1413 17.5055 98.8418 18.3782 99.484 19.1928C100.652 20.6475 101.586 21.9857 102.286 23.0331L104.971 21.5784C101.469 16.4581 93.3544 6.04296 81.1537 1.79543C62.298 -4.72132 47.5287 8.254 42.9754 12.8506C42.5084 13.3161 42.1581 13.7234 41.8662 13.9562Z" fill="#E30611" stroke="black" stroke-width="0.8" stroke-miterlimit="10"/>
        <path d="M44.201 38.9176C45.6604 38.8012 47.0615 38.3357 48.2874 37.5793C48.3457 37.5793 48.3457 37.5211 48.4041 37.5211V14.1889V13.4324C48.3457 13.4324 48.3457 13.3743 48.2874 13.3743C47.5285 13.0251 46.7696 12.7924 45.9523 12.676C45.3685 12.6179 44.7848 12.5597 44.1426 12.6179C38.3049 13.0251 33.5764 19.251 33.6348 26.4659C33.6348 33.7973 38.3633 39.3249 44.201 38.9176Z" fill="#E30611" stroke="black" stroke-width="0.8" stroke-miterlimit="10"/>
        <path d="M101.293 42.525C100.651 42.5832 100.068 42.5832 99.4838 42.4669C98.9 42.4087 98.3162 42.2341 97.7325 42.0596C97.6157 31.4116 97.4406 21.462 97.3822 17.389C98.5497 16.749 99.834 16.3417 101.118 16.2835C107.014 15.818 111.86 21.3456 111.918 28.5606C111.918 35.7755 107.189 42.0596 101.293 42.525Z" fill="#E30611" stroke="black" stroke-width="0.8" stroke-miterlimit="10"/>
        <path d="M97.336 59.8725L90.7969 55.98L87.2302 61.3093L85.7806 63.5358L84.7407 65.1087L76.5675 77.34L76.248 81.8197L76.0255 84.9395C76.9855 84.4866 77.9512 83.9537 78.9113 83.5008L82.929 81.4609L91.2369 69.0383L92.2768 67.4654L93.7264 65.2389L97.336 59.8725Z" fill="#5663F1" stroke="black" stroke-width="0.8" stroke-miterlimit="10"/>
        <path d="M76.5602 77.3425L78.7692 76.3374L78.7099 78.8653L81.1508 77.4349L80.8766 80.1482L82.9624 79.1743L82.9202 81.4623L76.0613 84.9029L76.5602 77.3425Z" fill="white" stroke="black" stroke-width="0.8" stroke-miterlimit="10"/>
        <path d="M76.2818 81.7845C76.405 81.7533 77.2415 81.3318 78.0584 81.7529C78.9497 82.2597 78.9501 83.3852 78.9444 83.4652C77.9846 83.9179 77.0191 84.4507 76.0593 84.9035L76.2818 81.7845Z" fill="black" stroke="black" stroke-width="0.8" stroke-miterlimit="10"/>
        <path d="M78.7364 76.3747L91.9594 56.707" stroke="black" stroke-width="0.8" stroke-miterlimit="10"/>
        <path d="M81.1114 77.5499L94.0074 57.9392" stroke="black" stroke-width="0.8" stroke-miterlimit="10"/>
        <path d="M82.9643 79.2501L96.1411 59.0969" stroke="black" stroke-width="0.8" stroke-miterlimit="10"/>
        <path d="M91.482 55.0205C91.482 55.0205 93.6923 51.1626 97.1395 53.141C100.624 55.1624 98.018 58.9112 98.018 58.9112L91.482 55.0205Z" fill="#FF1F33" stroke="black" stroke-width="0.8" stroke-miterlimit="10"/>
        <path d="M95.2711 53.9313C94.4484 53.5901 93.3336 53.9514 92.7033 54.8704C92.5687 55.0617 92.3393 54.8842 92.474 54.693C93.1959 53.6197 94.5572 53.196 95.4544 53.623C95.615 53.6347 95.4689 53.9859 95.2711 53.9313Z" fill="white"/>
        <path d="M95.6974 54.1621C95.5424 54.0703 95.769 53.7245 95.9183 53.8964C96.1164 53.951 95.8898 54.2969 95.6974 54.1621Z" fill="white"/>
        <path d="M90.8088 55.978L97.3807 59.9107L98.0162 58.9123L91.4816 55.0224L90.8088 55.978Z" fill="black" stroke="black" stroke-width="0.8" stroke-miterlimit="10"/>
        <path d="M90.1429 70.9699C90.3887 71.1062 90.6345 71.2425 90.8803 71.3788C92.6347 72.2717 94.3892 73.1647 96.2118 73.9351C97.6931 74.5964 99.1608 75.21 100.615 75.776C100.908 75.8988 101.25 76.0079 101.543 76.1306C104.854 77.4058 109.12 78.7701 112.565 77.2749C117.886 74.9368 114.898 67.9506 112.916 64.287C110.715 60.2217 108.872 59.3883 105.567 56.1527L104.877 57.9777L104.879 60.0444C106.498 61.9039 108.125 64.1545 109.308 66.2927C109.875 67.3686 110.408 68.5058 110.832 69.6225C111.14 70.5144 111.55 71.5834 111.462 72.5364C111.476 72.584 111.367 72.9243 111.381 72.972C111.347 73.0332 111.313 73.0944 111.313 73.0944C111.278 73.1557 111.163 73.2917 111.115 73.3053L111.067 73.3189C110.808 73.4957 110.126 73.6382 109.825 73.672C108.802 73.7054 107.737 73.5958 106.679 73.3296C104.42 72.8379 102.12 71.8425 99.9558 70.9629C99.0752 70.5947 98.2561 70.2606 97.4232 69.8789C96.4675 69.4289 95.5118 68.979 94.5561 68.5291C93.8325 68.1678 93.1088 67.8065 92.433 67.4317C91.949 68.0849 91.5128 68.7244 91.138 69.3981C90.7836 69.9629 90.4633 70.4664 90.1429 70.9699Z" fill="black"/>
        <path d="M97.8686 67.8836C97.5021 67.785 97.4742 66.9822 97.429 66.5896C97.2383 64.279 95.2607 62.341 93.8564 61.4562C93.2929 61.1433 91.5128 59.8924 90.405 60.2746C88.002 61.0924 90.6521 64.6637 91.449 65.7886C90.7964 65.6362 90.6533 65.6093 90.5103 65.5823C90.2242 65.5285 89.9202 65.4121 89.5716 65.376C89.0441 65.1881 88.472 65.0804 87.9444 64.8924C86.6658 64.4449 85.4943 63.8994 84.2157 63.4518C83.3841 63.1475 82.043 62.7178 81.2752 63.3413C80.7217 63.7688 80.8121 64.5539 80.9291 65.1963C80.9291 65.1963 80.9291 65.1963 80.947 65.2588C80.947 65.2588 78.3205 66.005 80.2275 68.6387C79.9328 68.79 79.6201 68.8788 79.5043 69.182C78.9873 70.2072 80.2405 71.743 80.8492 72.4484C82.3798 74.2432 84.5717 75.9853 86.6912 77.0047C88.4887 77.8454 90.4552 78.0975 92.4118 77.6092C92.787 77.5026 93.1622 77.396 93.5375 77.2894C93.8502 77.2005 94.4037 76.773 94.6898 76.8269C94.6898 76.8269 94.8155 77.2641 94.8334 77.3266C95.0037 77.6836 95.2365 78.0228 95.5139 78.2819C96.1671 78.9071 97.1683 79.0956 97.972 78.597C99.1776 77.8491 99.5064 76.4044 99.8265 75.1649C100.2 73.6399 100.734 72.2044 101.188 70.7242C102.612 66.2657 99.1281 67.3231 98.6637 67.5901C97.9132 67.8033 98.0742 67.8927 97.8686 67.8836Z" fill="white" stroke="black" stroke-width="0.8" stroke-miterlimit="10"/>
        <path d="M88.8621 69.0336C88.8621 69.0336 83.6497 67.6091 80.9117 65.1438" stroke="black" stroke-width="0.8" stroke-miterlimit="10"/>
        <path d="M80.1251 68.5405C80.1251 68.5405 83.9716 71.5687 87.0202 72.5267" stroke="black" stroke-width="0.8" stroke-miterlimit="10"/>
        <path d="M97.7766 67.7695L97.1892 69.4899" stroke="black" stroke-width="0.8" stroke-miterlimit="10"/>
        <path d="M95.1302 75.0701L94.7125 76.6745" stroke="black" stroke-width="0.8" stroke-miterlimit="10"/>
    </g>
    <defs>
        <clipPath id="clip0_755_6290">
            <rect width="117" height="121" fill="white"/>
        </clipPath>
    </defs>
</svg>
