<svg width="118" height="124" viewBox="0 0 118 124" fill="none" xmlns="http://www.w3.org/2000/svg">
<path d="M37.1004 109.822C36.9187 113.206 39.9458 114.361 41.3382 112.545C41.7015 112.05 41.9436 111.39 41.9436 110.565C42.1858 105.531 45.8375 88.3016 47.1089 83.5978C47.23 83.2677 47.2905 82.8551 47.4116 82.525C45.6559 82.0299 44.0818 81.5347 42.6289 80.8746C41.0548 85.9909 37.4031 103.798 37.1004 109.162C37.1004 109.327 37.1004 109.575 37.1004 109.822Z" fill="black" stroke="black" stroke-width="0.8" stroke-miterlimit="10"/>
<path d="M42.5419 112.254C42.5419 112.254 45.7007 109.531 39.2175 109.521C32.2786 109.504 36.728 112.323 36.728 112.323L35.7205 112.917C35.7205 112.917 28.1119 107.256 25.4757 113.139C22.8394 119.021 30.8998 119.837 35.8187 119.813C40.7375 119.789 46.1128 120.743 42.5419 112.254Z" fill="#E30611" stroke="black" stroke-width="0.8" stroke-miterlimit="10"/>
<path d="M42.5416 112.254C42.5416 112.254 41.4737 112.863 39.756 112.741Z" fill="black"/>
<path d="M42.5416 112.254C42.5416 112.254 41.4737 112.863 39.756 112.741" stroke="black" stroke-width="0.8" stroke-miterlimit="10"/>
<path d="M37.9016 112.591C37.9016 112.591 37.5226 112.628 36.7724 112.247Z" fill="black"/>
<path d="M37.9016 112.591C37.9016 112.591 37.5226 112.628 36.7724 112.247" stroke="black" stroke-width="0.8" stroke-miterlimit="10"/>
<path d="M35.7206 112.916L38.0163 114.954" stroke="black" stroke-width="0.8" stroke-miterlimit="10"/>
<path d="M35.7206 112.917L35.9443 115.445" stroke="black" stroke-width="0.8" stroke-miterlimit="10"/>
<path d="M29.0024 111.546C28.7768 111.672 28.5511 111.797 28.402 111.966C28.1763 112.091 28.0273 112.261 27.8782 112.43C27.5197 112.785 27.2216 113.123 27.0768 113.55C26.8553 113.933 26.7267 114.421 26.6585 114.892C26.5904 115.363 26.5988 115.878 26.5911 116.333L26.5306 116.349C26.4659 116.108 26.4617 115.85 26.397 115.609C26.3928 115.351 26.3281 115.11 26.3843 114.836C26.3758 114.321 26.5649 113.817 26.7702 113.374C27.2412 112.471 28.0512 111.866 29.0024 111.546Z" fill="white"/>
<path d="M63.4359 87.2468C64.2229 90.8954 63.9372 102.957 68.037 105.541C70.4586 107.743 73.4251 108.183 76.2705 107.428C80.2057 106.359 82.7484 103.779 83.7776 102.521L83.8381 102.395C84.5041 101.452 84.5646 100.257 84.0803 99.313C83.7171 98.621 83.1117 98.1177 82.3852 97.929C81.9614 97.8032 81.5376 97.8661 81.1743 98.0548C80.9927 98.1177 80.8716 98.2435 80.7506 98.3694C79.1765 100.068 74.2121 104.597 70.277 100.508C69.3083 99.5646 68.5213 88.8195 68.037 87.0581C66.5235 87.1839 65.0099 87.2468 63.4359 87.2468Z" fill="black" stroke="black" stroke-width="0.8" stroke-miterlimit="10"/>
<path d="M80.768 97.7528C80.768 97.7528 76.7045 96.8153 80.5302 102.049C84.6195 107.655 84.2621 102.4 84.2621 102.4L85.3364 102.862C85.3364 102.862 85.2704 112.345 91.5731 110.992C97.8758 109.64 93.768 102.657 90.8401 98.7046C87.9122 94.752 85.5028 89.8532 80.768 97.7528Z" fill="#E30611" stroke="black" stroke-width="0.8" stroke-miterlimit="10"/>
<path d="M80.7682 97.753C80.7682 97.753 81.8913 98.2538 82.8086 99.7112Z" fill="black"/>
<path d="M80.7682 97.753C80.7682 97.753 81.8913 98.2538 82.8086 99.7112" stroke="black" stroke-width="0.8" stroke-miterlimit="10"/>
<path d="M83.784 101.295C83.784 101.295 84.0378 101.579 84.1739 102.41Z" fill="black"/>
<path d="M83.784 101.295C83.784 101.295 84.0378 101.579 84.1739 102.41" stroke="black" stroke-width="0.8" stroke-miterlimit="10"/>
<path d="M85.3361 102.862L85.6218 99.8057" stroke="black" stroke-width="0.8" stroke-miterlimit="10"/>
<path d="M85.3362 102.862L87.2426 101.187" stroke="black" stroke-width="0.8" stroke-miterlimit="10"/>
<path d="M88.2037 109.09C88.4381 109.198 88.6725 109.306 88.8972 109.326C89.1316 109.434 89.3563 109.454 89.581 109.474C90.0792 109.553 90.5286 109.593 90.9586 109.458C91.3983 109.41 91.8674 109.226 92.2876 109.002C92.7079 108.778 93.1185 108.467 93.49 108.204L93.5388 108.243C93.3823 108.438 93.177 108.594 93.0206 108.789C92.8153 108.945 92.6588 109.14 92.4047 109.256C91.9941 109.568 91.4762 109.713 90.9974 109.809C89.991 109.963 89.024 109.668 88.2037 109.09Z" fill="white"/>
<path d="M6.94429 29.5626C7.86246 29.3787 9.05608 29.9765 9.19381 30.9881C10.0661 37.5639 11.1679 44.0476 13.2797 50.3475C14.106 52.7846 15.2537 55.4057 17.3655 57.0152C19.5232 58.7166 22.14 59.0845 24.8027 59.0385C28.1081 58.9465 31.3217 58.3027 34.6271 58.2108C35.6371 58.1648 36.4635 59.2224 36.4176 60.1881C36.3716 61.1997 35.4535 61.8895 34.4435 61.8895C28.3836 62.1194 21.8646 64.1887 16.2637 60.7859C13.5551 59.1304 11.7188 56.4634 10.5252 53.6123C9.28562 50.6234 8.41336 47.4505 7.63292 44.3235C6.62293 40.185 6.02612 35.9544 5.47521 31.7699C5.3834 30.7582 5.88839 29.7925 6.94429 29.5626Z" fill="black"/>
<path d="M7.17358 29.4249C7.17358 29.4249 8.27539 19.8142 11.6267 20.412C14.2435 20.9179 11.4431 30.1147 11.4431 30.1147L7.17358 29.4249Z" fill="white" stroke="black" stroke-width="0.8" stroke-miterlimit="10"/>
<path d="M3.82222 29.5628C3.82222 29.5628 -0.355459 21.0097 2.99586 20.4119C6.34719 19.8141 7.44899 29.1029 7.44899 29.1029L3.82222 29.5628Z" fill="white" stroke="black" stroke-width="0.8" stroke-miterlimit="10"/>
<path d="M12.499 30.6663C12.499 30.6663 15.5748 34.7129 11.8562 37.288C11.8562 37.288 13.7844 38.7595 11.489 39.8631C9.19354 40.9667 4.09769 41.3346 5.01586 38.5755C5.01586 38.5755 -0.171799 36.5062 2.03181 31.0341L12.499 30.6663Z" fill="white" stroke="black" stroke-width="0.8" stroke-miterlimit="10"/>
<path d="M11.9021 37.2422C11.9021 37.2422 10.7085 37.9779 9.65259 38.1619" stroke="black" stroke-width="0.8" stroke-miterlimit="10"/>
<path d="M7.26538 38.4836C7.26538 38.4836 6.34721 38.7132 5.06177 38.5755" stroke="black" stroke-width="0.8" stroke-miterlimit="10"/>
<path d="M1.43507 28.6431C1.98597 28.3672 2.76641 28.4592 3.31732 28.7811C4.14367 29.2409 4.60276 30.2066 4.87821 31.0803C5.10775 31.816 5.19957 32.7817 4.46503 33.3335C3.40913 34.0692 2.35324 33.2875 1.66461 32.4598C1.02189 31.6781 0.470989 30.5744 0.700531 29.5628C0.838257 29.1029 1.11371 28.7811 1.43507 28.6431Z" fill="white" stroke="black" stroke-width="0.8" stroke-miterlimit="10"/>
<path d="M12.545 30.7124C10.7546 28.8271 6.53101 29.011 5.01603 29.103C4.14376 29.149 3.22559 29.3789 2.95014 30.2066C1.94016 32.9657 8.13781 33.7934 8.13781 33.7934C8.13781 33.7934 7.5869 35.7707 9.33143 36.2765" fill="white"/>
<path d="M12.545 30.7124C10.7546 28.8271 6.53101 29.011 5.01603 29.103C4.14376 29.149 3.22559 29.3789 2.95014 30.2066C1.94016 32.9657 8.13781 33.7934 8.13781 33.7934C8.13781 33.7934 7.5869 35.7707 9.33143 36.2765" stroke="black" stroke-width="0.8" stroke-miterlimit="10"/>
<path d="M66.3101 22.7689L93.2061 69.3542C97.671 77.0875 92.0899 86.7542 83.1602 86.7542H29.3681C20.4384 86.7542 14.8574 77.0875 19.3222 69.3542L46.2183 22.7688C50.6831 15.0355 61.8452 15.0355 66.3101 22.7689Z" fill="#D9D9D9" stroke="black" stroke-width="0.8"/>
<path d="M67.8728 16.437C67.8728 16.437 78.4995 19.6542 76.2617 28.4342L56.068 28.2492L36.159 26.3482C35.0627 19.6636 43.7202 16.331 43.7202 16.331C43.8469 16.2765 43.9922 12.6961 44.0716 12.3913C44.3018 10.5484 44.8907 8.91201 46.0303 7.36953C48.3817 4.10313 52.4253 1.49208 56.6305 1.4274C62.386 1.26728 66.9976 5.92888 67.9912 11.1844C68.1769 12.2471 68.2394 13.3026 68.1788 14.351C68.1101 14.4707 67.7532 16.3682 67.8728 16.437Z" fill="#5663F1" stroke="black" stroke-width="0.8" stroke-miterlimit="10"/>
<path d="M35.1658 33.9024C40.3374 33.1515 56.2439 31.6023 78.2192 36.2216C79.4401 36.4783 80.602 35.6179 80.6081 34.4428C80.6036 33.4527 80.7838 32.4733 80.6562 31.476C80.4731 29.3 79.7277 26.1633 77.1084 25.516C72.964 24.5325 67.4978 23.967 62.4047 23.3613C54.1854 22.3263 43.8948 21.8514 35.2331 24.1933C34.7298 24.3496 34.2773 24.6945 34.0641 25.177C33.5759 26.1384 33.07 27.4082 32.8541 29.0042C32.6561 30.2918 32.7115 31.4705 32.9007 32.4714C33.0971 33.3489 34.0467 34.0229 35.1658 33.9024Z" fill="#5663F1" stroke="black" stroke-width="0.8" stroke-miterlimit="10"/>
<path d="M43.1603 22.7983L43.1232 33.069" stroke="black" stroke-width="0.8" stroke-miterlimit="10"/>
<path d="M52.6899 22.5474L52.1993 33.1631" stroke="black" stroke-width="0.8" stroke-miterlimit="10"/>
<path d="M62.2203 23.3484L61.4319 33.7611" stroke="black" stroke-width="0.8" stroke-miterlimit="10"/>
<path d="M71.7324 24.4584L70.6505 34.6064" stroke="black" stroke-width="0.8" stroke-miterlimit="10"/>
<path d="M59.8991 68.2795C57.0528 70.3488 53.3342 70.8087 49.9828 69.889C48.7892 69.5671 47.5038 69.0153 46.3561 68.2336C44.5656 67.038 43.2343 65.3366 43.2802 63.1293C43.372 61.106 44.887 60.5542 46.6774 60.5542C48.2383 60.5542 50.0288 61.014 51.1306 61.2899C52.0946 61.5199 53.0128 61.7038 54.0228 61.6578C55.5837 61.5658 57.0528 60.8761 58.5677 60.6922C58.8891 60.6462 59.2105 60.6462 59.5777 60.6922C60.6336 60.7381 61.8272 61.014 62.5159 61.7038C64.5358 63.6811 61.46 67.084 59.8991 68.2795Z" fill="black" stroke="black" stroke-width="0.8" stroke-miterlimit="10"/>
<path d="M59.8991 68.2793C57.0528 70.3486 53.3342 70.8085 49.9828 69.8888C48.7892 69.5669 47.5038 69.0151 46.3561 68.2333C47.7333 66.348 50.2583 65.1064 53.1046 65.1064C56.0428 65.0604 58.5218 66.348 59.8991 68.2793Z" fill="#E30611" stroke="black" stroke-width="0.8" stroke-miterlimit="10"/>
<path d="M87.1296 80.0683C86.6869 77.4263 84.2711 75.9713 81.7068 76.8702C79.1361 77.7313 77.4037 80.5856 77.8087 83.234C78.2515 85.8761 80.6672 87.3311 83.2316 86.4322C85.8022 85.571 87.5724 82.7104 87.1296 80.0683ZM82.6197 84.4009C81.0798 84.9326 79.614 84.0547 79.3483 82.4694C79.0827 80.8842 80.1184 79.1955 81.6583 78.6638C83.1981 78.132 84.6639 79.0099 84.9296 80.5952C85.1952 82.1804 84.1658 83.9068 82.6197 84.4009Z" fill="#F96F6F" stroke="black" stroke-width="0.8" stroke-miterlimit="10"/>
<path d="M79.9423 74.6411C79.9423 74.6411 82.0262 90.3162 69.7058 91.5434C58.0328 92.7001 57.162 76.8589 57.162 76.8589L79.9423 74.6411Z" fill="#F96F6F" stroke="black" stroke-width="0.8" stroke-miterlimit="10"/>
<path d="M79.9243 74.6302C79.7485 72.8014 74.5115 71.8141 68.227 72.425C61.9426 73.0358 56.9905 75.0135 57.1663 76.8423C57.342 78.6711 62.5791 79.6584 68.8635 79.0475C75.148 78.4366 80.1 76.4589 79.9243 74.6302Z" fill="#F96F6F" stroke="black" stroke-width="0.8" stroke-miterlimit="10"/>
<path d="M57.9166 77.89C57.4826 77.6142 57.2372 77.3066 57.1363 76.9359C58.6868 75.0841 61.0743 74.2932 63.8153 74.9164C65.915 75.4152 67.4431 76.2043 69.5098 75.1186C71.6079 73.9888 73.2599 72.9731 75.7997 73.5527C77.0884 73.8393 78.6725 74.0373 79.9427 74.6761C80.0137 76.4868 75.107 78.4397 68.8853 79.0246C64.1531 79.4744 60.0107 79.049 58.1681 78.0027" fill="black"/>
<path d="M57.9166 77.89C57.4826 77.6142 57.2372 77.3066 57.1363 76.9359C58.6868 75.0841 61.0743 74.2932 63.8153 74.9164C65.915 75.4152 67.4431 76.2043 69.5098 75.1186C71.6079 73.9888 73.2599 72.9731 75.7997 73.5527C77.0884 73.8393 78.6725 74.0373 79.9427 74.6761C80.0137 76.4868 75.107 78.4397 68.8853 79.0246C64.1531 79.4744 60.0107 79.049 58.1681 78.0027" stroke="black" stroke-width="0.8" stroke-miterlimit="10"/>
<path d="M73.2976 74.3644C74.1333 74.0293 75.0572 73.9898 75.9373 74.1516C76.8174 74.3134 77.6538 74.6766 78.4274 75.128C78.5595 75.2221 78.4403 75.4362 78.3082 75.3421C77.5409 74.9284 76.7486 74.5966 75.9062 74.4284C75.0637 74.2602 74.1839 74.3312 73.3419 74.6285C73.1974 74.6917 73.1532 74.4276 73.2976 74.3644Z" fill="white"/>
<path d="M57.9169 77.8867C58.2117 77.3326 58.6323 76.8349 59.1536 76.4753C59.8067 75.9771 60.5732 75.6925 61.4027 75.5525C61.8929 75.4698 62.358 75.4688 62.8672 75.4993C63.0243 75.5115 63.0246 75.7443 62.8674 75.732C61.296 75.6093 59.6685 76.078 58.6328 77.3003C58.4382 77.5272 58.2813 77.7476 58.1684 77.9994L57.9169 77.8867Z" fill="white"/>
<path d="M72.3175 74.5282C72.4244 74.4713 72.5376 74.4522 72.6444 74.3953C72.7199 74.3825 72.764 74.414 72.8144 74.4832C72.827 74.5588 72.7957 74.603 72.7265 74.6535C72.6511 74.6663 72.5442 74.7232 72.4687 74.7359L72.431 74.7423C72.3933 74.7487 72.3555 74.755 72.3555 74.755C72.3178 74.7614 72.3115 74.7236 72.2674 74.6922C72.2611 74.6544 72.2547 74.6166 72.2547 74.6166C72.2861 74.5724 72.3175 74.5282 72.3175 74.5282Z" fill="white"/>
<path d="M63.577 75.5743C63.728 75.5489 63.8539 75.6054 63.9861 75.6997C64.0302 75.7312 64.0806 75.8004 64.0178 75.8888C63.9864 75.933 63.9173 75.9835 63.8291 75.9207C63.7914 75.927 63.785 75.8892 63.7473 75.8956C63.7032 75.8641 63.6655 75.8705 63.6277 75.8769C63.59 75.8833 63.59 75.8833 63.5522 75.8896C63.4768 75.9024 63.4263 75.8331 63.4137 75.7575C63.4701 75.6313 63.5015 75.5871 63.577 75.5743Z" fill="white"/>
<path d="M77.4929 75.7927C78.0471 76.5531 78.5386 77.4018 78.9168 78.2697C79.1816 78.9238 79.6542 79.8921 79.1012 80.5291C78.7745 80.8949 78.2021 80.9527 77.8055 80.6703C77.3586 80.3188 77.2888 79.6706 77.238 79.1357C77.1364 78.0658 77.2675 76.9954 77.4741 75.9123C77.4741 75.9123 77.4678 75.8746 77.4929 75.7927Z" fill="black" stroke="black" stroke-width="0.8" stroke-miterlimit="10"/>
<path d="M77.4713 78.6688C77.4963 78.5869 77.5592 78.4986 77.641 78.5236C77.7228 78.5486 77.8109 78.6114 77.7858 78.6933C77.7546 78.9703 77.7549 79.2032 77.8369 79.4611C77.9126 79.6813 78.0324 79.9328 78.2464 80.0519C78.3282 80.0769 78.3472 80.1902 78.2844 80.2785C78.2215 80.3667 78.1461 80.3795 78.0579 80.3167C77.7998 80.1662 77.6297 79.8455 77.5413 79.5499C77.4593 79.2919 77.4023 78.9522 77.4713 78.6688Z" fill="white"/>
<path d="M32.6976 47.8884C33.2334 44.608 36.1411 42.3058 39.3999 42.4497C39.704 42.4492 39.9564 42.4775 40.2491 42.5172C43.8076 43.1373 46.1977 46.5105 45.6226 50.0838C45.0073 53.6458 41.6409 56.0349 38.0711 55.455C37.7784 55.4153 37.4971 55.3354 37.2158 55.2554C34.144 54.2957 32.1505 51.209 32.6976 47.8884Z" fill="white" stroke="black" stroke-width="0.8" stroke-miterlimit="10"/>
<path d="M37.2158 55.2555C38.1594 54.2201 38.9869 52.6738 39.5269 50.9154L35.5099 48.3835L40.1536 47.3132C40.2402 45.4694 39.9485 43.7354 39.3999 42.4498C36.1813 42.3173 33.2735 44.6195 32.6976 47.8885C32.1504 51.2091 34.144 54.2957 37.2158 55.2555Z" fill="black" stroke="black" stroke-width="0.8" stroke-miterlimit="10"/>
<path d="M60.5156 47.4339C60.9993 44.145 63.8699 41.7961 67.1302 41.8876C67.4342 41.8822 67.6871 41.9064 67.9803 41.9414C71.5477 42.5043 73.9907 45.8389 73.4723 49.4214C72.9135 52.9932 69.5857 55.4364 66.0075 54.9139C65.7143 54.8789 65.4318 54.8035 65.1493 54.7281C62.063 53.8177 60.0211 50.7632 60.5156 47.4339Z" fill="white" stroke="black" stroke-width="0.8" stroke-miterlimit="10"/>
<path d="M65.1493 54.7282C66.0764 53.6777 66.8792 52.1181 67.3913 50.351L63.3351 47.8838L67.9608 46.7389C68.0182 44.8937 67.6991 43.1645 67.1303 41.8877C63.9104 41.807 61.0397 44.1559 60.5156 47.434C60.0212 50.7634 62.0631 53.8179 65.1493 54.7282Z" fill="black" stroke="black" stroke-width="0.8" stroke-miterlimit="10"/>
<circle cx="36.9544" cy="48.8098" r="8.35465" stroke="black" stroke-width="0.8"/>
<circle cx="64.8646" cy="48.1172" r="8.35465" stroke="black" stroke-width="0.8"/>
<rect x="45.8157" y="48.1172" width="10.2859" height="0.692716" fill="black"/>
<path d="M115.576 76.2833C113.231 79.82 108.259 80.8202 104.358 81.4734C102.861 81.7278 101.355 81.8908 99.8436 82.008C99.1589 82.0821 98.4236 82.1154 97.7388 82.1895C97.6932 82.1944 97.6932 82.1944 97.6476 82.1993C96.8666 82.2376 96.04 82.2808 95.264 82.3647C94.8075 82.4141 94.3918 82.4128 93.9353 82.4622C93.5701 82.5017 93.2 82.4955 92.8348 82.535C90.492 82.6497 88.154 82.8101 85.8309 83.1077C84.8266 83.2163 83.8139 82.8172 83.559 81.735C83.5443 81.5979 83.5295 81.4608 83.5148 81.3236C83.5176 80.491 84.0633 79.5534 84.9306 79.4596C85.2501 79.425 85.5697 79.3905 85.8892 79.3559C86.0261 79.3411 86.1631 79.3263 86.3 79.3115C89.1759 79.0004 92.0714 78.8721 94.9164 78.7031C95.606 78.6747 96.2451 78.6056 96.9348 78.5772C97.2087 78.5476 97.4369 78.5229 97.7157 78.539C98.4966 78.5007 99.3183 78.4119 100.094 78.3279C102.473 78.1168 104.832 77.723 107.126 77.1512C108.699 76.7498 110.084 76.3225 111.365 75.3516C111.838 75.023 112.21 74.6129 112.439 74.1719C112.363 74.3189 112.563 73.6036 112.537 73.7914C112.553 73.5122 112.538 73.3751 112.483 73.2886C111.96 71.8654 110.377 70.8807 109.147 70.1814C105.949 68.3541 102.21 67.5101 98.6126 66.6969C94.3013 65.6836 95.3505 65.7939 91.0783 65.1241C91.0783 65.1241 90.2869 63.697 89.9141 63.0791C89.3146 62.0853 88.7306 60.9919 88.7306 60.9919C90.9351 61.3083 96.812 62.4064 98.9905 62.9106C103.018 63.8621 107.183 64.7988 110.821 66.856C114.233 68.5215 118.154 72.3514 115.576 76.2833Z" fill="black"/>
<path d="M94.6094 75.8223C94.6094 75.8223 96.5327 73.9495 97.1759 75.6369C97.6836 76.9227 97.8658 79.9084 97.9169 81.2437C97.9351 81.8428 97.6336 82.4765 97.1103 82.7644C96.7598 82.9411 95.7358 82.867 95.2448 82.5965C94.4054 83.381 93.3608 84.835 91.0161 85.3663C89.2601 85.7877 87.323 85.8125 85.565 85.3556C84.6631 85.1296 83.833 84.7109 83.2473 83.9883C82.9243 83.5609 82.642 83.0829 82.583 82.5344C82.5536 82.2602 82.5747 82.0267 82.6822 81.7376C82.7229 81.687 82.9428 81.1546 82.9428 81.1546C82.9428 81.1546 81.1043 79.0881 83.4926 77.6735C83.4926 77.6735 80.8577 74.2137 86.5568 74.3825C86.8813 74.3936 87.0388 72.8508 88.2435 72.0268C88.4163 71.9156 89.7123 71.0817 91.1718 71.3397C92.9706 71.746 94.4552 73.5272 94.6094 75.8223Z" fill="white" stroke="black" stroke-width="0.8" stroke-miterlimit="10"/>
<path d="M83.6001 77.7993L85.7951 78.0244" stroke="black" stroke-width="0.8" stroke-miterlimit="10"/>
<path d="M83.001 81.2402L85.2718 81.3178" stroke="black" stroke-width="0.8" stroke-miterlimit="10"/>
<path d="M86.6121 74.4678L89.7755 74.6804" stroke="black" stroke-width="0.8" stroke-miterlimit="10"/>
<path d="M94.6078 75.8232L94.849 78.0635" stroke="black" stroke-width="0.8" stroke-miterlimit="10"/>
<path d="M95.0728 80.9995L95.2956 82.6404" stroke="black" stroke-width="0.8" stroke-miterlimit="10"/>
<path d="M52.707 50.5042L52.3358 53.417C52.3358 53.417 47.6953 52.5494 47.3859 54.9664C47.0765 57.3835 52.5214 57.0116 52.5214 57.0116" fill="#D9D9D9"/>
<path d="M52.707 50.5042L52.3358 53.417C52.3358 53.417 47.6953 52.5494 47.3859 54.9664C47.0765 57.3835 52.5214 57.0116 52.5214 57.0116" stroke="black" stroke-width="0.8" stroke-miterlimit="10"/>
</svg>
