<svg width="121" height="123" viewBox="0 0 121 123" fill="none" xmlns="http://www.w3.org/2000/svg">
<path d="M91.0613 86.2215C90.5884 86.6952 90.183 87.2366 89.71 87.778C88.5615 89.1315 80.3728 97.5754 79.2242 99.0642C76.1839 103.057 73.076 107.456 70.914 111.246C70.7788 111.449 70.6437 111.584 70.5086 111.787C68.6844 113.75 64.9008 111.584 66.3872 109.012C66.5223 108.742 66.6575 108.539 66.7926 108.268C68.9546 104.614 71.3193 100.824 73.8867 97.3047C74.9002 95.8835 75.9812 94.4623 77.0622 93.1089C78.0081 91.8907 86.0616 83.6499 87.1426 82.4994C87.2102 82.4317 87.2778 82.3641 87.3453 82.2964L87.2778 82.5671C87.4129 82.7701 90.3181 85.5448 91.0613 86.2215Z" fill="black" stroke="black" stroke-width="0.8" stroke-miterlimit="10"/>
<path d="M64.0126 107.127L72.8121 110.848L68.0709 122.047L46.8459 112.6L47.874 110.03C47.874 110.03 51.4093 105.844 61.807 112.13L64.0126 107.127Z" fill="#F96F6F" stroke="black" stroke-width="0.8" stroke-miterlimit="10"/>
<path d="M55.6074 109.238C49.9748 107.594 47.8738 110.03 47.8738 110.03L46.8457 112.6L54.4494 115.99C55.1734 113.775 55.6093 111.571 55.6074 109.238Z" fill="white" stroke="black" stroke-width="0.8" stroke-miterlimit="10"/>
<path d="M69.1788 119.301L47.8739 110.03L46.8458 112.601L68.0708 122.047L69.1788 119.301Z" fill="white" stroke="black" stroke-width="0.8" stroke-miterlimit="10"/>
<path d="M63.2829 109.199L63.4164 108.905L67.2289 110.499L67.0954 110.792L63.2829 109.199Z" fill="white"/>
<path d="M66.338 112.448L62.5955 110.86L62.4948 111.097L66.2374 112.685L66.338 112.448Z" fill="white"/>
<path d="M67.2449 110.931C67.3746 110.99 67.5276 110.932 67.5865 110.803C67.6455 110.673 67.5881 110.52 67.4583 110.461C67.3286 110.402 67.1756 110.46 67.1167 110.589C67.0577 110.719 67.1151 110.871 67.2449 110.931Z" fill="white" stroke="white" stroke-width="0.8" stroke-miterlimit="10"/>
<path d="M66.4243 112.889C66.5541 112.948 66.707 112.891 66.766 112.761C66.8249 112.632 66.7675 112.479 66.6378 112.42C66.508 112.361 66.355 112.418 66.2961 112.548C66.2372 112.677 66.2945 112.83 66.4243 112.889Z" fill="white" stroke="white" stroke-width="0.8" stroke-miterlimit="10"/>
<path d="M87.2032 105.779C87.0681 105.779 87.0005 105.779 86.8654 105.779C82.8116 105.644 78.7578 104.832 74.7716 103.682C74.3662 103.546 73.9608 103.411 73.5554 103.276C72.2717 102.869 71.0556 102.463 69.8395 102.057C69.4341 101.922 69.0287 101.787 68.6233 101.651C68.4882 101.584 68.3531 101.584 68.2179 101.516C63.4885 99.6888 59.5023 96.3727 59.0969 90.9587C58.8942 87.575 60.1103 84.7327 62.1372 82.2964C63.3534 83.5822 64.5695 84.7327 65.6505 85.8155C64.9073 86.8306 64.3668 87.981 64.1641 89.1992C63.2858 93.8687 67.6099 96.0343 71.3259 97.3201C71.7312 97.4555 72.1366 97.5908 72.4744 97.7262C72.542 97.7262 72.6771 97.7939 72.7447 97.7939C74.096 98.1999 75.4472 98.6736 76.8661 99.012C77.2039 99.0797 77.5417 99.215 77.8795 99.2827C80.7847 100.095 83.8251 100.636 86.7978 100.772C87.2708 100.772 87.6762 100.907 88.014 101.11C90.176 102.26 89.9058 105.847 87.2032 105.779Z" fill="black" stroke="black" stroke-width="0.8" stroke-miterlimit="10"/>
<path d="M87.1064 108.22L87.4786 98.6734L99.6299 99.1519L98.2928 122.345L95.5245 122.292C95.5245 122.292 90.3595 120.464 92.566 108.516L87.1064 108.22Z" fill="#F96F6F" stroke="black" stroke-width="0.8" stroke-miterlimit="10"/>
<path d="M92.0518 115.337C92.5037 121.187 95.5249 122.292 95.5249 122.292L98.2931 122.345L98.777 114.035C96.4496 114.14 94.2334 114.511 92.0518 115.337Z" fill="white" stroke="black" stroke-width="0.8" stroke-miterlimit="10"/>
<path d="M96.6693 99.0857L95.5247 122.292L98.293 122.345L99.6301 99.1517L96.6693 99.0857Z" fill="white" stroke="black" stroke-width="0.8" stroke-miterlimit="10"/>
<path d="M89.3023 108.171L88.9809 108.15L89.1242 104.02L89.4457 104.041L89.3023 108.171Z" fill="white"/>
<path d="M91.2625 104.164L91.0991 108.227L91.3566 108.237L91.52 104.175L91.2625 104.164Z" fill="white"/>
<path d="M89.5227 103.853C89.5321 103.71 89.4246 103.587 89.2826 103.578C89.1406 103.569 89.0178 103.676 89.0085 103.819C88.9991 103.961 89.1066 104.084 89.2486 104.093C89.3906 104.103 89.5133 103.995 89.5227 103.853Z" fill="white" stroke="white" stroke-width="0.8" stroke-miterlimit="10"/>
<path d="M91.6448 103.928C91.6542 103.786 91.5467 103.663 91.4047 103.654C91.2626 103.644 91.1399 103.752 91.1305 103.894C91.1211 104.037 91.2286 104.159 91.3707 104.169C91.5127 104.178 91.6354 104.07 91.6448 103.928Z" fill="white" stroke="white" stroke-width="0.8" stroke-miterlimit="10"/>
<path d="M41.6819 59.8895L41.6819 59.8894C41.3248 58.7815 40.3701 57.8098 39.2337 56.9245C38.2779 56.1801 37.1409 55.4583 36.0174 54.7451C35.7951 54.604 35.5734 54.4633 35.3538 54.3228C34.0094 53.4629 32.739 52.6102 31.8045 51.7105C30.92 50.8591 30.3917 50.0181 30.3342 49.1441L30.3378 49.1404V48.9757C30.3378 48.0442 30.8752 47.1529 31.8133 46.2498C32.7479 45.3501 34.0183 44.4974 35.3627 43.6375C35.5823 43.497 35.8041 43.3563 36.0263 43.2152C37.1498 42.502 38.2868 41.7802 39.2426 41.0357C40.379 40.1505 41.3337 39.1788 41.6908 38.0709L41.6908 38.0707C42.0577 36.931 41.8663 35.5567 41.4719 34.1475C41.1265 32.9136 40.6062 31.5913 40.0962 30.295C40.0199 30.1012 39.9439 29.908 39.8687 29.7157C39.2848 28.2224 38.752 26.7875 38.5121 25.5208C38.2708 24.2464 38.3445 23.2356 38.8605 22.5194C39.3828 21.7968 40.3182 21.4107 41.5969 21.2465C42.8692 21.0831 44.3898 21.1503 45.9797 21.2503C46.1976 21.264 46.4168 21.2783 46.6367 21.2927C48.0043 21.3821 49.3967 21.473 50.6516 21.4271C52.0984 21.3741 53.4505 21.1387 54.4039 20.4384C55.3487 19.7446 55.979 18.5233 56.4692 17.155C56.8885 15.9845 57.2256 14.6434 57.5577 13.3222C57.6167 13.0875 57.6755 12.8533 57.7347 12.6208C58.1306 11.0643 58.5391 9.58258 59.0916 8.41007C59.6472 7.23117 60.3095 6.44925 61.1647 6.16935L61.1649 6.1693C61.9795 5.90235 62.9391 6.14477 64.0585 6.775C65.1703 7.40091 66.3533 8.35947 67.5802 9.38526C67.7191 9.50141 67.8586 9.6184 67.9985 9.73577C69.0816 10.6444 70.1909 11.5749 71.2741 12.3027C72.4894 13.1194 73.7394 13.7291 74.9466 13.7291C76.1536 13.7291 77.404 13.1207 78.6202 12.3058C79.7035 11.5799 80.8132 10.6519 81.8968 9.74571C82.0373 9.62815 82.1775 9.51096 82.3171 9.39462C83.5451 8.37109 84.7292 7.41471 85.8418 6.7904C86.962 6.16182 87.9223 5.92017 88.7373 6.18724L88.7374 6.18729C89.5926 6.46715 90.2544 7.24895 90.8092 8.42783C91.3611 9.60034 91.7687 11.082 92.1641 12.6386C92.2225 12.8685 92.2807 13.1001 92.339 13.3323C92.6713 14.656 93.0088 16.0001 93.4293 17.173C93.9199 18.5414 94.5514 19.7627 95.4984 20.4564C96.4519 21.1567 97.8039 21.392 99.2506 21.445C100.506 21.4909 101.898 21.4 103.266 21.3106C103.485 21.2963 103.705 21.282 103.923 21.2683C105.512 21.1683 107.033 21.101 108.305 21.2644C109.584 21.4286 110.52 21.8148 111.042 22.5377C111.558 23.2539 111.631 24.2646 111.39 25.5387C111.15 26.8055 110.617 28.2404 110.033 29.7336C109.958 29.9259 109.882 30.1191 109.806 30.3129C109.296 31.6092 108.776 32.9315 108.43 34.1654C108.036 35.5747 107.845 36.949 108.211 38.0887L108.211 38.0888C108.568 39.1967 109.523 40.1684 110.66 41.0537C111.615 41.7981 112.752 42.5199 113.876 43.2331C114.098 43.3742 114.32 43.5149 114.54 43.6554C115.884 44.5154 117.154 45.368 118.089 46.2677C119.027 47.1708 119.564 48.0622 119.564 48.9936C119.564 49.925 119.027 50.8164 118.089 51.7195C117.154 52.6192 115.884 53.4718 114.54 54.3317C114.32 54.4723 114.098 54.613 113.876 54.7541C112.752 55.4673 111.615 56.189 110.66 56.9335C109.523 57.8188 108.568 58.7905 108.211 59.8984L108.211 59.8985C107.845 61.0382 108.036 62.4125 108.43 63.8218C108.776 65.0557 109.296 66.378 109.806 67.6742C109.882 67.868 109.958 68.0613 110.033 68.2536C110.617 69.7468 111.15 71.1817 111.39 72.4485C111.631 73.7228 111.558 74.7336 111.042 75.4499C110.519 76.1725 109.584 76.5586 108.305 76.7228C107.033 76.8862 105.512 76.8189 103.923 76.7189C103.705 76.7052 103.485 76.6909 103.265 76.6765C101.898 76.5872 100.506 76.4962 99.2506 76.5422C97.8038 76.5951 96.4518 76.8305 95.4982 77.5309C94.5535 78.2246 93.9232 79.4459 93.433 80.8143C93.0137 81.9848 92.6766 83.3258 92.3445 84.647C92.2855 84.8818 92.2266 85.1159 92.1675 85.3484C91.7716 86.905 91.3631 88.3867 90.8106 89.5592C90.2552 90.7378 89.593 91.5196 88.7381 91.7997C87.9229 92.0649 86.9623 91.8221 85.8419 91.193C84.7292 90.5683 83.545 89.6121 82.317 88.5891C82.1785 88.4737 82.0394 88.3575 81.8999 88.2409C80.8152 87.3344 79.7044 86.406 78.6201 85.68C77.4038 84.8658 76.1535 84.2581 74.9466 84.2581C73.7397 84.2581 72.4893 84.8664 71.2731 85.6814C70.1897 86.4073 69.08 87.3354 67.9964 88.2416C67.8558 88.3591 67.7158 88.4763 67.5762 88.5926C66.3482 89.6161 65.1641 90.5725 64.0515 91.1968C62.9313 91.8254 61.9709 92.067 61.156 91.7999L61.1558 91.7999C60.3007 91.52 59.6389 90.7382 59.0841 89.5593C58.5322 88.3868 58.1245 86.9051 57.7291 85.3485C57.6707 85.1186 57.6126 84.887 57.5543 84.6548C57.222 83.3311 56.8845 81.9871 56.464 80.8142C55.9733 79.4456 55.3418 78.2242 54.3946 77.5306M41.6819 59.8895L38.8516 75.4409C39.3739 76.1635 40.3093 76.5496 41.5881 76.714C42.8604 76.8775 44.381 76.8105 45.9709 76.7111C46.1865 76.6976 46.4033 76.6835 46.6208 76.6694C47.9908 76.5804 49.3858 76.4899 50.6431 76.537C52.0895 76.5912 53.4412 76.8283 54.3946 77.5306M41.6819 59.8895C42.0488 61.0292 41.8574 62.4035 41.463 63.8128C41.1176 65.0467 40.5973 66.369 40.0873 67.6653C40.011 67.8591 39.935 68.0523 39.8598 68.2446C39.2759 69.7378 38.7431 71.1728 38.5032 72.4395C38.2619 73.7136 38.3356 74.7242 38.8512 75.4405L41.6819 59.8895ZM54.3946 77.5306L54.1583 77.8533L54.3956 77.5313C54.3953 77.5311 54.395 77.5308 54.3946 77.5306Z" fill="#ACBFFF" stroke="black" stroke-width="0.8"/>
<path d="M77.7526 37.5173C78.0776 32.5189 79.6391 28.3094 81.7202 26.425C82.5445 25.7026 83.3898 25.2866 84.2667 25.3302C87.4673 25.5253 89.6616 31.2777 89.2652 38.2305C88.8653 45.1323 85.9005 50.6161 82.7511 50.4176C81.9254 50.3705 81.1227 49.9115 80.4561 49.1868C78.562 47.0568 77.4346 42.6178 77.7526 37.5173Z" fill="white" stroke="black" stroke-width="0.8" stroke-miterlimit="10"/>
<path d="M80.4512 49.1359C83.4697 48.9328 86.1726 44.1336 86.5297 38.1072C86.5157 37.9029 86.5529 37.6952 86.5423 37.542L81.7212 36.943L86.4448 34.6243C85.9827 30.1408 84.1582 26.7749 81.7185 26.4261C79.6378 28.3104 78.08 32.5707 77.7516 37.5179C77.4337 42.6183 78.5609 47.057 80.4512 49.1359Z" fill="black" stroke="black" stroke-width="0.8" stroke-miterlimit="10"/>
<path d="M56.7714 36.2204C57.0964 31.222 58.6579 27.0126 60.739 25.1282C61.5633 24.4058 62.4086 23.9897 63.2855 24.0334C66.4861 24.2285 68.6804 29.9809 68.284 36.9337C67.8841 43.8354 64.9193 49.3193 61.7699 49.1207C60.9442 49.0737 60.1415 48.6146 59.4749 47.8899C57.5808 45.7599 56.4534 41.321 56.7714 36.2204Z" fill="white" stroke="black" stroke-width="0.8" stroke-miterlimit="10"/>
<path d="M59.4736 47.8903C62.4922 47.6872 65.1951 42.888 65.5522 36.8616C65.5382 36.6573 65.5753 36.4496 65.5648 36.2964L60.7436 35.6974L65.4672 33.3787C65.0051 28.8952 63.1807 25.5293 60.741 25.1805C58.6603 27.0648 57.1025 31.3251 56.7741 36.2723C56.4526 41.3216 57.5798 45.7604 59.4736 47.8903Z" fill="black" stroke="black" stroke-width="0.8" stroke-miterlimit="10"/>
<path d="M73.8245 40.4021L73.6714 42.6698C73.6714 42.6698 73.4666 42.6836 73.4119 42.6359C72.1216 42.569 70.5893 42.7236 70.3907 44.3274C70.2095 46.1865 72.3098 46.8145 73.7082 46.2072" fill="#ACBFFF"/>
<path d="M73.8245 40.4021L73.6714 42.6698C73.6714 42.6698 73.4666 42.6836 73.4119 42.6359C72.1216 42.569 70.5893 42.7236 70.3907 44.3274C70.2095 46.1865 72.3098 46.8145 73.7082 46.2072" stroke="black" stroke-width="0.8" stroke-miterlimit="10"/>
<path d="M75.5143 58.3447C74.5848 59.7927 73.3678 60.7983 71.6677 60.7589C70.0188 60.7161 68.9212 59.7126 68.1541 58.2764C66.1983 54.5087 66.7159 47.8037 66.7159 47.8037L70.3245 47.9197L74.8617 48.0757L78.0059 48.1716C78.0094 48.2227 77.8362 54.6992 75.5143 58.3447Z" fill="black" stroke="black" stroke-width="0.8" stroke-miterlimit="10"/>
<path d="M75.5465 58.0852C74.6239 59.6354 73.3626 60.7467 71.6623 60.7074C70.0132 60.6646 68.912 59.6099 68.1378 58.0713C68.3421 55.7998 70.1282 54.0887 72.1462 54.2605C74.0072 54.3917 75.4576 56.0386 75.5465 58.0852Z" fill="#E30611" stroke="black" stroke-width="0.8" stroke-miterlimit="10"/>
<path d="M66.5202 45.718C66.9307 46.4597 67.8786 48.2937 67.7942 50.8129C67.6692 53.4887 66.4583 55.3145 65.9376 55.9651" fill="#ACBFFF"/>
<path d="M66.5202 45.718C66.9307 46.4597 67.8786 48.2937 67.7942 50.8129C67.6692 53.4887 66.4583 55.3145 65.9376 55.9651" stroke="black" stroke-width="0.8" stroke-miterlimit="10"/>
<path d="M78.4215 45.9377C78.0103 46.6835 77.1101 48.5396 77.2303 51.0449C77.361 53.7034 78.6152 55.5167 79.1243 56.2004" fill="#ACBFFF"/>
<path d="M78.4215 45.9377C78.0103 46.6835 77.1101 48.5396 77.2303 51.0449C77.361 53.7034 78.6152 55.5167 79.1243 56.2004" stroke="black" stroke-width="0.8" stroke-miterlimit="10"/>
<path d="M40.6973 58.2703C41.2021 58.6733 41.8217 60.6646 41.8217 60.6646C41.8217 60.6646 40.7281 61.115 39.2437 61.5658C35.2451 62.6496 31.3001 61.6784 28.1274 59.0555C25.0823 56.5248 23.0138 53.0521 21.1538 49.6139C20.2528 47.9351 19.3809 46.2968 18.6013 44.5313C18.2405 43.689 17.8798 42.8466 17.519 42.0042C17.1116 41.0119 16.7447 39.9906 16.3664 39.0386C16.3664 39.0386 16.3373 38.9982 16.3083 38.9578C15.9766 38.1558 15.6449 37.3538 15.3422 36.5922C14.8653 35.5884 15.5691 34.3523 16.5527 34.0165C17.6172 33.6228 18.7302 34.2334 19.1376 35.2258C19.3936 35.8374 19.6611 36.3797 19.8767 37.0202C20.3131 38.053 20.7381 39.155 21.134 40.2167C21.559 41.3187 22.013 42.4611 22.548 43.5457C23.2924 45.0919 24.1529 46.7995 24.9201 48.2071C26.5417 51.1434 28.3894 54.2238 31.0456 56.2989C33.4466 58.1896 34.7574 59.1657 37.7425 57.9503C39.9235 57.0648 39.2627 57.3242 39.2627 57.3242C39.2627 57.3242 39.8208 57.5706 40.6973 58.2703Z" fill="black"/>
<path d="M12.5332 40.0707C12.5332 40.0707 -1.60334 27.2995 2.65447 23.7804C2.65447 23.7804 4.23741 22.6498 5.73444 23.7319C5.73444 23.7319 5.265 19.5255 9.03445 20.6579C11.3838 21.3703 11.9748 25.9679 11.9748 25.9679C12.0494 25.5163 12.5919 25.0491 12.9234 24.7327C13.7596 23.8965 14.7093 23.2181 15.8105 22.7503C17.4095 22.0864 19.6968 22.0463 20.6215 23.7762C20.6594 23.8289 20.6973 23.8815 20.6824 23.9719C21.3501 25.5666 19.8291 27.4497 18.1222 27.0752C16.9063 26.8281 15.4644 26.8222 14.5227 27.7338C13.2345 29.0522 13.9332 31.0232 15.5427 31.7063C17.4997 32.5396 20.388 31.1141 20.4784 27.464C20.4772 26.9071 20.3326 26.373 20.5127 25.846C20.7604 25.1909 21.5978 24.9116 22.1874 25.2873C24.2133 26.5494 26.8302 32.4092 20.3745 35.4264" fill="white"/>
<path d="M12.5332 40.0707C12.5332 40.0707 -1.60334 27.2995 2.65447 23.7804C2.65447 23.7804 4.23741 22.6498 5.73444 23.7319C5.73444 23.7319 5.265 19.5255 9.03445 20.6579C11.3838 21.3703 11.9748 25.9679 11.9748 25.9679C12.0494 25.5163 12.5919 25.0491 12.9234 24.7327C13.7596 23.8965 14.7093 23.2181 15.8105 22.7503C17.4095 22.0864 19.6968 22.0463 20.6215 23.7762C20.6594 23.8289 20.6973 23.8815 20.6824 23.9719C21.3501 25.5666 19.8291 27.4497 18.1222 27.0752C16.9063 26.8281 15.4644 26.8222 14.5227 27.7338C13.2345 29.0522 13.9332 31.0232 15.5427 31.7063C17.4997 32.5396 20.388 31.1141 20.4784 27.464C20.4772 26.9071 20.3326 26.373 20.5127 25.846C20.7604 25.1909 21.5978 24.9116 22.1874 25.2873C24.2133 26.5494 26.8302 32.4092 20.3745 35.4264" stroke="black" stroke-width="0.8" stroke-miterlimit="10"/>
<path d="M5.69733 23.6841L8.21204 28.1803" stroke="black" stroke-width="0.8" stroke-miterlimit="10"/>
<path d="M18.379 36.7651L20.4075 35.4757C23.0923 33.8769 28.5644 36.2649 19.3099 41.2809C10.0175 46.2441 12.5941 39.9405 12.5941 39.9405C12.9486 39.767 13.4466 39.5707 13.8688 39.2692C14.2761 39.058 14.6456 38.7941 14.9243 38.5153" fill="white"/>
<path d="M18.379 36.7651L20.4075 35.4757C23.0923 33.8769 28.5644 36.2649 19.3099 41.2809C10.0175 46.2441 12.5941 39.9405 12.5941 39.9405C12.9486 39.767 13.4466 39.5707 13.8688 39.2692C14.2761 39.058 14.6456 38.7941 14.9243 38.5153" stroke="black" stroke-width="0.8" stroke-miterlimit="10"/>
<path d="M43.2983 15.0836L46.1227 16.7607C46.2429 16.6409 48.8869 14.0055 48.8869 14.0055C54.5957 8.85451 67.5156 -0.429282 82.9594 4.96131C90.2906 7.47692 96.2999 12.9873 100.446 17.8388C101.227 18.7373 101.949 19.6357 102.61 20.4742C103.811 21.9716 104.773 23.3492 105.494 24.4273L108.258 22.9299C104.653 17.6591 96.2999 6.93786 83.7405 2.56549C64.3307 -4.1428 49.1273 9.21388 44.4401 13.9456C43.9594 14.4248 43.5988 14.8441 43.2983 15.0836Z" fill="#E30611" stroke="black" stroke-width="0.8" stroke-miterlimit="10"/>
<path d="M45.7017 40.7787C47.2041 40.6589 48.6463 40.1797 49.9082 39.4011C49.9683 39.4011 49.9683 39.3412 50.0284 39.3412V15.3231V14.5445C49.9683 14.5445 49.9683 14.4846 49.9082 14.4846C49.127 14.1252 48.3458 13.8856 47.5045 13.7659C46.9036 13.706 46.3027 13.6461 45.6417 13.706C39.6324 14.1252 34.7649 20.534 34.825 27.9611C34.825 35.5079 39.6925 41.198 45.7017 40.7787Z" fill="#E30611" stroke="black" stroke-width="0.8" stroke-miterlimit="10"/>
<path d="M104.472 44.4922C103.811 44.5521 103.21 44.5521 102.609 44.4323C102.008 44.3724 101.408 44.1927 100.807 44.013C100.686 33.0522 100.506 22.81 100.446 18.6174C101.648 17.9585 102.97 17.5392 104.292 17.4793C110.361 17.0002 115.349 22.6903 115.409 30.1173C115.409 37.5443 110.542 44.013 104.472 44.4922Z" fill="#E30611" stroke="black" stroke-width="0.8" stroke-miterlimit="10"/>
<path d="M100.398 62.3496L93.6671 58.3427L89.9957 63.8286L88.5035 66.1206L87.433 67.7396L79.0196 80.3305L78.6907 84.9419L78.4616 88.1533C79.4499 87.6871 80.444 87.1386 81.4322 86.6724L85.5681 84.5725L94.1201 71.7847L95.1906 70.1657L96.6827 67.8737L100.398 62.3496Z" fill="#5663F1" stroke="black" stroke-width="0.8" stroke-miterlimit="10"/>
<path d="M79.0121 80.3329L81.286 79.2983L81.2249 81.9005L83.7376 80.428L83.4554 83.221L85.6024 82.2185L85.559 84.5738L78.4985 88.1155L79.0121 80.3329Z" fill="white" stroke="black" stroke-width="0.8" stroke-miterlimit="10"/>
<path d="M78.7254 84.9057C78.8522 84.8735 79.7134 84.4396 80.5542 84.8731C81.4718 85.3948 81.4721 86.5534 81.4663 86.6357C80.4783 87.1018 79.4844 87.6502 78.4964 88.1163L78.7254 84.9057Z" fill="black" stroke="black" stroke-width="0.8" stroke-miterlimit="10"/>
<path d="M81.2522 79.3368L94.8638 59.0911" stroke="black" stroke-width="0.8" stroke-miterlimit="10"/>
<path d="M83.6971 80.5465L96.9722 60.3594" stroke="black" stroke-width="0.8" stroke-miterlimit="10"/>
<path d="M85.6044 82.2968L99.1685 61.5513" stroke="black" stroke-width="0.8" stroke-miterlimit="10"/>
<path d="M94.3723 57.3549C94.3723 57.3549 96.6477 53.3837 100.196 55.4202C103.783 57.5009 101.101 61.3599 101.101 61.3599L94.3723 57.3549Z" fill="#FF1F33" stroke="black" stroke-width="0.8" stroke-miterlimit="10"/>
<path d="M98.2729 56.2336C97.426 55.8824 96.2785 56.2543 95.6297 57.2004C95.4911 57.3972 95.255 57.2145 95.3936 57.0177C96.1367 55.9129 97.538 55.4767 98.4617 55.9163C98.6269 55.9283 98.4765 56.2898 98.2729 56.2336Z" fill="white"/>
<path d="M98.7117 56.4712C98.5522 56.3768 98.7854 56.0208 98.9391 56.1977C99.143 56.2539 98.9097 56.61 98.7117 56.4712Z" fill="white"/>
<path d="M93.6795 58.3406L100.445 62.3889L101.099 61.3612L94.372 57.357L93.6795 58.3406Z" fill="black" stroke="black" stroke-width="0.8" stroke-miterlimit="10"/>
<path d="M92.9942 73.773C93.2471 73.9133 93.5001 74.0536 93.7531 74.1939C95.5592 75.1131 97.3652 76.0323 99.2414 76.8254C100.766 77.5061 102.277 78.1378 103.774 78.7204C104.076 78.8467 104.427 78.9591 104.729 79.0854C108.137 80.3981 112.529 81.8025 116.075 80.2633C121.552 77.8565 118.477 70.665 116.437 66.8937C114.171 62.7089 112.274 61.8511 108.871 58.5203L108.162 60.399L108.163 62.5264C109.83 64.4405 111.505 66.7573 112.722 68.9584C113.306 70.0659 113.855 71.2365 114.291 72.386C114.608 73.3041 115.031 74.4046 114.94 75.3855C114.954 75.4346 114.842 75.7849 114.856 75.8339C114.821 75.897 114.786 75.96 114.786 75.96C114.751 76.023 114.632 76.1631 114.582 76.1771L114.533 76.1911C114.266 76.3731 113.564 76.5198 113.255 76.5546C112.201 76.5889 111.106 76.476 110.017 76.202C107.691 75.6959 105.323 74.6713 103.095 73.7658C102.189 73.3868 101.346 73.0429 100.488 72.6499C99.5046 72.1868 98.5208 71.7236 97.537 71.2605C96.7921 70.8886 96.0472 70.5167 95.3515 70.1308C94.8533 70.8032 94.4042 71.4616 94.0184 72.155C93.6536 72.7364 93.3239 73.2547 92.9942 73.773Z" fill="black"/>
<path d="M100.947 70.5959C100.57 70.4944 100.541 69.668 100.494 69.2639C100.298 66.8854 98.2622 64.8904 96.8167 63.9796C96.2366 63.6575 94.4042 62.3698 93.2639 62.7633C90.7902 63.6052 93.5182 67.2814 94.3385 68.4394C93.6667 68.2825 93.5195 68.2547 93.3722 68.227C93.0778 68.1716 92.7648 68.0518 92.406 68.0147C91.8629 67.8212 91.274 67.7103 90.7309 67.5168C89.4148 67.0561 88.2088 66.4946 86.8926 66.0339C86.0366 65.7207 84.6561 65.2783 83.8657 65.9201C83.2959 66.3602 83.389 67.1684 83.5094 67.8297C83.5094 67.8297 83.5094 67.8297 83.5279 67.894C83.5279 67.894 80.8241 68.6621 82.7873 71.3732C82.4839 71.529 82.162 71.6204 82.0428 71.9325C81.5106 72.9878 82.8006 74.5688 83.4272 75.2949C85.0028 77.1425 87.2591 78.9357 89.4409 79.9851C91.2912 80.8505 93.3155 81.11 95.3296 80.6073C95.7159 80.4976 96.1021 80.3879 96.4884 80.2781C96.8103 80.1867 97.3801 79.7466 97.6745 79.8021C97.6745 79.8021 97.8039 80.2522 97.8224 80.3165C97.9977 80.684 98.2374 81.0332 98.5229 81.2998C99.1953 81.9434 100.226 82.1374 101.053 81.6242C102.294 80.8543 102.633 79.3672 102.962 78.0912C103.347 76.5215 103.897 75.0437 104.364 73.52C105.83 68.9305 102.243 70.0189 101.765 70.2938C100.993 70.5133 101.158 70.6053 100.947 70.5959Z" fill="white" stroke="black" stroke-width="0.8" stroke-miterlimit="10"/>
<path d="M91.6755 71.7798C91.6755 71.7798 86.3099 70.3134 83.4914 67.7756" stroke="black" stroke-width="0.8" stroke-miterlimit="10"/>
<path d="M82.6817 71.2724C82.6817 71.2724 86.6414 74.3896 89.7795 75.3758" stroke="black" stroke-width="0.8" stroke-miterlimit="10"/>
<path d="M100.852 70.4788L100.247 72.2497" stroke="black" stroke-width="0.8" stroke-miterlimit="10"/>
<path d="M98.1279 77.9937L97.6979 79.6453" stroke="black" stroke-width="0.8" stroke-miterlimit="10"/>
</svg>
