<svg width="118" height="122" viewBox="0 0 118 122" fill="none" xmlns="http://www.w3.org/2000/svg">
<path d="M6.92036 30.2238C7.83853 30.0398 9.03215 30.6376 9.16988 31.6493C10.0421 38.225 11.1439 44.7088 13.2557 51.0086C14.0821 53.4458 15.2298 56.0669 17.3416 57.6763C19.4993 59.3777 22.1161 59.7456 24.7788 59.6996C28.0842 59.6076 31.2978 58.9639 34.6032 58.8719C35.6132 58.8259 36.4395 59.8835 36.3936 60.8492C36.3477 61.8609 35.4296 62.5506 34.4196 62.5506C28.3596 62.7805 21.8406 64.8498 16.2398 61.447C13.5312 59.7916 11.6948 57.1245 10.5012 54.2735C9.2617 51.2845 8.38943 48.1116 7.60899 44.9847C6.599 40.8461 6.00219 36.6156 5.45129 32.431C5.35947 31.4193 5.86447 30.4537 6.92036 30.2238Z" fill="black"/>
<path d="M7.14966 30.0861C7.14966 30.0861 8.25146 20.4754 11.6028 21.0732C14.2196 21.579 11.4192 30.7758 11.4192 30.7758L7.14966 30.0861Z" fill="white" stroke="black" stroke-width="0.8" stroke-miterlimit="10"/>
<path d="M3.79829 30.2239C3.79829 30.2239 -0.379384 21.6709 2.97194 21.0731C6.32326 20.4753 7.42506 29.7641 7.42506 29.7641L3.79829 30.2239Z" fill="white" stroke="black" stroke-width="0.8" stroke-miterlimit="10"/>
<path d="M12.475 31.3274C12.475 31.3274 15.5509 35.374 11.8323 37.9491C11.8323 37.9491 13.7605 39.4206 11.465 40.5242C9.16961 41.6278 4.07377 41.9957 4.99194 39.2367C4.99194 39.2367 -0.195725 37.1674 2.00788 31.6953L12.475 31.3274Z" fill="white" stroke="black" stroke-width="0.8" stroke-miterlimit="10"/>
<path d="M11.8782 37.9033C11.8782 37.9033 10.6846 38.6391 9.62866 38.823" stroke="black" stroke-width="0.8" stroke-miterlimit="10"/>
<path d="M7.24145 39.1448C7.24145 39.1448 6.32328 39.3743 5.03784 39.2366" stroke="black" stroke-width="0.8" stroke-miterlimit="10"/>
<path d="M1.41114 29.3042C1.96204 29.0283 2.74249 29.1203 3.29339 29.4422C4.11974 29.902 4.57883 30.8677 4.85428 31.7414C5.08382 32.4771 5.17564 33.4428 4.4411 33.9946C3.38521 34.7304 2.32931 33.9486 1.64068 33.1209C0.997965 32.3392 0.447063 31.2356 0.676605 30.2239C0.814331 29.7641 1.08978 29.4422 1.41114 29.3042Z" fill="white" stroke="black" stroke-width="0.8" stroke-miterlimit="10"/>
<path d="M12.5211 31.3736C10.7307 29.4882 6.50708 29.6722 4.9921 29.7641C4.11984 29.8101 3.20167 30.04 2.92622 30.8678C1.91623 33.6268 8.11388 34.4545 8.11388 34.4545C8.11388 34.4545 7.56298 36.4318 9.3075 36.9377" fill="white"/>
<path d="M12.5211 31.3736C10.7307 29.4882 6.50708 29.6722 4.9921 29.7641C4.11984 29.8101 3.20167 30.04 2.92622 30.8678C1.91623 33.6268 8.11388 34.4545 8.11388 34.4545C8.11388 34.4545 7.56298 36.4318 9.3075 36.9377" stroke="black" stroke-width="0.8" stroke-miterlimit="10"/>
<path d="M67.0673 101.555C67.0673 101.555 65.2549 97.7991 63.5676 104.059C61.7552 110.757 65.6299 107.189 65.6299 107.189L65.9424 108.316C65.9424 108.316 58.5054 114.2 63.5051 118.269C68.5047 122.338 71.3795 114.763 72.6294 110.006C73.8793 105.248 76.1916 100.303 67.0673 101.555Z" fill="#E30611" stroke="black" stroke-width="0.8" stroke-miterlimit="10"/>
<path d="M67.0671 101.555C67.0671 101.555 67.3796 102.745 66.8171 104.372Z" fill="black"/>
<path d="M67.0671 101.555C67.0671 101.555 67.3796 102.745 66.8171 104.372" stroke="black" stroke-width="0.8" stroke-miterlimit="10"/>
<path d="M66.1923 106.125C66.1923 106.125 66.1298 106.5 65.5674 107.126Z" fill="black"/>
<path d="M66.1923 106.125C66.1923 106.125 66.1298 106.5 65.5674 107.126" stroke="black" stroke-width="0.8" stroke-miterlimit="10"/>
<path d="M65.9421 108.315L68.5045 106.625" stroke="black" stroke-width="0.8" stroke-miterlimit="10"/>
<path d="M65.9421 108.315L68.442 108.754" stroke="black" stroke-width="0.8" stroke-miterlimit="10"/>
<path d="M62.8799 114.45C62.9424 114.701 63.0049 114.951 63.1299 115.139C63.1924 115.389 63.3173 115.577 63.4423 115.765C63.6923 116.203 63.9423 116.579 64.3173 116.829C64.6297 117.142 65.0672 117.392 65.5047 117.58C65.9422 117.768 66.4421 117.893 66.8796 118.018V118.081C66.6296 118.081 66.3796 118.018 66.1297 118.018C65.8797 117.956 65.6297 117.956 65.3797 117.831C64.8797 117.705 64.4423 117.392 64.0673 117.079C63.3173 116.391 62.9424 115.452 62.8799 114.45Z" fill="white"/>
<path d="M63.5052 106.062C63.3802 106.062 63.3177 106.062 63.1927 106.062C59.443 105.937 55.6933 105.186 52.0061 104.121C51.6311 103.996 51.2561 103.871 50.8811 103.746C49.6937 103.37 48.5688 102.995 47.4439 102.619C47.0689 102.494 46.6939 102.369 46.319 102.243C46.194 102.181 46.069 102.181 45.944 102.118C41.5693 100.428 37.8821 97.3608 37.5071 92.3529C37.3196 89.223 38.4445 86.5939 40.3194 84.3403C41.4443 85.5297 42.5692 86.5939 43.5692 87.5954C42.8817 88.5344 42.3818 89.5986 42.1943 90.7254C41.3818 95.0446 45.3815 97.0478 48.8188 98.2372C49.1938 98.3624 49.5687 98.4876 49.8812 98.6127C49.9437 98.6127 50.0687 98.6753 50.1312 98.6753C51.3811 99.0509 52.631 99.4891 53.9434 99.8021C54.2559 99.8647 54.5684 99.9899 54.8808 100.053C57.5681 100.804 60.3804 101.304 63.1302 101.43C63.5677 101.43 63.9427 101.555 64.2552 101.743C66.255 102.807 66.005 106.125 63.5052 106.062Z" fill="black" stroke="black" stroke-width="0.8" stroke-miterlimit="10"/>
<path d="M67.0738 87.6109C66.6363 88.0491 66.2614 88.5499 65.8239 89.0507C64.7615 90.3027 57.1871 98.1131 56.1246 99.4903C53.3123 103.184 50.4376 107.253 48.4377 110.758C48.3127 110.946 48.1877 111.071 48.0627 111.259C46.3754 113.074 42.8756 111.071 44.2505 108.692C44.3755 108.442 44.5005 108.254 44.6255 108.004C46.6253 104.623 48.8127 101.118 51.1875 97.8627C52.1249 96.5482 53.1249 95.2336 54.1248 93.9817C54.9997 92.8549 62.4492 85.2322 63.4491 84.168C63.5116 84.1054 63.5741 84.0428 63.6366 83.9802L63.5741 84.2306C63.699 84.4184 66.3864 86.9849 67.0738 87.6109Z" fill="black" stroke="black" stroke-width="0.8" stroke-miterlimit="10"/>
<path d="M46.4227 115.192C45.3603 117.759 44.3604 119.261 43.3605 120.075C40.6107 122.266 37.9859 118.76 35.0486 115.943C32.0488 113.064 28.0491 108.369 29.1115 105.051C29.424 103.925 30.3614 102.986 32.0488 102.36C38.8608 99.7305 41.2981 111.436 41.2981 111.436L41.6731 110.873C41.5481 110.748 41.2356 110.184 41.1731 109.621C41.1106 108.995 41.5481 108.306 42.0481 108.119C43.173 107.618 44.9853 109.433 45.9228 110.435C46.7977 111.311 48.8601 113.44 48.2351 114.566C48.1726 114.691 47.7976 115.13 46.4227 115.192Z" fill="#E30611" stroke="black" stroke-width="0.8" stroke-miterlimit="10"/>
<path d="M46.4227 115.192C46.4227 115.192 45.4852 114.754 43.9229 113.189" stroke="black" stroke-width="0.8" stroke-miterlimit="10"/>
<path d="M42.4855 111.624C42.4855 111.624 42.0481 111.374 41.6106 110.685" stroke="black" stroke-width="0.8" stroke-miterlimit="10"/>
<path d="M36.6732 103.862C36.4232 103.737 36.2357 103.611 35.9857 103.549C35.7358 103.424 35.5483 103.361 35.2983 103.298C34.8608 103.173 34.3609 103.048 33.9234 103.111C33.4859 103.111 32.986 103.173 32.5485 103.361C32.111 103.486 31.6736 103.799 31.2361 103.987C31.4236 103.862 31.6111 103.674 31.861 103.486C32.111 103.361 32.2985 103.173 32.5485 103.111C32.986 102.86 33.4859 102.798 34.0484 102.735C34.9233 102.735 35.9232 103.173 36.6732 103.862Z" fill="white"/>
<path d="M43.3604 120.012C43.298 120.075 43.2354 120.2 43.1729 120.263C42.6105 120.826 41.4856 120.763 40.7356 120.576C38.4858 119.887 36.7359 117.508 35.111 115.881C32.1113 113.001 28.2366 108.118 29.174 104.989C30.0489 102.172 34.9861 107.555 35.986 108.682C38.3608 111.311 40.7356 114.128 42.6105 117.133C43.048 117.946 43.9229 119.073 43.3604 120.012Z" fill="white" stroke="black" stroke-width="0.8" stroke-miterlimit="10"/>
<path d="M29.9238 109.183L33.986 106.616" stroke="black" stroke-width="0.8" stroke-miterlimit="10"/>
<path d="M31.8611 112.375L36.6107 109.558" stroke="black" stroke-width="0.8" stroke-miterlimit="10"/>
<path d="M34.6111 115.631L39.1107 112.563" stroke="black" stroke-width="0.8" stroke-miterlimit="10"/>
<path d="M37.7981 118.572L41.7353 116.006" stroke="black" stroke-width="0.8" stroke-miterlimit="10"/>
<path d="M66.2861 23.43L93.1822 70.0153C97.647 77.7486 92.066 87.4153 83.1363 87.4153H29.3442C20.4145 87.4153 14.8334 77.7486 19.2983 70.0153L46.1943 23.43C50.6592 15.6966 61.8213 15.6966 66.2861 23.43Z" fill="#D9D9D9" stroke="black" stroke-width="0.8"/>
<path d="M67.8489 17.0981C67.8489 17.0981 78.4755 20.3153 76.2377 29.0954L56.0441 28.9103L36.1351 27.0093C35.0387 20.3247 43.6963 16.9921 43.6963 16.9921C43.823 16.9376 43.9683 13.3572 44.0477 13.0525C44.2778 11.2096 44.8668 9.57315 46.0063 8.03066C48.3578 4.76426 52.4014 2.15322 56.6066 2.08853C62.3621 1.92842 66.9737 6.59001 67.9673 11.8455C68.153 12.9082 68.2155 13.9637 68.1549 15.0121C68.0861 15.1319 67.7293 17.0293 67.8489 17.0981Z" fill="#5663F1" stroke="black" stroke-width="0.8" stroke-miterlimit="10"/>
<path d="M35.1419 34.5635C40.3134 33.8127 56.2199 32.2635 78.1953 36.8828C79.4161 37.1394 80.578 36.279 80.5842 35.1039C80.5797 34.1138 80.7599 33.1344 80.6322 32.1371C80.4492 29.9611 79.7038 26.8245 77.0845 26.1771C72.94 25.1936 67.4739 24.6281 62.3808 24.0225C54.1615 22.9875 43.8709 22.5125 35.2091 24.8544C34.7058 25.0107 34.2534 25.3556 34.0401 25.8381C33.552 26.7996 33.0461 28.0693 32.8302 29.6653C32.6322 30.953 32.6876 32.1317 32.8768 33.1325C33.0732 34.0101 34.0228 34.684 35.1419 34.5635Z" fill="#5663F1" stroke="black" stroke-width="0.8" stroke-miterlimit="10"/>
<path d="M43.1365 23.4595L43.0994 33.7301" stroke="black" stroke-width="0.8" stroke-miterlimit="10"/>
<path d="M52.666 23.2085L52.1754 33.8242" stroke="black" stroke-width="0.8" stroke-miterlimit="10"/>
<path d="M62.1964 24.0095L61.408 34.4222" stroke="black" stroke-width="0.8" stroke-miterlimit="10"/>
<path d="M71.7087 25.1195L70.6268 35.2675" stroke="black" stroke-width="0.8" stroke-miterlimit="10"/>
<path d="M59.8752 68.9407C57.0288 71.01 53.3102 71.4698 49.9589 70.5501C48.7653 70.2282 47.4799 69.6764 46.3322 68.8947C44.5417 67.6991 43.2104 65.9977 43.2563 63.7904C43.3481 61.7671 44.8631 61.2153 46.6535 61.2153C48.2144 61.2153 50.0048 61.6752 51.1066 61.9511C52.0707 62.181 52.9889 62.3649 53.9989 62.3189C55.5598 62.227 57.0288 61.5372 58.5438 61.3533C58.8652 61.3073 59.1865 61.3073 59.5538 61.3533C60.6097 61.3993 61.8033 61.6752 62.4919 62.3649C64.5119 64.3423 61.4361 67.7451 59.8752 68.9407Z" fill="black" stroke="black" stroke-width="0.8" stroke-miterlimit="10"/>
<path d="M59.875 68.9405C57.0287 71.0098 53.3101 71.4696 49.9588 70.5499C48.7652 70.228 47.4797 69.6762 46.332 68.8945C47.7093 67.0091 50.2343 65.7676 53.0806 65.7676C56.0187 65.7216 58.4978 67.0091 59.875 68.9405Z" fill="#E30611" stroke="black" stroke-width="0.8" stroke-miterlimit="10"/>
<path d="M87.1056 80.7295C86.6628 78.0874 84.247 76.6324 81.6827 77.5313C79.1121 78.3925 77.3796 81.2467 77.7847 83.8952C78.2274 86.5373 80.6432 87.9922 83.2075 87.0933C85.7781 86.2322 87.5483 83.3716 87.1056 80.7295ZM82.5956 85.062C81.0558 85.5938 79.5899 84.7158 79.3243 83.1306C79.0586 81.5453 80.0944 79.8567 81.6342 79.3249C83.1741 78.7931 84.6399 79.6711 84.9055 81.2563C85.1712 82.8416 84.1418 84.5679 82.5956 85.062Z" fill="#F96F6F" stroke="black" stroke-width="0.8" stroke-miterlimit="10"/>
<path d="M79.9183 75.3022C79.9183 75.3022 82.0023 90.9773 69.6819 92.2046C58.0089 93.3612 57.1381 77.52 57.1381 77.52L79.9183 75.3022Z" fill="#F96F6F" stroke="black" stroke-width="0.8" stroke-miterlimit="10"/>
<path d="M79.9002 75.2913C79.7245 73.4625 74.4874 72.4752 68.203 73.0861C61.9185 73.697 56.9665 75.6747 57.1422 77.5034C57.318 79.3322 62.555 80.3195 68.8395 79.7086C75.1239 79.0978 80.076 77.1201 79.9002 75.2913Z" fill="#F96F6F" stroke="black" stroke-width="0.8" stroke-miterlimit="10"/>
<path d="M57.8927 78.5511C57.4587 78.2754 57.2133 77.9678 57.1123 77.597C58.6629 75.7452 61.0504 74.9544 63.7914 75.5776C65.8911 76.0763 67.4192 76.8655 69.4859 75.7797C71.584 74.65 73.2359 73.6343 75.7757 74.2138C77.0645 74.5005 78.6485 74.6984 79.9188 75.3372C79.9898 77.1479 75.0831 79.1009 68.8614 79.6857C64.1291 80.1355 59.9868 79.7101 58.1442 78.6638" fill="black"/>
<path d="M57.8927 78.5511C57.4587 78.2754 57.2133 77.9678 57.1123 77.597C58.6629 75.7452 61.0504 74.9544 63.7914 75.5776C65.8911 76.0763 67.4192 76.8655 69.4859 75.7797C71.584 74.65 73.2359 73.6343 75.7757 74.2138C77.0645 74.5005 78.6485 74.6984 79.9188 75.3372C79.9898 77.1479 75.0831 79.1009 68.8614 79.6857C64.1291 80.1355 59.9868 79.7101 58.1442 78.6638" stroke="black" stroke-width="0.8" stroke-miterlimit="10"/>
<path d="M73.2738 75.0255C74.1094 74.6905 75.0334 74.6509 75.9135 74.8127C76.7936 74.9745 77.63 75.3377 78.4036 75.7891C78.5357 75.8832 78.4165 76.0973 78.2844 76.0032C77.5171 75.5896 76.7248 75.2577 75.8824 75.0896C75.0399 74.9214 74.1601 74.9923 73.3181 75.2896C73.1736 75.3528 73.1293 75.0887 73.2738 75.0255Z" fill="white"/>
<path d="M57.8931 78.5479C58.1879 77.9937 58.6085 77.496 59.1298 77.1364C59.7829 76.6382 60.5494 76.3537 61.3789 76.2136C61.8691 76.1309 62.3342 76.13 62.8434 76.1604C63.0005 76.1727 63.0008 76.4054 62.8436 76.3931C61.2722 76.2705 59.6447 76.7391 58.609 77.9615C58.4144 78.1883 58.2575 78.4087 58.1446 78.6606L57.8931 78.5479Z" fill="white"/>
<path d="M72.2937 75.1893C72.4006 75.1324 72.5138 75.1133 72.6206 75.0564C72.6961 75.0437 72.7402 75.0751 72.7906 75.1443C72.8032 75.2199 72.7718 75.2641 72.7027 75.3147C72.6273 75.3274 72.5204 75.3843 72.4449 75.397L72.4072 75.4034C72.3695 75.4098 72.3317 75.4162 72.3317 75.4162C72.294 75.4225 72.2877 75.3847 72.2436 75.3533C72.2373 75.3155 72.2309 75.2777 72.2309 75.2777C72.2623 75.2335 72.2937 75.1893 72.2937 75.1893Z" fill="white"/>
<path d="M63.5532 76.2355C63.7042 76.21 63.8301 76.2665 63.9623 76.3608C64.0064 76.3923 64.0568 76.4615 63.994 76.5499C63.9626 76.5941 63.8935 76.6447 63.8053 76.5818C63.7676 76.5882 63.7612 76.5503 63.7235 76.5567C63.6794 76.5253 63.6417 76.5316 63.6039 76.538C63.5662 76.5444 63.5662 76.5444 63.5284 76.5508C63.453 76.5635 63.4025 76.4942 63.3899 76.4186C63.4463 76.2924 63.4777 76.2482 63.5532 76.2355Z" fill="white"/>
<path d="M77.4691 76.4538C78.0233 77.2143 78.5148 78.063 78.893 78.9308C79.1578 79.5849 79.6304 80.5532 79.0774 81.1902C78.7507 81.556 78.1783 81.6139 77.7817 81.3315C77.3348 80.9799 77.265 80.3317 77.2142 79.7968C77.1126 78.7269 77.2437 77.6566 77.4503 76.5734C77.4503 76.5734 77.444 76.5357 77.4691 76.4538Z" fill="black" stroke="black" stroke-width="0.8" stroke-miterlimit="10"/>
<path d="M77.4473 79.3299C77.4724 79.248 77.5352 79.1598 77.617 79.1848C77.6989 79.2098 77.787 79.2725 77.7619 79.3544C77.7307 79.6314 77.7309 79.8643 77.813 80.1222C77.8887 80.3424 78.0085 80.5939 78.2225 80.7131C78.3043 80.7381 78.3233 80.8513 78.2604 80.9396C78.1976 81.0279 78.1221 81.0406 78.034 80.9778C77.7759 80.8273 77.6058 80.5066 77.5174 80.211C77.4354 79.9531 77.3784 79.6133 77.4473 79.3299Z" fill="white"/>
<path d="M32.6738 48.5496C33.2096 45.2692 36.1173 42.967 39.3761 43.1109C39.6802 43.1104 39.9326 43.1387 40.2253 43.1784C43.7838 43.7985 46.1739 47.1716 45.5988 50.745C44.9835 54.3069 41.6171 56.696 38.0473 56.1162C37.7546 56.0764 37.4733 55.9965 37.192 55.9166C34.1202 54.9568 32.1267 51.8702 32.6738 48.5496Z" fill="white" stroke="black" stroke-width="0.8" stroke-miterlimit="10"/>
<path d="M37.1921 55.9167C38.1357 54.8813 38.9632 53.3349 39.5032 51.5765L35.4862 49.0446L40.1299 47.9744C40.2165 46.1306 39.9248 44.3966 39.3762 43.111C36.1576 42.9785 33.2499 45.2807 32.6739 48.5496C32.1268 51.8702 34.1203 54.9569 37.1921 55.9167Z" fill="black" stroke="black" stroke-width="0.8" stroke-miterlimit="10"/>
<path d="M60.4916 48.095C60.9754 44.8061 63.846 42.4572 67.1063 42.5487C67.4103 42.5433 67.6632 42.5675 67.9564 42.6025C71.5238 43.1654 73.9668 46.5 73.4484 50.0826C72.8896 53.6543 69.5618 56.0975 65.9836 55.5751C65.6904 55.5401 65.4079 55.4646 65.1253 55.3892C62.0391 54.4789 59.9972 51.4244 60.4916 48.095Z" fill="white" stroke="black" stroke-width="0.8" stroke-miterlimit="10"/>
<path d="M65.1253 55.3894C66.0523 54.3388 66.8551 52.7792 67.3672 51.0122L63.3111 48.5449L67.9367 47.4C67.9941 45.5549 67.6751 43.8256 67.1063 42.5488C63.8863 42.4681 61.0157 44.817 60.4916 48.0952C59.9971 51.4245 62.039 54.479 65.1253 55.3894Z" fill="black" stroke="black" stroke-width="0.8" stroke-miterlimit="10"/>
<circle cx="36.9304" cy="49.471" r="8.35465" stroke="black" stroke-width="0.8"/>
<circle cx="64.8408" cy="48.7783" r="8.35465" stroke="black" stroke-width="0.8"/>
<rect x="45.7917" y="48.7783" width="10.2859" height="0.692716" fill="black"/>
<path d="M115.552 76.9445C113.207 80.4811 108.235 81.4814 104.334 82.1346C102.837 82.389 101.331 82.5519 99.8197 82.6692C99.1349 82.7432 98.3997 82.7765 97.7149 82.8506C97.6693 82.8555 97.6693 82.8555 97.6236 82.8605C96.8427 82.8987 96.0161 82.9419 95.2401 83.0258C94.7836 83.0752 94.3678 83.0739 93.9113 83.1233C93.5462 83.1628 93.176 83.1566 92.8109 83.1961C90.468 83.3108 88.1301 83.4713 85.807 83.7688C84.8027 83.8774 83.79 83.4783 83.5351 82.3962C83.5203 82.259 83.5056 82.1219 83.4908 81.9848C83.4936 81.1521 84.0393 80.2145 84.9067 80.1207C85.2262 80.0862 85.5457 80.0516 85.8653 80.017C86.0022 80.0022 86.1392 79.9874 86.2761 79.9726C89.152 79.6615 92.0475 79.5332 94.8925 79.3642C95.5821 79.3358 96.2212 79.2667 96.9108 79.2383C97.1847 79.2087 97.413 79.184 97.6918 79.2001C98.4727 79.1619 99.2944 79.073 100.07 78.989C102.449 78.778 104.808 78.3841 107.102 77.8123C108.675 77.4109 110.06 76.9836 111.341 76.0127C111.814 75.6841 112.186 75.274 112.415 74.833C112.339 74.98 112.539 74.2648 112.513 74.4525C112.529 74.1733 112.514 74.0362 112.459 73.9497C111.936 72.5266 110.353 71.5419 109.123 70.8426C105.925 69.0152 102.186 68.1712 98.5887 67.3581C94.2773 66.3447 95.3265 66.455 91.0544 65.7853C91.0544 65.7853 90.2629 64.3581 89.8902 63.7402C89.2907 62.7464 88.7067 61.653 88.7067 61.653C90.9112 61.9694 96.7881 63.0675 98.9665 63.5717C102.994 64.5232 107.159 65.46 110.797 67.5171C114.209 69.1826 118.13 73.0125 115.552 76.9445Z" fill="black"/>
<path d="M94.5856 76.4834C94.5856 76.4834 96.5089 74.6106 97.1521 76.298C97.6598 77.5839 97.842 80.5695 97.8931 81.9049C97.9112 82.504 97.6098 83.1377 97.0865 83.4255C96.736 83.6022 95.712 83.5282 95.221 83.2577C94.3816 84.0421 93.337 85.4961 90.9923 86.0275C89.2363 86.4488 87.2992 86.4736 85.5412 86.0167C84.6393 85.7907 83.8092 85.372 83.2235 84.6494C82.9005 84.222 82.6182 83.744 82.5592 83.1955C82.5298 82.9213 82.5509 82.6878 82.6584 82.3988C82.6991 82.3481 82.919 81.8157 82.919 81.8157C82.919 81.8157 81.0805 79.7492 83.4688 78.3347C83.4688 78.3347 80.8339 74.8748 86.533 75.0437C86.8575 75.0548 87.015 73.5119 88.2197 72.6879C88.3925 72.5767 89.6885 71.7428 91.148 72.0009C92.9468 72.4071 94.4314 74.1883 94.5856 76.4834Z" fill="white" stroke="black" stroke-width="0.8" stroke-miterlimit="10"/>
<path d="M83.5762 78.4604L85.7712 78.6855" stroke="black" stroke-width="0.8" stroke-miterlimit="10"/>
<path d="M82.9771 81.9014L85.2479 81.9789" stroke="black" stroke-width="0.8" stroke-miterlimit="10"/>
<path d="M86.5881 75.1289L89.7516 75.3415" stroke="black" stroke-width="0.8" stroke-miterlimit="10"/>
<path d="M94.584 76.4844L94.8252 78.7246" stroke="black" stroke-width="0.8" stroke-miterlimit="10"/>
<path d="M95.0491 81.6606L95.2719 83.3016" stroke="black" stroke-width="0.8" stroke-miterlimit="10"/>
<path d="M52.6831 51.1653L52.3119 54.0781C52.3119 54.0781 47.6713 53.2105 47.362 55.6275C47.0526 58.0446 52.4975 57.6727 52.4975 57.6727" fill="#D9D9D9"/>
<path d="M52.6831 51.1653L52.3119 54.0781C52.3119 54.0781 47.6713 53.2105 47.362 55.6275C47.0526 58.0446 52.4975 57.6727 52.4975 57.6727" stroke="black" stroke-width="0.8" stroke-miterlimit="10"/>
</svg>
