<svg width="122" height="121" viewBox="0 0 122 121" fill="none" xmlns="http://www.w3.org/2000/svg">
<path d="M60.1764 84.3463C60.6493 84.82 61.0547 85.3614 61.5276 85.9028C62.6762 87.2563 70.8649 95.7001 72.0134 97.189C75.0538 101.182 78.1617 105.581 80.3237 109.37C80.4588 109.573 80.594 109.709 80.7291 109.912C82.5533 111.874 86.3368 109.709 84.8505 107.137C84.7153 106.866 84.5802 106.663 84.4451 106.393C82.283 102.738 79.9183 98.9485 77.3509 95.4294C76.3375 94.0083 75.2565 92.5871 74.1754 91.2336C73.2296 90.0155 65.176 81.7746 64.095 80.6242C64.0275 80.5565 63.9599 80.4888 63.8923 80.4211L63.9599 80.6918C63.8248 80.8949 60.9196 83.6695 60.1764 84.3463Z" fill="black" stroke="black" stroke-width="0.8" stroke-miterlimit="10"/>
<path d="M87.2252 105.251L78.4257 108.973L83.1669 120.171L104.392 110.725L103.364 108.154C103.364 108.154 99.8285 103.968 89.4308 110.254L87.2252 105.251Z" fill="#F96F6F" stroke="black" stroke-width="0.8" stroke-miterlimit="10"/>
<path d="M95.6303 107.363C101.263 105.718 103.364 108.154 103.364 108.154L104.392 110.725L96.7883 114.114C96.0642 111.9 95.6284 109.696 95.6303 107.363Z" fill="white" stroke="black" stroke-width="0.8" stroke-miterlimit="10"/>
<path d="M82.059 117.425L103.364 108.154L104.392 110.725L83.167 120.172L82.059 117.425Z" fill="white" stroke="black" stroke-width="0.8" stroke-miterlimit="10"/>
<path d="M87.9551 107.323L87.8217 107.03L84.0092 108.623L84.1426 108.916L87.9551 107.323Z" fill="white"/>
<path d="M84.8997 110.573L88.6422 108.984L88.7429 109.222L85.0003 110.81L84.8997 110.573Z" fill="white"/>
<path d="M83.993 109.055C83.8633 109.114 83.7103 109.057 83.6514 108.927C83.5924 108.798 83.6498 108.645 83.7796 108.586C83.9093 108.527 84.0623 108.584 84.1213 108.714C84.1802 108.843 84.1228 108.996 83.993 109.055Z" fill="white" stroke="white" stroke-width="0.8" stroke-miterlimit="10"/>
<path d="M84.8137 111.014C84.684 111.073 84.531 111.015 84.472 110.886C84.4131 110.756 84.4705 110.603 84.6003 110.544C84.73 110.485 84.883 110.543 84.9419 110.672C85.0009 110.802 84.9435 110.954 84.8137 111.014Z" fill="white" stroke="white" stroke-width="0.8" stroke-miterlimit="10"/>
<path d="M64.0343 103.904C64.1695 103.904 64.237 103.904 64.3721 103.904C68.4259 103.769 72.4797 102.957 76.466 101.806C76.8713 101.671 77.2767 101.536 77.6821 101.4C78.9658 100.994 80.182 100.588 81.3981 100.182C81.8035 100.047 82.2088 99.9114 82.6142 99.7761C82.7494 99.7084 82.8845 99.7084 83.0196 99.6407C87.749 97.8135 91.7353 94.4974 92.1407 89.0835C92.3433 85.6998 91.1272 82.8574 89.1003 80.4211C87.8842 81.707 86.668 82.8574 85.587 83.9402C86.3302 84.9553 86.8707 86.1058 87.0734 87.3239C87.9517 91.9935 83.6277 94.1591 79.9117 95.4449C79.5063 95.5802 79.1009 95.7156 78.7631 95.8509C78.6955 95.8509 78.5604 95.9186 78.4929 95.9186C77.1416 96.3247 75.7903 96.7984 74.3715 97.1368C74.0337 97.2044 73.6959 97.3398 73.358 97.4075C70.4528 98.2196 67.4125 98.7609 64.4397 98.8963C63.9668 98.8963 63.5614 99.0316 63.2236 99.2347C61.0615 100.385 61.3318 103.972 64.0343 103.904Z" fill="black" stroke="black" stroke-width="0.8" stroke-miterlimit="10"/>
<path d="M64.1312 106.345L63.7591 96.7979L51.6078 97.2764L52.9449 120.47L55.7131 120.417C55.7131 120.417 60.8782 118.588 58.6717 106.64L64.1312 106.345Z" fill="#F96F6F" stroke="black" stroke-width="0.8" stroke-miterlimit="10"/>
<path d="M59.186 113.461C58.7341 119.312 55.7129 120.417 55.7129 120.417L52.9447 120.47L52.4608 112.159C54.7882 112.264 57.0044 112.635 59.186 113.461Z" fill="white" stroke="black" stroke-width="0.8" stroke-miterlimit="10"/>
<path d="M54.5684 97.2102L55.7129 120.417L52.9447 120.47L51.6076 97.2762L54.5684 97.2102Z" fill="white" stroke="black" stroke-width="0.8" stroke-miterlimit="10"/>
<path d="M61.9355 106.295L62.2569 106.274L62.1136 102.145L61.7921 102.166L61.9355 106.295Z" fill="white"/>
<path d="M59.9752 102.289L60.1385 106.351L59.881 106.361L59.7177 102.299L59.9752 102.289Z" fill="white"/>
<path d="M61.7149 101.977C61.7056 101.835 61.8131 101.712 61.9551 101.703C62.0971 101.693 62.2198 101.801 62.2292 101.943C62.2386 102.085 62.1311 102.208 61.9891 102.218C61.8471 102.227 61.7243 102.119 61.7149 101.977Z" fill="white" stroke="white" stroke-width="0.8" stroke-miterlimit="10"/>
<path d="M59.5929 102.053C59.5835 101.91 59.691 101.788 59.833 101.778C59.975 101.769 60.0978 101.877 60.1071 102.019C60.1165 102.161 60.009 102.284 59.867 102.293C59.725 102.303 59.6022 102.195 59.5929 102.053Z" fill="white" stroke="white" stroke-width="0.8" stroke-miterlimit="10"/>
<path d="M42.2469 59.7645L42.2468 59.7644C41.8897 58.6565 40.935 57.6848 39.7986 56.7995C38.8429 56.0551 37.7059 55.3333 36.5823 54.6201C36.3601 54.479 36.1384 54.3383 35.9187 54.1978C34.5743 53.3378 33.304 52.4852 32.3694 51.5855C31.485 50.7341 30.9567 49.8931 30.8991 49.0191L30.9028 49.0154V48.8507C30.9028 47.9192 31.4402 47.0278 32.3783 46.1248C33.3129 45.2251 34.5832 44.3724 35.9276 43.5125C36.1473 43.372 36.369 43.2312 36.5913 43.0901C37.7148 42.3769 38.8518 41.6552 39.8075 40.9107C40.9439 40.0255 41.8986 39.0538 42.2557 37.9459L42.2558 37.9457C42.6226 36.806 42.4312 35.4317 42.0368 34.0225C41.6915 32.7886 41.1712 31.4663 40.6611 30.17C40.5849 29.9762 40.5088 29.783 40.4337 29.5907C39.8498 28.0974 39.317 26.6625 39.0771 25.3958C38.8357 24.1214 38.9095 23.1106 39.4254 22.3944C39.9477 21.6718 40.8831 21.2857 42.1619 21.1215C43.4342 20.9581 44.9547 21.0253 46.5446 21.1253C46.7625 21.139 46.9817 21.1533 47.2016 21.1677C48.5692 21.2571 49.9616 21.348 51.2166 21.3021C52.6633 21.2491 54.0154 21.0137 54.9689 20.3134C55.9136 19.6196 56.5439 18.3983 57.0341 17.03C57.4534 15.8595 57.7905 14.5184 58.1226 13.1972C58.1816 12.9625 58.2405 12.7283 58.2996 12.4958C58.6956 10.9393 59.104 9.45758 59.6566 8.28507C60.2121 7.10617 60.8744 6.32425 61.7297 6.04435L61.7298 6.0443C62.5445 5.77735 63.504 6.01977 64.6234 6.65C65.7352 7.27591 66.9182 8.23447 68.1451 9.26026C68.2841 9.37642 68.4236 9.49342 68.5635 9.6108C69.6466 10.5194 70.7559 11.4499 71.839 12.1777C73.0544 12.9944 74.3044 13.6041 75.5116 13.6041C76.7185 13.6041 77.9689 12.9957 79.1851 12.1808C80.2684 11.4549 81.3781 10.5269 82.4617 9.62071C82.6023 9.50315 82.7424 9.38596 82.882 9.26962C84.11 8.24609 85.2941 7.28971 86.4067 6.6654C87.527 6.03682 88.4873 5.79517 89.3022 6.06224L89.3024 6.06229C90.1576 6.34215 90.8193 7.12395 91.3742 8.30283C91.926 9.47534 92.3337 10.957 92.7291 12.5136C92.7875 12.7435 92.8456 12.9751 92.9039 13.2073C93.2363 14.531 93.5737 15.8751 93.9942 17.048C94.4849 18.4164 95.1163 19.6377 96.0634 20.3314C97.0169 21.0317 98.3688 21.267 99.8155 21.32C101.07 21.3659 102.463 21.275 103.83 21.1856C104.05 21.1713 104.27 21.157 104.487 21.1433C106.077 21.0433 107.598 20.976 108.87 21.1394C110.149 21.3036 111.085 21.6898 111.607 22.4127C112.123 23.1289 112.196 24.1396 111.955 25.4137C111.715 26.6805 111.182 28.1154 110.598 29.6086C110.523 29.8009 110.447 29.9941 110.371 30.1879C109.861 31.4842 109.341 32.8065 108.995 34.0404C108.601 35.4497 108.409 36.824 108.776 37.9637L108.776 37.9638C109.133 39.0717 110.088 40.0434 111.225 40.9287C112.18 41.6731 113.317 42.3949 114.441 43.1081C114.663 43.2492 114.885 43.3899 115.104 43.5304C116.449 44.3904 117.719 45.243 118.654 46.1427C119.592 47.0458 120.129 47.9371 120.129 48.8686C120.129 49.8 119.592 50.6914 118.654 51.5945C117.719 52.4942 116.449 53.3468 115.104 54.2067C114.885 54.3473 114.663 54.488 114.441 54.6291C113.317 55.3423 112.18 56.064 111.225 56.8085C110.088 57.6938 109.133 58.6655 108.776 59.7733L108.776 59.7735C108.409 60.9132 108.601 62.2875 108.995 63.6968C109.341 64.9307 109.861 66.2529 110.371 67.5492C110.447 67.743 110.523 67.9363 110.598 68.1285C111.182 69.6218 111.715 71.0567 111.955 72.3234C112.196 73.5978 112.123 74.6086 111.607 75.3249C111.084 76.0475 110.149 76.4336 108.87 76.5978C107.598 76.7612 106.077 76.6939 104.487 76.5939C104.27 76.5802 104.05 76.5659 103.831 76.5515C102.463 76.4622 101.071 76.3712 99.8155 76.4172C98.3687 76.4701 97.0167 76.7055 96.0632 77.4059C95.1184 78.0996 94.4881 79.3209 93.9979 80.6893C93.5786 81.8598 93.2416 83.2008 92.9095 84.522C92.8504 84.7568 92.7916 84.9909 92.7325 85.2234C92.3365 86.7799 91.928 88.2617 91.3755 89.4342C90.8201 90.6128 90.158 91.3946 89.303 91.6747C88.4879 91.9399 87.5272 91.6971 86.4068 91.068C85.2941 90.4433 84.11 89.4871 82.8819 88.4641C82.7434 88.3487 82.6043 88.2325 82.4648 88.1159C81.3802 87.2094 80.2694 86.281 79.185 85.555C77.9688 84.7408 76.7184 84.133 75.5116 84.133C74.3047 84.133 73.0542 84.7414 71.838 85.5564C70.7547 86.2823 69.6449 87.2104 68.5613 88.1166C68.4208 88.2341 68.2807 88.3513 68.1412 88.4676C66.9131 89.4911 65.729 90.4475 64.6164 91.0718C63.4962 91.7003 62.5359 91.942 61.7209 91.6749L61.7208 91.6749C60.8656 91.395 60.2038 90.6132 59.649 89.4343C59.0971 88.2618 58.6895 86.7801 58.2941 85.2235C58.2357 84.9936 58.1775 84.762 58.1192 84.5298C57.7869 83.2061 57.4495 81.862 57.0289 80.6892C56.5383 79.3206 55.9067 78.0992 54.9596 77.4056M42.2469 59.7645L39.4165 75.3159C39.9389 76.0385 40.8742 76.4246 42.153 76.589C43.4254 76.7525 44.9459 76.6855 46.5359 76.5861C46.7515 76.5726 46.9685 76.5585 47.186 76.5444C48.5559 76.4554 49.9509 76.3649 51.208 76.412C52.6545 76.4662 54.0061 76.7033 54.9596 77.4056M42.2469 59.7645C42.6137 60.9042 42.4223 62.2785 42.0279 63.6878C41.6826 64.9217 41.1623 66.244 40.6522 67.5403C40.576 67.7341 40.5 67.9273 40.4248 68.1196C39.8409 69.6128 39.3081 71.0477 39.0682 72.3145C38.8269 73.5886 38.9006 74.5992 39.4162 75.3154L42.2469 59.7645ZM54.9596 77.4056L54.7232 77.7283L54.9606 77.4063C54.9602 77.4061 54.9599 77.4058 54.9596 77.4056Z" fill="#ACBFFF" stroke="black" stroke-width="0.8"/>
<path d="M69.4883 37.3923C69.1633 32.3939 67.6017 28.1844 65.5207 26.3C64.6964 25.5776 63.8511 25.1616 62.9742 25.2052C59.7736 25.4003 57.5793 31.1527 57.9756 38.1055C58.3755 45.0073 61.3403 50.4911 64.4897 50.2926C65.3155 50.2455 66.1181 49.7865 66.7847 49.0618C68.6789 46.9318 69.8062 42.4928 69.4883 37.3923Z" fill="white" stroke="black" stroke-width="0.8" stroke-miterlimit="10"/>
<path d="M66.7894 49.0109C63.7709 48.8078 61.068 44.0086 60.7109 37.9822C60.7249 37.7779 60.6877 37.5702 60.6983 37.417L65.5194 36.818L60.7958 34.4993C61.2579 30.0158 63.0824 26.6499 65.5221 26.3011C67.6028 28.1854 69.1606 32.4457 69.489 37.3929C69.8069 42.4933 68.6797 46.932 66.7894 49.0109Z" fill="black" stroke="black" stroke-width="0.8" stroke-miterlimit="10"/>
<path d="M90.4693 36.0954C90.1443 31.097 88.5828 26.8876 86.5018 25.0032C85.6775 24.2808 84.8321 23.8647 83.9552 23.9084C80.7546 24.1035 78.5603 29.8559 78.9567 36.8087C79.3566 43.7104 82.3214 49.1943 85.4708 48.9957C86.2966 48.9487 87.0992 48.4896 87.7658 47.7649C89.6599 45.6349 90.7873 41.196 90.4693 36.0954Z" fill="white" stroke="black" stroke-width="0.8" stroke-miterlimit="10"/>
<path d="M87.7671 47.7653C84.7486 47.5622 82.0456 42.763 81.6885 36.7366C81.7025 36.5323 81.6654 36.3246 81.6759 36.1714L86.4971 35.5724L81.7735 33.2537C82.2356 28.7702 84.0601 25.4043 86.4997 25.0555C88.5805 26.9398 90.1382 31.2001 90.4667 36.1473C90.7881 41.1966 89.6609 45.6354 87.7671 47.7653Z" fill="black" stroke="black" stroke-width="0.8" stroke-miterlimit="10"/>
<path d="M73.4162 40.2771L73.5693 42.5448C73.5693 42.5448 73.7741 42.5586 73.8288 42.5109C75.1191 42.444 76.6514 42.5986 76.8501 44.2024C77.0312 46.0615 74.9309 46.6895 73.5325 46.0822" fill="#ACBFFF"/>
<path d="M73.4162 40.2771L73.5693 42.5448C73.5693 42.5448 73.7741 42.5586 73.8288 42.5109C75.1191 42.444 76.6514 42.5986 76.8501 44.2024C77.0312 46.0615 74.9309 46.6895 73.5325 46.0822" stroke="black" stroke-width="0.8" stroke-miterlimit="10"/>
<path d="M71.7266 58.2197C72.656 59.6677 73.873 60.6733 75.5731 60.6339C77.2221 60.5911 78.3196 59.5876 79.0868 58.1514C81.0425 54.3837 80.5249 47.6787 80.5249 47.6787L76.9164 47.7947L72.3792 47.9507L69.2349 48.0466C69.2314 48.0977 69.4046 54.5742 71.7266 58.2197Z" fill="black" stroke="black" stroke-width="0.8" stroke-miterlimit="10"/>
<path d="M71.6945 57.9602C72.6171 59.5104 73.8784 60.6217 75.5787 60.5824C77.2278 60.5396 78.3289 59.4849 79.1032 57.9463C78.8988 55.6748 77.1128 53.9637 75.0947 54.1355C73.2338 54.2667 71.7834 55.9136 71.6945 57.9602Z" fill="#E30611" stroke="black" stroke-width="0.8" stroke-miterlimit="10"/>
<path d="M80.7205 45.593C80.31 46.3347 79.3622 48.1687 79.4465 50.6879C79.5715 53.3637 80.7825 55.1895 81.3031 55.8401" fill="#ACBFFF"/>
<path d="M80.7205 45.593C80.31 46.3347 79.3622 48.1687 79.4465 50.6879C79.5715 53.3637 80.7825 55.1895 81.3031 55.8401" stroke="black" stroke-width="0.8" stroke-miterlimit="10"/>
<path d="M68.8193 45.8127C69.2304 46.5585 70.1306 48.4146 70.0104 50.9199C69.8797 53.5784 68.6255 55.3917 68.1165 56.0754" fill="#ACBFFF"/>
<path d="M68.8193 45.8127C69.2304 46.5585 70.1306 48.4146 70.0104 50.9199C69.8797 53.5784 68.6255 55.3917 68.1165 56.0754" stroke="black" stroke-width="0.8" stroke-miterlimit="10"/>
<path d="M41.2624 58.1453C41.7671 58.5483 42.3867 60.5396 42.3867 60.5396C42.3867 60.5396 41.2932 60.99 39.8088 61.4408C35.8102 62.5246 31.8651 61.5534 28.6925 58.9305C25.6474 56.3998 23.5789 52.9271 21.7188 49.4889C20.8178 47.8101 19.9459 46.1718 19.1663 44.4063C18.8056 43.564 18.4448 42.7216 18.0841 41.8792C17.6767 40.8869 17.3098 39.8656 16.9314 38.9136C16.9314 38.9136 16.9024 38.8732 16.8734 38.8328C16.5416 38.0308 16.2099 37.2288 15.9072 36.4672C15.4304 35.4634 16.1341 34.2273 17.1177 33.8915C18.1823 33.4978 19.2952 34.1084 19.7026 35.1008C19.9587 35.7124 20.2262 36.2547 20.4417 36.8952C20.8782 37.928 21.3031 39.03 21.6991 40.0917C22.1241 41.1937 22.5781 42.3361 23.1131 43.4207C23.8574 44.9669 24.7179 46.6745 25.4852 48.0821C27.1068 51.0184 28.9545 54.0988 31.6107 56.1739C34.0117 58.0646 35.3225 59.0407 38.3076 57.8253C40.4886 56.9398 39.8277 57.1992 39.8277 57.1992C39.8277 57.1992 40.3858 57.4456 41.2624 58.1453Z" fill="black"/>
<path d="M13.0982 39.9457C13.0982 39.9457 -1.0384 27.1745 3.21941 23.6554C3.21941 23.6554 4.80235 22.5248 6.29939 23.6069C6.29939 23.6069 5.82994 19.4005 9.59939 20.5329C11.9487 21.2453 12.5398 25.8429 12.5398 25.8429C12.6143 25.3913 13.1568 24.9241 13.4883 24.6077C14.3245 23.7715 15.2743 23.0931 16.3755 22.6253C17.9745 21.9614 20.2618 21.9213 21.1865 23.6512C21.2243 23.7039 21.2622 23.7565 21.2473 23.8469C21.915 25.4416 20.3941 27.3247 18.6872 26.9502C17.4712 26.7031 16.0293 26.6972 15.0876 27.6088C13.7995 28.9272 14.4982 30.8982 16.1076 31.5813C18.0646 32.4146 20.9529 30.9891 21.0433 27.339C21.0421 26.7821 20.8976 26.248 21.0776 25.721C21.3254 25.0659 22.1627 24.7866 22.7524 25.1623C24.7782 26.4244 27.3952 32.2842 20.9395 35.3014" fill="white"/>
<path d="M13.0982 39.9457C13.0982 39.9457 -1.0384 27.1745 3.21941 23.6554C3.21941 23.6554 4.80235 22.5248 6.29939 23.6069C6.29939 23.6069 5.82994 19.4005 9.59939 20.5329C11.9487 21.2453 12.5398 25.8429 12.5398 25.8429C12.6143 25.3913 13.1568 24.9241 13.4883 24.6077C14.3245 23.7715 15.2743 23.0931 16.3755 22.6253C17.9745 21.9614 20.2618 21.9213 21.1865 23.6512C21.2243 23.7039 21.2622 23.7565 21.2473 23.8469C21.915 25.4416 20.3941 27.3247 18.6872 26.9502C17.4712 26.7031 16.0293 26.6972 15.0876 27.6088C13.7995 28.9272 14.4982 30.8982 16.1076 31.5813C18.0646 32.4146 20.9529 30.9891 21.0433 27.339C21.0421 26.7821 20.8976 26.248 21.0776 25.721C21.3254 25.0659 22.1627 24.7866 22.7524 25.1623C24.7782 26.4244 27.3952 32.2842 20.9395 35.3014" stroke="black" stroke-width="0.8" stroke-miterlimit="10"/>
<path d="M6.26227 23.5591L8.77699 28.0553" stroke="black" stroke-width="0.8" stroke-miterlimit="10"/>
<path d="M18.944 36.6401L20.9725 35.3507C23.6573 33.7519 29.1293 36.1399 19.8748 41.1559C10.5824 46.1191 13.159 39.8155 13.159 39.8155C13.5136 39.642 14.0115 39.4457 14.4337 39.1442C14.8411 38.933 15.2105 38.6691 15.4893 38.3903" fill="white"/>
<path d="M18.944 36.6401L20.9725 35.3507C23.6573 33.7519 29.1293 36.1399 19.8748 41.1559C10.5824 46.1191 13.159 39.8155 13.159 39.8155C13.5136 39.642 14.0115 39.4457 14.4337 39.1442C14.8411 38.933 15.2105 38.6691 15.4893 38.3903" stroke="black" stroke-width="0.8" stroke-miterlimit="10"/>
<path d="M43.8632 14.9586L46.6875 16.6357C46.8077 16.5159 49.4517 13.8805 49.4517 13.8805C55.1605 8.72951 68.0804 -0.554282 83.5242 4.83631C90.8554 7.35192 96.8647 12.8623 101.011 17.7138C101.792 18.6123 102.513 19.5107 103.174 20.3492C104.376 21.8466 105.338 23.2242 106.059 24.3023L108.823 22.8049C105.218 17.5341 96.8647 6.81286 84.3054 2.44049C64.8955 -4.2678 49.6921 9.08888 45.0049 13.8206C44.5242 14.2998 44.1636 14.7191 43.8632 14.9586Z" fill="#E30611" stroke="black" stroke-width="0.8" stroke-miterlimit="10"/>
<path d="M46.2668 40.6537C47.7691 40.5339 49.2113 40.0547 50.4733 39.2761C50.5334 39.2761 50.5334 39.2162 50.5935 39.2162V15.1981V14.4195C50.5334 14.4195 50.5334 14.3596 50.4733 14.3596C49.6921 14.0002 48.9109 13.7606 48.0696 13.6409C47.4687 13.581 46.8677 13.5211 46.2067 13.581C40.1975 14.0002 35.33 20.409 35.3901 27.8361C35.3901 35.3829 40.2576 41.073 46.2668 40.6537Z" fill="#E30611" stroke="black" stroke-width="0.8" stroke-miterlimit="10"/>
<path d="M105.037 44.3672C104.376 44.4271 103.775 44.4271 103.174 44.3073C102.574 44.2474 101.973 44.0677 101.372 43.888C101.251 32.9272 101.071 22.685 101.011 18.4924C102.213 17.8335 103.535 17.4142 104.857 17.3543C110.926 16.8752 115.914 22.5653 115.974 29.9923C115.974 37.4193 111.107 43.888 105.037 44.3672Z" fill="#E30611" stroke="black" stroke-width="0.8" stroke-miterlimit="10"/>
<path d="M100.964 62.2246L94.2322 58.2177L90.5607 63.7036L89.0686 65.9956L87.9981 67.6146L79.5846 80.2055L79.2557 84.8169L79.0267 88.0283C80.0149 87.5621 81.009 87.0136 81.9973 86.5474L86.1331 84.4475L94.6852 71.6597L95.7556 70.0407L97.2478 67.7487L100.964 62.2246Z" fill="#5663F1" stroke="black" stroke-width="0.8" stroke-miterlimit="10"/>
<path d="M79.5772 80.2079L81.8511 79.1733L81.79 81.7755L84.3027 80.303L84.0204 83.096L86.1675 82.0935L86.124 84.4488L79.0636 87.9905L79.5772 80.2079Z" fill="white" stroke="black" stroke-width="0.8" stroke-miterlimit="10"/>
<path d="M79.2904 84.7807C79.4172 84.7485 80.2784 84.3146 81.1192 84.7481C82.0367 85.2698 82.0371 86.4284 82.0312 86.5107C81.0432 86.9768 80.0493 87.5252 79.0614 87.9913L79.2904 84.7807Z" fill="black" stroke="black" stroke-width="0.8" stroke-miterlimit="10"/>
<path d="M81.8172 79.2118L95.4288 58.9661" stroke="black" stroke-width="0.8" stroke-miterlimit="10"/>
<path d="M84.2621 80.4215L97.5372 60.2344" stroke="black" stroke-width="0.8" stroke-miterlimit="10"/>
<path d="M86.1695 82.1718L99.7335 61.4263" stroke="black" stroke-width="0.8" stroke-miterlimit="10"/>
<path d="M94.9374 57.2299C94.9374 57.2299 97.2128 53.2587 100.761 55.2952C104.348 57.3759 101.666 61.2349 101.666 61.2349L94.9374 57.2299Z" fill="#FF1F33" stroke="black" stroke-width="0.8" stroke-miterlimit="10"/>
<path d="M98.8379 56.1086C97.991 55.7574 96.8434 56.1293 96.1946 57.0754C96.056 57.2722 95.8199 57.0895 95.9585 56.8927C96.7017 55.7879 98.103 55.3517 99.0266 55.7913C99.1918 55.8033 99.0415 56.1648 98.8379 56.1086Z" fill="white"/>
<path d="M99.2768 56.3462C99.1172 56.2518 99.3505 55.8958 99.5042 56.0727C99.708 56.1289 99.4748 56.485 99.2768 56.3462Z" fill="white"/>
<path d="M94.2444 58.2156L101.009 62.2639L101.664 61.2362L94.937 57.232L94.2444 58.2156Z" fill="black" stroke="black" stroke-width="0.8" stroke-miterlimit="10"/>
<path d="M93.559 73.648C93.812 73.7883 94.065 73.9286 94.318 74.0689C96.124 74.9881 97.93 75.9073 99.8062 76.7004C101.331 77.3811 102.842 78.0128 104.339 78.5954C104.641 78.7217 104.992 78.8341 105.294 78.9604C108.702 80.2731 113.094 81.6775 116.64 80.1383C122.117 77.7315 119.041 70.54 117.001 66.7687C114.736 62.5839 112.839 61.7261 109.436 58.3953L108.727 60.274L108.728 62.4014C110.394 64.3155 112.07 66.6323 113.287 68.8334C113.871 69.9409 114.42 71.1115 114.856 72.261C115.173 73.1791 115.595 74.2796 115.505 75.2605C115.519 75.3096 115.407 75.6599 115.421 75.7089C115.386 75.772 115.351 75.835 115.351 75.835C115.316 75.898 115.196 76.0381 115.147 76.0521L115.098 76.0661C114.831 76.2481 114.129 76.3948 113.82 76.4296C112.766 76.4639 111.67 76.351 110.581 76.077C108.256 75.5709 105.888 74.5463 103.66 73.6408C102.754 73.2618 101.911 72.9179 101.053 72.5249C100.069 72.0618 99.0856 71.5986 98.1018 71.1355C97.3569 70.7636 96.612 70.3917 95.9163 70.0058C95.4181 70.6782 94.9691 71.3366 94.5833 72.03C94.2185 72.6114 93.8887 73.1297 93.559 73.648Z" fill="black"/>
<path d="M101.512 70.4709C101.135 70.3694 101.106 69.543 101.06 69.1389C100.863 66.7604 98.8274 64.7654 97.3818 63.8546C96.8018 63.5325 94.9694 62.2448 93.8291 62.6383C91.3554 63.4802 94.0834 67.1564 94.9037 68.3144C94.2319 68.1575 94.0847 68.1297 93.9374 68.102C93.643 68.0466 93.33 67.9268 92.9712 67.8897C92.4281 67.6962 91.8392 67.5853 91.2961 67.3918C89.9799 66.9311 88.774 66.3696 87.4578 65.9089C86.6018 65.5957 85.2213 65.1533 84.4309 65.7951C83.8611 66.2352 83.9541 67.0434 84.0746 67.7047C84.0746 67.7047 84.0746 67.7047 84.0931 67.769C84.0931 67.769 81.3893 68.5371 83.3525 71.2482C83.0491 71.404 82.7272 71.4954 82.608 71.8075C82.0758 72.8628 83.3658 74.4438 83.9924 75.1699C85.568 77.0175 87.8243 78.8107 90.0061 79.8601C91.8564 80.7255 93.8807 80.985 95.8948 80.4823C96.2811 80.3726 96.6673 80.2629 97.0536 80.1531C97.3755 80.0617 97.9453 79.6216 98.2397 79.6771C98.2397 79.6771 98.3691 80.1272 98.3876 80.1915C98.5629 80.559 98.8025 80.9082 99.0881 81.1748C99.7605 81.8184 100.791 82.0124 101.618 81.4992C102.859 80.7293 103.198 79.2422 103.527 77.9662C103.912 76.3965 104.462 74.9187 104.929 73.395C106.395 68.8055 102.808 69.8939 102.33 70.1688C101.558 70.3883 101.724 70.4803 101.512 70.4709Z" fill="white" stroke="black" stroke-width="0.8" stroke-miterlimit="10"/>
<path d="M92.2405 71.6548C92.2405 71.6548 86.875 70.1884 84.0565 67.6506" stroke="black" stroke-width="0.8" stroke-miterlimit="10"/>
<path d="M83.2469 71.1474C83.2469 71.1474 87.2065 74.2646 90.3447 75.2508" stroke="black" stroke-width="0.8" stroke-miterlimit="10"/>
<path d="M101.417 70.3538L100.813 72.1247" stroke="black" stroke-width="0.8" stroke-miterlimit="10"/>
<path d="M98.6931 77.8687L98.2631 79.5203" stroke="black" stroke-width="0.8" stroke-miterlimit="10"/>
</svg>
