<svg width="133" height="121" viewBox="0 0 133 121" fill="none" xmlns="http://www.w3.org/2000/svg">
<g clip-path="url(#clip0_3_36336)">
<path d="M87.8766 80.6882C87.4748 81.2236 87.1493 81.8165 86.757 82.4189C85.8097 83.9202 78.8867 93.4293 77.9583 95.0646C75.5082 99.4444 73.0482 104.236 71.4392 108.291C71.3339 108.511 71.2191 108.664 71.1138 108.884C69.583 111.083 65.533 109.47 66.6439 106.715C66.7398 106.428 66.8451 106.208 66.9409 105.921C68.5688 102 70.3785 97.9157 72.4268 94.0713C73.2308 92.522 74.1018 90.9632 74.9822 89.4714C75.7478 88.1326 82.5656 78.8435 83.4745 77.5527C83.5319 77.4762 83.5893 77.3997 83.6467 77.3233L83.6177 77.6008C83.78 77.7828 87.0458 80.1224 87.8766 80.6882Z" fill="black" stroke="black" stroke-width="0.8" stroke-miterlimit="10"/>
<path d="M67.7136 119.348L67.5317 117.784L66.2587 119.348L49.7402 119.366L49.5281 115.767L75.4727 115.506L75.594 119.279L67.7136 119.348Z" fill="black" stroke="black" stroke-width="0.8" stroke-miterlimit="10"/>
<path d="M63.1066 104.515C59.1967 105.208 51.1042 107.665 49.5281 116.01L75.503 115.569L75.5334 107.665C71.2598 109.019 65.9253 108.105 63.1066 104.515Z" fill="#ACBFFF" stroke="black" stroke-width="0.8" stroke-miterlimit="10"/>
<path d="M58.0449 105.775L62.7125 109.617" stroke="black" stroke-width="0.8" stroke-miterlimit="10"/>
<path d="M55.6504 107.035L60.3483 110.908" stroke="black" stroke-width="0.8" stroke-miterlimit="10"/>
<path d="M87.8192 102.875C87.6841 102.875 87.6165 102.875 87.4814 102.875C83.4276 102.739 79.3738 101.927 75.3876 100.777C74.9822 100.641 74.5768 100.506 74.1714 100.371C72.8877 99.9647 71.6716 99.5586 70.4554 99.1526C70.05 99.0172 69.6447 98.8819 69.2393 98.7465C69.1042 98.6789 68.969 98.6789 68.8339 98.6112C64.1045 96.784 60.1182 93.4679 59.7129 88.0539C59.5102 84.6702 60.7263 81.8279 62.7532 79.3916C63.9693 80.6774 65.1855 81.8279 66.2665 82.9107C65.5233 83.9258 64.9828 85.0763 64.7801 86.2944C63.9018 90.964 68.2258 93.1295 71.9418 94.4154C72.3472 94.5507 72.7526 94.686 73.0904 94.8214C73.158 94.8214 73.2931 94.8891 73.3607 94.8891C74.7119 95.2951 76.0632 95.7688 77.482 96.1072C77.8198 96.1749 78.1577 96.3102 78.4955 96.3779C81.4007 97.19 84.441 97.7314 87.4138 97.8668C87.8868 97.8668 88.2921 98.0021 88.63 98.2051C90.792 99.3556 90.5217 102.942 87.8192 102.875Z" fill="black" stroke="black" stroke-width="0.8" stroke-miterlimit="10"/>
<path d="M96.3786 100.449L94.8761 100.921L96.6522 101.878L99.7752 118.098L96.2805 118.983L91.1461 93.5503L94.8286 92.7219L96.3786 100.449Z" fill="black" stroke="black" stroke-width="0.8" stroke-miterlimit="10"/>
<path d="M82.6759 107.763C84.0915 111.473 88.0259 118.959 96.5192 118.938L91.2022 93.5089L83.4325 94.9655C85.5662 98.9082 85.6721 104.319 82.6759 107.763Z" fill="#ACBFFF" stroke="black" stroke-width="0.8" stroke-miterlimit="10"/>
<path d="M84.865 112.497L87.7611 107.19" stroke="black" stroke-width="0.8" stroke-miterlimit="10"/>
<path d="M86.5525 114.612L89.4738 109.27" stroke="black" stroke-width="0.8" stroke-miterlimit="10"/>
<path d="M104.797 63.2263C104.736 62.862 104.131 59.2192 103.652 56.6903C106.355 58.3208 108.556 60.3332 110.725 62.8092C115.006 67.7821 119.256 73.2186 121.076 79.6948C121.253 80.4023 121.411 81.0526 121.588 81.7602C122.164 84.5751 117.876 85.5382 117.375 82.7594C117.275 82.2808 117.176 81.8021 117.02 81.3444C115.451 75.4192 111.432 70.4766 107.55 65.9344C106.637 64.9223 105.632 64.0095 104.797 63.2263Z" fill="black"/>
<path d="M115.351 83.1074C115.466 83.4483 114.759 83.9723 114.517 84.1919C112.694 85.7147 112.171 88.4746 112.145 90.0857C112.168 90.7174 112.09 92.9245 113.031 93.6572C115.006 95.2149 116.529 90.9236 117.044 89.6399C117.254 90.2648 117.292 90.3785 117.349 90.5489C117.445 90.833 117.559 91.1738 117.655 91.4579C117.827 91.9692 117.962 92.5585 118.134 93.0698C118.443 94.3621 118.639 95.6967 118.947 96.989C119.178 97.8624 119.506 99.2114 120.48 99.4828C121.118 99.6897 121.75 99.1301 122.177 98.7121C122.177 98.7121 122.177 98.7121 122.233 98.6909C122.233 98.6909 124.266 100.419 125.442 97.348C125.686 97.5116 126.006 97.7109 126.305 97.6617C127.445 97.4863 128.067 95.5852 128.323 94.6559C128.999 92.3504 129.24 89.5048 128.943 87.1196C128.648 85.1176 127.813 83.3844 126.344 82.0192C126.061 81.7419 125.798 81.5214 125.459 81.2653C125.196 81.0449 124.558 80.8379 124.407 80.5751C124.407 80.5751 124.666 80.2206 124.703 80.1426C124.907 79.8094 125.091 79.4194 125.163 79.0717C125.307 78.1848 124.926 77.2402 124.1 76.8484C122.843 76.2997 121.443 76.8296 120.212 77.2959C118.756 77.847 117.244 78.2277 115.769 78.7219C111.308 80.0911 114.036 82.3883 114.562 82.6376C115.332 83.0506 115.275 82.8801 115.351 83.1074Z" fill="white" stroke="black" stroke-width="0.8" stroke-miterlimit="10"/>
<path d="M121.292 89.9291C121.292 89.9291 122.942 95.1775 122.379 98.807" stroke="black" stroke-width="0.8" stroke-miterlimit="10"/>
<path d="M125.56 97.5619C125.56 97.5619 125.979 92.572 125.105 89.4219" stroke="black" stroke-width="0.8" stroke-miterlimit="10"/>
<path d="M119.624 90.4617C119.697 90.306 119.695 90.1145 119.545 90.0431C119.395 89.9717 119.228 90.0349 119.155 90.1906C119.082 90.3463 119.083 90.5377 119.233 90.6091C119.327 90.7016 119.495 90.6384 119.624 90.4617Z" fill="black" stroke="black" stroke-width="0.8" stroke-miterlimit="10"/>
<path d="M123.402 89.3191C123.476 89.1634 123.474 88.972 123.324 88.9005C123.174 88.8291 123.007 88.8923 122.934 89.048C122.86 89.2037 122.862 89.3951 123.012 89.4666C123.106 89.5591 123.329 89.4748 123.402 89.3191Z" fill="black" stroke="black" stroke-width="0.8" stroke-miterlimit="10"/>
<path d="M126.968 88.6438C127.042 88.4881 127.04 88.2967 126.89 88.2252C126.74 88.1538 126.573 88.217 126.5 88.3727C126.426 88.5284 126.428 88.7198 126.578 88.7913C126.728 88.8627 126.895 88.7995 126.968 88.6438Z" fill="black" stroke="black" stroke-width="0.8" stroke-miterlimit="10"/>
<path d="M115.357 83.1235L117.055 82.6151" stroke="black" stroke-width="0.8" stroke-miterlimit="10"/>
<path d="M122.793 81.2035L124.266 80.593" stroke="black" stroke-width="0.8" stroke-miterlimit="10"/>
<path d="M50.971 64.1846C45.8811 67.4167 41.187 71.589 35.475 73.587C32.9866 74.4685 30.4417 74.8211 28.3491 73.587C25.6345 72.0004 23.8248 69.1209 22.4675 66.2414C20.8274 62.7743 19.8094 59.0133 18.6218 55.3699C17.7169 52.4904 13.3056 53.7244 14.2105 56.6039C16.5292 63.8908 18.6218 72.1179 24.8993 76.8779C30.8941 81.4028 38.4724 77.8769 44.1279 74.4097C47.2384 72.4705 50.1792 70.1787 53.2897 68.2394C55.7781 66.7115 53.4594 62.598 50.971 64.1846Z" fill="black"/>
<path d="M21.8919 59.6016L21.37 59.834C26.5892 57.7422 24.5015 48.1354 22.041 46.4309C18.6858 44.4941 18.6858 51.0794 18.6858 51.0794C18.6858 51.0794 16.5236 47.2057 12.1245 44.1067C6.90529 40.3104 7.87459 44.9589 7.87459 44.9589C7.87459 44.9589 5.86146 42.9446 3.69921 44.1842C2.05888 45.4238 3.99744 47.2832 3.99744 47.2832C2.9536 46.8183 0.865921 46.121 0.418559 47.6705C0.0457581 49.1425 1.4624 50.4596 2.208 51.3118C3.32641 52.5514 4.51937 53.6361 5.71233 54.7207C6.08513 55.0306 6.75618 55.4954 6.9053 55.9603C8.99299 63.2429 14.3613 62.8555 14.3613 62.8555C14.2122 63.5528 14.2122 64.7924 14.585 65.1798C15.1069 65.7221 15.9271 65.877 16.6727 65.6446C18.2385 65.1023 21.6682 63.7078 23.0103 62.6231C24.7998 61.306 21.8919 59.6016 21.8919 59.6016Z" fill="white" stroke="black" stroke-width="0.8" stroke-miterlimit="10"/>
<path d="M7.87451 44.959L13.6902 50.5372" stroke="black" stroke-width="0.8" stroke-miterlimit="10"/>
<path d="M3.99756 47.2832L10.1115 53.0938" stroke="black" stroke-width="0.8" stroke-miterlimit="10"/>
<path d="M8.69482 54.1009L14.2869 50.0723" stroke="black" stroke-width="0.8" stroke-miterlimit="10"/>
<path d="M18.6859 51.0791L18.835 52.2412C18.835 52.2412 14.1377 51.9313 14.6596 56.2699" stroke="black" stroke-width="0.8" stroke-miterlimit="10"/>
<path d="M16.0017 62.0806L14.2869 63.0103" stroke="black" stroke-width="0.8" stroke-miterlimit="10"/>
<path d="M98.7635 85.3955L87.2716 71.7302L86.5866 72.0805L90.9658 89.6131L79.5854 92.6539L74.0746 70.0227L73.7438 68.664L73.3121 69.9789L66.0543 92.0893L55.0096 88.1749L62.2953 65.9799L62.7235 64.6753L61.6672 65.5294L43.8063 79.9727L36.6632 70.3677L50.3624 59.2405L50.024 58.5295L32.9707 62.0777L30.6799 50.1141L50.557 46.0441L51.9679 45.7552L50.5963 45.2691L31.3631 38.4525L35.1379 26.9527L54.2898 33.7405L55.6516 34.2231L54.7154 33.1032L41.4015 17.1765L50.2234 9.2414L61.6641 22.7973L62.3489 22.4481L58.0494 4.94383L69.3239 1.95628L75.0219 24.8464L75.3564 26.1903L75.7839 24.8883L83.125 2.52417L94.1697 6.4386L86.8563 28.7181L86.4255 30.0303L87.4853 29.1678L105.266 14.696L112.433 24.2184L98.7355 35.3441L99.0713 36.0556L116.179 32.6178L118.419 44.4717L98.5117 48.6254L97.112 48.9175L98.4739 49.4001L117.544 56.159L113.769 67.6588L94.6176 60.871L93.246 60.3849L94.1929 61.5094L107.535 77.3542L98.7635 85.3955Z" fill="#F96F6F" stroke="black" stroke-width="0.8"/>
<path d="M71.6136 45.2822C68.8997 45.4702 66.9999 44.2012 64.4669 44.3422C63.0647 44.4362 61.7077 44.7652 61.7077 46.3162C61.6625 49.1832 63.8336 51.0632 66.4571 52.1912C69.8495 53.6483 73.7847 53.5073 77.1319 51.9562C79.9816 50.6402 82.9217 48.4782 82.2432 45.0942C81.9266 43.5432 80.6148 43.3552 79.2579 43.4492C76.7701 43.6372 74.1014 45.1412 71.6136 45.2822Z" fill="white" stroke="black" stroke-width="0.8" stroke-miterlimit="10"/>
<path d="M76.363 44.1074C76.7249 45.0004 77.132 46.2224 77.3129 47.7264C77.5391 49.4655 77.3581 50.9225 77.1772 51.9565" stroke="black" stroke-width="0.8" stroke-miterlimit="10"/>
<path d="M71.6135 45.2822C71.9302 46.2222 72.2015 47.4912 72.292 48.9952C72.3825 50.7343 72.2015 52.1443 71.9302 53.2253" stroke="black" stroke-width="0.8" stroke-miterlimit="10"/>
<path d="M66.457 44.4834C66.7284 45.4704 66.9998 46.8334 66.9998 48.5254C66.9998 50.0294 66.7284 51.2984 66.457 52.1914" stroke="black" stroke-width="0.8" stroke-miterlimit="10"/>
<path d="M74.3667 38.5193C74.5049 39.5877 73.7686 40.555 72.7335 40.7053C71.6985 40.8556 70.7672 40.1016 70.6289 39.0333C70.4906 37.965 71.2269 36.9976 72.262 36.8473C73.2971 36.697 74.2284 37.451 74.3667 38.5193Z" fill="#E30611" stroke="black" stroke-width="0.8" stroke-miterlimit="10"/>
<path d="M76.8759 40.5445C78.4757 39.9083 80.516 39.6015 82.6859 39.7505C83.0083 39.7638 83.3307 39.777 83.657 39.8368C85.2808 40.0428 86.7835 40.4491 87.9792 41.0282C88.5228 39.2821 88.8157 37.2806 88.8657 35.1168C88.8872 34.2699 88.867 33.4742 88.7559 32.6881C88.5821 30.5946 88.1507 28.7156 87.4695 27.1443C86.3769 24.4897 84.6712 22.7437 82.7443 22.7571C82.6988 22.7618 82.6533 22.7666 82.6078 22.7713C80.2297 22.8787 78.1094 25.5402 77.053 29.4045C76.6343 30.9968 76.3676 32.7609 76.2945 34.6456C76.3022 34.7386 76.2644 34.8364 76.2722 34.9295C76.26 36.9955 76.5094 38.8934 76.8759 40.5445Z" fill="white" stroke="black" stroke-width="0.8" stroke-miterlimit="10"/>
<path d="M77.0556 29.4183C78.1532 25.5037 80.2271 22.8476 82.6042 22.7403C83.9028 24.0121 84.7628 26.0804 84.8193 28.4203C84.8248 29.5925 84.6406 30.6908 84.3084 31.6638L81.2888 30.6653L83.3633 33.5452C82.3795 34.9614 80.9894 35.9041 79.4311 35.926C78.2406 35.9564 77.148 35.5075 76.2064 34.6675C76.3705 32.7738 76.6371 31.0101 77.0556 29.4183Z" fill="black" stroke="black" stroke-width="0.8" stroke-miterlimit="10"/>
<path d="M56.7556 40.5951L56.7594 40.6416L56.7633 40.6882C56.7672 40.7347 56.771 40.7812 56.8243 40.8695C57.044 40.7527 57.3093 40.6312 57.533 40.5609C57.6656 40.5001 57.7983 40.4394 57.9309 40.3786C59.178 39.92 60.577 39.6332 62.0824 39.523C62.6739 39.4613 63.2732 39.4926 63.8686 39.4773C63.9596 39.4678 64.0051 39.4631 64.1 39.5001C65.5298 39.5855 66.7893 39.8294 67.9277 40.2736C68.3386 38.5885 68.5482 36.6898 68.5225 34.7218C68.4178 27.9292 65.5352 22.5058 62.0538 22.5876C60.1311 22.6475 58.4384 24.3726 57.3312 27.0688C57.1801 27.4599 57.0328 27.8976 56.8894 28.3818C56.8932 28.4283 56.8516 28.4796 56.8555 28.5261C56.8138 28.5773 56.8215 28.6704 56.7799 28.7217C56.7421 28.8194 56.746 28.866 56.7082 28.9637C56.6743 29.108 56.6365 29.2058 56.6026 29.3501C56.5725 29.5409 56.4931 29.69 56.463 29.8808C56.433 30.0716 56.4029 30.2625 56.3273 30.458C56.2333 30.984 56.1393 31.5099 56.0907 32.0311C56.0607 32.2219 56.0306 32.4128 56.0422 32.5523C56.0422 32.5523 56.0422 32.5523 56.0461 32.5988C56.0199 32.8362 55.9975 33.12 55.9713 33.3574C55.9413 33.5482 55.9567 33.7342 55.9721 33.9203C55.9837 34.0599 55.9498 34.2042 55.9614 34.3437C55.9652 34.3902 55.9652 34.3902 55.9691 34.4368C55.9845 34.6228 55.9545 34.8137 55.9738 35.0462C55.9994 37.0142 56.2487 38.912 56.7556 40.5951Z" fill="white" stroke="black" stroke-width="0.8" stroke-miterlimit="10"/>
<path d="M56.6509 29.3613C57.6577 25.4557 59.7243 22.7063 62.102 22.5988C63.4464 23.8661 64.3482 25.8834 64.4502 28.2188C64.5012 29.3865 64.317 30.4849 64.0302 31.4533L61.1164 30.6313L63.1759 33.3254C62.2413 34.7837 60.8508 35.7264 59.296 35.7949C58.1091 35.8719 56.9707 35.4276 56.029 34.5875C56.0149 32.7591 56.2322 30.9534 56.6509 29.3613Z" fill="black" stroke="black" stroke-width="0.8" stroke-miterlimit="10"/>
<path d="M54.7127 54.2031L60.139 56.7632L69.3371 61.2814L64.999 70.4968L44.5839 56.4649L54.7127 54.2031Z" fill="white"/>
<path d="M93.2332 56.7186L78.5209 62.1635L79.7652 71.915L101.34 59.8182L93.2332 56.7186Z" fill="white"/>
<path d="M54.7127 54.2031L60.139 56.7632L69.3371 61.2814L64.999 70.4968L44.5839 56.4649L54.7127 54.2031Z" stroke="black" stroke-width="0.8"/>
<path d="M93.2332 56.7186L78.5209 62.1635L79.7652 71.915L101.34 59.8182L93.2332 56.7186Z" stroke="black" stroke-width="0.8"/>
<path d="M68.879 61.927L77.966 62.079L73.5404 69.5455L77.5653 74.6066L76.0712 98.6471L72.2574 103.928L68.5224 97.7908L69.4166 73.6859L73.5404 69.5455L68.879 61.927Z" fill="#5663F1"/>
<path d="M73.5404 69.5455L77.966 62.079L68.879 61.927L73.5404 69.5455ZM73.5404 69.5455L69.4166 73.6859L68.5224 97.7908L72.2574 103.928L76.0712 98.6471L77.5653 74.6066L73.5404 69.5455Z" stroke="black" stroke-width="0.8"/>
</g>
<defs>
<clipPath id="clip0_3_36336">
<rect width="131.977" height="120" fill="white" transform="translate(0.243164 0.241699)"/>
</clipPath>
</defs>
</svg>
