<svg width="122" height="121" viewBox="0 0 122 121" fill="none" xmlns="http://www.w3.org/2000/svg">
<path d="M94.0792 107.109C94.2608 109.689 91.2338 110.569 89.8413 109.185C89.4781 108.808 89.2359 108.305 89.2359 107.676C88.9938 103.838 85.342 90.7042 84.0707 87.1185C83.9496 86.8668 83.8891 86.5523 83.768 86.3007C85.5237 85.9232 87.0977 85.5458 88.5507 85.0425C90.1248 88.9428 93.7765 102.517 94.0792 106.606C94.0792 106.732 94.0792 106.921 94.0792 107.109Z" fill="black" stroke="black" stroke-width="0.8" stroke-miterlimit="10"/>
<path d="M67.7439 87.6833C66.9569 91.3319 67.2427 103.394 63.1428 105.977C60.7212 108.179 57.7547 108.619 54.9093 107.865C50.9741 106.795 48.4314 104.216 47.4022 102.958L47.3417 102.832C46.6757 101.888 46.6152 100.693 47.0995 99.7495C47.4627 99.0575 48.0682 98.5542 48.7946 98.3655C49.2184 98.2397 49.6422 98.3026 50.0055 98.4913C50.1871 98.5542 50.3082 98.6801 50.4292 98.8059C52.0033 100.504 56.9677 105.034 60.9028 100.945C61.8715 100.001 62.6585 89.256 63.1428 87.4946C64.6564 87.6204 66.1699 87.6833 67.7439 87.6833Z" fill="black" stroke="black" stroke-width="0.8" stroke-miterlimit="10"/>
<path d="M42.3265 60.171L42.3264 60.1709C41.9693 59.063 41.0146 58.0913 39.8782 57.206C38.9225 56.4615 37.7854 55.7398 36.6619 55.0266C36.4397 54.8855 36.218 54.7448 35.9983 54.6043C34.6539 53.7443 33.3835 52.8917 32.449 51.992C31.5646 51.1406 31.0363 50.2996 30.9787 49.4256L30.9824 49.4219V49.2571C30.9824 48.3257 31.5198 47.4343 32.4579 46.5312C33.3924 45.6316 34.6628 44.7789 36.0072 43.919C36.2269 43.7785 36.4486 43.6377 36.6709 43.4966C37.7944 42.7834 38.9314 42.0617 39.8871 41.3172C41.0235 40.432 41.9782 39.4603 42.3353 38.3524L42.3354 38.3522C42.7022 37.2125 42.5108 35.8382 42.1164 34.4289C41.771 33.1951 41.2508 31.8728 40.7407 30.5765C40.6645 30.3827 40.5884 30.1895 40.5133 29.9972C39.9293 28.5039 39.3966 27.069 39.1567 25.8023C38.9153 24.5279 38.9891 23.5171 39.505 22.8009C40.0273 22.0782 40.9627 21.6921 42.2414 21.5279C43.5138 21.3646 45.0343 21.4318 46.6242 21.5318C46.8421 21.5455 47.0613 21.5598 47.2812 21.5742C48.6488 21.6635 50.0412 21.7545 51.2962 21.7086C52.7429 21.6556 54.095 21.4202 55.0485 20.7199C55.9932 20.0261 56.6235 18.8048 57.1137 17.4365C57.533 16.266 57.8701 14.9249 58.2022 13.6037C58.2612 13.3689 58.3201 13.1348 58.3792 12.9023C58.7752 11.3458 59.1836 9.86408 59.7361 8.69156C60.2917 7.51266 60.954 6.73075 61.8093 6.45085L61.8094 6.4508C62.624 6.18384 63.5836 6.42627 64.703 7.05649C65.8148 7.68241 66.9978 8.64096 68.2247 9.66676C68.3637 9.78291 68.5031 9.89992 68.6431 10.0173C69.7262 10.9259 70.8355 11.8564 71.9186 12.5842C73.1339 13.4009 74.384 14.0106 75.5912 14.0106C76.7981 14.0106 78.0485 13.4022 79.2647 12.5873C80.348 11.8614 81.4577 10.9334 82.5413 10.0272C82.6819 9.90965 82.822 9.79245 82.9616 9.67611C84.1896 8.65258 85.3737 7.6962 86.4863 7.0719C87.6065 6.44331 88.5669 6.20167 89.3818 6.46873L89.382 6.46878C90.2372 6.74864 90.8989 7.53045 91.4538 8.70932C92.0056 9.88183 92.4133 11.3635 92.8087 12.9201C92.8671 13.15 92.9252 13.3816 92.9835 13.6138C93.3158 14.9375 93.6533 16.2816 94.0738 17.4545C94.5644 18.8229 95.1959 20.0442 96.143 20.7379C97.0965 21.4382 98.4484 21.6735 99.8951 21.7265C101.15 21.7724 102.542 21.6815 103.91 21.5921C104.13 21.5778 104.349 21.5634 104.567 21.5497C106.157 21.4498 107.677 21.3825 108.95 21.5459C110.229 21.7101 111.164 22.0963 111.687 22.8192C112.202 23.5354 112.276 24.5461 112.035 25.8202C111.795 27.087 111.262 28.5219 110.678 30.0151C110.603 30.2074 110.527 30.4006 110.451 30.5944C109.94 31.8907 109.42 33.213 109.075 34.4469C108.68 35.8562 108.489 37.2305 108.856 38.3702L108.856 38.3703C109.213 39.4782 110.168 40.4499 111.304 41.3352C112.26 42.0796 113.397 42.8014 114.52 43.5146C114.743 43.6557 114.964 43.7964 115.184 43.9369C116.528 44.7968 117.799 45.6495 118.733 46.5492C119.671 47.4523 120.209 48.3436 120.209 49.2751C120.209 50.2065 119.671 51.0979 118.733 52.001C117.799 52.9007 116.528 53.7533 115.184 54.6132C114.964 54.7537 114.743 54.8945 114.52 55.0356C113.397 55.7488 112.26 56.4705 111.304 57.215C110.168 58.1003 109.213 59.072 108.856 60.1798L108.856 60.18C108.489 61.3197 108.68 62.694 109.075 64.1033C109.42 65.3372 109.94 66.6594 110.451 67.9557C110.527 68.1495 110.603 68.3428 110.678 68.535C111.262 70.0283 111.795 71.4632 112.035 72.7299C112.276 74.0043 112.202 75.0151 111.686 75.7314C111.164 76.454 110.229 76.8401 108.95 77.0043C107.677 77.1676 106.157 77.1004 104.567 77.0004C104.349 76.9867 104.13 76.9724 103.91 76.958C102.543 76.8687 101.15 76.7777 99.8951 76.8237C98.4483 76.8766 97.0963 77.112 96.1428 77.8124C95.198 78.5061 94.5677 79.7274 94.0775 81.0958C93.6582 82.2663 93.3211 83.6073 92.989 84.9285C92.93 85.1633 92.8712 85.3974 92.812 85.6299C92.4161 87.1864 92.0076 88.6681 91.4551 89.8407C90.8997 91.0193 90.2376 91.8011 89.3826 92.0812C88.5674 92.3464 87.6068 92.1036 86.4864 91.4745C85.3737 90.8498 84.1896 89.8936 82.9615 88.8706C82.823 88.7552 82.6839 88.639 82.5444 88.5224C81.4598 87.6159 80.349 86.6875 79.2646 85.9615C78.0484 85.1473 76.798 84.5395 75.5912 84.5395C74.3842 84.5395 73.1338 85.1479 71.9176 85.9628C70.8343 86.6888 69.7245 87.6168 68.6409 88.5231C68.5004 88.6406 68.3603 88.7578 68.2208 88.874C66.9927 89.8976 65.8086 90.854 64.696 91.4783C63.5758 92.1068 62.6155 92.3485 61.8005 92.0814L61.8004 92.0814C60.9452 91.8015 60.2834 91.0197 59.7286 89.8408C59.1767 88.6683 58.7691 87.1866 58.3737 85.63C58.3153 85.4001 58.2571 85.1685 58.1988 84.9363C57.8665 83.6126 57.5291 82.2685 57.1085 81.0957C56.6179 79.7271 55.9863 78.5057 55.0392 77.8121M42.3265 60.171L39.4961 75.7224C40.0184 76.445 40.9538 76.8311 42.2326 76.9955C43.505 77.159 45.0255 77.092 46.6155 76.9925C46.8311 76.9791 47.048 76.965 47.2656 76.9509C48.6355 76.8619 50.0304 76.7714 51.2876 76.8185C52.7341 76.8727 54.0857 77.1098 55.0392 77.8121M42.3265 60.171C42.6933 61.3107 42.5019 62.685 42.1075 64.0943C41.7622 65.3282 41.2419 66.6505 40.7318 67.9468C40.6556 68.1406 40.5795 68.3338 40.5044 68.5261C39.9204 70.0193 39.3877 71.4542 39.1478 72.721C38.9065 73.9951 38.9801 75.0057 39.4958 75.7219L42.3265 60.171ZM55.0392 77.8121L54.8028 78.1348L55.0402 77.8128C55.0398 77.8126 55.0395 77.8123 55.0392 77.8121Z" fill="#ACBFFF" stroke="black" stroke-width="0.8"/>
<path d="M69.5678 37.7988C69.2429 32.8003 67.6813 28.5909 65.6003 26.7065C64.776 25.9841 63.9307 25.5681 63.0537 25.6117C59.8532 25.8068 57.6588 31.5592 58.0552 38.512C58.4551 45.4138 61.4199 50.8976 64.5693 50.6991C65.3951 50.652 66.1977 50.193 66.8643 49.4683C68.7584 47.3383 69.8858 42.8993 69.5678 37.7988Z" fill="white" stroke="black" stroke-width="0.8" stroke-miterlimit="10"/>
<path d="M66.869 49.4174C63.8505 49.2143 61.1476 44.4151 60.7904 38.3887C60.8045 38.1844 60.7673 37.9767 60.7779 37.8235L65.599 37.2245L60.8754 34.9058C61.3375 30.4223 63.162 27.0564 65.6017 26.7076C67.6824 28.5919 69.2402 32.8522 69.5686 37.7994C69.8865 42.8997 68.7593 47.3385 66.869 49.4174Z" fill="black" stroke="black" stroke-width="0.8" stroke-miterlimit="10"/>
<path d="M90.5489 36.5019C90.2239 31.5035 88.6624 27.294 86.5813 25.4097C85.7571 24.6873 84.9117 24.2712 84.0348 24.3148C80.8342 24.5099 78.6399 30.2624 79.0363 37.2152C79.4362 44.1169 82.401 49.6008 85.5504 49.4022C86.3761 49.3552 87.1788 48.8961 87.8454 48.1714C89.7395 46.0414 90.8669 41.6025 90.5489 36.5019Z" fill="white" stroke="black" stroke-width="0.8" stroke-miterlimit="10"/>
<path d="M87.8467 48.1718C84.8282 47.9686 82.1252 43.1695 81.7681 37.1431C81.7821 36.9388 81.745 36.7311 81.7555 36.5779L86.5767 35.9789L81.8531 33.6602C82.3152 29.1767 84.1397 25.8108 86.5793 25.462C88.66 27.3463 90.2178 31.6066 90.5463 36.5538C90.8677 41.6031 89.7405 46.0419 87.8467 48.1718Z" fill="black" stroke="black" stroke-width="0.8" stroke-miterlimit="10"/>
<path d="M73.4958 40.6836L73.6489 42.9512C73.6489 42.9512 73.8537 42.965 73.9084 42.9174C75.1987 42.8505 76.731 43.0051 76.9296 44.6089C77.1108 46.468 75.0105 47.096 73.6121 46.4887" fill="#ACBFFF"/>
<path d="M73.4958 40.6836L73.6489 42.9512C73.6489 42.9512 73.8537 42.965 73.9084 42.9174C75.1987 42.8505 76.731 43.0051 76.9296 44.6089C77.1108 46.468 75.0105 47.096 73.6121 46.4887" stroke="black" stroke-width="0.8" stroke-miterlimit="10"/>
<path d="M71.8061 58.6262C72.7356 60.0742 73.9526 61.0798 75.6527 61.0404C77.3017 60.9976 78.3992 59.9941 79.1664 58.5579C81.1221 54.7902 80.6045 48.0852 80.6045 48.0852L76.9959 48.2012L72.4588 48.3572L69.3145 48.4531C69.311 48.5042 69.4842 54.9807 71.8061 58.6262Z" fill="black" stroke="black" stroke-width="0.8" stroke-miterlimit="10"/>
<path d="M71.7741 58.3667C72.6966 59.9169 73.958 61.0282 75.6583 60.9889C77.3074 60.9461 78.4085 59.8914 79.1828 58.3528C78.9784 56.0813 77.1924 54.3702 75.1743 54.542C73.3134 54.6732 71.863 56.3201 71.7741 58.3667Z" fill="#E30611" stroke="black" stroke-width="0.8" stroke-miterlimit="10"/>
<path d="M80.8001 45.9994C80.3896 46.7412 79.4417 48.5752 79.5261 51.0944C79.6511 53.7702 80.862 55.596 81.3827 56.2466" fill="#ACBFFF"/>
<path d="M80.8001 45.9994C80.3896 46.7412 79.4417 48.5752 79.5261 51.0944C79.6511 53.7702 80.862 55.596 81.3827 56.2466" stroke="black" stroke-width="0.8" stroke-miterlimit="10"/>
<path d="M68.8989 46.2191C69.31 46.965 70.2102 48.8211 70.09 51.3264C69.9593 53.9849 68.7051 55.7982 68.196 56.4819" fill="#ACBFFF"/>
<path d="M68.8989 46.2191C69.31 46.965 70.2102 48.8211 70.09 51.3264C69.9593 53.9849 68.7051 55.7982 68.196 56.4819" stroke="black" stroke-width="0.8" stroke-miterlimit="10"/>
<path d="M41.3419 58.5518C41.8467 58.9548 42.4663 60.9461 42.4663 60.9461C42.4663 60.9461 41.3728 61.3965 39.8884 61.8473C35.8898 62.9311 31.9447 61.9599 28.7721 59.337C25.727 56.8063 23.6584 53.3336 21.7984 49.8954C20.8974 48.2166 20.0255 46.5783 19.2459 44.8128C18.8852 43.9704 18.5244 43.1281 18.1637 42.2857C17.7563 41.2934 17.3894 40.2721 17.011 39.32C17.011 39.32 16.982 39.2797 16.9529 39.2393C16.6212 38.4373 16.2895 37.6353 15.9868 36.8737C15.5099 35.8699 16.2137 34.6338 17.1973 34.298C18.2619 33.9043 19.3748 34.5149 19.7822 35.5073C20.0383 36.1189 20.3057 36.6612 20.5213 37.3017C20.9577 38.3344 21.3827 39.4365 21.7787 40.4982C22.2037 41.6002 22.6577 42.7426 23.1927 43.8272C23.937 45.3734 24.7975 47.081 25.5648 48.4886C27.1864 51.4249 29.0341 54.5053 31.6902 56.5804C34.0913 58.4711 35.4021 59.4472 38.3872 58.2318C40.5682 57.3463 39.9073 57.6057 39.9073 57.6057C39.9073 57.6057 40.4654 57.8521 41.3419 58.5518Z" fill="black"/>
<path d="M13.1778 40.3522C13.1778 40.3522 -0.958811 27.5809 3.299 24.0619C3.299 24.0619 4.88194 22.9313 6.37898 24.0134C6.37898 24.0134 5.90953 19.807 9.67898 20.9394C12.0283 21.6518 12.6194 26.2494 12.6194 26.2494C12.6939 25.7978 13.2364 25.3306 13.5679 25.0142C14.4041 24.1779 15.3539 23.4996 16.4551 23.0318C18.0541 22.3679 20.3414 22.3278 21.2661 24.0577C21.3039 24.1104 21.3418 24.163 21.3269 24.2533C21.9946 25.8481 20.4737 27.7312 18.7667 27.3567C17.5508 27.1096 16.1089 27.1037 15.1672 28.0153C13.8791 29.3337 14.5778 31.3047 16.1872 31.9878C18.1442 32.8211 21.0325 31.3956 21.1229 27.7455C21.1217 27.1886 20.9772 26.6544 21.1572 26.1274C21.4049 25.4724 22.2423 25.1931 22.832 25.5688C24.8578 26.8309 27.4747 32.6907 21.0191 35.7079" fill="white"/>
<path d="M13.1778 40.3522C13.1778 40.3522 -0.958811 27.5809 3.299 24.0619C3.299 24.0619 4.88194 22.9313 6.37898 24.0134C6.37898 24.0134 5.90953 19.807 9.67898 20.9394C12.0283 21.6518 12.6194 26.2494 12.6194 26.2494C12.6939 25.7978 13.2364 25.3306 13.5679 25.0142C14.4041 24.1779 15.3539 23.4996 16.4551 23.0318C18.0541 22.3679 20.3414 22.3278 21.2661 24.0577C21.3039 24.1104 21.3418 24.163 21.3269 24.2533C21.9946 25.8481 20.4737 27.7312 18.7667 27.3567C17.5508 27.1096 16.1089 27.1037 15.1672 28.0153C13.8791 29.3337 14.5778 31.3047 16.1872 31.9878C18.1442 32.8211 21.0325 31.3956 21.1229 27.7455C21.1217 27.1886 20.9772 26.6544 21.1572 26.1274C21.4049 25.4724 22.2423 25.1931 22.832 25.5688C24.8578 26.8309 27.4747 32.6907 21.0191 35.7079" stroke="black" stroke-width="0.8" stroke-miterlimit="10"/>
<path d="M6.34186 23.9656L8.85658 28.4618" stroke="black" stroke-width="0.8" stroke-miterlimit="10"/>
<path d="M19.0236 37.0466L21.0521 35.7571C23.7369 34.1584 29.2089 36.5464 19.9544 41.5624C10.662 46.5256 13.2386 40.222 13.2386 40.222C13.5932 40.0485 14.0911 39.8522 14.5133 39.5507C14.9206 39.3394 15.2901 39.0756 15.5689 38.7967" fill="white"/>
<path d="M19.0236 37.0466L21.0521 35.7571C23.7369 34.1584 29.2089 36.5464 19.9544 41.5624C10.662 46.5256 13.2386 40.222 13.2386 40.222C13.5932 40.0485 14.0911 39.8522 14.5133 39.5507C14.9206 39.3394 15.2901 39.0756 15.5689 38.7967" stroke="black" stroke-width="0.8" stroke-miterlimit="10"/>
<path d="M43.9427 15.3651L46.7671 17.0422C46.8873 16.9224 49.5313 14.287 49.5313 14.287C55.2401 9.136 68.16 -0.147788 83.6038 5.2428C90.935 7.75841 96.9443 13.2688 101.091 18.1203C101.872 19.0187 102.593 19.9172 103.254 20.7557C104.456 22.2531 105.417 23.6307 106.138 24.7088L108.903 23.2114C105.297 17.9406 96.9443 7.21935 84.385 2.84698C64.9751 -3.8613 49.7717 9.49538 45.0845 14.2271C44.6038 14.7063 44.2432 15.1255 43.9427 15.3651Z" fill="#E30611" stroke="black" stroke-width="0.8" stroke-miterlimit="10"/>
<path d="M46.3464 41.0602C47.8487 40.9404 49.2909 40.4612 50.5529 39.6826C50.613 39.6826 50.613 39.6227 50.673 39.6227V15.6046V14.826C50.613 14.826 50.613 14.7661 50.5529 14.7661C49.7717 14.4067 48.9905 14.1671 48.1492 14.0474C47.5483 13.9875 46.9473 13.9276 46.2863 13.9875C40.2771 14.4067 35.4096 20.8155 35.4697 28.2426C35.4697 35.7894 40.3372 41.4795 46.3464 41.0602Z" fill="#E30611" stroke="black" stroke-width="0.8" stroke-miterlimit="10"/>
<path d="M105.117 44.7737C104.456 44.8336 103.855 44.8336 103.254 44.7138C102.653 44.6539 102.052 44.4742 101.451 44.2945C101.331 33.3337 101.151 23.0915 101.091 18.8989C102.293 18.24 103.615 17.8207 104.937 17.7608C111.006 17.2817 115.994 22.9717 116.054 30.3988C116.054 37.8258 111.186 44.2945 105.117 44.7737Z" fill="#E30611" stroke="black" stroke-width="0.8" stroke-miterlimit="10"/>
<path d="M101.043 62.6311L94.3118 58.6242L90.6403 64.1101L89.1481 66.4021L88.0777 68.0211L79.6642 80.612L79.3353 85.2234L79.1063 88.4348C80.0945 87.9686 81.0886 87.4201 82.0769 86.9538L86.2127 84.854L94.7648 72.0662L95.8352 70.4472L97.3274 68.1552L101.043 62.6311Z" fill="#5663F1" stroke="black" stroke-width="0.8" stroke-miterlimit="10"/>
<path d="M79.6568 80.6144L81.9307 79.5798L81.8696 82.182L84.3822 80.7095L84.1 83.5025L86.2471 82.5L86.2036 84.8552L79.1432 88.397L79.6568 80.6144Z" fill="white" stroke="black" stroke-width="0.8" stroke-miterlimit="10"/>
<path d="M79.37 85.1872C79.4968 85.155 80.3579 84.7211 81.1988 85.1545C82.1163 85.6763 82.1167 86.8349 82.1108 86.9172C81.1228 87.3833 80.1289 87.9317 79.1409 88.3978L79.37 85.1872Z" fill="black" stroke="black" stroke-width="0.8" stroke-miterlimit="10"/>
<path d="M81.8968 79.6183L95.5084 59.3726" stroke="black" stroke-width="0.8" stroke-miterlimit="10"/>
<path d="M84.3417 80.828L97.6168 60.6409" stroke="black" stroke-width="0.8" stroke-miterlimit="10"/>
<path d="M86.2491 82.5783L99.8131 61.8328" stroke="black" stroke-width="0.8" stroke-miterlimit="10"/>
<path d="M95.017 57.6364C95.017 57.6364 97.2924 53.6651 100.841 55.7017C104.428 57.7824 101.745 61.6414 101.745 61.6414L95.017 57.6364Z" fill="#FF1F33" stroke="black" stroke-width="0.8" stroke-miterlimit="10"/>
<path d="M98.9175 56.5151C98.0706 56.1639 96.923 56.5358 96.2742 57.4819C96.1356 57.6787 95.8995 57.496 96.0381 57.2992C96.7813 56.1944 98.1826 55.7582 99.1062 56.1978C99.2714 56.2098 99.1211 56.5713 98.9175 56.5151Z" fill="white"/>
<path d="M99.3564 56.7527C99.1968 56.6583 99.4301 56.3023 99.5838 56.4792C99.7876 56.5354 99.5544 56.8914 99.3564 56.7527Z" fill="white"/>
<path d="M94.324 58.6221L101.089 62.6704L101.743 61.6427L95.0166 57.6385L94.324 58.6221Z" fill="black" stroke="black" stroke-width="0.8" stroke-miterlimit="10"/>
<path d="M93.6386 74.0545C93.8916 74.1948 94.1446 74.3351 94.3975 74.4754C96.2036 75.3946 98.0096 76.3138 99.8858 77.1069C101.411 77.7876 102.921 78.4193 104.418 79.0019C104.72 79.1282 105.072 79.2406 105.374 79.3669C108.782 80.6796 113.173 82.084 116.719 80.5448C122.197 78.138 119.121 70.9465 117.081 67.1752C114.816 62.9904 112.918 62.1325 109.516 58.8018L108.806 60.6805L108.808 62.8079C110.474 64.722 112.15 67.0388 113.367 69.2399C113.951 70.3474 114.499 71.518 114.936 72.6675C115.253 73.5856 115.675 74.6861 115.584 75.667C115.599 75.7161 115.486 76.0664 115.501 76.1154C115.465 76.1785 115.43 76.2415 115.43 76.2415C115.395 76.3045 115.276 76.4446 115.227 76.4586L115.178 76.4726C114.911 76.6546 114.209 76.8012 113.9 76.8361C112.846 76.8704 111.75 76.7575 110.661 76.4835C108.335 75.9774 105.967 74.9528 103.74 74.0473C102.833 73.6683 101.99 73.3244 101.133 72.9314C100.149 72.4683 99.1652 72.0051 98.1814 71.542C97.4365 71.1701 96.6916 70.7982 95.9959 70.4123C95.4977 71.0847 95.0487 71.7431 94.6629 72.4365C94.298 73.0179 93.9683 73.5362 93.6386 74.0545Z" fill="black"/>
<path d="M101.592 70.8774C101.214 70.7759 101.186 69.9495 101.139 69.5454C100.943 67.1669 98.907 65.1719 97.4614 64.2611C96.8814 63.939 95.0489 62.6513 93.9087 63.0448C91.435 63.8867 94.163 67.5629 94.9833 68.7209C94.3115 68.564 94.1643 68.5362 94.017 68.5085C93.7226 68.4531 93.4096 68.3333 93.0508 68.2962C92.5077 68.1027 91.9188 67.9918 91.3757 67.7983C90.0595 67.3376 88.8536 66.7761 87.5374 66.3154C86.6814 66.0022 85.3008 65.5598 84.5105 66.2016C83.9407 66.6417 84.0337 67.4499 84.1542 68.1112C84.1542 68.1112 84.1542 68.1112 84.1727 68.1755C84.1727 68.1755 81.4689 68.9436 83.432 71.6547C83.1287 71.8105 82.8068 71.9019 82.6876 72.214C82.1554 73.2693 83.4454 74.8503 84.072 75.5764C85.6476 77.424 87.9039 79.2172 90.0856 80.2666C91.936 81.132 93.9603 81.3915 95.9744 80.8888C96.3607 80.7791 96.7469 80.6694 97.1332 80.5596C97.455 80.4682 98.0249 80.0281 98.3193 80.0836C98.3193 80.0836 98.4487 80.5336 98.4672 80.5979C98.6425 80.9655 98.8821 81.3147 99.1677 81.5813C99.8401 82.2249 100.871 82.4189 101.698 81.9057C102.939 81.1358 103.278 79.6487 103.607 78.3727C103.991 76.803 104.541 75.3252 105.009 73.8015C106.475 69.212 102.888 70.3004 102.41 70.5753C101.638 70.7948 101.803 70.8868 101.592 70.8774Z" fill="white" stroke="black" stroke-width="0.8" stroke-miterlimit="10"/>
<path d="M92.3201 72.0613C92.3201 72.0613 86.9546 70.5949 84.1361 68.0571" stroke="black" stroke-width="0.8" stroke-miterlimit="10"/>
<path d="M83.3265 71.5539C83.3265 71.5539 87.2861 74.6711 90.4243 75.6573" stroke="black" stroke-width="0.8" stroke-miterlimit="10"/>
<path d="M101.497 70.7603L100.892 72.5311" stroke="black" stroke-width="0.8" stroke-miterlimit="10"/>
<path d="M98.7727 78.2751L98.3427 79.9268" stroke="black" stroke-width="0.8" stroke-miterlimit="10"/>
<path d="M96.7506 108.1L87.1999 107.843L86.8773 119.999L110.109 120.192L110.238 117.426C110.238 117.426 108.753 112.152 96.6861 113.567L96.7506 108.1Z" fill="#F96F6F" stroke="black" stroke-width="0.8" stroke-miterlimit="10"/>
<path d="M103.526 113.503C109.334 114.339 110.238 117.426 110.238 117.426L110.109 120.192L101.784 120.128C102.042 117.812 102.558 115.625 103.526 113.503Z" fill="white" stroke="black" stroke-width="0.8" stroke-miterlimit="10"/>
<path d="M87.0064 117.041L110.238 117.426L110.109 120.192L86.8773 119.999L87.0064 117.041Z" fill="white" stroke="black" stroke-width="0.8" stroke-miterlimit="10"/>
<path d="M96.5569 110.288V109.966L92.4269 109.837V110.159L96.5569 110.288Z" fill="white"/>
<path d="M92.4301 111.98L96.4944 112.084L96.4877 112.342L92.4235 112.238L92.4301 111.98Z" fill="white"/>
<path d="M92.2332 110.223C92.0906 110.223 91.9751 110.108 91.9751 109.966C91.9751 109.823 92.0906 109.708 92.2332 109.708C92.3758 109.708 92.4913 109.823 92.4913 109.966C92.4913 110.108 92.3758 110.223 92.2332 110.223Z" fill="white" stroke="white" stroke-width="0.8" stroke-miterlimit="10"/>
<path d="M92.169 112.346C92.0264 112.346 91.9109 112.231 91.9109 112.088C91.9109 111.946 92.0264 111.831 92.169 111.831C92.3116 111.831 92.4271 111.946 92.4271 112.088C92.4271 112.231 92.3116 112.346 92.169 112.346Z" fill="white" stroke="white" stroke-width="0.8" stroke-miterlimit="10"/>
<path d="M46.6022 105.364L52.8257 98.1153L43.5958 90.1975L28.7934 108.103L30.8582 109.948C30.8582 109.948 35.8872 112.123 42.4004 101.866L46.6022 105.364Z" fill="#F96F6F" stroke="black" stroke-width="0.8" stroke-miterlimit="10"/>
<path d="M38.1357 107.214C33.8237 111.194 30.858 109.948 30.858 109.948L28.7932 108.103L34.0937 101.684C35.7277 103.345 37.0991 105.124 38.1357 107.214Z" fill="white" stroke="black" stroke-width="0.8" stroke-miterlimit="10"/>
<path d="M45.8101 92.1638L30.858 109.948L28.7932 108.103L43.5956 90.1975L45.8101 92.1638Z" fill="white" stroke="black" stroke-width="0.8" stroke-miterlimit="10"/>
<path d="M45.0266 103.834L45.2766 104.037L47.9815 100.914L47.7315 100.711L45.0266 103.834Z" fill="white"/>
<path d="M46.3163 99.5644L43.6718 102.652L43.476 102.485L46.1206 99.3967L46.3163 99.5644Z" fill="white"/>
<path d="M47.8036 100.52C47.8935 100.409 48.056 100.392 48.1664 100.482C48.2769 100.572 48.2935 100.734 48.2036 100.845C48.1137 100.955 47.9512 100.972 47.8408 100.882C47.7304 100.793 47.7137 100.63 47.8036 100.52Z" fill="white" stroke="white" stroke-width="0.8" stroke-miterlimit="10"/>
<path d="M46.197 99.1309C46.287 99.0202 46.4494 99.0033 46.5598 99.0931C46.6703 99.1829 46.6869 99.3453 46.597 99.4559C46.5071 99.5666 46.3447 99.5835 46.2342 99.4937C46.1238 99.4039 46.1071 99.2415 46.197 99.1309Z" fill="white" stroke="white" stroke-width="0.8" stroke-miterlimit="10"/>
</svg>
