<svg width="118" height="124" viewBox="0 0 118 124" fill="none" xmlns="http://www.w3.org/2000/svg">
<path d="M38.8539 57.609C48.6601 71.7593 49.8137 92.9206 46.4052 110.351C45.5661 114.532 40.2698 112.988 41.1088 108.808C43.993 93.9497 43.6259 74.718 35.1307 62.4973C32.8759 59.2813 36.5466 54.3286 38.8539 57.609Z" fill="black"/>
<path d="M40.1993 112.438C40.1993 112.438 37.0405 109.715 43.5237 109.705C50.4626 109.688 46.0132 112.507 46.0132 112.507L47.0207 113.101C47.0207 113.101 54.6293 107.44 57.2655 113.323C59.9018 119.205 51.8414 120.022 46.9226 119.998C42.0037 119.973 36.6285 120.927 40.1993 112.438Z" fill="#E30611" stroke="black" stroke-width="0.8" stroke-miterlimit="10"/>
<path d="M40.1995 112.438C40.1995 112.438 41.2674 113.047 42.9851 112.925Z" fill="black"/>
<path d="M40.1995 112.438C40.1995 112.438 41.2674 113.047 42.9851 112.925" stroke="black" stroke-width="0.8" stroke-miterlimit="10"/>
<path d="M44.8397 112.775C44.8397 112.775 45.2187 112.812 45.9689 112.431Z" fill="black"/>
<path d="M44.8397 112.775C44.8397 112.775 45.2187 112.812 45.9689 112.431" stroke="black" stroke-width="0.8" stroke-miterlimit="10"/>
<path d="M47.0207 113.101L44.725 115.138" stroke="black" stroke-width="0.8" stroke-miterlimit="10"/>
<path d="M47.0205 113.101L46.7968 115.629" stroke="black" stroke-width="0.8" stroke-miterlimit="10"/>
<path d="M55.4927 60.748C65.4572 74.4197 66.6295 94.8652 63.1659 111.706C62.3133 115.746 56.9314 114.254 57.784 110.215C60.7148 95.8595 60.3418 77.2784 51.7094 65.471C49.4181 62.3638 53.2014 57.5787 55.4927 60.748Z" fill="black"/>
<path d="M57.0309 112.437C57.0309 112.437 53.872 109.715 60.3553 109.705C67.2941 109.688 62.8448 112.507 62.8448 112.507L63.8523 113.101C63.8523 113.101 71.4608 107.44 74.0971 113.322C76.7333 119.205 68.673 120.021 63.7541 119.997C58.8352 119.973 53.46 120.927 57.0309 112.437Z" fill="#E30611" stroke="black" stroke-width="0.8" stroke-miterlimit="10"/>
<path d="M57.0311 112.438C57.0311 112.438 58.0991 113.047 59.8168 112.925Z" fill="black"/>
<path d="M57.0311 112.438C57.0311 112.438 58.0991 113.047 59.8168 112.925" stroke="black" stroke-width="0.8" stroke-miterlimit="10"/>
<path d="M61.6714 112.775C61.6714 112.775 62.0504 112.812 62.8006 112.431Z" fill="black"/>
<path d="M61.6714 112.775C61.6714 112.775 62.0504 112.812 62.8006 112.431" stroke="black" stroke-width="0.8" stroke-miterlimit="10"/>
<path d="M63.8524 113.101L61.5567 115.138" stroke="black" stroke-width="0.8" stroke-miterlimit="10"/>
<path d="M63.8522 113.1L63.6284 115.628" stroke="black" stroke-width="0.8" stroke-miterlimit="10"/>
<path d="M70.5704 111.73C70.7961 111.855 71.0218 111.981 71.1709 112.15C71.3965 112.275 71.5456 112.444 71.6946 112.614C72.0532 112.969 72.3513 113.307 72.4961 113.734C72.7175 114.117 72.8462 114.605 72.9144 115.076C72.9825 115.547 72.9741 116.062 72.9818 116.517L73.0422 116.533C73.1069 116.292 73.1112 116.034 73.1759 115.793C73.1801 115.535 73.2448 115.294 73.1886 115.02C73.197 114.504 73.0079 114.001 72.8027 113.558C72.3316 112.655 71.5217 112.05 70.5704 111.73Z" fill="white"/>
<path d="M6.98054 29.632C7.89871 29.448 9.09233 30.0458 9.23006 31.0575C10.1023 37.6332 11.2041 44.117 13.3159 50.4168C14.1423 52.854 15.29 55.4751 17.4018 57.0845C19.5595 58.7859 22.1763 59.1538 24.839 59.1078C28.1444 59.0158 31.358 58.3721 34.6634 58.2801C35.6734 58.2341 36.4997 59.2917 36.4538 60.2574C36.4079 61.2691 35.4897 61.9588 34.4797 61.9588C28.4198 62.1887 21.9008 64.258 16.3 60.8552C13.5914 59.1998 11.755 56.5327 10.5614 53.6817C9.32188 50.6927 8.44962 47.5198 7.66917 44.3929C6.65918 40.2543 6.06237 36.0238 5.51147 31.8392C5.41965 30.8275 5.92465 29.8619 6.98054 29.632Z" fill="black"/>
<path d="M7.21033 29.4943C7.21033 29.4943 8.31213 19.8836 11.6635 20.4814C14.2802 20.9872 11.4798 30.184 11.4798 30.184L7.21033 29.4943Z" fill="white" stroke="black" stroke-width="0.8" stroke-miterlimit="10"/>
<path d="M3.85896 29.6321C3.85896 29.6321 -0.318716 21.0791 3.03261 20.4813C6.38393 19.8835 7.48573 29.1723 7.48573 29.1723L3.85896 29.6321Z" fill="white" stroke="black" stroke-width="0.8" stroke-miterlimit="10"/>
<path d="M12.5357 30.7356C12.5357 30.7356 15.6116 34.7822 11.893 37.3573C11.893 37.3573 13.8211 38.8288 11.5257 39.9324C9.23028 41.036 4.13444 41.4039 5.05261 38.6449C5.05261 38.6449 -0.135056 36.5756 2.06855 31.1035L12.5357 30.7356Z" fill="white" stroke="black" stroke-width="0.8" stroke-miterlimit="10"/>
<path d="M11.9388 37.3115C11.9388 37.3115 10.7452 38.0473 9.68933 38.2312" stroke="black" stroke-width="0.8" stroke-miterlimit="10"/>
<path d="M7.30163 38.553C7.30163 38.553 6.38346 38.7825 5.09802 38.6448" stroke="black" stroke-width="0.8" stroke-miterlimit="10"/>
<path d="M1.47169 28.7124C2.02259 28.4365 2.80304 28.5285 3.35394 28.8504C4.18029 29.3102 4.63938 30.2759 4.91483 31.1496C5.14437 31.8853 5.23619 32.851 4.50165 33.4028C3.44576 34.1386 2.38986 33.3568 1.70123 32.5291C1.05851 31.7474 0.50761 30.6438 0.737152 29.6321C0.874878 29.1723 1.15033 28.8504 1.47169 28.7124Z" fill="white" stroke="black" stroke-width="0.8" stroke-miterlimit="10"/>
<path d="M12.5815 30.7818C10.7911 28.8964 6.56751 29.0804 5.05253 29.1723C4.18026 29.2183 3.26209 29.4482 2.98664 30.276C1.97665 33.035 8.17431 33.8627 8.17431 33.8627C8.17431 33.8627 7.6234 35.84 9.36793 36.3459" fill="white"/>
<path d="M12.5815 30.7818C10.7911 28.8964 6.56751 29.0804 5.05253 29.1723C4.18026 29.2183 3.26209 29.4482 2.98664 30.276C1.97665 33.035 8.17431 33.8627 8.17431 33.8627C8.17431 33.8627 7.6234 35.84 9.36793 36.3459" stroke="black" stroke-width="0.8" stroke-miterlimit="10"/>
<path d="M66.3468 22.8384L93.2429 69.4238C97.7077 77.1571 92.1266 86.8238 83.197 86.8238H29.4049C20.4752 86.8238 14.8941 77.1571 19.359 69.4238L46.255 22.8384C50.7199 15.1051 61.882 15.1051 66.3468 22.8384Z" fill="#D9D9D9" stroke="black" stroke-width="0.8"/>
<path d="M67.9092 16.5063C67.9092 16.5063 78.5358 19.7235 76.298 28.5036L56.1044 28.3185L36.1954 26.4175C35.099 19.7329 43.7566 16.4003 43.7566 16.4003C43.8833 16.3458 44.0286 12.7654 44.108 12.4607C44.3381 10.6178 44.9271 8.98135 46.0666 7.43886C48.4181 4.17246 52.4617 1.56142 56.6669 1.49673C62.4224 1.33662 67.034 5.99822 68.0276 11.2537C68.2133 12.3164 68.2758 13.3719 68.2152 14.4203C68.1465 14.5401 67.7896 16.4375 67.9092 16.5063Z" fill="#5663F1" stroke="black" stroke-width="0.8" stroke-miterlimit="10"/>
<path d="M35.2022 33.9717C40.3737 33.2209 56.2802 31.6717 78.2556 36.291C79.4765 36.5476 80.6383 35.6872 80.6445 34.5121C80.64 33.522 80.8202 32.5426 80.6925 31.5453C80.5095 29.3693 79.7641 26.2327 77.1448 25.5853C73.0003 24.6018 67.5342 24.0363 62.4411 23.4307C54.2218 22.3957 43.9312 21.9207 35.2694 24.2626C34.7661 24.4189 34.3137 24.7638 34.1004 25.2463C33.6123 26.2078 33.1064 27.4775 32.8905 29.0735C32.6925 30.3612 32.7479 31.5399 32.9371 32.5407C33.1335 33.4183 34.0831 34.0922 35.2022 33.9717Z" fill="#5663F1" stroke="black" stroke-width="0.8" stroke-miterlimit="10"/>
<path d="M43.1963 22.8677L43.1592 33.1383" stroke="black" stroke-width="0.8" stroke-miterlimit="10"/>
<path d="M52.7258 22.6167L52.2352 33.2324" stroke="black" stroke-width="0.8" stroke-miterlimit="10"/>
<path d="M62.2562 23.418L61.4678 33.8307" stroke="black" stroke-width="0.8" stroke-miterlimit="10"/>
<path d="M71.7681 24.5277L70.6861 34.6757" stroke="black" stroke-width="0.8" stroke-miterlimit="10"/>
<path d="M50.356 68.3489C53.2024 70.4182 56.921 70.878 60.2723 69.9583C61.4659 69.6364 62.7513 69.0846 63.899 68.3029C65.6895 67.1073 67.0208 65.4059 66.9749 63.1987C66.8831 61.1753 65.3681 60.6235 63.5777 60.6235C62.0168 60.6235 60.2264 61.0834 59.1246 61.3593C58.1605 61.5892 57.2423 61.7731 56.2323 61.7272C54.6714 61.6352 53.2024 60.9454 51.6874 60.7615C51.366 60.7155 51.0447 60.7155 50.6774 60.7615C49.6215 60.8075 48.4279 61.0834 47.7393 61.7731C45.7193 63.7505 48.7951 67.1533 50.356 68.3489Z" fill="black" stroke="black" stroke-width="0.8" stroke-miterlimit="10"/>
<path d="M50.356 68.3487C53.2024 70.418 56.921 70.8778 60.2723 69.9581C61.4659 69.6362 62.7513 69.0844 63.899 68.3027C62.5218 66.4173 59.9968 65.1758 57.1505 65.1758C54.2124 65.1298 51.7333 66.4173 50.356 68.3487Z" fill="#E30611" stroke="black" stroke-width="0.8" stroke-miterlimit="10"/>
<path d="M87.1666 80.1379C86.7239 77.4958 84.3081 76.0409 81.7438 76.9398C79.1731 77.8009 77.4407 80.6552 77.8457 83.3036C78.2884 85.9457 80.7042 87.4007 83.2685 86.5018C85.8392 85.6406 87.6093 82.78 87.1666 80.1379ZM82.6566 84.4704C81.1168 85.0022 79.651 84.1243 79.3853 82.539C79.1197 80.9537 80.1554 79.2651 81.6953 78.7333C83.2351 78.2016 84.7009 79.0795 84.9666 80.6648C85.2322 82.25 84.2028 83.9764 82.6566 84.4704Z" fill="#F96F6F" stroke="black" stroke-width="0.8" stroke-miterlimit="10"/>
<path d="M79.9794 74.7109C79.9794 74.7109 82.0633 90.386 69.7429 91.6133C58.0699 92.7699 57.1991 76.9287 57.1991 76.9287L79.9794 74.7109Z" fill="#F96F6F" stroke="black" stroke-width="0.8" stroke-miterlimit="10"/>
<path d="M79.9613 74.7C79.7855 72.8712 74.5485 71.8839 68.264 72.4948C61.9796 73.1056 57.0275 75.0834 57.2032 76.9121C57.379 78.7409 62.616 79.7282 68.9005 79.1173C75.1849 78.5065 80.137 76.5288 79.9613 74.7Z" fill="#F96F6F" stroke="black" stroke-width="0.8" stroke-miterlimit="10"/>
<path d="M57.9537 77.9598C57.5197 77.6841 57.2743 77.3765 57.1734 77.0057C58.7239 75.1539 61.1114 74.3631 63.8524 74.9863C65.9521 75.485 67.4802 76.2742 69.5469 75.1884C71.645 74.0586 73.297 73.043 75.8368 73.6225C77.1255 73.9092 78.7096 74.1071 79.9798 74.7459C80.0508 76.5566 75.1441 78.5096 68.9224 79.0944C64.1902 79.5442 60.0478 79.1188 58.2052 78.0725" fill="black"/>
<path d="M57.9537 77.9598C57.5197 77.6841 57.2743 77.3765 57.1734 77.0057C58.7239 75.1539 61.1114 74.3631 63.8524 74.9863C65.9521 75.485 67.4802 76.2742 69.5469 75.1884C71.645 74.0586 73.297 73.043 75.8368 73.6225C77.1255 73.9092 78.7096 74.1071 79.9798 74.7459C80.0508 76.5566 75.1441 78.5096 68.9224 79.0944C64.1902 79.5442 60.0478 79.1188 58.2052 78.0725" stroke="black" stroke-width="0.8" stroke-miterlimit="10"/>
<path d="M73.3351 74.4342C74.1707 74.0992 75.0946 74.0596 75.9748 74.2214C76.8549 74.3832 77.6913 74.7464 78.4649 75.1978C78.597 75.2919 78.4778 75.506 78.3457 75.4119C77.5784 74.9982 76.7861 74.6664 75.9437 74.4982C75.1012 74.3301 74.2213 74.401 73.3794 74.6983C73.2349 74.7615 73.1906 74.4974 73.3351 74.4342Z" fill="white"/>
<path d="M57.9541 77.9563C58.2489 77.4022 58.6695 76.9044 59.1908 76.5449C59.8439 76.0467 60.6105 75.7621 61.44 75.6221C61.9301 75.5393 62.3953 75.5384 62.9044 75.5689C63.0616 75.5811 63.0618 75.8139 62.9047 75.8016C61.3332 75.6789 59.7058 76.1476 58.67 77.3699C58.4754 77.5967 58.3185 77.8172 58.2056 78.069L57.9541 77.9563Z" fill="white"/>
<path d="M72.3547 74.5978C72.4616 74.5409 72.5748 74.5218 72.6817 74.4648C72.7571 74.4521 72.8012 74.4835 72.8516 74.5528C72.8643 74.6284 72.8329 74.6726 72.7638 74.7231C72.6883 74.7358 72.5814 74.7928 72.506 74.8055L72.4682 74.8119C72.4305 74.8182 72.3928 74.8246 72.3928 74.8246C72.355 74.831 72.3487 74.7932 72.3046 74.7617C72.2983 74.7239 72.292 74.6861 72.292 74.6861C72.3233 74.642 72.3547 74.5978 72.3547 74.5978Z" fill="white"/>
<path d="M63.6145 75.6442C63.7654 75.6187 63.8913 75.6752 64.0236 75.7695C64.0677 75.801 64.1181 75.8702 64.0553 75.9586C64.0239 76.0028 63.9547 76.0534 63.8666 75.9905C63.8288 75.9969 63.8225 75.959 63.7848 75.9654C63.7407 75.934 63.7029 75.9403 63.6652 75.9467C63.6275 75.9531 63.6275 75.9531 63.5897 75.9595C63.5142 75.9722 63.4638 75.9029 63.4511 75.8273C63.5076 75.7011 63.539 75.6569 63.6145 75.6442Z" fill="white"/>
<path d="M77.5296 75.8623C78.0839 76.6227 78.5753 77.4714 78.9535 78.3393C79.2183 78.9933 79.691 79.9617 79.138 80.5986C78.8112 80.9644 78.2388 81.0223 77.8423 80.7399C77.3953 80.3884 77.3255 79.7402 77.2747 79.2053C77.1731 78.1354 77.3042 77.065 77.5108 75.9819C77.5108 75.9819 77.5045 75.9441 77.5296 75.8623Z" fill="black" stroke="black" stroke-width="0.8" stroke-miterlimit="10"/>
<path d="M77.5084 78.7383C77.5335 78.6565 77.5963 78.5682 77.6781 78.5932C77.7599 78.6182 77.848 78.681 77.8229 78.7629C77.7918 79.0399 77.792 79.2728 77.874 79.5307C77.9497 79.7508 78.0695 80.0024 78.2835 80.1215C78.3653 80.1465 78.3843 80.2598 78.3215 80.348C78.2587 80.4363 78.1832 80.449 78.095 80.3863C77.837 80.2358 77.6668 79.9151 77.5784 79.6194C77.4964 79.3615 77.4394 79.0217 77.5084 78.7383Z" fill="white"/>
<path d="M77.5574 47.9578C77.0216 44.6774 74.1139 42.3752 70.8551 42.5191C70.5511 42.5186 70.2986 42.5469 70.0059 42.5866C66.4474 43.2067 64.0573 46.5798 64.6324 50.1532C65.2477 53.7151 68.6141 56.1042 72.1839 55.5244C72.4766 55.4847 72.7579 55.4047 73.0392 55.3248C76.111 54.365 78.1045 51.2784 77.5574 47.9578Z" fill="white" stroke="black" stroke-width="0.8" stroke-miterlimit="10"/>
<path d="M73.0395 55.3249C72.0959 54.2895 71.2684 52.7431 70.7283 50.9847L74.7453 48.4528L70.1017 47.3826C70.0151 45.5388 70.3068 43.8048 70.8554 42.5192C74.074 42.3867 76.9817 44.6889 77.5577 47.9578C78.1048 51.2784 76.1113 54.3651 73.0395 55.3249Z" fill="black" stroke="black" stroke-width="0.8" stroke-miterlimit="10"/>
<path d="M49.7396 47.5035C49.2558 44.2146 46.3852 41.8657 43.1249 41.9571C42.8209 41.9517 42.568 41.976 42.2748 42.011C38.7074 42.5739 36.2644 45.9085 36.7828 49.491C37.3416 53.0628 40.6694 55.506 44.2476 54.9835C44.5408 54.9485 44.8233 54.8731 45.1059 54.7977C48.1921 53.8873 50.234 50.8328 49.7396 47.5035Z" fill="white" stroke="black" stroke-width="0.8" stroke-miterlimit="10"/>
<path d="M45.1058 54.798C44.1788 53.7475 43.376 52.1879 42.8639 50.4209L46.92 47.9536L42.2944 46.8087C42.2369 44.9636 42.556 43.2343 43.1248 41.9575C46.3448 41.8768 49.2154 44.2257 49.7395 47.5039C50.234 50.8332 48.192 53.8877 45.1058 54.798Z" fill="black" stroke="black" stroke-width="0.8" stroke-miterlimit="10"/>
<circle cx="8.75465" cy="8.75465" r="8.35465" transform="matrix(-1 0 0 1 82.0552 40.1245)" stroke="black" stroke-width="0.8"/>
<circle cx="8.75465" cy="8.75465" r="8.35465" transform="matrix(-1 0 0 1 54.145 39.4319)" stroke="black" stroke-width="0.8"/>
<rect width="10.2859" height="0.692716" transform="matrix(-1 0 0 1 64.439 48.1865)" fill="black"/>
<path d="M115.612 76.3527C113.268 79.8893 108.296 80.8896 104.394 81.5428C102.898 81.7972 101.391 81.9601 99.8801 82.0774C99.1954 82.1514 98.4601 82.1847 97.7753 82.2588C97.7297 82.2637 97.7297 82.2637 97.6841 82.2687C96.9031 82.3069 96.0765 82.3501 95.3005 82.434C94.844 82.4834 94.4283 82.4821 93.9718 82.5315C93.6066 82.571 93.2365 82.5648 92.8713 82.6043C90.5285 82.719 88.1905 82.8795 85.8674 83.177C84.8631 83.2856 83.8504 82.8865 83.5955 81.8044C83.5808 81.6672 83.566 81.5301 83.5513 81.393C83.5541 80.5604 84.0998 79.6228 84.9671 79.5289C85.2866 79.4944 85.6062 79.4598 85.9257 79.4252C86.0626 79.4104 86.1996 79.3956 86.3365 79.3808C89.2124 79.0697 92.1079 78.9414 94.9529 78.7724C95.6425 78.7441 96.2816 78.6749 96.9713 78.6465C97.2451 78.6169 97.4734 78.5922 97.7522 78.6083C98.5331 78.5701 99.3548 78.4812 100.131 78.3973C102.509 78.1862 104.868 77.7923 107.162 77.2205C108.735 76.8191 110.121 76.3918 111.402 75.4209C111.874 75.0923 112.246 74.6822 112.476 74.2412C112.399 74.3882 112.599 73.673 112.573 73.8607C112.589 73.5815 112.575 73.4444 112.519 73.3579C111.997 71.9348 110.413 70.9501 109.183 70.2508C105.985 68.4234 102.246 67.5794 98.6491 66.7663C94.3378 65.7529 95.387 65.8632 91.1148 65.1935C91.1148 65.1935 90.3234 63.7663 89.9506 63.1484C89.3511 62.1546 88.7671 61.0612 88.7671 61.0612C90.9716 61.3777 96.8485 62.4757 99.027 62.9799C103.055 63.9314 107.219 64.8682 110.858 66.9253C114.269 68.5908 118.191 72.4207 115.612 76.3527Z" fill="black"/>
<path d="M94.6465 75.8916C94.6465 75.8916 96.5699 74.0188 97.213 75.7062C97.7207 76.9921 97.9029 79.9777 97.954 81.3131C97.9722 81.9122 97.6708 82.5459 97.1474 82.8337C96.7969 83.0104 95.7729 82.9364 95.2819 82.6659C94.4425 83.4503 93.3979 84.9043 91.0532 85.4357C89.2972 85.857 87.3601 85.8818 85.6021 85.4249C84.7002 85.1989 83.8701 84.7802 83.2844 84.0576C82.9614 83.6302 82.6791 83.1522 82.6201 82.6037C82.5907 82.3295 82.6118 82.096 82.7193 81.807C82.76 81.7563 82.9799 81.2239 82.9799 81.2239C82.9799 81.2239 81.1414 79.1574 83.5297 77.7429C83.5297 77.7429 80.8948 74.283 86.5939 74.4519C86.9184 74.463 87.0759 72.9201 88.2806 72.0961C88.4534 71.9849 89.7494 71.151 91.2089 71.4091C93.0077 71.8153 94.4923 73.5965 94.6465 75.8916Z" fill="white" stroke="black" stroke-width="0.8" stroke-miterlimit="10"/>
<path d="M83.6368 77.8687L85.8318 78.0937" stroke="black" stroke-width="0.8" stroke-miterlimit="10"/>
<path d="M83.0377 81.3096L85.3085 81.3871" stroke="black" stroke-width="0.8" stroke-miterlimit="10"/>
<path d="M86.6493 74.5374L89.8128 74.75" stroke="black" stroke-width="0.8" stroke-miterlimit="10"/>
<path d="M94.6449 75.8926L94.8861 78.1328" stroke="black" stroke-width="0.8" stroke-miterlimit="10"/>
<path d="M95.1095 81.0691L95.3324 82.71" stroke="black" stroke-width="0.8" stroke-miterlimit="10"/>
<path d="M57.5479 50.5735L57.9191 53.4864C57.9191 53.4864 62.5596 52.6187 62.869 55.0357C63.1784 57.4528 57.7335 57.0809 57.7335 57.0809" fill="#D9D9D9"/>
<path d="M57.5479 50.5735L57.9191 53.4864C57.9191 53.4864 62.5596 52.6187 62.869 55.0357C63.1784 57.4528 57.7335 57.0809 57.7335 57.0809" stroke="black" stroke-width="0.8" stroke-miterlimit="10"/>
</svg>
