<svg width="117" height="121" viewBox="0 0 117 121" fill="none" xmlns="http://www.w3.org/2000/svg">
    <g clip-path="url(#clip0_755_5933)">
        <path d="M54.9436 107.206C54.7712 110.386 57.6449 111.471 58.9668 109.765C59.3117 109.3 59.5416 108.679 59.5416 107.904C59.7715 103.173 63.2382 86.9801 64.4451 82.5594C64.5601 82.2492 64.6176 81.8614 64.7325 81.5512C63.0658 81.0858 61.5714 80.6205 60.1921 80C58.6978 84.8086 55.231 101.544 54.9436 106.585C54.9436 106.74 54.9436 106.973 54.9436 107.206Z" fill="black" stroke="black" stroke-width="0.8" stroke-miterlimit="10"/>
        <path d="M52.4076 108.92L61.4744 108.675L61.7807 120.216L39.7263 120.399L39.6038 117.773C39.6038 117.773 41.0128 112.766 52.4688 114.11L52.4076 108.92Z" fill="#F96F6F" stroke="black" stroke-width="0.8" stroke-miterlimit="10"/>
        <path d="M45.975 114.049C40.4614 114.843 39.6038 117.774 39.6038 117.774L39.7263 120.399L47.6291 120.338C47.3841 118.14 46.894 116.064 45.975 114.049Z" fill="white" stroke="black" stroke-width="0.8" stroke-miterlimit="10"/>
        <path d="M61.6582 117.407L39.6038 117.774L39.7263 120.399L61.7807 120.216L61.6582 117.407Z" fill="white" stroke="black" stroke-width="0.8" stroke-miterlimit="10"/>
        <path d="M52.5914 110.996V110.691L56.5122 110.568V110.874L52.5914 110.996Z" fill="white"/>
        <path d="M56.5091 112.603L52.6507 112.702L52.657 112.947L56.5154 112.848L56.5091 112.603Z" fill="white"/>
        <path d="M56.6961 110.936C56.8314 110.936 56.9412 110.826 56.9412 110.691C56.9412 110.556 56.8314 110.446 56.6961 110.446C56.5608 110.446 56.451 110.556 56.451 110.691C56.451 110.826 56.5608 110.936 56.6961 110.936Z" fill="white" stroke="white" stroke-width="0.8" stroke-miterlimit="10"/>
        <path d="M56.757 112.95C56.8923 112.95 57.0021 112.841 57.0021 112.706C57.0021 112.57 56.8923 112.461 56.757 112.461C56.6217 112.461 56.512 112.57 56.512 112.706C56.512 112.841 56.6217 112.95 56.757 112.95Z" fill="white" stroke="white" stroke-width="0.8" stroke-miterlimit="10"/>
        <path d="M79.945 83.256C80.6921 87.7543 80.4208 102.625 84.313 105.81C86.6119 108.525 89.4282 109.068 92.1294 108.137C95.8652 106.818 98.2791 103.639 99.2562 102.088L99.3137 101.932C99.9459 100.769 100.003 99.2955 99.5436 98.1321C99.1987 97.279 98.624 96.6585 97.9343 96.4259C97.532 96.2708 97.1297 96.3483 96.7848 96.581C96.6124 96.6586 96.4974 96.8137 96.3825 96.9688C94.8882 99.0628 90.1753 104.647 86.4395 99.6057C85.5199 98.4424 84.7728 85.195 84.313 83.0234C82.8761 83.1785 81.4393 83.256 79.945 83.256Z" fill="black" stroke="black" stroke-width="0.8" stroke-miterlimit="10"/>
        <path d="M100.016 106.323L94.1077 99.4409L102.87 91.9242L116.923 108.923L114.962 110.674C114.962 110.674 110.188 112.739 104.005 103.002L100.016 106.323Z" fill="#F96F6F" stroke="black" stroke-width="0.8" stroke-miterlimit="10"/>
        <path d="M108.054 108.079C112.147 111.857 114.963 110.674 114.963 110.674L116.923 108.923L111.891 102.829C110.34 104.405 109.038 106.095 108.054 108.079Z" fill="white" stroke="black" stroke-width="0.8" stroke-miterlimit="10"/>
        <path d="M100.768 93.7907L114.963 110.674L116.923 108.923L102.87 91.924L100.768 93.7907Z" fill="white" stroke="black" stroke-width="0.8" stroke-miterlimit="10"/>
        <path d="M101.512 104.87L101.274 105.063L98.7065 102.098L98.9438 101.905L101.512 104.87Z" fill="white"/>
        <path d="M100.287 100.817L102.798 103.748L102.984 103.589L100.473 100.657L100.287 100.817Z" fill="white"/>
        <path d="M98.8754 101.723C98.79 101.618 98.6358 101.602 98.531 101.687C98.4261 101.773 98.4103 101.927 98.4957 102.032C98.5811 102.137 98.7353 102.153 98.8401 102.068C98.945 101.982 98.9608 101.828 98.8754 101.723Z" fill="white" stroke="white" stroke-width="0.8" stroke-miterlimit="10"/>
        <path d="M100.401 100.405C100.315 100.3 100.161 100.284 100.056 100.369C99.9513 100.454 99.9355 100.609 100.021 100.714C100.106 100.819 100.26 100.835 100.365 100.75C100.47 100.664 100.486 100.51 100.401 100.405Z" fill="white" stroke="white" stroke-width="0.8" stroke-miterlimit="10"/>
        <path d="M40.3071 57.4793L40.307 57.4792C39.959 56.3995 39.0292 55.4537 37.9249 54.5935C36.996 53.8699 35.8909 53.1684 34.7995 52.4756C34.5836 52.3385 34.3682 52.2018 34.1549 52.0654C32.8488 51.23 31.6156 50.4022 30.7087 49.5291C29.852 48.7044 29.3416 47.8916 29.2842 47.0486L29.2874 47.0454V46.8806C29.2874 45.9803 29.8068 45.1172 30.7173 44.2407C31.6243 43.3676 32.8575 42.5398 34.1635 41.7044C34.3769 41.568 34.5923 41.4312 34.8082 41.2942C35.8996 40.6014 37.0046 39.8999 37.9335 39.1763C39.0378 38.3161 39.9677 37.3704 40.3157 36.2906L40.3157 36.2905C40.6732 35.18 40.4864 33.8421 40.1031 32.4726C39.7675 31.2733 39.2618 29.9882 38.7663 28.7289C38.6923 28.5407 38.6184 28.353 38.5454 28.1663C37.9781 26.7156 37.461 25.3226 37.2281 24.0932C36.9939 22.8562 37.0662 21.8783 37.5646 21.1863C38.0692 20.4882 38.9739 20.1138 40.2151 19.9544C41.4499 19.7959 42.9259 19.8611 44.4705 19.9582C44.6822 19.9715 44.8951 19.9855 45.1087 19.9994C46.4372 20.0862 47.7905 20.1746 49.0102 20.13C50.4161 20.0785 51.7326 19.8498 52.6618 19.1672C53.5825 18.4912 54.1957 17.3019 54.672 15.9723C55.0796 14.8346 55.4072 13.5312 55.7298 12.2477C55.7871 12.0197 55.8443 11.7923 55.9017 11.5666C56.2864 10.0544 56.6829 8.61598 57.2192 7.47807C57.7584 6.33377 58.4 5.57775 59.2263 5.30732L59.2264 5.30727C60.0132 5.04947 60.9417 5.28301 62.0283 5.89477C63.1073 6.50222 64.2557 7.43272 65.4477 8.42931C65.5827 8.54213 65.7181 8.65579 65.8541 8.7698C66.9062 9.65241 67.9843 10.5568 69.0371 11.2642C70.2181 12.0578 71.4348 12.6518 72.6111 12.6518C73.7872 12.6518 75.0043 12.0591 76.1862 11.2672C77.2391 10.5617 78.3176 9.65974 79.3702 8.77948C79.5067 8.66527 79.6429 8.55142 79.7784 8.43841C80.9715 7.44402 82.121 6.51563 83.2008 5.90974C84.2882 5.29958 85.2175 5.06678 86.0045 5.32469L86.0046 5.32474C86.8309 5.59513 87.4719 6.35105 88.0105 7.49532C88.5461 8.63322 88.9418 10.0716 89.326 11.5839C89.3827 11.8071 89.4392 12.0321 89.4958 12.2576C89.8186 13.5435 90.1466 14.8498 90.5553 15.9898C91.0321 17.3195 91.6465 18.5088 92.5694 19.1848C93.4986 19.8672 94.8149 20.0959 96.2207 20.1474C97.4405 20.192 98.7937 20.1036 100.122 20.0168C100.336 20.0029 100.549 19.989 100.76 19.9757C102.305 19.8785 103.781 19.8133 105.016 19.9718C106.257 20.1312 107.162 20.5058 107.667 21.2041C108.165 21.896 108.237 22.8739 108.003 24.1107C107.77 25.34 107.253 26.733 106.686 28.1838C106.612 28.3705 106.539 28.5582 106.465 28.7464C105.969 30.0057 105.463 31.2908 105.128 32.4901C104.744 33.8596 104.558 35.1974 104.915 36.3079L104.915 36.3081C105.263 37.3878 106.193 38.3335 107.297 39.1938C108.226 39.9174 109.331 40.6189 110.423 41.3117C110.639 41.4487 110.854 41.5854 111.067 41.7219C112.373 42.5573 113.607 43.385 114.514 44.2581C115.424 45.1347 115.944 45.9978 115.944 46.898C115.944 47.7982 115.424 48.6613 114.514 49.5378C113.607 50.4109 112.373 51.2387 111.067 52.0741C110.854 52.2105 110.639 52.3472 110.423 52.4842C109.331 53.1771 108.226 53.8786 107.297 54.6022C106.193 55.4624 105.263 56.4082 104.915 57.4879L104.915 57.488C104.558 58.5985 104.744 59.9364 105.128 61.3059C105.463 62.5051 105.969 63.7903 106.465 65.0495C106.539 65.2377 106.612 65.4254 106.686 65.6122C107.253 67.0629 107.77 68.4559 108.003 69.6853C108.237 70.9223 108.165 71.9003 107.666 72.5922C107.162 73.2903 106.257 73.6647 105.016 73.8241C103.781 73.9827 102.305 73.9174 100.76 73.8203C100.549 73.807 100.336 73.7931 100.122 73.7791C98.7938 73.6923 97.4405 73.6039 96.2207 73.6486C94.8148 73.7 93.4984 73.9287 92.5692 74.6113C91.6485 75.2873 91.0352 76.4766 90.5589 77.8063C90.1514 78.9439 89.8238 80.2473 89.5012 81.5307C89.4439 81.7588 89.3867 81.9862 89.3293 82.212C88.9446 83.7242 88.548 85.1625 88.0118 86.3005C87.4727 87.4445 86.8313 88.2004 86.0053 88.471C85.218 88.7272 84.2885 88.4932 83.2009 87.8826C82.121 87.2762 80.9714 86.348 79.7784 85.3542C79.6438 85.2421 79.5087 85.1292 79.3732 85.0159C78.3196 84.1354 77.24 83.233 76.186 82.5274C75.0041 81.7361 73.7871 81.1441 72.6111 81.1441C71.4351 81.1441 70.218 81.7368 69.0361 82.5287C67.9832 83.2343 66.9047 84.1362 65.8522 85.0164C65.7156 85.1307 65.5794 85.2445 65.4439 85.3575C64.2508 86.3519 63.1013 87.2803 62.0215 87.8862C60.9341 88.4964 60.0048 88.7292 59.2178 88.4713L59.2177 88.4712C58.3914 88.2008 57.7504 87.4449 57.2118 86.3006C56.6762 85.1627 56.2805 83.7243 55.8963 82.2121C55.8396 81.9888 55.7831 81.7638 55.7265 81.5383C55.4036 80.2524 55.0757 78.9461 54.667 77.8062C54.1902 76.4763 53.5757 75.287 52.6527 74.611C51.7236 73.9266 50.4075 73.6962 49.0019 73.6435C47.7799 73.5977 46.424 73.6858 45.0932 73.7722C44.882 73.7859 44.6714 73.7996 44.462 73.8127C42.9174 73.9092 41.4413 73.9742 40.2065 73.8155C38.9653 73.656 38.0606 73.2816 37.5559 72.5835L40.3071 57.4793ZM40.3071 57.4793C40.6646 58.5898 40.4778 59.9277 40.0945 61.2972M40.3071 57.4793L40.0945 61.2972M40.0945 61.2972C39.7588 62.4965 39.2532 63.7817 38.7577 65.0409M40.0945 61.2972L38.7577 65.0409M38.7577 65.0409C38.6836 65.2291 38.6098 65.4168 38.5368 65.6035M38.7577 65.0409L38.5368 65.6035M38.5368 65.6035C37.9695 67.0542 37.4523 68.4472 37.2195 69.6766M38.5368 65.6035L37.2195 69.6766M37.2195 69.6766C36.9853 70.9133 37.0575 71.8911 37.5556 72.583L37.2195 69.6766Z" fill="#ACBFFF" stroke="black" stroke-width="0.8"/>
        <path d="M75.3366 35.7492C75.6523 30.8935 77.1692 26.8043 79.1909 24.9737C79.9916 24.2719 80.8128 23.8678 81.6647 23.9102C84.7739 24.0997 86.9055 29.6878 86.5205 36.4421C86.132 43.1468 83.2519 48.4741 80.1924 48.2812C79.3902 48.2355 78.6105 47.7896 77.9629 47.0855C76.1229 45.0164 75.0277 40.7042 75.3366 35.7492Z" fill="white" stroke="black" stroke-width="0.8" stroke-miterlimit="10"/>
        <path d="M77.9581 47.0362C80.8905 46.8389 83.5162 42.1768 83.8632 36.3224C83.8495 36.124 83.8856 35.9222 83.8754 35.7734L79.1919 35.1915L83.7806 32.939C83.3317 28.5835 81.5593 25.3138 79.1893 24.9749C77.168 26.8054 75.6547 30.9441 75.3356 35.75C75.0268 40.7047 76.1218 45.0168 77.9581 47.0362Z" fill="black" stroke="black" stroke-width="0.8" stroke-miterlimit="10"/>
        <path d="M54.9545 34.4895C55.2702 29.6338 56.7871 25.5445 58.8088 23.714C59.6095 23.0122 60.4307 22.608 61.2826 22.6504C64.3918 22.8399 66.5235 28.4281 66.1384 35.1824C65.7499 41.8871 62.8698 47.2143 59.8103 47.0215C59.0081 46.9758 58.2284 46.5298 57.5808 45.8258C55.7408 43.7566 54.6456 39.4444 54.9545 34.4895Z" fill="white" stroke="black" stroke-width="0.8" stroke-miterlimit="10"/>
        <path d="M57.5796 45.826C60.5119 45.6287 63.1377 40.9666 63.4846 35.1123C63.471 34.9138 63.5071 34.712 63.4968 34.5632L58.8133 33.9813L63.4021 31.7288C62.9532 27.3733 61.1808 24.1036 58.8108 23.7647C56.7895 25.5952 55.2762 29.7339 54.9571 34.5398C54.6448 39.4449 55.7399 43.757 57.5796 45.826Z" fill="black" stroke="black" stroke-width="0.8" stroke-miterlimit="10"/>
        <path d="M71.5207 38.5518L71.3719 40.7547C71.3719 40.7547 71.173 40.7681 71.1199 40.7219C69.8664 40.6569 68.3778 40.807 68.1849 42.365C68.0089 44.1711 70.0492 44.7812 71.4077 44.1912" fill="#ACBFFF"/>
        <path d="M71.5207 38.5518L71.3719 40.7547C71.3719 40.7547 71.173 40.7681 71.1199 40.7219C69.8664 40.6569 68.3778 40.807 68.1849 42.365C68.0089 44.1711 70.0492 44.7812 71.4077 44.1912" stroke="black" stroke-width="0.8" stroke-miterlimit="10"/>
        <path d="M73.1622 55.982C72.2593 57.3887 71.0771 58.3655 69.4255 58.3273C67.8236 58.2857 66.7574 57.3109 66.0122 55.9156C64.1122 52.2556 64.6151 45.742 64.6151 45.742L68.1206 45.8546L72.5282 46.0062L75.5827 46.0994C75.5861 46.149 75.4179 52.4406 73.1622 55.982Z" fill="black" stroke="black" stroke-width="0.8" stroke-miterlimit="10"/>
        <path d="M73.1936 55.7299C72.2973 57.2359 71.072 58.3155 69.4203 58.2772C67.8183 58.2357 66.7486 57.2111 65.9964 55.7165C66.1949 53.5097 67.93 51.8475 69.8904 52.0145C71.6982 52.1419 73.1072 53.7418 73.1936 55.7299Z" fill="#E30611" stroke="black" stroke-width="0.8" stroke-miterlimit="10"/>
        <path d="M64.425 43.7158C64.8238 44.4363 65.7446 46.218 65.6626 48.6653C65.5412 51.2647 64.3648 53.0383 63.859 53.6704" fill="#ACBFFF"/>
        <path d="M64.425 43.7158C64.8238 44.4363 65.7446 46.218 65.6626 48.6653C65.5412 51.2647 64.3648 53.0383 63.859 53.6704" stroke="black" stroke-width="0.8" stroke-miterlimit="10"/>
        <path d="M75.9864 43.9291C75.587 44.6537 74.7126 46.4568 74.8293 48.8905C74.9563 51.4731 76.1746 53.2346 76.6692 53.8989" fill="#ACBFFF"/>
        <path d="M75.9864 43.9291C75.587 44.6537 74.7126 46.4568 74.8293 48.8905C74.9563 51.4731 76.1746 53.2346 76.6692 53.8989" stroke="black" stroke-width="0.8" stroke-miterlimit="10"/>
        <path d="M39.3394 55.9098C39.8297 56.3013 40.4317 58.2358 40.4317 58.2358C40.4317 58.2358 39.3693 58.6733 37.9273 59.1113C34.0429 60.1641 30.2105 59.2206 27.1284 56.6726C24.1703 54.2141 22.1608 50.8406 20.3539 47.5006C19.4786 45.8698 18.6316 44.2782 17.8743 42.5631C17.5238 41.7448 17.1734 40.9265 16.8229 40.1082C16.4272 39.1441 16.0707 38.152 15.7032 37.2272C15.7032 37.2272 15.675 37.188 15.6468 37.1487C15.3245 36.3696 15.0023 35.5906 14.7082 34.8507C14.245 33.8755 14.9286 32.6748 15.8842 32.3485C16.9183 31.9661 17.9995 32.5593 18.3952 33.5233C18.644 34.1174 18.9038 34.6443 19.1132 35.2665C19.5372 36.2697 19.9501 37.3403 20.3347 38.3717C20.7475 39.4422 21.1886 40.552 21.7083 41.6057C22.4314 43.1077 23.2674 44.7666 24.0127 46.134C25.588 48.9864 27.3829 51.9789 29.9633 53.9947C32.2958 55.8314 33.5691 56.7797 36.469 55.599C38.5877 54.7387 37.9457 54.9908 37.9457 54.9908C37.9457 54.9908 38.4879 55.2301 39.3394 55.9098Z" fill="black"/>
        <path d="M11.9795 38.2298C11.9795 38.2298 -1.75345 25.8232 2.38279 22.4046C2.38279 22.4046 3.92053 21.3063 5.37483 22.3576C5.37483 22.3576 4.91879 18.2713 8.58062 19.3713C10.8629 20.0634 11.437 24.5298 11.437 24.5298C11.5094 24.091 12.0365 23.6372 12.3585 23.3298C13.1708 22.5174 14.0935 21.8584 15.1632 21.404C16.7166 20.759 18.9386 20.7201 19.8369 22.4006C19.8736 22.4518 19.9104 22.5029 19.8959 22.5907C20.5446 24.1399 19.0671 25.9692 17.4089 25.6054C16.2277 25.3654 14.8269 25.3596 13.9121 26.2452C12.6608 27.5259 13.3395 29.4407 14.903 30.1043C16.8042 30.9138 19.61 29.529 19.6978 25.9831C19.6966 25.4421 19.5562 24.9232 19.7311 24.4112C19.9718 23.7749 20.7852 23.5036 21.358 23.8685C23.3261 25.0946 25.8683 30.7871 19.5969 33.7182" fill="white"/>
        <path d="M11.9795 38.2298C11.9795 38.2298 -1.75345 25.8232 2.38279 22.4046C2.38279 22.4046 3.92053 21.3063 5.37483 22.3576C5.37483 22.3576 4.91879 18.2713 8.58062 19.3713C10.8629 20.0634 11.437 24.5298 11.437 24.5298C11.5094 24.091 12.0365 23.6372 12.3585 23.3298C13.1708 22.5174 14.0935 21.8584 15.1632 21.404C16.7166 20.759 18.9386 20.7201 19.8369 22.4006C19.8736 22.4518 19.9104 22.5029 19.8959 22.5907C20.5446 24.1399 19.0671 25.9692 17.4089 25.6054C16.2277 25.3654 14.8269 25.3596 13.9121 26.2452C12.6608 27.5259 13.3395 29.4407 14.903 30.1043C16.8042 30.9138 19.61 29.529 19.6978 25.9831C19.6966 25.4421 19.5562 24.9232 19.7311 24.4112C19.9718 23.7749 20.7852 23.5036 21.358 23.8685C23.3261 25.0946 25.8683 30.7871 19.5969 33.7182" stroke="black" stroke-width="0.8" stroke-miterlimit="10"/>
        <path d="M5.33874 22.311L7.78166 26.6788" stroke="black" stroke-width="0.8" stroke-miterlimit="10"/>
        <path d="M17.6584 35.0187L19.629 33.766C22.2371 32.2129 27.553 34.5328 18.5627 39.4055C9.53558 44.227 12.0386 38.1034 12.0386 38.1034C12.383 37.9348 12.8668 37.7442 13.2769 37.4512C13.6726 37.246 14.0315 36.9897 14.3023 36.7188" fill="white"/>
        <path d="M17.6584 35.0187L19.629 33.766C22.2371 32.2129 27.5529 34.5328 18.5627 39.4055C9.53558 44.227 12.0386 38.1034 12.0386 38.1034C12.383 37.9348 12.8668 37.7442 13.2769 37.4512C13.6726 37.246 14.0315 36.9897 14.3023 36.7188" stroke="black" stroke-width="0.8" stroke-miterlimit="10"/>
        <path d="M41.8661 13.9562L44.6098 15.5853C44.7266 15.469 47.2952 12.9088 47.2952 12.9088C52.841 7.90489 65.3919 -1.11383 80.3948 4.12285C87.5167 6.56663 93.3544 11.9197 97.3823 16.6327C98.1412 17.5055 98.8418 18.3782 99.4839 19.1928C100.651 20.6475 101.585 21.9857 102.286 23.0331L104.971 21.5784C101.469 16.4581 93.3544 6.04296 81.1536 1.79543C62.298 -4.72132 47.5287 8.254 42.9753 12.8506C42.5083 13.3161 42.158 13.7234 41.8661 13.9562Z" fill="#E30611" stroke="black" stroke-width="0.8" stroke-miterlimit="10"/>
        <path d="M44.2009 38.9176C45.6603 38.8012 47.0614 38.3357 48.2873 37.5793C48.3457 37.5793 48.3457 37.5211 48.404 37.5211V14.1889V13.4324C48.3457 13.4324 48.3457 13.3743 48.2873 13.3743C47.5284 13.0251 46.7695 12.7924 45.9522 12.676C45.3685 12.6179 44.7847 12.5597 44.1426 12.6179C38.3049 13.0251 33.5764 19.251 33.6348 26.4659C33.6348 33.7973 38.3633 39.3249 44.2009 38.9176Z" fill="#E30611" stroke="black" stroke-width="0.8" stroke-miterlimit="10"/>
        <path d="M101.293 42.525C100.651 42.5832 100.068 42.5832 99.4838 42.4669C98.9 42.4087 98.3162 42.2341 97.7325 42.0596C97.6157 31.4116 97.4406 21.462 97.3822 17.389C98.5497 16.749 99.834 16.3417 101.118 16.2835C107.014 15.818 111.86 21.3456 111.918 28.5606C111.918 35.7755 107.189 42.0596 101.293 42.525Z" fill="#E30611" stroke="black" stroke-width="0.8" stroke-miterlimit="10"/>
        <path d="M97.3359 59.8725L90.7968 55.98L87.2301 61.3093L85.7806 63.5358L84.7407 65.1087L76.5675 77.34L76.2479 81.8197L76.0254 84.9395C76.9854 84.4866 77.9512 83.9537 78.9112 83.5008L82.929 81.4609L91.2368 69.0383L92.2767 67.4654L93.7263 65.2389L97.3359 59.8725Z" fill="#5663F1" stroke="black" stroke-width="0.8" stroke-miterlimit="10"/>
        <path d="M76.5602 77.3425L78.7691 76.3374L78.7098 78.8653L81.1507 77.4349L80.8765 80.1482L82.9623 79.1743L82.9201 81.4623L76.0612 84.9029L76.5602 77.3425Z" fill="white" stroke="black" stroke-width="0.8" stroke-miterlimit="10"/>
        <path d="M76.2816 81.7845C76.4049 81.7533 77.2414 81.3318 78.0582 81.7529C78.9496 82.2597 78.9499 83.3852 78.9442 83.4652C77.9844 83.9179 77.019 84.4507 76.0592 84.9035L76.2816 81.7845Z" fill="black" stroke="black" stroke-width="0.8" stroke-miterlimit="10"/>
        <path d="M78.7363 76.3747L91.9592 56.707" stroke="black" stroke-width="0.8" stroke-miterlimit="10"/>
        <path d="M81.1114 77.5499L94.0074 57.9392" stroke="black" stroke-width="0.8" stroke-miterlimit="10"/>
        <path d="M82.9642 79.2501L96.141 59.0969" stroke="black" stroke-width="0.8" stroke-miterlimit="10"/>
        <path d="M91.4818 55.0205C91.4818 55.0205 93.6922 51.1626 97.1393 53.141C100.624 55.1624 98.0179 58.9112 98.0179 58.9112L91.4818 55.0205Z" fill="#FF1F33" stroke="black" stroke-width="0.8" stroke-miterlimit="10"/>
        <path d="M95.2709 53.9313C94.4482 53.5901 93.3334 53.9514 92.7031 54.8704C92.5685 55.0617 92.3391 54.8842 92.4738 54.693C93.1957 53.6197 94.557 53.196 95.4543 53.623C95.6148 53.6347 95.4687 53.9859 95.2709 53.9313Z" fill="white"/>
        <path d="M95.6972 54.1621C95.5422 54.0703 95.7688 53.7245 95.9181 53.8964C96.1162 53.951 95.8896 54.2969 95.6972 54.1621Z" fill="white"/>
        <path d="M90.8087 55.978L97.3807 59.9107L98.0162 58.9123L91.4815 55.0224L90.8087 55.978Z" fill="black" stroke="black" stroke-width="0.8" stroke-miterlimit="10"/>
        <path d="M90.1429 70.9699C90.3887 71.1062 90.6345 71.2425 90.8803 71.3788C92.6347 72.2717 94.3892 73.1647 96.2118 73.9351C97.6931 74.5964 99.1608 75.21 100.615 75.776C100.908 75.8988 101.25 76.0079 101.543 76.1306C104.854 77.4058 109.12 78.7701 112.565 77.2749C117.886 74.9368 114.898 67.9506 112.916 64.287C110.715 60.2217 108.872 59.3883 105.567 56.1527L104.877 57.9777L104.879 60.0444C106.498 61.9039 108.125 64.1545 109.308 66.2927C109.875 67.3686 110.408 68.5058 110.832 69.6225C111.14 70.5144 111.55 71.5834 111.462 72.5364C111.476 72.584 111.367 72.9243 111.381 72.972C111.347 73.0332 111.313 73.0944 111.313 73.0944C111.278 73.1557 111.163 73.2917 111.115 73.3053L111.067 73.3189C110.808 73.4957 110.126 73.6382 109.825 73.672C108.802 73.7054 107.737 73.5958 106.679 73.3296C104.42 72.8379 102.12 71.8425 99.9558 70.9629C99.0752 70.5947 98.2561 70.2606 97.4232 69.8789C96.4675 69.4289 95.5118 68.979 94.5561 68.5291C93.8325 68.1678 93.1088 67.8065 92.433 67.4317C91.949 68.0849 91.5128 68.7244 91.138 69.3981C90.7836 69.9629 90.4633 70.4664 90.1429 70.9699Z" fill="black"/>
        <path d="M97.8685 67.8836C97.5019 67.785 97.474 66.9822 97.4289 66.5896C97.2381 64.279 95.2605 62.341 93.8562 61.4562C93.2927 61.1433 91.5126 59.8924 90.4049 60.2746C88.0018 61.0924 90.6519 64.6637 91.4488 65.7886C90.7962 65.6362 90.6531 65.6093 90.5101 65.5823C90.2241 65.5285 89.92 65.4121 89.5714 65.376C89.0439 65.1881 88.4718 65.0804 87.9442 64.8924C86.6656 64.4449 85.4941 63.8994 84.2155 63.4518C83.384 63.1475 82.0428 62.7178 81.275 63.3413C80.7215 63.7688 80.8119 64.5539 80.9289 65.1963C80.9289 65.1963 80.9289 65.1963 80.9469 65.2588C80.9469 65.2588 78.3203 66.005 80.2274 68.6387C79.9326 68.79 79.6199 68.8788 79.5042 69.182C78.9871 70.2072 80.2404 71.743 80.849 72.4484C82.3796 74.2432 84.5715 75.9853 86.691 77.0047C88.4885 77.8454 90.455 78.0975 92.4116 77.6092C92.7868 77.5026 93.1621 77.396 93.5373 77.2894C93.85 77.2005 94.4035 76.773 94.6896 76.8269C94.6896 76.8269 94.8153 77.2641 94.8332 77.3266C95.0035 77.6836 95.2363 78.0228 95.5137 78.2819C96.1669 78.9071 97.1682 79.0956 97.9719 78.597C99.1774 77.8491 99.5062 76.4044 99.8263 75.1649C100.2 73.6399 100.734 72.2044 101.188 70.7242C102.612 66.2657 99.1279 67.3231 98.6635 67.5901C97.913 67.8033 98.074 67.8927 97.8685 67.8836Z" fill="white" stroke="black" stroke-width="0.8" stroke-miterlimit="10"/>
        <path d="M88.8619 69.0336C88.8619 69.0336 83.6496 67.6091 80.9116 65.1438" stroke="black" stroke-width="0.8" stroke-miterlimit="10"/>
        <path d="M80.1249 68.5405C80.1249 68.5405 83.9715 71.5687 87.02 72.5267" stroke="black" stroke-width="0.8" stroke-miterlimit="10"/>
        <path d="M97.7765 67.7695L97.1891 69.4899" stroke="black" stroke-width="0.8" stroke-miterlimit="10"/>
        <path d="M95.1301 75.0701L94.7124 76.6745" stroke="black" stroke-width="0.8" stroke-miterlimit="10"/>
    </g>
    <defs>
        <clipPath id="clip0_755_5933">
            <rect width="117" height="121" fill="white"/>
        </clipPath>
    </defs>
</svg>
