<svg width="133" height="121" viewBox="0 0 133 121" fill="none" xmlns="http://www.w3.org/2000/svg">
<g clip-path="url(#clip0_3_36403)">
<path d="M79.5588 58.1475C89.3649 72.2979 90.5185 93.4591 87.11 110.89C86.271 115.071 80.9746 113.527 81.8136 109.346C84.6978 94.4883 84.3307 75.2566 75.8356 63.0358C73.5807 59.8199 77.2514 54.8672 79.5588 58.1475Z" fill="black"/>
<path d="M85.557 120.618L85.7995 119.076L87.0483 120.617L103.98 120.625L104.326 117.079L77.7414 116.835L77.4818 120.553L85.557 120.618Z" fill="black" stroke="black" stroke-width="0.8" stroke-miterlimit="10"/>
<path d="M90.8085 106.091C94.7815 106.769 102.968 109.176 104.276 117.382L77.7307 116.975L77.9867 109.202C82.3076 110.529 87.7957 109.625 90.8085 106.091Z" fill="#ACBFFF" stroke="black" stroke-width="0.8" stroke-miterlimit="10"/>
<path d="M95.9396 107.354L91.0359 111.131" stroke="black" stroke-width="0.8" stroke-miterlimit="10"/>
<path d="M98.3536 108.582L93.4179 112.389" stroke="black" stroke-width="0.8" stroke-miterlimit="10"/>
<path d="M67.9989 61.2868C58.0343 74.9586 56.862 95.404 60.3256 112.245C61.1782 116.284 66.5601 114.793 65.7076 110.754C62.7768 96.3983 63.1498 77.8172 71.7822 66.0098C74.0735 62.9026 70.2902 58.1175 67.9989 61.2868Z" fill="black"/>
<path d="M60.5343 120.221L60.2918 118.679L59.043 120.22L42.1116 120.229L41.7651 116.682L68.3499 116.439L68.6095 120.157L60.5343 120.221Z" fill="black" stroke="black" stroke-width="0.8" stroke-miterlimit="10"/>
<path d="M55.2828 105.695C51.3098 106.372 43.1236 108.779 41.8148 116.985L68.3606 116.579L68.1047 108.805C63.7837 110.132 58.2956 109.229 55.2828 105.695Z" fill="#ACBFFF" stroke="black" stroke-width="0.8" stroke-miterlimit="10"/>
<path d="M50.1517 106.958L55.0554 110.734" stroke="black" stroke-width="0.8" stroke-miterlimit="10"/>
<path d="M47.7377 108.185L52.6734 111.992" stroke="black" stroke-width="0.8" stroke-miterlimit="10"/>
<path d="M104.858 63.2263C104.798 62.862 104.193 59.2192 103.713 56.6903C106.417 58.3208 108.618 60.3332 110.786 62.8092C115.068 67.7821 119.317 73.2186 121.137 79.6948C121.314 80.4023 121.472 81.0526 121.649 81.7602C122.226 84.5751 117.937 85.5382 117.436 82.7594C117.337 82.2808 117.237 81.8021 117.082 81.3444C115.512 75.4192 111.494 70.4766 107.612 65.9344C106.699 64.9223 105.693 64.0095 104.858 63.2263Z" fill="black"/>
<path d="M115.413 83.1074C115.527 83.4483 114.82 83.9723 114.578 84.1919C112.756 85.7147 112.233 88.4746 112.207 90.0857C112.23 90.7174 112.152 92.9245 113.092 93.6572C115.068 95.2149 116.59 90.9236 117.105 89.6399C117.315 90.2648 117.353 90.3785 117.411 90.5489C117.506 90.833 117.621 91.1738 117.717 91.4579C117.888 91.9692 118.024 92.5585 118.196 93.0698C118.504 94.3621 118.701 95.6967 119.009 96.989C119.24 97.8624 119.567 99.2114 120.542 99.4828C121.179 99.6897 121.812 99.1301 122.239 98.7121C122.239 98.7121 122.239 98.7121 122.295 98.6909C122.295 98.6909 124.328 100.419 125.503 97.348C125.748 97.5116 126.067 97.7109 126.366 97.6617C127.506 97.4863 128.129 95.5852 128.384 94.6559C129.06 92.3504 129.302 89.5048 129.005 87.1196C128.71 85.1176 127.874 83.3844 126.406 82.0192C126.123 81.7419 125.859 81.5214 125.521 81.2653C125.257 81.0449 124.62 80.8379 124.468 80.5751C124.468 80.5751 124.728 80.2206 124.765 80.1426C124.968 79.8094 125.152 79.4194 125.225 79.0717C125.368 78.1848 124.987 77.2402 124.161 76.8484C122.904 76.2997 121.505 76.8296 120.273 77.2959C118.818 77.847 117.305 78.2277 115.831 78.7219C111.369 80.0911 114.098 82.3883 114.624 82.6376C115.394 83.0506 115.336 82.8801 115.413 83.1074Z" fill="white" stroke="black" stroke-width="0.8" stroke-miterlimit="10"/>
<path d="M121.353 89.9291C121.353 89.9291 123.003 95.1775 122.441 98.807" stroke="black" stroke-width="0.8" stroke-miterlimit="10"/>
<path d="M125.621 97.5619C125.621 97.5619 126.04 92.572 125.166 89.4219" stroke="black" stroke-width="0.8" stroke-miterlimit="10"/>
<path d="M119.685 90.4617C119.758 90.306 119.757 90.1145 119.607 90.0431C119.457 89.9717 119.29 90.0349 119.216 90.1906C119.143 90.3463 119.145 90.5377 119.295 90.6091C119.389 90.7016 119.556 90.6384 119.685 90.4617Z" fill="black" stroke="black" stroke-width="0.8" stroke-miterlimit="10"/>
<path d="M123.464 89.3191C123.537 89.1634 123.535 88.972 123.386 88.9005C123.236 88.8291 123.068 88.8923 122.995 89.048C122.922 89.2037 122.924 89.3951 123.073 89.4666C123.167 89.5591 123.391 89.4748 123.464 89.3191Z" fill="black" stroke="black" stroke-width="0.8" stroke-miterlimit="10"/>
<path d="M127.03 88.6438C127.103 88.4881 127.102 88.2967 126.952 88.2252C126.802 88.1538 126.634 88.217 126.561 88.3727C126.488 88.5284 126.49 88.7198 126.639 88.7913C126.789 88.8627 126.957 88.7995 127.03 88.6438Z" fill="black" stroke="black" stroke-width="0.8" stroke-miterlimit="10"/>
<path d="M115.419 83.1235L117.116 82.6151" stroke="black" stroke-width="0.8" stroke-miterlimit="10"/>
<path d="M122.854 81.2035L124.328 80.593" stroke="black" stroke-width="0.8" stroke-miterlimit="10"/>
<path d="M51.0328 64.1846C45.9428 67.4167 41.2488 71.589 35.5368 73.587C33.0484 74.4685 30.5034 74.8211 28.4109 73.587C25.6963 72.0004 23.8865 69.1209 22.5292 66.2414C20.8892 62.7743 19.8712 59.0133 18.6835 55.3699C17.7787 52.4904 13.3674 53.7244 14.2723 56.6039C16.591 63.8908 18.6835 72.1179 24.9611 76.8779C30.9559 81.4028 38.5342 77.8769 44.1897 74.4097C47.3002 72.4705 50.241 70.1787 53.3515 68.2394C55.8399 66.7115 53.5212 62.598 51.0328 64.1846Z" fill="black"/>
<path d="M21.9536 59.6016L21.4316 59.834C26.6509 57.7422 24.5632 48.1354 22.1027 46.4309C18.7475 44.4941 18.7475 51.0794 18.7475 51.0794C18.7475 51.0794 16.5852 47.2057 12.1862 44.1067C6.96694 40.3104 7.93623 44.9589 7.93623 44.9589C7.93623 44.9589 5.9231 42.9446 3.76085 44.1842C2.12053 45.4238 4.05909 47.2832 4.05909 47.2832C3.01525 46.8183 0.927567 46.121 0.480205 47.6705C0.107404 49.1425 1.52404 50.4596 2.26965 51.3118C3.38805 52.5514 4.58101 53.6361 5.77398 54.7207C6.14678 55.0306 6.81783 55.4954 6.96695 55.9603C9.05464 63.2429 14.423 62.8555 14.423 62.8555C14.2738 63.5528 14.2739 64.7924 14.6467 65.1798C15.1686 65.7221 15.9887 65.877 16.7343 65.6446C18.3001 65.1023 21.7299 63.7078 23.072 62.6231C24.8614 61.306 21.9536 59.6016 21.9536 59.6016Z" fill="white" stroke="black" stroke-width="0.8" stroke-miterlimit="10"/>
<path d="M7.93616 44.959L13.7519 50.5372" stroke="black" stroke-width="0.8" stroke-miterlimit="10"/>
<path d="M4.0592 47.2832L10.1732 53.0938" stroke="black" stroke-width="0.8" stroke-miterlimit="10"/>
<path d="M8.75635 54.1009L14.3484 50.0723" stroke="black" stroke-width="0.8" stroke-miterlimit="10"/>
<path d="M18.7475 51.0791L18.8966 52.2412C18.8966 52.2412 14.1993 51.9313 14.7213 56.2699" stroke="black" stroke-width="0.8" stroke-miterlimit="10"/>
<path d="M16.0634 62.0806L14.3485 63.0103" stroke="black" stroke-width="0.8" stroke-miterlimit="10"/>
<path d="M98.825 85.3955L87.3331 71.7302L86.6481 72.0805L91.0274 89.6131L79.6469 92.6539L74.1361 70.0227L73.8053 68.664L73.3737 69.9789L66.1158 92.0893L55.0711 88.1749L62.3568 65.9799L62.785 64.6753L61.7287 65.5294L43.8678 79.9727L36.7247 70.3677L50.4239 59.2405L50.0856 58.5295L33.0322 62.0777L30.7415 50.1141L50.6185 46.0441L52.0294 45.7552L50.6578 45.2691L31.4246 38.4525L35.1995 26.9527L54.3513 33.7405L55.7132 34.2231L54.777 33.1032L41.4631 17.1765L50.2849 9.2414L61.7256 22.7973L62.4105 22.4481L58.1109 4.94383L69.3854 1.95628L75.0834 24.8464L75.418 26.1903L75.8454 24.8883L83.1865 2.52417L94.2312 6.4386L86.9178 28.7181L86.487 30.0303L87.5468 29.1678L105.328 14.696L112.495 24.2184L98.797 35.3441L99.1328 36.0556L116.241 32.6178L118.481 44.4717L98.5732 48.6254L97.1735 48.9175L98.5354 49.4001L117.606 56.159L113.831 67.6588L94.6791 60.871L93.3076 60.3849L94.2544 61.5094L107.596 77.3542L98.825 85.3955Z" fill="#F96F6F" stroke="black" stroke-width="0.8"/>
<path d="M71.6741 45.2822C68.9602 45.4702 67.0605 44.2012 64.5274 44.3422C63.1252 44.4362 61.7683 44.7652 61.7683 46.3162C61.723 49.1832 63.8942 51.0632 66.5177 52.1912C69.9101 53.6483 73.8453 53.5073 77.1925 51.9562C80.0421 50.6402 82.9822 48.4782 82.3037 45.0942C81.9871 43.5432 80.6754 43.3552 79.3184 43.4492C76.8306 43.6372 74.1619 45.1412 71.6741 45.2822Z" fill="white" stroke="black" stroke-width="0.8" stroke-miterlimit="10"/>
<path d="M76.4236 44.1074C76.7854 45.0004 77.1925 46.2224 77.3735 47.7264C77.5996 49.4655 77.4187 50.9225 77.2378 51.9565" stroke="black" stroke-width="0.8" stroke-miterlimit="10"/>
<path d="M71.6742 45.2822C71.9908 46.2222 72.2622 47.4912 72.3527 48.9952C72.4431 50.7343 72.2622 52.1443 71.9908 53.2253" stroke="black" stroke-width="0.8" stroke-miterlimit="10"/>
<path d="M66.5177 44.4834C66.7891 45.4704 67.0605 46.8334 67.0605 48.5254C67.0605 50.0294 66.7891 51.2984 66.5177 52.1914" stroke="black" stroke-width="0.8" stroke-miterlimit="10"/>
<path d="M74.4281 38.5193C74.5664 39.5877 73.83 40.555 72.7949 40.7053C71.7599 40.8556 70.8286 40.1016 70.6903 39.0333C70.552 37.965 71.2883 36.9976 72.3234 36.8473C73.3585 36.697 74.2898 37.451 74.4281 38.5193Z" fill="#E30611" stroke="black" stroke-width="0.8" stroke-miterlimit="10"/>
<path d="M76.9373 40.5445C78.5371 39.9083 80.5774 39.6015 82.7473 39.7505C83.0697 39.7638 83.3921 39.777 83.7184 39.8368C85.3422 40.0428 86.8449 40.4491 88.0406 41.0282C88.5842 39.2821 88.8771 37.2806 88.9271 35.1168C88.9486 34.2699 88.9284 33.4742 88.8173 32.6881C88.6435 30.5946 88.2121 28.7156 87.5309 27.1443C86.4383 24.4897 84.7326 22.7437 82.8057 22.7571C82.7602 22.7618 82.7147 22.7666 82.6692 22.7713C80.2911 22.8787 78.1708 25.5402 77.1144 29.4045C76.6957 30.9968 76.429 32.7609 76.3559 34.6456C76.3636 34.7386 76.3258 34.8364 76.3336 34.9295C76.3214 36.9955 76.5708 38.8934 76.9373 40.5445Z" fill="white" stroke="black" stroke-width="0.8" stroke-miterlimit="10"/>
<path d="M77.117 29.4183C78.2146 25.5037 80.2885 22.8476 82.6656 22.7403C83.9642 24.0121 84.8242 26.0804 84.8807 28.4203C84.8862 29.5925 84.702 30.6908 84.3698 31.6638L81.3502 30.6653L83.4247 33.5452C82.4409 34.9614 81.0508 35.9041 79.4925 35.926C78.302 35.9564 77.2094 35.5075 76.2678 34.6675C76.4319 32.7738 76.6985 31.0101 77.117 29.4183Z" fill="black" stroke="black" stroke-width="0.8" stroke-miterlimit="10"/>
<path d="M56.8171 40.5951L56.821 40.6416L56.8248 40.6882C56.8287 40.7347 56.8326 40.7812 56.8858 40.8695C57.1056 40.7527 57.3709 40.6312 57.5945 40.5609C57.7272 40.5001 57.8598 40.4394 57.9925 40.3786C59.2395 39.92 60.6385 39.6332 62.1439 39.523C62.7355 39.4613 63.3347 39.4926 63.9301 39.4773C64.0211 39.4678 64.0666 39.4631 64.1615 39.5001C65.5914 39.5855 66.8508 39.8294 67.9892 40.2736C68.4001 38.5885 68.6097 36.6898 68.5841 34.7218C68.4793 27.9292 65.5967 22.5058 62.1153 22.5876C60.1926 22.6475 58.4999 24.3726 57.3927 27.0688C57.2416 27.4599 57.0943 27.8976 56.9509 28.3818C56.9548 28.4283 56.9131 28.4796 56.917 28.5261C56.8753 28.5773 56.8831 28.6704 56.8414 28.7217C56.8036 28.8194 56.8075 28.866 56.7697 28.9637C56.7358 29.108 56.698 29.2058 56.6641 29.3501C56.634 29.5409 56.5546 29.69 56.5246 29.8808C56.4945 30.0716 56.4644 30.2625 56.3889 30.458C56.2948 30.984 56.2008 31.5099 56.1523 32.0311C56.1222 32.2219 56.0921 32.4128 56.1037 32.5523C56.1037 32.5523 56.1037 32.5523 56.1076 32.5988C56.0814 32.8362 56.059 33.12 56.0328 33.3574C56.0028 33.5482 56.0182 33.7342 56.0337 33.9203C56.0452 34.0599 56.0113 34.2042 56.0229 34.3437C56.0268 34.3902 56.0268 34.3902 56.0306 34.4368C56.0461 34.6228 56.016 34.8137 56.0353 35.0462C56.061 37.0142 56.3102 38.912 56.8171 40.5951Z" fill="white" stroke="black" stroke-width="0.8" stroke-miterlimit="10"/>
<path d="M56.7123 29.3613C57.7191 25.4557 59.7857 22.7063 62.1634 22.5988C63.5078 23.8661 64.4096 25.8834 64.5116 28.2188C64.5626 29.3865 64.3784 30.4849 64.0916 31.4533L61.1778 30.6313L63.2373 33.3254C62.3027 34.7837 60.9122 35.7264 59.3574 35.7949C58.1705 35.8719 57.0321 35.4276 56.0904 34.5875C56.0763 32.7591 56.2936 30.9534 56.7123 29.3613Z" fill="black" stroke="black" stroke-width="0.8" stroke-miterlimit="10"/>
<path d="M54.7741 54.2031L60.2004 56.7632L69.3985 61.2814L65.0604 70.4968L44.6453 56.4649L54.7741 54.2031Z" fill="white"/>
<path d="M93.2946 56.7186L78.5823 62.1635L79.8266 71.915L101.401 59.8182L93.2946 56.7186Z" fill="white"/>
<path d="M54.7741 54.2031L60.2004 56.7632L69.3985 61.2814L65.0604 70.4968L44.6453 56.4649L54.7741 54.2031Z" stroke="black" stroke-width="0.8"/>
<path d="M93.2946 56.7186L78.5823 62.1635L79.8266 71.915L101.401 59.8182L93.2946 56.7186Z" stroke="black" stroke-width="0.8"/>
<path d="M68.9404 61.927L78.0274 62.079L73.6018 69.5455L77.6267 74.6066L76.1326 98.6471L72.3188 103.928L68.5838 97.7908L69.478 73.6859L73.6018 69.5455L68.9404 61.927Z" fill="#5663F1"/>
<path d="M73.6018 69.5455L78.0274 62.079L68.9404 61.927L73.6018 69.5455ZM73.6018 69.5455L69.478 73.6859L68.5838 97.7908L72.3188 103.928L76.1326 98.6471L77.6267 74.6066L73.6018 69.5455Z" stroke="black" stroke-width="0.8"/>
</g>
<defs>
<clipPath id="clip0_3_36403">
<rect width="131.977" height="120" fill="white" transform="translate(0.304688 0.241699)"/>
</clipPath>
</defs>
</svg>
