<svg width="117" height="121" viewBox="0 0 117 121" fill="none" xmlns="http://www.w3.org/2000/svg">
    <g clip-path="url(#clip0_722_4363)">
        <path d="M6.29677 32.4623C7.21494 32.2783 8.40856 32.8761 8.54628 33.8878C9.41854 40.4635 10.5203 46.9473 12.6321 53.2471C13.4585 55.6843 14.6062 58.3054 16.718 59.9148C18.8757 61.6162 21.4925 61.9841 24.1552 61.9381C27.4606 61.8462 30.6742 61.2024 33.9796 61.1104C34.9896 61.0644 35.8159 62.1221 35.77 63.0877C35.7241 64.0994 34.806 64.7891 33.796 64.7891C27.736 65.0191 21.217 67.0884 15.6162 63.6855C12.9076 62.0301 11.0713 59.363 9.87763 56.512C8.6381 53.523 7.76584 50.3501 6.98539 47.2232C5.97541 43.0846 5.3786 38.8541 4.82769 34.6695C4.73588 33.6579 5.24087 32.6922 6.29677 32.4623Z" fill="black"/>
        <path d="M6.52621 32.3246C6.52621 32.3246 7.62802 22.7139 10.9793 23.3117C13.5961 23.8175 10.7957 33.0143 10.7957 33.0143L6.52621 32.3246Z" fill="white" stroke="black" stroke-width="0.8" stroke-miterlimit="10"/>
        <path d="M3.17476 32.4624C3.17476 32.4624 -1.00292 23.9094 2.3484 23.3116C5.69972 22.7138 6.80153 32.0026 6.80153 32.0026L3.17476 32.4624Z" fill="white" stroke="black" stroke-width="0.8" stroke-miterlimit="10"/>
        <path d="M11.8515 33.5659C11.8515 33.5659 14.9274 37.6125 11.2088 40.1876C11.2088 40.1876 13.137 41.6591 10.8415 42.7627C8.54611 43.8664 3.45026 44.2342 4.36843 41.4752C4.36843 41.4752 -0.81923 39.4059 1.38438 33.9338L11.8515 33.5659Z" fill="white" stroke="black" stroke-width="0.8" stroke-miterlimit="10"/>
        <path d="M11.2547 40.1418C11.2547 40.1418 10.0611 40.8776 9.00519 41.0615" stroke="black" stroke-width="0.8" stroke-miterlimit="10"/>
        <path d="M6.61792 41.3833C6.61792 41.3833 5.69975 41.6128 4.41431 41.4751" stroke="black" stroke-width="0.8" stroke-miterlimit="10"/>
        <path d="M0.787607 31.5428C1.33851 31.2669 2.11895 31.3588 2.66986 31.6807C3.49621 32.1406 3.95529 33.1062 4.23075 33.9799C4.46029 34.7157 4.55211 35.6813 3.81757 36.2331C2.76167 36.9689 1.70578 36.1872 1.01715 35.3594C0.37443 34.5777 -0.176472 33.4741 0.0530703 32.4624C0.190796 32.0026 0.466247 31.6807 0.787607 31.5428Z" fill="white" stroke="black" stroke-width="0.8" stroke-miterlimit="10"/>
        <path d="M11.8975 33.6121C10.1071 31.7268 5.88349 31.9107 4.3685 32.0027C3.49624 32.0486 2.57807 32.2786 2.30262 33.1063C1.29263 35.8653 7.49028 36.693 7.49028 36.693C7.49028 36.693 6.93938 38.6704 8.68391 39.1762" fill="white"/>
        <path d="M11.8975 33.6121C10.1071 31.7268 5.88349 31.9107 4.3685 32.0027C3.49624 32.0486 2.57807 32.2786 2.30262 33.1063C1.29263 35.8653 7.49028 36.693 7.49028 36.693C7.49028 36.693 6.93938 38.6704 8.68391 39.1762" stroke="black" stroke-width="0.8" stroke-miterlimit="10"/>
        <path d="M66.131 100.575C66.131 100.575 64.3186 96.8188 62.6312 103.079C60.8189 109.777 64.6936 106.209 64.6936 106.209L65.0061 107.335C65.0061 107.335 57.5691 113.22 62.5687 117.288C67.5684 121.357 70.4432 113.783 71.6931 109.026C72.943 104.268 75.2553 99.3228 66.131 100.575Z" fill="#E30611" stroke="black" stroke-width="0.8" stroke-miterlimit="10"/>
        <path d="M66.1309 100.575C66.1309 100.575 66.4433 101.764 65.8809 103.392L66.1309 100.575Z" fill="black"/>
        <path d="M66.1309 100.575C66.1309 100.575 66.4433 101.764 65.8809 103.392" stroke="black" stroke-width="0.8" stroke-miterlimit="10"/>
        <path d="M65.2559 105.144C65.2559 105.144 65.1934 105.52 64.631 106.146L65.2559 105.144Z" fill="black"/>
        <path d="M65.2559 105.144C65.2559 105.144 65.1934 105.52 64.631 106.146" stroke="black" stroke-width="0.8" stroke-miterlimit="10"/>
        <path d="M65.0058 107.335L67.5681 105.645" stroke="black" stroke-width="0.8" stroke-miterlimit="10"/>
        <path d="M65.0058 107.335L67.5056 107.773" stroke="black" stroke-width="0.8" stroke-miterlimit="10"/>
        <path d="M61.9436 113.47C62.0061 113.72 62.0686 113.971 62.1936 114.159C62.256 114.409 62.381 114.597 62.506 114.785C62.756 115.223 63.006 115.598 63.381 115.849C63.6934 116.162 64.1309 116.412 64.5684 116.6C65.0059 116.788 65.5058 116.913 65.9433 117.038V117.101C65.6933 117.101 65.4433 117.038 65.1933 117.038C64.9434 116.975 64.6934 116.975 64.4434 116.85C63.9434 116.725 63.506 116.412 63.131 116.099C62.381 115.411 62.0061 114.472 61.9436 113.47Z" fill="white"/>
        <path d="M62.5688 105.082C62.4438 105.082 62.3813 105.082 62.2563 105.082C58.5066 104.957 54.7569 104.205 51.0696 103.141C50.6947 103.016 50.3197 102.891 49.9447 102.766C48.7573 102.39 47.6324 102.014 46.5075 101.639C46.1325 101.514 45.7575 101.388 45.3826 101.263C45.2576 101.201 45.1326 101.201 45.0076 101.138C40.6329 99.4479 36.9457 96.3806 36.5707 91.3727C36.3832 88.2428 37.5081 85.6136 39.383 83.3601C40.5079 84.5495 41.6328 85.6136 42.6328 86.6152C41.9453 87.5542 41.4454 88.6184 41.2579 89.7451C40.4454 94.0644 44.4451 96.0676 47.8824 97.2569C48.2574 97.3821 48.6323 97.5073 48.9448 97.6325C49.0073 97.6325 49.1323 97.6951 49.1948 97.6951C50.4447 98.0707 51.6946 98.5089 53.007 98.8219C53.3195 98.8845 53.632 99.0097 53.9444 99.0723C56.6317 99.8235 59.444 100.324 62.1938 100.449C62.6313 100.449 63.0063 100.575 63.3187 100.762C65.3186 101.827 65.0686 105.144 62.5688 105.082Z" fill="black" stroke="black" stroke-width="0.8" stroke-miterlimit="10"/>
        <path d="M66.1373 86.6307C65.6998 87.0689 65.3249 87.5697 64.8874 88.0705C63.825 89.3224 56.2506 97.1329 55.1881 98.5101C52.3758 102.203 49.5011 106.272 47.5012 109.778C47.3762 109.966 47.2512 110.091 47.1262 110.279C45.4389 112.094 41.9391 110.091 43.314 107.712C43.439 107.462 43.564 107.274 43.689 107.023C45.6888 103.643 47.8762 100.138 50.251 96.8825C51.1884 95.568 52.1884 94.2534 53.1883 93.0014C54.0632 91.8747 61.5127 84.252 62.5126 83.1878C62.5751 83.1252 62.6376 83.0626 62.7001 83L62.6376 83.2504C62.7626 83.4382 65.4499 86.0047 66.1373 86.6307Z" fill="black" stroke="black" stroke-width="0.8" stroke-miterlimit="10"/>
        <path d="M45.4862 114.212C44.4238 116.779 43.4239 118.281 42.424 119.095C39.6742 121.286 37.0493 117.78 34.1121 114.963C31.1123 112.084 27.1126 107.389 28.175 104.071C28.4875 102.944 29.4249 102.005 31.1123 101.379C37.9243 98.7503 40.3616 110.456 40.3616 110.456L40.7366 109.893C40.6116 109.768 40.2991 109.204 40.2366 108.641C40.1741 108.015 40.6116 107.326 41.1115 107.138C42.2365 106.638 44.0488 108.453 44.9862 109.455C45.8612 110.331 47.9235 112.459 47.2986 113.586C47.2361 113.711 46.8611 114.149 45.4862 114.212Z" fill="#E30611" stroke="black" stroke-width="0.8" stroke-miterlimit="10"/>
        <path d="M45.4861 114.212C45.4861 114.212 44.5487 113.774 42.9863 112.209" stroke="black" stroke-width="0.8" stroke-miterlimit="10"/>
        <path d="M41.549 110.644C41.549 110.644 41.1115 110.393 40.6741 109.705" stroke="black" stroke-width="0.8" stroke-miterlimit="10"/>
        <path d="M35.7368 102.882C35.4868 102.756 35.2993 102.631 35.0493 102.569C34.7993 102.443 34.6118 102.381 34.3619 102.318C33.9244 102.193 33.4244 102.068 32.987 102.13C32.5495 102.13 32.0495 102.193 31.6121 102.381C31.1746 102.506 30.7371 102.819 30.2997 103.007C30.4871 102.882 30.6746 102.694 30.9246 102.506C31.1746 102.381 31.3621 102.193 31.6121 102.13C32.0495 101.88 32.5495 101.817 33.1119 101.755C33.9869 101.755 34.9868 102.193 35.7368 102.882Z" fill="white"/>
        <path d="M42.4239 119.032C42.3614 119.095 42.2989 119.22 42.2364 119.282C41.6739 119.846 40.549 119.783 39.799 119.595C37.5492 118.907 35.7993 116.528 34.1745 114.9C31.1747 112.021 27.3 107.138 28.2374 104.008C29.1123 101.191 34.0495 106.575 35.0494 107.702C37.4242 110.331 39.799 113.148 41.6739 116.152C42.1114 116.966 42.9863 118.093 42.4239 119.032Z" fill="white" stroke="black" stroke-width="0.8" stroke-miterlimit="10"/>
        <path d="M28.9874 108.203L33.0496 105.636" stroke="black" stroke-width="0.8" stroke-miterlimit="10"/>
        <path d="M30.9247 111.395L35.6743 108.578" stroke="black" stroke-width="0.8" stroke-miterlimit="10"/>
        <path d="M33.6748 114.65L38.1744 111.583" stroke="black" stroke-width="0.8" stroke-miterlimit="10"/>
        <path d="M36.8617 117.592L40.7989 115.025" stroke="black" stroke-width="0.8" stroke-miterlimit="10"/>
        <path d="M45.5708 25.6683C50.0357 17.9349 61.1978 17.9349 65.6626 25.6683L92.5587 72.2536C97.0235 79.9869 91.4425 89.6536 82.5128 89.6536H28.7207C19.791 89.6536 14.2099 79.9869 18.6748 72.2536L45.5708 25.6683Z" fill="#D9D9D9" stroke="black" stroke-width="0.8"/>
        <path d="M67.2141 19.3241C67.2141 19.3241 77.8274 22.5325 75.579 31.332L55.4024 31.1748L35.5125 29.298C34.4265 22.6025 43.0817 19.2516 43.0817 19.2516C43.2084 19.1968 43.3586 15.6096 43.4384 15.3041C43.671 13.4575 44.2617 11.8172 45.4025 10.2702C47.7567 6.99448 51.8006 4.37294 56.0025 4.30227C61.7534 4.13383 66.3546 8.79767 67.3399 14.0615C67.5239 15.126 67.5849 16.1834 67.5228 17.2338C67.454 17.3539 67.0947 19.2553 67.2141 19.3241Z" fill="#5663F1" stroke="black" stroke-width="0.8" stroke-miterlimit="10"/>
        <path d="M34.5175 36.8535C39.6886 36.0922 55.5929 34.514 77.5555 39.1227C78.7757 39.3787 79.9385 38.513 79.9463 37.3328C79.9432 36.3383 80.1248 35.3544 79.9985 34.353C79.8186 32.1678 79.0779 29.0185 76.4603 28.372C72.3184 27.39 66.8545 26.8297 61.7637 26.2285C53.5482 25.2005 43.2612 24.7378 34.5985 27.1021C34.0951 27.2598 33.6423 27.6068 33.4284 28.0917C32.9391 29.058 32.4315 30.334 32.2134 31.9372C32.0136 33.2308 32.0673 34.4145 32.2551 35.4195C32.4502 36.3006 33.3985 36.9761 34.5175 36.8535Z" fill="#5663F1" stroke="black" stroke-width="0.8" stroke-miterlimit="10"/>
        <path d="M42.5258 25.6978L42.463 35.9684" stroke="black" stroke-width="0.8" stroke-miterlimit="10"/>
        <path d="M52.0471 25.4468L51.5474 36.0625" stroke="black" stroke-width="0.8" stroke-miterlimit="10"/>
        <path d="M61.5729 26.2476L60.7845 36.6612" stroke="black" stroke-width="0.8" stroke-miterlimit="10"/>
        <path d="M71.085 27.3566L70.0031 37.5071" stroke="black" stroke-width="0.8" stroke-miterlimit="10"/>
        <path d="M59.2516 71.179C56.4052 73.2482 52.6866 73.7081 49.3353 72.7884C48.1417 72.4665 46.8563 71.9147 45.7086 71.133C43.9181 69.9374 42.5868 68.236 42.6327 66.0287C42.7245 64.0054 44.2395 63.4536 46.0299 63.4536C47.5908 63.4536 49.3812 63.9135 50.483 64.1894C51.4471 64.4193 52.3653 64.6032 53.3753 64.5572C54.9362 64.4653 56.4052 63.7755 57.9202 63.5916C58.2416 63.5456 58.5629 63.5456 58.9302 63.5916C59.9861 63.6376 61.1797 63.9135 61.8684 64.6032C63.8883 66.5805 60.8125 69.9834 59.2516 71.179Z" fill="black" stroke="black" stroke-width="0.8" stroke-miterlimit="10"/>
        <path d="M59.2515 71.1787C56.4052 73.248 52.6866 73.7079 49.3353 72.7882C48.1417 72.4663 46.8562 71.9145 45.7085 71.1328C47.0858 69.2474 49.6107 68.0058 52.4571 68.0058C55.3952 67.9598 57.8743 69.2474 59.2515 71.1787Z" fill="#E30611" stroke="black" stroke-width="0.8" stroke-miterlimit="10"/>
        <path d="M86.4423 82.9955C85.9808 80.3354 83.5673 78.8535 81.0252 79.7372C78.4764 80.583 76.7771 83.4394 77.2011 86.1056C77.6626 88.7657 80.0761 90.2476 82.6182 89.3639C85.167 88.5181 86.9038 85.6556 86.4423 82.9955ZM81.9935 87.3165C80.4669 87.8392 79.0025 86.9449 78.7256 85.3488C78.4487 83.7528 79.4648 82.063 80.9914 81.5403C82.518 81.0176 83.9824 81.9119 84.2593 83.508C84.5362 85.1041 83.5267 86.8319 81.9935 87.3165Z" fill="#F96F6F" stroke="black" stroke-width="0.8" stroke-miterlimit="10"/>
        <path d="M79.1853 77.5548C79.1853 77.5548 81.3876 93.3673 69.1264 94.5073C57.5095 95.5813 56.5142 79.6109 56.5142 79.6109L79.1853 77.5548Z" fill="#F96F6F" stroke="black" stroke-width="0.8" stroke-miterlimit="10"/>
        <path d="M79.2505 77.598C79.0602 75.7314 73.8231 74.6829 67.5532 75.256C61.2833 75.8291 56.3548 77.8068 56.5451 79.6733C56.7354 81.5399 61.9725 82.5884 68.2424 82.0153C74.5123 81.4422 79.4408 79.4645 79.2505 77.598Z" fill="#F96F6F" stroke="black" stroke-width="0.8" stroke-miterlimit="10"/>
        <path d="M57.2873 80.7359C56.8515 80.452 56.6038 80.1371 56.5001 79.7591C58.0354 77.8866 60.4155 77.0999 63.1597 77.7548C65.2621 78.2782 66.7955 79.0927 68.8526 78.0036C70.9407 76.8699 72.5839 75.8489 75.1267 76.4579C76.417 76.7593 78.0017 76.9727 79.2761 77.6323C79.3611 79.4753 74.4723 81.4254 68.2586 81.9734C63.5325 82.3952 59.3893 81.931 57.5396 80.8524" fill="black"/>
        <path d="M57.2873 80.7359C56.8515 80.452 56.6038 80.1371 56.5001 79.7591C58.0354 77.8866 60.4155 77.0999 63.1597 77.7548C65.2621 78.2782 66.7955 79.0927 68.8526 78.0036C70.9407 76.8699 72.5839 75.8489 75.1267 76.4579C76.417 76.7593 78.0017 76.9727 79.2761 77.6323C79.3611 79.4753 74.4723 81.4254 68.2586 81.9734C63.5325 82.3952 59.3893 81.931 57.5396 80.8524" stroke="black" stroke-width="0.8" stroke-miterlimit="10"/>
        <path d="M72.6506 77.2416C73.4828 76.9083 74.4052 76.8745 75.2853 77.0441C76.1653 77.2137 77.003 77.5866 77.7787 78.0484C77.9112 78.1445 77.7937 78.3602 77.6611 78.2642C76.8921 77.8406 76.0985 77.4996 75.2561 77.3239C74.4136 77.1481 73.5354 77.214 72.6967 77.509C72.5528 77.572 72.5068 77.3045 72.6506 77.2416Z" fill="white"/>
        <path d="M57.2808 80.7842C57.5715 80.2253 57.9881 79.7242 58.5064 79.3638C59.1553 78.8639 59.919 78.581 60.7466 78.4448C61.2356 78.3644 61.7002 78.3666 62.2089 78.4008C62.366 78.4143 62.3678 78.6499 62.2108 78.6364C60.6403 78.5016 59.018 78.9651 57.9918 80.1954C57.799 80.4237 57.6438 80.6458 57.5328 80.9L57.2808 80.7842Z" fill="white"/>
        <path d="M71.6703 77.4258C71.7766 77.3691 71.8894 77.3506 71.9956 77.2939C72.0708 77.2816 72.115 77.3136 72.1657 77.3838C72.1789 77.4601 72.1479 77.5044 72.0793 77.555C72.0041 77.5673 71.8978 77.624 71.8226 77.6364L71.785 77.6425C71.7474 77.6487 71.7098 77.6549 71.7098 77.6549C71.6722 77.661 71.6657 77.6229 71.6215 77.5909C71.6149 77.5527 71.6083 77.5145 71.6083 77.5145C71.6393 77.4702 71.6703 77.4258 71.6703 77.4258Z" fill="white"/>
        <path d="M62.9288 78.4714C63.0791 78.4467 63.205 78.5045 63.3374 78.6003C63.3816 78.6323 63.4323 78.7024 63.3703 78.7909C63.3393 78.8352 63.2707 78.8857 63.1824 78.8218C63.1449 78.8279 63.1383 78.7898 63.1007 78.796C63.0566 78.764 63.019 78.7702 62.9814 78.7763C62.9438 78.7825 62.9438 78.7825 62.9063 78.7887C62.8311 78.801 62.7804 78.7309 62.7672 78.6547C62.8226 78.528 62.8536 78.4837 62.9288 78.4714Z" fill="white"/>
        <path d="M76.8329 78.6829C77.3858 79.4492 77.8775 80.3034 78.2578 81.1759C78.5244 81.8332 78.9986 82.8071 78.4587 83.4407C78.1395 83.8044 77.5756 83.8577 77.1822 83.5716C76.7385 83.2158 76.6643 82.5659 76.6097 82.0296C76.5005 80.9571 76.6208 79.8859 76.8154 78.8026C76.8154 78.8026 76.8089 78.7647 76.8329 78.6829Z" fill="black" stroke="black" stroke-width="0.8" stroke-miterlimit="10"/>
        <path d="M76.823 81.5639C76.847 81.4821 76.9081 81.3943 76.9889 81.42C77.0697 81.4457 77.1571 81.5093 77.1331 81.5911C77.1047 81.8683 77.1069 82.1015 77.1898 82.3605C77.2663 82.5816 77.3864 82.8345 77.5982 82.9555C77.679 82.9813 77.6987 83.0948 77.6375 83.1827C77.5764 83.2706 77.5021 83.2827 77.4148 83.2192C77.1592 83.0663 76.9889 82.7438 76.8994 82.4469C76.8164 82.188 76.7574 81.8472 76.823 81.5639Z" fill="white"/>
        <path d="M32.0502 50.7878C32.586 47.5075 35.4937 45.2053 38.7525 45.3492C39.0565 45.3486 39.309 45.3769 39.6017 45.4167C43.1601 46.0368 45.5503 49.4099 44.9752 52.9833C44.3599 56.5452 40.9935 58.9343 37.4237 58.3544C37.131 58.3147 36.8497 58.2348 36.5683 58.1549C33.4966 57.1951 31.503 54.1084 32.0502 50.7878Z" fill="white" stroke="black" stroke-width="0.8" stroke-miterlimit="10"/>
        <path d="M36.5683 58.1549C37.512 57.1195 38.3394 55.5732 38.8795 53.8148L34.8625 51.2829L39.5061 50.2126C39.5927 48.3689 39.301 46.6348 38.7525 45.3492C35.5338 45.2168 32.6261 47.519 32.0502 50.7879C31.503 54.1085 33.4965 57.1952 36.5683 58.1549Z" fill="black" stroke="black" stroke-width="0.8" stroke-miterlimit="10"/>
        <path d="M59.8681 50.3333C60.3518 47.0444 63.2224 44.6955 66.4828 44.787C66.7867 44.7816 67.0396 44.8058 67.3328 44.8408C70.9003 45.4037 73.3432 48.7383 72.8248 52.3208C72.266 55.8926 68.9382 58.3358 65.36 57.8133C65.0668 57.7783 64.7843 57.7029 64.5018 57.6275C61.4155 56.7172 59.3736 53.6627 59.8681 50.3333Z" fill="white" stroke="black" stroke-width="0.8" stroke-miterlimit="10"/>
        <path d="M64.5018 57.6276C65.4288 56.5771 66.2316 55.0175 66.7437 53.2504L62.6876 50.7832L67.3132 49.6383C67.3706 47.7932 67.0516 46.0639 66.4828 44.7871C63.2628 44.7064 60.3922 47.0553 59.8681 50.3335C59.3736 53.6628 61.4155 56.7173 64.5018 57.6276Z" fill="black" stroke="black" stroke-width="0.8" stroke-miterlimit="10"/>
        <circle cx="36.3069" cy="51.7092" r="8.35465" stroke="black" stroke-width="0.8"/>
        <circle cx="64.2172" cy="51.0166" r="8.35465" stroke="black" stroke-width="0.8"/>
        <rect x="45.1683" y="51.0166" width="10.2859" height="0.692716" fill="black"/>
        <path d="M114.92 79.24C112.588 82.7816 107.625 83.7723 103.731 84.4176C102.237 84.669 100.733 84.8286 99.2238 84.9424C98.5401 85.015 97.8059 85.0465 97.1223 85.1191C97.0767 85.1239 97.0767 85.1239 97.0311 85.1288C96.2513 85.1651 95.4259 85.2064 94.6512 85.2886C94.1954 85.337 93.7802 85.3346 93.3244 85.383C92.9598 85.4217 92.5902 85.4145 92.2256 85.4532C89.8862 85.5624 87.5518 85.7174 85.2324 86.0099C84.2298 86.1164 83.2174 85.7135 82.96 84.6273C82.945 84.4897 82.9299 84.3522 82.9148 84.2146C82.9155 83.3794 83.458 82.4403 84.3239 82.3484C84.643 82.3145 84.962 82.2807 85.281 82.2468C85.4178 82.2323 85.5545 82.2178 85.6912 82.2033C88.5625 81.8985 91.4538 81.7772 94.2946 81.6149C94.9832 81.5882 95.6213 81.5204 96.31 81.4937C96.5834 81.4647 96.8113 81.4405 97.0898 81.4573C97.8696 81.421 98.6899 81.3339 99.4647 81.2517C101.84 81.046 104.195 80.6568 106.484 80.0891C108.054 79.6905 109.436 79.2654 110.713 78.2947C111.184 77.9664 111.554 77.5559 111.782 77.1141C111.706 77.2614 111.904 76.5445 111.879 76.7327C111.894 76.4527 111.879 76.3152 111.824 76.2283C111.298 74.7994 109.714 73.8077 108.484 73.1031C105.286 71.2621 101.549 70.406 97.955 69.5812C93.6468 68.5539 94.6949 68.6672 90.4267 67.9845C90.4267 67.9845 89.6326 66.551 89.2587 65.9303C88.6575 64.9319 88.0714 63.8337 88.0714 63.8337C90.2738 64.1567 96.1457 65.273 98.3226 65.7842C102.347 66.7489 106.509 67.699 110.148 69.7717C113.559 71.451 117.485 75.3026 114.92 79.24Z" fill="black"/>
        <path d="M93.9339 78.7321C93.9339 78.7321 95.842 76.8605 96.4908 78.5574C97.0027 79.8507 97.1981 82.849 97.2552 84.1898C97.2761 84.7914 96.9787 85.4262 96.4585 85.7129C96.1099 85.8887 95.089 85.8098 94.5985 85.536C93.7655 86.3198 92.7312 87.7748 90.397 88.2977C88.6489 88.7129 86.7184 88.7291 84.9643 88.2625C84.0645 88.0315 83.2352 87.6074 82.6481 86.8794C82.3242 86.4488 82.0407 85.9676 81.9794 85.4167C81.9488 85.1413 81.9687 84.907 82.0745 84.6173C82.1149 84.5666 82.3316 84.0331 82.3316 84.0331C82.3316 84.0331 80.4897 81.9501 82.8634 80.5407C82.8634 80.5407 80.2214 77.0553 85.9019 77.2504C86.2254 77.263 86.3753 75.7148 87.572 74.8929C87.7437 74.782 89.0315 73.9506 90.4872 74.2163C92.2818 74.6323 93.7696 76.4272 93.9339 78.7321Z" fill="white" stroke="black" stroke-width="0.8" stroke-miterlimit="10"/>
        <path d="M82.9527 80.6919L85.1477 80.93" stroke="black" stroke-width="0.8" stroke-miterlimit="10"/>
        <path d="M82.3535 84.1335L84.6244 84.2228" stroke="black" stroke-width="0.8" stroke-miterlimit="10"/>
        <path d="M85.9647 77.3582L89.1281 77.5885" stroke="black" stroke-width="0.8" stroke-miterlimit="10"/>
        <path d="M93.9604 78.7224L94.2016 80.9626" stroke="black" stroke-width="0.8" stroke-miterlimit="10"/>
        <path d="M94.4254 83.8987L94.6483 85.54" stroke="black" stroke-width="0.8" stroke-miterlimit="10"/>
        <path d="M52.0595 53.4036L51.6883 56.3164C51.6883 56.3164 47.0478 55.4488 46.7384 57.8658C46.429 60.2829 51.8739 59.911 51.8739 59.911" fill="#D9D9D9"/>
        <path d="M52.0595 53.4036L51.6883 56.3164C51.6883 56.3164 47.0478 55.4488 46.7384 57.8658C46.429 60.2829 51.8739 59.911 51.8739 59.911" stroke="black" stroke-width="0.8" stroke-miterlimit="10"/>
    </g>
    <defs>
        <clipPath id="clip0_722_4363">
            <rect width="117" height="121" fill="white"/>
        </clipPath>
    </defs>
</svg>
